<svg width="78" height="78" viewBox="0 0 78 78" fill="none" xmlns="http://www.w3.org/2000/svg">
<circle cx="38.97" cy="38.97" r="37.97" fill="white"/>
<circle cx="38.97" cy="38.97" r="38.47" stroke="#2E3192" stroke-opacity="0.2" stroke-linejoin="round"/>
<circle opacity="0.6" cx="38.89" cy="38.89" r="33.89" fill="#C8DCFE"/>
<g clip-path="url(#clip0_1807_5000)">
<path d="M58.9932 41.8256C58.9932 44.3129 58.9858 46.8003 58.999 49.2868C58.999 49.9178 58.7502 50.3845 58.2468 50.728C57.2631 51.3948 56.1467 51.7499 54.9963 51.9116C53.5207 52.1183 52.0294 52.205 50.5439 52.3392C50.4353 52.3484 50.2951 52.3642 50.2204 52.3092C50.0894 52.2167 49.9086 52.0692 49.9094 51.9466C49.9102 51.8241 50.0819 51.6499 50.2196 51.5807C50.3573 51.5115 50.5431 51.5357 50.7081 51.534C52.6506 51.5157 54.5815 51.3765 56.4312 50.7305C56.9918 50.5346 57.5036 50.1812 58.0071 49.8561C58.2368 49.7094 58.3488 48.7725 58.1729 48.5791C58.0809 48.4782 57.832 48.4024 57.7201 48.4549C55.5221 49.4885 53.1682 49.6485 50.8002 49.7377C50.6642 49.7427 50.5 49.7552 50.3979 49.6894C50.2777 49.611 50.1375 49.4476 50.1416 49.3259C50.1458 49.2042 50.2943 49.0259 50.4195 48.9775C50.5904 48.9108 50.7994 48.9383 50.9926 48.9333C52.8928 48.8833 54.7831 48.7374 56.5846 48.0756C57.0823 47.8939 57.5335 47.5805 57.978 47.2846C58.2169 47.1254 58.3562 46.2685 58.1887 46.0534C58.1058 45.9475 57.852 45.8567 57.7441 45.9075C55.4292 47.0045 52.9509 47.1512 50.4552 47.2054C50.1483 47.212 49.7311 47.2804 49.7236 46.8186C49.7162 46.3568 50.1259 46.4152 50.4386 46.411C52.4897 46.3852 54.5326 46.2676 56.4859 45.5724C57.02 45.3824 57.5077 45.0431 57.9905 44.7306C58.2169 44.5839 58.3538 43.742 58.1904 43.5377C58.1008 43.4252 57.8337 43.3344 57.7151 43.3869C54.9 44.648 51.9257 44.7264 48.9232 44.6147C48.6644 44.6047 48.4355 44.5247 48.438 44.2204C48.438 43.892 48.6761 43.8353 48.9564 43.827C50.5439 43.7803 52.1397 43.8103 53.7148 43.6419C54.813 43.5244 55.8854 43.1418 56.9612 42.8526C57.2332 42.7792 57.4887 42.6083 57.7242 42.4433C58.2053 42.1099 58.377 41.6097 58.2144 41.0613C58.1481 40.8354 57.9872 40.7178 57.7367 40.8204C53.5207 42.5458 49.211 42.43 44.8748 41.423C44.1623 41.2563 43.4822 40.8954 42.8261 40.5503C42.2314 40.2369 41.9826 39.6784 41.9826 38.9899C41.9951 37.4895 41.9992 35.9891 41.9826 34.4887C41.9735 33.7468 42.2796 33.2125 42.895 32.8316C43.9268 32.1956 45.0739 31.8938 46.2459 31.6821C48.7004 31.2486 51.2065 31.1941 53.6775 31.5204C53.986 31.5596 54.4422 31.4696 54.4322 32.0097C54.4264 32.3148 54.1735 32.3781 53.5796 32.3098C50.7156 31.9805 47.8649 32.0089 45.0631 32.7716C44.4637 32.9358 43.8886 33.1791 43.3528 33.4951C42.5848 33.9477 42.6063 34.412 43.3586 34.8938C44.2237 35.4473 45.2033 35.7074 46.1994 35.8782C49.5909 36.4617 52.9708 36.4734 56.2976 35.489C56.8898 35.3131 57.448 34.9622 57.9656 34.6096C58.348 34.3478 58.3496 34.0594 57.9789 33.7943C57.4912 33.4468 56.9379 33.1892 56.403 32.9091C56.2371 32.8199 56.009 32.8216 55.8622 32.7116C55.7444 32.6232 55.625 32.4081 55.6556 32.2864C55.6863 32.1648 55.926 31.9839 56.0314 32.0097C57.0026 32.2448 57.9714 32.5374 58.6482 33.3301C58.8589 33.5801 58.9717 33.9861 58.975 34.3228C59.0057 36.8235 58.9932 39.325 58.9932 41.8256ZM50.5331 41.4089C51.8245 41.2838 53.1193 41.1896 54.4057 41.0237C55.4522 40.9037 56.4693 40.5984 57.4099 40.1218C58.0029 39.8126 58.3504 39.3841 58.2318 38.6615C58.1729 38.3022 58.0095 38.1822 57.6728 38.328C57.3361 38.4739 56.9935 38.6398 56.641 38.7557C54.6504 39.4133 52.5909 39.6125 50.5124 39.595C48.0308 39.5742 45.5707 39.3908 43.2757 38.2972C42.9962 38.1647 42.8527 38.3322 42.8071 38.5814C42.676 39.3016 42.851 39.6934 43.4971 40.0602C43.823 40.2417 44.1644 40.3935 44.5173 40.5136C46.4615 41.1788 48.4886 41.3072 50.5331 41.4063V41.4089ZM50.4842 38.8465C51.5989 38.7632 52.7178 38.7173 53.8268 38.5823C55.075 38.4297 56.3026 38.1655 57.4372 37.5695C58.027 37.2619 58.3297 36.8243 58.2302 36.1316C58.1787 35.7707 58.0112 35.6465 57.6711 35.7874C57.3021 35.9407 56.9404 36.1208 56.5605 36.2417C54.6869 36.8477 52.7502 37.0469 50.7952 37.0469C48.2157 37.0469 45.6528 36.8877 43.2641 35.7532C42.9746 35.6165 42.8494 35.794 42.8037 36.0416C42.6777 36.7918 42.8552 37.1652 43.5311 37.542C43.8216 37.7024 44.1252 37.8377 44.4385 37.9463C46.3951 38.6315 48.4281 38.7815 50.4842 38.844V38.8465Z" fill="black"/>
<path d="M29.585 28.8638C28.9489 28.8638 28.3102 28.9004 27.6774 28.8529C27.0968 28.8088 26.6431 29.0046 26.1886 29.3289C24.188 30.7534 22.6444 32.5856 21.4285 34.7036C20.0401 37.1209 19.0912 39.6933 18.8225 42.4949C18.3605 47.307 21.0719 50.5428 24.475 52.1516C26.5162 53.116 28.6893 53.4477 30.9271 53.4302C31.0797 53.4302 31.2522 53.3819 31.3783 53.4394C31.5441 53.5136 31.6686 53.6711 31.8104 53.7928C31.6851 53.9304 31.5616 54.0754 31.4289 54.2013C31.3882 54.2388 31.2961 54.2263 31.2273 54.2279C28.2215 54.2846 25.3575 53.7278 22.7962 52.079C19.1053 49.7068 17.5377 46.2583 18.1175 41.9314C18.7055 37.5419 20.5933 33.7134 23.6182 30.4875C24.3116 29.7473 25.1833 29.1747 25.9754 28.5279C26.0932 28.432 26.2334 28.3611 26.3478 28.2653C26.8388 27.8435 26.8811 27.4317 26.566 26.8674C25.8195 25.5237 25.073 24.18 24.3721 22.8105C24.1432 22.3629 24.0296 21.8436 23.9325 21.3435C23.7758 20.5307 24.2643 19.9406 25.0829 20.0048C25.9613 20.0748 26.867 20.1256 27.6989 20.3849C29.7418 21.0217 31.7473 20.9367 33.7852 20.4065C34.5823 20.199 35.4126 20.1006 36.2345 20.0148C37.0308 19.9314 37.506 20.4466 37.2995 21.2284C37.07 22.1129 36.7647 22.9758 36.3871 23.8074C35.9359 24.7885 35.3794 25.7246 34.8511 26.6649C34.3957 27.4784 34.5068 27.8318 35.2492 28.4153C36.281 29.2255 37.3144 30.0466 38.2525 30.961C39.3308 32.0104 40.1469 33.2749 40.837 34.6153C40.9 34.7378 40.9929 34.8703 40.9879 34.9945C40.983 35.1187 40.905 35.3238 40.8063 35.3646C40.6827 35.4163 40.4928 35.3646 40.3568 35.3055C40.2738 35.2688 40.2332 35.1296 40.1809 35.0321C38.8588 32.5397 37.0075 30.5309 34.6711 28.9738C34.0905 28.587 33.7894 28.0669 33.7811 27.3792C33.7769 27.0325 33.6152 26.9216 33.2909 26.9233C32.0186 26.9308 30.7471 26.9283 29.4756 26.9233C29.3254 26.9233 29.1438 26.9391 29.0327 26.8666C28.9695 26.8238 28.9162 26.768 28.8763 26.7029C28.8364 26.6378 28.8108 26.5649 28.8012 26.489C28.8012 26.3806 28.9406 26.2214 29.0559 26.1706C29.1994 26.1089 29.381 26.1256 29.5461 26.1256C30.9702 26.1256 32.3943 26.1147 33.8184 26.1314C34.1046 26.1314 34.3161 26.0555 34.4322 25.8121C35.0833 24.4968 35.7725 23.1973 36.3548 21.8519C36.7604 20.915 36.5447 20.69 35.532 20.8658C34.4579 21.0517 33.3946 21.2968 32.3246 21.5068C30.8856 21.7894 29.4756 21.6519 28.0581 21.2926C27.1275 21.0567 26.162 20.9517 25.2065 20.825C24.8051 20.7716 24.6417 20.9417 24.7288 21.3393C24.8416 21.8494 24.9826 22.3721 25.2206 22.8322C25.8253 23.9992 26.483 25.1436 27.1383 26.2864C27.3871 26.7149 27.5953 27.1367 27.553 27.6526C27.5248 27.986 27.7329 28.0694 28.0274 28.0694C29.2583 28.0636 30.4891 28.0694 31.72 28.0694H32.0932C32.3761 28.0694 32.6556 28.1161 32.6489 28.472C32.6423 28.8279 32.357 28.8638 32.0783 28.8646L29.585 28.8638Z" fill="black"/>
<path d="M40.1302 57.2289C44.6315 57.238 47.9102 54.2064 48.2055 50.3262C48.5016 46.4244 45.7595 42.8826 41.9574 42.2824C40.2986 42.0199 38.7086 42.2641 37.2189 43.0718C37.1825 43.0918 37.1451 43.1102 37.1095 43.131C36.8722 43.266 36.6284 43.3361 36.4691 43.0393C36.3099 42.7426 36.4691 42.5467 36.7321 42.4483C37.5698 42.1341 38.3909 41.7156 39.2602 41.5564C44.3387 40.6212 48.9345 44.4739 48.9992 49.6702C49.0507 53.7963 45.8823 57.4381 41.8073 57.9357C36.8573 58.5401 32.5758 54.8566 32.4688 49.8428C32.4207 47.5922 33.2203 45.6292 34.739 43.9704C34.8286 43.872 34.953 43.7637 35.0707 43.7462C35.1885 43.7287 35.3934 43.7678 35.4689 43.8579C35.5443 43.9479 35.5443 44.1429 35.5078 44.2746C35.4714 44.4063 35.3552 44.5005 35.264 44.6081C33.1183 47.0254 32.6157 49.8019 33.9004 52.731C35.1827 55.6318 37.5466 57.128 40.1302 57.2289Z" fill="black"/>
<path d="M40.6235 49.3087C40.9138 49.3087 41.2041 49.2887 41.4936 49.3087C42.6349 49.4029 43.3955 50.1764 43.4345 51.2634C43.4734 52.3212 42.7228 53.1622 41.599 53.3214C41.0084 53.4048 41.0092 53.4048 41.0076 54.0174C41.0076 54.2809 41.049 54.5568 40.9852 54.8043C40.9445 54.9627 40.7471 55.0811 40.6202 55.2169C40.4892 55.0827 40.2785 54.9669 40.2453 54.8102C40.1831 54.5176 40.2064 54.2017 40.2246 53.8932C40.2478 53.5165 40.1184 53.3514 39.7178 53.3164C38.6304 53.2214 37.9122 52.5129 37.8176 51.5076C37.7919 51.235 37.8226 50.9783 38.1444 50.9366C38.4662 50.895 38.5591 51.1142 38.5956 51.4009C38.696 52.1236 39.1654 52.5187 39.9003 52.5229C40.3979 52.5229 40.8956 52.5287 41.3933 52.5229C42.1099 52.5137 42.6457 51.9861 42.6424 51.3026C42.639 50.6191 42.0958 50.1064 41.375 50.0981C40.8774 50.0922 40.3797 50.1056 39.882 50.0922C38.7258 50.0622 37.8914 49.2587 37.8458 48.1526C37.8002 47.0464 38.5823 46.1971 39.7435 46.0937C40.0902 46.0629 40.2362 45.9086 40.2221 45.5644C40.2097 45.2593 40.2171 44.9534 40.2221 44.6475C40.2271 44.3974 40.3333 44.1974 40.6028 44.1915C40.8973 44.1857 41.0026 44.3907 41.0034 44.6633C41.0043 44.9359 41.0208 45.2201 41.0034 45.4969C40.9761 45.897 41.1328 46.0704 41.5434 46.0954C42.5536 46.1579 43.2727 46.8456 43.4112 47.8392C43.4502 48.1159 43.4577 48.3985 43.1019 48.4551C42.746 48.5118 42.6722 48.2651 42.6366 47.9692C42.609 47.6758 42.4747 47.403 42.2593 47.203C42.044 47.0031 41.7627 46.89 41.4696 46.8856C40.9172 46.8647 40.3631 46.8639 39.8107 46.8856C39.6517 46.886 39.4944 46.9187 39.3484 46.9819C39.2023 47.045 39.0705 47.1373 38.9609 47.253C38.8513 47.3688 38.7662 47.5057 38.7107 47.6554C38.6552 47.8051 38.6304 47.9646 38.6379 48.1242C38.6479 48.7844 39.1447 49.2754 39.8356 49.2979C40.0985 49.307 40.3615 49.2979 40.6235 49.2979V49.3087Z" fill="black"/>
</g>
<defs>
<clipPath id="clip0_1807_5000">
<rect width="41" height="38" fill="white" transform="translate(18 20)"/>
</clipPath>
</defs>
</svg>
