<svg width="109" height="103" viewBox="0 0 109 103" fill="none"
                                        xmlns="http://www.w3.org/2000/svg">
                                        <ellipse cx="54.7803" cy="51.3802" rx="49.96" ry="49.97" fill="white" />
                                        <path
                                            d="M54.7803 101.85C82.6487 101.85 105.24 79.2539 105.24 51.3802C105.24 23.5064 82.6487 0.910156 54.7803 0.910156C26.9119 0.910156 4.32031 23.5064 4.32031 51.3802C4.32031 79.2539 26.9119 101.85 54.7803 101.85Z"
                                            stroke="#2E3192" stroke-opacity="0.2" stroke-linejoin="round" />
                                        <circle opacity="0.6" cx="54.57" cy="51.57" r="44.57" fill="#C8DCFE" />
                                        <path
                                            d="M53.9558 29.2418C58.8349 29.2418 62.8607 33.3396 62.6282 38.2147C62.4673 41.5849 60.8687 44.1503 57.8167 45.7107C57.3811 45.9329 57.2287 46.184 57.23 46.6738C57.2473 53.0352 57.2375 59.3965 57.25 65.7578C57.25 66.2272 57.1207 66.572 56.7771 66.8965C55.986 67.6427 55.2304 68.4267 54.4575 69.1929C54.0367 69.6103 53.8535 69.6138 53.4469 69.2098C52.6162 68.3836 51.7767 67.5654 50.9709 66.7152C50.8002 66.5334 50.69 66.2369 50.6669 65.9836C50.6224 65.4716 50.6402 64.952 50.6624 64.4365C50.6953 63.66 51.1318 63.2018 51.8958 63.1032C52.4198 63.0352 52.5891 62.8427 52.5913 62.3076C52.5913 61.9307 52.5913 61.5543 52.5913 61.1774C52.594 60.7827 52.4029 60.5583 52.0135 60.4912C50.9989 60.3156 50.6589 59.9134 50.6527 58.8774C50.6504 58.5289 50.6415 58.1787 50.666 57.8316C50.7158 57.1205 51.1384 56.676 51.8375 56.5712C52.4598 56.4765 52.5895 56.3263 52.5904 55.6996C52.5904 55.3512 52.594 55.0023 52.5904 54.6534C52.5847 54.2223 52.4047 54.0143 51.9887 53.9423C51.0109 53.7778 50.6553 53.3645 50.6553 52.3516C50.6509 50.4263 50.6411 48.5009 50.6638 46.5738C50.6687 46.1454 50.5149 45.9272 50.1424 45.7387C47.0535 44.1769 45.4251 41.6054 45.2687 38.1974C45.0451 33.328 49.0691 29.2418 53.9558 29.2418ZM53.9513 29.9823C53.4255 30.04 52.8931 30.0618 52.3753 30.16C49.1038 30.7867 46.2953 33.772 46.0198 37.3467C45.7678 40.6094 47.7589 43.9605 50.8891 45.2623C51.2891 45.428 51.4375 45.6427 51.4344 46.0694C51.4175 48.1623 51.4264 50.2552 51.4269 52.348C51.4269 52.9654 51.534 53.092 52.1402 53.1992C52.9264 53.3383 53.3327 53.804 53.3571 54.608C53.3673 54.9565 53.3602 55.3058 53.3598 55.6547C53.3575 56.732 53.0131 57.1396 51.9575 57.324C51.6087 57.3849 51.4242 57.5907 51.4242 57.9529C51.4269 58.2738 51.4242 58.5947 51.4242 58.9156C51.4242 59.5049 51.5455 59.6458 52.1247 59.7396C52.914 59.8667 53.3335 60.3343 53.3558 61.1334C53.3682 61.5378 53.3633 61.9427 53.3558 62.3472C53.3438 63.2578 52.922 63.7209 52.0118 63.8636C51.8525 63.8919 51.7044 63.9646 51.5847 64.0734C51.3371 64.3054 51.3535 65.9712 51.5847 66.2232C51.594 66.2334 51.6038 66.2436 51.6135 66.2534C52.2847 66.924 52.9638 67.5867 53.622 68.2703C53.8722 68.5294 54.0473 68.4885 54.2771 68.2512C54.8398 67.6703 55.4033 67.0872 56.0007 66.5423C56.3464 66.2267 56.478 65.8978 56.4767 65.4218C56.4593 59.0036 56.4695 52.5849 56.4558 46.1667C56.4558 45.6778 56.6015 45.4334 57.0664 45.2334C60.5415 43.7525 62.4811 39.9889 61.7153 36.2845C60.9735 32.6823 57.6762 30.0214 53.9513 29.9823Z"
                                            fill="black" />
                                        <path
                                            d="M43.0573 51.1138C41.5528 51.1138 40.0484 51.1187 38.5439 51.1103C38.0697 51.1076 37.9559 50.9823 37.9559 50.5023C37.9515 49.2334 37.9457 47.9636 37.9604 46.6947C37.9639 46.3885 37.8577 46.2156 37.5879 46.0725C36.7137 45.6089 36.4639 44.5987 36.9919 43.7494C37.4599 42.9938 38.5359 42.8103 39.3151 43.3494C40.0262 43.8414 40.1733 44.9294 39.6191 45.6569C39.5302 45.776 39.4142 45.9112 39.2817 45.9596C38.7626 46.1489 38.6946 46.5334 38.7115 47.0223C38.7435 47.9138 38.7204 48.8076 38.7208 49.7C38.7208 50.2747 38.7702 50.3263 39.3342 50.3263C42.0091 50.3263 44.6844 50.3263 47.3599 50.3263C47.5377 50.3263 47.7395 50.312 47.8933 50.3832C48.0146 50.4392 48.1417 50.6125 48.1502 50.7418C48.1573 50.8449 48.0106 51.0085 47.8946 51.0578C47.7506 51.1218 47.5679 51.1107 47.4022 51.1112C45.9542 51.1153 44.5059 51.1162 43.0573 51.1138ZM39.2066 44.6516C39.2049 44.5366 39.1806 44.4231 39.135 44.3175C39.0894 44.212 39.0234 44.1164 38.9409 44.0364C38.8583 43.9563 38.7608 43.8934 38.6538 43.8511C38.5469 43.8087 38.4327 43.7879 38.3177 43.7898C37.8662 43.8018 37.4733 44.2076 37.4733 44.6587C37.4733 45.1098 37.8733 45.5125 38.3248 45.52C38.4398 45.521 38.5538 45.4993 38.6603 45.4561C38.7668 45.413 38.8638 45.3492 38.9457 45.2686C39.0276 45.1879 39.0928 45.0919 39.1376 44.9861C39.1823 44.8802 39.2058 44.7665 39.2066 44.6516Z"
                                            fill="black" />
                                        <path
                                            d="M64.7384 51.1142C63.2899 51.1142 61.8415 51.1195 60.3931 51.1098C60.0917 51.1098 59.6615 51.2013 59.6544 50.7271C59.6473 50.2529 60.0766 50.3302 60.3802 50.3298C63.0693 50.323 65.7585 50.3216 68.4477 50.3258C69.0491 50.3258 69.0886 50.2853 69.0891 49.6849C69.0891 48.6947 69.0797 47.704 69.0944 46.7138C69.0993 46.412 69.0019 46.2271 68.7317 46.0813C68.0055 45.6889 67.6944 44.9573 67.9117 44.2222C68.1313 43.4773 68.7917 42.9893 69.5304 43.0267C70.3375 43.0675 70.9526 43.6347 71.0859 44.4627C71.1779 45.0324 70.8548 45.7569 70.3188 46.0182C69.9433 46.1995 69.8402 46.4413 69.8477 46.8373C69.8708 48.064 69.8477 49.292 69.8602 50.5195C69.8637 50.9222 69.6975 51.1164 69.2944 51.116C67.7762 51.1142 66.2578 51.1142 64.7393 51.116L64.7384 51.1142ZM68.605 44.648C68.6053 44.7629 68.6282 44.8767 68.6725 44.9828C68.7167 45.0888 68.7815 45.1851 68.863 45.2661C68.9446 45.3471 69.0413 45.4112 69.1476 45.4548C69.254 45.4984 69.3679 45.5205 69.4828 45.52C69.937 45.5142 70.3348 45.1151 70.3379 44.6622C70.3411 44.2093 69.9477 43.8031 69.4966 43.7898C69.3816 43.7873 69.2671 43.8075 69.1599 43.8494C69.0527 43.8912 68.9548 43.9538 68.8718 44.0335C68.7888 44.1132 68.7224 44.2085 68.6763 44.314C68.6302 44.4194 68.6054 44.5329 68.6033 44.648H68.605Z"
                                            fill="black" />
                                        <path
                                            d="M43.0842 56.2391C44.5339 56.2391 45.9837 56.2391 47.4335 56.2391C47.5864 56.2391 47.7637 56.2085 47.8855 56.2738C48.0073 56.3391 48.1402 56.5022 48.1522 56.6329C48.1619 56.7382 48.021 56.9036 47.9059 56.9613C47.7802 57.0245 47.6073 57.0058 47.4553 57.0058C44.7492 57.0076 42.0431 57.0076 39.337 57.0058C38.7539 57.0058 38.7215 57.0391 38.721 57.6249C38.721 58.6293 38.7339 59.6338 38.713 60.6378C38.7068 60.9489 38.8237 61.1231 39.0828 61.2645C39.8028 61.6573 40.1162 62.3893 39.8984 63.1258C39.6708 63.8956 39.0233 64.352 38.2322 64.3013C37.441 64.2507 36.8468 63.6893 36.721 62.8725C36.6322 62.2907 36.9735 61.5836 37.5344 61.2978C37.8517 61.1369 37.9677 60.9391 37.9615 60.5822C37.9397 59.3551 37.9517 58.1271 37.9539 56.8996C37.9539 56.3378 38.049 56.2409 38.6082 56.2396C40.1003 56.2372 41.5923 56.2371 43.0842 56.2391ZM39.205 62.6871C39.2072 62.5145 39.1576 62.3451 39.0628 62.2009C38.9679 62.0566 38.832 61.944 38.6726 61.8776C38.5133 61.8112 38.3377 61.794 38.1684 61.8282C37.9992 61.8624 37.844 61.9464 37.7229 62.0695C37.6018 62.1926 37.5203 62.3491 37.4889 62.5188C37.4575 62.6886 37.4775 62.8639 37.5465 63.0222C37.6155 63.1805 37.7303 63.3145 37.8761 63.407C38.0219 63.4995 38.192 63.5463 38.3646 63.5413C38.5886 63.5372 38.802 63.4454 38.9591 63.2857C39.1162 63.126 39.2045 62.9111 39.205 62.6871Z"
                                            fill="black" />
                                        <path
                                            d="M64.7439 56.24C66.2635 56.24 67.783 56.236 69.3026 56.2422C69.747 56.2422 69.851 56.3644 69.8528 56.8364C69.8568 58.1058 69.8635 59.3751 69.8475 60.6444C69.8435 60.9524 69.9532 61.124 70.2164 61.2667C71.0937 61.7467 71.3448 62.7462 70.8195 63.5907C70.3577 64.3329 69.3124 64.524 68.527 64.0151C67.7932 63.5378 67.6168 62.48 68.1715 61.7231C68.3128 61.5302 68.5341 61.3835 68.7444 61.2578C68.983 61.1147 69.0999 60.9515 69.0928 60.6587C69.0764 59.6267 69.0875 58.5942 69.0861 57.5618C69.0861 57.0609 69.0306 57.0049 68.5341 57.0049C65.8284 57.0049 63.1223 57.0049 60.4159 57.0049C60.2906 57.0049 60.1644 57.0084 60.0395 56.9987C59.8017 56.9809 59.595 56.8573 59.655 56.6164C59.6928 56.4675 59.9132 56.2658 60.059 56.2609C60.9221 56.2235 61.7875 56.2355 62.6524 56.2333C63.3488 56.2333 64.0457 56.2333 64.7412 56.2333L64.7439 56.24ZM69.4746 61.8369C69.3599 61.8343 69.246 61.8549 69.1395 61.8974C69.033 61.9399 68.9361 62.0034 68.8548 62.0842C68.7734 62.165 68.7092 62.2613 68.6659 62.3675C68.6226 62.4737 68.6013 62.5876 68.603 62.7022C68.603 62.8731 68.6536 63.0401 68.7484 63.1823C68.8432 63.3245 68.978 63.4354 69.1358 63.5011C69.2935 63.5667 69.4672 63.5842 69.6349 63.5513C69.8026 63.5185 69.9568 63.4367 70.078 63.3163C70.1993 63.1959 70.2822 63.0423 70.3163 62.8748C70.3504 62.7074 70.3341 62.5336 70.2696 62.3754C70.205 62.2171 70.0951 62.0816 69.9536 61.9857C69.8121 61.8899 69.6455 61.8381 69.4746 61.8369Z"
                                            fill="black" />
                                        <path
                                            d="M53.9584 36.7556C52.9024 36.7614 52.0299 35.8996 52.0313 34.852C52.0353 34.3487 52.2374 33.8671 52.5937 33.5116C52.9501 33.156 53.432 32.955 53.9354 32.9521C54.4388 32.9491 54.9231 33.1444 55.2836 33.4957C55.6441 33.847 55.8519 34.3261 55.8619 34.8294C55.8828 35.8667 55.0144 36.7476 53.9584 36.7556ZM53.9659 35.9911C54.1908 35.9856 54.409 35.9136 54.593 35.7841C54.7769 35.6546 54.9184 35.4735 54.9994 35.2636C55.0805 35.0537 55.0975 34.8246 55.0483 34.605C54.9992 34.3855 54.886 34.1855 54.7232 34.0302C54.5604 33.875 54.3552 33.7715 54.1336 33.7329C53.912 33.6942 53.6839 33.7221 53.4781 33.813C53.2723 33.904 53.0981 34.0539 52.9776 34.2438C52.857 34.4337 52.7954 34.6551 52.8006 34.88C52.8091 35.1813 52.9364 35.4669 53.1547 35.6747C53.373 35.8824 53.6646 35.9954 53.9659 35.9889V35.9911Z"
                                            fill="black" />
                                    </svg>