<svg width="109" height="102" viewBox="0 0 109 102" fill="none"
                                        xmlns="http://www.w3.org/2000/svg">
                                        <ellipse cx="54.96" cy="50.97" rx="49.96" ry="49.97" fill="white" />
                                        <path
                                            d="M54.96 101.44C82.8284 101.44 105.42 78.8437 105.42 50.97C105.42 23.0963 82.8284 0.5 54.96 0.5C27.0916 0.5 4.5 23.0963 4.5 50.97C4.5 78.8437 27.0916 101.44 54.96 101.44Z"
                                            stroke="#2E3192" stroke-opacity="0.2" stroke-linejoin="round" />
                                        <circle opacity="0.6" cx="54.57" cy="50.57" r="44.57" fill="#C8DCFE" />
                                        <path
                                            d="M40.4336 50.4659C40.4896 43.843 44.9105 37.9035 51.6882 36.255C52.9906 35.9305 54.3338 35.8005 55.6742 35.8695C59.0929 36.061 62.1102 37.272 64.6748 39.5408C67.1458 41.7265 68.6766 44.4689 69.3376 47.6991C69.528 48.6117 69.6243 49.5414 69.6248 50.4736C69.6187 52.6124 69.1955 54.6729 68.2779 56.6096C66.2052 60.9847 62.7875 63.7168 58.083 64.8326C56.8072 65.1327 55.4933 65.2375 54.1861 65.1433C50.8963 64.9156 47.9839 63.7398 45.4931 61.5785C43.0171 59.4294 41.4633 56.7217 40.7631 53.522C40.5492 52.5172 40.4388 51.4932 40.4336 50.4659ZM55.0172 64.1731C56.2573 64.1691 57.3822 64.0341 58.4471 63.755C61.5857 62.9326 64.105 61.1884 66.0351 58.5988C67.6031 56.495 68.4668 54.1173 68.6506 51.4992C68.7549 50.1229 68.6589 48.7387 68.3654 47.39C67.3979 43.0297 64.4233 39.7934 61.1482 38.149C59.0995 37.1203 56.927 36.6645 54.6379 36.723C53.2456 36.7541 51.8666 37.0007 50.55 37.4543C48.5502 38.1485 46.8166 39.2612 45.3286 40.7645C43.7366 42.3748 42.6035 44.256 41.9466 46.4229C41.2389 48.8477 41.1823 51.4162 41.7826 53.8698C42.4324 56.4212 43.7141 58.602 45.6275 60.4123C48.2589 62.9092 51.3979 64.1482 55.0172 64.1731Z"
                                            fill="black" />
                                        <path
                                            d="M65.9414 61.9038C65.9582 61.7439 66.001 61.583 66.1186 61.4567C66.1576 61.4103 66.2085 61.3754 66.2658 61.3558C66.3232 61.3362 66.3848 61.3327 66.444 61.3457C68.1609 61.6675 69.8778 61.9875 71.5947 62.3056C72.3077 62.4386 73.0242 62.5694 73.7382 62.7034C73.8387 62.7203 73.9372 62.7478 74.032 62.7854C74.2963 62.8969 74.3752 63.1556 74.2199 63.3965C74.1694 63.4702 74.1114 63.5385 74.0468 63.6002C73.6872 63.9621 73.3267 64.3233 72.9651 64.6839C72.7996 64.8494 72.8006 64.9492 72.9651 65.1168L76.2091 68.4259C76.2504 68.4659 76.289 68.5086 76.3247 68.5537C76.4105 68.6587 76.4559 68.7909 76.4524 68.9265C76.4489 69.062 76.3969 69.1918 76.3059 69.2922C76.2692 69.336 76.2269 69.3757 76.1867 69.4164L73.6984 71.9067C73.5355 72.0697 73.3588 72.1033 73.1612 71.9882C73.0643 71.9274 72.9757 71.8541 72.8979 71.7702C71.8149 70.6702 70.7325 69.5692 69.6509 68.4672C69.607 68.4136 69.5512 68.3711 69.4879 68.3429C69.386 68.3129 69.2969 68.347 69.2154 68.431C68.8686 68.7875 68.5172 69.1404 68.1592 69.4857C68.0674 69.5731 67.9597 69.6423 67.842 69.6894C67.7918 69.711 67.7377 69.722 67.6831 69.7218C67.6285 69.7215 67.5745 69.71 67.5245 69.6879C67.4746 69.6658 67.4297 69.6337 67.3927 69.5934C67.3558 69.5532 67.3276 69.5058 67.3098 69.4541C67.2413 69.229 67.189 68.9992 67.1534 68.7666C66.8099 66.8399 66.4681 64.9131 66.1283 62.986C66.0736 62.6784 66.0195 62.3708 65.9658 62.0632C65.9577 62.0133 65.9501 61.9624 65.9414 61.9038ZM67.3602 62.4167C67.1275 62.4085 67.0669 62.464 67.0694 62.6474C67.0715 62.7238 67.0797 62.7999 67.0939 62.875C67.3037 64.0802 67.514 65.2855 67.7248 66.4907C67.8027 66.9363 67.8812 67.3819 67.9571 67.8281C67.9723 67.9167 68.008 67.9936 68.0951 68.0185C68.1821 68.0435 68.2825 68.045 68.3558 67.9549C68.4067 67.8912 68.4724 67.8367 68.531 67.7781C68.7072 67.6025 68.8824 67.4257 69.0591 67.2511C69.2159 67.0983 69.3911 67.0387 69.6162 67.1018C69.8199 67.1594 69.9951 67.2378 70.1255 67.4074C70.1924 67.4844 70.2637 67.5575 70.3389 67.6264C71.2997 68.6052 72.2606 69.5836 73.2218 70.5618C73.3695 70.7145 73.4764 70.7115 73.6256 70.5618C74.1542 70.0345 74.6822 69.5067 75.2094 68.9785C75.3556 68.8318 75.3566 68.7152 75.215 68.5711C74.1384 67.4738 73.0619 66.3763 71.9853 65.2787C71.9223 65.2152 71.8641 65.1471 71.8111 65.075C71.6915 64.911 71.6981 64.7425 71.8142 64.579C71.8554 64.5223 71.9012 64.4692 71.9512 64.4201C72.162 64.2072 72.3708 63.9918 72.5883 63.7856C72.6275 63.7527 72.6559 63.7088 72.6698 63.6596C72.6837 63.6103 72.6824 63.558 72.6662 63.5095C72.6392 63.4118 72.5521 63.3802 72.4594 63.3659C72.4217 63.3603 72.384 63.3527 72.3469 63.3456L68.1567 62.5582C67.8766 62.5114 67.5945 62.4605 67.3602 62.4167Z"
                                            fill="black" />
                                        <path
                                            d="M36.6937 29.0292C36.851 29.0373 36.9692 29.1193 37.0746 29.2273C37.3557 29.5145 37.637 29.8014 37.9184 30.0879C38.7332 30.916 39.5481 31.7439 40.3629 32.5716C40.4094 32.6215 40.4675 32.6593 40.5319 32.6816C40.6313 32.7106 40.7092 32.6607 40.7825 32.5858C41.1268 32.235 41.4756 31.8892 41.8234 31.5429C41.8873 31.4797 41.9529 31.4191 42.0205 31.3611C42.2894 31.1309 42.6342 31.2592 42.7162 31.5648C42.7778 31.7985 42.8256 32.0364 42.874 32.2737C43.3032 34.3582 43.7318 36.443 44.1599 38.5279C44.1935 38.6575 44.2197 38.7889 44.2383 38.9215C44.2577 39.141 44.1996 39.3381 44.0097 39.4746C43.9662 39.5064 43.9165 39.5285 43.8638 39.5395C43.8111 39.5505 43.7566 39.55 43.7041 39.5382C43.0212 39.413 42.3363 39.2948 41.6523 39.1741C40.4535 38.9619 39.2549 38.7496 38.0564 38.537C37.4963 38.4382 36.9391 38.3395 36.3815 38.2366C36.2934 38.221 36.2078 38.1938 36.1269 38.1556C36.0664 38.1277 36.013 38.0865 35.9707 38.035C35.9283 37.9836 35.8982 37.9233 35.8824 37.8586C35.8666 37.7938 35.8657 37.7264 35.8796 37.6613C35.8936 37.5961 35.922 37.535 35.9629 37.4824C36.0065 37.4275 36.0538 37.3756 36.1044 37.327C36.4558 36.9746 36.8076 36.6226 37.1596 36.2708C37.3287 36.1018 37.3282 36.0035 37.1596 35.8405L33.8092 32.6149L33.7807 32.5894C33.4751 32.2956 33.4711 32.0089 33.7715 31.7145C34.4638 31.0355 35.1577 30.3582 35.8534 29.6826C36.0311 29.5089 36.2099 29.3373 36.3856 29.1595C36.4678 29.0783 36.5781 29.0316 36.6937 29.0292ZM42.7421 38.4714C43.0136 38.479 43.0731 38.4164 43.0594 38.1999C43.0556 38.162 43.0498 38.1242 43.0421 38.0869C42.9212 37.4418 42.8005 36.7967 42.68 36.1517C42.4882 35.1243 42.2962 34.097 42.104 33.0696C42.0862 32.9739 42.0455 32.895 41.9513 32.8705C41.9055 32.8559 41.8564 32.8555 41.8103 32.8692C41.7643 32.8829 41.7234 32.9102 41.6931 32.9474C41.5596 33.1002 41.417 33.2484 41.2785 33.3981C41.1767 33.5107 41.0748 33.6273 40.9648 33.7337C40.8548 33.8401 40.7265 33.9252 40.5701 33.8615C40.3888 33.7877 40.2137 33.7088 40.066 33.5626C39.0135 32.5027 37.9585 31.4463 36.9009 30.3935C36.8653 30.3573 36.8306 30.3196 36.7925 30.286C36.7708 30.2652 36.7453 30.2488 36.7173 30.2378C36.6894 30.2269 36.6595 30.2215 36.6295 30.2221C36.5995 30.2227 36.5698 30.2291 36.5423 30.2412C36.5148 30.2532 36.4899 30.2705 36.4691 30.2921C35.9174 30.8404 35.3675 31.3913 34.8196 31.9447C34.783 31.9934 34.7595 32.0508 34.7513 32.1112C34.7269 32.2131 34.7977 32.2732 34.8629 32.3368C35.9975 33.4484 37.1313 34.5607 38.2642 35.674C38.314 35.7234 38.3585 35.7779 38.3971 35.8364C38.4445 35.8979 38.4701 35.9733 38.4701 36.0508C38.4701 36.1284 38.4445 36.2038 38.3971 36.2652C38.3263 36.3632 38.2483 36.4558 38.1639 36.5423C37.9505 36.7618 37.729 36.9736 37.5166 37.1936C37.371 37.3464 37.4341 37.5399 37.6383 37.5801C37.7886 37.6102 37.9398 37.6311 38.0906 37.6596L41.9324 38.3328C42.2212 38.3827 42.5104 38.4306 42.7421 38.4714Z"
                                            fill="black" />
                                        <path
                                            d="M37.272 64.909C37.2908 64.8117 37.2323 64.7608 37.1773 64.7053C36.8208 64.3488 36.4643 63.9923 36.1078 63.6359C36.0247 63.5567 35.9516 63.4678 35.8899 63.371C35.7569 63.1505 35.8328 62.8949 36.0706 62.7991C36.238 62.738 36.4109 62.6936 36.587 62.6667C38.3226 62.3388 40.0583 62.0128 41.7942 61.689C42.408 61.5739 43.022 61.4586 43.6362 61.3432C43.7034 61.3299 43.7728 61.3335 43.8383 61.3536C43.9038 61.3737 43.9633 61.4096 44.0116 61.4583C44.0598 61.5069 44.0953 61.5667 44.1148 61.6324C44.1344 61.698 44.1374 61.7675 44.1236 61.8346C43.8061 63.6238 43.4892 65.413 43.1728 67.2022C43.0587 67.8473 42.9438 68.4938 42.828 69.142C42.811 69.2163 42.7903 69.2897 42.7659 69.362C42.7027 69.5809 42.5112 69.6303 42.3284 69.6889C42.2778 69.6956 42.2265 69.6825 42.1853 69.6522C42.0989 69.5988 42.0182 69.5367 41.9444 69.4669C41.5808 69.1104 41.2213 68.7458 40.8597 68.3852C40.6927 68.2187 40.5883 68.2166 40.4253 68.3827C39.5392 69.284 38.6539 70.1856 37.7695 71.0873C37.5373 71.3241 37.3081 71.5645 37.0698 71.7952C36.9918 71.8692 36.9012 71.9289 36.8024 71.9714C36.6721 72.0284 36.5702 71.9857 36.4842 71.8767C36.4076 71.7755 36.3253 71.6788 36.2377 71.5869C35.4908 70.8363 34.742 70.0868 33.9913 69.3385C33.9598 69.307 33.9272 69.2764 33.8971 69.2438C33.6313 68.9525 33.6043 68.7656 33.8971 68.4484C34.2215 68.097 34.5653 67.7634 34.9004 67.4217L37.1798 65.099C37.2363 65.0429 37.2964 64.992 37.272 64.909ZM43.1875 62.7813C43.1926 62.5308 43.132 62.4702 42.9395 62.4798C42.8952 62.4834 42.8511 62.4901 42.8076 62.4997C41.1413 62.811 39.4752 63.1229 37.8092 63.4352C37.7115 63.4535 37.6147 63.4785 37.5842 63.5844C37.5536 63.6903 37.5933 63.7881 37.6819 63.8721C37.8994 64.0759 38.1102 64.2918 38.319 64.5067C38.6006 64.7965 38.6017 65.0037 38.3221 65.2965C38.1184 65.5084 37.9147 65.7157 37.7064 65.9255C36.8179 66.8309 35.9292 67.7367 35.0404 68.6429C34.8968 68.7896 34.8973 68.9052 35.0404 69.0503C35.2248 69.2357 35.4106 69.42 35.5955 69.6049C35.9428 69.9522 36.2901 70.2993 36.6374 70.6463C36.7678 70.7762 36.8844 70.7757 37.0158 70.6499C37.0479 70.6188 37.079 70.5867 37.11 70.5546C38.1696 69.475 39.2286 68.3954 40.2868 67.3158C40.3339 67.2644 40.385 67.2169 40.4396 67.1737C40.6244 67.0387 40.7808 67.0377 40.9661 67.1737C41.0272 67.2199 41.0844 67.271 41.1373 67.3265C41.3455 67.5302 41.5508 67.7425 41.7606 67.9477C41.9302 68.1127 42.1135 68.0557 42.168 67.8245C42.1736 67.7996 42.1761 67.7736 42.1812 67.7491C42.4705 66.3253 42.7591 64.9015 43.047 63.478C43.103 63.2264 43.1498 62.9769 43.1875 62.7813Z"
                                            fill="black" />
                                        <path
                                            d="M66.3016 39.5591C66.08 39.5545 65.8249 39.2459 65.8656 39.0264L67.1016 32.3912C67.1449 32.159 67.1826 31.9263 67.23 31.6956C67.2491 31.5955 67.2802 31.498 67.3226 31.4053C67.3427 31.3582 67.3723 31.3157 67.4097 31.2806C67.447 31.2454 67.4912 31.2185 67.5395 31.2013C67.5878 31.1842 67.6392 31.1773 67.6903 31.181C67.7414 31.1847 67.7912 31.199 67.8365 31.223C67.938 31.2753 68.0309 31.3428 68.112 31.4231C68.4726 31.7756 68.825 32.1361 69.1814 32.4926C69.3643 32.6754 69.4641 32.678 69.6454 32.5002C70.7165 31.4512 71.787 30.4017 72.8568 29.352C72.9204 29.2894 72.9825 29.2247 73.0508 29.1671C73.2611 28.9884 73.4582 28.9894 73.67 29.1671C73.7093 29.1992 73.7449 29.2359 73.7811 29.272L76.2194 31.7083C76.2429 31.7298 76.2652 31.7526 76.2861 31.7766C76.4898 32.0236 76.4822 32.2064 76.2932 32.4452C76.2516 32.4935 76.2072 32.5394 76.1603 32.5827C75.0776 33.6634 73.9951 34.7454 72.9128 35.8287C72.8604 35.8734 72.8189 35.9295 72.7916 35.9927C72.778 36.0386 72.7787 36.0876 72.7936 36.1331C72.8086 36.1785 72.837 36.2184 72.8751 36.2474C73.1929 36.5427 73.505 36.8437 73.8193 37.1431C73.8977 37.2175 73.9899 37.2827 74.051 37.3698C74.1303 37.4757 74.1907 37.5946 74.2292 37.7212C74.2735 37.8938 74.162 38.0817 73.995 38.1576C73.9138 38.1951 73.8283 38.2222 73.7403 38.2381C72.661 38.4316 71.5817 38.6232 70.5025 38.813L66.492 39.526C66.4304 39.5382 66.3663 39.5509 66.3016 39.5591ZM67.0013 38.1138C66.9931 38.3582 67.0675 38.429 67.2748 38.4122C67.3063 38.4092 67.3379 38.402 67.369 38.3964L70.1755 37.907C70.916 37.7772 71.6564 37.6453 72.3974 37.518C72.4993 37.5001 72.5863 37.467 72.6149 37.3616C72.6434 37.2562 72.6082 37.1819 72.5293 37.107C72.3164 36.9033 72.1122 36.694 71.9055 36.4862C71.864 36.4465 71.8246 36.4046 71.7873 36.3609C71.6167 36.1516 71.6152 35.9637 71.7873 35.7564C71.8382 35.6923 71.8994 35.6342 71.9579 35.5751L75.151 32.3816C75.1825 32.35 75.2157 32.32 75.2457 32.2869C75.2686 32.2651 75.2869 32.2389 75.2995 32.21C75.3121 32.181 75.3189 32.1498 75.3193 32.1182C75.3197 32.0866 75.3138 32.0553 75.302 32.026C75.2901 31.9967 75.2726 31.9701 75.2503 31.9477C74.6775 31.3739 74.1041 30.8019 73.53 30.2315C73.5091 30.2076 73.4834 30.1884 73.4545 30.1751C73.4257 30.1618 73.3944 30.1547 73.3626 30.1543C73.3308 30.1539 73.2994 30.1602 73.2702 30.1728C73.241 30.1854 73.2149 30.204 73.1934 30.2274C73.1603 30.2575 73.1297 30.29 73.0982 30.3216C72.029 31.3907 70.9606 32.4602 69.8929 33.53C69.4722 33.9537 69.2634 33.8686 68.939 33.5244C68.7557 33.3293 68.5627 33.1429 68.3707 32.956C68.3324 32.9151 68.2839 32.8852 68.2301 32.8694C68.0713 32.8369 67.9888 32.9107 67.9526 33.1012C67.6745 34.561 67.3968 36.0196 67.1194 37.4767C67.0792 37.6998 67.0359 37.9259 67.0013 38.1138Z"
                                            fill="black" />
                                        <path
                                            d="M49.3786 58.7311H45.358C45.2623 58.7333 45.1666 58.7295 45.0713 58.7199C44.833 58.6899 44.7148 58.5875 44.6639 58.3538C44.642 58.2478 44.6343 58.1394 44.641 58.0314C44.699 56.9579 45.0632 56.003 45.7639 55.1836C46.239 54.6286 46.8334 54.2446 47.5127 53.9838C47.5676 53.9671 47.6208 53.9452 47.6716 53.9186C47.7013 53.9007 47.7265 53.8762 47.7452 53.8469C47.7638 53.8176 47.7754 53.7844 47.7791 53.7499C47.7828 53.7154 47.7785 53.6805 47.7665 53.6479C47.7544 53.6153 47.735 53.586 47.7098 53.5622C47.6833 53.5352 47.6512 53.5112 47.6222 53.4883C46.894 52.8706 46.5441 52.0746 46.6347 51.133C46.7539 49.8884 47.5789 48.8974 48.9264 48.6544C50.417 48.3855 51.8659 49.43 52.0955 50.9334C52.2524 51.9605 51.9112 52.8151 51.1279 53.4934C51.0919 53.5206 51.0578 53.5504 51.0261 53.5825C50.9901 53.6266 50.9723 53.6827 50.9762 53.7394C50.9801 53.7962 51.0054 53.8493 51.047 53.8881C51.0982 53.9252 51.1549 53.9543 51.215 53.9742C52.8375 54.596 53.7613 55.7861 54.0552 57.4809C54.0872 57.6627 54.0974 57.8481 54.1132 58.0324C54.1196 58.1024 54.1196 58.1728 54.1132 58.2428C54.0821 58.5621 53.9299 58.7072 53.608 58.7281C53.5316 58.7327 53.4553 58.7322 53.3784 58.7322L49.3786 58.7311ZM49.345 57.7274H52.7876C52.8385 57.7274 52.8895 57.7305 52.9404 57.7274C53.0458 57.7177 53.1044 57.6643 53.1074 57.5578C53.1106 57.4687 53.1033 57.3794 53.0855 57.292C52.8161 56.0092 51.6861 54.9025 50.3936 54.6606C49.7932 54.5486 49.1861 54.5639 48.5832 54.6209C47.1628 54.7543 45.8912 55.9093 45.602 57.3088C45.5862 57.3901 45.58 57.473 45.5836 57.5558C45.5821 57.5781 45.5853 57.6004 45.593 57.6214C45.6006 57.6424 45.6126 57.6616 45.628 57.6777C45.6435 57.6938 45.6622 57.7065 45.6829 57.715C45.7036 57.7235 45.7258 57.7275 45.7481 57.7269C45.799 57.7315 45.85 57.7269 45.9009 57.7269L49.345 57.7274ZM49.372 53.1324C50.3702 53.1965 51.2125 52.3038 51.2252 51.3301C51.2384 50.3172 50.3982 49.4616 49.3919 49.454C48.356 49.4458 47.5422 50.3971 47.531 51.2776C47.5193 52.2885 48.3886 53.1935 49.372 53.1324Z"
                                            fill="black" />
                                        <path
                                            d="M60.7337 58.7311H56.734C56.6637 58.7311 56.5934 58.7311 56.5237 58.7276C56.1763 58.7062 56.0108 58.5422 56.0098 58.1928C56.0088 57.9824 56.0236 57.7722 56.0541 57.5639C56.1651 56.7768 56.476 56.0313 56.957 55.3985C57.4429 54.7548 58.0738 54.3057 58.8184 54.0088C58.8693 53.9874 58.9248 53.9655 58.9793 53.9482C59.0223 53.9356 59.0609 53.9111 59.0905 53.8775C59.1201 53.8438 59.1395 53.8025 59.1465 53.7582C59.1535 53.714 59.1477 53.6687 59.13 53.6275C59.1122 53.5864 59.0831 53.5512 59.046 53.526C58.9314 53.4451 58.8257 53.3523 58.7308 53.249C57.2626 51.6147 58.1105 49.1881 60.1109 48.6809C61.2588 48.3896 63.0228 48.9681 63.4277 50.7689C63.6726 51.8556 63.3258 52.7652 62.4912 53.4939C62.461 53.5175 62.4321 53.5427 62.4046 53.5693C62.382 53.5918 62.3645 53.6189 62.3535 53.6487C62.3424 53.6786 62.3379 53.7106 62.3404 53.7423C62.3429 53.7741 62.3522 53.8049 62.3678 53.8328C62.3833 53.8606 62.4048 53.8846 62.4306 53.9034C62.4723 53.9321 62.5179 53.9549 62.566 53.9711C64.0067 54.5272 64.8857 55.5849 65.3079 57.0475C65.4091 57.4029 65.4661 57.7695 65.4775 58.1389C65.4798 58.1962 65.4767 58.2537 65.4683 58.3105C65.4311 58.5565 65.3038 58.6853 65.0609 58.7179C64.9658 58.7279 64.8702 58.7318 64.7747 58.7296L60.7337 58.7311ZM60.6955 57.7274H64.1585C64.2033 57.7274 64.2481 57.7274 64.2924 57.7274C64.4197 57.7192 64.4732 57.6663 64.4757 57.5354C64.4776 57.4589 64.4713 57.3824 64.4569 57.3072C64.188 56.0117 63.0605 54.903 61.7578 54.6591C61.1635 54.5486 60.5626 54.5613 59.9663 54.6184C58.5403 54.7548 57.284 55.8788 56.9764 57.2731C56.9566 57.3665 56.9482 57.4619 56.9514 57.5573C56.954 57.6642 57.0131 57.7167 57.119 57.7264C57.1699 57.7304 57.2208 57.7264 57.2718 57.7264L60.6955 57.7274ZM60.723 53.1323C61.7247 53.2026 62.5803 52.3211 62.5915 51.326C62.5934 50.8385 62.4043 50.3697 62.0648 50.0199C61.7253 49.6701 61.2623 49.4671 60.775 49.4545C59.6933 49.4407 58.8489 50.4027 58.9126 51.1472C58.8041 52.3842 59.8369 53.1924 60.723 53.1323Z"
                                            fill="black" />
                                        <path
                                            d="M55.0091 47.6944H51.047C50.9895 47.6944 50.9325 47.6944 50.8749 47.6944C50.4548 47.6853 50.2816 47.5131 50.2979 47.0889C50.3027 46.8212 50.3306 46.5543 50.3814 46.2914C50.7007 44.7937 51.5186 43.6805 52.9344 43.0403C53.0444 42.9894 53.1605 42.9532 53.272 42.9069C53.4599 42.8285 53.4951 42.6523 53.3489 42.5132C53.2705 42.4384 53.1788 42.3773 53.1029 42.3009C52.5529 41.7504 52.2514 41.0756 52.2708 40.3066C52.3003 39.1379 52.9838 38.046 54.347 37.6585C55.5693 37.3117 57.3425 37.9671 57.7224 39.7739C57.945 40.8322 57.6012 41.7198 56.8001 42.4358C56.7602 42.4676 56.7222 42.5016 56.6861 42.5377C56.6627 42.5616 56.645 42.5906 56.6344 42.6223C56.6238 42.6541 56.6205 42.6878 56.6247 42.721C56.629 42.7542 56.6407 42.7861 56.659 42.8141C56.6773 42.8421 56.7017 42.8657 56.7304 42.883C56.7754 42.9069 56.8222 42.9271 56.8704 42.9436C58.4456 43.5939 59.3887 44.7601 59.705 46.4315C59.744 46.6642 59.7628 46.8998 59.761 47.1358C59.7651 47.4846 59.568 47.6817 59.2191 47.6929C58.99 47.7 58.7608 47.6955 58.5306 47.6955L55.0091 47.6944ZM55.0513 46.761H58.5739C58.7837 46.761 58.8458 46.6922 58.8285 46.4824C58.8285 46.4508 58.8194 46.4192 58.8138 46.3882C58.5398 44.894 57.1276 43.6754 55.6085 43.6285C55.2581 43.6173 54.9072 43.6214 54.5563 43.6285C52.9603 43.6514 51.5858 44.9424 51.3124 46.3658C51.2989 46.441 51.2937 46.5175 51.2971 46.5939C51.2974 46.636 51.3135 46.6764 51.3423 46.7071C51.3711 46.7378 51.4104 46.7565 51.4524 46.7594C51.5032 46.7648 51.5543 46.7658 51.6052 46.7625L55.0513 46.761ZM56.928 40.3148C56.9814 39.3864 56.2094 38.622 55.4679 38.5171C55.1706 38.4723 54.8677 38.4804 54.5732 38.541C53.9559 38.6739 53.3097 39.2657 53.2659 39.9929C53.2569 40.2093 53.2627 40.4261 53.2832 40.6417C53.3074 40.9111 53.4065 41.1683 53.5694 41.3842C54.1296 42.1567 54.9694 42.3294 55.7984 42.0396C56.5073 41.7916 56.93 41.1117 56.928 40.3148Z"
                                            fill="black" />
                                    </svg>