<svg width="109" height="102" viewBox="0 0 109 102" fill="none"
                                        xmlns="http://www.w3.org/2000/svg">
                                        <ellipse cx="54.96" cy="50.97" rx="49.96" ry="49.97" fill="white" />
                                        <path
                                            d="M54.96 101.44C82.8284 101.44 105.42 78.8437 105.42 50.97C105.42 23.0963 82.8284 0.5 54.96 0.5C27.0916 0.5 4.5 23.0963 4.5 50.97C4.5 78.8437 27.0916 101.44 54.96 101.44Z"
                                            stroke="#2E3192" stroke-opacity="0.2" stroke-linejoin="round" />
                                        <circle opacity="0.6" cx="54.57" cy="50.57" r="44.57" fill="#C8DCFE" />
                                        <path
                                            d="M44.9384 76.0671C42.766 76.0671 40.5937 76.0671 38.4214 76.0671C37.046 76.0671 36.4 75.456 36.3657 74.0895C36.3477 73.3654 36.3345 72.6413 36.3372 71.9172C36.3419 70.678 37.0006 70.0103 38.2319 69.9818C38.6193 69.9723 39.0072 69.9644 39.393 69.9739C39.8041 69.984 39.9794 69.7871 39.9577 69.3892C39.9556 69.3725 39.9556 69.3557 39.9577 69.339C40.1097 68.4333 39.7598 67.7884 39.0932 67.1472C36.8354 64.9764 34.6573 62.7238 32.4279 60.5225C30.9823 59.0943 30.2825 57.3991 30.3479 55.3555C30.5311 49.6661 30.682 43.9761 30.8493 38.2862C30.8884 36.9477 31.8173 35.8499 33.2069 35.4789C34.4456 35.148 35.7223 35.6747 36.4095 36.8195C37.0608 37.904 37.3009 39.1116 37.3099 40.3503C37.3336 43.7186 37.3099 47.0868 37.313 50.4551C37.3043 50.8088 37.3317 51.1625 37.3948 51.5107C37.4297 51.6775 37.5917 51.8553 37.7448 51.9429C37.8065 51.9783 38.0382 51.8152 38.1253 51.6938C39.2632 50.1105 41.4899 50.2688 42.7813 51.6147C44.4111 53.3104 46.1169 54.9597 47.9536 56.4201C49.8995 57.9659 50.7328 59.8913 50.726 62.289C50.7196 64.5457 50.7218 66.8025 50.7202 69.0593C50.7202 69.8198 50.7766 69.8779 51.5145 69.8673C52.8946 69.8473 53.5686 70.5049 53.5802 71.8876C53.5865 72.5949 53.5913 73.3021 53.5897 74.0093C53.5897 75.2617 52.9199 75.9405 51.6559 75.9621C50.5275 75.979 49.3991 75.9785 48.2708 75.9811C47.1593 75.9843 46.0478 75.9811 44.9363 75.9811L44.9384 76.0671ZM31.5946 47.2278C31.5154 50.0049 31.4521 52.7832 31.3507 55.5598C31.2921 57.178 31.8574 58.4974 33.0085 59.6274C35.2362 61.8103 37.3838 64.0681 39.6448 66.2098C40.5905 67.107 41.2165 68.0043 40.9763 69.3496C40.8993 69.7813 41.1547 69.9454 41.5748 69.9417C44.0839 69.9192 46.5929 69.9032 49.102 69.8937C49.5242 69.8937 49.7153 69.7195 49.7142 69.291C49.7097 66.866 49.7097 64.4411 49.7142 62.0161C49.7142 60.1995 49.1205 58.7038 47.6432 57.5247C45.5522 55.8548 43.5292 54.0994 41.7527 52.0786C41.0613 51.2927 39.9583 51.3012 39.2262 51.9931C38.4346 52.7441 38.3908 53.7178 39.1703 54.5322C40.3256 55.7361 41.5094 56.9104 42.6779 58.1C42.7961 58.2198 42.975 58.3238 43.0151 58.4663C43.0801 58.6969 43.1518 59.0188 43.0426 59.1851C42.8558 59.469 42.5412 59.3667 42.2926 59.1698C42.2284 59.1152 42.1675 59.0567 42.1105 58.9946C40.8703 57.7342 39.6199 56.4839 38.3944 55.2093C37.3389 54.1089 36.5171 52.8618 36.353 51.3001C36.2791 50.5997 36.3029 49.8878 36.3002 49.1811C36.2976 46.1833 36.3282 43.1855 36.2913 40.1883C36.2775 39.0403 36.096 37.9046 35.2684 36.991C34.7016 36.365 34.0213 36.2252 33.2507 36.4959C32.4327 36.7836 31.8716 37.5515 31.8495 38.3432C31.7675 41.304 31.6825 44.2655 31.5946 47.2278ZM44.9948 70.8722V70.992C42.7243 70.992 40.4538 70.992 38.1833 70.992C37.6186 70.992 37.3452 71.2633 37.3452 71.8217C37.3452 72.6309 37.3554 73.4383 37.3758 74.2437C37.3885 74.7783 37.6645 75.0585 38.1839 75.0548C42.7252 75.0221 47.2666 74.9854 51.8079 74.9445C52.2951 74.9398 52.579 74.6395 52.5816 74.1529C52.5859 73.396 52.5774 72.6392 52.5732 71.8834C52.569 71.0838 52.3515 70.8717 51.5546 70.8722C49.3664 70.8722 47.1798 70.8722 44.9948 70.8722Z"
                                            fill="black" />
                                        <path
                                            d="M79.6178 47.2162L79.8584 55.5492C79.9112 57.4371 79.2499 59.04 77.9225 60.3705C75.5201 62.7793 73.1125 65.1831 70.6999 67.5821C70.3769 67.9019 70.1827 68.2154 70.2449 68.6767C70.2782 68.9252 70.2544 69.1812 70.2502 69.434C70.2434 69.8167 70.4313 69.9813 70.8091 69.975C71.2129 69.9676 71.6172 69.975 72.023 69.9845C73.1958 70.0188 73.8576 70.6812 73.8703 71.8618C73.8798 72.6531 73.8688 73.4448 73.8375 74.2368C73.7911 75.4401 73.1129 76.0777 71.8943 76.0682C68.745 76.0439 65.5963 76.0086 62.447 75.9811C61.1841 75.97 59.9211 75.9716 58.6576 75.9611C57.2627 75.9489 56.614 75.295 56.6172 73.9133C56.6172 73.2061 56.6172 72.4983 56.6278 71.7911C56.6452 70.5366 57.3297 69.8657 58.5848 69.8636C59.4857 69.8636 59.482 69.8605 59.4873 68.9638C59.5026 66.4215 59.4783 63.8781 59.5569 61.3374C59.6097 59.5646 60.308 58.0689 61.7282 56.9067C63.8261 55.1898 65.866 53.4075 67.6921 51.3851C68.8532 50.0989 70.9115 50.2546 72.0199 51.6052C72.1444 51.7566 72.3524 51.8395 72.5213 51.9545C72.6353 51.7598 72.8057 51.5772 72.8495 51.3677C72.9144 51.0594 72.9023 50.7343 72.9023 50.4124C72.8984 47.2457 72.8923 44.079 72.8838 40.9124C72.8812 39.7761 73.0121 38.6609 73.4195 37.5927C73.827 36.5244 74.4936 35.7275 75.6531 35.4536C77.4702 35.024 79.3111 36.4516 79.3665 38.3289C79.4506 41.2912 79.5344 44.2536 79.6178 47.2162ZM78.615 47.2447C78.5281 44.2655 78.4419 41.2868 78.3564 38.3083C78.3342 37.5478 77.7758 36.7941 76.9683 36.5033C76.2241 36.2347 75.5127 36.3091 74.9971 36.954C74.6804 37.3525 74.3542 37.809 74.2355 38.2899C74.0301 39.1039 73.9196 39.9389 73.9061 40.7783C73.875 43.8764 73.8718 46.976 73.9225 50.0735C73.9521 51.888 73.4116 53.4624 72.1872 54.7761C70.8556 56.2042 69.4712 57.5833 68.109 58.983C67.8399 59.2595 67.5211 59.5519 67.1654 59.1983C66.8096 58.8447 67.1036 58.5254 67.3765 58.252C67.4361 58.1924 67.4979 58.1348 67.557 58.0752C68.7276 56.8882 69.9109 55.7134 71.063 54.5095C71.7977 53.7416 71.7623 52.7621 71.0292 52.0416C70.2961 51.3212 69.2348 51.3122 68.4959 52.0295C68.1703 52.3472 67.9064 52.7219 67.5691 53.027C65.8026 54.6362 64.0446 56.257 62.2386 57.8224C61.1772 58.7428 60.5829 59.8654 60.5571 61.2445C60.5043 63.9541 60.5127 66.6653 60.4985 69.376C60.4985 69.7285 60.6916 69.889 61.0395 69.89C61.8137 69.89 62.5885 69.8974 63.3617 69.9027C65.1128 69.9143 66.864 69.9201 68.6152 69.9428C69.0654 69.9486 69.2696 69.7729 69.2411 69.3142C69.2216 68.9976 69.2643 68.6719 69.2316 68.3552C69.1746 67.8037 69.3868 67.4084 69.7773 67.0221C72.2326 64.5943 74.6471 62.1269 77.1134 59.7139C78.3363 58.5191 78.9243 57.1384 78.8551 55.4247C78.7443 52.6992 78.6915 49.9722 78.6129 47.2447H78.615ZM65.2675 74.9498V75.0586C67.5042 75.0586 69.7411 75.0586 71.9782 75.0586C72.5023 75.0586 72.8152 74.8131 72.83 74.3471C72.8578 73.4731 72.8687 72.5986 72.8627 71.7235C72.8601 71.2913 72.5624 71.0163 72.1291 70.9947C71.9275 70.9846 71.7254 70.9915 71.5238 70.9899C67.2164 70.9505 62.9097 70.9113 58.6038 70.8722C57.8781 70.8659 57.6411 71.1066 57.6363 71.8328C57.6318 72.5389 57.6284 73.2453 57.6263 73.9518C57.6237 74.7166 57.848 74.9482 58.6043 74.9488C60.8248 74.9509 63.0459 74.9512 65.2675 74.9498Z"
                                            fill="black" />
                                        <path
                                            d="M63.559 52.5182C62.9969 52.2691 62.4929 52.0754 62.0184 51.8263C61.5735 51.593 61.1999 51.611 60.7444 51.8474C60.0921 52.1868 59.3722 52.3926 58.7061 52.7103C58.4321 52.8444 58.2045 53.0574 58.0527 53.322C57.8168 53.7632 57.6637 54.2509 57.5017 54.728C57.3872 55.0637 57.1687 55.222 56.8283 55.2225C55.683 55.2257 54.5379 55.2257 53.393 55.2225C53.0304 55.2225 52.8092 55.0473 52.6921 54.6948C52.5337 54.2166 52.3754 53.73 52.1442 53.2872C52.0186 53.0491 51.7642 52.8306 51.5157 52.714C50.7726 52.3636 50.0115 52.0469 49.2404 51.764C48.983 51.6736 48.7038 51.6661 48.4419 51.7424C47.9489 51.9033 47.4782 52.1377 47.0095 52.3651C46.6717 52.5288 46.3973 52.4707 46.1418 52.2147C45.3576 51.4269 44.5722 50.6407 43.7858 49.8561C43.5135 49.5853 43.4565 49.304 43.6349 48.9483C43.8682 48.4828 44.0962 48.0099 44.2619 47.518C44.3339 47.272 44.3253 47.0093 44.2371 46.7686C43.9494 45.9986 43.6365 45.238 43.2818 44.4955C43.149 44.2204 42.9368 43.9914 42.6727 43.8378C42.2167 43.594 41.7148 43.4299 41.2224 43.2615C40.8978 43.1501 40.7691 42.9322 40.768 42.6171C40.7648 41.456 40.7648 40.2949 40.768 39.1338C40.768 38.8097 40.9263 38.606 41.2377 38.5004C41.7127 38.3342 42.2051 38.188 42.6442 37.9489C42.9206 37.7879 43.1438 37.5493 43.286 37.2628C43.6286 36.5535 43.8771 35.7993 44.2176 35.0889C44.3806 34.7485 44.3996 34.4745 44.2302 34.1426C44.0086 33.7093 43.8444 33.2453 43.6286 32.8099C43.4634 32.4753 43.5035 32.1998 43.7616 31.9417C44.5606 31.1448 45.3584 30.3471 46.155 29.5488C46.4126 29.2902 46.705 29.2142 47.0195 29.4158C48.1537 30.1436 49.289 30.3178 50.4453 29.4643C50.5846 29.3678 50.7449 29.3059 50.9129 29.2838C51.8001 29.1603 52.1743 28.5819 52.4519 27.7855C52.9296 26.4133 52.6572 26.5621 54.2105 26.5568C55.0692 26.5568 55.9279 26.5637 56.7866 26.5536C57.156 26.5489 57.4199 26.6866 57.4964 27.054C57.7719 28.4162 58.5282 29.2907 59.9385 29.5277C60.0054 29.5392 60.0686 29.5667 60.1227 29.6079C61.0225 30.3003 61.8891 30.1035 62.8143 29.6021C63.6709 29.1371 63.6984 29.1873 64.4024 29.8913C65.0452 30.5341 65.6807 31.1844 66.3341 31.8166C66.6629 32.1333 66.8091 32.4605 66.5415 32.8833C65.8496 33.9705 65.6786 35.062 66.5146 36.1629C66.5543 36.2179 66.5795 36.2819 66.5879 36.3492C66.7415 37.5546 67.5379 38.0798 68.6215 38.3906C69.4622 38.6324 69.4459 38.6899 69.4459 39.5755C69.4459 40.5519 69.4401 41.5283 69.4485 42.5052C69.4522 42.9042 69.3282 43.205 68.9081 43.2942C67.5981 43.5734 66.6998 44.2648 66.4951 45.6661C66.4874 45.6992 66.4718 45.73 66.4497 45.7558C65.6907 46.7448 65.8807 47.7086 66.4497 48.7203C66.8582 49.4492 66.8038 49.484 66.2232 50.0656C65.5303 50.7517 64.8442 51.45 64.1427 52.1276C63.9723 52.2944 63.7432 52.4 63.559 52.5182ZM45.5122 47.0884C45.4515 47.2505 45.4093 47.3782 45.3539 47.5011C45.166 47.9329 44.9844 48.3672 44.7791 48.7905C44.6435 49.0713 44.6656 49.284 44.9016 49.5083C45.4494 50.0308 45.9619 50.5923 46.5234 51.099C46.6575 51.2204 46.9551 51.2711 47.1319 51.213C47.5927 51.0626 48.0355 50.8483 48.4714 50.6325C48.7939 50.4741 49.0615 50.5137 49.3687 50.6852C49.8964 50.9781 50.4242 51.3502 50.999 51.4642C52.3242 51.7281 53.1412 52.4079 53.3951 53.7569C53.4552 54.0736 53.7038 54.2377 54.0717 54.224C54.7441 54.1992 55.4186 54.1971 56.091 54.224C56.5 54.2403 56.7079 54.0561 56.8362 53.6999C56.9903 53.2729 57.1259 52.8333 57.3407 52.438C57.4774 52.206 57.6837 52.023 57.9303 51.915C58.5161 51.6653 59.2091 51.5983 59.7142 51.2447C60.8526 50.453 61.9102 50.4878 63.0423 51.1966C63.1859 51.2864 63.5453 51.2162 63.6883 51.0911C64.2537 50.5872 64.7897 50.0513 65.2938 49.4861C65.4247 49.3389 65.4775 49.0222 65.42 48.8333C65.2748 48.3715 65.0553 47.9302 64.8394 47.4932C64.6895 47.1882 64.7513 46.9401 64.8853 46.6403C65.3213 45.6613 65.7002 44.6575 66.1341 43.6774C66.2404 43.4468 66.417 43.2558 66.6386 43.1317C67.0545 42.9169 67.5089 42.777 67.9496 42.6123C68.2842 42.4873 68.4557 42.2851 68.4394 41.8961C68.4109 41.2238 68.4146 40.5493 68.4394 39.8763C68.4526 39.4937 68.29 39.2831 67.948 39.1596C67.5057 39.0013 67.0508 38.8561 66.637 38.6408C66.4152 38.5143 66.2392 38.3209 66.1341 38.0882C65.7007 37.1081 65.3229 36.1038 64.8864 35.1253C64.7523 34.8245 64.6922 34.5785 64.8431 34.2735C65.0595 33.837 65.278 33.3952 65.4237 32.9329C65.4833 32.7424 65.4237 32.4278 65.2959 32.2816C64.8046 31.729 64.2531 31.2308 63.7422 30.6951C63.521 30.4634 63.3089 30.4223 63.0249 30.5574C62.5853 30.7685 62.1467 30.9933 61.6844 31.1379C61.4222 31.2074 61.1448 31.1909 60.8927 31.091C60.3026 30.8519 59.7659 30.4223 59.16 30.2951C57.8564 30.0211 57.0552 29.3451 56.8124 28.0166C56.7517 27.6847 56.4958 27.5416 56.1353 27.557C55.446 27.5807 54.7546 27.5802 54.0654 27.557C53.6996 27.5448 53.5043 27.7058 53.3861 28.0235C53.2214 28.4647 53.0842 28.9207 52.8652 29.3335C52.7308 29.5686 52.5245 29.7545 52.2767 29.8639C51.6751 30.1172 50.9573 30.1837 50.4453 30.5458C49.3333 31.329 48.3052 31.2846 47.219 30.5795C46.9435 30.4006 46.6986 30.4502 46.4596 30.703C45.9634 31.2308 45.4515 31.7424 44.9237 32.2378C44.673 32.4743 44.6435 32.6996 44.7881 32.9978C44.9934 33.42 45.2103 33.8449 45.3496 34.2914C45.4218 34.5521 45.4111 34.8287 45.319 35.0831C44.9302 36.0985 44.5143 37.1032 44.0714 38.0972C43.9626 38.3282 43.7841 38.5192 43.561 38.6435C43.1773 38.8456 42.7551 38.9775 42.3418 39.1185C41.946 39.2551 41.7412 39.48 41.766 39.9349C41.8001 40.5738 41.8001 41.214 41.766 41.8529C41.7439 42.2856 41.9323 42.4989 42.3139 42.6298C42.7429 42.7765 43.1789 42.9206 43.5774 43.1317C43.7965 43.2602 43.9703 43.4537 44.0745 43.6853C44.5084 44.6654 44.9042 45.6618 45.3159 46.6514C45.3797 46.8055 45.4526 46.957 45.5122 47.0884Z"
                                            fill="black" />
                                        <path
                                            d="M50.4524 73.4932C50.3241 73.2926 50.1088 73.1005 50.0882 72.8894C50.0597 72.5928 50.3046 72.3558 50.6065 72.4413C50.7917 72.4941 51.0393 72.7501 51.0408 72.9163C51.0408 73.11 50.8049 73.3053 50.6714 73.5L50.4524 73.4932Z"
                                            fill="black" />
                                        <path
                                            d="M60.2079 73.0509C60.0052 73.1754 59.8089 73.3876 59.5978 73.4029C59.3022 73.4251 59.0673 73.1775 59.1586 72.8751C59.2114 72.6915 59.4753 72.4503 59.6426 72.4529C59.8353 72.4529 60.0263 72.6941 60.2179 72.8303C60.2147 72.9031 60.211 72.977 60.2079 73.0509Z"
                                            fill="black" />
                                        <path
                                            d="M55.1232 32.3001C59.8478 32.3091 63.698 36.1672 63.6948 40.8902C63.6922 45.6012 59.8188 49.4782 55.1116 49.4819C50.3843 49.4856 46.5035 45.5917 46.5157 40.8533C46.5273 36.135 50.3959 32.2917 55.1232 32.3001ZM55.1037 33.3098C54.1085 33.3055 53.1223 33.4981 52.2019 33.8765C51.2815 34.2549 50.445 34.8115 49.7405 35.5145C49.0361 36.2174 48.4776 37.0527 48.0972 37.9723C47.7169 38.8919 47.5221 39.8777 47.5242 40.8728C47.52 45.065 50.902 48.4665 55.0804 48.4728C57.0912 48.4759 59.0208 47.6801 60.4448 46.2604C61.8688 44.8408 62.6705 42.9136 62.6736 40.9029C62.6766 38.8922 61.8808 36.9625 60.4612 35.5386C59.0416 34.1146 57.1144 33.3128 55.1037 33.3098Z"
                                            fill="black" />
                                    </svg>