<svg width="97" height="92" viewBox="0 0 97 92" fill="none"
                                xmlns="http://www.w3.org/2000/svg">
                                <path
                                    d="M11.8039 20.3375C25.703 0.0687447 53.4018 -5.09532 73.6707 8.80483C93.9396 22.7038 99.1034 50.4022 85.2044 70.671C71.3054 90.9398 43.6068 96.1037 23.338 82.2047C3.06887 68.3046 -2.09495 40.6063 11.8039 20.3375Z"
                                    fill="white" />
                                <path
                                    d="M11.3916 20.0548L11.8039 20.3375L11.3916 20.0548C-2.66349 40.5513 2.55837 68.5608 23.0552 82.6171C43.5518 96.6722 71.5616 91.4503 85.6167 70.9538C99.672 50.4573 94.4501 22.4476 73.9535 8.39248C53.4568 -5.66386 25.4468 -0.441762 11.3916 20.0548Z"
                                    stroke="#2E3192" stroke-opacity="0.2" stroke-linejoin="round" />
                                <circle opacity="0.6" cx="48.71" cy="45.71" r="39.71" fill="#C8DCFE" />
                                <g opacity="0.8">
                                    <g clip-path="url(#clip0_1_1115)">
                                        <path
                                            d="M72.9932 48.8473C72.9932 51.7928 72.9845 54.7383 73 57.6828C73 58.4301 72.7087 58.9828 72.1193 59.3895C70.9677 60.1792 69.6607 60.5997 68.3138 60.7912C66.5864 61.036 64.8405 61.1387 63.1013 61.2976C62.9741 61.3084 62.81 61.3272 62.7226 61.2621C62.5692 61.1525 62.3575 60.9778 62.3585 60.8327C62.3595 60.6876 62.5605 60.4812 62.7217 60.3993C62.8829 60.3174 63.1004 60.346 63.2936 60.344C65.5678 60.3223 67.8283 60.1575 69.9937 59.3925C70.6501 59.1605 71.2493 58.742 71.8387 58.357C72.1077 58.1833 72.2387 57.0738 72.0329 56.8448C71.9251 56.7253 71.6338 56.6355 71.5027 56.6977C68.9295 57.9217 66.1737 58.1112 63.4014 58.2168C63.2421 58.2228 63.0499 58.2376 62.9304 58.1596C62.7896 58.0668 62.6255 57.8733 62.6304 57.7292C62.6352 57.5851 62.8091 57.3739 62.9557 57.3166C63.1557 57.2376 63.4004 57.2702 63.6267 57.2643C65.8513 57.2051 68.0643 57.0323 70.1734 56.2486C70.756 56.0334 71.2842 55.6622 71.8047 55.3118C72.0843 55.1233 72.2475 54.1085 72.0513 53.8538C71.9542 53.7285 71.6571 53.6209 71.5309 53.6811C68.8207 54.9801 65.9193 55.1539 62.9974 55.218C62.6382 55.2259 62.1497 55.3069 62.141 54.76C62.1323 54.2132 62.6119 54.2823 62.978 54.2773C65.3794 54.2467 67.771 54.1075 70.0578 53.2843C70.6831 53.0592 71.2541 52.6575 71.8193 52.2873C72.0843 52.1136 72.2446 51.1166 72.0533 50.8748C71.9484 50.7415 71.6357 50.6339 71.4969 50.6961C68.2012 52.1896 64.7191 52.2824 61.2039 52.1501C60.901 52.1383 60.633 52.0435 60.6359 51.6832C60.6359 51.2943 60.9146 51.2272 61.2428 51.2173C63.1013 51.162 64.9696 51.1976 66.8136 50.9982C68.0992 50.859 69.3548 50.4059 70.6142 50.0634C70.9327 49.9765 71.2318 49.7742 71.5076 49.5787C72.0707 49.1839 72.2718 48.5916 72.0814 47.9421C72.0038 47.6746 71.8154 47.5354 71.5221 47.6568C66.5864 49.7001 61.5409 49.5629 56.4643 48.3705C55.6302 48.1731 54.834 47.7457 54.0659 47.337C53.3697 46.9659 53.0784 46.3045 53.0784 45.4891C53.0929 43.7124 53.0978 41.9356 53.0784 40.1588C53.0677 39.2803 53.426 38.6475 54.1465 38.1964C55.3545 37.4433 56.6974 37.086 58.0695 36.8352C60.9431 36.3218 63.8771 36.2573 66.7699 36.6437C67.1311 36.6901 67.6652 36.5835 67.6535 37.2232C67.6467 37.5844 67.3506 37.6595 66.6553 37.5785C63.3023 37.1886 59.9649 37.2222 56.6848 38.1254C55.9831 38.3198 55.3098 38.6079 54.6825 38.9822C53.7833 39.5182 53.8086 40.068 54.6893 40.6385C55.7021 41.294 56.8489 41.6019 58.0151 41.8043C61.9856 42.4953 65.9426 42.5091 69.8374 41.3433C70.5307 41.135 71.1842 40.7195 71.7901 40.3019C72.2378 39.992 72.2397 39.6504 71.8057 39.3365C71.2347 38.9249 70.587 38.6199 69.9607 38.2882C69.7665 38.1826 69.4995 38.1846 69.3276 38.0543C69.1897 37.9497 69.0499 37.695 69.0858 37.5509C69.1217 37.4068 69.4024 37.1926 69.5257 37.2232C70.6628 37.5015 71.7969 37.848 72.5893 38.7867C72.8359 39.0829 72.968 39.5636 72.9719 39.9624C73.0078 42.9237 72.9932 45.886 72.9932 48.8473ZM63.0887 48.3537C64.6006 48.2057 66.1164 48.0941 67.6225 47.8977C68.8477 47.7556 70.0384 47.394 71.1395 46.8296C71.8338 46.4634 72.2407 45.956 72.1018 45.1002C72.0329 44.6748 71.8416 44.5326 71.4473 44.7054C71.0531 44.8781 70.6521 45.0746 70.2394 45.2118C67.9089 45.9906 65.4978 46.2265 63.0644 46.2058C60.1591 46.1811 57.279 45.9639 54.5922 44.6689C54.265 44.5119 54.097 44.7103 54.0436 45.0055C53.8901 45.8583 54.095 46.3223 54.8515 46.7566C55.233 46.9716 55.6327 47.1513 56.0458 47.2936C58.3219 48.0813 60.6951 48.2333 63.0887 48.3508V48.3537ZM63.0314 45.3194C64.3365 45.2207 65.6464 45.1664 66.9447 45.0065C68.4061 44.8258 69.8432 44.5129 71.1716 43.8071C71.862 43.4429 72.2164 42.9247 72.0999 42.1044C72.0397 41.677 71.8435 41.5299 71.4454 41.6967C71.0133 41.8783 70.5899 42.0915 70.1452 42.2347C67.9516 42.9523 65.6843 43.1882 63.3956 43.1882C60.3757 43.1882 57.3752 42.9997 54.5786 41.6562C54.2397 41.4944 54.0931 41.7046 54.0397 41.9978C53.8921 42.8862 54.0999 43.3284 54.8913 43.7746C55.2313 43.9645 55.5867 44.1247 55.9536 44.2533C58.2442 45.0647 60.6242 45.2424 63.0314 45.3164V45.3194Z"
                                            fill="black" />
                                        <path
                                            d="M38.563 33.4958C37.8182 33.4958 37.0705 33.5393 36.3296 33.483C35.6499 33.4307 35.1187 33.6627 34.5866 34.0466C32.2445 35.7336 30.4374 37.9032 29.0139 40.4115C27.3884 43.2741 26.2775 46.3203 25.9629 49.6379C25.422 55.3365 28.5963 59.1684 32.5805 61.0735C34.9702 62.2156 37.5143 62.6084 40.1341 62.5877C40.3128 62.5877 40.5148 62.5304 40.6624 62.5986C40.8566 62.6864 41.0022 62.873 41.1683 63.0171C41.0216 63.18 40.877 63.3517 40.7216 63.5008C40.674 63.5452 40.5662 63.5304 40.4856 63.5324C36.9666 63.5995 33.6136 62.9401 30.6151 60.9876C26.294 58.1783 24.4588 54.0947 25.1375 48.9706C25.826 43.7726 28.036 39.2388 31.5774 35.4187C32.3892 34.5422 33.4097 33.864 34.3371 33.098C34.4749 32.9845 34.639 32.9006 34.773 32.7871C35.3479 32.2876 35.3974 31.8 35.0284 31.1317C34.1545 29.5405 33.2806 27.9493 32.4601 26.3275C32.1921 25.7974 32.059 25.1825 31.9454 24.5902C31.7619 23.6278 32.3338 22.9289 33.2922 23.0049C34.3205 23.0878 35.3809 23.1481 36.3549 23.455C38.7465 24.2092 41.0945 24.1085 43.4803 23.4807C44.4134 23.2349 45.3854 23.1184 46.3477 23.0168C47.2799 22.9181 47.8363 23.5281 47.5945 24.454C47.3258 25.5014 46.9684 26.5233 46.5264 27.5081C45.9982 28.6699 45.3466 29.7784 44.7281 30.8919C44.195 31.8553 44.3251 32.2738 45.1942 32.9648C46.4021 33.9242 47.612 34.8965 48.7103 35.9794C49.9726 37.2221 50.9281 38.7196 51.736 40.3068C51.8098 40.4519 51.9185 40.6089 51.9127 40.756C51.9069 40.903 51.8156 41.1459 51.7001 41.1942C51.5554 41.2554 51.333 41.1942 51.1738 41.1242C51.0767 41.0807 51.0291 40.9159 50.9679 40.8004C49.4201 37.849 47.2527 35.47 44.5173 33.6261C43.8376 33.1681 43.4851 32.5522 43.4754 31.7378C43.4706 31.3272 43.2812 31.1959 42.9016 31.1979C41.412 31.2067 39.9234 31.2038 38.4348 31.1979C38.2591 31.1979 38.0464 31.2166 37.9163 31.1307C37.8424 31.0801 37.78 31.0141 37.7333 30.9369C37.6865 30.8598 37.6566 30.7734 37.6454 30.6836C37.6454 30.5553 37.8085 30.3667 37.9435 30.3065C38.1115 30.2335 38.3241 30.2532 38.5173 30.2532C40.1846 30.2532 41.8519 30.2404 43.5191 30.2601C43.8541 30.2601 44.1017 30.1703 44.2377 29.8821C44.9999 28.3244 45.8069 26.7855 46.4885 25.1923C46.9634 24.0828 46.7109 23.8163 45.5253 24.0246C44.2678 24.2447 43.0229 24.5349 41.7703 24.7837C40.0856 25.1183 38.4348 24.9554 36.7753 24.53C35.6858 24.2506 34.5555 24.1263 33.4369 23.9762C32.9669 23.9131 32.7756 24.1144 32.8776 24.5853C33.0097 25.1894 33.1747 25.8083 33.4534 26.3532C34.1613 27.7351 34.9313 29.0904 35.6984 30.4437C35.9898 30.9511 36.2335 31.4506 36.184 32.0616C36.1509 32.4564 36.3947 32.5551 36.7394 32.5551C38.1804 32.5482 39.6214 32.5551 41.0624 32.5551H41.4994C41.8305 32.5551 42.1577 32.6104 42.15 33.0319C42.1422 33.4534 41.8082 33.4958 41.4819 33.4968L38.563 33.4958Z"
                                            fill="black" />
                                        <path
                                            d="M50.9074 67.0859C56.1771 67.0968 60.0156 63.5067 60.3613 58.9117C60.708 54.2911 57.4977 50.0969 53.0465 49.3862C51.1045 49.0753 49.243 49.3645 47.499 50.321C47.4563 50.3447 47.4126 50.3664 47.3709 50.3911C47.0931 50.551 46.8077 50.6339 46.6212 50.2825C46.4348 49.9311 46.6212 49.6991 46.929 49.5826C47.9098 49.2105 48.8711 48.715 49.8887 48.5264C55.8344 47.4189 61.2149 51.9813 61.2906 58.1349C61.3508 63.021 57.6415 67.3337 52.8708 67.923C47.0757 68.6386 42.0632 64.2766 41.9379 58.3392C41.8816 55.674 42.8177 53.3494 44.5957 51.3851C44.7005 51.2686 44.8462 51.1403 44.9841 51.1196C45.122 51.0988 45.3618 51.1452 45.4502 51.2518C45.5385 51.3584 45.5385 51.5894 45.4958 51.7454C45.4531 51.9013 45.3171 52.0129 45.2103 52.1402C42.6983 55.0028 42.1098 58.2908 43.6139 61.7595C45.1152 65.1946 47.8826 66.9665 50.9074 67.0859Z"
                                            fill="black" />
                                        <path
                                            d="M51.4866 57.7085C51.8265 57.7085 52.1664 57.6848 52.5052 57.7085C53.8414 57.82 54.7318 58.736 54.7775 60.0232C54.8231 61.2758 53.9443 62.2718 52.6286 62.4604C51.9372 62.5591 51.9382 62.5591 51.9362 63.2846C51.9362 63.5965 51.9848 63.9233 51.91 64.2164C51.8624 64.404 51.6313 64.5441 51.4827 64.705C51.3293 64.5461 51.0827 64.4089 51.0438 64.2233C50.971 63.8769 50.9982 63.5027 51.0196 63.1375C51.0468 62.6914 50.8953 62.4959 50.4263 62.4544C49.1532 62.3419 48.3123 61.5029 48.2016 60.3124C48.1715 59.9897 48.2075 59.6856 48.5842 59.6363C48.961 59.5869 49.0697 59.8465 49.1125 60.1861C49.23 61.0419 49.7796 61.5098 50.6399 61.5147C51.2225 61.5147 51.8051 61.5216 52.3878 61.5147C53.2267 61.5039 53.854 60.879 53.8501 60.0696C53.8462 59.2602 53.2102 58.6531 52.3664 58.6432C51.7838 58.6363 51.2011 58.6521 50.6185 58.6363C49.2649 58.6008 48.2881 57.6492 48.2346 56.3394C48.1812 55.0295 49.0969 54.0236 50.4564 53.9012C50.8623 53.8647 51.0332 53.6821 51.0167 53.2744C51.0021 52.9131 51.0108 52.5509 51.0167 52.1886C51.0225 51.8925 51.1468 51.6556 51.4624 51.6486C51.8071 51.6417 51.9304 51.8846 51.9314 52.2073C51.9323 52.5301 51.9518 52.8667 51.9314 53.1944C51.8993 53.6683 52.0828 53.8736 52.5635 53.9032C53.7462 53.9772 54.5881 54.7916 54.7503 55.9682C54.7959 56.2959 54.8046 56.6305 54.3881 56.6977C53.9715 56.7648 53.8851 56.4726 53.8433 56.1222C53.8111 55.7748 53.6538 55.4517 53.4017 55.2149C53.1496 54.9781 52.8203 54.8442 52.4771 54.839C51.8304 54.8143 51.1817 54.8133 50.535 54.839C50.3489 54.8394 50.1648 54.8782 49.9938 54.953C49.8228 55.0278 49.6685 55.137 49.5401 55.2741C49.4118 55.4112 49.3122 55.5733 49.2472 55.7506C49.1822 55.9279 49.1532 56.1168 49.162 56.3058C49.1736 57.0876 49.7553 57.669 50.5642 57.6956C50.872 57.7065 51.1798 57.6956 51.4866 57.6956V57.7085Z"
                                            fill="black" />
                                    </g>
                                </g>
                                <defs>
                                    <clipPath id="clip0_1_1115">
                                        <rect width="48" height="45" fill="white" transform="translate(25 23)" />
                                    </clipPath>
                                </defs>
                            </svg>