<svg width="109" height="102" viewBox="0 0 109 102" fill="none"
                                        xmlns="http://www.w3.org/2000/svg">
                                        <ellipse cx="54.96" cy="50.97" rx="49.96" ry="49.97" fill="white" />
                                        <path
                                            d="M54.96 101.44C82.8284 101.44 105.42 78.8437 105.42 50.97C105.42 23.0963 82.8284 0.5 54.96 0.5C27.0916 0.5 4.5 23.0963 4.5 50.97C4.5 78.8437 27.0916 101.44 54.96 101.44Z"
                                            stroke="#2E3192" stroke-opacity="0.2" stroke-linejoin="round" />
                                        <circle opacity="0.6" cx="54.57" cy="50.57" r="44.57" fill="#C8DCFE" />
                                        <path
                                            d="M57.8353 75.333H56.9411C56.9292 75.1635 56.9079 74.9988 56.9079 74.8341C56.9079 73.4018 56.8741 71.9689 56.9281 70.5384C56.9423 70.1573 57.1372 69.7152 57.3903 69.4243C58.0113 68.7132 58.7283 68.0821 59.3766 67.3899C59.5408 67.2121 59.6777 66.9318 59.6795 66.6972C59.702 64.4139 59.6966 62.1301 59.6907 59.8468C59.6907 59.1949 59.1983 58.6267 58.5998 58.5431C58.0664 58.4678 57.8395 58.6533 57.8371 59.195C57.8318 60.7434 57.8371 62.2918 57.8371 63.8397V64.5046H56.9061V63.8047C56.9061 57.6509 56.9061 51.4968 56.9061 45.3425C56.9061 44.6409 56.5731 44.1224 56.0131 43.9363C55.3867 43.7283 54.7254 43.899 54.3681 44.4524C54.2039 44.7067 54.131 45.0628 54.131 45.3733C54.1144 48.6053 54.1203 51.8373 54.1203 55.0687V55.7152H53.1906C53.1906 54.7398 53.1906 53.7781 53.1906 52.8163C53.1906 52.0998 53.1141 52.0275 52.3852 52.0252C52.1725 52.0252 51.9592 52.0198 51.7464 52.0252C50.9375 52.0501 50.4107 52.5763 50.406 53.3822C50.3989 54.5816 50.406 55.7816 50.406 56.9816V57.5712H49.4744C49.4744 56.5988 49.4744 55.637 49.4744 54.6752C49.4744 53.957 49.398 53.8847 48.6709 53.8818C48.4581 53.8818 48.2448 53.8764 48.0326 53.8818C47.2214 53.9067 46.6946 54.4311 46.6898 55.2364C46.6827 56.453 46.6898 57.669 46.6898 58.923H45.7589C45.7589 58.0868 45.7624 57.2601 45.7589 56.4341C45.7553 55.8604 45.5894 55.7093 45.03 55.7425C43.9248 55.8083 42.982 56.7647 42.9778 57.8758C42.966 60.9139 42.9678 63.9521 42.9832 66.9905C42.9926 67.2372 43.0699 67.4765 43.2066 67.6821C45.1029 70.5715 44.8066 69.6969 44.8303 73.163C44.8356 73.9736 44.8303 74.7855 44.8303 75.6406H43.9011C43.9011 74.6924 43.8169 73.7194 43.9189 72.7695C44.1067 71.0195 43.6706 69.5203 42.5518 68.1538C42.23 67.7615 42.0741 67.1292 42.0646 66.603C42.0172 63.9138 42.0404 61.2234 42.0439 58.5336C42.0469 56.3535 43.1497 55.1167 45.3032 54.8115C45.5479 54.7772 45.8726 54.5952 45.9746 54.3896C46.5026 53.3271 47.4045 52.9413 48.4972 52.9674C49.1663 52.9852 49.5935 52.8382 49.9266 52.197C50.3728 51.3348 51.2522 51.093 52.1559 51.1084C53.3067 51.128 53.1971 50.8761 53.1924 50.0139C53.1835 48.3997 53.1888 48.4032 51.6966 47.8C51.3156 47.6459 51.0116 47.6815 50.7035 47.9884C49.4881 49.1884 49.6883 49.1481 48.4818 47.9511C47.9485 47.4178 47.4235 46.8744 46.8771 46.3541C46.5079 46.0021 46.4415 45.643 46.8676 45.3354C47.7897 44.6752 47.875 43.9416 47.3198 42.965C47.0478 42.4838 46.835 42.2267 46.2531 42.2361C44.8309 42.2604 44.8309 42.2326 44.8309 40.8335C44.8309 40.04 44.8249 39.2465 44.8309 38.453C44.838 37.7881 45.0181 37.5298 45.6404 37.6181C46.7206 37.7704 47.2475 37.3508 47.5497 36.3268C47.7198 35.7514 47.7405 35.3822 47.2919 34.9455C46.3438 34.0234 46.3657 34.0009 47.3085 33.0587C47.8969 32.4708 48.4937 31.8924 49.0709 31.291C49.4199 30.9265 49.782 30.8394 50.0889 31.269C50.7479 32.1846 51.4809 32.283 52.4593 31.7312C52.9334 31.4628 53.2095 31.2619 53.1977 30.6693C53.1698 29.2376 53.1977 29.237 54.6472 29.237C55.4406 29.237 56.2341 29.2287 57.027 29.237C57.6415 29.2459 57.8987 29.4379 57.8158 30.0364C57.6676 31.1031 58.0682 31.6406 59.0958 31.9547C59.7061 32.1413 60.0812 32.1147 60.5221 31.6631C61.411 30.7517 61.4318 30.7742 62.3266 31.6661C62.9423 32.2818 63.5515 32.9046 64.1761 33.5108C64.5275 33.8521 64.5672 34.2071 64.1701 34.4874C63.2131 35.163 63.1663 35.9238 63.7198 36.9093C63.9829 37.3775 64.2045 37.6062 64.7556 37.5991C66.1956 37.5807 66.1962 37.6044 66.1962 39.0444C66.1962 39.8379 66.2039 40.6314 66.1926 41.4249C66.1844 42.0424 65.9929 42.2995 65.3992 42.2201C64.3384 42.0779 63.7737 42.4507 63.4798 43.496C63.3209 44.0613 63.2658 44.4388 63.7221 44.8809C64.6815 45.8107 64.6596 45.8338 63.7269 46.7677C63.1254 47.3704 62.5162 47.9653 61.923 48.5757C61.5852 48.9235 61.2315 48.9792 60.9464 48.5757C60.2721 47.6275 59.5183 47.5641 58.5263 48.12C58.0641 48.3795 57.8152 48.5692 57.8229 49.1315C57.8507 51.7052 57.8454 54.2794 57.8264 56.853C57.8229 57.3591 58.0042 57.5742 58.4996 57.6572C59.8537 57.8853 60.6045 58.7677 60.6163 60.1461C60.6341 62.2747 60.6578 64.4044 60.5944 66.5312C60.5796 67.0225 60.3141 67.5772 60.0018 67.9724C59.4762 68.6349 58.8303 69.2056 58.211 69.7893C57.9366 70.0477 57.8235 70.3155 57.8282 70.6966C57.8478 72.2278 57.8353 73.7555 57.8353 75.333ZM53.1906 45.7301C53.1959 44.5348 53.1633 44.5715 52.2833 43.7929C50.8569 42.5307 50.1749 40.9484 50.5251 39.0249C50.9369 36.7683 52.7106 35.1481 55.0555 34.8352C56.9719 34.5792 59.155 35.8373 60.0646 37.7224C61.0187 39.6992 60.7123 42.1875 59.0063 43.4924C57.9165 44.3262 57.6842 45.1997 57.8347 46.3819C57.8363 46.4016 57.8363 46.4215 57.8347 46.4412C57.8347 47.2281 58.1844 47.4788 58.8854 47.096C59.6889 46.6569 60.3444 46.7582 60.9743 47.3881C61.2635 47.6773 61.5947 47.6637 61.8916 47.3792C62.2128 47.0717 62.5227 46.7517 62.8362 46.4364C63.2866 45.9837 63.3002 45.7395 62.8765 45.269C62.3882 44.7262 62.2306 44.149 62.6063 43.4717C62.7562 43.2016 62.8755 42.9156 62.9618 42.619C63.2161 41.736 63.7879 41.3004 64.7041 41.3152C65.0875 41.3206 65.267 41.1304 65.2641 40.7505C65.2605 40.2278 65.2492 39.7052 65.2676 39.1831C65.2836 38.7179 65.0898 38.5241 64.6199 38.5206C63.8246 38.5147 63.2569 38.165 63.0199 37.3579C62.9453 37.0773 62.8346 36.8076 62.6904 36.5555C62.2163 35.7745 62.3349 35.099 62.9701 34.4684C63.2872 34.1538 63.2421 33.8166 62.9358 33.5102C62.6294 33.2038 62.2987 32.8886 61.9935 32.565C61.6155 32.1638 61.2635 32.1467 60.8593 32.5443C60.3414 33.0539 59.7488 33.205 59.0679 32.8317C58.7815 32.674 58.4794 32.5467 58.1666 32.4518C57.3038 32.1958 56.8972 31.6222 56.9079 30.7333C56.9126 30.3096 56.6928 30.1532 56.2928 30.1621C55.8092 30.1727 55.3245 30.1852 54.8421 30.1591C54.3289 30.1312 54.1115 30.3227 54.1067 30.8566C54.1008 31.5985 53.7666 32.1455 53.0122 32.3849C52.6782 32.4825 52.3559 32.6165 52.051 32.7843C51.3156 33.2121 50.6839 33.0634 50.1103 32.4987C49.7435 32.1372 49.4063 32.1804 49.0649 32.5283C48.7686 32.8323 48.4724 33.1392 48.1606 33.4296C47.7595 33.8047 47.7304 34.1591 48.1322 34.5627C48.6655 35.1019 48.7924 35.7129 48.4012 36.4062C48.2513 36.6765 48.132 36.9627 48.0457 37.2595C47.7909 38.1206 47.2161 38.5324 46.3331 38.5235C45.91 38.5188 45.7488 38.7315 45.7571 39.1339C45.7672 39.6175 45.779 40.1022 45.7571 40.5846C45.7304 41.093 45.9106 41.3218 46.4492 41.3241C47.2196 41.3241 47.7689 41.6892 48.0001 42.4684C48.0799 42.7675 48.1978 43.0551 48.3509 43.3241C48.822 44.0945 48.6685 44.7511 48.0629 45.3609C47.7458 45.6797 47.7784 46.0092 48.083 46.3197C48.4214 46.6652 48.7657 47.0047 49.1082 47.3461C49.4175 47.6542 49.7375 47.6803 50.0688 47.381C50.1281 47.3289 50.1796 47.2726 50.2389 47.2228C50.7396 46.808 51.254 46.6693 51.8916 46.9792C52.9583 47.499 53.1953 47.3277 53.1953 46.1354L53.1906 45.7301ZM55.5307 35.7152C55.2232 35.7407 54.9097 35.7366 54.6086 35.7958C52.9938 36.1135 51.6925 37.4415 51.3844 39.0652C51.0525 40.811 51.7654 42.5739 53.2214 43.4385C53.4584 43.5795 53.926 43.579 54.1601 43.4385C55.0685 42.885 55.9378 42.8305 56.8143 43.4385C57.1906 43.6998 57.5189 43.6613 57.8762 43.4148C59.4258 42.344 60.0872 40.4287 59.5295 38.5964C59.0116 36.8921 57.3968 35.7366 55.5325 35.7152H55.5307Z"
                                            fill="black" />
                                        <path
                                            d="M67.1484 34.7576V33.8812C68.365 33.8812 69.5692 33.7798 70.7484 33.9055C72.4077 34.0832 73.7114 33.5949 74.915 32.4536C75.5295 31.8705 75.8566 31.4284 75.5763 30.5502C75.2433 29.5061 76.0255 28.1941 77.1318 27.6749C78.2578 27.1481 79.632 27.4527 80.3816 28.3943C81.2391 29.4699 81.2415 30.8269 80.3887 31.9143C79.6355 32.8743 78.2726 33.1795 77.0921 32.6095C76.5896 32.3659 76.1849 32.3896 75.7819 32.7872C75.5484 33.016 75.2427 33.1736 75.021 33.4112C73.9099 34.5964 72.5713 35.0012 70.9564 34.837C69.7505 34.7143 68.5233 34.8092 67.3055 34.8056C67.2517 34.7947 67.1991 34.7786 67.1484 34.7576ZM78.2951 32.0216C79.4086 32.0216 80.1321 31.2868 80.1292 30.1585C80.1262 29.0302 79.4027 28.309 78.2815 28.3096C77.1295 28.3096 76.4136 29.0367 76.4178 30.2018C76.4219 31.3075 77.1633 32.0234 78.2951 32.0216Z"
                                            fill="black" />
                                        <path
                                            d="M43.8746 45.0285V45.9576H43.2624C41.6583 45.9576 40.0535 45.9416 38.4494 45.9719C38.1531 45.9772 37.8189 46.1099 37.5747 46.2853C36.9312 46.7458 36.3415 47.2809 35.7027 47.749C35.2879 48.0519 35.2358 48.4062 35.3572 48.8613C35.8141 50.5745 34.9033 52.0329 33.1522 52.4092C31.743 52.7114 30.1999 51.5381 30.002 49.9434C29.8835 49.0018 30.2604 48.1769 30.9922 47.5855C31.8064 46.9283 32.7611 46.6373 33.7442 47.1511C34.4292 47.5067 34.9543 47.4302 35.4432 46.8892C36.8879 45.2922 38.6692 44.7416 40.7931 45.0071C41.7969 45.1333 42.8298 45.0285 43.8746 45.0285ZM32.7463 51.5292C33.8722 51.5292 34.6052 50.8074 34.6094 49.6922C34.6141 48.5366 33.8894 47.813 32.7303 47.8154C31.6168 47.8154 30.8962 48.5508 30.8974 49.6803C30.8986 50.8098 31.6239 51.5292 32.7463 51.5292Z"
                                            fill="black" />
                                        <path
                                            d="M67.1523 45.9576V45.0285C68.6433 45.0285 70.1153 45.096 71.5731 45.0071C72.7512 44.9354 73.7254 45.1926 74.555 46.0513C74.9289 46.4376 75.4101 46.7168 75.8101 47.0806C76.2101 47.4445 76.6054 47.4954 77.0729 47.2323C78.6113 46.3707 80.5402 47.3852 80.9491 49.0445C81.2454 50.2403 80.6267 51.5659 79.4676 52.1259C78.3085 52.6859 76.8602 52.3813 76.136 51.3727C75.5926 50.6196 75.3177 49.8012 75.6655 48.8667C75.8433 48.3926 75.71 48.0246 75.2886 47.7147C74.5272 47.1541 73.8706 46.3428 73.0249 46.0359C72.2202 45.7437 71.23 45.96 70.3209 45.9576C69.2774 45.9553 68.2362 45.9576 67.1523 45.9576ZM80.1301 49.6939C80.1331 48.5597 79.419 47.8213 78.3103 47.8178C77.1452 47.8136 76.4187 48.5289 76.4187 49.6827C76.4187 50.8027 77.144 51.5274 78.2682 51.5298C79.3923 51.5322 80.1254 50.8086 80.1283 49.6963L80.1301 49.6939Z"
                                            fill="black" />
                                        <path
                                            d="M43.891 33.8812V34.7671C43.7393 34.7819 43.5947 34.808 43.446 34.808C41.7435 34.811 40.0403 34.8287 38.3384 34.7938C37.9799 34.7744 37.6343 34.6531 37.3423 34.4441C36.6045 33.9156 35.8958 33.3407 35.2066 32.7481C34.7918 32.3926 34.4054 32.3564 33.942 32.6113C32.3876 33.4681 30.4712 32.4234 30.0723 30.7831C29.7873 29.611 30.3876 28.2942 31.5159 27.7295C32.6774 27.1464 34.1233 27.4332 34.8629 28.4264C35.4175 29.1701 35.7097 29.9908 35.3755 30.9253C35.1977 31.4243 35.2824 31.8243 35.7523 32.123C35.9683 32.2539 36.1656 32.4134 36.339 32.597C37.3506 33.723 38.6003 34.0359 40.0806 33.9055C41.3257 33.7941 42.5867 33.8812 43.891 33.8812ZM32.7331 32.0204C33.8655 32.0204 34.6021 31.3058 34.6086 30.1964C34.6152 29.0344 33.8975 28.3073 32.742 28.3073C31.6249 28.3073 30.8972 29.0385 30.8966 30.1603C30.8961 31.2821 31.6172 32.0193 32.7331 32.0204Z"
                                            fill="black" />
                                        <path
                                            d="M42.0182 39.4551V40.3837H41.3699C38.7406 40.3837 36.1112 40.3967 33.4819 40.373C32.9486 40.3677 32.641 40.514 32.4229 41.0296C31.9489 42.1478 30.6671 42.8572 29.6271 42.6509C28.2143 42.3712 27.2662 41.3407 27.1945 40.005C27.1305 38.8346 28.0703 37.6175 29.3047 37.2714C30.4265 36.9567 31.7906 37.4859 32.2902 38.5852C32.6215 39.3152 33.054 39.4865 33.8019 39.474C36.3145 39.4278 38.8283 39.4569 41.342 39.4569L42.0182 39.4551ZM31.8256 39.9292C31.8256 38.7991 31.1074 38.0672 29.9933 38.0655C28.8354 38.0655 28.1124 38.7855 28.1142 39.9422C28.1142 41.0569 28.846 41.7792 29.9761 41.7792C31.0926 41.7763 31.8215 41.048 31.8226 39.9274L31.8256 39.9292Z"
                                            fill="black" />
                                        <path
                                            d="M69.0098 40.3837V39.4551H69.6563C72.2637 39.4551 74.8764 39.4391 77.4862 39.4669C78.0652 39.4729 78.3905 39.3206 78.6281 38.7558C79.0939 37.6471 80.397 36.9781 81.4536 37.2026C82.8581 37.5043 83.8157 38.5846 83.8352 39.8906C83.8524 41.0705 82.9404 42.2255 81.7227 42.5656C80.5967 42.8797 79.2385 42.3535 78.7372 41.2518C78.4047 40.5212 77.971 40.3523 77.2243 40.3665C74.7123 40.4127 72.1985 40.3837 69.6853 40.3837H69.0098ZM81.0518 41.7745C82.1778 41.7745 82.912 41.0545 82.9167 39.9375C82.9215 38.7813 82.1973 38.0572 81.0388 38.0595C79.9247 38.0595 79.2018 38.7943 79.2047 39.9226C79.2077 41.0509 79.9307 41.7751 81.0518 41.7745Z"
                                            fill="black" />
                                    </svg>