<svg width="109" height="102" viewBox="0 0 109 102" fill="none"
                                        xmlns="http://www.w3.org/2000/svg">
                                        <ellipse cx="54.96" cy="50.97" rx="49.96" ry="49.97" fill="white" />
                                        <path
                                            d="M54.96 101.44C82.8284 101.44 105.42 78.8437 105.42 50.97C105.42 23.0963 82.8284 0.5 54.96 0.5C27.0916 0.5 4.5 23.0963 4.5 50.97C4.5 78.8437 27.0916 101.44 54.96 101.44Z"
                                            stroke="#2E3192" stroke-opacity="0.2" stroke-linejoin="round" />
                                        <circle opacity="0.6" cx="54.57" cy="50.57" r="44.57" fill="#C8DCFE" />
                                        <path
                                            d="M48.0215 52.1402H49.039C49.0719 52.2011 49.1137 52.2772 49.1514 52.3491C49.7279 53.5103 50.4432 54.5972 51.2816 55.586C51.5447 55.897 51.8352 56.178 52.223 56.3397C52.4608 56.4401 52.7197 56.4804 52.9767 56.4568C53.0449 56.4501 53.1098 56.4242 53.1638 56.3821C53.4236 56.1758 53.5965 55.8794 53.6482 55.5517C53.6796 55.3674 53.697 55.1809 53.7003 54.994C53.7003 54.417 53.6811 53.8394 53.6722 53.2625C53.6633 52.6582 53.7167 52.0621 53.9353 51.492C54.1204 51.0184 54.4309 50.6041 54.8336 50.2936C55.5489 49.7173 56.2787 49.1521 56.9097 48.4778C56.9593 48.4184 57.005 48.356 57.0467 48.2908L57.1022 48.3251C57.1091 48.3879 57.1091 48.4513 57.1022 48.5142C56.8796 49.47 56.428 50.2867 55.6421 50.8979C55.538 50.9795 55.4324 51.0596 55.3283 51.1418C54.8672 51.5036 54.6959 52.0011 54.6911 52.5636C54.6861 53.109 54.6938 53.6549 54.7144 54.2012C54.7356 54.774 54.7144 55.3434 54.5417 55.8909C54.446 56.1621 54.3266 56.4244 54.1847 56.6747C54.0754 56.8742 53.9178 57.0431 53.7263 57.166C53.5763 57.2647 53.429 57.3825 53.4756 57.5983C53.4877 57.6724 53.5165 57.7427 53.5598 57.8039C53.6253 57.8808 53.6996 57.9498 53.7812 58.0095C55.9484 59.7435 58.527 60.8882 61.2668 61.3326C62.8084 61.5886 64.378 61.6294 65.9309 61.4539C69.5852 61.0428 72.7503 59.5685 75.4262 57.031C77.1432 55.4044 78.4745 53.5112 79.3735 51.3186C80.019 49.7596 80.4122 48.1077 80.5383 46.425C80.6374 45.1485 80.6037 43.8651 80.4376 42.5955C80.431 42.5097 80.3985 42.4278 80.3444 42.3608C80.2903 42.2938 80.2173 42.2447 80.1347 42.2201C79.6987 42.0705 79.2871 41.8577 78.9131 41.5883C78.7164 41.4513 78.5074 41.3252 78.2457 41.3423C78.2033 41.3405 78.1611 41.3485 78.1223 41.3657C78.0835 41.383 78.0493 41.409 78.0223 41.4417C77.9223 41.5712 77.8168 41.6966 77.7277 41.8329C77.4317 42.2893 77.0041 42.5318 76.4772 42.6092C76.3466 42.6271 76.2139 42.6229 76.0846 42.5969C75.4399 42.4749 74.8999 42.192 74.5368 41.6123C74.1541 41.0027 73.9132 40.315 73.8317 39.5999C73.7919 39.3467 73.7267 39.0981 73.6371 38.8578C73.5982 38.7467 73.5367 38.6449 73.4563 38.5588C73.376 38.4727 73.2787 38.4042 73.1705 38.3577C73.002 38.2782 72.8231 38.2206 72.6498 38.1521C72.4408 38.0678 72.2298 37.987 72.0256 37.8924C71.683 37.7341 71.4719 37.456 71.3322 37.1079C71.1924 36.7598 71.1479 36.3836 71.1266 36.0116C71.1279 35.9453 71.112 35.8799 71.0806 35.8215C71.0491 35.7632 71.0031 35.714 70.9471 35.6786C70.8609 35.628 70.7644 35.5973 70.6648 35.5888C70.2462 35.5525 69.8426 35.5888 69.4664 35.8122C69.2609 35.9355 69.043 36.0452 68.8326 36.1637C68.3146 36.4549 67.7891 36.7262 67.1882 36.8181C66.9063 36.8671 66.6171 36.8529 66.3414 36.7766C66.0656 36.7003 65.8103 36.5638 65.5937 36.3768C65.4115 36.2226 65.2888 35.9849 65.1751 35.7663C65.0792 35.5617 65.0013 35.3492 64.9421 35.1311C64.8681 34.8941 64.7318 34.7502 64.4728 34.7125C64.1562 34.6629 63.8503 34.5598 63.5683 34.4076C63.2699 34.2634 63.0313 34.0193 62.8941 33.7176C62.7776 33.4435 62.6886 33.1633 62.5967 32.883C62.5602 32.7638 62.5316 32.6422 62.5111 32.5192C62.3919 31.8779 61.941 31.4483 61.2257 31.4099C60.8146 31.388 60.4 31.3852 59.9876 31.3667C59.6365 31.3505 59.29 31.2812 58.9598 31.1612C58.7338 31.0849 58.5297 30.9549 58.3651 30.7823C58.2005 30.6097 58.0803 30.3997 58.0149 30.1704C57.9951 30.0875 57.964 30.0077 57.9224 29.9333C57.795 29.7415 57.5586 29.6914 57.2968 29.8155C56.8535 30.0265 56.4171 30.2519 55.9785 30.4719C55.9025 30.5102 55.8285 30.552 55.7504 30.5938L54.9377 29.9909C55.033 29.9326 55.1042 29.8874 55.1762 29.8456C57.1259 28.7039 59.2753 27.9442 61.5094 27.6071C62.6582 27.4247 63.8236 27.3689 64.9846 27.4406C68.6161 27.6893 71.8947 28.8973 74.7828 31.1214C78.0374 33.6306 80.0834 36.9352 81.0865 40.9004C81.4437 42.2766 81.6136 43.6947 81.5914 45.1163C81.5079 49.0794 80.2697 52.6534 77.8401 55.7847C75.3049 59.0523 71.9673 61.09 67.9686 62.0692C66.5512 62.4234 65.0918 62.5811 63.6314 62.5378C60.3288 62.4431 57.1181 61.4292 54.3601 59.6101C53.0537 58.7665 51.8721 57.7439 50.8499 56.5719C49.7384 55.2915 48.8119 53.8615 48.0975 52.3238C48.0756 52.2779 48.0578 52.2279 48.0215 52.1402ZM63.937 28.4081C63.6629 28.4197 63.2717 28.4314 62.8825 28.4526C61.6512 28.5241 60.4325 28.7388 59.251 29.0926C59.0845 29.1419 58.9207 29.218 58.8906 29.3858C58.8529 29.5914 58.831 29.8237 58.9831 30.0135C59.1352 30.2033 59.3209 30.3335 59.5764 30.341C59.7477 30.3465 59.919 30.367 60.0897 30.3753C60.4864 30.3938 60.8858 30.3869 61.2791 30.4308C61.6927 30.4698 62.0922 30.6014 62.4481 30.8158C63.0346 31.181 63.3258 31.7477 63.4847 32.3966C63.5368 32.6083 63.5622 32.8275 63.6279 33.0345C63.7417 33.3935 63.9829 33.6333 64.3618 33.7107C64.5221 33.7436 64.6852 33.7594 64.8462 33.7895C65.2046 33.8581 65.4855 34.0355 65.639 34.3767C65.7411 34.6035 65.8281 34.8372 65.9199 35.0688C65.9665 35.1846 66.0014 35.3052 66.0569 35.4162C66.0974 35.5099 66.1587 35.5931 66.2363 35.6595C66.3138 35.7259 66.4055 35.7737 66.5044 35.7992C66.8586 35.8793 67.2183 35.9006 67.5595 35.7457C67.8425 35.6169 68.1166 35.4669 68.3941 35.325C68.7408 35.1476 69.0793 34.9564 69.4342 34.792C69.9547 34.5466 70.5505 34.5144 71.0944 34.7022C71.6939 34.892 72.0071 35.2928 72.1099 35.8889C72.1318 36.0184 72.1345 36.1521 72.1475 36.2836C72.1606 36.4152 72.1749 36.531 72.1873 36.655C72.2085 36.8729 72.3442 37.0085 72.5299 37.0935C72.6857 37.1621 72.8459 37.2203 73.0095 37.2675C73.3724 37.3673 73.7109 37.5404 74.0044 37.7759C74.1239 37.875 74.227 37.9922 74.31 38.1233C74.5976 38.5899 74.7735 39.1165 74.8239 39.6623C74.8739 40.1761 75.0205 40.6592 75.3295 41.0765C75.458 41.2418 75.6091 41.3883 75.7783 41.5116C75.9709 41.6575 76.2107 41.613 76.4361 41.6198C76.4944 41.6254 76.5532 41.6163 76.6072 41.5935C76.6611 41.5706 76.7085 41.5347 76.7451 41.489C76.8911 41.3067 77.0398 41.1272 77.1795 40.9408C77.5646 40.4249 78.1779 40.2385 78.776 40.466C78.9131 40.5187 79.046 40.5873 79.1796 40.6517C79.2358 40.6784 79.2858 40.7202 79.3434 40.7421C79.6209 40.8504 79.9751 40.7538 79.9223 40.3714C79.9099 40.2482 79.887 40.1262 79.8538 40.0069C78.8617 36.8146 77.0322 34.1828 74.4525 32.0793C71.4288 29.6147 67.9446 28.4266 63.937 28.4081Z"
                                            fill="black" />
                                        <path
                                            d="M45.0908 59.0447C44.605 59.1133 44.1185 59.1743 43.6334 59.2435C42.506 59.4052 41.3796 59.5682 40.254 59.7327L36.8514 60.2281L33.8195 60.668L31.3665 61.0243C31.1171 61.0613 30.9026 60.9557 30.806 60.7447C30.7779 60.691 30.7612 60.632 30.757 60.5715C30.7528 60.5111 30.7612 60.4504 30.7816 60.3933C30.802 60.3362 30.834 60.2839 30.8756 60.2398C30.9172 60.1957 30.9674 60.1607 31.0232 60.1369C31.1759 60.0792 31.3352 60.0406 31.4974 60.0218C33.2021 59.771 34.9071 59.5228 36.6123 59.277C38.2786 59.0368 39.9459 58.7967 41.6141 58.5569C42.694 58.4 43.7725 58.2287 44.8537 58.0848C45.2497 58.032 45.6471 58.1033 46.0315 58.2157C46.517 58.3644 46.9722 58.5982 47.3758 58.9063C50.0152 60.8482 52.6561 62.7875 55.2986 64.7243C56.0523 65.2779 56.8204 65.8151 57.5728 66.3687C58.5772 67.1128 59.1528 68.1139 59.307 69.3547C59.3234 69.4856 59.307 69.6192 59.3145 69.7521C59.3207 69.944 59.4454 70.081 59.6331 70.0728C59.7718 70.0683 59.9088 70.0413 60.0388 69.9926C63.1495 68.7639 66.2589 67.5324 69.3669 66.2981C69.791 66.1303 70.2268 66.0014 70.6879 66.0501C72.3104 66.2214 73.3985 67.2971 73.4773 68.921C73.5095 69.5911 73.2594 70.205 72.8908 70.7655C72.5221 71.326 72 71.672 71.3875 71.9043C70.1921 72.3579 68.9959 72.8092 67.7992 73.2582L53.9043 78.4978C53.8968 78.4978 53.8892 78.502 53.8817 78.5054C53.091 78.8425 52.366 78.687 51.7069 78.1847C48.0955 75.433 44.4869 72.6783 40.881 69.9207C40.6754 69.7645 40.4582 69.6268 40.2527 69.4719C39.8785 69.1903 39.4578 69.1389 39.009 69.1978C37.8182 69.354 36.6276 69.5091 35.4372 69.6631C34.1764 69.8275 32.9162 69.9926 31.6563 70.1585C31.5255 70.1756 31.3939 70.2023 31.2623 70.2071C31.1683 70.2175 31.0733 70.2009 30.9884 70.1593C30.9034 70.1177 30.8321 70.0528 30.7827 69.9721C30.7301 69.8935 30.7037 69.8002 30.7074 69.7056C30.7111 69.6111 30.7446 69.5201 30.8033 69.4459C30.9054 69.2979 31.0636 69.2547 31.2274 69.2321C31.683 69.169 32.1394 69.1094 32.5978 69.0498L35.3344 68.6942C36.2315 68.5777 37.1287 68.4619 38.0258 68.3468C38.3191 68.3085 38.6171 68.2886 38.9063 68.229C39.4133 68.1248 39.8806 68.229 40.3349 68.4462C40.8145 68.6709 41.2338 68.9779 41.6497 69.2951C45.1839 71.9943 48.7161 74.696 52.2461 77.4002C52.6908 77.7428 53.1485 77.7702 53.6295 77.59C59.4454 75.4051 65.2592 73.2144 71.0709 71.0177C71.7828 70.7484 72.2878 70.2455 72.4413 69.4822C72.5033 69.1447 72.5033 68.7987 72.4413 68.4613C72.3132 67.7192 71.5231 67.0833 70.7509 67.0415C70.3373 67.017 69.9233 67.0844 69.5388 67.2389C65.8603 68.7061 62.179 70.1678 58.495 71.6241C58.366 71.6752 58.2448 71.7444 58.1353 71.8296C57.5819 72.2828 56.9072 72.5628 56.1955 72.6347C55.5412 72.6978 54.9081 72.5662 54.3661 72.1907C52.2256 70.7189 50.0974 69.2293 47.9658 67.7452C47.7027 67.5623 47.6383 67.3341 47.7726 67.0833C47.8249 66.982 47.9142 66.9047 48.022 66.8673C48.1297 66.83 48.2477 66.8354 48.3515 66.8826C48.4496 66.9303 48.5432 66.9867 48.6311 67.0511C50.6812 68.4754 52.7299 69.9017 54.7772 71.3301C55.0174 71.5072 55.3021 71.6141 55.5994 71.6391C56.0448 71.672 56.4902 71.6775 56.9088 71.4836C57.4481 71.2416 57.8848 70.8173 58.1422 70.2852C58.4018 69.7515 58.3553 69.1889 58.1655 68.6449C57.9318 67.9713 57.4556 67.4753 56.8979 67.0594C56.1791 66.5242 55.4418 66.0117 54.719 65.4834C52.0509 63.5279 49.3855 61.569 46.7229 59.6066C46.2302 59.2455 45.7081 59.04 45.0908 59.0447Z"
                                            fill="black" />
                                        <path
                                            d="M38.617 39.9247C38.6554 36.4803 40.726 32.2403 45.6388 30.8021C45.7758 30.7624 45.9129 30.7336 46.0458 30.6945C46.3672 30.5993 46.4528 30.2677 46.2212 30.0231C46.2102 30.0121 46.1986 30.0018 46.1883 29.9902C45.9142 29.6805 45.9478 29.4873 46.1822 29.2063C46.311 29.0515 46.4692 28.9206 46.6111 28.776C46.7872 28.5972 46.7755 28.3389 46.5782 28.1929C46.5227 28.1531 46.4553 28.1333 46.387 28.1368C46.1466 28.1555 45.9075 28.1884 45.671 28.2354C43.4312 28.7213 41.3762 29.835 39.7462 31.4462C38.53 32.6329 37.5625 33.9882 36.9239 35.5655C36.7081 36.0979 36.5539 36.6563 36.3758 37.2038C36.3196 37.3737 36.2819 37.5464 36.0983 37.6416C36.0166 37.689 35.9219 37.7093 35.828 37.6994C35.734 37.6896 35.6456 37.6501 35.5755 37.5868C35.5024 37.5333 35.4478 37.4584 35.4191 37.3725C35.3904 37.2866 35.389 37.1939 35.4152 37.1072C35.5316 36.7112 35.6406 36.3117 35.7776 35.9225C36.4356 34.0198 37.5176 32.2916 38.9418 30.8686C40.4245 29.3927 42.1793 28.3396 44.1609 27.6667C44.982 27.3926 45.8261 27.1931 46.683 27.0706C46.9571 27.0295 47.0791 26.8774 47.0407 26.6074C47.0248 26.5332 46.9871 26.4655 46.9324 26.4128C46.7091 26.1847 46.4754 25.9654 46.2514 25.7379C46.1802 25.6661 46.1191 25.585 46.0698 25.4967C46.0193 25.4083 45.9994 25.3057 46.0131 25.2048C46.0268 25.1039 46.0734 25.0103 46.1456 24.9386C46.2178 24.8668 46.3117 24.8208 46.4127 24.8078C46.5137 24.7947 46.6162 24.8153 46.7043 24.8664C46.7991 24.9203 46.8864 24.9864 46.964 25.063C47.6035 25.6902 48.243 26.319 48.8825 26.9493L48.8996 26.9651C49.2422 27.3207 49.247 27.5605 48.8996 27.9079C48.2713 28.5369 47.6334 29.157 46.9962 29.7771C46.8906 29.8799 46.818 29.9826 46.8345 30.1409C46.8536 30.3341 46.9797 30.4719 47.177 30.4684C47.3744 30.465 47.5813 30.4397 47.7834 30.4308C49.4127 30.3562 51.0336 30.7044 52.4886 31.4414C55.3438 32.8638 57.0238 35.1907 57.6871 38.2823C58.3661 41.4458 57.102 44.9019 54.8854 46.9978C53.4121 48.4057 51.529 49.308 49.5087 49.5741C46.9126 49.9359 44.5754 49.2494 42.4767 47.7241C40.5527 46.3236 39.4105 44.3962 38.8589 42.1022C38.69 41.3889 38.6088 40.6577 38.617 39.9247ZM47.7416 47.6933C47.7416 47.498 47.7368 47.3028 47.7416 47.1082C47.7441 47.0073 47.7602 46.9073 47.7896 46.8108C47.8135 46.71 47.8705 46.6202 47.9516 46.5558C48.0326 46.4913 48.133 46.456 48.2365 46.4554C48.3401 46.4549 48.4408 46.4891 48.5225 46.5527C48.6043 46.6163 48.6622 46.7055 48.6872 46.806C48.7204 46.9172 48.7374 47.0326 48.7379 47.1486C48.7441 47.5467 48.7379 47.9441 48.7413 48.3422C48.7405 48.3865 48.7486 48.4306 48.7652 48.4717C48.7817 48.5129 48.8064 48.5503 48.8378 48.5817C48.8691 48.6131 48.9064 48.6378 48.9475 48.6545C48.9887 48.6712 49.0327 48.6793 49.0771 48.6786C49.1703 48.6854 49.264 48.6822 49.3566 48.669C49.8301 48.5751 50.3111 48.5032 50.7736 48.3696C52.1988 47.9585 53.404 47.1808 54.4421 46.1229C55.4508 45.1128 56.1868 43.8633 56.5812 42.4914C56.7183 42.0042 56.8347 41.5095 56.8471 40.9984C56.8553 40.6743 56.7573 40.5777 56.4401 40.577C56.0728 40.577 55.7062 40.5811 55.3397 40.577C55.2237 40.5754 55.1085 40.5584 54.9971 40.5263C54.7785 40.4619 54.6202 40.2618 54.6373 40.0645C54.638 39.9575 54.6754 39.854 54.7432 39.7713C54.8111 39.6886 54.9053 39.6317 55.0101 39.6102C55.123 39.58 55.2392 39.5642 55.3561 39.5629C55.7227 39.5574 56.0893 39.5629 56.4524 39.5629C56.7546 39.5629 56.8594 39.4615 56.8457 39.1518C56.8366 38.9336 56.8137 38.7162 56.7772 38.5009C56.2119 35.162 53.5568 32.5452 50.6948 31.7429C50.1761 31.5976 49.6519 31.477 49.11 31.4633C48.8695 31.4572 48.7413 31.5915 48.74 31.8333C48.74 32.2232 48.7434 32.6138 48.74 33.0036C48.736 33.1195 48.7183 33.2345 48.6872 33.3462C48.629 33.5634 48.4542 33.6546 48.2528 33.6847C48.0815 33.7094 47.8615 33.5436 47.7985 33.3462C47.763 33.2272 47.7448 33.1038 47.7444 32.9796C47.7375 32.5898 47.7444 32.1992 47.7403 31.8093C47.7403 31.5976 47.6032 31.4503 47.3936 31.4668C47.0982 31.484 46.8042 31.5192 46.5131 31.5723C44.7508 31.9149 43.2626 32.7597 42.0135 34.0437C41.0312 35.0348 40.3107 36.2544 39.9168 37.593C39.7533 38.1142 39.6555 38.6537 39.6256 39.1991C39.6167 39.4334 39.7462 39.5602 39.9771 39.5615C40.3595 39.5615 40.7418 39.5574 41.1234 39.565C41.2554 39.5694 41.3864 39.5901 41.5133 39.6266C41.7285 39.6862 41.8244 39.8568 41.8497 40.0617C41.8717 40.2392 41.7127 40.4564 41.5119 40.5187C41.3931 40.5555 41.2697 40.5754 41.1454 40.5777C40.7637 40.5852 40.3814 40.5777 39.999 40.5811C39.7503 40.5811 39.6297 40.7017 39.6311 40.9511C39.6441 41.3724 39.7078 41.7907 39.8209 42.1968C40.1991 43.7172 40.9528 45.0211 42.0491 46.1352C43.1769 47.2815 44.5007 48.0756 46.0602 48.471C46.4905 48.5799 46.9263 48.6765 47.3737 48.6765C47.6025 48.6765 47.7348 48.547 47.7382 48.323C47.7437 48.1147 47.7416 47.9043 47.7416 47.6933Z"
                                            fill="black" />
                                        <path
                                            d="M61.2051 46.5463C61.2238 46.0411 61.3426 45.5445 61.5545 45.0855C61.6442 44.9024 61.6707 44.6947 61.6299 44.4949C61.597 44.3195 61.5497 44.1461 61.5038 43.9728C61.4428 43.7398 61.3668 43.5096 61.3154 43.2739C61.1852 42.6695 61.4812 42.1968 62.0773 42.0214C62.3376 41.9354 62.6187 41.9354 62.879 42.0214C62.9893 42.0615 63.1075 42.0752 63.224 42.0611C63.3406 42.0471 63.4522 42.0058 63.5498 41.9405C63.8214 41.7697 64.1241 41.6545 64.4405 41.6013C64.9147 41.5177 65.3045 41.6699 65.5875 42.057C65.8554 42.4208 65.9856 42.8484 66.0994 43.28C66.1412 43.4383 66.1809 43.5973 66.2117 43.7597C66.2864 44.1482 66.5379 44.3859 66.875 44.5511C67.2003 44.7047 67.55 44.8003 67.9082 44.8334C68.5746 44.9156 69.247 44.9374 69.9172 44.8985C70.1968 44.8771 70.4737 44.8292 70.7442 44.7552C71.5205 44.5449 72.1495 44.8094 72.7093 45.3274C72.7562 45.3682 72.7982 45.4141 72.8347 45.4644C72.9848 45.6864 73.1938 45.7172 73.4459 45.7035C74.0338 45.67 74.5217 45.8755 74.8231 46.4052C75.2055 47.076 75.35 47.7886 75.0972 48.5388C75.0248 48.7526 74.9135 48.9512 74.769 49.1247C74.6968 49.2008 74.6495 49.2971 74.6332 49.4007C74.6169 49.5043 74.6325 49.6104 74.6779 49.705C74.8601 50.1511 74.9814 50.6136 74.9704 51.0925C74.953 51.5287 74.909 51.9635 74.8389 52.3944C74.7882 52.7411 74.7053 53.0796 74.6244 53.4222C74.4572 54.1279 74.0235 54.4972 73.2205 54.5671C73.1193 54.5754 73.0177 54.578 72.9163 54.5746C72.6497 54.5678 72.5052 54.7213 72.4085 54.946C72.3119 55.1707 72.2249 55.3975 72.0886 55.5935C71.8145 55.9909 71.3965 56.1417 70.9279 56.1136C70.6149 56.089 70.3125 55.9896 70.046 55.8237C69.6805 55.6143 69.3418 55.3612 69.0374 55.07C69.0045 55.0371 68.9689 55.0015 68.9353 54.9734C68.5085 54.5822 68.0097 54.4636 67.4409 54.5507C66.8359 54.6438 66.3309 54.4253 65.9548 53.9559C65.7986 53.7518 65.6792 53.522 65.6019 53.2769C65.5261 53.0426 65.4031 52.8263 65.2405 52.6414C65.0779 52.4565 64.8791 52.3069 64.6564 52.2018C64.2918 52.0175 63.9794 51.7832 63.7869 51.4152C63.6414 51.1293 63.5545 50.8171 63.5313 50.4971C63.5189 50.3498 63.5011 50.2018 63.4998 50.0538C63.4998 49.8345 63.3627 49.7187 63.1907 49.6283C63.1565 49.6105 63.1222 49.5981 63.0825 49.5831C62.7442 49.4484 62.4364 49.2471 62.1774 48.991C61.9184 48.735 61.7136 48.4296 61.5751 48.0928C61.3568 47.6047 61.2314 47.0803 61.2051 46.5463ZM62.2 46.5573C62.2107 46.7745 62.2335 46.9909 62.2685 47.2055C62.4343 47.9592 62.866 48.4984 63.5977 48.7697C63.9588 48.9068 64.2144 49.1322 64.3329 49.4981C64.3902 49.6594 64.4342 49.8251 64.4645 49.9935C64.5049 50.247 64.5248 50.504 64.5481 50.7595C64.5621 50.8759 64.6167 50.9836 64.7023 51.0637C64.8604 51.225 65.046 51.3568 65.2504 51.4529C65.73 51.6914 66.1111 52.0901 66.3275 52.5801C66.3944 52.7208 66.4503 52.8665 66.4947 53.0158C66.5624 53.2262 66.7038 53.405 66.8928 53.5195C66.9935 53.588 67.1593 53.5736 67.2957 53.5736C67.443 53.5736 67.5903 53.5421 67.7376 53.5332C67.8458 53.525 67.9545 53.5269 68.0624 53.5386C68.4204 53.5816 68.7625 53.7109 69.0594 53.9155C69.343 54.108 69.6075 54.3266 69.8816 54.5322C70.0803 54.6836 70.2769 54.8364 70.4777 54.9844C70.6213 55.0795 70.7892 55.1311 70.9614 55.1331C71.2012 55.1522 71.3246 55.0645 71.4411 54.8145C71.5178 54.6527 71.5781 54.4835 71.6555 54.3225C71.7762 54.075 71.983 53.8801 72.2372 53.7743C72.5514 53.6348 72.8905 53.5598 73.2342 53.5537C73.4994 53.5455 73.633 53.4359 73.6857 53.1734C73.7775 52.715 73.8913 52.258 73.9358 51.7948C74.0098 51.0466 74.0441 50.2929 73.5528 49.6392C73.5488 49.6327 73.5454 49.6258 73.5425 49.6187C73.3692 49.3275 73.4055 49.0472 73.611 48.793C73.694 48.7014 73.7926 48.6253 73.9022 48.5683C74.0968 48.4539 74.2291 48.312 74.2147 48.0674C74.2044 47.8968 74.2215 47.7248 74.203 47.5535C74.1877 47.3829 74.1528 47.2146 74.0989 47.052C74.0365 46.8725 73.918 46.7169 73.7118 46.6902C73.5597 46.6703 73.4027 46.669 73.2616 46.7649C73.093 46.88 72.919 46.8526 72.7573 46.7464C72.642 46.6672 72.535 46.5765 72.438 46.4757C72.2407 46.2764 72.0591 46.0605 71.8556 45.868C71.77 45.7784 71.6582 45.7182 71.5363 45.696C71.3049 45.6724 71.0713 45.6825 70.8429 45.7262C70.2852 45.8495 69.7281 45.9543 69.1532 45.9146C68.9203 45.8981 68.6859 45.892 68.453 45.8742C67.7752 45.8298 67.1099 45.6711 66.4851 45.4048C65.8129 45.115 65.4265 44.6093 65.2593 43.9152C65.2388 43.8316 65.2271 43.7467 65.2038 43.6644C65.1298 43.402 65.0668 43.1368 64.9736 42.8806C64.9473 42.786 64.888 42.7039 64.8064 42.6493C64.7249 42.5946 64.6264 42.5709 64.5289 42.5825C64.3151 42.5935 64.1404 42.6805 63.9636 42.7819C63.6341 42.971 63.2942 43.1142 62.8989 43.0265C62.8215 43.0149 62.7429 43.0135 62.6652 43.0224C62.5839 43.0276 62.5076 43.0631 62.4513 43.1221C62.3951 43.181 62.3631 43.2589 62.3617 43.3403C62.3636 43.4641 62.379 43.5872 62.4076 43.7076C62.4651 43.9502 62.5323 44.1872 62.5994 44.4305C62.6751 44.7129 62.638 45.0136 62.496 45.2691C62.2909 45.6667 62.1891 46.1094 62.2 46.5566V46.5573Z"
                                            fill="black" />
                                        <path
                                            d="M35.1554 40.5804C35.1475 40.4096 35.1489 40.2385 35.1595 40.0679C35.1627 39.9819 35.1891 39.8983 35.2357 39.826C35.2824 39.7537 35.3476 39.6952 35.4247 39.6568C35.6809 39.5321 35.9557 39.6212 36.0653 39.8843C36.109 39.9922 36.1349 40.1065 36.1421 40.2227C36.177 40.6962 36.201 41.1704 36.2332 41.6445C36.2483 41.8706 36.1962 42.0638 35.9872 42.1817C35.7207 42.3317 35.426 42.2338 35.3212 41.9453C35.2685 41.7828 35.235 41.6147 35.2212 41.4444C35.1883 41.158 35.1705 40.8702 35.1465 40.5832L35.1554 40.5804Z"
                                            fill="black" />
                                        <path
                                            d="M41.3841 50.2901C41.356 50.678 40.9689 50.8808 40.725 50.7417C40.6555 50.7072 40.5888 50.6673 40.5256 50.6225C40.1309 50.3052 39.7369 49.988 39.3484 49.6632C39.2739 49.5954 39.2118 49.5152 39.1648 49.4261C39.0456 49.2206 39.1004 49.0691 39.2443 48.8903C39.3697 48.7334 39.6074 48.7026 39.7972 48.804C39.8845 48.8546 39.9666 48.9136 40.0425 48.9801C40.4091 49.2815 40.7688 49.5919 41.1388 49.8866C41.2653 49.9882 41.3521 50.131 41.3841 50.2901Z"
                                            fill="black" />
                                        <path
                                            d="M43.9168 51.4111L44.0805 51.4591L45.5386 51.8805C45.5914 51.8956 45.6448 51.9079 45.6955 51.9278C45.936 52.0196 46.0737 52.2642 46.01 52.4814C45.9319 52.7459 45.6976 52.9096 45.4379 52.8384C44.8678 52.6812 44.3009 52.5122 43.7373 52.3313C43.6375 52.2965 43.5529 52.2283 43.4976 52.1383C43.4423 52.0483 43.4198 51.942 43.4337 51.8373C43.4557 51.7229 43.5151 51.6189 43.6025 51.5418C43.6899 51.4647 43.8005 51.4187 43.9168 51.4111Z"
                                            fill="black" />
                                        <path
                                            d="M37.4257 47.0513C37.2886 47.0218 37.1331 46.9828 37.0536 46.8279C36.7741 46.2894 36.4918 45.7515 36.228 45.2054C36.1163 44.9725 36.2458 44.7217 36.4931 44.6168C36.6008 44.5699 36.7225 44.5667 36.8324 44.6079C36.9424 44.6491 37.032 44.7314 37.0824 44.8375C37.2462 45.165 37.3996 45.4973 37.562 45.8235C37.6607 46.018 37.7861 46.1989 37.8772 46.3963C38.0197 46.6971 37.7738 47.0561 37.4257 47.0513Z"
                                            fill="black" />
                                        <path
                                            d="M47.7418 37.8444C47.7418 37.284 47.7384 36.7228 47.7418 36.1616C47.7426 36.03 47.7634 35.8992 47.8035 35.7738C47.8658 35.5868 48.0775 35.4346 48.2481 35.4566C48.4414 35.4812 48.614 35.5641 48.6743 35.769C48.713 35.895 48.7342 36.0257 48.7374 36.1575C48.7422 37.0483 48.7374 37.9342 48.7374 38.8222C48.7374 39.1463 48.8408 39.2477 49.1711 39.2484C49.576 39.2484 49.9817 39.2484 50.3866 39.2484C50.5109 39.2493 50.6345 39.2673 50.7539 39.3018C50.8511 39.3315 50.9371 39.3899 51.0004 39.4694C51.0638 39.5489 51.1016 39.6458 51.1088 39.7472C51.1088 39.9281 50.9601 40.1323 50.76 40.1981C50.6644 40.2307 50.5643 40.2482 50.4633 40.2501C49.7782 40.2542 49.093 40.2542 48.4078 40.2501C47.9494 40.2501 47.7425 40.0377 47.739 39.5704C47.7363 39.0004 47.7418 38.4234 47.7418 37.8444Z"
                                            fill="black" />
                                    </svg>