<svg width="91" height="91" viewBox="0 0 91 91" fill="none"
                                xmlns="http://www.w3.org/2000/svg">
                                <circle cx="45.5" cy="45.5" r="44.5" fill="white" />
                                <circle cx="45.5" cy="45.5" r="45" stroke="#2E3192" stroke-opacity="0.2"
                                    stroke-linejoin="round" />
                                <g opacity="0.6">
                                    <circle cx="45.71" cy="45.71" r="39.71" fill="#C8DCFE" />
                                    <circle cx="45.71" cy="45.71" r="40.21" stroke="#2E3192" stroke-opacity="0.2"
                                        stroke-linejoin="round" />
                                </g>
                                <path
                                    d="M35.9897 32.1866C37.8559 32.3416 39.7216 32.4016 41.5227 32.9999C41.7123 33.0629 42.0326 32.8929 42.2274 32.7457C42.804 32.3086 43.3093 31.7687 43.9138 31.3801C44.7167 30.8635 45.6395 30.7601 46.5834 30.9105C47.573 31.0665 48.5624 31.2231 49.5517 31.3801C49.8849 31.4318 50.2058 31.5455 50.1505 31.9536C50.0916 32.3871 49.7619 32.4284 49.3874 32.367C48.399 32.2021 47.408 32.0523 46.4186 31.8952C45.3765 31.7304 44.4888 32.0017 43.7319 32.7622C41.3139 35.1931 38.7244 37.4194 35.8703 39.3316C34.961 39.9408 34.9564 40.4502 35.7918 41.1307C36.8603 41.9997 38.0651 42.0173 39.3093 41.6623C40.8391 41.2252 42.0755 40.2823 43.2623 39.2707C44.4491 38.259 45.1667 38.2838 46.2667 39.36C48.7002 41.7424 51.6152 42.7184 54.9885 42.2963C55.4417 42.2394 55.7765 42.3448 56.1283 42.6063C58.2725 44.2033 60.4358 45.7739 62.5711 47.3818C63.0082 47.7104 63.3322 47.7176 63.7755 47.4107C64.7122 46.7623 65.6742 46.149 66.6471 45.5554C67.1333 45.2588 67.262 44.9452 67.0413 44.3929C65.5099 40.5618 64.0059 36.7209 62.4905 32.8841C62.2022 32.1536 62.0674 32.1091 61.3456 32.352C60.2498 32.724 59.1658 33.1621 58.0389 33.4132C56.5241 33.7521 55.0418 33.22 53.5538 32.9823C53.4132 32.9601 53.1885 32.5938 53.234 32.476C53.3027 32.2967 53.5827 32.0709 53.7579 32.0833C54.4212 32.1303 55.0826 32.245 55.7377 32.3716C56.9865 32.6139 58.197 32.5333 59.3802 32.0446C59.9423 31.8126 60.5169 31.6111 61.0893 31.4029C61.482 31.2603 61.682 31.0412 61.6577 30.5715C61.621 29.9329 61.8974 29.4349 62.536 29.1833C64.0901 28.5731 65.636 27.9433 67.1969 27.3486C68.0235 27.0313 68.7205 27.3532 69.0522 28.1835C69.7807 30.0079 70.4942 31.8379 71.216 33.6648C71.3488 34.0001 71.4387 34.3411 71.0052 34.5029C70.5717 34.6646 70.4234 34.3422 70.2938 34.0094C69.6507 32.3633 69.004 30.7188 68.3537 29.0758C67.9956 28.1654 67.9026 28.12 67.0207 28.4661C65.7955 28.9483 64.5727 29.4328 63.3523 29.9195C62.6244 30.2109 62.5587 30.3644 62.8357 31.0681C64.6754 35.746 66.5185 40.4244 68.365 45.1033C68.6559 45.8396 68.8383 45.915 69.5642 45.6277C70.8419 45.1229 72.1222 44.6238 73.3979 44.1139C74.0515 43.8556 74.1145 43.6954 73.8567 43.0403C73.2587 41.5247 72.6594 40.0091 72.0587 38.4936C72.0008 38.3474 71.8825 38.1913 71.9037 38.0555C71.9373 37.8204 72.0587 37.5977 72.1403 37.3698C72.3604 37.4732 72.7087 37.5248 72.781 37.6953C73.5503 39.5445 74.285 41.4076 75.0063 43.2753C75.2078 43.7961 74.859 44.5608 74.283 44.7969C72.6296 45.4758 70.9763 46.1563 69.2868 46.7355C68.9251 46.86 68.3718 46.6419 67.9869 46.4342C67.6583 46.257 67.4443 46.2203 67.1411 46.4208C66.2229 47.0279 65.296 47.6215 64.3666 48.2111C63.9677 48.4637 63.8391 48.7401 63.9992 49.2372C64.6915 51.3834 62.9876 53.4506 60.7354 53.1855C60.1232 53.1137 59.9036 53.2863 59.777 53.8686C59.4184 55.525 58.1883 56.4178 56.4652 56.3201C56.0084 56.2943 55.7816 56.4436 55.717 56.92C55.4494 58.8957 53.8255 60.0153 51.8891 59.5405C51.3724 59.4134 51.1198 59.5974 51.0423 60.0536C50.6672 62.2582 47.9888 63.2993 46.0435 61.833C45.7609 61.6201 45.4566 61.4326 45.1946 61.197C44.7859 60.8291 44.5033 60.9428 44.1613 61.3173C43.7417 61.773 43.3062 62.2732 42.7725 62.5537C41.1155 63.4243 39.2359 62.5145 38.8458 60.6855C38.7244 60.1171 38.4878 59.9156 37.9019 59.9058C36.6102 59.8851 35.6079 59.0042 35.3516 57.6991C35.2483 57.1825 35.0338 56.983 34.4919 56.9701C33.1403 56.935 32.1694 56.1083 31.8755 54.7546C31.7608 54.2266 31.5567 54.0189 30.9806 54.0039C29.0173 53.9523 27.7706 51.9889 28.5595 50.1759C28.8178 49.5813 28.6727 49.2723 28.1911 48.9695C26.9444 48.1837 25.7111 47.373 24.452 46.6099C24.267 46.4978 23.9188 46.5107 23.7116 46.6099C23.2316 46.8341 22.7816 46.8719 22.2929 46.675C20.7987 46.0762 19.2962 45.4991 17.802 44.8966C16.9154 44.535 16.6534 43.8339 17.0032 42.9426C18.9087 38.1204 20.8109 33.2966 22.7098 28.4713C23.1934 27.2437 23.771 26.9848 24.9981 27.4638C26.389 28.0063 27.7776 28.5541 29.164 29.1073C29.9716 29.4292 30.1705 29.796 30.2443 30.6713C30.266 30.9296 30.5337 31.2587 30.7775 31.3889C31.9023 31.9913 33.0963 32.3318 34.4009 32.1959C34.9254 32.1412 35.4601 32.1866 35.9897 32.1866ZM38.5213 42.8816C36.9073 42.8661 35.9241 42.52 35.0545 41.8483C33.8729 40.9359 33.953 39.467 35.1527 38.5783C36.8577 37.3161 38.5141 35.9909 40.1762 34.6734C40.3695 34.5184 40.4671 34.2481 40.6092 34.0306C40.3715 33.886 40.1442 33.6354 39.8952 33.6126C38.0961 33.4509 36.2935 33.2484 34.4903 33.2334C33.1382 33.2226 31.8853 33.0019 30.667 32.4341C29.7954 32.027 29.6931 32.0952 29.3335 33.0076C27.8127 36.8647 26.2924 40.7209 24.7723 44.5763C24.4654 45.3549 24.483 45.4164 25.179 45.8623C26.4856 46.7003 27.8 47.527 29.0963 48.3805C29.4492 48.6125 29.7008 48.5831 29.9592 48.2694C30.2836 47.8752 30.6241 47.4944 30.9512 47.1002C31.7081 46.1899 32.667 45.7936 33.831 46.0483C35.0302 46.3108 35.7329 47.0914 35.9494 48.2979C36.0274 48.7298 36.2408 48.9179 36.7048 48.9349C38.1902 48.9902 39.1372 49.79 39.4302 51.2325C39.5206 51.6763 39.7087 51.8613 40.169 51.8758C41.6193 51.9207 42.5834 52.7092 42.8846 54.1145C42.9931 54.6198 43.1905 54.8378 43.7423 54.8378C44.9993 54.8414 45.9402 55.5968 46.307 56.8012C46.6067 57.788 46.3736 58.6756 45.7351 59.4475C45.407 59.8438 45.4157 60.1249 45.8384 60.4137C46.2109 60.672 46.5576 60.965 46.9394 61.2042C47.9097 61.8113 49.1156 61.5235 49.7873 60.5465C50.3727 59.694 50.1556 58.6002 49.2634 57.9084C48.8438 57.5834 48.4217 57.262 48.0037 56.9345C47.7289 56.7195 47.5558 56.4483 47.8064 56.129C48.057 55.8097 48.3628 55.9337 48.6372 56.1336C48.8438 56.284 49.0428 56.4436 49.2458 56.5986C49.997 57.167 50.7343 57.7596 51.5047 58.3036C52.1763 58.7779 53.174 58.7738 53.7842 58.3372C54.539 57.7968 54.9353 57.0652 54.6765 56.1465C54.5633 55.7435 54.2756 55.3359 53.9568 55.0553C53.2655 54.4457 52.506 53.913 51.7692 53.356C51.4618 53.1235 51.2949 52.8295 51.5532 52.5051C51.8033 52.1904 52.1216 52.3444 52.3913 52.5428C52.5494 52.659 52.7013 52.7825 52.8594 52.9014C53.7501 53.5813 54.6259 54.2809 55.5357 54.9344C56.5401 55.6578 57.7372 55.4273 58.4947 54.4131C59.1188 53.5782 58.8992 52.379 57.9821 51.6619C57.2546 51.0935 56.5189 50.5335 55.7873 49.9698C55.6783 49.8861 55.5135 49.8215 55.4732 49.7115C55.3828 49.466 55.3549 49.1979 55.3011 48.939C55.5486 48.9241 55.8028 48.8672 56.0405 48.9086C56.1955 48.9354 56.3288 49.1023 56.4693 49.2093C57.6117 50.0778 58.7426 50.9659 59.8984 51.8112C60.8398 52.5009 61.9093 52.3196 62.7272 51.3834C63.3802 50.6358 63.3167 49.4846 62.5675 48.7112C62.3758 48.5151 62.1684 48.3349 61.9475 48.1723C60.212 46.8806 58.4456 45.6334 56.7442 44.3004C55.8565 43.605 54.9875 43.0733 53.8147 43.3988C53.7369 43.4113 53.6578 43.4127 53.5796 43.403C50.3814 43.3373 47.6607 42.1392 45.3646 39.9413C44.7823 39.3838 44.7554 39.4179 44.0951 39.9082C43.1037 40.644 42.1173 41.4153 41.0324 41.9878C40.1101 42.4745 39.0556 42.6987 38.5193 42.8816H38.5213ZM29.2601 30.4884C29.0813 30.3334 28.8984 30.075 28.6504 29.9717C27.3639 29.4344 26.0619 28.9347 24.7646 28.4217C24.0252 28.1308 23.8785 28.1938 23.5794 28.9513C21.7235 33.6474 19.8699 38.3425 18.0185 43.0366C17.7601 43.6902 17.8289 43.854 18.4747 44.1108C19.7328 44.6109 20.9934 45.1033 22.2526 45.6009C23.0601 45.9196 23.2084 45.8592 23.5277 45.0491C25.3663 40.3922 27.2043 35.7349 29.0415 31.0774C29.0989 30.9317 29.1495 30.7834 29.2601 30.4884ZM42.0218 54.7236C41.999 53.867 41.5273 53.3571 40.8722 53.0109C40.2403 52.6766 39.4865 52.8445 38.9471 53.4335C38.1917 54.2576 37.4643 55.1091 36.7461 55.9652C36.0279 56.8213 36.1116 57.7673 36.945 58.5108C37.6482 59.1375 38.65 59.0791 39.3547 58.3041C40.1349 57.4496 40.8846 56.5645 41.6084 55.6619C41.8151 55.4062 41.8854 55.0404 42.0218 54.7236ZM32.7218 54.1605C32.8158 54.9081 33.2694 55.6273 33.9235 55.8562C34.5998 56.0933 35.2571 56.0344 35.7644 55.4687C36.5367 54.6076 37.2944 53.7325 38.0378 52.8435C38.729 52.0168 38.6324 51.0631 37.8202 50.3423C37.1046 49.7068 36.122 49.7585 35.4131 50.5319C34.6315 51.3855 33.8793 52.2653 33.1563 53.1716C32.9388 53.4433 32.8623 53.8277 32.7218 54.1605ZM41.5878 61.9921C41.9675 61.7854 42.4237 61.648 42.7115 61.3504C43.501 60.5336 44.2305 59.6568 44.9642 58.7877C45.6829 57.9363 45.6017 56.9877 44.7761 56.2401C44.0781 55.6082 43.0711 55.6635 42.3685 56.4312C41.5893 57.2868 40.8463 58.1755 40.1091 59.0662C39.6653 59.603 39.6317 60.2416 39.9313 60.8363C40.2449 61.4605 40.7565 61.8836 41.5873 61.9921H41.5878ZM35.0778 48.7763C34.9904 48.0442 34.5301 47.325 33.8682 47.0899C33.193 46.8507 32.5384 46.9091 32.031 47.4779C31.2732 48.3273 30.528 49.187 29.7954 50.0571C29.0679 50.9163 29.1439 51.8556 29.9798 52.6012C30.6897 53.2351 31.6802 53.1819 32.388 52.4085C33.1685 51.5549 33.9201 50.675 34.6427 49.7688C34.8608 49.495 34.9372 49.1101 35.0788 48.7763H35.0778Z"
                                    fill="black" />
                            </svg>