<svg width="109" height="102" viewBox="0 0 109 102" fill="none"
                                        xmlns="http://www.w3.org/2000/svg">
                                        <ellipse cx="54.96" cy="50.97" rx="49.96" ry="49.97" fill="white" />
                                        <path
                                            d="M54.96 101.44C82.8284 101.44 105.42 78.8437 105.42 50.97C105.42 23.0963 82.8284 0.5 54.96 0.5C27.0916 0.5 4.5 23.0963 4.5 50.97C4.5 78.8437 27.0916 101.44 54.96 101.44Z"
                                            stroke="#2E3192" stroke-opacity="0.2" stroke-linejoin="round" />
                                        <circle opacity="0.6" cx="54.57" cy="50.57" r="44.57" fill="#C8DCFE" />
                                        <path
                                            d="M52.2898 64.5426H51.2699C51.2664 64.4691 51.2599 64.4015 51.2593 64.334C51.2593 63.9571 51.2628 63.5802 51.2593 63.2033C51.2577 63.0992 51.2407 62.996 51.2089 62.8969C50.9778 62.1941 50.7408 61.4943 50.5085 60.792C50.4771 60.6848 50.4166 60.5884 50.3336 60.5135C50.2809 60.4679 50.2335 60.4163 50.1813 60.3707C49.037 59.3692 48.3775 58.0981 48.1138 56.6154C48.0557 56.2505 48.0259 55.8816 48.0249 55.512C48.0113 54.8359 48.0077 54.158 48.0249 53.4818C48.0539 52.2694 47.6196 51.2626 46.7283 50.4471C46.5434 50.2771 46.3568 50.1088 46.1742 49.9363C46.1182 49.8847 46.0448 49.8559 45.9686 49.8557C45.7451 49.8339 45.5203 49.8817 45.325 49.9926C44.4237 50.5212 43.7606 51.2335 43.6065 52.3085C43.5283 52.8566 43.5781 53.406 43.6806 53.9529C43.9627 55.454 44.2311 56.9574 44.5055 58.4566C44.6116 59.0403 44.7206 59.6229 44.8219 60.2066C44.8515 60.3713 44.867 60.5382 44.8682 60.7055C44.8705 63.8265 44.8705 66.9459 44.8682 70.0637C44.8634 70.9872 45.05 71.9016 45.4163 72.7494C46.1114 74.3636 46.7982 75.9814 47.4963 77.5944C47.6054 77.8363 47.6589 78.0995 47.6528 78.3648C47.6439 78.6919 47.6528 79.0166 47.6528 79.3757C47.475 79.3757 47.309 79.3793 47.1449 79.3799H46.6424C46.6376 79.3005 46.6305 79.2341 46.6305 79.1677C46.6305 78.8122 46.6353 78.4566 46.627 78.1011C46.6252 77.9904 46.6027 77.8811 46.5606 77.7787C45.8941 76.2131 45.2243 74.6488 44.5511 73.086C44.0795 72.0016 43.8374 70.8314 43.84 69.6489C43.84 66.5923 43.8412 63.5355 43.8436 60.4786C43.8436 60.104 43.7582 59.7455 43.6936 59.3829C43.3523 57.4812 43.0133 55.5796 42.6566 53.6809C42.387 52.2463 42.8516 51.0409 43.7825 49.9831C43.9852 49.7556 44.2685 49.5908 44.5185 49.4C44.5624 49.3657 44.6145 49.3408 44.6613 49.3117C44.9025 49.1517 44.9879 48.9485 44.9197 48.6694C44.8985 48.6112 44.8656 48.5579 44.8231 48.5129C43.3046 46.6257 42.3526 44.3465 42.0776 41.9399C41.811 39.5743 42.2768 37.3372 43.3268 35.2246C45.075 31.7088 47.9271 29.5689 51.7114 28.6409C52.946 28.3302 54.2242 28.2301 55.4922 28.3446C57.0511 28.4851 58.5726 28.9023 59.9852 29.5766C61.2189 30.1577 62.3502 30.935 63.3351 31.8783C64.4637 32.9763 65.3693 34.2822 66.0018 35.7242C66.7265 37.3443 67.1277 39.0427 67.1076 40.8205C67.0785 43.0949 66.4439 45.2086 65.2676 47.1559C64.5766 48.3154 63.6928 49.3486 62.6542 50.2107C62.1096 50.6581 61.6575 51.1861 61.3843 51.8486C61.191 52.314 61.0903 52.8126 61.088 53.3165C61.0845 53.9683 61.088 54.6143 61.088 55.2631C61.088 55.5049 61.2326 55.6394 61.4702 55.6548C61.6583 55.6622 61.8451 55.6214 62.013 55.5363C62.3313 55.3911 62.6536 55.2637 63.0045 55.2146C63.2057 55.1932 63.4092 55.209 63.6048 55.2614C63.7137 55.2858 63.821 55.3171 63.9259 55.355C64.8889 55.6981 65.3796 56.414 65.5206 57.3971C65.5408 57.5381 65.5088 57.6874 65.4963 57.8326C65.4839 57.9778 65.472 58.11 65.4495 58.2474C65.4133 58.4744 65.5579 58.5911 65.7138 58.7031C65.7439 58.7208 65.7754 58.7358 65.808 58.7482C66.6459 59.1286 67.037 59.8297 67.1556 60.7008C67.2048 61.0563 67.0922 61.3929 66.9505 61.7147C66.8726 61.8859 66.7809 62.0504 66.6762 62.2066C66.4984 62.4809 66.544 62.7991 66.8065 62.9906C66.8238 63.0023 66.8418 63.013 66.8605 63.0226C67.5194 63.3781 67.8394 63.9707 67.9911 64.6765C68.1096 65.214 67.9236 65.6951 67.6788 66.158C67.5163 66.4777 67.2665 66.7449 66.9582 66.9283C66.9108 66.9568 66.8717 66.9983 66.8249 67.0285C66.6068 67.1713 66.6548 67.39 66.6685 67.5944C66.6714 67.6418 66.7242 67.688 66.7585 67.7307C67.0519 68.0884 67.2519 68.5134 67.3405 68.9674C67.3854 69.2011 67.3785 69.4419 67.3203 69.6726C67.2309 70.0542 67.0634 70.4132 66.8285 70.7269C66.6935 70.9059 66.5233 71.0553 66.3283 71.166C66.2159 71.2279 66.1188 71.3141 66.0441 71.4184C65.9693 71.5227 65.9188 71.6423 65.8963 71.7686C65.7476 72.4353 65.5728 73.0966 65.4027 73.7586C65.232 74.4236 64.9115 75.0408 64.4658 75.563C64.2032 75.8628 63.8929 76.1171 63.5473 76.3156C62.6453 76.8608 61.7424 77.403 60.8385 77.9423C60.7965 77.9677 60.752 77.9891 60.7129 78.0181C60.5381 78.1461 60.4166 78.2895 60.4373 78.5372C60.4628 78.8063 60.4433 79.0788 60.4433 79.3669H59.4282C59.4234 79.3076 59.4163 79.2519 59.4157 79.198C59.4157 78.8631 59.4157 78.5283 59.4157 78.1906C59.4172 78.1 59.4279 78.0099 59.4477 77.9215C59.4651 77.8327 59.5018 77.7488 59.5551 77.6757C59.6084 77.6026 59.6772 77.5421 59.7565 77.4984C60.8231 76.8655 61.8927 76.232 62.9511 75.582C63.5698 75.2015 64.0664 74.6931 64.3354 74.0057C64.4385 73.7165 64.5211 73.4205 64.5825 73.1197C64.6206 72.9434 64.6418 72.7638 64.6459 72.5834C64.6542 72.3701 64.4984 72.2279 64.2868 72.216C64.106 72.2077 63.9258 72.2427 63.7612 72.318C62.813 72.7292 61.8649 73.1328 60.9167 73.5393C60.8782 73.5559 60.8385 73.5701 60.7982 73.5885C59.6255 74.1698 58.163 73.4261 57.7606 72.344C57.6202 71.9677 57.5046 71.592 57.5704 71.1826C57.5795 71.0922 57.5815 71.0012 57.5763 70.9106C57.5763 70.6883 57.4791 70.5509 57.2646 70.4791C56.2335 70.1325 55.7547 69.294 55.6646 68.3334C55.6433 68.1135 55.7085 67.8729 55.7831 67.6596C55.8765 67.405 55.9956 67.1605 56.1387 66.9301C56.3165 66.6338 56.2696 66.3073 55.9858 66.1159C55.9686 66.104 55.949 66.0951 55.9313 66.0851C55.1994 65.6531 54.8747 64.9716 54.7959 64.1639C54.7585 63.7757 54.9037 63.4071 55.0803 63.0623C55.2237 62.7808 55.3997 62.523 55.6563 62.3274C55.8098 62.2089 55.9153 62.0744 55.8933 61.8534C55.8661 61.6015 55.7458 61.4575 55.4916 61.4569C54.787 61.4569 54.0824 61.4569 53.3772 61.4504C53.1621 61.4504 52.9464 61.416 52.7313 61.3994C52.5855 61.3882 52.4397 61.3734 52.2939 61.3716C52.0391 61.3686 51.9058 61.5109 51.8981 61.768C51.8888 61.9356 51.9165 62.1031 51.9793 62.2587C52.2335 62.8358 52.3398 63.4672 52.2886 64.0957C52.2815 64.2374 52.2898 64.3772 52.2898 64.5426ZM54.56 52.4045C56.3259 52.4045 58.0913 52.4015 59.8572 52.4086C60.0225 52.4086 60.1416 52.3594 60.2317 52.235C60.2792 52.1676 60.316 52.0932 60.3408 52.0146C60.6696 51.0267 61.1988 50.1775 62.0053 49.5026C63.1905 48.5052 64.173 47.3343 64.8836 45.947C65.6783 44.3939 66.0959 42.6753 66.1025 40.9307C66.1179 39.5002 65.9105 38.1088 65.4128 36.7636C64.8107 35.1381 63.8649 33.7414 62.6276 32.536C61.2125 31.1583 59.5603 30.2012 57.6498 29.6916C56.1393 29.2886 54.6039 29.2418 53.0602 29.4149C51.677 29.576 50.3386 30.0056 49.12 30.6794C48.0368 31.2667 47.0928 32.0335 46.2448 32.926C45.0358 34.1844 44.1408 35.7104 43.6326 37.3799C43.1325 39.0077 43.056 40.6711 43.2427 42.3517C43.3979 43.6929 43.805 44.9928 44.4427 46.1828C45.1443 47.5168 46.1073 48.6374 47.2379 49.6234C47.4438 49.8009 47.6354 49.9943 47.811 50.2018C48.2528 50.7357 48.5814 51.3539 48.7769 52.0187C48.867 52.315 48.9938 52.4063 49.3055 52.4063L54.56 52.4045ZM54.5529 56.1064H59.6818C59.9336 56.1064 60.0759 55.9624 60.0759 55.7088C60.0759 55.0735 60.0759 54.4383 60.0759 53.8036C60.0777 53.7556 60.0698 53.7078 60.0528 53.6629C60.0358 53.618 60.01 53.577 59.9769 53.5423C59.8827 53.435 59.7742 53.4178 59.6433 53.4178C56.4038 53.4202 53.1658 53.4202 49.9295 53.4178C49.7482 53.4178 49.5662 53.4178 49.3849 53.4178C49.2919 53.4208 49.2037 53.4594 49.1383 53.5255C49.0729 53.5917 49.0354 53.6804 49.0335 53.7734C49.0335 54.4288 49.0335 55.0848 49.0335 55.7408C49.0313 55.782 49.0375 55.8232 49.0518 55.8619C49.066 55.9006 49.088 55.936 49.1165 55.966C49.157 56.0126 49.2077 56.0493 49.2645 56.0735C49.3214 56.0976 49.3831 56.1084 49.4448 56.1052C51.1479 56.1032 52.8506 56.1036 54.5529 56.1064ZM66.1606 60.8371C66.1606 60.7814 66.1606 60.7257 66.1606 60.67C66.1659 60.5373 66.1425 60.4051 66.092 60.2824C66.0415 60.1596 65.965 60.0493 65.8679 59.9589C65.8033 59.8954 65.7405 59.8303 65.6753 59.7674C65.5027 59.6008 65.2728 59.5064 65.0329 59.5037C64.6892 59.4919 64.3479 59.486 64.0492 59.7011C64.0253 59.7152 63.9998 59.7265 63.9733 59.7349C62.1067 60.5052 60.2768 61.3674 58.3864 62.0851C57.7938 62.3097 57.2196 62.5817 56.6359 62.8288C56.3475 62.9583 56.1051 63.1721 55.9408 63.4421C55.7363 63.755 55.7304 64.5088 55.9473 64.8086C56.0865 65.003 56.2791 65.1642 56.4587 65.3242C56.5235 65.3778 56.6014 65.4132 56.6845 65.4267C57.0584 65.4931 57.4293 65.5162 57.7932 65.3597C60.2785 64.2931 62.7649 63.23 65.2522 62.1704C65.5485 62.0454 65.7683 61.8451 65.9674 61.6098C66.0899 61.4642 66.1578 61.2804 66.1594 61.0901C66.1624 61.0048 66.1606 60.9206 66.1606 60.8371ZM65.6741 63.6572C65.3997 63.6317 65.1538 63.7165 64.9037 63.8226C62.4828 64.8639 60.0603 65.9008 57.6362 66.9331C57.3657 67.0456 57.1239 67.2173 56.9286 67.4356C56.7849 67.581 56.6963 67.7718 56.6779 67.9754C56.6652 68.184 56.6652 68.3932 56.6779 68.6018C56.6975 68.9017 56.8871 69.1079 57.0928 69.3052C57.4187 69.6193 58.1529 69.752 58.5588 69.5612C58.5968 69.544 58.6299 69.5174 58.6673 69.4978C58.7965 69.4303 58.9233 69.3556 59.0572 69.2975C60.0433 68.8726 61.0264 68.4418 62.0202 68.0312C62.9209 67.6578 63.7979 67.2246 64.7271 66.9212C65.1757 66.7754 65.5965 66.5443 66.0373 66.3701C66.3096 66.2624 66.5531 66.0928 66.7485 65.8747C66.9263 65.6936 67.0254 65.4495 67.024 65.1956C67.024 65.0771 67.024 64.9586 67.024 64.84C67.0193 64.3488 66.5683 63.7846 66.0901 63.6863C65.9522 63.6673 65.8132 63.6576 65.6741 63.6572ZM64.5482 57.5446L64.5274 57.5411C64.5274 57.4854 64.5274 57.4297 64.5274 57.374C64.5221 56.9088 64.1055 56.3452 63.6516 56.2421C63.2818 56.158 62.9049 56.1556 62.5422 56.3114C60.9019 57.0149 59.2616 57.7206 57.6178 58.4169C57.3215 58.542 57.1082 58.7529 56.9126 58.9906C56.8026 59.1285 56.7402 59.2983 56.7348 59.4747C56.7295 59.5719 56.7348 59.6703 56.7289 59.7674C56.6993 60.1503 56.8385 60.4537 57.1188 60.7156C57.4951 61.0676 58.0794 61.1986 58.5529 60.9965C60.3101 60.2459 62.0662 59.4929 63.821 58.7375C63.969 58.6734 64.1024 58.5799 64.2132 58.4626C64.3239 58.3454 64.4097 58.2069 64.4652 58.0554C64.5256 57.8984 64.5215 57.7159 64.5482 57.5446ZM66.3793 69.2673C66.3597 69.1091 66.352 68.9479 66.32 68.7932C66.2708 68.5722 66.0901 68.4377 65.9579 68.2664C65.6563 67.88 64.9381 67.8516 64.5796 68.0045C62.7941 68.7583 61.0139 69.5263 59.2326 70.2913C59.1628 70.3219 59.0974 70.3618 59.0382 70.4098C58.7022 70.6818 58.5185 71.0231 58.5642 71.4682C58.573 71.5511 58.5642 71.6353 58.5695 71.7189C58.5782 71.9228 58.6559 72.1177 58.7899 72.2717C59.0862 72.6326 59.4418 72.8596 59.9301 72.7986C59.9781 72.7926 60.029 72.8051 60.0765 72.7986C60.2193 72.7737 60.3727 72.766 60.5019 72.7108C62.1772 71.9997 63.853 71.2886 65.5194 70.5586C66.0569 70.3186 66.4101 69.915 66.3775 69.2673H66.3793ZM53.088 57.1346H49.9111C49.8554 57.1346 49.7991 57.1346 49.744 57.1346C49.6089 57.1434 49.4442 57.2951 49.4382 57.4273C49.4204 57.6279 49.4458 57.83 49.5129 58.0199C49.7547 58.6415 50.1648 59.1369 50.6548 59.5707C51.2927 60.1488 52.1253 60.4646 52.9861 60.4548C53.5022 60.4548 54.0178 60.4406 54.5333 60.4353C54.8125 60.4353 55.0916 60.4353 55.3701 60.4353C55.4183 60.4358 55.466 60.4268 55.5107 60.4086C55.5553 60.3904 55.5958 60.3635 55.6299 60.3294C55.6639 60.2954 55.6908 60.2549 55.709 60.2102C55.7272 60.1656 55.7363 60.1178 55.7357 60.0697C55.7357 60.014 55.7357 59.9583 55.7357 59.9026C55.7274 59.246 55.9568 58.6747 56.365 58.171C56.461 58.0525 56.5831 57.9559 56.688 57.8445C56.7929 57.7331 56.7953 57.4042 56.6951 57.2839C56.6551 57.232 56.6031 57.1908 56.5435 57.1636C56.4839 57.1364 56.4186 57.1242 56.3532 57.128C55.2634 57.1375 54.1778 57.1346 53.088 57.1346Z"
                                            fill="black" />
                                        <path
                                            d="M55.0477 25.5979H54.0871C54.0403 25.4569 54.022 23.1244 54.0664 22.7386H55.0477V25.5979Z"
                                            fill="black" />
                                        <path d="M36.4336 41.3514V40.3647H39.2923V41.3514H36.4336Z" fill="black" />
                                        <path d="M69.8184 40.3629H72.6758V41.3531H69.8184V40.3629Z" fill="black" />
                                        <path
                                            d="M41.4648 28.3772L42.0883 27.7567L44.0438 29.7123L43.4151 30.3298L41.4648 28.3772Z"
                                            fill="black" />
                                        <path
                                            d="M67.0413 27.7704L67.654 28.3908L65.705 30.3393L65.0898 29.7259L67.0413 27.7704Z"
                                            fill="black" />
                                        <path
                                            d="M54.4263 48.7795C53.784 48.7588 53.1464 48.6629 52.5264 48.4939C52.1519 48.3931 52.0126 48.2118 52.0014 47.8195C51.9886 47.5964 51.9898 47.3728 52.0049 47.1499C52.0292 46.9093 51.906 46.7694 51.7264 46.6598C51.423 46.4755 51.1225 46.2811 50.8031 46.1265C50.6985 46.0781 50.5842 46.0543 50.4689 46.057C50.3536 46.0596 50.2405 46.0887 50.1383 46.1419C49.9006 46.2594 49.669 46.3888 49.4443 46.5294C49.2351 46.6616 49.0479 46.629 48.8665 46.4927C48.7727 46.4212 48.6851 46.3419 48.6046 46.2557C47.709 45.2988 47.0546 44.142 46.6959 42.8814C46.6564 42.7726 46.6589 42.6531 46.7027 42.546C46.7465 42.4389 46.8285 42.3519 46.9329 42.3019C47.1451 42.1834 47.359 42.0648 47.5717 41.9463C47.6153 41.9243 47.6575 41.8996 47.698 41.8723C47.8538 41.7537 47.9557 41.624 47.9427 41.4029C47.9199 41.0552 47.9199 40.7064 47.9427 40.3588C47.9623 40.0761 47.8242 39.9185 47.6055 39.7952L46.9667 39.4397C46.6941 39.2862 46.6194 39.1001 46.7089 38.7973C47.0766 37.5323 47.7439 36.3746 48.6544 35.4225C48.7426 35.334 48.8395 35.2546 48.9436 35.1854C49.0111 35.1352 49.0925 35.1072 49.1766 35.1054C49.2608 35.1036 49.3433 35.1281 49.4129 35.1754C49.6411 35.3093 49.8704 35.4438 50.1086 35.56C50.3705 35.688 50.6372 35.6986 50.9009 35.5416C51.138 35.3988 51.3874 35.269 51.631 35.1339C51.6815 35.1105 51.7304 35.0838 51.7774 35.0539C51.9273 34.9389 52.0221 34.805 52.0014 34.594C51.9874 34.3784 51.9874 34.162 52.0014 33.9463C52.0055 33.8562 52.0174 33.7666 52.0369 33.6785C52.0542 33.5744 52.1024 33.4779 52.1754 33.4017C52.2483 33.3255 52.3426 33.273 52.4458 33.2512C53.439 32.9863 54.4428 32.8524 55.468 33.0142C55.8396 33.0734 56.21 33.1428 56.5762 33.2293C56.9643 33.3211 57.103 33.5125 57.1095 33.9155C57.1209 34.1315 57.1195 34.348 57.1054 34.5638C57.0787 34.8234 57.2185 34.9644 57.4123 35.08C57.6879 35.2435 57.9652 35.4053 58.242 35.5629C58.3511 35.6249 58.4738 35.659 58.5993 35.6624C58.7248 35.6657 58.8491 35.638 58.9614 35.5819C59.2015 35.4699 59.4334 35.341 59.6553 35.1961C59.8728 35.0563 60.063 35.0942 60.252 35.2352C60.3245 35.2898 60.3921 35.3504 60.4541 35.4165C61.3675 36.3753 62.0365 37.54 62.4043 38.8121C62.4885 39.1007 62.4108 39.2909 62.1489 39.4379C61.9362 39.5564 61.7222 39.6749 61.5101 39.7934C61.4611 39.8199 61.4144 39.8502 61.3702 39.8841C61.3017 39.931 61.2468 39.9953 61.2113 40.0704C61.1758 40.1454 61.1609 40.2286 61.1682 40.3114C61.1902 40.6666 61.1902 41.0228 61.1682 41.378C61.1486 41.6548 61.2825 41.8059 61.4959 41.9256C61.7092 42.0453 61.9344 42.1703 62.1525 42.2936C62.415 42.4423 62.4897 42.6296 62.4037 42.9206C62.0405 44.169 61.3859 45.3133 60.4938 46.2592C60.3853 46.3675 60.2662 46.4646 60.1383 46.549C60.0783 46.593 60.0063 46.6172 59.932 46.6185C59.8577 46.6198 59.7848 46.598 59.7234 46.5561C59.4935 46.4251 59.263 46.293 59.0271 46.1727C58.7439 46.0287 58.4624 46.0204 58.1791 46.1946C57.9474 46.3368 57.7051 46.4577 57.468 46.5905C57.4016 46.6276 57.3377 46.6689 57.2766 46.7143C57.2171 46.7564 57.1701 46.8139 57.1406 46.8805C57.1111 46.9472 57.1001 47.0206 57.1089 47.093C57.1231 47.3223 57.1089 47.5528 57.1089 47.7834C57.1068 47.8596 57.0981 47.9356 57.0828 48.0103C57.0331 48.2604 56.8849 48.4086 56.6354 48.4785C55.9141 48.6686 55.1722 48.7697 54.4263 48.7795ZM61.2547 38.5448C61.2885 38.3914 61.2405 38.2456 61.1676 38.1087C61.0046 37.8005 60.8553 37.4835 60.6657 37.1925C60.4879 36.92 60.2668 36.674 60.0606 36.4222C60.0278 36.3781 59.9795 36.3481 59.9255 36.338C59.7264 36.3291 59.5308 36.3143 59.3406 36.4305C58.8393 36.7363 58.3332 36.7019 57.839 36.4026C57.8034 36.3807 57.7685 36.3576 57.7317 36.3368C57.4763 36.1952 57.2263 36.0406 56.9614 35.9155C56.6338 35.767 56.3765 35.4972 56.2437 35.1629C56.1475 34.9381 56.0965 34.6964 56.0938 34.4518C56.0938 34.2059 55.9628 34.056 55.7128 34.0216C54.9513 33.92 54.1797 33.92 53.4183 34.0216C53.1522 34.056 53.0366 34.1869 53.0206 34.4601C53.0188 34.5229 53.0136 34.5857 53.0052 34.648C52.9145 35.224 52.674 35.6886 52.1027 35.9357C51.8571 36.0515 51.6195 36.1838 51.3916 36.3315C51.1794 36.4669 50.9466 36.567 50.7024 36.6278C50.5669 36.6671 50.4231 36.6671 50.2876 36.6278C50.0942 36.5712 49.9061 36.4974 49.7258 36.4074C49.548 36.309 49.3703 36.3214 49.1984 36.3446C49.1054 36.357 49.0129 36.4583 48.9424 36.5383C48.494 37.0465 48.1361 37.6278 47.884 38.2568C47.7454 38.6011 47.8467 38.8643 48.1691 39.0491C48.3504 39.1528 48.5347 39.2518 48.7166 39.3549C48.9388 39.4805 49.0224 39.6554 48.9892 39.9096C48.907 40.5326 48.9061 41.1636 48.9863 41.7869C49.0242 42.0791 48.946 42.2385 48.6846 42.3854C48.5068 42.4844 48.3225 42.5697 48.1578 42.6847C48.0393 42.7653 47.8994 42.8696 47.8651 42.9905C47.8156 43.1738 47.8313 43.3686 47.9095 43.5416C48.1513 44.0991 48.4685 44.6207 48.8523 45.0918C48.9145 45.1671 48.9886 45.2323 49.052 45.3057C49.0767 45.3348 49.1077 45.3577 49.1426 45.3728C49.1775 45.3879 49.2155 45.3948 49.2535 45.3928C49.4431 45.3928 49.6191 45.3816 49.7934 45.2779C50.2585 45.0011 50.7344 45.0148 51.2037 45.2779L51.2766 45.3188C51.5871 45.4918 51.8941 45.6714 52.2088 45.8355C52.4667 45.9631 52.6761 46.1711 52.8055 46.4281C52.9379 46.6903 53.0109 46.9784 53.0194 47.272C53.0283 47.509 53.1575 47.6613 53.391 47.6933C54.1729 47.7998 54.9659 47.7972 55.7471 47.6856C55.8434 47.6725 55.9316 47.6248 55.9953 47.5514C56.059 47.478 56.0938 47.3839 56.0932 47.2868C56.0887 47.0488 56.1346 46.8125 56.2277 46.5934C56.3267 46.3611 56.4322 46.1194 56.658 45.9896C57.132 45.7117 57.6126 45.4414 58.1015 45.1902C58.4357 45.0177 58.7883 45.032 59.132 45.1872C59.2286 45.2274 59.3225 45.2739 59.4129 45.3265C59.5688 45.4243 59.7406 45.3946 59.9018 45.3774C59.9836 45.3691 60.0683 45.2856 60.1305 45.2168C60.6009 44.6988 60.9735 44.0999 61.2304 43.4491C61.3625 43.1179 61.2541 42.8524 60.946 42.6728C60.9098 42.6515 60.8725 42.6326 60.8357 42.6136C60.6775 42.5247 60.5181 42.4388 60.3617 42.3469C60.2715 42.2995 60.1991 42.2244 60.155 42.1326C60.1109 42.0408 60.0976 41.9373 60.1169 41.8373C60.2023 41.1936 60.2023 40.5414 60.1169 39.8977C60.0961 39.7914 60.1106 39.6812 60.1582 39.5838C60.2058 39.4865 60.2839 39.4073 60.3806 39.3585C60.5809 39.2447 60.7865 39.1404 60.9815 39.0189C61.1528 38.9111 61.311 38.7926 61.2547 38.5448Z"
                                            fill="black" />
                                        <path
                                            d="M54.5223 37.5707C55.8562 37.6732 57.1214 38.3381 57.6482 39.8551C58.0091 40.8945 57.7916 41.8344 57.2144 42.7203C56.7125 43.4907 55.9546 43.8812 55.0811 44.0768C54.3107 44.2504 53.6026 44.0323 52.9324 43.6679C52.0198 43.1725 51.5499 42.3594 51.3324 41.3775C51.1599 40.5953 51.3851 39.8842 51.7584 39.2104C52.2574 38.3102 53.0699 37.8504 54.0441 37.637C54.2224 37.5985 54.4044 37.5867 54.5223 37.5707ZM54.5555 43.1262H54.6811C55.1444 43.1188 55.5936 42.9656 55.9648 42.6882C56.336 42.4109 56.6103 42.0236 56.7487 41.5813C56.7598 41.5484 56.7689 41.5147 56.7759 41.4806C56.8483 41.0958 56.8523 40.7012 56.7878 40.315C56.6693 39.6228 56.2088 39.1713 55.6429 38.8169C55.3838 38.6604 55.0849 38.5824 54.7824 38.5923C54.6219 38.5923 54.4607 38.5816 54.3013 38.5953C54.1281 38.6084 53.9564 38.6365 53.7881 38.6794C53.343 38.7979 53.0301 39.1114 52.7356 39.4421C52.5229 39.6761 52.3809 39.9656 52.3261 40.277C52.2592 40.6492 52.2572 41.0301 52.3202 41.403C52.4387 42.0945 52.898 42.5485 53.4651 42.901C53.7952 43.1049 54.1715 43.1488 54.5555 43.1262Z"
                                            fill="black" />
                                    </svg>