<svg width="109" height="102" viewBox="0 0 109 102" fill="none"
                                        xmlns="http://www.w3.org/2000/svg">
                                        <ellipse cx="54.96" cy="50.97" rx="49.96" ry="49.97" fill="white" />
                                        <path
                                            d="M54.96 101.44C82.8284 101.44 105.42 78.8437 105.42 50.97C105.42 23.0963 82.8284 0.5 54.96 0.5C27.0916 0.5 4.5 23.0963 4.5 50.97C4.5 78.8437 27.0916 101.44 54.96 101.44Z"
                                            stroke="#2E3192" stroke-opacity="0.2" stroke-linejoin="round" />
                                        <circle opacity="0.6" cx="54.57" cy="50.57" r="44.57" fill="#C8DCFE" />
                                        <path
                                            d="M53.2791 72.0413H37.368C36.5236 72.0413 36.4018 71.9182 36.4018 71.0747C36.4018 68.9742 36.3942 66.8733 36.4018 64.7724C36.4338 57.232 41.0538 50.8969 48.212 48.5404C48.4342 48.468 48.6814 48.2293 48.7529 48.0147C48.8654 47.6756 48.5351 47.5169 48.2809 47.368C44.6556 45.2431 42.896 42.04 43.0258 37.8769C43.1734 33.1529 46.8645 29.0769 51.5258 28.3142C57.4814 27.3364 62.9694 31.4987 63.4605 37.5142C63.8045 41.732 62.0525 45.0031 58.4507 47.2596C58.1547 47.4453 57.716 47.5293 57.7702 48.0151C57.8227 48.4836 58.256 48.4898 58.5822 48.6307C59.5236 49.0373 60.4725 49.4307 61.3902 49.8849C61.8218 50.0987 62.1351 50.1209 62.5458 49.8253C66.8294 46.7507 72.5356 47.1018 76.2876 50.7587C79.9667 54.3444 80.8987 60.1364 77.4431 64.892C75.7836 67.1747 73.4827 68.4649 70.7511 69.0307C70.34 69.116 70.1338 69.3098 70.148 69.7418C70.1622 70.1738 70.1511 70.5938 70.1507 71.02C70.1507 71.9222 70.0302 72.0422 69.1458 72.0449H53.2791V72.0413ZM53.2871 71.0604C58.176 71.0604 63.068 71.0493 67.9587 71.068C69.2654 71.0729 69.188 70.948 69.1778 69.8173C69.1742 69.42 68.9751 69.2662 68.5894 69.2138C67.6765 69.0898 66.7431 69.0138 65.8631 68.7609C60.4209 67.1978 57.172 61.7436 58.364 56.2147C58.7516 54.4173 59.5747 52.8249 60.764 51.4231C61.0649 51.0676 61.0574 50.8698 60.7102 50.5729C60.5849 50.4725 60.4477 50.3879 60.3018 50.3209C57.0658 48.7267 53.6671 48.344 50.1414 48.9951C43.484 50.2249 37.352 56.4533 37.3831 64.5049C37.3907 66.4436 37.3831 68.3822 37.3831 70.3209C37.3831 70.9404 37.5045 71.0604 38.1289 71.0604H53.2871ZM53.2565 47.7173C58.1187 47.8951 62.5756 43.5947 62.5898 38.4538C62.6036 33.3947 58.3009 29.1004 53.2698 29.0969C48.12 29.0929 43.9258 33.5556 43.9334 38.4396C43.9409 43.4124 48.28 47.88 53.2565 47.7173ZM68.8671 48.7187C63.4449 48.7107 59.1374 53.0236 59.0502 58.4076C58.9614 63.8431 63.6605 68.2796 68.7889 68.2898C74.0511 68.3 78.6111 63.8453 78.6414 58.5498C78.6707 53.1711 74.0951 48.6 68.8671 48.7187Z"
                                            fill="black" />
                                        <path
                                            d="M64.8137 55.3831C65.1808 55.3831 65.5502 55.3582 65.9146 55.3893C66.3866 55.4289 66.6039 55.1911 66.7324 54.7786C66.9719 54.0089 67.2115 53.2382 67.4848 52.48C67.8288 51.5253 68.8239 51.1778 69.6559 51.7542C69.9195 51.9369 70.1146 52.2826 70.2337 52.5951C70.5124 53.3191 70.7302 54.0671 70.9635 54.808C71.0875 55.2035 71.3075 55.4084 71.7577 55.3911C72.5351 55.3618 73.3133 55.3733 74.0928 55.3871C74.8826 55.4018 75.3928 55.7604 75.6133 56.4218C75.7079 56.7163 75.707 57.0332 75.6107 57.3272C75.5143 57.6212 75.3275 57.8773 75.0768 58.0586C74.4395 58.5302 73.8035 59.004 73.1484 59.4502C72.743 59.7262 72.6528 60.0506 72.811 60.5031C73.0675 61.2364 73.2999 61.9786 73.5324 62.7195C73.7297 63.3453 73.5622 63.9871 73.1293 64.3195C72.5737 64.7435 71.9737 64.7906 71.3697 64.3884C70.6862 63.9333 70.0235 63.4444 69.367 62.9511C69.0084 62.6809 68.7004 62.6746 68.3382 62.9511C67.6839 63.448 67.0244 63.9426 66.3324 64.3831C65.4391 64.952 64.4213 64.596 64.1395 63.6275C64.0622 63.3635 64.0782 63.0395 64.1515 62.7702C64.3484 62.0498 64.5986 61.344 64.8297 60.6329C65.0693 59.8946 65.0475 59.824 64.4071 59.3546C63.8382 58.9398 63.2685 58.525 62.6982 58.1102C62.1111 57.6831 61.8791 57.116 62.0479 56.5204C62.2502 55.8093 62.7146 55.4355 63.4924 55.3946C63.9315 55.3715 64.3733 55.3902 64.8137 55.3902V55.3831ZM65.1004 56.3715C64.6159 56.3715 64.131 56.3631 63.647 56.3773C63.5137 56.3813 63.3515 56.4182 63.247 56.4986C62.9422 56.7378 62.9871 57.0298 63.4035 57.36C64.1739 57.9706 64.9536 58.5693 65.7426 59.156C66.0462 59.3818 66.1306 59.6275 66.0093 59.9884C65.6982 60.9035 65.4088 61.8266 65.1084 62.744C65.0159 63.0271 64.9942 63.2884 65.2728 63.4902C65.5422 63.6853 65.7617 63.5564 65.9866 63.3991C66.7697 62.8551 67.5657 62.3289 68.3386 61.7711C68.7062 61.5066 69.0102 61.5142 69.3688 61.7871C70.1044 62.3466 70.8639 62.8742 71.6079 63.4226C71.8302 63.5858 72.0444 63.7418 72.319 63.556C72.6155 63.3551 72.5946 63.0738 72.503 62.7711C72.2226 61.8453 71.9626 60.9133 71.6675 59.9929C71.5439 59.6071 71.6413 59.364 71.967 59.1369C72.7613 58.5835 73.5408 58.0089 74.3173 57.4302C74.5279 57.2729 74.7515 57.0746 74.6235 56.7689C74.5088 56.4951 74.2613 56.4404 73.9706 56.4378C72.9875 56.4289 72.0048 56.3889 71.0213 56.3706C70.6497 56.364 70.4382 56.2133 70.3271 55.8373C70.0555 54.9249 69.7493 54.0231 69.4528 53.1173C69.3573 52.8244 69.2564 52.4386 68.8848 52.5249C68.6488 52.58 68.3839 52.8671 68.2893 53.1111C67.9439 53.9978 67.6466 54.9049 67.3697 55.8155C67.2435 56.2302 66.9995 56.3769 66.5977 56.3693C66.0986 56.3635 65.6008 56.3706 65.1004 56.3715Z"
                                            fill="black" />
                                    </svg>