 <svg width="92" height="92" viewBox="0 0 92 92" fill="none"
                                xmlns="http://www.w3.org/2000/svg">
                                <path
                                    d="M89.2541 37.3528C93.7584 61.513 77.8238 84.751 53.6634 89.2547C29.503 93.7593 6.26572 77.8247 1.76169 53.6643C-2.74258 29.5042 13.1919 6.26614 37.3523 1.7615C61.5127 -2.74216 84.7498 13.1924 89.2541 37.3528Z"
                                    fill="white" />
                                <path
                                    d="M37.2606 1.26997L37.3522 1.76136L37.2606 1.26997C12.8288 5.82522 -3.28472 29.3244 1.27016 53.756C5.82479 78.1878 29.3232 94.3014 53.7551 89.7462C78.1869 85.1919 94.3005 61.6928 89.7457 37.2612C85.1908 12.8293 61.6925 -3.2843 37.2606 1.26997Z"
                                    stroke="#2E3192" stroke-opacity="0.2" stroke-linejoin="round" />
                                <g opacity="0.6">
                                    <circle cx="45.71" cy="45.71" r="39.71" fill="#C8DCFE" />
                                    <circle cx="45.71" cy="45.71" r="40.21" stroke="#2E3192" stroke-opacity="0.2"
                                        stroke-linejoin="round" />
                                </g>
                                <path
                                    d="M37.7024 31.4458V30.9124C37.7024 29.305 37.7024 27.6976 37.7024 26.0902C37.7024 25.4286 37.832 25.2978 38.4806 25.2974C44.1815 25.2974 49.882 25.2974 55.5824 25.2974C56.2306 25.2974 56.3657 25.4341 56.3657 26.0858C56.3673 30.2532 56.3673 34.4206 56.3657 38.5882V39.1961C56.7503 39.0712 57.0707 38.9713 57.3872 38.8636C58.2602 38.5671 59.1316 38.2651 60.0051 37.969C60.8479 37.6831 61.0657 37.8366 61.0657 38.7132C61.0657 46.8249 61.0657 54.9367 61.0657 63.0486C61.0657 63.3619 61.0657 63.6745 61.0657 63.9863C61.0657 64.5773 61.0657 64.5781 61.6387 64.5785C63.2759 64.5785 64.9132 64.5785 66.5506 64.5785C66.7127 64.5785 66.9192 64.5483 67.0265 64.6321C67.1804 64.7528 67.3472 64.965 67.3488 65.1413C67.3488 65.2893 67.1471 65.4738 66.9912 65.576C66.8839 65.6465 66.7026 65.6109 66.5545 65.6113C52.5485 65.6113 38.5425 65.6113 24.5365 65.6113C24.403 65.6113 24.231 65.6544 24.1448 65.589C23.9741 65.4613 23.7403 65.2717 23.7383 65.1056C23.7363 64.9396 23.9604 64.7355 24.13 64.6102C24.2294 64.5369 24.4178 64.5792 24.5663 64.5789C25.9951 64.5789 27.424 64.5789 28.8531 64.5789C29.5099 64.5789 29.5103 64.5788 29.5103 63.9404V32.3282C29.5103 31.5551 29.6184 31.4462 30.381 31.4462C32.6283 31.4462 34.8759 31.4462 37.1235 31.4462L37.7024 31.4458ZM30.547 32.5217V63.9291C30.5519 64.0183 30.5519 64.1077 30.547 64.197C30.5149 64.4856 30.6324 64.5937 30.9273 64.5851C31.5074 64.5675 32.0898 64.5546 32.6683 64.5886C33.0772 64.6129 33.1622 64.4594 33.1602 64.0795C33.1461 61.0131 33.1516 57.9464 33.1532 54.8796C33.1532 54.2349 33.2969 54.0963 33.942 54.0943C36.1006 54.0943 38.2592 54.0943 40.4178 54.0943C41.207 54.0943 41.3132 54.2016 41.3132 55.001C41.3132 58.0376 41.3194 61.0746 41.3057 64.1112C41.3057 64.4798 41.4044 64.6016 41.78 64.5894C42.5978 64.5628 43.418 64.5569 44.2354 64.5894C44.6733 64.6078 44.7802 64.4629 44.7798 64.0376C44.7683 53.6918 44.7649 43.3459 44.7696 32.9999C44.7696 32.8433 44.7532 32.6866 44.7438 32.5213L30.547 32.5217ZM60.0301 39.0829C59.81 39.1475 59.6827 39.18 59.5601 39.222C55.1124 40.7364 50.6641 42.2472 46.2153 43.7543C45.8765 43.8687 45.804 44.0391 45.8044 44.3653C45.813 50.9273 45.8118 57.4893 45.8009 64.0513C45.8009 64.495 45.9391 64.5902 46.357 64.5886C50.7314 64.5745 55.1061 64.5756 59.481 64.5918C59.9534 64.5918 60.0411 64.4453 60.0403 64.0098C60.028 55.8855 60.025 47.7612 60.0313 39.6367L60.0301 39.0829ZM38.7434 31.4454H39.2863C41.177 31.4454 43.0676 31.4454 44.958 31.4454C45.6802 31.4454 45.8091 31.5754 45.8095 32.3071C45.8095 35.6114 45.8095 38.9161 45.8095 42.221C45.8095 42.3898 45.824 42.5586 45.833 42.7571C45.9803 42.7246 46.068 42.7141 46.1506 42.6863C49.1075 41.6797 52.0644 40.6744 55.0215 39.6704C55.2957 39.578 55.338 39.4237 55.3376 39.1742C55.3321 35.0358 55.3304 30.8972 55.3325 26.7583C55.3325 26.6287 55.3133 26.4991 55.3 26.3275H39.2855C39.1962 26.3275 39.0897 26.2977 39.0215 26.3361C38.9146 26.3968 38.7548 26.5026 38.7536 26.5907C38.7376 28.1848 38.7419 29.7757 38.7419 31.4458L38.7434 31.4454ZM40.2709 55.1593H37.7564C37.7564 56.3343 37.7494 57.4764 37.767 58.6193C37.767 58.7368 37.8998 58.866 37.9985 58.9608C38.4622 59.4045 38.6114 60.117 38.1669 60.5141C37.7047 60.9273 37.758 61.3856 37.7553 61.8775C37.7533 62.2794 37.7553 62.6808 37.7553 63.0823V64.5796C38.474 64.5796 39.1261 64.5581 39.7763 64.5879C40.1624 64.6059 40.2854 64.4993 40.2811 64.0955C40.258 62.3558 40.2713 60.6152 40.2713 58.875L40.2709 55.1593ZM34.2483 55.1542C34.2343 55.1835 34.2231 55.214 34.215 55.2454C34.2085 58.2615 34.2013 61.2774 34.1934 64.2929C34.1934 64.5467 34.3313 64.5812 34.5346 64.5796C35.1291 64.5753 35.7241 64.562 36.3178 64.5847C36.6425 64.5973 36.7181 64.4672 36.7134 64.1696C36.6985 63.2037 36.7197 62.2375 36.6974 61.2712C36.683 61.0762 36.6007 60.8924 36.4647 60.7519C35.9332 60.2247 35.9277 59.4954 36.4428 58.9671C36.593 58.8032 36.6824 58.5928 36.6962 58.3709C36.7232 57.4654 36.7079 56.5583 36.7079 55.6516V55.1546L34.2483 55.1542Z"
                                    fill="black" />
                                <path
                                    d="M41.0183 38.8495C40.3646 38.8495 39.7109 38.8554 39.0576 38.8475C38.5833 38.842 38.4039 38.6709 38.4008 38.2056C38.3924 37.1214 38.3924 36.0372 38.4008 34.9528C38.4043 34.4941 38.5966 34.3077 39.0588 34.3054C40.3808 34.2991 41.7027 34.2991 43.0244 34.3054C43.4944 34.3081 43.6722 34.4867 43.6754 34.9536C43.6832 36.0377 43.6832 37.1213 43.6754 38.2044C43.6722 38.6795 43.5054 38.8401 43.0229 38.8456C42.3551 38.8554 41.6865 38.8495 41.0183 38.8495ZM39.4693 37.81C40.4766 37.81 41.4252 37.8147 42.3739 37.8026C42.4616 37.8026 42.6222 37.6945 42.6234 37.6341C42.6406 36.8853 42.6347 36.136 42.6347 35.3824H39.4693V37.81Z"
                                    fill="black" />
                                <path
                                    d="M41.0665 48.1304C41.7065 48.1304 42.3464 48.1238 42.9856 48.1324C43.5097 48.139 43.6734 48.3079 43.6758 48.8374C43.6805 49.8941 43.6805 50.951 43.6758 52.0079C43.6726 52.5053 43.503 52.6785 43.0005 52.6812C41.6905 52.6885 40.3807 52.6885 39.0709 52.6812C38.5763 52.6785 38.4016 52.4963 38.3988 52.0001C38.3931 50.9429 38.3931 49.8854 38.3988 48.8276C38.4016 48.3079 38.5739 48.1367 39.1015 48.13C39.7564 48.1242 40.4116 48.13 41.0665 48.1304ZM39.4689 51.6449C40.4621 51.6449 41.3982 51.6405 42.3347 51.6476C42.5697 51.6476 42.6453 51.545 42.6429 51.3245C42.6363 50.7146 42.6512 50.104 42.6308 49.4942C42.6273 49.3873 42.4957 49.1946 42.4201 49.193C41.4444 49.1727 40.468 49.1793 39.4689 49.1793V51.6449Z"
                                    fill="black" />
                                <path
                                    d="M34.2458 38.8495C33.5921 38.8495 32.9388 38.8558 32.2851 38.8475C31.8116 38.8417 31.6358 38.6701 31.6358 38.2009C31.6292 37.1168 31.6292 36.0332 31.6358 34.9501C31.6385 34.4969 31.8316 34.3089 32.2973 34.3069C33.6193 34.3007 34.941 34.3007 36.2625 34.3069C36.727 34.3093 36.906 34.4922 36.9088 34.9606C36.9153 36.0448 36.9153 37.1284 36.9088 38.2115C36.9056 38.6815 36.7364 38.8421 36.2519 38.8471C35.5822 38.855 34.914 38.8495 34.2458 38.8495ZM35.874 35.3895H32.7148V37.8096C33.7018 37.8096 34.6532 37.8167 35.6033 37.7979C35.6954 37.7979 35.8595 37.6357 35.8622 37.5452C35.8838 36.8344 35.874 36.1227 35.874 35.3895Z"
                                    fill="black" />
                                <path
                                    d="M34.2544 52.6843C33.6145 52.6843 32.9741 52.6902 32.3353 52.6843C31.81 52.6781 31.6361 52.5038 31.6338 51.9864C31.6299 50.9297 31.6299 49.873 31.6338 48.8162C31.6361 48.3227 31.8112 48.1379 32.3055 48.1347C33.6152 48.1264 34.925 48.1264 36.2347 48.1347C36.7364 48.1375 36.9056 48.3118 36.9084 48.8096C36.9139 49.8801 36.9139 50.9517 36.9084 52.0244C36.9056 52.4967 36.7333 52.6749 36.2645 52.6828C35.5939 52.6922 34.9254 52.684 34.2544 52.6843ZM35.8708 51.6214C35.8708 50.8588 35.8783 50.1189 35.8583 49.3799C35.8564 49.3094 35.6825 49.1864 35.5869 49.184C34.7088 49.1689 33.8307 49.1689 32.9525 49.184C32.8609 49.184 32.6948 49.3148 32.6929 49.3881C32.6737 50.126 32.6811 50.8647 32.6811 51.6206L35.8708 51.6214Z"
                                    fill="black" />
                                <path
                                    d="M41.0588 45.7655C40.3891 45.7655 39.7193 45.7718 39.05 45.7632C38.5855 45.7573 38.4033 45.5756 38.3998 45.1075C38.3928 44.037 38.3928 42.9656 38.3998 41.8935C38.403 41.3981 38.5745 41.232 39.0813 41.23C40.3911 41.2251 41.7005 41.2251 43.0097 41.23C43.5189 41.2324 43.6756 41.3867 43.6756 41.9029C43.6811 42.9735 43.6811 44.0448 43.6756 45.1169C43.6724 45.5897 43.5005 45.7573 43.0231 45.7632C42.3674 45.7718 41.7133 45.7659 41.0588 45.7655ZM39.4667 42.2633V44.6877H42.6392C42.6392 43.9541 42.6506 43.2581 42.6267 42.5633C42.6232 42.4603 42.4544 42.2785 42.3588 42.2766C41.4133 42.255 40.4663 42.2633 39.4667 42.2633Z"
                                    fill="black" />
                                <path
                                    d="M34.2776 45.766C33.6227 45.766 32.9678 45.7707 32.313 45.766C31.8132 45.7613 31.6358 45.5881 31.633 45.097C31.6275 44.0264 31.6275 42.9548 31.633 41.8822C31.6358 41.4071 31.8046 41.2355 32.2804 41.2328C33.6051 41.2263 34.9297 41.2263 36.2543 41.2328C36.7404 41.2348 36.9033 41.395 36.906 41.8728C36.9131 42.9433 36.9131 44.0149 36.906 45.0876C36.9033 45.5944 36.7396 45.7605 36.2402 45.766C35.5869 45.7714 34.932 45.766 34.2776 45.766ZM32.7015 44.6889H35.874C35.874 43.9447 35.8818 43.233 35.8642 42.5237C35.8618 42.436 35.7248 42.2774 35.648 42.2762C34.6743 42.259 33.6998 42.2648 32.7023 42.2648L32.7015 44.6889Z"
                                    fill="black" />
                                <path
                                    d="M56.3108 49.2737C55.6571 49.2737 55.0038 49.2796 54.3501 49.2718C53.8264 49.2659 53.667 49.1002 53.665 48.5668C53.6611 47.5124 53.6611 46.4579 53.665 45.4033C53.6674 44.909 53.8417 44.73 54.3356 44.7277C55.6427 44.7214 56.9497 44.7214 58.2566 44.7277C58.7747 44.73 58.9384 44.9031 58.9404 45.4327C58.9443 46.487 58.9443 47.5415 58.9404 48.5962C58.9381 49.0967 58.7732 49.262 58.271 49.2706C57.617 49.2804 56.9633 49.2737 56.3108 49.2737ZM54.7496 45.795V48.2319C55.7409 48.2319 56.6907 48.2378 57.6401 48.2217C57.7262 48.2217 57.8813 48.0803 57.8833 48.0016C57.9025 47.2758 57.8947 46.5489 57.8947 45.795H54.7496Z"
                                    fill="black" />
                                <path
                                    d="M56.3016 55.7456C55.6467 55.7456 54.9914 55.7522 54.3366 55.7436C53.8403 55.7366 53.6664 55.5603 53.6641 55.0653C53.6589 53.9947 53.6589 52.923 53.6641 51.8501C53.6668 51.3801 53.8376 51.1995 54.3142 51.1956C55.6389 51.1859 56.9636 51.1859 58.2885 51.1956C58.7651 51.1991 58.9351 51.3797 58.9379 51.8509C58.9439 52.9379 58.9439 54.0245 58.9379 55.1107C58.9351 55.5505 58.755 55.7338 58.3112 55.7421C57.6418 55.7542 56.9713 55.7452 56.3016 55.7456ZM54.711 54.7116C55.7293 54.7116 56.6952 54.7183 57.6587 54.6987C57.7394 54.6987 57.8811 54.5185 57.8847 54.4182C57.9054 53.7939 57.9078 53.1676 57.8827 52.5437C57.8784 52.4391 57.7147 52.2551 57.6207 52.2527C56.7434 52.2304 55.8648 52.2331 54.9867 52.2484C54.8939 52.2484 54.7251 52.3761 54.7231 52.4478C54.7043 53.1868 54.711 53.9263 54.711 54.7116Z"
                                    fill="black" />
                                <path
                                    d="M49.5404 49.2737C48.8852 49.2737 48.2303 49.28 47.5754 49.2737C47.0663 49.2675 46.9014 49.1026 46.8986 48.6028C46.8932 47.5322 46.8932 46.4604 46.8986 45.3872C46.9014 44.9172 47.0772 44.7331 47.5441 44.7308C48.869 44.723 50.1939 44.723 51.5187 44.7308C51.9887 44.7331 52.1701 44.9145 52.1728 45.3798C52.1799 46.4668 52.1799 47.5535 52.1728 48.64C52.1697 49.0853 51.993 49.2667 51.5501 49.2722C50.8803 49.2816 50.2102 49.2733 49.5404 49.2737ZM47.944 45.7938C47.944 46.5446 47.9362 47.2688 47.955 47.9918C47.9569 48.0737 48.1058 48.2198 48.19 48.2209C49.1511 48.2374 50.1127 48.2315 51.1063 48.2315V45.7938H47.944Z"
                                    fill="black" />
                                <path
                                    d="M49.5191 55.746C48.8791 55.746 48.2391 55.7515 47.5999 55.746C47.0692 55.7398 46.9004 55.5725 46.8981 55.0508C46.8934 53.9941 46.8934 52.9374 46.8981 51.8807C46.9004 51.3801 47.068 51.2 47.5639 51.1964C48.8736 51.1873 50.1834 51.1873 51.4931 51.1964C52.0128 51.1996 52.1703 51.375 52.1726 51.9132C52.1765 52.955 52.1765 53.997 52.1726 55.0391C52.1703 55.5678 52.0046 55.7394 51.4829 55.7441C50.8292 55.7519 50.174 55.7456 49.5191 55.746ZM47.9434 54.6823H51.1049V52.2402C50.1129 52.2402 49.1517 52.2343 48.1906 52.2508C48.1071 52.2508 47.9556 52.3973 47.9556 52.4787C47.9356 53.2025 47.9434 53.9275 47.9434 54.6823Z"
                                    fill="black" />
                                <path
                                    d="M56.3092 62.648C55.6543 62.648 54.9995 62.653 54.3446 62.648C53.8272 62.6429 53.6654 62.4889 53.6627 61.9896C53.6567 60.919 53.6567 59.8475 53.6627 58.7752C53.6651 58.3052 53.8413 58.1183 54.305 58.1156C55.6297 58.1083 56.9541 58.1083 58.2785 58.1156C58.7704 58.1179 58.9353 58.2954 58.9377 58.8022C58.9421 59.8589 58.9421 60.9155 58.9377 61.9719C58.9353 62.485 58.781 62.6421 58.2742 62.648C57.6197 62.655 56.9648 62.648 56.3092 62.648ZM57.8661 59.177H54.7327V61.5787H57.8661V59.177Z"
                                    fill="black" />
                                <path
                                    d="M49.5341 62.6472C48.8644 62.6472 48.1946 62.655 47.5252 62.6472C47.0705 62.6405 46.9017 62.4741 46.8986 62.0248C46.8911 60.9239 46.8962 59.8225 46.8962 58.7211C46.8962 58.3161 47.1081 58.116 47.5041 58.1152C48.858 58.1118 50.2121 58.1118 51.5665 58.1152C51.9644 58.1152 52.1732 58.3212 52.1735 58.7231C52.1735 59.8393 52.1763 60.9556 52.1735 62.0714C52.1735 62.4521 51.9695 62.6472 51.5888 62.6484C50.9049 62.6484 50.2199 62.6468 49.5341 62.6472ZM47.9674 61.5756H51.109V59.1743H47.9674V61.5756Z"
                                    fill="black" />
                                <path
                                    d="M50.9419 38.837C50.258 38.837 49.5742 38.8417 48.8907 38.837C48.389 38.8327 48.2088 38.6635 48.2053 38.1739C48.1972 37.1187 48.1972 36.0635 48.2053 35.008C48.2084 34.5102 48.3843 34.3238 48.8711 34.3211C50.2683 34.3132 51.6653 34.3132 53.062 34.3211C53.5739 34.3238 53.7485 34.5114 53.7509 35.0343C53.7556 36.0751 53.7556 37.1155 53.7509 38.1555C53.7482 38.6494 53.5684 38.8319 53.0815 38.837C52.3687 38.8417 51.6551 38.837 50.9419 38.837ZM52.6848 35.395H49.273V37.7611H52.6848V35.395Z"
                                    fill="black" />
                                <path
                                    d="M50.9571 31.3608C50.2588 31.3608 49.5605 31.3659 48.8621 31.3588C48.3847 31.3541 48.2096 31.1889 48.2057 30.7181C48.1971 29.6475 48.1971 28.5778 48.2057 27.5088C48.2092 27.036 48.3831 26.8637 48.8582 26.8613C50.2698 26.8548 51.6813 26.8548 53.0929 26.8613C53.5813 26.8641 53.7497 27.0439 53.7525 27.5491C53.7579 28.5894 53.7579 29.6295 53.7525 30.6695C53.7497 31.1908 53.5805 31.3557 53.0529 31.3596C52.3546 31.3639 51.6555 31.3608 50.9571 31.3608ZM52.6722 30.3221V27.8938C51.5865 27.8938 50.533 27.8875 49.4798 27.9063C49.3971 27.9063 49.2514 28.0841 49.2479 28.1832C49.2268 28.8075 49.2287 29.433 49.2479 30.0577C49.2506 30.1482 49.3819 30.3107 49.4555 30.3119C50.522 30.326 51.5901 30.3209 52.6722 30.3209V30.3221Z"
                                    fill="black" />
                                <path
                                    d="M42.8084 27.1113C43.5361 27.1113 44.2642 27.1073 44.9919 27.1113C45.5183 27.1156 45.6664 27.255 45.6734 27.7653C45.6817 28.4038 45.6758 29.0426 45.6734 29.6814C45.6734 30.0213 45.5458 30.2767 45.169 30.2802C44.7922 30.2838 44.6512 30.0378 44.6457 29.6959C44.6398 29.3097 44.6253 28.9223 44.6484 28.5373C44.6676 28.2154 44.536 28.1339 44.2345 28.1374C43.0595 28.1503 41.8876 28.1445 40.7142 28.1402C40.5528 28.1402 40.3436 28.1648 40.2418 28.0779C40.0926 27.9514 39.8991 27.6901 39.9441 27.5656C40.0115 27.3784 40.2618 27.1434 40.447 27.132C41.2304 27.0842 42.0204 27.1116 42.8076 27.1116L42.8084 27.1113Z"
                                    fill="black" />
                            </svg>