<svg width="93" height="87" viewBox="0 0 93 87" fill="none"
                                    xmlns="http://www.w3.org/2000/svg">
                                    <g opacity="0.4">
                                        <circle cx="45.0538" cy="43.0538" r="42.0538" fill="white" />
                                        <circle cx="45.0538" cy="43.0538" r="42.5538" stroke="#2E3192"
                                            stroke-opacity="0.5" stroke-linejoin="round" />
                                    </g>
                                    <circle opacity="0.988235" cx="45.2718" cy="43.2718" r="35.2718" fill="#D6E2F6" />
                                    <path
                                        d="M63.2438 44.8924C63.1969 40.4223 61.6129 36.1698 58.3818 32.5469C58.0215 32.1427 58.0109 32.1457 57.6245 32.532C56.8225 33.3331 56.0324 34.1471 55.2138 34.9308C54.9195 35.2128 54.9267 35.3993 55.1878 35.7043C57.4597 38.3403 58.6804 41.3964 58.8048 44.8817C58.8082 44.9669 58.8082 45.0521 58.8078 45.1373C58.8078 45.4175 58.6668 45.6181 58.3946 45.6441C58.0892 45.6731 57.9231 45.461 57.8954 45.1756C57.8448 44.6547 57.8426 44.1282 57.7821 43.609C57.458 40.8277 56.34 38.3948 54.5055 36.2831C54.2853 36.0297 54.1188 36.0246 53.8828 36.2656C53.0808 37.0864 52.2758 37.9055 51.4452 38.6973C51.1471 38.9826 51.1266 39.1688 51.392 39.5006C52.8167 41.2805 53.5139 43.3169 53.4505 45.6041C53.3329 49.825 50.1338 53.5689 45.9793 54.3445C40.1654 55.4315 34.8571 50.9222 34.9934 45.0108C35.0969 40.5845 38.5895 36.7056 42.9701 36.1426C45.6139 35.8018 47.9637 36.4944 50.0405 38.1384C50.3387 38.3744 50.5124 38.3774 50.7791 38.0984C51.5628 37.2794 52.3763 36.4893 53.1775 35.6872C53.5433 35.3209 53.5446 35.2835 53.1668 34.9559C50.9337 33.0205 48.3432 31.9042 45.4018 31.6703C39.7029 31.215 34.5432 34.1284 31.9757 39.2058C27.9413 47.1847 32.8276 57.0726 41.6085 58.6987C48.9344 60.0553 55.7735 55.6108 57.5517 48.3377C57.5722 48.255 57.5905 48.172 57.6152 48.0911C57.6961 47.8283 57.8643 47.66 58.148 47.7269C58.4393 47.7955 58.5526 48.005 58.4888 48.3078C58.2225 49.5609 57.8226 50.7714 57.2076 51.8937C54.33 57.1433 49.8693 59.8509 43.9004 59.8526C37.6197 59.8526 31.9348 55.3058 30.2005 49.2854C27.9665 41.5301 32.618 32.8203 41.295 31.0114C45.9103 30.0484 50.0482 31.2244 53.6805 34.2059C54.2167 34.6463 54.2091 34.6552 54.6933 34.1709C55.4749 33.3889 56.2475 32.598 57.0432 31.8313C57.3055 31.5788 57.2928 31.4182 57.0304 31.1814C54.3334 28.7489 51.202 27.1777 47.6264 26.5673C43.0076 25.7785 38.604 26.4557 34.5773 28.9018C29.3439 32.0843 26.1772 36.7167 25.3879 42.8245C24.6532 48.5123 26.2227 53.5578 29.9879 57.9023C30.0343 57.9559 30.0825 58.0083 30.1255 58.0645C30.2933 58.2839 30.3223 58.5147 30.1114 58.7124C29.8797 58.93 29.6297 58.8772 29.444 58.6489C28.8903 57.9674 28.3153 57.3004 27.814 56.5819C22.6633 49.1942 23.1914 39.0389 29.1339 32.2764C33.409 27.4111 38.845 25.0996 45.3106 25.382C49.5332 25.5664 53.3125 27.0635 56.6402 29.6808C56.7629 29.7771 56.8745 29.8908 57.0065 29.9705C57.0917 30.0233 57.234 30.0795 57.3047 30.0437C57.3754 30.0079 57.4282 29.858 57.4239 29.7613C57.3941 29.1224 57.3635 28.487 57.3 27.8532C57.2433 27.2888 57.4103 26.8267 57.8086 26.4306C59.1539 25.0906 60.4973 23.7485 61.8387 22.4043C62.0865 22.1573 62.3498 21.9584 62.7408 22.1032C63.1318 22.248 63.2536 22.5649 63.2804 22.9389C63.323 23.5326 63.3464 24.1276 63.3941 24.7205C63.4056 24.8628 63.4793 24.9999 63.527 25.1392C63.6586 25.0749 63.815 25.037 63.9172 24.9411C64.2792 24.6029 64.6225 24.2439 64.9739 23.8942C65.3547 23.5156 65.6303 23.4414 65.8343 23.6919C66.1418 24.0688 65.8471 24.3108 65.6047 24.554C65.2448 24.9156 64.8781 25.2704 64.5267 25.6401C64.4479 25.7227 64.4211 25.853 64.3704 25.9646C64.4896 26.0166 64.6063 26.1056 64.729 26.1154C65.3364 26.1644 65.945 26.1891 66.5528 26.23C66.9421 26.256 67.2713 26.3756 67.4145 26.7935C67.5495 27.187 67.3357 27.4456 67.0908 27.6913C65.7602 29.0259 64.4282 30.3593 63.0947 31.6916C62.6871 32.1014 62.2152 32.2751 61.6346 32.2117C61.0541 32.1482 60.4766 32.118 59.8964 32.0963C59.744 32.0903 59.5885 32.1704 59.4343 32.2108C59.4956 32.3459 59.5314 32.5017 59.6217 32.6129C61.5235 34.9576 62.9013 37.5745 63.5798 40.5198C65.1025 47.1191 63.6893 53.0654 59.3495 58.2456C56.1368 62.0789 51.958 64.3248 47.0101 65.0178C41.364 65.8091 36.2963 64.3274 31.7909 60.8633C31.5541 60.681 31.4075 60.4591 31.6171 60.178C31.8394 59.882 32.0984 59.9548 32.3527 60.1567C33.696 61.2231 35.1748 62.1066 36.7503 62.7842C44.5163 66.1405 53.7712 63.8277 59.0463 57.2067C61.8306 53.712 63.2255 49.7296 63.2438 44.8924ZM52.5237 45.5802C52.5394 43.3841 51.9576 41.6898 50.8016 40.1923C50.4652 39.7561 50.4008 39.757 50.0184 40.139C49.2662 40.8895 48.5147 41.6405 47.7639 42.3922C47.2997 42.8564 47.2997 42.8564 47.6183 43.4391C48.4084 44.8872 48.2073 46.6088 47.1021 47.8687C46.0619 49.0524 44.3203 49.4685 42.8338 48.8909C41.3346 48.3066 40.3209 46.8094 40.349 45.219C40.4001 42.2525 43.6572 40.4559 46.2221 41.9935C46.5424 42.1856 46.7264 42.1639 46.9807 41.9006C47.7473 41.1037 48.5378 40.3328 49.319 39.5512C49.7701 39.1006 49.7696 39.0512 49.244 38.6568C47.6949 37.4889 45.9512 36.9501 44.0098 36.9919C38.9383 37.1009 35.125 41.7558 36.0356 46.7456C36.8121 50.9993 40.648 53.9437 44.9375 53.5744C49.2513 53.1988 52.5215 49.6257 52.5237 45.5802ZM47.2358 45.2787C47.1323 44.8723 47.0654 44.4524 46.9168 44.0626C46.7358 43.5873 46.582 43.5741 46.2242 43.9298C45.6927 44.4592 45.1692 44.9946 44.6308 45.5189C44.3037 45.8358 43.8671 45.7702 43.813 45.3881C43.7888 45.2178 43.9059 44.9818 44.0337 44.8455C44.5563 44.288 45.1032 43.7534 45.6496 43.2189C45.9052 42.9689 45.8656 42.7853 45.5602 42.6315C44.9119 42.3061 44.2228 42.2567 43.5324 42.4113C42.031 42.7474 41.0709 44.2002 41.3001 45.7442C41.5292 47.2882 42.9071 48.3398 44.5346 48.2235C45.9938 48.1192 47.1591 46.8231 47.2358 45.2787ZM62.4937 25.2525C62.4571 24.68 62.4409 24.2694 62.3988 23.861C62.3851 23.7332 62.3016 23.6118 62.2501 23.4879C62.1223 23.5501 61.9613 23.5833 61.8668 23.6791C60.7283 24.804 59.5906 25.9301 58.4773 27.0793C58.3248 27.2369 58.2328 27.5235 58.2358 27.7484C58.2443 28.4129 58.3069 29.0773 58.3669 29.7396C58.3806 29.8912 58.4696 30.0378 58.5241 30.1839C58.6519 30.1102 58.8001 30.0591 58.9011 29.9594C59.8483 29.0224 60.7589 28.0495 61.7386 27.1483C62.3689 26.5686 62.791 25.98 62.4937 25.2525ZM61.7526 31.287L61.7795 31.356C61.9775 31.2751 62.2246 31.244 62.3668 31.1051C63.5517 29.947 64.7192 28.7706 65.8845 27.5929C65.9625 27.5141 66.0447 27.351 66.0123 27.2756C65.9761 27.1904 65.8138 27.1266 65.7014 27.118C64.9394 27.0588 64.1761 27.0069 63.4125 26.9783C63.2804 26.9732 63.1143 27.0563 63.0146 27.1525C61.8351 28.3167 60.6627 29.4879 59.4973 30.666C59.4164 30.7478 59.3815 30.8747 59.327 30.9803C59.4441 31.0361 59.5574 31.1311 59.6784 31.1413C60.3675 31.2018 61.0605 31.2397 61.7526 31.287Z"
                                        fill="black" />
                                </svg>