<svg width="109" height="102" viewBox="0 0 109 102" fill="none"
                                        xmlns="http://www.w3.org/2000/svg">
                                        <ellipse cx="54.96" cy="50.97" rx="49.96" ry="49.97" fill="white" />
                                        <path
                                            d="M54.96 101.44C82.8284 101.44 105.42 78.8437 105.42 50.97C105.42 23.0963 82.8284 0.5 54.96 0.5C27.0916 0.5 4.5 23.0963 4.5 50.97C4.5 78.8437 27.0916 101.44 54.96 101.44Z"
                                            stroke="#2E3192" stroke-opacity="0.2" stroke-linejoin="round" />
                                        <circle opacity="0.6" cx="54.57" cy="50.57" r="44.57" fill="#C8DCFE" />
                                        <path
                                            d="M39.0566 60.8518C39.7935 60.6741 40.1414 60.9588 40.508 61.5414C44.1492 67.3271 49.3921 70.2777 56.2492 69.9691C64.3149 69.6081 71.0554 63.5265 72.2033 55.5372C73.2407 48.3164 70.5513 42.6219 64.6036 38.4414C64.2935 38.2229 63.8428 38.0381 64.154 37.5685C64.4493 37.1234 64.8033 37.4458 65.1012 37.6413C69.6998 40.6679 72.3169 44.9548 73.1801 50.3596C73.2682 50.9131 73.3155 51.4601 73.5365 52.0147C73.7703 52.5973 73.7912 53.3245 73.4041 53.9499C73.3283 54.0877 73.2846 54.2409 73.2763 54.398C72.5593 62.7376 66.3315 69.3763 57.9827 70.6968C50.3989 71.8967 42.76 68.037 39.2308 61.2165C39.1743 61.1065 39.1239 60.9929 39.0566 60.8518Z"
                                            fill="black" />
                                        <path
                                            d="M42.3019 48.2462L41.4525 47.9595C41.8771 46.6674 42.4971 45.4481 43.2909 44.3437C46.0327 40.5477 49.7758 38.5509 54.4223 38.2072C55.152 38.1532 55.2773 38.3004 55.2839 39.0495C55.2839 39.2893 55.261 39.5317 55.2946 39.7665C55.3145 39.9055 55.3965 40.0787 55.5034 40.1479C55.5829 40.1989 55.7896 40.1479 55.8793 40.0695C56.9212 39.1758 57.9519 38.2698 58.9857 37.3659C59.2175 37.1622 59.1991 36.9641 58.9806 36.7593C57.9672 35.8106 56.9589 34.8557 55.9383 33.9141C55.8365 33.8194 55.617 33.7206 55.5309 33.7674C55.4107 33.8336 55.3201 34.0282 55.2967 34.1799C55.259 34.4295 55.289 34.6892 55.2839 34.9438C55.2727 35.5122 55.1597 35.6272 54.5852 35.6899C53.7139 35.7846 52.8273 35.8096 51.9753 35.9954C45.5988 37.373 41.3195 41.1833 39.0299 47.2638C38.7422 48.0277 38.762 48.0364 37.8535 47.9498C38.192 46.6235 38.702 45.3471 39.3706 44.1528C42.5193 38.5438 47.3614 35.5106 53.7042 34.7966C54.1681 34.7457 54.354 34.5904 54.3306 34.1198C54.2988 33.5301 54.3018 32.939 54.3398 32.3497C54.3535 32.146 54.4895 31.8501 54.6453 31.7844C54.8012 31.7187 55.12 31.8216 55.2681 31.958C56.9361 33.4929 58.5921 35.0402 60.236 36.5999C60.621 36.9635 60.6047 37.2426 60.1947 37.6016C58.5743 39.0215 56.9558 40.4438 55.3181 41.8428C55.1434 41.992 54.8088 42.1025 54.6163 42.0353C54.4635 41.9843 54.351 41.634 54.3342 41.4089C54.2939 40.8691 54.325 40.3241 54.3199 39.7818C54.3143 39.2634 54.187 39.1457 53.6864 39.215C48.3071 39.957 44.6134 42.8949 42.473 47.849C42.417 47.9793 42.362 48.1097 42.3019 48.2462Z"
                                            fill="black" />
                                        <path
                                            d="M32.4634 54.8778H25.9036C25.7921 54.8778 25.6801 54.8722 25.5685 54.8778C25.2029 54.8981 24.8719 54.7392 24.881 54.3879C24.8902 54.0365 25.2258 53.9153 25.5904 53.9158C30.1707 53.9219 34.7513 53.9231 39.3323 53.9193C39.6801 53.9193 40.0127 53.983 40.004 54.4082C39.9954 54.8335 39.6516 54.8778 39.3104 54.8778C37.0269 54.8767 34.7445 54.8767 32.4634 54.8778Z"
                                            fill="black" />
                                        <path
                                            d="M55.2201 55.6391C53.7081 55.6177 52.4573 54.3349 52.4828 52.8306C52.5088 51.316 53.787 50.0699 55.2919 50.0923C56.7967 50.1147 58.0536 51.3965 58.0291 52.9008C58.0042 54.4164 56.728 55.662 55.2201 55.6391ZM55.2868 51.0476C55.0478 51.0425 54.8101 51.0848 54.5875 51.1722C54.365 51.2595 54.1619 51.3902 53.9902 51.5565C53.8185 51.7228 53.6814 51.9216 53.587 52.1412C53.4926 52.3609 53.4427 52.5971 53.4402 52.8362C53.4331 53.8516 54.2316 54.6766 55.2292 54.6848C55.4681 54.6886 55.7053 54.6453 55.9274 54.5574C56.1494 54.4695 56.352 54.3387 56.5236 54.1725C56.6951 54.0063 56.8323 53.8079 56.9271 53.5887C57.022 53.3695 57.0728 53.1338 57.0766 52.895C57.0804 52.6562 57.0371 52.4189 56.9492 52.1969C56.8613 51.9748 56.7305 51.7722 56.5643 51.6006C56.3981 51.4291 56.1997 51.292 55.9805 51.1971C55.7613 51.1022 55.5256 51.0514 55.2868 51.0476Z"
                                            fill="black" />
                                        <path
                                            d="M59.4194 50.2715L58.8164 49.5275C59.6821 48.8588 60.5413 48.1973 61.3994 47.5373C62.4987 46.6909 63.5984 45.8447 64.6984 44.9986C64.9759 44.7852 65.2886 44.5632 65.5707 44.9202C65.8528 45.2772 65.5885 45.5288 65.2998 45.7503C63.3412 47.2526 61.381 48.7597 59.4194 50.2715Z"
                                            fill="black" />
                                        <path
                                            d="M37.5873 50.0892H40.6032C40.7147 50.0892 40.8267 50.0892 40.9382 50.0892C41.2586 50.0892 41.5305 50.1911 41.5376 50.5567C41.5448 50.9224 41.283 51.0385 40.9586 51.0436C40.7193 51.0476 40.4799 51.0436 40.2406 51.0436H34.544C34.4325 51.0436 34.3209 51.0436 34.2089 51.0436C33.885 51.0349 33.6268 50.9152 33.6329 50.5526C33.639 50.2186 33.8845 50.1004 34.189 50.0892C34.3006 50.0851 34.4121 50.0892 34.5241 50.0892C35.5454 50.0885 36.5664 50.0885 37.5873 50.0892Z"
                                            fill="black" />
                                        <path
                                            d="M37.5881 57.75H40.6035C40.6992 57.75 40.795 57.75 40.8907 57.75C41.2222 57.75 41.5298 57.8238 41.5375 58.2175C41.5451 58.6111 41.2497 58.7064 40.9126 58.7069H40.1487H34.6421C34.5306 58.7069 34.4185 58.7069 34.307 58.7069C33.9597 58.7069 33.6307 58.6407 33.6368 58.2144C33.6424 57.8213 33.9546 57.7464 34.2851 57.7485H37.5881V57.75Z"
                                            fill="black" />
                                        <path
                                            d="M30.3711 51.0334C30.1002 51.0334 29.8109 51.094 29.5649 51.0135C29.3862 50.9544 29.1764 50.7212 29.155 50.5445C29.1392 50.4157 29.3964 50.1371 29.5507 50.1238C30.0897 50.0704 30.6327 50.0704 31.1717 50.1238C31.3244 50.1391 31.5531 50.4065 31.5546 50.5598C31.5561 50.7131 31.3428 50.9544 31.1768 51.0059C30.9298 51.0823 30.6415 51.0257 30.3711 51.0257V51.0334Z"
                                            fill="black" />
                                        <path
                                            d="M69.0065 53.3307C68.7519 53.3307 68.4789 53.3862 68.2477 53.3118C68.0761 53.2568 67.8321 53.0175 67.8484 52.8881C67.8698 52.7114 68.0939 52.4405 68.2558 52.4216C68.7784 52.3623 69.3059 52.3623 69.8284 52.4216C69.9934 52.4405 70.2481 52.7175 70.2455 52.8728C70.243 53.0282 69.997 53.2609 69.8132 53.3179C69.5667 53.3953 69.2774 53.3373 69.0065 53.3373V53.3307Z"
                                            fill="black" />
                                        <path
                                            d="M30.3255 58.7018C30.0867 58.7018 29.8463 58.716 29.6085 58.6982C29.3172 58.6768 29.0834 58.5037 29.1501 58.2159C29.1899 58.0387 29.4297 57.7989 29.6019 57.779C30.1094 57.72 30.6221 57.72 31.1296 57.779C31.2987 57.7989 31.5559 58.0647 31.5579 58.221C31.56 58.3774 31.3186 58.6167 31.1373 58.6748C30.8918 58.7537 30.6015 58.6947 30.3306 58.6947L30.3255 58.7018Z"
                                            fill="black" />
                                        <path
                                            d="M55.7218 66.6977C55.7218 66.9523 55.7773 67.2258 55.7035 67.4565C55.6485 67.6286 55.4096 67.8725 55.2798 67.8567C55.1036 67.8359 54.8326 67.6123 54.8138 67.4493C54.7532 66.9269 54.7522 66.3994 54.8107 65.8767C54.8291 65.7112 55.1056 65.4566 55.2614 65.4586C55.4173 65.4607 55.65 65.7061 55.7076 65.8895C55.785 66.1365 55.7264 66.4252 55.7264 66.6961L55.7218 66.6977Z"
                                            fill="black" />
                                        <path
                                            d="M46.4484 60.8091C46.5462 60.8753 46.7407 60.9354 46.782 61.051C46.839 61.2094 46.8533 61.4763 46.7585 61.5797C46.3842 61.9904 45.9772 62.37 45.5414 62.7148C45.4289 62.8034 45.1218 62.7657 44.9899 62.6679C44.885 62.5916 44.8218 62.2524 44.8947 62.1745C45.3235 61.7161 45.7971 61.2945 46.2585 60.8652C46.2895 60.8366 46.3481 60.8372 46.4484 60.8091Z"
                                            fill="black" />
                                        <path
                                            d="M64.0535 60.7781C64.2276 60.8733 64.3692 60.9217 64.4721 61.0134C64.8045 61.3097 65.1289 61.6153 65.4453 61.93C65.6607 62.1449 65.7315 62.4159 65.5135 62.6552C65.2956 62.8946 65.016 62.837 64.7904 62.6359C64.4339 62.3176 64.0713 62.0013 63.7601 61.6423C63.6532 61.519 63.6359 61.2542 63.6827 61.0821C63.7174 60.9584 63.9231 60.8784 64.0535 60.7781Z"
                                            fill="black" />
                                    </svg>