<svg width="92" height="92" viewBox="0 0 92 92" fill="none"
                                xmlns="http://www.w3.org/2000/svg">
                                <path
                                    d="M89.2541 37.3528C93.7584 61.513 77.8239 84.751 53.6635 89.2547C29.5031 93.7593 6.26571 77.8247 1.76169 53.6643C-2.74259 29.5042 13.192 6.26614 37.3524 1.7615C61.5128 -2.74216 84.75 13.1924 89.2541 37.3528Z"
                                    fill="white" />
                                <path
                                    d="M37.2608 1.26997L37.3524 1.76136L37.2607 1.26997C12.8289 5.82522 -3.28473 29.3244 1.27015 53.756C5.82479 78.1878 29.3233 94.3014 53.7552 89.7462C78.1871 85.1919 94.3005 61.6928 89.7457 37.2612C85.1909 12.8293 61.6926 -3.2843 37.2608 1.26997Z"
                                    stroke="#2E3192" stroke-opacity="0.2" stroke-linejoin="round" />
                                <circle opacity="0.6" cx="45.71" cy="45.71" r="39.71" fill="#C8DCFE" />
                                <path
                                    d="M47.6331 27.7864C47.6331 27.378 47.6365 26.9696 47.6331 26.5611C47.6259 25.8582 47.1992 25.4136 46.4979 25.4005C45.7967 25.3873 45.1027 25.3881 44.4052 25.4005C43.7078 25.4128 43.2735 25.8582 43.2692 26.5599C43.2641 27.3937 43.2582 28.2276 43.2692 29.0614C43.2764 29.5425 43.0992 29.7707 42.5926 29.8876C41.1553 30.2195 39.7319 30.6135 38.3103 31.0105C37.8386 31.1422 37.5096 31.1078 37.2546 30.625C36.8921 29.9327 36.4752 29.2688 36.0735 28.5977C35.5763 27.766 35.136 27.653 34.317 28.1264C33.7726 28.4413 33.215 28.735 32.6799 29.0657C31.9366 29.5251 31.8461 29.9267 32.2821 30.6675C32.6948 31.3713 33.1138 32.07 33.5189 32.7797C33.8011 33.274 33.7216 33.5116 33.3238 33.8911C32.2893 34.876 31.2706 35.8753 30.2676 36.8891C29.8515 37.3102 29.6301 37.3889 29.112 37.1016C28.3551 36.6791 27.6063 36.2414 26.8485 35.8193C26.2803 35.5031 25.8837 35.5376 25.5148 36.0709C25.0149 36.7994 24.5646 37.5606 24.1667 38.3494C24.0681 38.5427 24.182 38.9142 24.3138 39.1348C24.4455 39.3553 24.7048 39.5062 24.9351 39.6448C25.5773 40.0273 26.2327 40.3906 26.8846 40.7583C27.4609 41.0838 27.5344 41.2899 27.2718 41.9177C27.095 42.3427 26.8791 42.7507 26.7295 43.1833C26.3857 44.1761 26.0537 45.174 25.7554 46.1813C25.6568 46.5149 25.5131 46.6764 25.1634 46.6738C24.4149 46.6683 23.6661 46.6777 22.9177 46.6836C22.3146 46.6883 22.0417 46.931 22.0213 47.54C21.9958 48.305 22.0039 49.07 21.9992 49.835C21.9992 50.226 21.9363 50.5613 21.4255 50.5452C20.9482 50.5299 20.8968 50.209 20.8981 49.8392C20.9002 49.0904 20.8862 48.3415 20.9027 47.5931C20.9346 46.1269 21.4871 45.5897 22.9321 45.585C23.3405 45.585 23.7498 45.5688 24.157 45.5892C24.525 45.6075 24.7197 45.4316 24.837 45.1069C25.2101 44.0869 25.5731 43.0601 25.9802 42.0524C26.1171 41.7124 25.9573 41.5755 25.729 41.4417C25.1863 41.1238 24.6351 40.8207 24.0902 40.5067C23.086 39.9282 22.6644 38.7875 23.1684 37.7518C23.596 36.8822 24.0851 36.0442 24.6321 35.2443C25.1591 34.4674 26.4205 34.2876 27.3763 34.7866C27.9488 35.0841 28.5098 35.4079 29.0619 35.7433C29.3169 35.8992 29.4869 35.906 29.7138 35.6731C30.4848 34.8831 31.2766 34.1121 32.0739 33.348C32.2813 33.1486 32.3212 32.9952 32.1589 32.7406C31.8252 32.2272 31.5371 31.6875 31.2196 31.1622C30.6293 30.1872 30.8273 28.6411 32.0696 28.0563C32.668 27.7749 33.232 27.4188 33.8002 27.0762C34.8895 26.4222 36.4722 26.6708 37.0697 27.9717C37.2958 28.4634 37.6129 28.9135 37.8887 29.3827C38.0702 29.6917 38.2627 29.8149 38.6728 29.6828C39.6078 29.3819 40.5713 29.1536 41.5305 28.9292C41.9657 28.8272 42.1706 28.6275 42.1481 28.1617C42.1196 27.5667 42.1268 26.9717 42.1481 26.3767C42.1906 25.1076 42.9904 24.3176 44.2556 24.2989C45.0721 24.2865 45.8893 24.2857 46.7053 24.3091C47.9251 24.3435 48.7028 25.1136 48.753 26.335C48.7789 26.9636 48.7734 27.5947 48.756 28.2237C48.7445 28.6458 48.9527 28.8238 49.3365 28.9173C50.3102 29.1553 51.2881 29.3848 52.2422 29.6883C52.6277 29.8107 52.8211 29.7027 52.9941 29.4163C53.3103 28.8918 53.6171 28.3623 53.9257 27.8336C54.5117 26.8293 55.683 26.4145 56.7392 26.922C57.5946 27.3405 58.4248 27.8088 59.2254 28.3245C60.0376 28.8404 60.2454 30.1031 59.7188 31.0844C59.4213 31.6369 59.1022 32.1818 58.7643 32.7122C58.5985 32.9731 58.6002 33.1372 58.8365 33.3624C59.6385 34.1215 60.4235 34.8988 61.2012 35.6829C61.3993 35.8822 61.5451 35.9405 61.8077 35.7743C62.3385 35.4381 62.9012 35.1525 63.444 34.8346C64.5158 34.2073 66.0297 34.5443 66.5711 35.6736C66.8491 36.2541 67.1993 36.8028 67.5486 37.3459C68.1861 38.3387 68.0748 39.9435 66.6718 40.5985C66.1648 40.8352 65.6943 41.151 65.2047 41.4221C64.8839 41.5981 64.8091 41.7914 64.9616 42.1625C65.3552 43.12 65.6965 44.0996 66.042 45.0763C66.1644 45.4218 66.3429 45.6207 66.742 45.5952C67.15 45.5741 67.5588 45.5741 67.9668 45.5952C69.153 45.6377 69.949 46.4095 69.9949 47.5884C70.0251 48.37 70.0026 49.1537 70.0026 49.9366C70.0026 50.2846 69.8895 50.535 69.4853 50.5486C69.0646 50.563 68.9061 50.3361 68.9039 49.9493C68.9039 49.7279 68.892 49.5069 68.898 49.2859C68.9677 46.7299 68.8665 46.6169 66.2711 46.6853C66.1011 46.69 65.9311 46.6806 65.7611 46.6853C65.4211 46.6964 65.2604 46.5319 65.1495 46.2042C64.682 44.8213 64.2034 43.4417 63.6879 42.0766C63.3785 41.2568 63.3968 41.1148 64.141 40.6945C64.7925 40.3265 65.4478 39.9644 66.0896 39.5793C66.8928 39.0965 66.9855 38.7013 66.5171 37.9078C66.1975 37.3659 65.8958 36.8121 65.5566 36.283C65.093 35.5605 64.6743 35.4683 63.9319 35.8882C63.2213 36.2898 62.5153 36.6999 61.803 37.0982C61.293 37.3833 61.047 37.3068 60.6411 36.898C59.6236 35.8742 58.5943 34.8614 57.5445 33.8707C57.1994 33.5452 57.1276 33.2281 57.3546 32.8346C57.7966 32.0696 58.25 31.3101 58.6933 30.5455C59.0155 29.9896 58.998 29.6267 58.4672 29.2629C57.7218 28.7584 56.9429 28.3052 56.1361 27.9063C55.9351 27.8051 55.57 27.9114 55.3362 28.0316C55.1271 28.1392 54.9661 28.3793 54.8347 28.5922C54.4153 29.2722 53.9992 29.9556 53.6218 30.6594C53.3868 31.0984 53.0693 31.1418 52.6443 31.0283C51.153 30.6288 49.6612 30.2306 48.1639 29.854C47.8286 29.769 47.6539 29.6092 47.6493 29.2701C47.6446 28.7771 47.6493 28.2837 47.6493 27.7902L47.6331 27.7864Z"
                                    fill="black" />
                                <path
                                    d="M45.9986 56.8773C45.9986 59.0043 45.9986 61.1315 45.9986 63.2591C45.9986 64.0186 45.8893 64.1248 45.1486 64.1138C38.547 64.0147 32.7738 59.511 31.0917 53.15C28.7329 44.2225 34.5916 35.5708 43.7567 34.4471C52.0684 33.4271 59.6538 39.6618 60.2735 48.0233C60.3015 48.396 60.3053 48.7704 60.3228 49.144C60.3436 49.6004 60.1205 49.7925 59.6725 49.7815C59.2135 49.7683 58.7537 49.7789 58.2942 49.7789H46.7568C46.0917 49.7789 45.9977 49.8754 45.9977 50.5495C45.998 52.6577 45.9983 54.767 45.9986 56.8773ZM44.9042 55.876C44.9042 53.7666 44.9042 51.6574 44.9042 49.5486C44.9042 48.7589 44.9811 48.6841 45.7882 48.6841C49.8193 48.6841 53.8504 48.6727 57.8816 48.6897C59.3776 48.696 59.2709 48.6425 59.0822 47.3029C58.2241 41.2114 53.1789 36.2954 47.0547 35.5529C40.9857 34.8177 34.9804 38.3753 32.6872 44.1124C29.0292 53.2618 35.7854 62.1817 44.1048 62.9297C44.8192 62.9939 44.9042 62.925 44.9042 62.2025C44.9042 60.0942 44.9042 57.9854 44.9042 55.876Z"
                                    fill="black" />
                                <path
                                    d="M47.9943 59.4659C47.9943 57.1709 47.9943 54.8748 47.9943 52.5775C47.9943 51.8801 48.0946 51.7798 48.7942 51.7798C53.4037 51.7781 58.0131 51.7781 62.6224 51.7798C63.3266 51.7798 63.4274 51.8916 63.4214 52.6298C63.3649 59.9921 57.678 66.2765 50.3229 67.0968C49.7997 67.1554 49.2723 67.1865 48.7462 67.1975C48.121 67.2107 47.9965 67.0823 47.9952 66.458C47.9915 64.127 47.9912 61.7963 47.9943 59.4659ZM49.1083 59.4825V65.1987C49.1083 66.0747 49.1678 66.1257 50.0598 66.0164C53.1952 65.6405 56.1097 64.2103 58.3255 61.9604C60.5413 59.7104 61.9268 56.7744 62.2548 53.6336C62.3232 52.9906 62.2263 52.8797 61.5778 52.8797C57.6482 52.8797 53.7184 52.8797 49.7883 52.8797C49.1975 52.8797 49.1083 52.9685 49.1083 53.5618C49.1068 55.5355 49.1068 57.5091 49.1083 59.4825Z"
                                    fill="black" />
                            </svg>