<svg width="91" height="92" viewBox="0 0 91 101" fill="none"
                                xmlns="http://www.w3.org/2000/svg">
                                <path
                                    d="M76.9663 19.034C94.3446 36.4117 94.3446 64.5877 76.9663 81.9664C59.588 99.345 31.4122 99.345 14.0339 81.9664C-3.34462 64.5877 -3.34462 36.4117 14.0339 19.034C31.4122 1.65533 59.588 1.65533 76.9663 19.034Z"
                                    fill="white" />
                                <path
                                    d="M77.3198 82.3199C94.8934 64.746 94.8934 36.2534 77.3198 18.6804C59.7463 1.10652 31.2539 1.10652 13.6803 18.6804C-3.89344 36.2534 -3.89343 64.746 13.6803 82.3199C31.2539 99.8939 59.7463 99.8939 77.3198 82.3199Z"
                                    stroke="#2E3192" stroke-opacity="0.2" stroke-linejoin="round" />
                                <circle opacity="0.6" cx="45.71" cy="50.71" r="39.71" fill="#C8DCFE" />
                                <path
                                    d="M47.4115 50.5191C42.6548 50.5191 37.8979 50.5183 33.1406 50.5166C30.9702 50.5129 29.3369 49.2666 28.8169 47.2516C28.7553 47.0376 28.7134 46.8183 28.6919 46.5966C28.4419 42.9421 28.9835 39.4587 30.9702 36.3012C31.2745 35.8168 31.6211 35.3602 32.006 34.9371C32.256 34.6612 32.2769 34.4529 32.1044 34.1412C31.3894 32.8479 30.6853 31.5483 29.9923 30.2425C29.6315 29.5621 29.8673 28.8771 30.5248 28.6983C30.7406 28.6391 30.9998 28.6641 31.2227 28.7187C31.8544 28.8741 32.4727 29.0887 33.1077 29.2262C33.2965 29.2679 33.5752 29.1875 33.7231 29.0596C34.156 28.6846 34.5365 28.2537 34.9506 27.8583C35.5585 27.2779 36.2348 27.34 36.7423 28.0091C36.9273 28.25 37.1056 28.4941 37.2919 28.7333C37.5002 29.0012 37.7131 29.0316 37.961 28.7679C38.2548 28.455 38.5606 28.1521 38.8727 27.8575C39.4835 27.2804 40.1577 27.3416 40.6669 28.0096C40.9081 28.3258 41.1515 28.64 41.3919 28.9566C41.5648 29.1841 41.7669 29.2141 42.0169 29.0816C42.411 28.8733 42.8106 28.6796 43.2098 28.4829C43.6548 28.2633 44.0927 28.2896 44.4477 28.6341C44.786 28.9625 44.831 29.38 44.6485 29.8233C44.074 31.2187 43.5152 32.6204 42.9277 34.0104C42.7581 34.4112 42.7519 34.725 43.011 35.1112C43.3723 35.6487 43.6544 36.2433 43.9344 36.8304C44.1035 37.1854 44.3044 37.3691 44.7298 37.3508C45.5398 37.3162 46.3548 37.3237 47.1635 37.3475C47.6265 37.3612 47.769 37.1708 47.7665 36.7262C47.7535 34.1804 47.7598 31.6346 47.7602 29.0883C47.7602 28.2666 47.849 28.175 48.6494 28.175C50.9402 28.175 53.2319 28.175 55.5244 28.175C56.239 28.175 56.3531 28.2896 56.3535 29.0054C56.3535 32.1721 56.3535 35.3387 56.3535 38.5054C56.3535 38.6329 56.3265 38.7687 56.3631 38.885C56.4023 39.01 56.4781 39.1725 56.5815 39.2183C56.671 39.2558 56.8531 39.1846 56.939 39.1029C57.4223 38.6421 57.8865 38.1604 58.3627 37.6921C58.8152 37.2466 59.046 37.2391 59.4877 37.6796C61.3922 39.5779 63.2908 41.4822 65.1835 43.3925C65.346 43.5591 65.5115 43.9312 65.4335 44.0712C65.3306 44.255 64.9906 44.3791 64.744 44.395C63.994 44.4421 63.994 44.4171 63.994 45.1533C63.994 46.0283 63.9906 46.9033 63.994 47.7783C63.9965 48.2841 64.166 48.4033 64.6348 48.2366C66.6081 47.5458 68.3931 49.0154 68.1123 51.0825C67.599 54.8608 66.4277 58.3841 64.1173 61.4666C60.8535 65.8216 56.5077 68.4187 51.161 69.3191C49.9294 69.5275 48.661 69.5954 47.411 69.6021C41.9702 69.6316 36.529 69.6191 31.0881 69.6083C30.5048 69.6083 30.3506 69.7216 30.3852 70.3166C30.4048 70.6822 30.404 71.0486 30.3827 71.4141C30.341 72.1562 29.879 72.6466 29.1373 72.6583C27.6265 72.6825 26.1152 72.6825 24.6035 72.6583C23.8015 72.6471 23.336 72.1308 23.3281 71.2962C23.3173 70.1825 23.3248 69.0687 23.3248 67.9546C23.3248 63.6265 23.3248 59.2983 23.3248 54.97C23.3248 53.8166 23.759 53.3808 24.9081 53.3796C26.2448 53.3796 27.581 53.3762 28.9173 53.3796C29.9106 53.3829 30.381 53.8529 30.3902 54.8379C30.394 55.2358 30.3827 55.6337 30.3931 56.0312C30.4056 56.4975 30.6323 56.625 31.0335 56.3858C33.2419 55.0712 35.5977 54.1358 38.1352 53.735C39.4373 53.5271 40.7526 53.4125 42.071 53.3921C45.5385 53.3458 49.0073 53.3787 52.4756 53.3758C54.184 53.3758 55.4548 54.0425 56.1031 55.6958C56.2431 56.0521 56.4677 56.1658 56.8531 55.9937C58.0577 55.4583 59.2815 54.9658 60.4781 54.4175C60.7281 54.3029 60.9627 54.0537 61.0965 53.8079C61.5515 52.9708 61.959 52.1079 62.3827 51.2537C62.671 50.6729 62.5731 50.5129 61.9219 50.5125C57.0852 50.5164 52.2484 50.5186 47.4115 50.5191ZM40.9085 59.4946H41.5335C45.3044 59.4946 49.0749 59.4937 52.8452 59.4921C53.5214 59.4901 54.1693 59.2206 54.6475 58.7425C55.1256 58.2644 55.3952 57.6166 55.3973 56.9404C55.4031 55.5025 54.2794 54.3433 52.8465 54.3412C48.9965 54.335 45.1456 54.2996 41.296 54.3537C37.481 54.4054 33.9844 55.5491 30.8002 57.6546C30.5085 57.8475 30.3765 58.0612 30.3781 58.4283C30.3931 61.6108 30.3865 64.7933 30.3869 67.9758C30.3869 68.6266 30.4202 68.6608 31.056 68.6608C36.7038 68.6608 42.3517 68.659 47.9998 68.6554C48.7315 68.6591 49.4629 68.6189 50.1898 68.535C55.0885 67.9341 59.1481 65.7354 62.4177 62.0537C65.279 58.8333 66.6927 54.9958 67.2094 50.7821C67.3306 49.7958 66.5365 48.9808 65.5456 48.9904C64.774 48.9983 64.3256 49.4641 64.0081 50.0916C63.2477 51.5946 62.5081 53.1091 61.7369 54.6058C61.6112 54.8348 61.4166 55.0183 61.1806 55.1304C59.7302 55.7771 58.261 56.3804 56.811 57.03C56.5923 57.1275 56.3385 57.3479 56.2756 57.5625C55.6952 59.5537 54.5323 60.4479 52.4473 60.4483C48.7717 60.4483 45.0966 60.4483 41.4219 60.4483H40.9085V59.4946ZM36.5002 49.5641C37.7402 49.5641 38.9804 49.5641 40.2206 49.5641C40.8552 49.5641 40.8873 49.5312 40.8873 48.8775C40.8873 45.8083 40.8873 42.7389 40.8873 39.6691C40.8873 39.1125 40.8798 38.5558 40.8898 37.9996C40.8985 37.4966 41.046 37.3554 41.5531 37.3429C41.8865 37.3346 42.2227 37.3612 42.5531 37.3341C42.8835 37.3071 43.0581 37.1237 42.884 36.785C42.6835 36.3916 42.4585 36.0087 42.2369 35.625C42.0731 35.3375 41.8377 35.2337 41.4927 35.2358C38.9335 35.2508 36.3731 35.2729 33.8148 35.2241C33.1519 35.2116 32.7448 35.4521 32.3769 35.9366C31.236 37.4375 30.4969 39.125 30.0002 40.9354C29.5248 42.6662 29.6252 44.4354 29.6252 46.1958C29.6252 48.0887 31.0869 49.5529 32.9719 49.5629C34.149 49.5696 35.3256 49.5641 36.5002 49.5641ZM48.7165 39.3275C48.7165 42.5416 48.721 45.7562 48.711 48.9704C48.711 49.3908 48.8444 49.5758 49.286 49.5704C50.6222 49.5537 51.9585 49.5537 53.2952 49.5704C53.7302 49.5754 53.8827 49.4037 53.8785 48.9775C53.8623 47.7046 53.8731 46.4316 53.8727 45.1587C53.8727 44.4154 53.8727 44.4404 53.1265 44.3941C52.879 44.3787 52.5015 44.2516 52.4373 44.0816C52.3694 43.8962 52.5398 43.545 52.7102 43.3641C53.4969 42.5308 54.3298 41.7437 55.1202 40.9146C55.2828 40.7344 55.3777 40.5033 55.3885 40.2608C55.4052 36.7608 55.4006 33.2608 55.3998 29.7583C55.3998 29.1846 55.3465 29.1333 54.769 29.1333C52.9709 29.1333 51.173 29.1333 49.3752 29.1333C48.764 29.1333 48.7181 29.1787 48.7181 29.7816C48.7165 32.9633 48.7159 36.1453 48.7165 39.3275ZM24.2773 62.9796C24.2773 65.6834 24.2773 68.3873 24.2773 71.0912C24.2773 71.6629 24.3315 71.7162 24.9102 71.7162C26.2144 71.7162 27.5185 71.7046 28.8223 71.7233C29.271 71.73 29.4394 71.5733 29.4385 71.1162C29.4285 65.7243 29.4285 60.3322 29.4385 54.94C29.4385 54.4816 29.2719 54.3258 28.8227 54.3321C27.519 54.3512 26.2148 54.3379 24.9106 54.3391C24.3319 54.3391 24.2777 54.3925 24.2773 54.9641C24.2767 57.6355 24.2767 60.3073 24.2773 62.9796ZM47.7619 43.9433C47.7619 42.2575 47.7535 40.5716 47.7677 38.8862C47.771 38.4616 47.6252 38.2875 47.1877 38.2916C45.5977 38.3066 44.0077 38.3066 42.4177 38.2916C41.9819 38.2875 41.8344 38.4604 41.8373 38.8854C41.8473 42.2407 41.8473 45.5961 41.8373 48.9516C41.8373 49.3975 41.9815 49.5766 42.4419 49.5712C44.0155 49.5532 45.5895 49.5532 47.164 49.5712C47.6223 49.5766 47.7735 49.3991 47.7694 48.9525C47.7502 47.2829 47.7619 45.6129 47.7619 43.9433ZM40.1185 32.185C39.859 32.7041 39.629 33.1575 39.4056 33.6137C39.1735 34.0883 39.2969 34.2804 39.8381 34.2862C40.3469 34.2908 40.8565 34.2712 41.3644 34.2929C41.6831 34.3066 41.869 34.1812 41.9848 33.8958C42.4931 32.6458 43.0135 31.4008 43.509 30.1458C43.5594 30.0183 43.5227 29.7779 43.4315 29.6954C43.3402 29.6129 43.109 29.6066 42.9731 29.6562C42.6765 29.7641 42.4056 29.94 42.1152 30.0679C41.5794 30.3041 41.1294 30.1875 40.7627 29.7241C40.5265 29.425 40.301 29.1166 40.0715 28.8121C39.8419 28.5075 39.6231 28.4537 39.3431 28.7725C39.0574 29.0931 38.7534 29.3969 38.4327 29.6825C37.8219 30.2346 37.1731 30.1621 36.6744 29.5066C36.4822 29.2539 36.2877 29.0023 36.091 28.7521C35.8915 28.4971 35.6973 28.4829 35.466 28.7312C35.1073 29.1137 34.7285 29.4779 34.3548 29.8462C33.974 30.2212 33.5435 30.3696 33.009 30.1854C32.5592 30.0287 32.0999 29.9006 31.634 29.8021C31.4619 29.7662 31.2173 29.8054 31.0923 29.9129C31.0194 29.9762 31.0727 30.2633 31.1485 30.4083C31.6327 31.338 32.1297 32.2611 32.6394 33.1775C33.3969 34.5462 33.009 34.2508 34.5615 34.2871C34.5774 34.2879 34.5934 34.2879 34.6094 34.2871C35.019 34.2621 35.151 34.0666 34.9869 33.6962C34.8281 33.3358 34.6535 32.9833 34.4656 32.5912L35.2948 32.1929C35.4848 32.5833 35.699 32.9108 35.8081 33.27C36.0606 34.1033 36.5644 34.4071 37.4356 34.3116C37.876 34.2629 38.1298 34.1354 38.3106 33.7458C38.6173 33.0862 38.956 32.4416 39.2927 31.7691L40.1185 32.185ZM58.9494 44.4083C57.7573 44.4083 56.5652 44.4154 55.3735 44.4041C54.9985 44.4008 54.8198 44.5341 54.8227 44.9279C54.8323 46.3108 54.829 47.6937 54.8227 49.0766C54.8227 49.4137 54.9694 49.5729 55.3085 49.5658C55.626 49.5587 55.944 49.5658 56.2619 49.5658C56.879 49.5658 56.9235 49.5241 56.9244 48.9237C56.9244 48.1287 56.9244 47.3341 56.9244 46.5391C56.9244 45.8766 57.0494 45.7504 57.694 45.7475C58.5201 45.7441 59.3465 45.7441 60.1731 45.7475C60.7981 45.7504 60.929 45.88 60.9319 46.5025C60.9366 47.3608 60.9366 48.2191 60.9319 49.0775C60.9319 49.4146 61.0781 49.5733 61.4173 49.5671C61.7827 49.5604 62.1485 49.555 62.514 49.5671C62.9073 49.5816 63.041 49.3933 63.0381 49.0179C63.0279 47.6668 63.0279 46.3155 63.0381 44.9641C63.0423 44.5558 62.881 44.3987 62.4748 44.4033C61.3019 44.4166 60.1252 44.4083 58.9494 44.4083ZM58.9077 43.4533C60.2256 43.4533 61.544 43.4616 62.8615 43.4437C63.0415 43.4412 63.2194 43.3083 63.3981 43.2354C63.3244 43.0783 63.286 42.8862 63.171 42.7696C61.8998 41.4808 60.6094 40.2108 59.3415 38.9187C59.0373 38.6087 58.8273 38.6083 58.5227 38.9187C57.2552 40.2104 55.9648 41.4812 54.6931 42.77C54.5781 42.8866 54.5394 43.0783 54.4652 43.235C54.644 43.3075 54.8219 43.4404 55.0019 43.4433C56.3031 43.4616 57.6052 43.4533 58.9073 43.4533H58.9077ZM59.9815 48.1471C59.9815 47.8137 60.0285 47.4704 59.9623 47.1508C59.9269 46.9796 59.7123 46.7458 59.5506 46.7208C59.1423 46.6591 58.7269 46.6591 58.3185 46.7208C58.1556 46.7458 57.9127 46.9866 57.9019 47.1429C57.8546 47.8077 57.8546 48.4751 57.9019 49.14C57.9127 49.2912 58.1673 49.5187 58.3356 49.5454C58.7231 49.6058 59.1273 49.5621 59.5231 49.5654C59.8385 49.5675 59.9844 49.4116 59.9815 49.1C59.9785 48.7883 59.981 48.4646 59.981 48.1471H59.9815Z"
                                    fill="black" />
                                <path
                                    d="M38.7492 40.5892C37.9475 40.5892 37.14 40.5871 36.3325 40.5892C35.785 40.5892 35.7325 40.6508 35.7317 41.2462C35.7317 41.8617 35.78 41.9217 36.3113 41.9246C36.9154 41.9279 37.5196 41.9183 38.1246 41.9279C38.6288 41.9358 38.7763 42.0833 38.7838 42.5896C38.7938 43.2257 38.7938 43.8619 38.7838 44.4983C38.7767 45.0083 38.63 45.1504 38.1329 45.1712C38.1008 45.1712 38.0692 45.1712 38.0375 45.1712C37.2963 45.1825 37.2963 45.1825 37.2263 45.935H36.3513C36.245 45.1796 36.245 45.1796 35.5425 45.1712C34.8725 45.1633 34.755 45.0242 34.7954 44.2167C35.5796 44.2167 36.3696 44.2312 37.1579 44.2067C37.3725 44.2004 37.7292 44.1204 37.7667 43.9983C37.8525 43.7142 37.8163 43.3762 37.7554 43.075C37.7371 42.9846 37.4742 42.895 37.3204 42.8896C36.7008 42.8688 36.08 42.8871 35.4596 42.8787C34.9254 42.8717 34.7838 42.7287 34.7767 42.1925C34.7688 41.5879 34.7708 40.9842 34.7767 40.3787C34.7813 39.765 34.9129 39.6417 35.5475 39.6346C36.2721 39.6267 36.2792 39.6204 36.3208 38.9062H37.1958C37.3483 39.6146 37.3483 39.6146 38.0875 39.6346C38.6963 39.65 38.825 39.8254 38.7492 40.5892Z"
                                    fill="black" />
                                <path d="M27.3133 57.2404V58.8929H26.4004V57.2404H27.3133Z" fill="black" />
                            </svg>