<svg width="96" height="101" viewBox="0 0 96 101" fill="none"
                                    xmlns="http://www.w3.org/2000/svg">
                                    <g opacity="0.301961">
                                        <circle cx="47.64" cy="52.64" r="46.64" fill="white" />
                                        <circle cx="47.64" cy="52.64" r="47.14" stroke="#2E3192" stroke-opacity="0.5"
                                            stroke-linejoin="round" />
                                    </g>
                                    <circle opacity="0.988235" cx="48.11" cy="53.11" r="39.11" fill="#D6E2F6" />
                                    <path
                                        d="M45.2964 50.3664C45.2964 48.7759 45.4068 47.1765 45.2743 45.5978C44.9656 41.9281 41.9824 39.2427 38.3141 39.2045C35.382 39.1735 33.2462 40.4956 31.856 43.0489C31.4865 43.7276 31.2018 44.452 30.8151 45.1213C30.6978 45.3235 30.3165 45.5591 30.1423 45.5046C29.7532 45.3834 29.9048 45.0325 30.024 44.7361C30.9074 42.5425 32.0587 40.5761 34.1674 39.2918C34.6066 39.0239 34.9202 38.4374 35.1346 37.9315C36.2697 35.256 39.3574 33.9967 41.9971 35.172C44.151 36.1314 45.2772 37.8569 45.1909 40.1398C45.1232 41.9153 45.7724 43.4454 46.245 45.0526C46.2857 45.1925 46.5762 45.3338 46.7578 45.3436C47.4085 45.3785 48.0656 45.3927 48.7134 45.3372C48.9352 45.3181 49.241 45.112 49.3298 44.9118C49.9525 43.5092 50.3456 42.0723 50.3461 40.4951C50.3461 38.2338 51.0783 36.2659 53.3357 35.2545C56.1692 33.9849 59.3537 35.2653 60.3754 37.8363C60.6767 38.5945 61.4113 39.2555 62.093 39.7708C63.2649 40.6571 64.1506 41.7126 64.7734 43.0371C66.3928 46.4812 68.0805 49.8943 69.673 53.351C70.4959 55.1373 71.4205 56.9334 71.8661 58.8257C72.77 62.6643 71.5908 66.0676 69.0198 69.0013C66.7408 71.6022 63.8076 72.7736 60.4038 72.7211C57.796 72.6808 55.4042 71.8215 53.454 70.0843C51.0111 67.9084 49.5246 65.172 49.3156 61.8472C49.2783 61.2583 49.0834 61.0488 48.5073 61.1013C48.0601 61.1438 47.6099 61.1438 47.1627 61.1013C46.5522 61.04 46.3049 61.2264 46.2656 61.8865C46.1498 63.8097 45.5506 65.5945 44.5362 67.2385C40.786 73.3144 32.9547 74.5083 27.7411 70.1447C23.6743 66.7409 22.1957 61.4586 24.567 56.2032C25.7939 53.4772 27.1419 50.8051 28.4355 48.106C28.4792 48.0142 28.5013 47.8812 28.5739 47.84C28.7648 47.733 28.9778 47.6668 29.1819 47.5839C29.2575 47.8076 29.4548 48.0805 29.3876 48.2468C29.0759 49.0198 28.6917 49.7632 28.3325 50.517C28.28 50.6274 28.1906 50.7344 28.1818 50.8478C28.1686 51.0156 28.1538 51.2512 28.249 51.3385C28.3305 51.4136 28.5837 51.3616 28.7305 51.2968C29.7517 50.8453 30.7297 50.2662 31.7868 49.935C34.2675 49.1596 36.7369 49.3461 39.1435 50.33C39.2563 50.3762 39.4085 50.3983 39.4698 50.4836C39.6053 50.6721 39.6946 50.8939 39.8025 51.1025C39.5606 51.1785 39.2932 51.3626 39.0802 51.313C38.133 51.0931 37.2154 50.6898 36.2604 50.5656C32.8806 50.1239 29.8542 51.0382 27.5041 53.5169C22.7626 58.5117 23.7538 65.7157 28.5086 69.5779C31.5606 72.0581 36.8321 72.6205 40.3846 70.2016C46.5546 66.0038 46.5782 58.4238 42.8167 54.1966C42.481 53.8197 42.1645 53.4232 41.8048 53.0708C41.5103 52.7808 41.4927 52.4942 41.7518 52.2184C42.057 51.8931 42.2646 52.188 42.4413 52.4024C43.1651 53.2804 43.8698 54.174 44.6005 55.0441C44.7257 55.1913 44.9543 55.2541 45.1349 55.3562C45.2027 55.1599 45.3273 54.967 45.3312 54.7717C45.3479 53.3034 45.3406 51.8347 45.3406 50.3659L45.2964 50.3664ZM60.7056 71.7985C66.4139 71.9717 71.2492 66.7129 71.1849 61.0768C71.1221 55.5707 66.7565 50.4832 60.8573 50.4473C54.699 50.4105 50.4251 55.502 50.2254 60.8437C50.0124 66.5687 54.9596 71.9923 60.7071 71.7985H60.7056ZM50.3584 50.227H50.2563C50.2563 51.6958 50.2465 53.1641 50.2656 54.6319C50.2691 54.89 50.3937 55.1462 50.4619 55.4033C50.6617 55.236 50.8972 55.0971 51.0538 54.8964C51.5263 54.2893 51.9027 53.5949 52.4337 53.0473C56.2615 49.0978 61.9948 48.3852 66.7825 51.2173C66.9592 51.3223 67.2099 51.3022 67.4263 51.34C67.4136 51.1309 67.4622 50.8924 67.3773 50.7163C66.1995 48.2135 65.0305 45.7043 63.8047 43.2241C62.4555 40.4923 60.2445 39.1531 57.1718 39.2064C53.8691 39.2589 50.804 41.7529 50.3957 45.0408C50.1842 46.7432 50.3584 48.4961 50.3584 50.227ZM49.2567 53.2882C49.2567 51.2315 49.2478 49.1743 49.2635 47.1181C49.267 46.6765 49.1251 46.4802 48.6688 46.4964C48.0588 46.5175 47.4468 46.5116 46.8363 46.4964C46.4688 46.488 46.3348 46.6436 46.3353 47.0072C46.3422 51.1815 46.3422 55.3559 46.3353 59.5304C46.3353 59.9427 46.5016 60.0634 46.8844 60.0501C47.4537 60.03 48.0259 60.0217 48.5942 60.0501C49.0883 60.0762 49.2768 59.9186 49.2694 59.393C49.2405 57.3609 49.2567 55.3243 49.2567 53.2882ZM38.0059 38.2195C40.1593 38.2583 41.9127 38.9036 43.4532 40.1501C43.6249 40.2885 43.8727 40.3327 44.0852 40.421C44.1422 40.1967 44.2663 39.9666 44.2452 39.7502C44.0715 37.9889 43.2191 36.6585 41.5461 36.0205C39.8992 35.3899 38.3431 35.6667 37.0146 36.8744C36.7471 37.1207 36.5304 37.417 36.3767 37.7465C36.1691 38.197 36.3428 38.3957 36.8404 38.352C37.2865 38.3128 37.7292 38.2529 38.0059 38.2195ZM57.5026 38.2195C57.7411 38.2431 58.1248 38.3035 58.5096 38.3118C58.755 38.3177 59.0003 38.246 59.2457 38.2092C59.1804 37.9462 59.1804 37.6405 59.0401 37.4241C58.118 36.0186 56.0147 35.3629 54.2971 35.9136C52.6084 36.4534 51.3114 38.171 51.3453 39.8463C51.3487 40.0318 51.4483 40.2154 51.5033 40.3994C51.6947 40.3273 51.9209 40.2978 52.072 40.1756C53.6149 38.9306 55.3684 38.2686 57.5026 38.2195Z"
                                        fill="black" />
                                    <path
                                        d="M43.3389 61.1689C43.1755 66.1254 39.3286 69.8212 34.5277 69.6347C29.9554 69.4575 26.2714 65.4919 26.4059 60.8995C26.5448 56.2066 30.5615 52.2502 35.2191 52.4509C39.6647 52.6472 43.3954 56.6713 43.3389 61.1689ZM42.3574 61.0757C42.4065 56.5447 38.5606 53.6272 35.2628 53.4422C31.1087 53.2091 27.4772 56.8676 27.3609 60.7749C27.2259 65.3878 30.9389 68.56 34.5964 68.6832C38.594 68.8171 42.4134 65.6028 42.3584 61.0757H42.3574Z"
                                        fill="black" />
                                    <path
                                        d="M68.2091 61.3593C68.1973 58.0134 66.7075 55.6824 63.8307 54.2063C63.7223 54.1508 63.5515 54.1223 63.5162 54.0369C63.418 53.8019 63.3778 53.5433 63.3145 53.294C63.5412 53.238 63.8204 53.0687 63.9868 53.1467C65.2951 53.7489 66.4218 54.619 67.2983 55.757C69.4267 58.5194 69.7029 61.5325 68.2675 64.6693C66.8198 67.8376 64.269 69.4958 60.8083 69.645C56.6296 69.8251 52.6953 66.3079 52.3185 62.1445C52.0137 58.7584 53.2597 56.0902 55.9544 54.0134C57.1709 53.0756 58.5155 52.6457 59.9853 52.4887C60.4132 52.4425 61.0718 52.2698 61.114 52.9343C61.1528 53.5315 60.5251 53.3906 60.1256 53.4387C56.5295 53.877 52.9471 56.9966 53.2553 61.5909C53.5105 65.4118 56.3867 68.3631 60.1801 68.6458C63.9588 68.926 67.2836 66.4075 68.059 62.6671C68.1532 62.2107 68.1679 61.7381 68.2091 61.3593Z"
                                        fill="black" />
                                </svg>