<svg width="259" height="93" viewBox="0 0 259 93" fill="none" xmlns="http://www.w3.org/2000/svg">
<circle cx="46.0638" cy="46.0638" r="46.0638" fill="white"/>
<path fill-rule="evenodd" clip-rule="evenodd" d="M33.4515 52.8486C32.0328 55.9386 31.2727 59.2945 31.2221 62.7016C31.1613 66.1087 31.8098 69.4851 33.1272 72.6262C35.5897 66.7635 40.4234 62.5277 46.1084 59.7754C45.5511 59.4991 44.9836 59.2433 44.406 58.9978C40.849 57.4938 37.0591 55.6214 33.4515 52.8486Z" fill="#EF562C"/>
<path fill-rule="evenodd" clip-rule="evenodd" d="M74.5942 20.3223C74.5942 20.3223 57.9345 29.3056 46.1085 38.6776C49.2803 41.1946 52.1177 43.732 54.1647 46.1364C56.0496 48.0907 57.6001 50.3621 58.7452 52.8483C66.0414 47.221 72.5371 37.8693 74.5841 20.3325" fill="#EF562C"/>
<path fill-rule="evenodd" clip-rule="evenodd" d="M38.0319 46.1364C40.0992 43.732 42.9265 41.1946 46.0882 38.6776C34.2825 29.3158 17.6126 20.3223 17.6126 20.3223C19.6596 37.8591 26.1553 47.2107 33.4515 52.8381C34.5966 50.3621 36.1369 48.0907 38.0319 46.1262V46.1364Z" fill="#477FC1"/>
<path fill-rule="evenodd" clip-rule="evenodd" d="M46.0983 59.7754C51.763 62.5277 56.5765 66.7226 59.039 72.5443C59.039 72.5443 59.039 72.5546 59.0491 72.5648C59.0491 72.5648 59.0593 72.5648 59.0694 72.5648C59.0795 72.5648 59.0795 72.5648 59.0897 72.5648C59.0897 72.5648 59.0998 72.5546 59.0998 72.5443C60.3969 69.4135 61.0252 66.0473 60.9644 62.6607C60.9036 59.274 60.1436 55.9283 58.735 52.8486C55.1376 55.6214 51.3374 57.504 47.7805 58.9978C47.213 59.2433 46.6455 59.4991 46.0781 59.7754H46.0983Z" fill="#477FC1"/>
<path fill-rule="evenodd" clip-rule="evenodd" d="M54.1749 46.1355C52.1076 43.7311 49.2702 41.1937 46.1186 38.6768C42.9468 41.1937 40.1093 43.7311 38.0623 46.1355C36.1775 48.1 34.627 50.3612 33.4819 52.8474C37.0794 55.6304 40.8795 57.5028 44.4364 58.9966C45.014 59.2421 45.5714 59.4979 46.1389 59.7742C46.6962 59.5082 47.2637 59.2421 47.8413 58.9966C51.3982 57.4926 55.1882 55.6202 58.7857 52.8474C57.6406 50.3714 56.1002 48.1 54.2154 46.1355H54.185H54.1749Z" fill="#2D3891"/>
<g clip-path="url(#clip0_1140_537)">
<path fill-rule="evenodd" clip-rule="evenodd" d="M119.713 44.3469L118.396 50.8848H118.021L116.571 44.4083L108.961 22.5537H103.611L115.122 55.4583H121.101L132.613 22.5537H127.262L119.713 44.3469Z" fill="white"/>
<path d="M146.01 22.3701H140.973V55.4589H146.01V22.3701Z" fill="white"/>
<path fill-rule="evenodd" clip-rule="evenodd" d="M170.857 44.3469L169.54 50.8848H169.165L167.716 44.4083L160.106 22.5537H154.755L166.267 55.4583H172.246L183.758 22.5537H178.407L170.857 44.3469Z" fill="white"/>
<path fill-rule="evenodd" clip-rule="evenodd" d="M199.799 22.5644C194.631 23.5773 190.486 27.3221 190.486 33.2359V55.469H195.513V33.2359C195.513 30.1869 197.965 28.2838 200.549 27.5881C202.626 27.0765 203.194 27.3323 205.515 27.7109V22.5132C203.62 22.1244 201.674 22.1449 199.789 22.5849" fill="white"/>
<path d="M219.246 22.3701H214.209V55.4589H219.246V22.3701Z" fill="white"/>
<path fill-rule="evenodd" clip-rule="evenodd" d="M235.916 44.7974V27.6494H242.604V22.5643H235.916V10.4297H230.95V44.7974C230.95 52.1641 236.676 56.4921 244.286 55.4689V51.0898C239.067 52.1027 235.916 48.5524 235.916 44.8076" fill="white"/>
<path d="M259 22.3701H253.974V55.4589H259V22.3701Z" fill="white"/>
<path fill-rule="evenodd" clip-rule="evenodd" d="M119.49 66.877C120.078 66.877 120.655 67.0304 121.152 67.3374C121.648 67.6443 122.044 68.0945 122.297 68.6368L121.203 69.1893C121.03 68.8721 120.787 68.6061 120.483 68.4219C120.179 68.2377 119.824 68.1354 119.47 68.1354C118.629 68.1354 117.788 68.5345 117.788 69.353V72.2485C117.788 73.067 118.629 73.4661 119.47 73.4661C119.824 73.4661 120.179 73.374 120.483 73.1898C120.787 73.0056 121.04 72.7396 121.203 72.4224L122.297 72.9443C122.044 73.4865 121.638 73.9367 121.132 74.2539C120.625 74.5711 120.047 74.7348 119.449 74.7245C117.98 74.7245 116.521 73.8958 116.521 72.2485V69.353C116.521 67.7159 117.99 66.877 119.47 66.877" fill="white"/>
<path fill-rule="evenodd" clip-rule="evenodd" d="M141.46 69.4658L141.227 68.2482H141.075L140.821 69.4862L140.203 71.4097H142.088L141.47 69.4658H141.46ZM140.497 66.9795H141.804L144.561 74.6736H143.264L142.534 72.6785H139.798C139.555 73.4151 139.362 73.9267 139.109 74.6736H137.761L140.507 66.9795H140.497Z" fill="white"/>
<path fill-rule="evenodd" clip-rule="evenodd" d="M164.362 69.5271C164.362 69.343 164.321 69.169 164.25 69.0053C164.179 68.8416 164.068 68.6882 163.936 68.5756C163.804 68.4528 163.652 68.3607 163.48 68.3096C163.308 68.2482 163.136 68.2277 162.953 68.2482H161.23V70.8675H162.953C163.136 70.8777 163.318 70.8572 163.48 70.7959C163.652 70.7345 163.804 70.6424 163.936 70.5094C164.068 70.3866 164.169 70.2331 164.24 70.0694C164.311 69.9057 164.352 69.7215 164.342 69.5374L164.362 69.5271ZM161.241 74.6634H160.014V66.9693H162.963C163.308 66.9488 163.642 67 163.967 67.1125C164.291 67.2353 164.585 67.4092 164.828 67.6548C165.071 67.8901 165.274 68.1766 165.406 68.4938C165.537 68.8109 165.608 69.1588 165.598 69.4964C165.598 70.7754 164.716 71.9929 162.973 71.9929H161.241V74.6531V74.6634Z" fill="white"/>
<path d="M182.298 66.9688H181.062V74.6629H182.298V66.9688Z" fill="white"/>
<path fill-rule="evenodd" clip-rule="evenodd" d="M203.64 66.959V68.2175H201.329V74.6633H200.083V68.2175H197.772V66.959H203.65H203.64Z" fill="white"/>
<path fill-rule="evenodd" clip-rule="evenodd" d="M222.792 69.4658L222.559 68.2482H222.407L222.144 69.4862L221.536 71.4097H223.421L222.792 69.4658ZM221.84 66.9795H223.137L225.893 74.6736H224.586L223.857 72.6785H221.12C220.867 73.4151 220.675 73.9267 220.431 74.6736H219.094L221.83 66.9795H221.84Z" fill="white"/>
<path fill-rule="evenodd" clip-rule="evenodd" d="M246.069 74.6629H241.357V66.9688H242.594V73.4044H246.069V74.6629Z" fill="white"/>
</g>
<defs>
<clipPath id="clip0_1140_537">
<rect width="238.141" height="64.3154" fill="white" transform="translate(20.8591 10.4297)"/>
</clipPath>
</defs>
</svg>
