<svg width="235" height="63" viewBox="0 0 235 63" fill="none" xmlns="http://www.w3.org/2000/svg">
<path fill-rule="evenodd" clip-rule="evenodd" d="M97.5518 33.1521L96.2473 39.5447H95.8751L94.4476 33.2135L86.9347 11.8564H81.6587L93.0202 44.0185H98.9178L110.276 11.8564H105L97.5518 33.1521Z" fill="#2D3891"/>
<path d="M123.499 11.6724H118.534V44.0151H123.499V11.6724Z" fill="#2D3891"/>
<path fill-rule="evenodd" clip-rule="evenodd" d="M148.025 33.1521L146.72 39.5447H146.348L144.921 33.2135L137.408 11.8564H132.132L143.493 44.0185H149.391L160.749 11.8564H155.473L148.025 33.1521Z" fill="#2D3891"/>
<path fill-rule="evenodd" clip-rule="evenodd" d="M176.581 11.8601C171.478 12.8539 167.395 16.5074 167.395 22.2893V44.0222H172.36V22.2893C172.36 19.3116 174.781 17.4506 177.329 16.7676C179.378 16.2689 179.934 16.5182 182.232 16.8904V11.8095C180.366 11.4255 178.438 11.4477 176.581 11.8746" fill="#2D3891"/>
<path d="M195.77 11.6724H190.801V44.0151H195.77V11.6724Z" fill="#2D3891"/>
<path fill-rule="evenodd" clip-rule="evenodd" d="M212.219 33.5859V16.8255H218.818V11.8566H212.219V0H207.315V33.5859C207.315 40.788 212.964 45.0124 220.477 44.0151V39.7328C215.323 40.7266 212.219 37.2502 212.219 33.5895" fill="#2D3891"/>
<path d="M235 11.6724H230.035V44.0151H235V11.6724Z" fill="#2D3891"/>
<path fill-rule="evenodd" clip-rule="evenodd" d="M97.3283 55.1742C97.9065 55.1656 98.475 55.3231 98.9663 55.628C99.4576 55.9329 99.8511 56.3724 100.1 56.8943L99.0159 57.4364C98.8504 57.1257 98.6036 56.8658 98.3019 56.6844C98.0002 56.503 97.655 56.407 97.303 56.4064C96.4754 56.4064 95.6479 56.8003 95.6479 57.5954V60.4213C95.6479 61.2163 96.4754 61.6102 97.303 61.6102C97.6547 61.6147 98.0008 61.5219 98.3031 61.3421C98.6054 61.1623 98.852 60.9024 99.0159 60.5911L100.1 61.1007C99.8476 61.6284 99.4494 62.0728 98.9525 62.3814C98.4556 62.6901 97.8807 62.8501 97.2958 62.8425C95.8503 62.8425 94.4048 62.0366 94.4048 60.4213V57.5954C94.4048 55.9945 95.8503 55.1742 97.3138 55.1742" fill="#2D3891"/>
<path fill-rule="evenodd" clip-rule="evenodd" d="M119.01 57.704L118.776 56.5151H118.627L118.374 57.7257L117.767 59.6048H119.625L119.01 57.704ZM118.064 55.272H119.35L122.068 62.7885H120.785L120.062 60.8371H117.363C117.12 61.5598 116.929 62.0585 116.683 62.7885H115.357L118.064 55.272Z" fill="#2D3891"/>
<path fill-rule="evenodd" clip-rule="evenodd" d="M141.614 57.7582C141.614 57.5822 141.578 57.4081 141.507 57.247C141.436 57.0859 141.332 56.9414 141.202 56.8227C141.073 56.704 140.919 56.6137 140.752 56.5577C140.586 56.5016 140.409 56.4809 140.234 56.497H138.535V59.0555H140.234C140.411 59.0674 140.589 59.0427 140.756 58.9828C140.924 58.9229 141.077 58.8292 141.206 58.7074C141.336 58.5857 141.439 58.4386 141.509 58.2753C141.579 58.112 141.615 57.9359 141.614 57.7582ZM138.535 62.7812H137.325V55.2647H140.234C140.57 55.2433 140.908 55.2916 141.225 55.4068C141.542 55.5219 141.831 55.7013 142.076 55.9338C142.32 56.1662 142.514 56.4467 142.644 56.7575C142.775 57.0684 142.84 57.4029 142.836 57.7401C142.836 58.9905 141.965 60.183 140.245 60.183H138.535V62.7812Z" fill="#2D3891"/>
<path d="M159.314 55.2646H158.093V62.7848H159.314V55.2646Z" fill="#2D3891"/>
<path fill-rule="evenodd" clip-rule="evenodd" d="M180.367 55.2539V56.4862H178.084V62.7813H176.851V56.4862H174.567V55.2539H180.367Z" fill="#2D3891"/>
<path fill-rule="evenodd" clip-rule="evenodd" d="M199.275 57.704L199.043 56.5151H198.895L198.639 57.7257L198.035 59.6048H199.893L199.275 57.704ZM198.332 55.272H199.614L202.336 62.7885H201.049L200.326 60.8371H197.631C197.385 61.5598 197.193 62.0585 196.951 62.7885H195.636L198.332 55.272Z" fill="#2D3891"/>
<path fill-rule="evenodd" clip-rule="evenodd" d="M222.244 62.7848H217.589V55.2646H218.811V61.5525H222.244V62.7848Z" fill="#2D3891"/>
<path fill-rule="evenodd" clip-rule="evenodd" d="M15.629 43.5273C14.2319 46.549 13.481 49.829 13.4244 53.1575C13.3677 56.486 14.0066 59.7897 15.3002 62.8571C17.7286 57.1258 22.4987 52.9917 28.1108 50.2958C27.5579 50.0284 27.0014 49.7791 26.434 49.5406C22.9287 48.0734 19.1813 46.2449 15.629 43.5273Z" fill="#EF562C"/>
<path fill-rule="evenodd" clip-rule="evenodd" d="M56.2256 11.7446C56.2256 11.7446 39.7904 20.5296 28.1108 29.6831C31.2439 32.1404 34.0373 34.6231 36.061 36.972C37.9255 38.8868 39.4528 41.1031 40.5782 43.5273C47.7803 38.0272 54.191 28.8881 56.2111 11.7446" fill="#EF562C"/>
<path fill-rule="evenodd" clip-rule="evenodd" d="M20.1465 36.972C22.1846 34.6231 24.978 32.1404 28.0966 29.6831C16.4496 20.5296 0 11.7446 0 11.7446C2.01645 28.8881 8.42718 38.0272 15.6293 43.5273C16.7572 41.1045 18.2841 38.8886 20.1465 36.972Z" fill="#477FC1"/>
<path fill-rule="evenodd" clip-rule="evenodd" d="M28.1108 50.2958C33.6976 52.9808 38.4461 57.086 40.8853 62.774C40.8877 62.7812 40.8923 62.7875 40.8985 62.792C40.9046 62.7964 40.912 62.7989 40.9197 62.7989C40.9273 62.7989 40.9347 62.7964 40.9408 62.792C40.947 62.7875 40.9516 62.7812 40.954 62.774C42.2311 59.7161 42.8585 56.426 42.7963 53.1127C42.7341 49.7994 41.9836 46.5352 40.5926 43.5273C37.0403 46.2412 33.2929 48.0734 29.7876 49.5406C29.2239 49.7791 28.6637 50.0284 28.1108 50.2958Z" fill="#477FC1"/>
<path fill-rule="evenodd" clip-rule="evenodd" d="M36.0791 36.9715C34.0374 34.6226 31.244 32.1399 28.1289 29.6826C24.9959 32.1399 22.2024 34.6226 20.1788 36.9715C18.3164 38.8881 16.7895 41.104 15.6616 43.5268C19.2139 46.2443 22.9613 48.0728 26.4666 49.54C27.034 49.7785 27.5905 50.0315 28.1434 50.2953C28.6963 50.0315 29.2528 49.7785 29.8202 49.54C33.3255 48.0728 37.0729 46.2443 40.6252 43.5268C39.4976 41.1048 37.9719 38.889 36.1116 36.9715H36.0791Z" fill="#2D3891"/>
</svg>
