<svg width="95" height="95" viewBox="0 0 95 95" fill="none" xmlns="http://www.w3.org/2000/svg">
<ellipse cx="47.05" cy="47.07" rx="46.05" ry="46.07" fill="white"/>
<path d="M47.05 93.64C72.7591 93.64 93.6 72.7897 93.6 47.07C93.6 21.3503 72.7591 0.5 47.05 0.5C21.3409 0.5 0.5 21.3503 0.5 47.07C0.5 72.7897 21.3409 93.64 47.05 93.64Z" stroke="#2E3192" stroke-opacity="0.2" stroke-linejoin="round"/>
<circle opacity="0.6" cx="47.09" cy="47.09" r="41.09" fill="#C8DCFE"/>
<path d="M71.9758 56.3843C71.9758 59.3642 71.9758 62.3442 71.9758 65.3244C71.9758 66.5659 71.338 67.2059 70.103 67.2076C67.969 67.2102 65.8349 67.2102 63.7009 67.2076C62.5036 67.2076 61.8809 66.5979 61.8553 65.4063C61.8471 65.034 61.8315 64.6592 61.864 64.2896C61.8995 63.8844 61.7366 63.7964 61.3492 63.7505C59.5977 63.5425 58.019 64.1652 56.4161 64.6973C52.9798 65.8387 49.542 66.9774 46.1028 68.1133C45.5421 68.2988 44.9891 68.5206 44.4163 68.6567C43.5227 68.8682 42.6626 68.6974 41.8652 68.255C35.6807 64.8242 29.4985 61.39 23.3186 57.9525C21.944 57.1881 21.6459 55.115 22.6863 53.7175C23.5287 52.5844 24.4916 52.2442 25.8393 52.694C29.2903 53.8441 32.7323 55.0219 36.1769 56.191C36.7437 56.3834 36.761 56.3756 36.7359 55.8058C36.6379 53.5997 37.8565 52.3231 40.0665 52.3222C42.0988 52.3222 44.1316 52.3352 46.1635 52.3105C46.5535 52.3057 46.9591 52.1935 47.3309 52.0574C49.6804 51.1981 51.9953 50.234 54.3751 49.4709C56.3108 48.8503 58.3618 48.9643 60.3759 48.9942C60.7313 48.999 61.0875 49.0102 61.4419 49.0336C61.7483 49.054 61.8753 48.9266 61.8653 48.6202C61.8523 48.1466 61.8428 47.6717 61.8614 47.1985C61.9013 46.1676 62.5439 45.5319 63.5809 45.5267C65.7995 45.5145 68.0182 45.5145 70.2369 45.5267C71.302 45.5327 71.9737 46.22 71.9754 47.2925C71.9803 50.323 71.9805 53.3535 71.9758 56.3843ZM61.8553 56.4384H61.8527C61.8527 54.7285 61.8527 53.0184 61.8527 51.3082C61.8527 50.3115 62.0612 50.3362 60.876 50.3115C58.7093 50.2643 56.5097 50.1161 54.4241 50.8073C52.1157 51.5725 49.8698 52.5254 47.5891 53.3769C47.2191 53.5147 46.8117 53.617 46.4191 53.6209C44.2347 53.6434 42.0498 53.6261 39.865 53.6326C38.7816 53.6361 38.0081 54.4291 38.0229 55.4959C38.0376 56.5858 38.6967 57.2115 39.8255 57.2111C42.7215 57.2111 45.6175 57.2041 48.513 57.2137C50.1328 57.2189 51.594 58.7442 51.5463 60.3527C51.5307 60.868 51.1598 61.2016 50.7165 61.0027C50.4998 60.9057 50.2923 60.5759 50.2511 60.3237C50.063 59.1736 49.3532 58.5293 48.1819 58.5293C45.6253 58.5293 43.0686 58.5041 40.5119 58.5414C39.4949 58.5566 38.5424 58.3863 37.5856 58.0569C33.5224 56.6576 29.4524 55.278 25.3756 53.9182C25.1299 53.8358 24.8123 53.7639 24.5908 53.8497C23.9161 54.1097 23.511 54.6609 23.3693 55.3616C23.2501 55.9501 23.618 56.5871 24.1956 56.9181C24.577 57.137 24.9626 57.3489 25.347 57.5629C31.0693 60.7451 36.7919 63.9266 42.5148 67.1075C43.2866 67.5365 44.064 67.5261 44.8578 67.1881C45.0598 67.1015 45.2595 67.0079 45.4675 66.939C49.1136 65.7326 52.7692 64.5556 56.4031 63.3141C58.032 62.7573 59.6488 62.2529 61.399 62.4475C61.7513 62.4869 61.8653 62.3279 61.8627 61.9708C61.8475 60.1309 61.8553 58.284 61.8553 56.4384ZM70.639 56.3721C70.639 53.4287 70.639 50.485 70.639 47.5412C70.639 46.8821 70.5792 46.8245 69.9067 46.8241C67.9099 46.8241 65.9132 46.8241 63.9167 46.8241C63.2325 46.8241 63.1701 46.8886 63.1701 47.5833C63.1701 53.4535 63.1701 59.3239 63.1701 65.1944C63.1701 65.834 63.2346 65.9024 63.8573 65.9024C65.8879 65.9024 67.9185 65.9024 69.9491 65.9024C70.5861 65.9024 70.6399 65.8474 70.6399 65.2026C70.6402 62.2594 70.6399 59.3159 70.639 56.3721Z" fill="black"/>
<path d="M26.8201 36.8126C26.8634 30.3095 32.0582 25.2274 38.6115 25.2738C44.8996 25.3171 50.0398 30.5674 50.003 36.9079C49.9662 43.3529 44.7436 48.5069 38.3117 48.4463C31.9061 48.3869 26.7763 43.1921 26.8201 36.8126ZM48.69 36.8628C48.6943 31.2295 44.0503 26.5824 38.4113 26.579C32.7823 26.5751 28.1136 31.2399 28.124 36.8568C28.1366 42.5131 32.7589 47.1302 38.4083 47.1302C44.0577 47.1302 48.6874 42.51 48.69 36.8628Z" fill="black"/>
<path d="M41.5399 38.7321C41.5312 40.1054 40.7048 41.0791 39.2163 41.3911C38.263 41.5913 38.3722 41.3984 38.2517 42.5221C38.237 42.6564 38.2184 42.7907 38.211 42.9259C38.1815 43.4984 37.7569 43.3593 37.4228 43.3541C37.0328 43.3493 37.0852 43.0798 37.1129 42.812C37.2347 41.6285 37.2308 41.6281 36.1163 41.2719C35.3692 41.0331 35.2496 40.852 35.3016 40.0508C35.3298 39.6261 35.445 39.5971 35.8545 39.724C36.5565 39.9407 37.2711 40.137 37.9943 40.2566C38.305 40.3077 38.6755 40.2007 38.9763 40.069C39.9391 39.6478 40.0596 38.5423 39.1756 37.9812C38.6123 37.6241 37.9575 37.4061 37.3365 37.1435C36.6029 36.8333 35.9308 36.4554 35.6166 35.6672C34.9965 34.115 35.8099 32.5628 37.4891 32.2239C38.0832 32.1043 38.3011 31.8534 38.2691 31.2931C38.2621 31.1761 38.2877 31.0574 38.3003 30.9395C38.3575 30.4043 38.78 30.1478 39.2536 30.4009C39.3676 30.4615 39.4334 30.7016 39.4369 30.8615C39.4456 31.2298 39.2614 31.6874 39.4209 31.9448C39.573 32.1897 40.0622 32.2226 40.4019 32.3526C40.9219 32.5506 41.198 33.1365 40.9479 33.6132C40.8959 33.712 40.5831 33.7315 40.4076 33.6998C39.8321 33.5885 39.2688 33.4086 38.6911 33.3098C38.4545 33.27 38.1828 33.341 37.9458 33.419C37.1264 33.6881 36.8776 34.602 37.5034 35.1866C37.8375 35.4986 38.2886 35.6979 38.7093 35.9016C39.2111 36.1434 39.7493 36.3094 40.249 36.5542C41.1425 36.9906 41.5516 37.742 41.5399 38.7321Z" fill="black"/>
</svg>
