<svg width="70" height="70" viewBox="0 0 70 70" fill="none" xmlns="http://www.w3.org/2000/svg">
<g opacity="0.45098">
<path d="M67.4494 34.9729C67.4494 41.2018 67.4395 47.43 67.457 53.6583C67.4611 55.1166 66.9005 56.2325 65.6977 57.0416C63.628 58.4364 61.2924 59.155 58.8885 59.6474C50.9219 61.2807 42.9868 61.2048 35.1094 59.0716C34.3139 58.862 33.5392 58.5802 32.7948 58.2299C32.1228 57.9073 31.6036 57.9539 30.9404 58.3185C23.4311 62.4444 14.9705 61.1121 9.09395 56.0365C2.52037 50.3619 0.840369 40.6797 4.8642 32.8304C9.02454 24.715 18.8957 20.8137 27.5734 23.6837C28.4093 23.9602 28.7914 23.6884 28.7914 22.8087C28.7914 20.5617 28.7955 18.317 28.7867 16.0683C28.7815 14.747 29.3024 13.7011 30.3716 12.9299C32.3264 11.5218 34.5716 10.8031 36.8822 10.302C44.8319 8.57593 52.7699 8.6156 60.6688 10.6357C62.4619 11.0942 64.1851 11.7539 65.7257 12.8191C66.8924 13.6264 67.4611 14.7167 67.457 16.1534C67.4395 22.4272 67.4494 28.6992 67.4494 34.9729ZM39.2663 41.8119C39.2908 32.1455 31.3913 24.2274 21.7581 24.1194C12.1658 24.0115 3.98804 32.3339 4.05804 41.6993C4.12979 51.3115 11.9575 59.1993 21.4787 59.3592C30.8966 59.5184 39.3777 51.3803 39.2663 41.8119ZM48.0548 20.8755C48.5214 20.8755 48.9881 20.8872 49.4548 20.8755C53.5778 20.7548 57.6623 20.3622 61.6004 19.0316C63.0173 18.5533 64.3741 17.9495 65.4334 16.8319C66.2723 15.9464 66.2729 15.4517 65.4119 14.5615C64.0422 13.1434 62.2496 12.5274 60.429 12.0129C55.5413 10.6328 50.5351 10.3796 45.4957 10.582C41.8417 10.7284 38.2291 11.1729 34.7437 12.3495C33.3064 12.8343 31.9198 13.4234 30.8354 14.5539C29.975 15.4529 29.972 15.972 30.8564 16.8744C32.198 18.2476 33.9434 18.8607 35.7202 19.3734C39.7487 20.5325 43.8845 20.858 48.0548 20.8755ZM47.9498 26.0934C52.2303 26.0538 56.3031 25.7434 60.2785 24.6351C61.8459 24.1982 63.3591 23.6405 64.7119 22.6897C65.7875 21.9314 66.2285 20.9531 66.0588 19.6628C65.9853 19.0964 65.5005 18.7475 65.0479 19.0141C63.2226 20.0898 61.2253 20.6947 59.1801 21.1474C53.3007 22.4488 47.3635 22.6139 41.4025 21.8899C37.8377 21.4571 34.3255 20.788 31.1358 18.9849C30.6907 18.7329 30.2725 19.0841 30.2538 19.4067C30.2042 20.2589 29.965 21.152 30.7006 21.9232C31.8673 23.1482 33.3355 23.7998 34.8866 24.3032C39.1899 25.7003 43.639 26.0392 47.9498 26.0934ZM47.5467 59.3312C51.591 59.3259 55.0682 59.0792 58.4912 58.3243C60.6635 57.8448 62.7997 57.258 64.6745 55.9624C65.749 55.2187 66.2408 54.2708 66.0617 52.9583C65.9742 52.3201 65.5198 52.057 64.9405 52.3417C64.2049 52.7039 63.4734 53.0884 62.7058 53.3701C58.2864 54.9912 53.6734 55.4701 49.0126 55.5588C44.889 55.6399 40.7987 55.2852 36.7673 54.3606C36.5007 54.3023 36.1058 54.3244 35.9168 54.4837C35.2553 55.0402 34.6603 55.6749 34.0361 56.2757C33.6954 56.6041 33.7485 56.9354 34.1044 57.1647C34.4414 57.3729 34.805 57.5346 35.1853 57.6453C39.3876 58.9473 43.7189 59.2962 47.5449 59.3312H47.5467ZM48.0804 31.6159C51.6236 31.6223 55.1429 31.3633 58.6084 30.5909C60.6729 30.1307 62.7075 29.5718 64.5001 28.3743C65.5851 27.648 66.2577 26.7345 66.0681 25.3269C65.9701 24.6007 65.5594 24.3306 64.9014 24.6526C64.1052 25.0417 63.3054 25.4401 62.473 25.7388C58.5834 27.1353 54.5309 27.6422 50.4319 27.8003C45.2081 27.9992 40.0345 27.6159 34.9852 26.1529C34.5109 26.0153 34.077 26.1144 33.9352 26.5502C33.8582 26.7835 34.0805 27.1977 34.2852 27.4252C35.019 28.2553 35.8159 29.0299 36.5602 29.8507C36.9289 30.259 37.3133 30.5425 37.8797 30.6569C41.2455 31.3417 44.6493 31.6188 48.0804 31.6159ZM48.0851 53.7901C51.8989 53.7837 55.6842 53.4944 59.4018 52.5762C61.2194 52.127 62.9969 51.5688 64.5713 50.5007C65.6726 49.7534 66.2629 48.7904 66.0623 47.409C65.9748 46.8099 65.5046 46.4804 65 46.7673C63.3031 47.7403 61.4656 48.3359 59.575 48.7699C53.1222 50.251 46.6174 50.363 40.0853 49.4203C39.4098 49.3229 39.0318 49.5557 38.7436 50.1017C38.4846 50.5934 38.2309 51.0881 37.9538 51.5694C37.4918 52.3714 37.6785 52.7809 38.5955 52.9577C41.7291 53.5655 44.8972 53.7825 48.0851 53.7889V53.7901ZM47.7654 37.2619C51.6329 37.1651 55.4625 36.8834 59.2239 35.9786C61.1284 35.5195 62.9922 34.9455 64.636 33.8098C65.7006 33.0736 66.232 32.1391 66.0524 30.8179C65.9631 30.1628 65.5344 29.8921 64.9528 30.1727C64.1134 30.5764 63.2833 31.0203 62.4065 31.3207C57.1128 33.1325 51.6306 33.5484 46.0895 33.3489C44.0059 33.2737 41.9315 32.9686 39.8479 32.807C39.5638 32.7848 39.2062 32.9237 38.9909 33.1133C38.8667 33.2218 38.8965 33.6015 38.9705 33.8214C39.1899 34.4724 39.478 35.1001 39.7149 35.7464C39.9155 36.2924 40.2329 36.6384 40.8576 36.6868C43.1624 36.8659 45.4636 37.0677 47.7654 37.2608V37.2619ZM48.0962 48.3523C51.6924 48.2403 55.2578 47.9807 58.7665 47.1856C60.7219 46.7417 62.6486 46.198 64.359 45.0973C65.5046 44.3599 66.3055 43.44 66.0652 41.9228C65.9602 41.2624 65.5402 40.9148 65.0029 41.2228C62.949 42.3959 60.7073 43.0311 58.4113 43.4919C52.8498 44.6096 47.2498 44.7344 41.6189 44.1033C40.8413 44.0158 40.5368 44.245 40.3869 45.0232C40.3023 45.4595 40.2037 45.8929 40.1016 46.3258C39.8414 47.4242 40.031 47.7334 41.1831 47.8325C43.4867 48.0297 45.7915 48.1825 48.0962 48.3511V48.3523ZM48.151 42.7908C51.8138 42.698 55.4427 42.425 59.0133 41.5839C61.0293 41.1084 63.0044 40.5228 64.7299 39.2966C65.7799 38.5529 66.2314 37.6014 66.0512 36.3257C65.9672 35.7313 65.504 35.439 64.9715 35.7027C64.5934 35.8899 64.2265 36.1017 63.8415 36.2726C60.2721 37.8505 56.4764 38.4309 52.6322 38.7547C48.9742 39.0599 45.2948 38.9956 41.6498 38.5628C40.7672 38.4595 40.4697 38.7693 40.5531 39.6548C40.5992 40.1413 40.6435 40.6289 40.6628 41.1172C40.7007 42.0645 40.8734 42.2897 41.8347 42.3626C43.9376 42.5242 46.0446 42.6496 48.151 42.7896V42.7908Z" fill="#E3E3E3"/>
<path d="M23.2702 41.2067V42.1541C22.2966 42.1541 21.3499 42.1727 20.4037 42.1488C19.5165 42.1266 19.2055 42.4667 19.436 43.3085C19.7323 44.39 19.4307 45.4038 18.9868 46.3459C18.5936 47.1806 18.0015 47.9209 17.5255 48.7183C17.4048 48.9213 17.2683 49.276 17.3593 49.4066C17.5092 49.6219 17.8785 49.8774 18.0879 49.8278C19.8303 49.4195 21.4887 49.8418 23.157 50.2361C24.756 50.6124 26.3537 50.8405 27.9462 49.9981L28.3715 51.1899C27.0782 51.7878 25.7669 52.0596 24.3733 51.6846C23.5146 51.4536 22.661 51.2047 21.8125 50.9379C19.629 50.2525 17.5541 50.5879 15.5375 51.6029C15.4777 51.5298 15.4242 51.4518 15.3777 51.3696C14.925 50.34 14.9058 50.3166 15.7499 49.5711C17.6941 47.855 18.3515 45.7124 17.9286 43.1971C17.7886 42.3629 17.462 42.1278 16.6103 42.1605C16.1244 42.1791 15.6367 42.164 15.0936 42.164V41.2096C15.471 41.2096 15.8625 41.2131 16.2545 41.2096C17.0058 41.2009 17.263 40.8176 17.1044 40.0943C16.871 39.035 16.563 37.9669 16.5298 36.8947C16.4487 34.3281 17.8015 32.5985 20.2707 31.8816C21.7436 31.4546 23.2142 31.4691 24.6644 31.9831C26.4395 32.6125 27.4813 33.869 27.8459 35.8406C27.64 35.8838 27.43 35.9188 27.2246 35.9731C26.7696 36.0938 26.5462 35.9731 26.3496 35.4842C25.7249 33.9326 24.6451 32.8266 22.9196 32.56C21.0425 32.2683 19.6366 33.0739 18.5843 34.5806C18.029 35.3757 17.9426 36.2945 18.0791 37.2056C18.2343 38.2556 18.4828 39.2975 18.7208 40.3352C18.8643 40.9524 19.2604 41.24 19.933 41.2161C21.0203 41.1776 22.1082 41.2067 23.2702 41.2067Z" fill="#E3E3E3"/>
<path d="M17.5 29.5L10.5 35L9 47.5L12.5 54L25.5 56C27.1667 53.8333 30.7 49.3 31.5 48.5C32.3 47.7 31.8333 38.1667 31.5 33.5L24 29.5H17.5Z" fill="#171A78"/>
</g>
<path opacity="0.301961" d="M20.4639 49.7078V32.6295H21.5579V49.7078H20.4639ZM24.1464 37.753C24.0663 37.077 23.7417 36.5522 23.1724 36.1786C22.6031 35.805 21.9048 35.6182 21.0776 35.6182C20.4728 35.6182 19.9435 35.716 19.4899 35.9117C19.0407 36.1074 18.6893 36.3765 18.4358 36.7189C18.1867 37.0614 18.0622 37.4506 18.0622 37.8864C18.0622 38.2511 18.1489 38.5646 18.3224 38.8271C18.5003 39.085 18.7271 39.3007 19.0029 39.4742C19.2786 39.6432 19.5677 39.7833 19.8701 39.8944C20.1725 40.0012 20.4505 40.0879 20.704 40.1546L22.0916 40.5282C22.4474 40.6216 22.8433 40.7506 23.2791 40.9151C23.7194 41.0797 24.1397 41.3043 24.54 41.5889C24.9447 41.8691 25.2783 42.2294 25.5407 42.6697C25.8031 43.11 25.9343 43.6504 25.9343 44.2908C25.9343 45.0291 25.7408 45.6962 25.3539 46.2922C24.9714 46.8881 24.411 47.3618 23.6727 47.7131C22.9389 48.0645 22.0472 48.2402 20.9976 48.2402C20.0191 48.2402 19.1719 48.0823 18.4558 47.7665C17.7442 47.4507 17.1838 47.0104 16.7747 46.4456C16.3699 45.8808 16.1409 45.2248 16.0875 44.4776H17.7954C17.8398 44.9935 18.0133 45.4205 18.3157 45.7585C18.6226 46.092 19.0095 46.3411 19.4765 46.5056C19.9479 46.6658 20.455 46.7458 20.9976 46.7458C21.6291 46.7458 22.1962 46.6435 22.6987 46.4389C23.2013 46.2299 23.5993 45.9408 23.8929 45.5717C24.1864 45.1981 24.3332 44.7622 24.3332 44.2641C24.3332 43.8105 24.2064 43.4413 23.9529 43.1567C23.6994 42.872 23.3658 42.6408 22.9522 42.4629C22.5386 42.285 22.0916 42.1293 21.6113 41.9959L19.9302 41.5156C18.8628 41.2087 18.0177 40.7706 17.3951 40.2013C16.7724 39.632 16.4611 38.8871 16.4611 37.9665C16.4611 37.2015 16.6679 36.5344 17.0815 35.9651C17.4996 35.3914 18.06 34.9466 18.7627 34.6308C19.4698 34.3106 20.2593 34.1505 21.131 34.1505C22.0116 34.1505 22.7943 34.3084 23.4793 34.6242C24.1642 34.9355 24.7068 35.3625 25.107 35.905C25.5118 36.4476 25.7252 37.0636 25.7475 37.753H24.1464Z" fill="white"/>
</svg>
