<svg width="95" height="95" viewBox="0 0 95 95" fill="none" xmlns="http://www.w3.org/2000/svg">
<ellipse cx="47.05" cy="47.07" rx="46.05" ry="46.07" fill="white"/>
<path d="M47.05 93.64C72.7591 93.64 93.6 72.7897 93.6 47.07C93.6 21.3503 72.7591 0.5 47.05 0.5C21.3409 0.5 0.5 21.3503 0.5 47.07C0.5 72.7897 21.3409 93.64 47.05 93.64Z" stroke="#2E3192" stroke-opacity="0.2" stroke-linejoin="round"/>
<g style="mix-blend-mode:multiply" opacity="0.6">
<circle cx="47.09" cy="47.09" r="41.09" fill="#C8DCFE"/>
</g>
<path d="M38.5937 63.6862C38.2293 64.176 37.9912 64.8443 38.1617 65.6296C38.3463 66.478 38.8481 67.0058 39.6921 67.1622C40.1064 67.239 40.3497 67.4647 40.5123 67.8154C42.6256 72.3729 48.9366 73.4687 52.7155 70.0568C53.3709 69.4654 53.8303 68.6435 54.3294 67.8966C54.5714 67.5336 54.7825 67.2421 55.2569 67.1502C56.7749 66.8561 57.084 65.1429 56.554 64.1124C56.4551 63.9199 56.3301 63.7401 56.1861 63.5034C56.9652 62.6792 56.7638 61.5857 56.884 60.572C57.1207 58.5682 57.7761 56.7322 58.9064 55.0552C61.9795 50.4959 62.4772 45.6843 60.2755 40.6202C60.2561 40.576 60.2459 40.5252 60.1894 40.3384C60.533 40.1958 60.8961 40.0734 61.2322 39.8967C61.3885 39.8146 61.6023 39.6317 61.6041 39.4948C61.6292 37.7502 61.6208 36.0057 61.6208 34.2019C60.908 34.0213 60.2049 33.8194 59.4907 33.6697C58.9276 33.5518 58.6515 33.2227 58.3794 32.7197C57.9144 31.8659 58.023 31.1835 58.591 30.453C58.9386 30.0061 59.1842 29.4814 59.4743 28.9893C59.4817 28.9509 59.4848 28.9118 59.4836 28.8727C58.4718 27.8649 57.4263 26.8243 56.3827 25.7811C55.5205 24.9212 55.521 24.9203 54.4959 25.5337C54.3519 25.6221 54.2083 25.7073 54.0648 25.7943C52.7999 26.5593 52.791 26.5774 51.4515 25.9162C51.2019 25.7934 50.9656 25.4909 50.8773 25.2206C50.6308 24.4596 50.4648 23.6721 50.2665 22.8926H44.6259C44.4263 23.6823 44.2576 24.4698 44.016 25.2334C43.9164 25.5105 43.7269 25.7462 43.4776 25.903C43.0938 26.1335 42.6561 26.2855 42.2259 26.4224C42.0837 26.4665 41.8726 26.4043 41.7304 26.323C40.946 25.8738 40.1739 25.4043 39.4421 24.968L35.4154 28.9871C35.8341 29.6881 36.278 30.4517 36.7448 31.2012C36.9083 31.4662 36.9427 31.6711 36.808 31.9799C36.0413 33.7408 36.4441 33.3654 34.5113 33.8764C34.109 33.9828 33.7053 34.0853 33.2773 34.1962C33.2773 35.999 33.272 37.7772 33.2897 39.5545C33.2897 39.6675 33.4509 39.8195 33.5728 39.8813C33.7318 39.9634 33.9288 39.9674 34.1059 40.0178C34.5873 40.1542 34.6955 40.402 34.5087 40.8569C32.5075 45.7396 32.8922 50.4208 35.8425 54.8048C37.2854 56.9521 38.0588 59.2488 38.118 61.8246C38.1312 62.3988 38.4015 62.9672 38.5937 63.6862ZM46.3436 54.3728C46.3436 53.4855 46.3436 52.6503 46.3436 51.8111C46.3436 51.3757 46.5525 51.1645 46.9867 51.1685C47.272 51.1712 47.5573 51.1685 47.8426 51.1685C48.3779 51.1734 48.5541 51.3492 48.5559 51.8898C48.5581 52.7068 48.5559 53.5239 48.5559 54.3476H49.5598C49.5598 53.4886 49.5346 52.6667 49.5766 51.8478C49.5881 51.623 49.7714 51.2498 49.9255 51.222C50.2903 51.1566 50.323 50.9375 50.3804 50.6769C50.4356 50.4318 50.5023 50.1911 50.5672 49.9464C51.0774 48.0305 50.7046 48.4108 52.4616 47.6453C52.7645 47.5128 52.9765 47.5363 53.2446 47.7045C53.9928 48.1745 54.7591 48.617 55.4834 49.0503L59.4938 45.0386C59.0446 44.2851 58.5795 43.5091 58.1197 42.7305C58.0526 42.617 57.9312 42.4589 57.9652 42.3745C58.2121 41.7663 58.4925 41.1723 58.7602 40.5738L58.9483 40.5888C59.1179 40.8499 59.3281 41.0932 59.45 41.3746C61.324 45.6967 60.9208 49.8263 58.4391 53.8075C57.7639 54.9042 57.1636 56.0452 56.6424 57.2229C56.3332 57.9163 56.2281 58.7025 56.0329 59.4476C55.9295 59.8398 55.7506 60.0659 55.2842 59.9082C55.0374 59.8252 54.7565 59.8221 54.4892 59.8199C49.7893 59.8155 45.0897 59.8155 40.3904 59.8199C40.1227 59.8148 39.8554 59.8445 39.5954 59.9082C39.1537 60.0275 38.9598 59.8097 38.8931 59.4308C38.5309 57.3611 37.6383 55.5401 36.4869 53.7889C33.8811 49.8254 33.5905 45.626 35.4821 41.28C35.5934 41.0239 35.8041 40.8106 36.0682 40.4365C36.3367 41.023 36.5046 41.4735 36.7422 41.8829C36.9688 42.2738 36.9052 42.5746 36.6702 42.9345C36.2153 43.6315 35.8076 44.3598 35.4185 45.0104L39.4324 49.0344C40.1726 48.5927 40.9442 48.121 41.7291 47.6714C41.8708 47.5897 42.0824 47.5274 42.2273 47.5729C42.6574 47.7081 43.0956 47.8569 43.4785 48.087C43.7271 48.2458 43.9159 48.4827 44.0151 48.7606C44.2329 49.4279 44.3685 50.1227 44.5487 50.8024C44.5835 50.9318 44.6741 51.1341 44.762 51.1469C45.3048 51.2277 45.3498 51.5885 45.3423 52.0267C45.3291 52.8071 45.3388 53.5884 45.3388 54.3702L46.3436 54.3728ZM39.7049 47.6052L36.8517 44.7427C37.2267 44.1142 37.6467 43.4473 38.0204 42.7552C38.1087 42.5905 38.1021 42.3171 38.0327 42.1338C37.7677 41.4298 37.4736 40.7346 37.1534 40.0535C37.0695 39.8769 36.8743 39.687 36.6901 39.6287C36.1159 39.4476 35.5214 39.3314 34.9371 39.1804C34.5047 39.0686 34.2508 38.8385 34.2684 38.3319C34.2998 37.4433 34.2918 36.5524 34.2711 35.6634C34.2605 35.197 34.4751 34.9474 34.9009 34.8379C35.502 34.6838 36.1111 34.5543 36.7007 34.3653C36.8835 34.3066 37.0752 34.1158 37.1591 33.9369C37.4714 33.2709 37.7156 32.5717 38.0385 31.9114C38.1763 31.6287 38.1644 31.4397 38.004 31.1849C37.5867 30.5224 37.1993 29.8426 36.7877 29.1488C37.6891 28.2544 38.5521 27.3852 39.4377 26.5394C39.5238 26.4568 39.7791 26.4546 39.8988 26.52C40.4877 26.8415 41.0646 27.1845 41.6297 27.5491C41.8836 27.7125 42.078 27.7257 42.3602 27.5875C43.0227 27.266 43.7205 27.0186 44.387 26.7042C44.5668 26.6194 44.7611 26.4303 44.819 26.2479C45.0071 25.6583 45.1352 25.0492 45.2854 24.4477C45.3869 24.0409 45.6148 23.8249 46.0662 23.8342C46.989 23.8528 47.9122 23.8528 48.8359 23.8342C49.2873 23.8254 49.5143 24.0436 49.6163 24.4495C49.7669 25.051 49.8941 25.6596 50.0819 26.2492C50.1402 26.4312 50.3354 26.6194 50.5147 26.7037C51.1812 27.0182 51.8768 27.2704 52.5411 27.5871C52.8003 27.7116 52.9827 27.724 53.2287 27.5703C53.8943 27.152 54.5754 26.7598 55.2047 26.3844L58.0619 29.2389C57.6701 29.8943 57.2452 30.578 56.8553 31.2807C56.7771 31.4225 56.7753 31.6601 56.8358 31.8156C57.1207 32.5483 57.4254 33.2731 57.7576 33.9868C57.8518 34.1649 58.0094 34.3013 58.1992 34.3688C58.8065 34.5596 59.4293 34.6952 60.0432 34.8582C60.4261 34.9598 60.6306 35.1912 60.624 35.6143C60.6099 36.5206 60.5997 37.4278 60.6275 38.3332C60.6421 38.8085 60.4279 39.0505 60.0035 39.1592C59.4028 39.3129 58.7928 39.437 58.2028 39.6238C58.0195 39.6817 57.8274 39.8738 57.7434 40.0527C57.4316 40.7191 57.1852 41.4165 56.8672 42.0799C56.7347 42.3537 56.7148 42.5459 56.8831 42.8087C57.3044 43.4685 57.6918 44.1509 58.0252 44.7105L55.1676 47.5932C54.5409 47.22 53.8718 46.8022 53.1801 46.4246C53.0264 46.3407 52.7725 46.3362 52.606 46.4003C51.8878 46.6759 51.1795 46.9765 50.4811 47.3022C50.3142 47.3799 50.1344 47.5588 50.0836 47.7284C49.9003 48.3202 49.7705 48.9284 49.6199 49.5299C49.5143 49.9504 49.2899 50.1854 48.8103 50.1721C47.9049 50.1468 46.9986 50.1468 46.0914 50.1721C45.6131 50.1854 45.3847 49.9539 45.2801 49.5326C45.129 48.931 44.9992 48.3229 44.8154 47.7315C44.7624 47.5605 44.5818 47.3781 44.4144 47.3026C43.7163 46.9787 43.0074 46.6791 42.2878 46.4038C42.1204 46.3393 41.8664 46.3407 41.7136 46.4241C41.0109 46.8088 40.3294 47.2355 39.7049 47.6052ZM47.4217 60.8216C49.7858 60.8216 52.1499 60.8216 54.514 60.8216C55.044 60.8216 55.593 61.2076 55.7476 61.6824C55.9176 62.2049 55.5788 62.5313 55.2268 62.7738C54.987 62.9394 54.6416 63.0211 54.3435 63.022C49.7502 63.037 45.1568 63.0326 40.5635 63.0326C40.4628 63.0326 40.3617 63.0374 40.2618 63.029C39.7137 62.9809 39.386 62.6245 39.1731 62.1726C38.9602 61.7208 39.2451 61.3776 39.5781 61.1444C39.8193 60.9748 40.1435 60.8353 40.4323 60.8353C42.7608 60.8105 45.0915 60.8216 47.4217 60.8216ZM47.3983 64.0365C49.7789 64.0365 52.1596 64.0365 54.5405 64.0365C55.0497 64.0365 55.5682 64.4097 55.7392 64.8756C55.9207 65.3712 55.6265 65.7051 55.2825 65.9396C55.0104 66.1209 54.6928 66.2221 54.366 66.2316C50.9798 66.2519 47.5931 66.2444 44.2077 66.2444C42.9335 66.2444 41.6593 66.2483 40.3851 66.2417C39.8635 66.2391 39.3083 65.838 39.1541 65.3659C38.9775 64.8173 39.3529 64.5046 39.7098 64.2401C39.9036 64.0965 40.2053 64.0444 40.4606 64.0427C42.7714 64.0303 45.0848 64.036 47.3983 64.0365ZM53.325 67.508C50.2956 72.3076 44.391 72.1066 41.5873 67.5018C41.8823 67.4104 42.1451 67.2593 42.4083 67.258C45.7783 67.2421 49.1479 67.2421 52.5172 67.258C52.7676 67.2584 53.0167 67.4077 53.325 67.508Z" fill="black"/>
<path d="M70.2947 37.4672H71.1855V36.5176H70.2947V37.4672Z" fill="black"/>
<path d="M67.0757 37.474H68.0146V36.5195H67.0757V37.474Z" fill="black"/>
<path d="M63.8811 37.4779H64.7949V36.5234H63.8811V37.4779Z" fill="black"/>
<path d="M30.0984 37.4648H31.0356V36.5254H30.0984V37.4648Z" fill="black"/>
<path d="M26.8836 37.4803H27.8066V36.5215H26.8836V37.4803Z" fill="black"/>
<path d="M24.6108 37.4568V36.5293H23.7085V37.4568H24.6108Z" fill="black"/>
<path d="M48.5848 57.5827H49.5317V56.6406H48.5857L48.5848 57.5827Z" fill="black"/>
<path d="M46.3115 56.623H45.3708V57.5651H46.3115V56.623Z" fill="black"/>
<path d="M47.4728 28.4571C42.6914 28.4403 38.9301 32.1702 38.9045 36.9543C38.8784 41.7566 42.6247 45.5293 47.4287 45.5385C52.2199 45.5474 55.9767 41.8255 55.997 37.0497C56.0156 32.2382 52.2821 28.4743 47.4728 28.4571ZM47.4538 44.5338C43.4161 44.5338 39.9164 41.0446 39.9084 37.0179C39.9005 32.9731 43.4338 29.4416 47.472 29.4579C51.5017 29.4742 54.994 32.9824 54.9913 37.0104C54.9887 41.0384 51.4849 44.5346 47.4538 44.5338Z" fill="black"/>
<path d="M45.3801 35.0752C45.8624 35.0355 46.3133 35.247 46.6609 34.766C46.937 34.3822 47.3199 34.1216 47.8322 34.3933C48.2893 34.6353 48.6073 35.1441 48.5451 35.5208C48.4744 35.9448 47.9122 36.4483 47.4444 36.4881C46.5487 36.5623 45.8271 36.8693 45.4839 37.7915C45.1018 38.8183 45.5612 40.1981 46.4684 40.5037C46.808 40.6181 46.9908 40.8902 46.9542 41.2881C46.9259 41.603 46.9484 41.9228 46.9484 42.2806H47.9515C47.9515 41.9714 47.9762 41.6552 47.9453 41.3447C47.9011 40.9101 48.0955 40.6406 48.4687 40.475C49.1391 40.1782 49.4178 39.623 49.5207 38.938C48.9602 38.8435 48.4969 38.8731 48.095 39.3722C47.6851 39.8805 47.2457 39.8293 46.7585 39.3536C46.2374 38.8448 46.1777 38.4177 46.668 37.9845C46.933 37.7486 47.3097 37.556 47.6582 37.5088C48.6679 37.3723 49.2888 36.8666 49.5075 35.8746C49.7181 34.918 49.3136 33.9874 48.4722 33.5338C48.1162 33.343 47.898 33.1036 47.9453 32.665C47.9771 32.3559 47.9515 32.037 47.9515 31.6934H46.948C46.948 32.0162 46.9215 32.3311 46.9542 32.6399C47.0032 33.101 46.7899 33.366 46.4012 33.5426C45.771 33.8257 45.5024 34.3548 45.3801 35.0752Z" fill="black"/>
</svg>
