<svg width="78" height="78" viewBox="0 0 78 78" fill="none" xmlns="http://www.w3.org/2000/svg">
<circle cx="38.97" cy="38.97" r="37.97" fill="white"/>
<circle cx="38.97" cy="38.97" r="38.47" stroke="#2E3192" stroke-opacity="0.2" stroke-linejoin="round"/>
<circle opacity="0.6" cx="38.89" cy="38.89" r="33.89" fill="#C8DCFE"/>
<path d="M35.0192 49.0265H35.798V58.8954C34.7178 58.8635 33.6178 59.0787 32.608 58.4796C31.6506 57.9131 31.1655 57.0452 31.1472 55.9727C31.1083 53.7184 31.123 51.4627 31.1512 49.2084C31.1571 48.7317 31.2979 48.2514 31.4079 47.781C31.4834 47.4623 31.4079 47.2453 31.0749 47.246C29.0366 47.2511 26.991 47.1727 24.963 47.3215C22.7967 47.4821 20.9762 49.5919 20.9234 51.7626C20.8999 52.761 20.9065 53.7609 20.9208 54.7601C20.941 56.182 22.037 57.5776 23.4142 57.9648C23.8457 58.0858 23.9942 57.9794 23.9946 57.5321C23.9968 55.4392 23.9968 53.3462 23.9946 51.2533C23.9946 51.1741 24.0038 51.0949 24.0104 50.9886H24.8101V51.3967C24.8101 53.45 24.8101 55.5025 24.8101 57.5541C24.8101 58.0432 24.8566 58.0902 25.3421 58.0905C26.9493 58.0905 28.5564 58.0905 30.1634 58.0905H30.6217V58.8807C30.4963 58.8873 30.3673 58.8998 30.2378 58.8998C28.3605 58.8998 26.4833 58.8998 24.6062 58.8998C21.9416 58.8943 20.109 57.0573 20.1123 54.3824C20.1123 53.3576 20.0595 52.3214 20.1879 51.3101C20.5468 48.482 22.7677 46.4914 25.6182 46.439C27.6143 46.4023 29.6127 46.4786 31.6103 46.4826C31.7907 46.4826 32.0393 46.3708 32.1412 46.2285C33.3622 44.5231 35.0555 43.8213 37.1007 43.8287C38.5997 43.8338 40.099 43.8261 41.5979 43.8287C43.6113 43.8345 45.288 44.5367 46.4709 46.2256C46.6575 46.4921 46.8889 46.4881 47.172 46.4863C49.3034 46.4734 51.4433 46.3623 53.5648 46.5079C56.2851 46.6945 58.3839 48.9939 58.502 51.7377C58.5529 52.9209 58.5698 54.121 58.4286 55.2943C58.1804 57.3359 56.412 58.8591 54.3608 58.8877C52.2562 58.9177 50.1508 58.8943 48.0175 58.8943V58.0876H53.2377C53.7877 58.0876 53.8204 58.0561 53.8204 57.52C53.8204 55.4948 53.8204 53.4694 53.8204 51.444V50.9856H54.6307V51.4055C54.6307 53.4307 54.6307 55.456 54.6307 57.4815C54.6307 57.9996 54.7774 58.1008 55.2786 57.9413C56.698 57.4907 57.7085 56.1388 57.7056 54.6479C57.7037 53.5021 57.7653 52.343 57.6209 51.2126C57.34 49.0126 55.3376 47.2852 53.1109 47.2434C51.3021 47.2097 49.4919 47.2321 47.6842 47.2368C47.2178 47.2368 47.1496 47.3835 47.2405 47.8514C47.356 48.4439 47.4785 49.0467 47.4877 49.648C47.5181 51.6592 47.5023 53.6715 47.4983 55.6834C47.4946 57.6505 46.2516 58.891 44.2808 58.9023C43.8085 58.9049 43.3363 58.9023 42.8314 58.9023V49.0434H43.6091V49.494C43.6091 52.1678 43.6091 54.8414 43.6091 57.5149C43.6091 58.0564 43.6432 58.0898 44.1829 58.0909C45.5003 58.0946 46.402 57.4734 46.6396 56.3855C46.6747 56.2002 46.69 56.0116 46.6854 55.8231C46.6883 53.703 46.6883 51.5831 46.6854 49.4632C46.6803 46.7686 44.5778 44.6551 41.8865 44.6423C40.1846 44.6342 38.4831 44.6342 36.7817 44.6423C34.0288 44.6544 31.9439 46.7455 31.9377 49.4977C31.9328 51.6043 31.9328 53.7107 31.9377 55.8168C31.9377 57.1614 32.8544 58.0839 34.1927 58.0902H34.4358C34.9858 58.0902 35.0166 58.0586 35.0166 57.5207C35.0166 54.8472 35.0166 52.1738 35.0166 49.5003L35.0192 49.0265Z" fill="black"/>
<path d="M36.4777 25.4997C35.1855 25.8111 33.9479 26.3163 32.807 26.9983C32.7336 27.0426 32.5312 26.9675 32.4476 26.8883C31.759 26.2213 31.0855 25.5386 30.4049 24.8632C29.9041 24.3656 29.474 24.3645 28.9775 24.8588C28.107 25.7263 27.2378 26.5951 26.3698 27.465C25.9158 27.9208 25.9129 28.345 26.3613 28.7982C27.0558 29.4978 27.7591 30.189 28.4462 30.8956C28.5269 30.9784 28.6013 31.1797 28.5562 31.2531C27.8741 32.393 27.3673 33.6291 27.0529 34.9197C25.9895 34.9197 24.9519 34.9197 23.9131 34.9197C23.2087 34.9197 22.8622 35.2611 22.8615 35.9526C22.8615 37.1813 22.8472 38.4093 22.8732 39.6387C22.8784 39.8694 22.9788 40.1854 23.1475 40.3064C23.5347 40.5847 23.5629 40.9195 23.4867 41.3192C22.7167 41.2924 22.0834 40.6441 22.0633 39.7678C22.0321 38.4317 22.0299 37.0937 22.0633 35.7576C22.0875 34.7885 22.8076 34.1395 23.8211 34.1134C24.55 34.0951 25.2792 34.0951 26.0086 34.1134C26.3386 34.1222 26.4853 33.9719 26.5953 33.6852C26.87 32.9834 27.1623 32.2885 27.472 31.6007C27.582 31.3557 27.5783 31.1882 27.3755 30.9946C26.8673 30.5102 26.3749 30.009 25.8828 29.5081C25.0186 28.6281 25.0157 27.6359 25.8795 26.7621C26.6767 25.9555 27.4788 25.1534 28.286 24.3561C29.1663 23.4893 30.1996 23.4893 31.0796 24.3513C31.5614 24.8239 32.0439 25.2969 32.507 25.7879C32.7175 26.0112 32.9027 26.0376 33.1813 25.9107C33.8674 25.5983 34.5651 25.3098 35.2673 25.0362C35.5434 24.9288 35.6805 24.7873 35.6736 24.4767C35.6571 23.7613 35.6629 23.0467 35.6695 22.3295C35.6805 21.2112 36.3713 20.5101 37.4955 20.498C38.7109 20.485 39.9264 20.485 41.142 20.498C42.2629 20.5112 42.9486 21.2159 42.9596 22.3376C42.9666 23.0262 42.9768 23.7155 42.9548 24.4034C42.9435 24.7572 43.0718 24.9306 43.4073 25.0542C44.1014 25.3109 44.7823 25.6042 45.4566 25.9115C45.7158 26.0292 45.8948 26.0259 46.099 25.8114C46.5735 25.3123 47.0655 24.8302 47.5565 24.3469C48.4178 23.4995 49.4558 23.4885 50.3164 24.3319C51.1556 25.1539 51.986 25.985 52.8075 26.8252C53.5812 27.6187 53.5841 28.6219 52.82 29.4249C52.3173 29.9532 51.7996 30.4677 51.2723 30.9711C51.0622 31.1713 51.0351 31.3418 51.1564 31.6076C51.4692 32.2933 51.7574 32.9907 52.0317 33.6929C52.145 33.9822 52.3001 34.1215 52.6253 34.1123C53.3139 34.0936 54.0029 34.1017 54.6918 34.1079C55.8868 34.1189 56.5706 34.8079 56.575 36.0069C56.5794 37.2059 56.5835 38.4104 56.575 39.6123C56.567 40.5723 56.0419 41.1989 55.1392 41.3448C55.1047 40.9602 55.0361 40.602 55.4596 40.3255C55.632 40.2129 55.7489 39.8947 55.753 39.6655C55.7805 38.3968 55.7695 37.1271 55.7647 35.8577C55.7625 35.297 55.3889 34.9216 54.8246 34.9179C53.7583 34.9109 52.692 34.9157 51.5858 34.9157C51.5337 34.7346 51.4996 34.5516 51.4296 34.3837C51.0321 33.4278 50.6596 32.4587 50.2053 31.5306C50.0286 31.1702 50.0495 30.9887 50.3285 30.7262C50.9885 30.1065 51.6155 29.4542 52.2528 28.8118C52.7173 28.3436 52.714 27.9212 52.2432 27.4478C51.386 26.5864 50.5271 25.7264 49.6667 24.8679C49.1533 24.3546 48.7361 24.3568 48.2114 24.88C47.4758 25.6134 46.7447 26.3507 46.0726 27.0236L42.1515 25.3736V24.1746C42.1515 23.5267 42.1562 22.8784 42.1515 22.2312C42.1463 21.7135 41.7808 21.3146 41.2759 21.3102C39.9661 21.2987 38.6562 21.2987 37.3459 21.3102C36.8432 21.3153 36.4843 21.7186 36.4821 22.2419C36.4744 23.321 36.4777 24.4001 36.4777 25.4997Z" fill="black"/>
<path d="M48.1285 37.4906H47.3479C47.2287 34.9067 46.0946 32.8428 44.0479 31.2877C42.55 30.15 40.834 29.681 38.964 29.7378C35.0114 29.8585 31.4012 33.2076 31.2571 37.4906H30.4805C30.6638 34.7773 31.6791 32.475 33.8648 30.8312C36.7556 28.6573 39.9174 28.3056 43.2049 29.8541C46.1463 31.2397 48.1201 34.3538 48.1285 37.4906Z" fill="black"/>
<path d="M39.2778 42.6922C37.2864 42.6772 35.6577 41.0224 35.672 39.0289C35.6859 37.0489 37.3553 35.3959 39.3317 35.4102C41.3238 35.4245 42.9617 37.0753 42.958 39.0615C42.9525 41.0745 41.2974 42.7073 39.2778 42.6922ZM39.2851 41.8856C40.8698 41.8922 42.1407 40.655 42.151 39.0963C42.1612 37.5032 40.9017 36.2202 39.324 36.2165C38.5729 36.2139 37.8514 36.5094 37.318 37.0382C36.7846 37.567 36.4829 38.2859 36.479 39.0369C36.4739 40.6158 37.7172 41.8782 39.2851 41.8852V41.8856Z" fill="black"/>
<path d="M28.2771 45.284C26.2828 45.2781 24.6471 43.634 24.6504 41.6419C24.6533 39.6589 26.3055 38.006 28.2888 38.002C30.289 37.9983 31.9526 39.6725 31.9364 41.6727C31.9203 43.6728 30.2791 45.2902 28.2771 45.284ZM28.2936 44.4773C29.8703 44.4773 31.1276 43.2277 31.1294 41.658C31.1312 40.0883 29.8728 38.816 28.313 38.8083C27.9377 38.8054 27.5655 38.8771 27.218 39.0193C26.8706 39.1615 26.5549 39.3712 26.2892 39.6364C26.0236 39.9016 25.8132 40.217 25.6704 40.5641C25.5276 40.9113 25.4552 41.2834 25.4574 41.6587C25.4596 43.2292 26.7173 44.4769 28.294 44.4769L28.2936 44.4773Z" fill="black"/>
<path d="M50.3292 45.284C48.3331 45.2818 46.6948 43.6446 46.6934 41.6507C46.6934 39.6674 48.3371 38.0137 50.3234 38.002C52.3202 37.9906 53.99 39.6637 53.9794 41.6639C53.9688 43.6641 52.3283 45.2866 50.3292 45.284ZM50.3322 44.4773C51.9088 44.4773 53.1694 43.2307 53.1727 41.6628C53.176 40.0949 51.918 38.816 50.3593 38.8083C49.984 38.8049 49.6117 38.8761 49.2641 39.0177C48.9165 39.1593 48.6005 39.3686 48.3345 39.6333C48.0684 39.8981 47.8576 40.213 47.7142 40.5599C47.5708 40.9068 47.4978 41.2787 47.4993 41.654C47.5004 43.227 48.7526 44.4759 50.3292 44.477L50.3322 44.4773Z" fill="black"/>
<path d="M41.6439 58.1211V58.8819H36.9824V58.1211H41.6439Z" fill="black"/>
</svg>
