<svg width="63" height="63" viewBox="0 0 63 63" fill="none"
                                xmlns="http://www.w3.org/2000/svg">
                                <ellipse cx="31.5148" cy="31.3578" rx="30.0939" ry="30.1005" fill="white" />
                                <path
                                    d="M31.5148 61.7859C48.3163 61.7859 61.9364 48.1627 61.9364 31.3578C61.9364 14.5529 48.3163 0.929647 31.5148 0.929647C14.7134 0.929647 1.09322 14.5529 1.09322 31.3578C1.09322 48.1627 14.7134 61.7859 31.5148 61.7859Z"
                                    stroke="#2E3192" stroke-opacity="0.2" stroke-width="0.655355"
                                    stroke-linejoin="round" />
                                <circle opacity="0.6" cx="31.5486" cy="31.3836" r="26.8499" fill="#C8DCFE" />
                                <path
                                    d="M31.2288 45.9389H14.6301C14.5093 45.9389 14.3885 45.9389 14.2677 45.9366C14.0383 45.9316 13.8499 45.8494 13.8472 45.5925C13.8445 45.3356 14.0429 45.2485 14.2635 45.2351C14.4681 45.2153 14.6741 45.214 14.879 45.2313C15.2372 45.2695 15.3263 45.1193 15.3255 44.7767C15.3156 40.4757 15.3134 36.1747 15.319 31.8737C15.319 31.354 15.319 30.8345 15.319 30.3151C15.319 29.7122 15.4127 29.617 16.0033 29.617H25.0273C25.6233 29.617 25.6233 29.617 25.6233 29.0386V18.4166C25.6233 17.8245 25.6386 17.808 26.1772 17.5966C27.9843 16.8863 29.7891 16.1703 31.6 15.4699C31.7538 15.4164 31.9215 15.4183 32.074 15.4753C34.2355 16.3718 36.387 17.2904 38.5516 18.1792C38.9339 18.3352 39.0463 18.5535 39.0436 18.9438C39.0298 21.1546 39.0367 23.3658 39.0371 25.5766C39.0371 26.1232 39.0428 26.1722 39.5635 26.1141C40.9566 25.9589 42.1684 26.319 43.3275 27.1141C44.4094 27.8562 45.5861 28.4609 46.7299 29.1074C47.0323 29.2783 47.1436 29.4866 47.1432 29.8338C47.134 34.7989 47.132 39.7644 47.1371 44.7301C47.1371 45.2271 47.1371 45.2248 47.634 45.2271C47.8389 45.2271 48.0599 45.1888 48.2457 45.2534C48.3963 45.3054 48.5041 45.4828 48.631 45.6036C48.495 45.7152 48.3661 45.9095 48.2209 45.9228C47.7415 45.9668 47.2563 45.9488 46.7731 45.9492C41.5908 45.9492 36.4087 45.9492 31.2269 45.9492L31.2288 45.9389ZM32.1926 30.7692V44.719C32.1926 45.224 32.1926 45.2248 32.6819 45.2248H37.8271C38.3302 45.2248 38.331 45.2248 38.331 44.7236C38.331 36.2334 38.3334 27.7431 38.3383 19.2527C38.3383 18.9324 38.2293 18.7806 37.9426 18.6625C36.2035 17.9457 34.4714 17.2132 32.7369 16.4857C32.2254 16.2712 32.1926 16.2945 32.1926 16.8554V30.7692ZM31.4742 30.8074V16.782C31.4742 16.3041 31.4215 16.2666 30.9773 16.4417C29.541 17.0064 28.1101 17.5817 26.6669 18.1341C26.4035 18.2351 26.332 18.375 26.332 18.6414C26.3382 27.352 26.3382 36.0628 26.332 44.7737C26.332 45.1177 26.4226 45.2366 26.7782 45.2324C28.1926 45.2148 29.6071 45.2125 31.0185 45.2324C31.3894 45.2378 31.4857 45.1269 31.4846 44.7622C31.4713 40.1115 31.4679 35.4599 31.4742 30.8074ZM16.0339 37.7743C16.0339 40.1185 16.0389 42.4623 16.0285 44.8062C16.0285 45.112 16.0985 45.2324 16.4292 45.2313C19.3652 45.2203 22.301 45.2203 25.2368 45.2313C25.5426 45.2313 25.6282 45.1193 25.6279 44.8268C25.6215 40.1269 25.6215 35.427 25.6279 30.7272C25.6279 30.4355 25.5514 30.3258 25.2402 30.3269C22.3042 30.3376 19.3684 30.3376 16.4326 30.3269C16.1061 30.3269 16.0266 30.4343 16.0278 30.7447C16.0392 33.0867 16.0339 35.4305 16.0339 37.7743ZM41.8645 36.213C41.8645 39.0756 41.8679 41.9382 41.8595 44.8008C41.8595 45.1043 41.936 45.2347 42.2644 45.2305C43.5206 45.216 44.7768 45.216 46.033 45.2305C46.3354 45.2339 46.4271 45.1319 46.4268 44.8333C46.4196 39.9053 46.4196 34.9772 46.4268 30.049C46.4268 29.8139 46.3534 29.6732 46.15 29.5566C44.8942 28.8356 43.6448 28.1039 42.3924 27.3775C41.9574 27.1252 41.8653 27.1829 41.8649 27.6979L41.8645 36.213ZM39.0356 36.0146C39.0356 38.9139 39.0356 41.8131 39.0356 44.7121C39.0356 45.2236 39.0356 45.224 39.5279 45.2248C39.9146 45.2248 40.3011 45.2248 40.6874 45.2248C41.1523 45.2248 41.1576 45.2198 41.1576 44.7622C41.1576 41.8025 41.1576 38.8428 41.1576 35.8831C41.1576 33.0325 41.1576 30.1818 41.1576 27.3309C41.1576 26.8404 41.1576 26.84 40.6832 26.8393C40.2966 26.8393 39.91 26.8393 39.5234 26.8393C39.0367 26.8393 39.0356 26.8393 39.0356 27.3171C39.0373 30.2164 39.0382 33.1156 39.0382 36.0146H39.0356Z"
                                    fill="black" />
                                <path
                                    d="M37.2645 27.9822C37.2645 28.1389 37.3096 28.3151 37.2522 28.447C37.1903 28.5896 37.0328 28.6909 36.917 28.8102C36.7984 28.6955 36.5993 28.5911 36.5775 28.4592C36.5263 28.1497 36.5263 27.8338 36.5775 27.5242C36.5997 27.3946 36.7931 27.2271 36.928 27.2072C37.0213 27.1935 37.1914 27.3842 37.2473 27.5173C37.3031 27.6503 37.2595 27.8254 37.2595 27.9818L37.2645 27.9822Z"
                                    fill="black" />
                                <path
                                    d="M37.2577 39.295C37.2577 39.4518 37.3016 39.6272 37.2451 39.7595C37.1885 39.8918 37.0337 40.0611 36.9174 40.0653C36.8012 40.0696 36.5986 39.896 36.5826 39.7798C36.5363 39.4457 36.5363 39.1069 36.5826 38.7728C36.5986 38.6581 36.805 38.4834 36.9197 38.4869C37.0344 38.4903 37.1942 38.6627 37.2454 38.7954C37.3016 38.9403 37.2581 39.1261 37.2577 39.295Z"
                                    fill="black" />
                                <path
                                    d="M37.2554 43.0292C37.2554 43.1974 37.3005 43.384 37.2421 43.5285C37.1901 43.6569 37.0318 43.8041 36.9045 43.8209C36.8074 43.8335 36.6017 43.6657 36.5887 43.5606C36.547 43.215 36.546 42.8658 36.5857 42.52C36.5979 42.4118 36.7955 42.2382 36.8938 42.2474C37.0211 42.2597 37.1824 42.403 37.2398 42.5303C37.3044 42.6729 37.2688 42.8606 37.278 43.0273L37.2554 43.0292Z"
                                    fill="black" />
                                <path
                                    d="M36.5635 24.2499C36.5635 24.0817 36.5191 23.8956 36.5768 23.7503C36.6281 23.6207 36.7909 23.4552 36.9068 23.4536C37.0226 23.4521 37.2214 23.623 37.2393 23.74C37.289 24.0609 37.2902 24.3874 37.2428 24.7087C37.2233 24.8364 37.0268 25.0042 36.8926 25.0229C36.7982 25.0359 36.6296 24.8463 36.5742 24.7137C36.5187 24.581 36.5619 24.4078 36.5619 24.2499H36.5635Z"
                                    fill="black" />
                                <path
                                    d="M33.8671 22.9646C33.8671 23.1213 33.9084 23.2945 33.8549 23.4298C33.8014 23.5652 33.6573 23.7402 33.5422 23.7483C33.4271 23.7563 33.2207 23.5858 33.2039 23.4719C33.156 23.1389 33.1535 22.8009 33.1966 22.4672C33.2123 22.3479 33.426 22.1518 33.5158 22.169C33.6489 22.1946 33.7941 22.3602 33.8553 22.4997C33.9142 22.6316 33.8675 22.8078 33.8671 22.9646Z"
                                    fill="black" />
                                <path
                                    d="M34.8737 38.6327C34.8737 38.4882 34.832 38.3269 34.884 38.2034C34.946 38.0574 35.0882 37.9454 35.1956 37.8188C35.3172 37.9301 35.5236 38.028 35.5435 38.1556C35.5917 38.4769 35.5917 38.8035 35.5435 39.1248C35.5255 39.2478 35.3141 39.4497 35.2292 39.4306C35.0939 39.4015 34.9498 39.2394 34.8879 39.0968C34.8305 38.9653 34.8756 38.7887 34.8756 38.632L34.8737 38.6327Z"
                                    fill="black" />
                                <path
                                    d="M33.8829 19.2289C33.8749 19.3971 33.9078 19.5829 33.8447 19.7286C33.7943 19.8478 33.6387 19.9793 33.5163 19.9939C33.4219 20.005 33.2254 19.8513 33.2158 19.7565C33.1781 19.3879 33.1781 19.0164 33.2158 18.6478C33.2262 18.5488 33.436 18.3948 33.5439 18.4032C33.6517 18.4116 33.8115 18.5687 33.8497 18.6914C33.9028 18.855 33.8627 19.0485 33.8627 19.2293L33.8829 19.2289Z"
                                    fill="black" />
                                <path
                                    d="M34.8793 34.8477C34.8793 34.6914 34.835 34.5155 34.8919 34.3836C34.9489 34.2517 35.0965 34.1007 35.2242 34.0805C35.3155 34.0656 35.5204 34.2422 35.5338 34.3504C35.5768 34.6958 35.5768 35.0452 35.5338 35.3906C35.5193 35.5053 35.3083 35.6788 35.1978 35.6708C35.0873 35.6628 34.9359 35.4839 34.887 35.3493C34.8331 35.2002 34.8747 35.0163 34.8747 34.8477H34.8793Z"
                                    fill="black" />
                                <path
                                    d="M33.8663 41.7648C33.8663 41.9215 33.9087 42.0955 33.8544 42.2304C33.8001 42.3654 33.6564 42.5443 33.5409 42.5527C33.4255 42.5611 33.2206 42.3868 33.2037 42.271C33.1557 41.9377 33.1535 41.5994 33.1972 41.2655C33.2129 41.1447 33.4301 40.9444 33.5157 40.9631C33.6506 40.9926 33.7944 41.1577 33.8559 41.2996C33.9133 41.4314 33.8682 41.6081 33.8682 41.7648H33.8663Z"
                                    fill="black" />
                                <path
                                    d="M37.2647 20.4612C37.2647 20.6179 37.3094 20.7937 37.2521 20.9253C37.1905 21.0663 37.0353 21.2548 36.9172 21.2578C36.7991 21.2609 36.5987 21.0694 36.5773 20.9394C36.5263 20.6307 36.5263 20.3157 36.5773 20.007C36.5991 19.8789 36.8067 19.6901 36.9214 19.6954C37.0361 19.7008 37.1867 19.8919 37.2525 20.0334C37.309 20.1523 37.2651 20.317 37.2647 20.4612Z"
                                    fill="black" />
                                <path
                                    d="M36.5425 31.728C36.5536 31.5601 36.5245 31.3747 36.5872 31.231C36.6392 31.1102 36.7994 30.9634 36.9114 30.9634C37.0234 30.9634 37.2172 31.122 37.2321 31.2291C37.2774 31.5754 37.279 31.926 37.2367 32.2727C37.2222 32.3874 37.0188 32.5426 36.8927 32.5541C36.7944 32.5629 36.6251 32.3924 36.5838 32.2693C36.5299 32.1064 36.5704 31.9122 36.5704 31.7314L36.5425 31.728Z"
                                    fill="black" />
                                <path
                                    d="M33.8645 38.0215C33.8645 38.1782 33.9085 38.3533 33.8519 38.4864C33.7953 38.6194 33.6501 38.7704 33.5224 38.7922C33.431 38.8083 33.2204 38.6343 33.2089 38.5292C33.1696 38.1717 33.1706 37.811 33.212 37.4538C33.2242 37.3514 33.4276 37.1946 33.5362 37.2003C33.6447 37.2061 33.8072 37.3613 33.8473 37.4832C33.9012 37.6461 33.8607 37.8403 33.8607 38.0211L33.8645 38.0215Z"
                                    fill="black" />
                                <path
                                    d="M36.5615 35.5104C36.5615 35.3533 36.5144 35.1747 36.5745 35.0455C36.6394 34.906 36.7935 34.7439 36.9292 34.7229C37.0214 34.7087 37.2244 34.9094 37.2442 35.0352C37.2939 35.3452 37.2951 35.6611 37.2477 35.9714C37.2263 36.106 37.0309 36.2127 36.9143 36.3323C36.7962 36.215 36.6352 36.1171 36.5703 35.9756C36.5118 35.8449 36.5576 35.6671 36.5576 35.5104H36.5615Z"
                                    fill="black" />
                                <path
                                    d="M34.8615 31.0859C34.8691 30.9176 34.8363 30.7322 34.8974 30.5866C34.9475 30.4677 35.1031 30.3366 35.2243 30.3228C35.3195 30.3121 35.5164 30.4642 35.5255 30.5579C35.5631 30.9265 35.5631 31.298 35.5255 31.6666C35.5152 31.7644 35.3053 31.9166 35.1971 31.9085C35.089 31.9005 34.9322 31.7445 34.8932 31.6222C34.8405 31.4586 34.8802 31.2655 34.8802 31.0851L34.8615 31.0859Z"
                                    fill="black" />
                                <path
                                    d="M33.8655 26.7376C33.8655 26.8944 33.9091 27.0691 33.8529 27.2021C33.7967 27.3352 33.6518 27.4839 33.5257 27.5049C33.432 27.521 33.2198 27.352 33.2091 27.2503C33.1698 26.8934 33.1705 26.5332 33.2114 26.1764C33.2229 26.0751 33.4389 25.9088 33.5318 25.9272C33.658 25.9516 33.804 26.1053 33.8533 26.2368C33.9087 26.3848 33.8659 26.569 33.8655 26.7376Z"
                                    fill="black" />
                                <path
                                    d="M33.8646 30.5026C33.8646 30.659 33.9086 30.8341 33.852 30.966C33.7954 31.0978 33.6486 31.2454 33.5224 31.2653C33.4284 31.2802 33.2201 31.1124 33.2086 31.0072C33.1696 30.6508 33.1707 30.2911 33.212 29.9349C33.2239 29.8348 33.4284 29.6838 33.5381 29.6891C33.6478 29.6945 33.808 29.8462 33.8474 29.9663C33.9009 30.1287 33.8608 30.3222 33.8608 30.5015L33.8646 30.5026Z"
                                    fill="black" />
                                <path
                                    d="M33.8669 34.2465C33.8669 34.4029 33.9089 34.5757 33.855 34.7106C33.8011 34.8456 33.6578 35.0195 33.5431 35.0272C33.4284 35.0348 33.222 34.8658 33.2055 34.7523C33.1575 34.4205 33.1549 34.0836 33.1979 33.7511C33.2136 33.6326 33.4273 33.4391 33.5171 33.4556C33.6494 33.4797 33.795 33.644 33.8562 33.7832C33.9135 33.9143 33.8684 34.089 33.8684 34.2465H33.8669Z"
                                    fill="black" />
                                <path
                                    d="M34.8695 27.3539C34.8695 27.2097 34.8282 27.048 34.8805 26.9257C34.9417 26.7823 35.0847 26.6742 35.1925 26.5503C35.3141 26.6592 35.5209 26.7544 35.5408 26.8791C35.5886 27.1994 35.5886 27.5251 35.5408 27.8455C35.5232 27.9659 35.3137 28.1605 35.2246 28.1441C35.092 28.1196 34.9459 27.9564 34.8851 27.8172C34.8278 27.6865 34.8729 27.5114 34.8729 27.3539H34.8695Z"
                                    fill="black" />
                                <path
                                    d="M35.5908 42.409C35.5778 42.5795 35.6065 42.7668 35.5396 42.9091C35.4799 43.0356 35.3194 43.179 35.1936 43.1889C35.0972 43.1962 34.9092 43.0161 34.8954 42.9029C34.8526 42.5685 34.8526 42.23 34.8954 41.8956C34.9115 41.7782 35.0999 41.6207 35.2268 41.6028C35.3197 41.5898 35.4899 41.7557 35.5369 41.8761C35.6007 42.0367 35.5774 42.2309 35.5908 42.409Z"
                                    fill="black" />
                                <path
                                    d="M34.8775 23.5905C34.8775 23.4341 34.8358 23.2613 34.8894 23.1264C34.9429 22.9915 35.0859 22.8206 35.1998 22.8114C35.3137 22.8022 35.5217 22.9712 35.5366 23.0859C35.5838 23.4179 35.586 23.7548 35.5431 24.0875C35.5278 24.2056 35.3137 24.3998 35.2262 24.383C35.0939 24.3578 34.949 24.1941 34.8886 24.0554C34.8313 23.9239 34.876 23.7495 34.876 23.592L34.8775 23.5905Z"
                                    fill="black" />
                                <path
                                    d="M34.8804 19.8382C34.8804 19.67 34.836 19.4842 34.8937 19.339C34.945 19.2109 35.1013 19.0633 35.2275 19.0465C35.3215 19.0343 35.5222 19.2067 35.5352 19.3141C35.5777 19.6587 35.5777 20.0071 35.5352 20.3517C35.5207 20.4621 35.3058 20.6307 35.1961 20.6219C35.0864 20.6131 34.9404 20.4365 34.888 20.3031C34.8356 20.1697 34.8765 19.995 34.8765 19.8386L34.8804 19.8382Z"
                                    fill="black" />
                                <path
                                    d="M28.1207 35.3454C28.1207 35.5136 28.1658 35.7001 28.107 35.8446C28.055 35.9727 27.8959 36.1191 27.7686 36.1352C27.6711 36.1474 27.4662 35.9796 27.4536 35.8741C27.4122 35.5286 27.4113 35.1795 27.4509 34.8338C27.4636 34.7257 27.6624 34.5525 27.7602 34.5624C27.8879 34.5754 28.0485 34.7192 28.1043 34.8468C28.1685 34.9894 28.133 35.1771 28.1425 35.3438L28.1207 35.3454Z"
                                    fill="black" />
                                <path
                                    d="M28.1241 27.8213C28.1241 27.9777 28.1688 28.1532 28.1122 28.2854C28.0557 28.4177 27.902 28.5844 27.7854 28.5886C27.6688 28.5928 27.4646 28.4227 27.449 28.308C27.4031 27.9747 27.4031 27.6367 27.449 27.3033C27.465 27.1887 27.6695 27.017 27.7842 27.0201C27.8989 27.0231 28.0606 27.1906 28.1118 27.3213C28.168 27.4673 28.1237 27.6531 28.1241 27.8213Z"
                                    fill="black" />
                                <path
                                    d="M28.1321 31.5632C28.1321 31.7077 28.1765 31.8732 28.1207 31.9913C28.0499 32.1423 27.8978 32.2547 27.7808 32.3839C27.6604 32.2582 27.4646 32.1477 27.4367 32.0039C27.3811 31.7198 27.3811 31.4276 27.4367 31.1434C27.4654 31.0008 27.6661 30.893 27.7881 30.7695C27.9027 30.8896 28.0518 30.9928 28.1176 31.135C28.1726 31.2539 28.1291 31.4187 28.1291 31.5632H28.1321Z"
                                    fill="black" />
                                <path
                                    d="M27.4254 20.2461C27.4254 20.0897 27.3818 19.915 27.4376 19.782C27.4934 19.649 27.6444 19.4808 27.7606 19.4762C27.8769 19.4716 28.0841 19.6383 28.1001 19.7518C28.1471 20.0841 28.1482 20.4212 28.1036 20.7538C28.0879 20.8685 27.886 21.0424 27.771 21.0409C27.6559 21.0394 27.4915 20.8742 27.4403 20.7442C27.3822 20.599 27.4269 20.4128 27.4269 20.2446L27.4254 20.2461Z"
                                    fill="black" />
                                <path
                                    d="M28.1423 42.908C28.1327 43.0686 28.161 43.264 28.0983 43.4238C28.0517 43.5419 27.8865 43.686 27.7741 43.686C27.6617 43.686 27.466 43.5312 27.453 43.4264C27.4106 43.0804 27.409 42.7307 27.448 42.3843C27.4606 42.2742 27.6564 42.098 27.7539 42.1068C27.8812 42.1178 28.044 42.2616 28.1021 42.3893C28.1686 42.5315 28.1335 42.7196 28.1423 42.908Z"
                                    fill="black" />
                                <path
                                    d="M27.4289 24.0378C27.4289 23.8696 27.3838 23.683 27.4423 23.5385C27.4943 23.4097 27.6621 23.2464 27.7768 23.2476C27.8915 23.2487 28.0906 23.4227 28.1059 23.54C28.1473 23.8739 28.1452 24.2117 28.0998 24.5451C28.0857 24.6544 27.8903 24.8257 27.7917 24.8169C27.6648 24.805 27.5031 24.664 27.4476 24.5363C27.383 24.3937 27.4186 24.206 27.4094 24.0393L27.4289 24.0378Z"
                                    fill="black" />
                                <path
                                    d="M27.4256 39.1036C27.4256 38.9473 27.382 38.7718 27.4386 38.6395C27.4951 38.5072 27.6511 38.3386 27.7669 38.336C27.8828 38.3333 28.0862 38.5061 28.1022 38.6223C28.1477 38.9559 28.147 39.2943 28.1003 39.6277C28.0843 39.7424 27.8774 39.9129 27.7635 39.9087C27.6496 39.9045 27.489 39.7355 27.4382 39.6029C27.3816 39.4576 27.4252 39.2722 27.4256 39.1036Z"
                                    fill="black" />
                                <path
                                    d="M29.7202 23.449C29.7202 23.293 29.6747 23.1168 29.7324 22.9865C29.7936 22.8481 29.9407 22.6879 30.0734 22.663C30.1606 22.647 30.367 22.8439 30.3838 22.9643C30.4287 23.2851 30.4287 23.6106 30.3838 23.9315C30.367 24.0523 30.1617 24.2495 30.0742 24.2339C29.9415 24.2098 29.7936 24.0496 29.7324 23.912C29.6747 23.7816 29.7202 23.605 29.7202 23.449Z"
                                    fill="black" />
                                <path
                                    d="M29.7267 27.1881C29.7267 27.0321 29.6816 26.8563 29.7394 26.7255C29.7971 26.5948 29.9469 26.4506 30.0727 26.4342C30.1668 26.422 30.3667 26.5944 30.3785 26.7018C30.4183 27.0472 30.4183 27.3959 30.3785 27.7413C30.3659 27.8487 30.1687 28.0226 30.0746 28.0115C29.9488 27.9966 29.786 27.851 29.7397 27.7244C29.6832 27.5646 29.7275 27.3678 29.7267 27.1881Z"
                                    fill="black" />
                                <path
                                    d="M29.7232 34.7543C29.7232 34.5983 29.6812 34.4252 29.7351 34.291C29.789 34.1568 29.9354 33.9851 30.0486 33.9806C30.1617 33.976 30.3662 34.1469 30.38 34.2596C30.421 34.6047 30.4196 34.9536 30.3758 35.2983C30.3628 35.4027 30.1686 35.5583 30.0589 35.5571C29.9492 35.556 29.7878 35.408 29.7435 35.2895C29.6835 35.1286 29.7129 34.9344 29.7053 34.7543H29.7232Z"
                                    fill="black" />
                                <path
                                    d="M29.718 42.3001C29.718 42.156 29.6756 41.9943 29.7291 41.8727C29.7922 41.7305 29.9386 41.625 30.0487 41.5034C30.1664 41.6181 30.3645 41.716 30.3859 41.8448C30.4358 42.1531 30.4358 42.4674 30.3859 42.7757C30.3645 42.9072 30.1706 43.0104 30.0548 43.1266C29.9424 43.0073 29.7891 42.9053 29.7295 42.7634C29.6737 42.6308 29.7176 42.4576 29.7176 42.3001H29.718Z"
                                    fill="black" />
                                <path
                                    d="M29.7201 38.5436C29.7201 38.3872 29.6749 38.2114 29.7323 38.0803C29.7931 37.9415 29.9376 37.7802 30.071 37.753C30.1566 37.7358 30.3661 37.9327 30.3833 38.0531C30.4279 38.374 30.4279 38.6994 30.3833 39.0203C30.3661 39.1423 30.1631 39.341 30.0756 39.3261C29.9426 39.3032 29.7935 39.1438 29.7315 39.0062C29.6749 38.8762 29.7204 38.6996 29.7201 38.5436Z"
                                    fill="black" />
                                <path
                                    d="M29.7035 19.6537C29.7119 19.4855 29.6817 19.3016 29.7417 19.1548C29.7907 19.0355 29.9462 18.8872 30.0567 18.8872C30.1672 18.8872 30.3626 19.0401 30.3748 19.1433C30.4138 19.5004 30.413 19.8607 30.3725 20.2176C30.361 20.3181 30.1588 20.4699 30.0495 20.4657C29.9401 20.4615 29.7842 20.3101 29.741 20.1901C29.6825 20.0276 29.7119 19.8338 29.7035 19.6537Z"
                                    fill="black" />
                                <path
                                    d="M29.7229 30.9807C29.7229 30.8248 29.6808 30.6516 29.7351 30.5174C29.7894 30.3832 29.9358 30.2135 30.0493 30.2081C30.1629 30.2028 30.3662 30.3748 30.3804 30.4876C30.4212 30.8326 30.4195 31.1813 30.3754 31.5259C30.3624 31.6303 30.1678 31.7851 30.0581 31.7839C29.9484 31.7828 29.7878 31.6345 29.7435 31.5163C29.6835 31.3558 29.7129 31.1616 29.7053 30.9811L29.7229 30.9807Z"
                                    fill="black" />
                                <path
                                    d="M23.7748 33.9093C23.9549 33.9093 24.151 33.8649 24.31 33.923C24.4396 33.9708 24.6067 34.1417 24.6059 34.2564C24.6052 34.3711 24.4262 34.5702 24.3081 34.584C23.9383 34.6272 23.5647 34.6272 23.1949 34.584C23.0802 34.5706 22.9051 34.3676 22.9063 34.2525C22.9074 34.1375 23.0741 33.9658 23.2029 33.9234C23.3761 33.8664 23.5825 33.9093 23.7763 33.9093H23.7748Z"
                                    fill="black" />
                                <path
                                    d="M23.742 39.3149C23.5738 39.3149 23.3873 39.3604 23.2424 39.3019C23.0975 39.2434 22.9129 39.0844 22.9102 38.9655C22.9075 38.8466 23.1013 38.6451 23.2305 38.6271C23.5761 38.5794 23.9267 38.5794 24.2723 38.6271C24.4046 38.6455 24.512 38.8428 24.6309 38.9586C24.5162 39.0771 24.4183 39.2472 24.2776 39.3027C24.1201 39.3623 23.9225 39.3164 23.7424 39.3164L23.742 39.3149Z"
                                    fill="black" />
                                <path
                                    d="M20.8215 34.6069C20.6532 34.6069 20.4675 34.6516 20.3218 34.5942C20.1761 34.5369 20.076 34.3775 19.9556 34.2628C20.0703 34.1431 20.1731 33.9375 20.2996 33.9187C20.657 33.8734 21.0187 33.8734 21.3762 33.9187C21.4943 33.9336 21.687 34.1435 21.6728 34.2391C21.6537 34.3725 21.4924 34.5354 21.3548 34.5881C21.1976 34.6485 20.9996 34.6023 20.8195 34.6023L20.8215 34.6069Z"
                                    fill="black" />
                                <path
                                    d="M20.8147 39.3077C20.6346 39.3077 20.4385 39.352 20.2795 39.2943C20.1487 39.2469 19.9798 39.0795 19.979 38.964C19.9782 38.8486 20.1556 38.6471 20.2726 38.6333C20.6422 38.5903 21.0155 38.5903 21.3851 38.6333C21.4998 38.6467 21.6752 38.8466 21.6756 38.9617C21.676 39.0768 21.5128 39.2519 21.3855 39.2943C21.2127 39.3505 21.0066 39.3069 20.8147 39.3077Z"
                                    fill="black" />
                                <path
                                    d="M23.7248 44.0404C23.5451 44.0308 23.3483 44.0633 23.1915 43.9983C23.0638 43.9456 22.9021 43.7728 22.9063 43.6588C22.9105 43.5449 23.0906 43.353 23.2122 43.3392C23.5702 43.2964 23.9321 43.2964 24.2902 43.3392C24.4145 43.3538 24.619 43.5526 24.6075 43.6451C24.5911 43.7796 24.4336 43.9536 24.2971 44.0037C24.1277 44.0656 23.9186 44.0186 23.7263 44.0186L23.7248 44.0404Z"
                                    fill="black" />
                                <path
                                    d="M17.9031 34.6074C17.7349 34.6074 17.5495 34.6518 17.4035 34.5948C17.2574 34.5379 17.0709 34.3842 17.0655 34.2649C17.0602 34.1456 17.2513 33.9373 17.3767 33.9208C17.734 33.8753 18.0956 33.8753 18.4529 33.9208C18.5741 33.9357 18.7717 34.1441 18.7587 34.2378C18.7388 34.3719 18.5775 34.5352 18.4387 34.5887C18.2824 34.6495 18.084 34.6028 17.9035 34.6028L17.9031 34.6074Z"
                                    fill="black" />
                                <path
                                    d="M17.8881 39.3073C17.7081 39.3073 17.512 39.3516 17.3529 39.2931C17.2249 39.2461 17.0612 39.0748 17.062 38.9594C17.0628 38.8439 17.2383 38.6448 17.3545 38.6314C17.724 38.5884 18.0974 38.5884 18.4669 38.6314C18.5816 38.6451 18.759 38.8481 18.7575 38.9628C18.7559 39.0775 18.5881 39.2503 18.4589 39.2931C18.2857 39.3505 18.0797 39.3073 17.8874 39.3073H17.8881Z"
                                    fill="black" />
                                <path
                                    d="M20.855 43.3272C21.0351 43.3272 21.2277 43.289 21.3902 43.3402C21.5122 43.3785 21.6811 43.5406 21.6762 43.64C21.6701 43.7661 21.5202 43.9768 21.4128 43.9898C21.032 44.0351 20.6473 44.0378 20.2659 43.9978C20.1512 43.9856 19.9566 43.7581 19.9765 43.669C20.0067 43.5344 20.1749 43.385 20.3175 43.3334C20.4769 43.2756 20.673 43.32 20.8527 43.32L20.855 43.3272Z"
                                    fill="black" />
                                <path
                                    d="M17.926 43.3216C18.0943 43.3216 18.2804 43.2761 18.4253 43.3342C18.5702 43.3924 18.7312 43.5407 18.7579 43.6741C18.7751 43.7666 18.5821 43.9864 18.4651 44.0002C18.0959 44.0434 17.7229 44.0434 17.3538 44.0002C17.2391 43.9868 17.0479 43.7708 17.0628 43.6756C17.0862 43.543 17.2513 43.3874 17.3905 43.3358C17.5491 43.2765 17.746 43.3216 17.926 43.3216Z"
                                    fill="black" />
                                <path
                                    d="M17.8826 36.949C17.7147 36.949 17.5282 36.9944 17.3856 36.936C17.2476 36.8798 17.0878 36.728 17.0629 36.595C17.0469 36.5082 17.2457 36.2979 17.3642 36.2849C17.7327 36.2443 18.1046 36.2456 18.4728 36.2887C18.5875 36.3021 18.7634 36.5044 18.7599 36.6156C18.7565 36.7268 18.5837 36.8912 18.4541 36.9321C18.2798 36.9872 18.0749 36.9459 17.8829 36.9459L17.8826 36.949Z"
                                    fill="black" />
                                <path
                                    d="M17.8946 41.6543C17.7146 41.6543 17.52 41.6971 17.3594 41.6409C17.2302 41.5958 17.0616 41.4326 17.0601 41.3198C17.0585 41.207 17.2348 41.0098 17.3498 40.9964C17.7188 40.9543 18.0914 40.9543 18.4604 40.9964C18.5781 41.0098 18.7777 41.2258 18.7593 41.3087C18.7295 41.4429 18.5682 41.5947 18.4291 41.6455C18.2704 41.7036 18.0739 41.6589 17.8938 41.6589L17.8946 41.6543Z"
                                    fill="black" />
                                <path
                                    d="M17.8997 31.5591C18.0797 31.5591 18.2762 31.514 18.4349 31.5725C18.5736 31.6241 18.7338 31.7785 18.761 31.9123C18.7778 31.9972 18.5771 32.2094 18.4582 32.2224C18.0891 32.2633 17.7165 32.2624 17.3476 32.2197C17.2329 32.2063 17.059 32.0045 17.0621 31.8924C17.0651 31.7804 17.2356 31.6195 17.3652 31.5748C17.5258 31.5193 17.7204 31.5614 17.9004 31.5614L17.8997 31.5591Z"
                                    fill="black" />
                                <path
                                    d="M20.82 41.6549C20.6403 41.6549 20.4458 41.6969 20.2848 41.6415C20.1537 41.596 19.979 41.4362 19.9771 41.3223C19.9752 41.2084 20.1525 41.0111 20.2691 40.9974C20.6374 40.9544 21.0093 40.9534 21.3778 40.9943C21.4951 41.0073 21.6928 41.2187 21.6763 41.3055C21.6511 41.4385 21.4906 41.5933 21.3525 41.6442C21.1943 41.7027 20.9982 41.658 20.8173 41.658L20.82 41.6549Z"
                                    fill="black" />
                                <path
                                    d="M20.8138 32.2606C20.6342 32.2518 20.4392 32.2831 20.2786 32.2224C20.1479 32.1719 19.9759 32.0121 19.9751 31.9001C19.9743 31.7881 20.1544 31.5912 20.2718 31.5774C20.6409 31.5354 21.0136 31.5354 21.3827 31.5774C21.4993 31.5908 21.6771 31.7854 21.6778 31.8982C21.6786 32.011 21.5111 32.1773 21.3831 32.2231C21.2118 32.2847 21.0058 32.2537 20.8138 32.2606Z"
                                    fill="black" />
                                <path
                                    d="M20.8208 36.9456C20.6411 36.9456 20.4469 36.9876 20.2856 36.9322C20.1541 36.8871 19.9798 36.7277 19.9771 36.6145C19.9744 36.5014 20.1529 36.301 20.268 36.2888C20.6493 36.2499 21.0337 36.2508 21.4149 36.2915C21.5204 36.3022 21.6932 36.5037 21.6825 36.5973C21.666 36.7227 21.5189 36.8875 21.3931 36.9291C21.2199 36.9861 21.0142 36.9437 20.8227 36.9437L20.8208 36.9456Z"
                                    fill="black" />
                                <path
                                    d="M23.7454 36.9462C23.5657 36.9462 23.3715 36.9882 23.2102 36.9328C23.0787 36.8877 22.9044 36.7298 22.9009 36.6163C22.8975 36.5027 23.0745 36.3013 23.1884 36.2887C23.5697 36.2494 23.9541 36.2502 24.3353 36.2909C24.4435 36.302 24.6224 36.5024 24.6101 36.5968C24.5933 36.7233 24.4439 36.8877 24.3162 36.9301C24.1438 36.9875 23.9377 36.9443 23.7462 36.9443L23.7454 36.9462Z"
                                    fill="black" />
                                <path
                                    d="M23.7557 32.2637C23.5646 32.2534 23.357 32.2839 23.1865 32.2193C23.0603 32.1712 22.9154 32.0056 22.9032 31.8799C22.8936 31.7854 23.0726 31.5908 23.1815 31.5801C23.5629 31.5423 23.947 31.5423 24.3284 31.5801C24.4377 31.5908 24.6178 31.7847 24.6086 31.8795C24.5967 32.0049 24.4515 32.1708 24.3249 32.2189C24.1544 32.2839 23.9476 32.2534 23.7557 32.2637Z"
                                    fill="black" />
                                <path
                                    d="M23.7466 41.655C23.5669 41.655 23.3727 41.6975 23.2114 41.642C23.0799 41.5969 22.9055 41.4383 22.9029 41.3247C22.9002 41.2112 23.0764 41.0101 23.1907 40.9975C23.5721 40.9584 23.9564 40.9592 24.3376 40.9998C24.4454 41.0109 24.6236 41.212 24.6109 41.3056C24.5937 41.4325 24.445 41.5969 24.3173 41.6394C24.1449 41.6967 23.9389 41.6535 23.747 41.6535L23.7466 41.655Z"
                                    fill="black" />
                                <path
                                    d="M44.5886 36.0836C44.5943 35.9876 44.566 35.8683 44.613 35.8007C44.6945 35.6826 44.818 35.5243 44.9311 35.5178C45.0443 35.5113 45.2174 35.6558 45.2591 35.772C45.3249 35.9528 45.3334 36.1494 45.2832 36.3351C45.2385 36.4754 45.0622 36.5741 44.9445 36.6914C44.8298 36.5611 44.7021 36.4376 44.6004 36.2965C44.566 36.2487 44.5947 36.1562 44.5947 36.084L44.5886 36.0836Z"
                                    fill="black" />
                                <path
                                    d="M44.5801 40.9896C44.5958 40.8998 44.5927 40.7714 44.642 40.6681C44.751 40.4407 44.941 40.3921 45.147 40.534C45.394 40.7041 45.3722 41.417 45.1264 41.5826C44.931 41.7141 44.6875 41.6208 44.6175 41.3769C44.5862 41.2637 44.5938 41.1395 44.5801 40.9896Z"
                                    fill="black" />
                                <path
                                    d="M45.3193 38.6021C45.304 38.6973 45.3193 38.8246 45.2624 38.9041C45.1882 39.0116 45.0529 39.1595 44.9565 39.1499C44.8346 39.1373 44.6622 39.0062 44.6266 38.8907C44.5705 38.6939 44.5673 38.4856 44.6174 38.2871C44.6488 38.1655 44.8189 37.9916 44.9175 37.9977C45.0437 38.005 45.1825 38.1533 45.2731 38.2733C45.3304 38.3471 45.3075 38.4813 45.3193 38.6021Z"
                                    fill="black" />
                                <path
                                    d="M45.3323 33.6159C45.3048 33.7482 45.3002 33.8858 45.2478 34.0017C45.1511 34.2146 44.9695 34.2632 44.7707 34.15C44.5092 34.0017 44.5138 33.2451 44.7734 33.0849C44.9806 32.9573 45.1492 33.0303 45.2467 33.2321C45.3017 33.3461 45.3052 33.4844 45.3323 33.6159Z"
                                    fill="black" />
                                <path
                                    d="M44.5943 43.407C44.5943 43.4013 44.5713 43.2706 44.6248 43.1933C44.6979 43.0874 44.8278 42.9601 44.9368 42.9571C45.0457 42.954 45.2128 43.0745 45.2499 43.1781C45.311 43.3508 45.3405 43.5699 45.2881 43.7381C45.2399 43.8864 45.0587 43.9923 44.9379 44.117C44.8232 43.9862 44.7001 43.8624 44.6011 43.7213C44.566 43.6727 44.5943 43.581 44.5943 43.407Z"
                                    fill="black" />
                                <path
                                    d="M44.5882 31.1309C44.5939 31.0353 44.5664 30.9168 44.613 30.8491C44.6933 30.7345 44.8153 30.577 44.9281 30.5701C45.0408 30.5632 45.2167 30.7016 45.258 30.8151C45.3239 30.995 45.3325 31.191 45.2824 31.3759C45.2389 31.5143 45.0634 31.6114 44.9464 31.7269C44.8294 31.6003 44.7021 31.4807 44.6004 31.3446C44.566 31.298 44.5947 31.2047 44.5947 31.1328L44.5882 31.1309Z"
                                    fill="black" />
                                <path
                                    d="M43.6174 32.5684C43.6052 32.6755 43.625 32.8039 43.5723 32.8842C43.5008 32.9932 43.367 33.1419 43.2718 33.1335C43.1514 33.1231 42.9878 32.9935 42.943 32.8766C42.8794 32.7073 42.873 32.5219 42.9247 32.3486C42.9778 32.1957 43.1437 32.0841 43.26 31.9541C43.3746 32.0868 43.4985 32.2125 43.5975 32.3555C43.6315 32.4041 43.6029 32.4958 43.6029 32.5677L43.6174 32.5684Z"
                                    fill="black" />
                                <path
                                    d="M43.6155 39.9744C43.6052 40.0814 43.6301 40.2118 43.5773 40.2894C43.5008 40.4041 43.3674 40.5536 43.2573 40.5543C43.1472 40.5551 42.9867 40.4113 42.9389 40.2944C42.88 40.1491 42.906 39.9652 42.9102 39.7974C42.9167 39.568 43.0249 39.3604 43.2673 39.4151C43.4007 39.4441 43.4993 39.6571 43.5991 39.7974C43.6274 39.8356 43.6037 39.9121 43.6037 39.9736L43.6155 39.9744Z"
                                    fill="black" />
                                <path
                                    d="M43.6148 37.5524C43.6063 37.6247 43.6274 37.7661 43.5689 37.8556C43.5001 37.9611 43.3613 38.0849 43.2539 38.0849C43.1464 38.0849 42.9821 37.9569 42.948 37.8514C42.8879 37.6692 42.8807 37.4736 42.9274 37.2875C42.9687 37.1472 43.1166 36.9683 43.247 36.9388C43.4683 36.8891 43.5811 37.0734 43.6021 37.2909C43.609 37.3613 43.6094 37.4331 43.6148 37.5524Z"
                                    fill="black" />
                                <path
                                    d="M42.897 35.0298C42.9088 34.9121 42.8863 34.7828 42.9386 34.7033C43.0101 34.5951 43.1363 34.4613 43.2445 34.4571C43.3527 34.4529 43.54 34.5783 43.5602 34.675C43.6076 34.9083 43.6084 35.1487 43.5625 35.3823C43.5427 35.4813 43.3603 35.6117 43.2533 35.6117C43.1462 35.6117 43.0113 35.4805 42.944 35.3727C42.8863 35.281 42.9088 35.1395 42.897 35.0298Z"
                                    fill="black" />
                                <path
                                    d="M43.6133 30.112C43.6071 30.1846 43.6297 30.2901 43.5869 30.3471C43.4951 30.4702 43.3709 30.6529 43.2585 30.6529C43.1461 30.6529 42.9855 30.4824 42.9332 30.3513C42.8747 30.206 42.9072 30.0206 42.9148 29.8543C42.9248 29.6314 43.0555 29.454 43.2681 29.4972C43.3973 29.5236 43.5039 29.7174 43.5942 29.8535C43.6343 29.9132 43.6087 30.0168 43.6133 30.112Z"
                                    fill="black" />
                                <path
                                    d="M42.9 42.4681C42.9072 42.3725 42.8805 42.2528 42.9283 42.1867C43.0166 42.0644 43.15 41.8908 43.2612 41.8931C43.3725 41.8954 43.5289 42.0663 43.5808 42.1989C43.6386 42.3577 43.6409 42.5314 43.5873 42.6917C43.5346 42.8347 43.379 42.9394 43.2685 43.061C43.1496 42.936 43.0212 42.8182 42.9176 42.6818C42.8828 42.6359 42.9118 42.5422 42.9118 42.4703L42.9 42.4681Z"
                                    fill="black" />
                            </svg>