<svg width="86" height="86" viewBox="0 0 86 86" fill="none"
                                xmlns="http://www.w3.org/2000/svg">
                                <circle cx="42.82" cy="42.82" r="41.82" fill="white" />
                                <circle cx="42.82" cy="42.82" r="42.32" stroke="#2E3192" stroke-opacity="0.2"
                                    stroke-linejoin="round" />
                                <circle opacity="0.6" cx="43.31" cy="42.31" r="37.31" fill="#C8DCFE" />
                                <!-- <ellipse class="orng-dot" cx="9.02977" cy="15.0905" rx="4.27" ry="4.28"
                                    fill="#FC5133" /> -->
                                <!-- <circle cx="76.6997" cy="68.6606" r="4.27" fill="#2E3192" /> -->
                                <g clip-path="url(#clip0_4_12154)">
                                    <path
                                        d="M42.988 65.0009H22.0214C21.3171 65.0009 20.9888 64.8137 21.0024 64.4179C21.0154 64.0435 21.3225 63.8451 22.0046 63.8767C22.4673 63.8981 22.5155 63.6889 22.5155 63.3124C22.5072 53.4512 22.5041 43.5899 22.5063 33.7283C22.5063 32.7742 22.7945 31.9902 23.7063 31.5425C24.5445 31.1312 25.3078 31.3254 26.0316 31.8516C28.4194 33.5873 30.812 35.3186 33.2096 37.0454C33.4035 37.1849 33.643 37.2593 33.8635 37.3663C33.909 37.1299 33.993 36.8935 33.9935 36.6571C34.0014 32.9553 34.0034 29.2534 33.9995 25.5513C33.9995 24.0185 34.5109 23.3853 36.0089 23.0232C36.1221 22.9954 36.2072 22.8376 36.2933 22.7312C36.3166 22.7023 36.2966 22.6397 36.2977 22.5927C36.3432 20.7069 37.0805 20.002 39.0065 20.002C42.7567 20.002 46.5068 20.002 50.257 20.002C51.9256 20.002 52.7708 20.8213 52.7594 22.4622C52.7594 22.8323 52.8174 23.0066 53.2502 23.0756C54.408 23.2607 55.0635 24.1068 55.0641 25.3272C55.0673 30.8895 55.0673 36.4503 55.0641 42.0096C55.0641 42.6926 55.0641 42.6926 55.7727 42.6932C56.8097 42.6932 57.8472 42.6883 58.8841 42.6932C60.2927 42.7006 61.2034 43.5815 61.1796 44.9715C61.1709 45.4727 61.263 45.7058 61.8232 45.808C62.871 45.9984 63.4838 46.8306 63.4881 47.9313C63.4968 50.2471 63.4881 52.5624 63.4914 54.8782C63.4914 57.6978 63.4989 60.5179 63.4827 63.3376C63.4827 63.7462 63.591 63.8959 64.0196 63.8772C64.6833 63.8483 65.0045 64.0628 64.9948 64.4447C64.985 64.8265 64.6697 65.0025 63.9985 65.0025L42.988 65.0009ZM35.1486 44.2495C35.1486 50.6129 35.1457 56.9763 35.1399 63.3397C35.1399 63.7547 35.2585 63.8906 35.6817 63.8745C36.4781 63.8446 37.2777 63.8424 38.0741 63.8745C38.513 63.8922 38.6061 63.7275 38.604 63.3279C38.5894 60.4933 38.5921 57.6587 38.5975 54.8242C38.6013 52.9892 39.8327 51.7756 41.6856 51.7671C42.7865 51.7628 43.8879 51.7494 44.9904 51.7751C45.4043 51.7852 45.5056 51.6371 45.4986 51.2558C45.4785 50.1219 45.4796 48.9876 45.4959 47.8537C45.511 46.8022 46.1492 45.9754 47.1867 45.8C47.7458 45.7048 47.8049 45.4545 47.7995 44.9892C47.7827 43.5735 48.6874 42.6974 50.1264 42.6894C51.1953 42.6851 52.2648 42.668 53.3331 42.6985C53.7893 42.7113 53.9291 42.5824 53.9291 42.1198C53.9132 36.5284 53.9098 30.9365 53.9188 25.3444C53.9188 24.4469 53.6273 24.1597 52.7177 24.1597H36.3464C35.4373 24.1597 35.1486 24.4458 35.1486 25.347V44.2495ZM23.6592 48.3886C23.6592 53.3518 23.6668 58.3144 23.6484 63.2771C23.6484 63.767 23.7974 63.8799 24.2725 63.8767C27.3064 63.8563 30.3365 63.8665 33.3688 63.866C34.0016 63.866 34.0022 63.866 34.0022 63.2499C34.0022 55.3408 34.0051 47.4319 34.0108 39.5232C34.0108 39.1365 33.9025 38.8921 33.5807 38.6621C30.8447 36.7011 28.1178 34.7279 25.3999 32.7427C25.0207 32.4645 24.6181 32.3469 24.1966 32.5319C23.754 32.7266 23.6549 33.1277 23.6549 33.5952C23.6625 38.5263 23.6639 43.4574 23.6592 48.3886ZM46.6401 55.5504C46.6401 58.1326 46.6482 60.7153 46.6325 63.2975C46.6325 63.7093 46.7094 63.8761 47.1797 63.8745C52.0607 63.8574 56.9417 63.8574 61.8227 63.8745C62.2561 63.8745 62.3542 63.7317 62.3536 63.3301C62.3417 58.2128 62.339 53.0954 62.3455 47.9778C62.3455 47.1515 62.0334 46.8493 61.1834 46.8493C56.7178 46.8493 52.2516 46.8493 47.7848 46.8493C46.9456 46.8493 46.6412 47.1547 46.6406 47.9938C46.6395 50.514 46.6394 53.0328 46.6401 55.5504ZM45.4926 58.3808C45.4926 56.7126 45.4823 55.044 45.5007 53.3758C45.5045 52.9982 45.3821 52.8859 45.0056 52.8945C43.8261 52.9148 42.6461 52.8945 41.4667 52.9036C40.4677 52.9095 39.7509 53.6154 39.7487 54.6038C39.7433 57.5309 39.7525 60.4586 39.7395 63.3857C39.7395 63.7542 39.8425 63.8804 40.2271 63.8761C41.821 63.8576 43.4151 63.8576 45.0093 63.8761C45.3918 63.8804 45.5034 63.7595 45.4997 63.3878C45.4812 61.7176 45.4926 60.0489 45.4926 58.3808ZM44.5391 23.0286C46.5978 23.0286 48.6517 23.0339 50.7082 23.0286C51.7289 23.0248 51.6228 23.2029 51.6179 22.0792C51.6179 21.4989 51.2468 21.1433 50.6514 21.1427C46.57 21.1381 42.4887 21.1381 38.4073 21.1427C37.8152 21.1427 37.4657 21.5032 37.4473 22.0873C37.443 22.229 37.463 22.3729 37.4435 22.5119C37.3828 22.9398 37.5757 23.0419 37.9853 23.0387C40.1702 23.0168 42.3541 23.0259 44.5375 23.0259L44.5391 23.0286ZM54.4687 45.7149C56.0301 45.7149 57.592 45.7198 59.1534 45.7149C60.1519 45.7107 60.0473 45.8674 60.0446 44.7934C60.0446 44.2019 59.687 43.8307 59.1063 43.8307C56.0308 43.8236 52.9553 43.8236 49.8799 43.8307C49.3153 43.8307 48.9632 44.1933 48.9404 44.7469C48.9339 44.9036 48.9556 45.0635 48.9356 45.2181C48.8841 45.6165 49.0537 45.7304 49.4492 45.7262C51.1222 45.7042 52.7957 45.7149 54.4687 45.7149Z"
                                        fill="black" />
                                    <path
                                        d="M44.5352 28.3202H50.8501C50.9455 28.3202 51.0414 28.3202 51.1373 28.3202C51.6698 28.3266 51.9792 28.5378 51.9759 28.8908C51.9727 29.2438 51.665 29.4535 51.1291 29.4535C46.7278 29.4535 42.3266 29.4526 37.9256 29.4508C37.755 29.4508 37.5464 29.4471 37.4234 29.3572C37.2744 29.2502 37.1102 29.0443 37.1113 28.8828C37.1124 28.7213 37.2777 28.5127 37.4299 28.4148C37.5735 28.3223 37.7945 28.3239 37.9814 28.3234C40.1658 28.318 42.3504 28.317 44.5352 28.3202Z"
                                        fill="black" />
                                    <path
                                        d="M44.5324 32.8568C46.685 32.8568 48.8377 32.8568 50.9903 32.8568C51.1496 32.8568 51.35 32.8087 51.4589 32.8846C51.6599 33.0242 51.9395 33.2392 51.9395 33.4227C51.9395 33.6061 51.6567 33.8158 51.4595 33.9629C51.3652 34.0329 51.1815 33.9896 51.038 33.9896C46.7005 33.9896 42.3633 33.9896 38.0262 33.9896H37.978C37.4021 33.9859 37.0884 33.7858 37.0879 33.4222C37.0873 33.0585 37.401 32.8563 37.9786 32.8558C40.163 32.8558 42.3476 32.8561 44.5324 32.8568Z"
                                        fill="black" />
                                    <path
                                        d="M44.5313 37.3957C46.6843 37.3957 48.8371 37.3957 50.9898 37.3957C51.149 37.3957 51.3495 37.3481 51.4584 37.4235C51.6594 37.5631 51.9395 37.7775 51.9395 37.9615C51.9395 38.1455 51.6572 38.3546 51.46 38.5017C51.3663 38.5718 51.1821 38.529 51.0391 38.529H37.9791C37.4021 38.5252 37.089 38.3257 37.0879 37.9621C37.0868 37.5984 37.401 37.3957 37.9775 37.3951C40.1623 37.3948 42.3469 37.395 44.5313 37.3957Z"
                                        fill="black" />
                                    <path
                                        d="M41.8509 41.9329C43.142 41.9329 44.433 41.9291 45.7241 41.9361C45.911 41.9361 46.1315 41.9361 46.2745 42.0297C46.4262 42.1286 46.5898 42.3383 46.5893 42.4998C46.5887 42.6613 46.4267 42.8779 46.2734 42.9688C46.1201 43.0597 45.8779 43.0629 45.6775 43.0635C43.1275 43.0688 40.5774 43.0701 38.0271 43.0672H37.9794C37.4035 43.0629 37.0898 42.8624 37.0898 42.4987C37.0898 42.135 37.403 41.9339 37.98 41.9334C39.2694 41.9313 40.5597 41.9311 41.8509 41.9329Z"
                                        fill="black" />
                                    <path
                                        d="M40.6904 47.6045C39.7488 47.6045 38.8072 47.6083 37.8656 47.6045C37.3704 47.6045 37.0724 47.3783 37.0762 47.0333C37.08 46.6884 37.3758 46.4744 37.8759 46.4734C39.7587 46.4698 41.6415 46.4698 43.5244 46.4734C44.0168 46.4734 44.3192 46.7017 44.3148 47.044C44.3105 47.3863 44.0109 47.6024 43.5146 47.6045C42.573 47.6078 41.6314 47.6045 40.6904 47.6045Z"
                                        fill="black" />
                                    <path
                                        d="M28.8598 40.4211C29.6405 40.4211 30.4206 40.4211 31.2013 40.4211C31.7431 40.4211 32.046 40.6233 32.0563 40.9741C32.0665 41.325 31.7567 41.5528 31.2279 41.5533C29.6188 41.5566 28.0098 41.5566 26.4007 41.5533C25.9012 41.5533 25.6043 41.3394 25.594 41.0003C25.5837 40.6447 25.8925 40.4238 26.4224 40.4211C27.2345 40.4184 28.0471 40.4211 28.8598 40.4211Z"
                                        fill="black" />
                                    <path
                                        d="M28.829 44.9596C29.6417 44.9596 30.4543 44.9559 31.267 44.9596C31.7594 44.9629 32.0607 45.1853 32.059 45.5271C32.0574 45.8689 31.7567 46.0897 31.2632 46.0908C29.6379 46.0947 28.0126 46.0947 26.3872 46.0908C25.8953 46.0908 25.5941 45.8646 25.5957 45.5234C25.5973 45.1821 25.8969 44.9629 26.391 44.9596C27.2042 44.9538 28.0163 44.9596 28.829 44.9596Z"
                                        fill="black" />
                                    <path
                                        d="M28.8263 49.4958C29.6389 49.4958 30.4516 49.4921 31.2643 49.4958C31.7578 49.499 32.0585 49.7188 32.0596 50.06C32.0607 50.4013 31.7589 50.6291 31.2664 50.6291C29.6411 50.6327 28.0158 50.6327 26.3905 50.6291C25.8969 50.6291 25.5968 50.4061 25.5957 50.0643C25.5946 49.7226 25.8948 49.5006 26.3878 49.4974C27.2015 49.4921 28.0136 49.4958 28.8263 49.4958Z"
                                        fill="black" />
                                    <path
                                        d="M28.8003 55.1678C27.9876 55.1678 27.175 55.1651 26.3623 55.1678C25.9668 55.1678 25.658 55.041 25.6038 54.6185C25.5583 54.2794 25.8861 54.0361 26.371 54.0345C28.012 54.0296 29.653 54.0345 31.2941 54.0312C31.6895 54.0312 31.9984 54.158 32.0525 54.58C32.098 54.9185 31.7692 55.1613 31.2848 55.1651C30.457 55.172 29.6286 55.1678 28.8003 55.1678Z"
                                        fill="black" />
                                    <path
                                        d="M54.4971 51.3861C52.8389 51.3861 51.1807 51.3861 49.5225 51.3861C49.3795 51.3861 49.1974 51.4299 49.1015 51.3604C48.9033 51.2144 48.6194 51.0079 48.6172 50.8256C48.615 50.6432 48.8962 50.4309 49.0923 50.2822C49.1855 50.2121 49.3703 50.2554 49.5133 50.2554C52.8293 50.2554 56.1453 50.2554 59.4613 50.2554C60.0843 50.2554 60.4007 50.4458 60.4045 50.8175C60.4083 51.1892 60.0881 51.3893 59.4711 51.3893C57.8129 51.3878 56.1549 51.3868 54.4971 51.3861Z"
                                        fill="black" />
                                    <path
                                        d="M54.4565 55.924H49.5779C49.4506 55.924 49.3222 55.9288 49.1954 55.9181C48.8514 55.8898 48.5956 55.7127 48.5918 55.3683C48.5875 54.9971 48.8541 54.8185 49.2192 54.7934C49.3146 54.7869 49.4105 54.7896 49.5058 54.7896H59.4544C60.0817 54.7896 60.3949 54.9736 60.4046 55.3442C60.4151 55.73 60.0901 55.9231 59.4295 55.9235L54.4565 55.924Z"
                                        fill="black" />
                                    <path
                                        d="M54.4908 59.3278C56.1486 59.3278 57.8066 59.3278 59.4648 59.3278C59.6078 59.3278 59.7899 59.2845 59.8858 59.354C60.0835 59.5011 60.3663 59.7091 60.3669 59.8931C60.3674 60.0771 60.0851 60.2862 59.8879 60.4338C59.7948 60.5039 59.6106 60.4611 59.467 60.4611H49.4713C48.8943 60.4573 48.5812 60.2579 48.5801 59.8947C48.579 59.5316 48.8927 59.3278 49.4686 59.3273C51.1427 59.3265 52.8167 59.3267 54.4908 59.3278Z"
                                        fill="black" />
                                </g>
                                <defs>
                                    <clipPath id="clip0_4_12154">
                                        <rect width="44" height="45" fill="white" transform="translate(21 20)" />
                                    </clipPath>
                                </defs>
                            </svg>