<svg width="63" height="63" viewBox="0 0 63 63" fill="none"
                                xmlns="http://www.w3.org/2000/svg">
                                <ellipse cx="31.5148" cy="31.5199" rx="30.0939" ry="30.1005" fill="white" />
                                <path
                                    d="M31.5148 61.948C48.3163 61.948 61.9364 48.3248 61.9364 31.5199C61.9364 14.715 48.3163 1.09176 31.5148 1.09176C14.7134 1.09176 1.09322 14.715 1.09322 31.5199C1.09322 48.3248 14.7134 61.948 31.5148 61.948Z"
                                    stroke="#2E3192" stroke-opacity="0.2" stroke-width="0.655355"
                                    stroke-linejoin="round" />
                                <circle opacity="0.6" cx="31.5486" cy="31.5462" r="26.8499" fill="#C8DCFE" />

                                <path fill-rule="evenodd" clip-rule="evenodd"
                                    d="M44.4223 44.6633H18.0611V43.1298H44.4223V44.6633ZM31.6978 34.2885H35.325C35.5746 34.2885 35.7758 34.4864 35.7758 34.7295V42.2423H31.6978L31.6978 34.2885ZM26.7078 42.2427V34.7299C26.7078 34.4868 26.909 34.2889 27.1587 34.2889H30.7858V42.2431L26.7078 42.2427ZM20.5722 30.6169V42.2427H25.7983V34.7299C25.7983 33.9977 26.4073 33.4013 27.1586 33.4013H35.325C36.076 33.4013 36.6853 33.9974 36.6853 34.7299V42.2427H41.9114V41.0261H40.291C40.0414 41.0261 39.8376 40.8275 39.8376 40.5821C39.8376 40.3372 40.0414 40.1382 40.291 40.1382H41.9114V38.5217H40.291C40.0414 38.5217 39.8376 38.3232 39.8376 38.0778C39.8376 37.833 40.0414 37.6339 40.291 37.6339H41.9114V36.0178H40.291C40.0414 36.0178 39.8376 35.8193 39.8376 35.5739C39.8376 35.3285 40.0414 35.13 40.291 35.13H41.9114V30.6171C41.7102 30.6449 41.5062 30.6605 41.2971 30.6605C39.8481 30.6605 38.5873 29.9648 37.9461 28.9429C37.3022 29.9648 36.0416 30.6605 34.5926 30.6605C33.1467 30.6605 31.8858 29.9648 31.2417 28.9429C30.5978 29.9648 29.3371 30.6605 27.8907 30.6605C26.4422 30.6605 25.181 29.9648 24.5372 28.9429C23.8959 29.9648 22.6352 30.6605 21.1863 30.6605C20.9773 30.6603 20.7736 30.6449 20.5724 30.6171L20.5722 30.6169ZM18.3427 27.8397H24.033C23.778 28.9386 22.6003 29.7723 21.1867 29.7723C19.7754 29.7725 18.5949 28.9386 18.3429 27.8397H18.3427ZM21.9189 21.6635C21.9324 21.6419 21.9697 21.6292 22.0155 21.6292H25.8679L24.2019 26.952H18.6433L21.9189 21.6635ZM22.9275 18.0357H39.5555C39.8077 18.0357 40.0115 18.2349 40.0115 18.4797V20.7419H22.4712V18.4797C22.4712 18.2349 22.675 18.0357 22.9272 18.0357H22.9275ZM43.8403 26.9519H38.2818L36.6155 21.6293H40.4679C40.5137 21.6293 40.551 21.6419 40.5645 21.6636L43.8403 26.9519ZM37.4392 27.8394C37.1844 28.9383 36.0065 29.7721 34.5928 29.7721C33.1816 29.7721 32.0011 28.9383 31.7491 27.8394H37.4392ZM30.7346 27.8394C30.4824 28.9383 29.302 29.7721 27.8909 29.7721C26.4771 29.7721 25.2992 28.9383 25.0446 27.8394H30.7346ZM35.6631 21.629H31.6979V26.9516H37.3294L35.6631 21.629ZM30.7859 21.629H26.8206L25.1548 26.9516H30.7863L30.7859 21.629ZM41.2969 29.772C39.8831 29.772 38.7051 28.9383 38.4506 27.8393H44.1408C43.8858 28.9381 42.7083 29.772 41.297 29.772H41.2969ZM44.6022 42.2421H42.8208L42.8206 30.3852C44.162 29.8798 45.1008 28.7303 45.1008 27.3958C45.1008 27.3147 45.0793 27.2353 45.0365 27.1661L41.3423 21.205C41.243 21.0424 41.0956 20.917 40.9212 20.8376V18.4795C40.9212 17.7455 40.3094 17.1479 39.5554 17.1479H22.9274C22.1735 17.1479 21.5619 17.7453 21.5619 18.4795V20.8376C21.3875 20.9168 21.2401 21.0424 21.1409 21.2044L17.4464 27.166C17.4036 27.2354 17.3796 27.3146 17.3796 27.3957C17.3796 28.7302 18.3213 29.8797 19.6627 30.3851V42.242H17.881C17.4784 42.242 17.1514 42.5609 17.1514 42.9537V44.8385C17.1514 45.2308 17.4788 45.5504 17.881 45.5504H44.602C45.0046 45.5504 45.3316 45.2308 45.3316 44.8385V42.9537C45.3316 42.5612 45.0047 42.242 44.6022 42.242L44.6022 42.2421Z"
                                    fill="black" />
                            </svg>