<svg width="86" height="86" viewBox="0 0 94 94" fill="none"
                                xmlns="http://www.w3.org/2000/svg">
                                <ellipse cx="46.92" cy="46.93" rx="45.92" ry="45.93" fill="white" />
                                <path
                                    d="M46.92 93.36C72.5572 93.36 93.34 72.5725 93.34 46.93C93.34 21.2875 72.5572 0.5 46.92 0.5C21.2828 0.5 0.5 21.2875 0.5 46.93C0.5 72.5725 21.2828 93.36 46.92 93.36Z"
                                    stroke="#2E3192" stroke-opacity="0.2" stroke-linejoin="round" />
                                <circle opacity="0.6" cx="46.97" cy="46.97" r="40.97" fill="#C8DCFE" />
                                <!-- <circle cx="9.83063" cy="17.0001" r="4.69" fill="#FC5133" />
                                <circle cx="84.1197" cy="75.8199" r="4.69" fill="#2E3192" /> -->
                                <path
                                    d="M47.4403 67.2338H25.6949C25.5241 67.2338 25.3532 67.2375 25.1829 67.2338C24.7606 67.2204 24.5588 66.9773 24.5708 66.5773C24.5829 66.1773 24.8287 66.0343 25.2111 66.0361C26.8315 66.0426 28.4518 66.0389 30.0722 66.0384C30.9671 66.0384 30.9676 66.0384 30.9676 65.1195C30.9676 56.1441 30.9676 47.1687 30.9676 38.1931C30.9676 38.0009 30.9009 37.7685 30.9856 37.6269C31.1083 37.4222 31.3259 37.1769 31.5305 37.1491C31.7 37.1259 31.969 37.3556 32.0829 37.5412C32.1796 37.6995 32.1264 37.9546 32.1264 38.1671C32.1264 47.2063 32.1224 56.2458 32.1143 65.2857C32.1143 65.8602 32.2305 66.0648 32.843 66.0523C34.7611 66.0139 36.6805 66.0222 38.5986 66.0486C39.1384 66.0556 39.2875 65.8699 39.2847 65.344C39.2657 61.5278 39.3537 57.7097 39.2472 53.8963C39.1741 51.2912 40.7889 50.1968 42.919 50.1569C45.519 50.1107 48.1217 50.0995 50.7208 50.1741C51.4755 50.1958 52.2736 50.4565 52.9565 50.7977C53.8699 51.2551 54.3111 52.0968 54.3083 53.1588C54.2981 57.1866 54.3157 61.2176 54.2917 65.2468C54.288 65.8519 54.443 66.0625 55.0755 66.0528C57.3347 66.0176 59.5949 66.0287 61.8546 66.0468C62.3477 66.0505 62.5528 65.9667 62.5491 65.3833C62.5265 56.3654 62.5221 47.3474 62.5356 38.3292C62.5356 38.0977 62.4967 37.8167 62.6088 37.6463C62.7208 37.4759 63.0032 37.3222 63.2051 37.331C63.3667 37.337 63.5704 37.5676 63.6597 37.7477C63.737 37.9019 63.6801 38.1236 63.6801 38.3157C63.6801 47.2698 63.6801 56.2238 63.6801 65.1778C63.6801 66.0398 63.6801 66.0403 64.569 66.0407C66.168 66.0407 67.7671 66.0357 69.3662 66.044C69.7921 66.0463 70.3384 65.9051 70.3356 66.6222C70.3315 67.2968 69.8264 67.2375 69.3755 67.2375L47.4403 67.2338ZM53.1296 59.2782C53.1296 57.2977 53.1009 55.3162 53.144 53.3366C53.1606 52.5616 52.8018 52.0625 52.1991 51.7361C51.7824 51.5097 51.2833 51.3195 50.818 51.3125C48.1565 51.2732 45.494 51.2579 42.8319 51.3088C41.5467 51.3333 40.3491 52.1301 40.3944 53.8681C40.4926 57.6778 40.4342 61.4921 40.4143 65.3032C40.4116 65.8505 40.5592 66.05 41.1315 66.0468C44.9009 66.0261 48.6705 66.0261 52.4403 66.0468C52.9685 66.0491 53.1454 65.8801 53.1389 65.3482C53.1148 63.325 53.1292 61.3014 53.1296 59.2782Z"
                                    fill="black" />
                                <path
                                    d="M47.136 35.5591C41.1057 35.5591 35.0756 35.5547 29.0457 35.5457C28.7726 35.5457 28.3744 35.4244 28.2545 35.2263C28.023 34.8471 28.2869 34.5721 28.6804 34.4059C32.6597 32.7291 36.6366 31.0474 40.611 29.361C42.6267 28.5073 44.6313 27.6272 46.6624 26.8147C47.0165 26.6726 47.5323 26.6758 47.8832 26.8221C52.6827 28.8494 57.4665 30.9133 62.254 32.9716C63.3096 33.4253 64.3554 33.9003 65.4119 34.3508C65.7776 34.5068 66.0471 34.6966 65.9642 35.1494C65.8749 35.6378 65.4925 35.5591 65.161 35.5591C59.1536 35.5601 53.1452 35.5601 47.136 35.5591ZM62.0846 34.424C62.0976 34.3744 62.111 34.3249 62.1244 34.2753C61.8929 34.1513 61.6679 34.0087 61.4263 33.905C56.8837 31.9753 52.3369 30.0554 47.7999 28.111C47.4124 27.9448 47.1082 27.9332 46.7244 28.0966C42.0855 30.072 37.4434 32.0405 32.798 34.0022C32.6267 34.0744 32.4786 34.2003 32.3193 34.3013L32.3818 34.4235L62.0846 34.424Z"
                                    fill="black" />
                                <path
                                    d="M47.3932 47.0833H59.2886C59.459 47.0833 59.6692 47.0236 59.7909 47.1009C59.9979 47.2324 60.3048 47.4713 60.2854 47.6291C60.258 47.8481 59.984 48.0537 59.7812 48.224C59.7057 48.2879 59.534 48.2398 59.4062 48.2398H35.3599C35.2317 48.2398 35.1039 48.2421 34.9761 48.2351C34.5858 48.2129 34.4155 48.0074 34.4141 47.6134C34.4141 47.2074 34.6576 47.0939 34.9863 47.0884C35.7108 47.0759 36.4358 47.0828 37.1622 47.0828L47.3932 47.0833Z"
                                    fill="black" />
                                <path
                                    d="M44.1122 41.7444C44.1122 40.5087 44.1173 39.2731 44.1094 38.0374C44.1066 37.6277 44.1835 37.3092 44.6876 37.317C45.1798 37.3244 45.2798 37.6462 45.2798 38.0494C45.2798 40.542 45.2761 43.0346 45.2835 45.5272C45.2835 45.9629 45.0983 46.2504 44.6714 46.2578C44.2085 46.2661 44.0997 45.9393 44.1057 45.517C44.1233 44.2582 44.1117 43.0013 44.1122 41.7444Z"
                                    fill="black" />
                                <path
                                    d="M49.8602 41.7462C49.8602 40.511 49.8653 39.2754 49.8574 38.0397C49.8547 37.6337 49.9167 37.3124 50.4278 37.3152C50.9283 37.318 51.0088 37.6249 51.0079 38.0374C51.0014 40.5294 51.0023 43.0217 51.0107 45.5143C51.0107 45.9448 50.8838 46.2467 50.4297 46.2509C49.9667 46.255 49.8477 45.9453 49.8537 45.5166C49.8699 44.2601 49.8602 43.0032 49.8602 41.7462Z"
                                    fill="black" />
                                <path
                                    d="M56.7746 41.8102C56.7746 43.0246 56.7672 44.2389 56.7788 45.4533C56.783 45.8917 56.6672 46.2533 56.1769 46.2598C55.6746 46.2662 55.5811 45.8894 55.582 45.4579C55.5876 43.0079 55.582 40.5574 55.5848 38.107C55.5848 37.6991 55.6205 37.3158 56.1732 37.3176C56.7144 37.3176 56.7751 37.6852 56.7751 38.1024C56.7735 39.3385 56.7734 40.5744 56.7746 41.8102Z"
                                    fill="black" />
                                <path
                                    d="M39.5 41.7723C39.5 43.007 39.4893 44.2417 39.506 45.476C39.512 45.9283 39.3745 46.2584 38.8916 46.257C38.4088 46.2556 38.3537 45.8977 38.3555 45.4922C38.3657 43.023 38.3665 40.5539 38.3578 38.0848C38.3578 37.6649 38.387 37.3024 38.9449 37.3158C39.4629 37.3283 39.4981 37.6862 39.5004 38.069C39.5037 39.3033 39.5 40.5375 39.5 41.7723Z"
                                    fill="black" />
                                <path
                                    d="M58.4875 61.1631C57.9144 61.1631 57.3412 61.1566 56.7681 61.1658C56.3815 61.1723 56.0917 60.9779 56.1579 60.6195C56.2009 60.3881 56.5195 60.0436 56.7283 60.0334C57.9144 59.9765 59.1056 59.9765 60.2931 60.0334C60.4926 60.0427 60.6746 60.4232 60.8644 60.632C60.6672 60.8089 60.4847 61.1121 60.2695 61.1381C59.6815 61.2089 59.0838 61.1626 58.4875 61.1631Z"
                                    fill="black" />
                                <path
                                    d="M35.6116 61.1629C35.1667 61.1629 34.7213 61.1629 34.2764 61.1629C33.9093 61.1629 33.5889 61.0022 33.6658 60.6212C33.7121 60.3874 34.0176 60.0462 34.226 60.0319C35.1542 59.9675 36.0894 59.9934 37.0218 60.0092C37.3778 60.0152 37.6163 60.1786 37.6139 60.5962C37.6116 61.0138 37.3764 61.1559 37.0121 61.161C36.5436 61.1666 36.0769 61.1624 35.6116 61.1629Z"
                                    fill="black" />
                                <path
                                    d="M46.3988 58.6112C46.3988 56.7593 46.4043 54.9075 46.3946 53.0556C46.3923 52.6561 46.4354 52.2917 46.9242 52.2848C47.4131 52.2778 47.5645 52.6218 47.5645 53.0575C47.5645 56.7828 47.5645 60.5082 47.5645 64.2338C47.5645 64.6533 47.4645 65.0264 46.9576 65.0338C46.4154 65.0417 46.3946 64.6468 46.396 64.2315C46.4043 62.3579 46.3988 60.4848 46.3988 58.6112Z"
                                    fill="black" />
                            </svg>