<svg width="78" height="78" viewBox="0 0 78 78" fill="none" xmlns="http://www.w3.org/2000/svg">
<circle cx="38.97" cy="38.97" r="37.97" fill="white"/>
<circle cx="38.97" cy="38.97" r="38.47" stroke="#2E3192" stroke-opacity="0.2" stroke-linejoin="round"/>
<circle opacity="0.6" cx="38.89" cy="38.89" r="33.89" fill="#C8DCFE"/>
<g clip-path="url(#clip0_1807_5515)">
<path d="M59.9932 41.8256C59.9932 44.3129 59.9858 46.8003 59.999 49.2868C59.999 49.9178 59.7502 50.3845 59.2468 50.728C58.2631 51.3948 57.1467 51.7499 55.9963 51.9116C54.5207 52.1183 53.0294 52.205 51.5439 52.3392C51.4353 52.3484 51.2951 52.3642 51.2204 52.3092C51.0894 52.2167 50.9086 52.0692 50.9094 51.9466C50.9102 51.8241 51.0819 51.6499 51.2196 51.5807C51.3573 51.5115 51.5431 51.5357 51.7081 51.534C53.6506 51.5157 55.5815 51.3765 57.4312 50.7305C57.9918 50.5346 58.5036 50.1812 59.0071 49.8561C59.2368 49.7094 59.3488 48.7725 59.1729 48.5791C59.0809 48.4782 58.832 48.4024 58.7201 48.4549C56.5221 49.4885 54.1682 49.6485 51.8002 49.7377C51.6642 49.7427 51.5 49.7552 51.3979 49.6894C51.2777 49.611 51.1375 49.4476 51.1416 49.3259C51.1458 49.2042 51.2943 49.0259 51.4195 48.9775C51.5904 48.9108 51.7994 48.9383 51.9926 48.9333C53.8928 48.8833 55.7831 48.7374 57.5846 48.0756C58.0823 47.8939 58.5335 47.5805 58.978 47.2846C59.2169 47.1254 59.3562 46.2685 59.1887 46.0534C59.1058 45.9475 58.852 45.8567 58.7441 45.9075C56.4292 47.0045 53.9509 47.1512 51.4552 47.2054C51.1483 47.212 50.7311 47.2804 50.7236 46.8186C50.7162 46.3568 51.1259 46.4152 51.4386 46.411C53.4897 46.3852 55.5326 46.2676 57.4859 45.5724C58.02 45.3824 58.5077 45.0431 58.9905 44.7306C59.2169 44.5839 59.3538 43.742 59.1904 43.5377C59.1008 43.4252 58.8337 43.3344 58.7151 43.3869C55.9 44.648 52.9257 44.7264 49.9232 44.6147C49.6644 44.6047 49.4355 44.5247 49.438 44.2204C49.438 43.892 49.6761 43.8353 49.9564 43.827C51.5439 43.7803 53.1397 43.8103 54.7148 43.6419C55.813 43.5244 56.8854 43.1418 57.9612 42.8526C58.2332 42.7792 58.4887 42.6083 58.7242 42.4433C59.2053 42.1099 59.377 41.6097 59.2144 41.0613C59.1481 40.8354 58.9872 40.7178 58.7367 40.8204C54.5207 42.5458 50.211 42.43 45.8748 41.423C45.1623 41.2563 44.4822 40.8954 43.8261 40.5503C43.2314 40.2369 42.9826 39.6784 42.9826 38.9899C42.9951 37.4895 42.9992 35.9891 42.9826 34.4887C42.9735 33.7468 43.2796 33.2125 43.895 32.8316C44.9268 32.1956 46.0739 31.8938 47.2459 31.6821C49.7004 31.2486 52.2065 31.1941 54.6775 31.5204C54.986 31.5596 55.4422 31.4696 55.4322 32.0097C55.4264 32.3148 55.1735 32.3781 54.5796 32.3098C51.7156 31.9805 48.8649 32.0089 46.0631 32.7716C45.4637 32.9358 44.8886 33.1791 44.3528 33.4951C43.5848 33.9477 43.6063 34.412 44.3586 34.8938C45.2237 35.4473 46.2033 35.7074 47.1994 35.8782C50.5909 36.4617 53.9708 36.4734 57.2976 35.489C57.8898 35.3131 58.448 34.9622 58.9656 34.6096C59.348 34.3478 59.3496 34.0594 58.9789 33.7943C58.4912 33.4468 57.9379 33.1892 57.403 32.9091C57.2371 32.8199 57.009 32.8216 56.8622 32.7116C56.7444 32.6232 56.625 32.4081 56.6556 32.2864C56.6863 32.1648 56.926 31.9839 57.0314 32.0097C58.0026 32.2448 58.9714 32.5374 59.6482 33.3301C59.8589 33.5801 59.9717 33.9861 59.975 34.3228C60.0057 36.8235 59.9932 39.325 59.9932 41.8256ZM51.5331 41.4089C52.8245 41.2838 54.1193 41.1896 55.4057 41.0237C56.4522 40.9037 57.4693 40.5984 58.4099 40.1218C59.0029 39.8126 59.3504 39.3841 59.2318 38.6615C59.1729 38.3022 59.0095 38.1822 58.6728 38.328C58.3361 38.4739 57.9935 38.6398 57.641 38.7557C55.6504 39.4133 53.5909 39.6125 51.5124 39.595C49.0308 39.5742 46.5707 39.3908 44.2757 38.2972C43.9962 38.1647 43.8527 38.3322 43.8071 38.5814C43.676 39.3016 43.851 39.6934 44.4971 40.0602C44.823 40.2417 45.1644 40.3935 45.5173 40.5136C47.4615 41.1788 49.4886 41.3072 51.5331 41.4063V41.4089ZM51.4842 38.8465C52.5989 38.7632 53.7178 38.7173 54.8268 38.5823C56.075 38.4297 57.3026 38.1655 58.4372 37.5695C59.027 37.2619 59.3297 36.8243 59.2302 36.1316C59.1787 35.7707 59.0112 35.6465 58.6711 35.7874C58.3021 35.9407 57.9404 36.1208 57.5605 36.2417C55.6869 36.8477 53.7502 37.0469 51.7952 37.0469C49.2157 37.0469 46.6528 36.8877 44.2641 35.7532C43.9746 35.6165 43.8494 35.794 43.8037 36.0416C43.6777 36.7918 43.8552 37.1652 44.5311 37.542C44.8216 37.7024 45.1252 37.8377 45.4385 37.9463C47.3951 38.6315 49.4281 38.7815 51.4842 38.844V38.8465Z" fill="black"/>
<path d="M30.585 28.8638C29.9489 28.8638 29.3102 28.9004 28.6774 28.8529C28.0968 28.8088 27.6431 29.0046 27.1886 29.3289C25.188 30.7534 23.6444 32.5856 22.4285 34.7036C21.0401 37.1209 20.0912 39.6933 19.8225 42.4949C19.3605 47.307 22.0719 50.5428 25.475 52.1516C27.5162 53.116 29.6893 53.4477 31.9271 53.4302C32.0797 53.4302 32.2522 53.3819 32.3783 53.4394C32.5441 53.5136 32.6686 53.6711 32.8104 53.7928C32.6851 53.9304 32.5616 54.0754 32.4289 54.2013C32.3882 54.2388 32.2961 54.2263 32.2273 54.2279C29.2215 54.2846 26.3575 53.7278 23.7962 52.079C20.1053 49.7068 18.5377 46.2583 19.1175 41.9314C19.7055 37.5419 21.5933 33.7134 24.6182 30.4875C25.3116 29.7473 26.1833 29.1747 26.9754 28.5279C27.0932 28.432 27.2334 28.3611 27.3478 28.2653C27.8388 27.8435 27.8811 27.4317 27.566 26.8674C26.8195 25.5237 26.073 24.18 25.3721 22.8105C25.1432 22.3629 25.0296 21.8436 24.9325 21.3435C24.7758 20.5307 25.2643 19.9406 26.0829 20.0048C26.9613 20.0748 27.867 20.1256 28.6989 20.3849C30.7418 21.0217 32.7473 20.9367 34.7852 20.4065C35.5823 20.199 36.4126 20.1006 37.2345 20.0148C38.0308 19.9314 38.506 20.4466 38.2995 21.2284C38.07 22.1129 37.7647 22.9758 37.3871 23.8074C36.9359 24.7885 36.3794 25.7246 35.8511 26.6649C35.3957 27.4784 35.5068 27.8318 36.2492 28.4153C37.281 29.2255 38.3144 30.0466 39.2525 30.961C40.3308 32.0104 41.1469 33.2749 41.837 34.6153C41.9 34.7378 41.9929 34.8703 41.9879 34.9945C41.983 35.1187 41.905 35.3238 41.8063 35.3646C41.6827 35.4163 41.4928 35.3646 41.3568 35.3055C41.2738 35.2688 41.2332 35.1296 41.1809 35.0321C39.8588 32.5397 38.0075 30.5309 35.6711 28.9738C35.0905 28.587 34.7894 28.0669 34.7811 27.3792C34.7769 27.0325 34.6152 26.9216 34.2909 26.9233C33.0186 26.9308 31.7471 26.9283 30.4756 26.9233C30.3254 26.9233 30.1438 26.9391 30.0327 26.8666C29.9695 26.8238 29.9162 26.768 29.8763 26.7029C29.8364 26.6378 29.8108 26.5649 29.8012 26.489C29.8012 26.3806 29.9406 26.2214 30.0559 26.1706C30.1994 26.1089 30.381 26.1256 30.5461 26.1256C31.9702 26.1256 33.3943 26.1147 34.8184 26.1314C35.1046 26.1314 35.3161 26.0555 35.4322 25.8121C36.0833 24.4968 36.7725 23.1973 37.3548 21.8519C37.7604 20.915 37.5447 20.69 36.532 20.8658C35.4579 21.0517 34.3946 21.2968 33.3246 21.5068C31.8856 21.7894 30.4756 21.6519 29.0581 21.2926C28.1275 21.0567 27.162 20.9517 26.2065 20.825C25.8051 20.7716 25.6417 20.9417 25.7288 21.3393C25.8416 21.8494 25.9826 22.3721 26.2206 22.8322C26.8253 23.9992 27.483 25.1436 28.1383 26.2864C28.3871 26.7149 28.5953 27.1367 28.553 27.6526C28.5248 27.986 28.7329 28.0694 29.0274 28.0694C30.2583 28.0636 31.4891 28.0694 32.72 28.0694H33.0932C33.3761 28.0694 33.6556 28.1161 33.6489 28.472C33.6423 28.8279 33.357 28.8638 33.0783 28.8646L30.585 28.8638Z" fill="black"/>
<path d="M41.1302 57.2289C45.6315 57.238 48.9102 54.2064 49.2055 50.3262C49.5016 46.4244 46.7595 42.8826 42.9574 42.2824C41.2986 42.0199 39.7086 42.2641 38.2189 43.0718C38.1825 43.0918 38.1451 43.1102 38.1095 43.131C37.8722 43.266 37.6284 43.3361 37.4691 43.0393C37.3099 42.7426 37.4691 42.5467 37.7321 42.4483C38.5698 42.1341 39.3909 41.7156 40.2602 41.5564C45.3387 40.6212 49.9345 44.4739 49.9992 49.6702C50.0507 53.7963 46.8823 57.4381 42.8073 57.9357C37.8573 58.5401 33.5758 54.8566 33.4688 49.8428C33.4207 47.5922 34.2203 45.6292 35.739 43.9704C35.8286 43.872 35.953 43.7637 36.0707 43.7462C36.1885 43.7287 36.3934 43.7678 36.4689 43.8579C36.5443 43.9479 36.5443 44.1429 36.5078 44.2746C36.4714 44.4063 36.3552 44.5005 36.264 44.6081C34.1183 47.0254 33.6157 49.8019 34.9004 52.731C36.1827 55.6318 38.5466 57.128 41.1302 57.2289Z" fill="black"/>
<path d="M41.6235 49.3087C41.9138 49.3087 42.2041 49.2887 42.4936 49.3087C43.6349 49.4029 44.3955 50.1764 44.4345 51.2634C44.4734 52.3212 43.7228 53.1622 42.599 53.3214C42.0084 53.4048 42.0092 53.4048 42.0076 54.0174C42.0076 54.2809 42.049 54.5568 41.9852 54.8043C41.9445 54.9627 41.7471 55.0811 41.6202 55.2169C41.4892 55.0827 41.2785 54.9669 41.2453 54.8102C41.1831 54.5176 41.2064 54.2017 41.2246 53.8932C41.2478 53.5165 41.1184 53.3514 40.7178 53.3164C39.6304 53.2214 38.9122 52.5129 38.8176 51.5076C38.7919 51.235 38.8226 50.9783 39.1444 50.9366C39.4662 50.895 39.5591 51.1142 39.5956 51.4009C39.696 52.1236 40.1654 52.5187 40.9003 52.5229C41.3979 52.5229 41.8956 52.5287 42.3933 52.5229C43.1099 52.5137 43.6457 51.9861 43.6424 51.3026C43.639 50.6191 43.0958 50.1064 42.375 50.0981C41.8774 50.0922 41.3797 50.1056 40.882 50.0922C39.7258 50.0622 38.8914 49.2587 38.8458 48.1526C38.8002 47.0464 39.5823 46.1971 40.7435 46.0937C41.0902 46.0629 41.2362 45.9086 41.2221 45.5644C41.2097 45.2593 41.2171 44.9534 41.2221 44.6475C41.2271 44.3974 41.3333 44.1974 41.6028 44.1915C41.8973 44.1857 42.0026 44.3907 42.0034 44.6633C42.0043 44.9359 42.0208 45.2201 42.0034 45.4969C41.9761 45.897 42.1328 46.0704 42.5434 46.0954C43.5536 46.1579 44.2727 46.8456 44.4112 47.8392C44.4502 48.1159 44.4577 48.3985 44.1019 48.4551C43.746 48.5118 43.6722 48.2651 43.6366 47.9692C43.609 47.6758 43.4747 47.403 43.2593 47.203C43.044 47.0031 42.7627 46.89 42.4696 46.8856C41.9172 46.8647 41.3631 46.8639 40.8107 46.8856C40.6517 46.886 40.4944 46.9187 40.3484 46.9819C40.2023 47.045 40.0705 47.1373 39.9609 47.253C39.8513 47.3688 39.7662 47.5057 39.7107 47.6554C39.6552 47.8051 39.6304 47.9646 39.6379 48.1242C39.6479 48.7844 40.1447 49.2754 40.8356 49.2979C41.0985 49.307 41.3615 49.2979 41.6235 49.2979V49.3087Z" fill="black"/>
</g>
<defs>
<clipPath id="clip0_1807_5515">
<rect width="41" height="38" fill="white" transform="translate(19 20)"/>
</clipPath>
</defs>
</svg>
