<svg width="79" height="78" viewBox="0 0 79 78" fill="none" xmlns="http://www.w3.org/2000/svg">
<circle cx="39.6497" cy="38.97" r="37.97" fill="white"/>
<circle cx="39.6497" cy="38.97" r="38.47" stroke="#2E3192" stroke-opacity="0.2" stroke-linejoin="round"/>
<circle opacity="0.6" cx="39.3802" cy="39.2904" r="33.89" fill="#C8DCFE"/>
<g clip-path="url(#clip0_1807_4940)">
<path d="M59.9932 41.0561C59.9932 43.5434 59.9858 46.0307 59.999 48.5172C59.999 49.1482 59.7502 49.615 59.2468 49.9584C58.2631 50.6253 57.1467 50.9804 55.9963 51.1421C54.5207 51.3488 53.0294 51.4355 51.5439 51.5697C51.4353 51.5789 51.2951 51.5947 51.2204 51.5397C51.0894 51.4472 50.9086 51.2996 50.9094 51.1771C50.9102 51.0546 51.0819 50.8803 51.2196 50.8112C51.3573 50.742 51.5431 50.7661 51.7081 50.7645C53.6506 50.7461 55.5815 50.6069 57.4312 49.9609C57.9918 49.7651 58.5036 49.4116 59.0071 49.0865C59.2368 48.9398 59.3488 48.0029 59.1729 47.8095C59.0809 47.7087 58.832 47.6328 58.7201 47.6853C56.5221 48.7189 54.1682 48.879 51.8002 48.9682C51.6642 48.9732 51.5 48.9857 51.3979 48.9198C51.2777 48.8415 51.1375 48.6781 51.1416 48.5564C51.1458 48.4347 51.2943 48.2563 51.4195 48.208C51.5904 48.1413 51.7994 48.1688 51.9926 48.1638C53.8928 48.1138 55.7831 47.9679 57.5846 47.3061C58.0823 47.1244 58.5335 46.8109 58.978 46.515C59.2169 46.3558 59.3562 45.4989 59.1887 45.2839C59.1058 45.178 58.852 45.0872 58.7441 45.138C56.4292 46.235 53.9509 46.3817 51.4552 46.4358C51.1483 46.4425 50.7311 46.5109 50.7236 46.0491C50.7162 45.5873 51.1259 45.6456 51.4386 45.6415C53.4897 45.6156 55.5326 45.4981 57.4859 44.8029C58.02 44.6129 58.5077 44.2736 58.9905 43.961C59.2169 43.8143 59.3538 42.9724 59.1904 42.7682C59.1008 42.6557 58.8337 42.5648 58.7151 42.6173C55.9 43.8785 52.9257 43.9569 49.9232 43.8452C49.6644 43.8352 49.4355 43.7551 49.438 43.4509C49.438 43.1225 49.6761 43.0658 49.9564 43.0575C51.5439 43.0108 53.1397 43.0408 54.7148 42.8724C55.813 42.7549 56.8854 42.3723 57.9612 42.083C58.2332 42.0097 58.4887 41.8388 58.7242 41.6738C59.2053 41.3403 59.377 40.8402 59.2144 40.2917C59.1481 40.0658 58.9872 39.9483 58.7367 40.0508C54.5207 41.7763 50.211 41.6604 45.8748 40.6535C45.1623 40.4868 44.4822 40.1259 43.8261 39.7808C43.2314 39.4673 42.9826 38.9089 42.9826 38.2203C42.9951 36.72 42.9992 35.2196 42.9826 33.7192C42.9735 32.9773 43.2796 32.443 43.895 32.0621C44.9268 31.4261 46.0739 31.1243 47.2459 30.9126C49.7004 30.4791 52.2065 30.4245 54.6775 30.7509C54.986 30.7901 55.4422 30.7 55.4322 31.2402C55.4264 31.5453 55.1735 31.6086 54.5796 31.5403C51.7156 31.211 48.8649 31.2393 46.0631 32.002C45.4637 32.1663 44.8886 32.4095 44.3528 32.7256C43.5848 33.1782 43.6063 33.6425 44.3586 34.1243C45.2237 34.6778 46.2033 34.9378 47.1994 35.1087C50.5909 35.6922 53.9708 35.7039 57.2976 34.7194C57.8898 34.5435 58.448 34.1926 58.9656 33.84C59.348 33.5783 59.3496 33.2899 58.9789 33.0248C58.4912 32.6772 57.9379 32.4197 57.403 32.1396C57.2371 32.0504 57.009 32.0521 56.8622 31.942C56.7444 31.8537 56.625 31.6386 56.6556 31.5169C56.6863 31.3952 56.926 31.2143 57.0314 31.2402C58.0026 31.4752 58.9714 31.7678 59.6482 32.5605C59.8589 32.8106 59.9717 33.2165 59.975 33.5533C60.0057 36.0539 59.9932 38.5554 59.9932 41.0561ZM51.5331 40.6393C52.8245 40.5143 54.1193 40.4201 55.4057 40.2542C56.4522 40.1342 57.4693 39.8289 58.4099 39.3523C59.0029 39.0431 59.3504 38.6146 59.2318 37.8919C59.1729 37.5327 59.0095 37.4126 58.6728 37.5585C58.3361 37.7044 57.9935 37.8703 57.641 37.9861C55.6504 38.6438 53.5909 38.843 51.5124 38.8255C49.0308 38.8047 46.5707 38.6213 44.2757 37.5277C43.9962 37.3951 43.8527 37.5627 43.8071 37.8119C43.676 38.5321 43.851 38.9239 44.4971 39.2906C44.823 39.4722 45.1644 39.6239 45.5173 39.7441C47.4615 40.4093 49.4886 40.5376 51.5331 40.6368V40.6393ZM51.4842 38.077C52.5989 37.9936 53.7178 37.9478 54.8268 37.8127C56.075 37.6602 57.3026 37.396 58.4372 36.8C59.027 36.4924 59.3297 36.0548 59.2302 35.3621C59.1787 35.0012 59.0112 34.877 58.6711 35.0178C58.3021 35.1712 57.9404 35.3513 57.5605 35.4721C55.6869 36.0781 53.7502 36.2773 51.7952 36.2773C49.2157 36.2773 46.6528 36.1181 44.2641 34.9837C43.9746 34.847 43.8494 35.0245 43.8037 35.2721C43.6777 36.0223 43.8552 36.3957 44.5311 36.7725C44.8216 36.9329 45.1252 37.0681 45.4385 37.1767C47.3951 37.8619 49.4281 38.012 51.4842 38.0745V38.077Z" fill="black"/>
<path d="M30.585 28.0942C29.9489 28.0942 29.3102 28.1309 28.6774 28.0834C28.0968 28.0392 27.6431 28.2351 27.1886 28.5594C25.188 29.9839 23.6444 31.8161 22.4285 33.9341C21.0401 36.3514 20.0912 38.9238 19.8225 41.7253C19.3605 46.5374 22.0719 49.7733 25.475 51.382C27.5162 52.3465 29.6893 52.6782 31.9271 52.6607C32.0797 52.6607 32.2522 52.6124 32.3783 52.6699C32.5441 52.7441 32.6686 52.9016 32.8104 53.0233C32.6851 53.1608 32.5616 53.3059 32.4289 53.4317C32.3882 53.4693 32.2961 53.4568 32.2273 53.4584C29.2215 53.5151 26.3575 52.9583 23.7962 51.3095C20.1053 48.9372 18.5377 45.4888 19.1175 41.1618C19.7055 36.7724 21.5933 32.9439 24.6182 29.718C25.3116 28.9778 26.1833 28.4052 26.9754 27.7583C27.0932 27.6625 27.2334 27.5916 27.3478 27.4957C27.8388 27.074 27.8811 26.6622 27.566 26.0979C26.8195 24.7542 26.073 23.4105 25.3721 22.041C25.1432 21.5934 25.0296 21.0741 24.9325 20.5739C24.7758 19.7612 25.2643 19.1711 26.0829 19.2352C26.9613 19.3053 27.867 19.3561 28.6989 19.6153C30.7418 20.2522 32.7473 20.1672 34.7852 19.637C35.5823 19.4295 36.4126 19.3311 37.2345 19.2452C38.0308 19.1619 38.506 19.677 38.2995 20.4589C38.07 21.3434 37.7647 22.2063 37.3871 23.0379C36.9359 24.019 36.3794 24.9551 35.8511 25.8953C35.3957 26.7089 35.5068 27.0623 36.2492 27.6458C37.281 28.456 38.3144 29.2771 39.2525 30.1915C40.3308 31.2409 41.1469 32.5054 41.837 33.8458C41.9 33.9683 41.9929 34.1008 41.9879 34.225C41.983 34.3492 41.905 34.5543 41.8063 34.5951C41.6827 34.6468 41.4928 34.5951 41.3568 34.5359C41.2738 34.4993 41.2332 34.3601 41.1809 34.2625C39.8588 31.7702 38.0075 29.7613 35.6711 28.2043C35.0905 27.8175 34.7894 27.2974 34.7811 26.6097C34.7769 26.2629 34.6152 26.1521 34.2909 26.1537C33.0186 26.1612 31.7471 26.1587 30.4756 26.1537C30.3254 26.1537 30.1438 26.1696 30.0327 26.097C29.9695 26.0543 29.9162 25.9985 29.8763 25.9334C29.8364 25.8683 29.8108 25.7953 29.8012 25.7194C29.8012 25.6111 29.9406 25.4519 30.0559 25.401C30.1994 25.3393 30.381 25.356 30.5461 25.356C31.9702 25.356 33.3943 25.3452 34.8184 25.3619C35.1046 25.3619 35.3161 25.286 35.4322 25.0426C36.0833 23.7273 36.7725 22.4277 37.3548 21.0824C37.7604 20.1455 37.5447 19.9204 36.532 20.0963C35.4579 20.2822 34.3946 20.5272 33.3246 20.7373C31.8856 21.0199 30.4756 20.8823 29.0581 20.5231C28.1275 20.2872 27.162 20.1822 26.2065 20.0555C25.8051 20.0021 25.6417 20.1722 25.7288 20.5698C25.8416 21.0799 25.9826 21.6025 26.2206 22.0627C26.8253 23.2296 27.483 24.3741 28.1383 25.5169C28.3871 25.9453 28.5953 26.3671 28.553 26.8831C28.5248 27.2165 28.7329 27.2999 29.0274 27.2999C30.2583 27.294 31.4891 27.2999 32.72 27.2999H33.0932C33.3761 27.2999 33.6556 27.3465 33.6489 27.7025C33.6423 28.0584 33.357 28.0942 33.0783 28.0951L30.585 28.0942Z" fill="black"/>
<path d="M41.1302 56.4593C45.6315 56.4685 48.9102 53.4369 49.2055 49.5567C49.5016 45.6548 46.7595 42.1131 42.9574 41.5129C41.2986 41.2503 39.7086 41.4946 38.2189 42.3023C38.1825 42.3223 38.1451 42.3406 38.1095 42.3615C37.8722 42.4965 37.6284 42.5665 37.4691 42.2698C37.3099 41.973 37.4691 41.7772 37.7321 41.6788C38.5698 41.3645 39.3909 40.9461 40.2602 40.7869C45.3387 39.8516 49.9345 43.7043 49.9992 48.9007C50.0507 53.0268 46.8823 56.6686 42.8073 57.1662C37.8573 57.7705 33.5758 54.0871 33.4688 49.0732C33.4207 46.8226 34.2203 44.8596 35.739 43.2009C35.8286 43.1025 35.953 42.9941 36.0707 42.9766C36.1885 42.9591 36.3934 42.9983 36.4689 43.0883C36.5443 43.1784 36.5443 43.3734 36.5078 43.5051C36.4714 43.6368 36.3552 43.731 36.264 43.8385C34.1183 46.2558 33.6157 49.0324 34.9004 51.9615C36.1827 54.8623 38.5466 56.3585 41.1302 56.4593Z" fill="black"/>
<path d="M41.6235 48.5392C41.9138 48.5392 42.2041 48.5192 42.4936 48.5392C43.6349 48.6334 44.3955 49.4069 44.4345 50.4939C44.4734 51.5516 43.7228 52.3927 42.599 52.5519C42.0084 52.6353 42.0092 52.6353 42.0076 53.2479C42.0076 53.5113 42.049 53.7872 41.9852 54.0348C41.9445 54.1932 41.7471 54.3115 41.6202 54.4474C41.4892 54.3132 41.2785 54.1973 41.2453 54.0406C41.1831 53.748 41.2064 53.4321 41.2246 53.1237C41.2478 52.747 41.1184 52.5819 40.7178 52.5469C39.6304 52.4519 38.9122 51.7434 38.8176 50.7381C38.7919 50.4655 38.8226 50.2088 39.1444 50.1671C39.4662 50.1254 39.5591 50.3447 39.5956 50.6314C39.696 51.3541 40.1654 51.7492 40.9003 51.7534C41.3979 51.7534 41.8956 51.7592 42.3933 51.7534C43.1099 51.7442 43.6457 51.2165 43.6424 50.533C43.639 49.8495 43.0958 49.3369 42.375 49.3285C41.8774 49.3227 41.3797 49.3361 40.882 49.3227C39.7258 49.2927 38.8914 48.4892 38.8458 47.383C38.8002 46.2769 39.5823 45.4275 40.7435 45.3242C41.0902 45.2933 41.2362 45.1391 41.2221 44.7949C41.2097 44.4898 41.2171 44.1839 41.2221 43.8779C41.2271 43.6279 41.3333 43.4278 41.6028 43.422C41.8973 43.4162 42.0026 43.6212 42.0034 43.8938C42.0043 44.1664 42.0208 44.4506 42.0034 44.7273C41.9761 45.1274 42.1328 45.3008 42.5434 45.3258C43.5536 45.3883 44.2727 46.076 44.4112 47.0696C44.4502 47.3464 44.4577 47.6289 44.1019 47.6856C43.746 47.7423 43.6722 47.4956 43.6366 47.1997C43.609 46.9063 43.4747 46.6335 43.2593 46.4335C43.044 46.2335 42.7627 46.1205 42.4696 46.116C41.9172 46.0952 41.3631 46.0944 40.8107 46.116C40.6517 46.1164 40.4944 46.1492 40.3484 46.2123C40.2023 46.2755 40.0705 46.3677 39.9609 46.4835C39.8513 46.5992 39.7662 46.7361 39.7107 46.8859C39.6552 47.0356 39.6304 47.1951 39.6379 47.3547C39.6479 48.0149 40.1447 48.5058 40.8356 48.5283C41.0985 48.5375 41.3615 48.5283 41.6235 48.5283V48.5392Z" fill="black"/>
</g>
<defs>
<clipPath id="clip0_1807_4940">
<rect width="41" height="38" fill="white" transform="translate(19 19.2305)"/>
</clipPath>
</defs>
</svg>
