<svg width="78" height="79" viewBox="0 0 78 79" fill="none" xmlns="http://www.w3.org/2000/svg">
<circle cx="38.97" cy="39.2005" r="37.97" fill="white"/>
<circle cx="38.97" cy="39.2005" r="38.47" stroke="#2E3192" stroke-opacity="0.2" stroke-linejoin="round"/>
<circle opacity="0.6" cx="38.89" cy="39.1205" r="33.89" fill="#C8DCFE"/>
<g clip-path="url(#clip0_1807_4965)">
<path d="M59.0007 45.2154C58.9213 45.4178 58.8557 45.6268 58.7595 45.8205C58.6413 46.058 58.4526 46.2394 58.2282 46.3804C54.3188 48.8328 50.4282 51.3164 46.447 53.6503C44.822 54.6041 43.1735 55.5226 41.4513 56.2956C40.772 56.6008 40.0788 56.8694 39.3576 57.0618C38.5598 57.2745 37.7638 57.2545 36.9601 57.1066C35.9873 56.927 35.077 56.5476 34.1476 56.2292C33.3951 55.9722 32.636 55.7345 31.8704 55.516C31.3121 55.3606 30.7305 55.3066 30.1532 55.3565C29.2663 55.4273 28.3798 55.5038 27.4813 55.579C27.4732 55.673 27.4701 55.761 27.4576 55.8469C27.3363 56.6757 26.7229 57.2197 25.8616 57.2257C24.1116 57.2354 22.3616 57.2297 20.6116 57.2282C19.8057 57.2282 19.1601 56.6917 19.0282 55.9237C19.022 55.9044 19.0131 55.886 19.002 55.8691V41.0475C19.0645 40.8732 19.1091 40.688 19.1963 40.5263C19.4891 39.9839 19.9551 39.7028 20.5688 39.7007C22.3501 39.6947 24.1313 39.6978 25.9126 39.7007C26.0322 39.7015 26.1514 39.7158 26.2679 39.7433C26.6032 39.8203 26.9033 40.0074 27.1205 40.2749C27.3377 40.5424 27.4596 40.8749 27.467 41.2198C27.4741 41.4946 27.467 41.7701 27.467 42.0627C27.7629 42.037 28.037 42.0182 28.3107 41.9881C29.2298 41.8869 30.0882 42.1041 30.9176 42.4782C31.4066 42.6976 31.8938 42.9232 32.3863 43.1385C33.2301 43.5085 34.091 43.5837 35.0082 43.3982C36.851 43.0244 38.7082 42.7073 40.5632 42.3773C41.5785 42.1965 42.5338 42.3498 43.3926 42.9548C43.836 43.2682 44.2001 43.6596 44.5101 44.1036C44.5932 44.223 44.6745 44.3439 44.7635 44.4743C44.9623 44.3831 45.1551 44.2951 45.3473 44.2054C47.4098 43.2447 49.4688 42.2739 51.5376 41.3254C53.0707 40.6225 54.5913 40.7015 56.0741 41.4912C57.2391 42.1113 58.092 43.0579 58.7707 44.1691C58.8816 44.3508 58.927 44.5733 59.0016 44.7767L59.0007 45.2154ZM45.2163 45.2508C45.4038 45.5792 45.5835 45.8907 45.7588 46.2046C45.9113 46.4776 45.8476 46.7173 45.5788 46.869C44.0638 47.726 42.527 48.5395 40.9226 49.2163C39.5038 49.8142 38.052 50.3071 36.541 50.6123C36.4299 50.6347 36.315 50.6307 36.2057 50.6007C36.0345 50.5503 35.9226 50.3469 35.9366 50.1664C35.9526 49.9637 36.0929 49.8051 36.3116 49.759C37.3306 49.5439 38.3327 49.255 39.3101 48.8948C40.7754 48.3599 42.1795 47.6881 43.5601 46.9664C43.9701 46.7524 44.3726 46.5221 44.7973 46.2886C44.3407 45.5889 44.0182 44.8212 43.462 44.2007C42.7263 43.3801 41.8141 43.0586 40.7332 43.2513C38.8816 43.5816 37.0298 43.8996 35.1882 44.2681C34.1854 44.4687 33.2223 44.4314 32.2788 44.0466C31.7245 43.8203 31.171 43.5875 30.6351 43.3218C29.6226 42.8204 28.5685 42.7722 27.4788 42.9796V54.6906C28.1704 54.6279 28.8482 54.554 29.5282 54.5089C30.0307 54.4753 30.5391 54.4384 31.0395 54.4775C31.9738 54.5471 32.8682 54.82 33.7473 55.1356C34.8051 55.5163 35.8445 55.9537 36.947 56.1966C37.5291 56.3248 38.1182 56.3909 38.7135 56.2878C39.6098 56.133 40.4426 55.7864 41.2607 55.4104C43.382 54.4296 45.4082 53.2689 47.3979 52.049C50.8313 49.9442 54.2441 47.8059 57.6648 45.6804C57.7446 45.6311 57.8193 45.574 57.8879 45.5099C58.1223 45.2906 58.1829 44.9237 58.0182 44.6485C57.4491 43.6981 56.7329 42.8878 55.7554 42.3422C54.4854 41.6334 53.1835 41.5388 51.8491 42.1627C50.1979 42.9356 48.5454 43.7051 46.8916 44.4712C46.3398 44.7259 45.7882 44.9838 45.2163 45.2508ZM26.5785 48.494C26.5785 46.7447 26.5785 44.9953 26.5785 43.246C26.5785 42.614 26.5812 41.9822 26.5866 41.3505C26.5882 41.0898 26.5054 40.8717 26.2898 40.7106C26.1413 40.5997 25.9732 40.5896 25.7995 40.5896H20.6745C20.607 40.5896 20.5345 40.5806 20.4726 40.6012C20.3573 40.6398 20.2354 40.6802 20.1382 40.7507C19.917 40.9108 19.886 41.1543 19.886 41.4088C19.886 46.1091 19.886 50.8094 19.886 55.5097C19.886 55.5411 19.886 55.5724 19.886 55.6037C19.901 56.0713 20.1713 56.3379 20.6382 56.3382C22.3674 56.3395 24.0965 56.3395 25.8257 56.3382C26.3088 56.3382 26.5757 56.0634 26.5757 55.5762L26.5785 48.494Z" fill="black"/>
<path d="M36.4299 36.9774C36.4299 37.9175 36.4331 38.8575 36.4259 39.7976C36.4253 39.9158 36.3945 40.0319 36.3365 40.1348C36.2896 40.211 36.2192 40.27 36.1361 40.3027C36.0529 40.3354 35.9614 40.3401 35.8752 40.3162C35.7847 40.2904 35.704 40.2376 35.6439 40.1649C35.5838 40.0922 35.5472 40.0029 35.5387 39.9089C35.5334 39.8518 35.5359 39.7942 35.5359 39.7368C35.5359 37.9561 35.5359 36.1753 35.5359 34.3944C35.5359 33.6032 35.1296 32.9843 34.3974 32.7337C34.144 32.6465 33.8556 32.6606 33.5827 32.6337C33.5515 32.6309 33.5149 32.6572 33.489 32.6788C33.0856 33.0003 32.6174 33.1601 32.114 33.2288C31.3502 33.3328 30.6074 33.272 29.9052 32.9264C29.8074 32.8781 29.7031 32.8292 29.6271 32.755C29.5099 32.64 29.3771 32.6296 29.2277 32.6296C28.8335 32.6194 28.448 32.7464 28.1366 32.9889C27.8251 33.2315 27.607 33.5746 27.5193 33.9601C27.4855 34.1228 27.4687 34.2885 27.469 34.4546C27.4652 35.593 27.4671 36.7314 27.4668 37.8702C27.4692 37.9329 27.467 37.9958 27.4602 38.0582C27.4425 38.1646 27.3872 38.261 27.3045 38.33C27.2218 38.399 27.1172 38.436 27.0096 38.4342C26.9022 38.429 26.8004 38.3848 26.7231 38.3099C26.6458 38.2349 26.5984 38.1343 26.5896 38.0268C26.5874 38.0008 26.5865 37.9748 26.5865 37.9488C26.5865 36.7057 26.5781 35.4627 26.5921 34.2199C26.6059 33.0197 27.5943 31.923 28.7852 31.7757C29.0834 31.7388 29.3877 31.7422 29.689 31.7444C29.7749 31.7444 29.8893 31.7804 29.9418 31.8418C30.2399 32.1916 30.6449 32.2956 31.0668 32.3501C31.5737 32.4156 32.0787 32.3912 32.5571 32.1934C32.7162 32.1283 32.8637 32.0183 32.9946 31.903C33.1152 31.7961 33.2349 31.7366 33.3974 31.7353C33.8574 31.7315 34.3181 31.7306 34.7512 31.9102C35.7256 32.3144 36.3068 33.0401 36.4018 34.0964C36.4574 34.7131 36.4246 35.3379 36.4296 35.9593C36.4321 36.2987 36.4299 36.6381 36.4299 36.9774Z" fill="black"/>
<path d="M44.0971 36.6254C44.0971 35.8734 44.094 35.1213 44.0971 34.3693C44.103 33.1995 44.7802 32.2328 45.8571 31.8483C46.3143 31.6851 46.789 31.6916 47.2633 31.7164C47.3505 31.7208 47.4549 31.7853 47.5155 31.854C47.7083 32.0733 47.953 32.183 48.2271 32.2485C48.8546 32.3986 49.4771 32.3932 50.0843 32.1607C50.239 32.1012 50.3805 31.99 50.5068 31.8787C50.633 31.7675 50.7543 31.7045 50.9233 31.7042C51.3462 31.7042 51.7671 31.7042 52.1733 31.8417C53.2433 32.2034 53.9324 33.1531 53.9452 34.332C53.9593 35.6481 53.9471 36.9642 53.9499 38.2802C53.9499 38.4996 53.8583 38.6528 53.6652 38.7418C53.5068 38.8145 53.2874 38.7732 53.1858 38.6227C53.1115 38.5124 53.0697 38.3833 53.0652 38.2502C53.0565 36.9397 53.0633 35.6293 53.0583 34.3188C53.0552 33.4941 52.5012 32.8016 51.713 32.6408C51.5212 32.6016 51.3196 32.6095 51.1224 32.6019C51.0813 32.6024 51.0416 32.6168 51.0096 32.6427C50.6121 32.978 50.1365 33.1218 49.6368 33.1958C48.8737 33.3086 48.1321 33.2343 47.428 32.8971C47.3649 32.8722 47.3058 32.8382 47.2524 32.7962C46.9002 32.4694 46.5002 32.5728 46.1252 32.7041C45.4083 32.9548 44.9943 33.5815 44.993 34.3564C44.9903 35.9069 44.9903 37.4575 44.993 39.0082C44.993 39.2275 44.9396 39.4099 44.7193 39.5064C44.4821 39.6104 44.1999 39.4867 44.1305 39.2372C44.1084 39.1516 44.0979 39.0634 44.0993 38.975C44.0962 38.1919 44.0971 37.4085 44.0971 36.6254Z" fill="black"/>
<path d="M37.5391 23.4572C37.5806 23.0436 37.5809 22.6209 37.6712 22.2182C37.9566 20.9451 39.3006 20.0561 40.5819 20.2595C41.7278 20.4418 42.5506 21.1995 42.8222 22.3276C42.8606 22.49 42.8797 22.6564 42.8791 22.8233C42.8772 23.3601 42.9103 23.9032 42.8419 24.4324C42.6903 25.594 41.7931 26.4727 40.6381 26.6594C39.0922 26.9101 37.5756 25.7266 37.5756 24.0075V23.461L37.5391 23.4572ZM42.0212 23.4754L41.9984 23.4735C41.9984 23.2909 41.9984 23.1082 41.9984 22.9255C42 22.5952 41.9114 22.2707 41.7422 21.9873C41.557 21.6793 41.2831 21.4347 40.9566 21.2859C40.6301 21.1371 40.2663 21.0909 39.9131 21.1535C39.1878 21.2848 38.5828 21.8695 38.5003 22.5962C38.4447 23.0913 38.4619 23.5961 38.4691 24.0959C38.4703 24.3107 38.5138 24.5232 38.5969 24.7213C38.6801 24.9193 38.8013 25.0989 38.9538 25.25C39.4309 25.7382 40.0097 25.9105 40.6659 25.7416C41.3441 25.5674 41.7816 25.1183 41.9378 24.4374C42.0103 24.1272 41.9962 23.7966 42.0212 23.4764V23.4754Z" fill="black"/>
<path d="M46.3359 28.0707C46.3803 27.6521 46.3813 27.2231 46.4775 26.8173C46.7794 25.5435 48.1244 24.693 49.415 24.8895C50.0511 24.9881 50.6306 25.3129 51.0476 25.8046C51.4646 26.2963 51.6912 26.922 51.6859 27.5675C51.6825 28.0472 51.7022 28.5307 51.6519 29.0061C51.5209 30.2394 50.48 31.2171 49.2425 31.3086C47.7113 31.4217 46.43 30.2723 46.3778 28.7331C46.3703 28.5138 46.3778 28.2944 46.3778 28.0751L46.3359 28.0707ZM47.2338 28.0792L47.2719 28.082C47.2719 28.3167 47.2603 28.552 47.2741 28.7861C47.3288 29.7149 48.0997 30.429 49.0356 30.4268C49.9625 30.4243 50.7463 29.6917 50.7856 28.7707C50.8047 28.3123 50.7966 27.8523 50.7856 27.392C50.7772 27.092 50.6808 26.8012 50.5084 26.5559C50.0869 25.9477 49.5009 25.6701 48.7719 25.7769C48.0347 25.8854 47.5338 26.3187 47.3409 27.042C47.2525 27.3738 47.2663 27.7326 47.2338 28.0792Z" fill="black"/>
<path d="M28.8125 28.1209C28.8544 27.707 28.8544 27.2836 28.9462 26.881C29.2422 25.583 30.5959 24.7041 31.9044 24.9272C33.2247 25.1525 34.1319 26.1928 34.1566 27.5334C34.1659 28.0545 34.1762 28.5803 34.1191 29.0967C33.9897 30.2608 32.9509 31.2353 31.785 31.3356C30.1687 31.4744 28.8738 30.2937 28.8491 28.6574C28.8463 28.4797 28.8491 28.3023 28.8491 28.1247L28.8125 28.1209ZM29.7441 28.1165H29.7475C29.7475 28.3409 29.7416 28.5656 29.7475 28.7896C29.7731 29.6247 30.4706 30.3708 31.2966 30.4504C32.1934 30.5381 33.0628 29.9732 33.2009 29.1215C33.2947 28.5515 33.2947 27.9545 33.25 27.3767C33.1731 26.3959 32.3528 25.7344 31.3697 25.788C30.4666 25.8372 29.7609 26.6027 29.7447 27.5519C29.7397 27.7408 29.7425 27.9285 29.7425 28.1165H29.7441Z" fill="black"/>
<path d="M40.3588 28.6099C39.6829 28.6127 39.1513 28.5325 38.6551 28.2855C38.5532 28.2348 38.4463 28.1812 38.3647 28.1041C38.2438 27.9891 38.1107 27.9684 37.9529 27.9703C36.9666 27.9825 36.2463 28.6685 36.1926 29.6552C36.1769 29.9391 35.9866 30.1397 35.7391 30.1325C35.4801 30.1249 35.3016 29.9131 35.3088 29.6185C35.3401 28.2012 36.4782 27.0989 37.9338 27.0754C38.0432 27.0735 38.1526 27.0794 38.2619 27.0754C38.4735 27.065 38.6369 27.1412 38.7869 27.2975C39.0369 27.5598 39.3807 27.6403 39.7213 27.688C40.2526 27.7622 40.7838 27.7506 41.2869 27.5338C41.4451 27.4655 41.5782 27.3405 41.7269 27.2477C41.826 27.185 41.9294 27.0951 42.036 27.0876C42.7794 27.0349 43.4944 27.1242 44.1088 27.6015C44.7807 28.1235 45.1269 28.8139 45.1513 29.6646C45.1551 29.781 45.1142 29.8944 45.037 29.9814C44.9598 30.0683 44.8523 30.1223 44.7366 30.1321C44.5141 30.1525 44.3097 29.9795 44.2679 29.7379C44.2335 29.533 44.2222 29.3205 44.1591 29.125C43.9469 28.4591 43.3132 28.0026 42.6185 27.9722C42.3976 27.9625 42.2169 28.0035 42.0301 28.142C41.5904 28.4667 40.9735 28.6095 40.3588 28.6099Z" fill="black"/>
</g>
<defs>
<clipPath id="clip0_1807_4965">
<rect width="40" height="37" fill="white" transform="translate(19 20.2305)"/>
</clipPath>
</defs>
</svg>
