<svg width="79" height="79" viewBox="0 0 79 79" fill="none" xmlns="http://www.w3.org/2000/svg">
<circle cx="39.6595" cy="39.2473" r="37.97" fill="white"/>
<circle cx="39.6595" cy="39.2473" r="38.47" stroke="#2E3192" stroke-opacity="0.2" stroke-linejoin="round"/>
<circle opacity="0.6" cx="39.39" cy="39.5677" r="33.89" fill="#C8DCFE"/>
<g clip-path="url(#clip0_1807_4951)">
<path d="M19.0017 46.9366V40.3836C19.0017 40.2959 19.0082 40.2073 19.0017 40.1196C18.9922 39.9905 19.0427 39.8792 19.0949 39.7662C19.1404 39.6692 19.2279 39.6167 19.3273 39.5838C19.4708 39.5393 19.6209 39.518 19.7715 39.5209C20.8305 39.5228 21.8893 39.5228 22.948 39.5209C23.0022 39.5209 23.0564 39.5169 23.1122 39.5209C23.2177 39.5305 23.2916 39.4853 23.366 39.4163C23.4088 39.3803 23.4426 39.3351 23.4649 39.2844C23.4871 39.2336 23.4972 39.1786 23.4945 39.1234C23.4895 38.9291 23.4867 38.736 23.4374 38.5464C23.4315 38.5236 23.4273 38.5005 23.4247 38.4771C23.3976 38.2499 23.361 38.0231 23.3462 37.7959C23.3171 37.3387 23.2797 36.8807 23.2834 36.4236C23.283 35.9013 23.3148 35.3794 23.3787 34.8608C23.4197 34.5579 23.4526 34.2546 23.4977 33.9529C23.5273 33.7557 23.5684 33.5602 23.609 33.3646C23.6497 33.1691 23.694 32.9639 23.7449 32.7636C23.8073 32.5192 23.8775 32.2763 23.9461 32.0335C23.9781 31.9209 24.0134 31.8087 24.0487 31.6969C24.2472 31.0638 24.4882 30.444 24.7701 29.8417C24.8111 29.7568 24.8464 29.6694 24.8908 29.5865C24.9598 29.4579 25.0928 29.4314 25.2213 29.4002C25.3646 29.4374 25.4955 29.4915 25.5588 29.6366C25.5949 29.7191 25.6142 29.8037 25.5764 29.8918C25.5354 29.9892 25.4968 30.0877 25.4533 30.1839C25.2778 30.5633 25.1221 30.9511 24.9869 31.3459C24.9224 31.5411 24.8464 31.7326 24.7873 31.9293C24.713 32.1766 24.6502 32.427 24.5841 32.6762C24.543 32.8237 24.5081 32.972 24.4704 33.1198C24.4646 33.1427 24.4568 33.1651 24.4527 33.1879C24.4141 33.4075 24.3739 33.6287 24.339 33.8471C24.3057 34.0558 24.2745 34.265 24.2495 34.4746C24.2212 34.715 24.1961 34.953 24.1785 35.193C24.1346 35.7552 24.1209 36.3192 24.1374 36.8827C24.1514 37.2935 24.1653 37.705 24.2097 38.1133C24.2405 38.3982 24.2556 38.6871 24.3275 38.9676C24.3419 39.0366 24.3506 39.1067 24.3534 39.1771C24.3547 39.2093 24.3627 39.2409 24.3768 39.27C24.3909 39.2991 24.4108 39.3252 24.4355 39.3466C24.4491 39.3582 24.4617 39.3708 24.4732 39.3843C24.5112 39.4338 24.5618 39.4727 24.6198 39.4974C24.6779 39.522 24.7416 39.5315 24.8046 39.5249C24.9844 39.5157 25.1655 39.5249 25.3457 39.5221C25.4724 39.524 25.5979 39.5461 25.7172 39.5874C25.7781 39.6051 25.8335 39.6374 25.8782 39.6814C25.923 39.7253 25.9557 39.7796 25.9734 39.8391C26.0167 39.9613 26.0396 40.0896 26.0412 40.2189C26.0383 40.477 26.0519 40.7362 26.0367 40.9935C26.0252 41.1838 26.143 41.282 26.2695 41.3814C26.3006 41.3992 26.3366 41.4072 26.3725 41.4042C27.0163 41.4042 27.6595 41.4042 28.3021 41.4042C28.3322 41.4056 28.3622 41.4005 28.3899 41.3892C28.4177 41.3779 28.4426 41.3607 28.4627 41.3389C28.4866 41.3126 28.5123 41.2878 28.5395 41.2648C28.5699 41.241 28.594 41.2103 28.6096 41.1754C28.6252 41.1405 28.6318 41.1024 28.629 41.0644C28.6261 41.0003 28.629 40.9354 28.629 40.8709V33.5782C28.629 33.4901 28.6335 33.4019 28.629 33.3141C28.6284 33.1902 28.661 33.0683 28.7234 32.9603C28.75 32.9079 28.7911 32.8638 28.842 32.8329C28.9436 32.7685 29.0613 32.7327 29.1824 32.7295C29.2785 32.7295 29.3749 32.7259 29.4698 32.7259H35.4652C35.6873 32.7223 35.6348 32.75 35.8224 32.5713C35.8471 32.5497 35.8666 32.5232 35.8795 32.4935C35.8925 32.4637 35.8987 32.4316 35.8976 32.3994C35.8976 32.3409 35.8976 32.282 35.8976 32.2235C35.8976 30.8905 35.8976 29.5576 35.8976 28.2249C35.8928 28.0781 35.9175 27.9318 35.9702 27.7942C35.991 27.7389 36.0246 27.6891 36.0684 27.6487C36.1122 27.6083 36.165 27.5784 36.2227 27.5614C36.3415 27.5205 36.4663 27.4991 36.5922 27.498C36.8328 27.5025 37.0738 27.5021 37.3144 27.5037H37.4585C38.4031 27.5061 39.3474 27.5086 40.2914 27.5113C40.8328 27.5129 41.3742 27.5153 41.9156 27.5185C42.3727 27.5214 42.8298 27.5253 43.2869 27.5301C43.3829 27.5301 43.479 27.5429 43.5742 27.5493C43.6709 27.5586 43.7627 27.5949 43.8387 27.6539C43.9466 27.7313 43.9795 27.8543 44.0053 27.9765C44.0154 28.0402 44.0196 28.1047 44.0181 28.1692C44.0201 28.2494 44.0181 28.3339 44.0181 28.416C44.0181 31.023 44.0181 33.6299 44.0181 36.2368C44.0224 36.2836 44.0224 36.3307 44.0181 36.3775C43.9832 36.5638 44.0969 36.6744 44.2275 36.775C44.2619 36.7981 44.302 36.8119 44.3436 36.815C44.4096 36.8196 44.4758 36.8209 44.5419 36.8186C46.5151 36.8186 48.4884 36.8186 50.4618 36.8186C50.6132 36.8179 50.7641 36.8338 50.9118 36.8659C51.1208 36.9116 51.2284 37.045 51.2702 37.2382C51.2833 37.3134 51.2901 37.3895 51.2904 37.4658C51.2936 37.5459 51.2904 37.63 51.2904 37.7126V45.7437C51.2904 45.8491 51.2904 45.9553 51.2941 46.0607C51.2992 46.1486 51.3383 46.2313 51.4035 46.2921C51.4688 46.3529 51.5553 46.3872 51.6455 46.3881C51.914 46.3941 51.9304 46.3929 52.1176 46.1957C52.2519 46.0535 52.3771 45.9028 52.4991 45.7501C52.9445 45.1892 53.3463 44.5965 53.7012 43.9771C53.9836 43.4867 54.2382 42.9814 54.4636 42.4636C54.6037 42.1524 54.727 41.8342 54.8331 41.5104C54.9004 41.2976 54.9809 41.0889 55.0445 40.8757C55.1152 40.6393 55.1759 40.4005 55.2363 40.1612C55.2851 39.9681 55.3319 39.7738 55.3705 39.5782C55.4116 39.3598 55.4465 39.1375 55.4834 38.9195C55.4949 38.8498 55.504 38.78 55.5155 38.7103C55.522 38.6703 55.5339 38.6302 55.5376 38.5901C55.5729 38.2159 55.6197 37.8424 55.6386 37.4682C55.669 36.8467 55.6649 36.226 55.6448 35.6017C55.6378 35.3789 55.6259 35.1557 55.6037 34.9338C55.5654 34.5718 55.5208 34.2112 55.4699 33.8519C55.4445 33.654 55.4059 33.4579 55.3545 33.2649C55.2942 33.0521 55.4481 32.7908 55.7105 32.744C55.7282 32.74 55.7466 32.74 55.7643 32.744C55.8915 32.784 56.0168 32.8293 56.0763 32.9599C56.1092 33.0292 56.1356 33.1012 56.1551 33.1751C56.1892 33.3117 56.2155 33.45 56.2422 33.5882C56.2688 33.7265 56.2963 33.8651 56.3156 34.0041C56.353 34.2718 56.3863 34.5395 56.4183 34.8075C56.4417 35.0059 56.4671 35.2042 56.4803 35.4034C56.5269 36.0831 56.5269 36.7652 56.4803 37.4449C56.4578 37.826 56.4156 38.2056 56.3538 38.5825C56.3128 38.8193 56.2848 39.0589 56.2426 39.2957C56.2085 39.4861 56.1629 39.6744 56.1194 39.8635C56.0783 40.035 56.0418 40.2069 55.9962 40.3768C55.9408 40.5868 55.8829 40.7963 55.8185 41.0039C55.754 41.2115 55.683 41.4166 55.6103 41.6214C55.5237 41.8646 55.4358 42.1078 55.3418 42.3486C55.2075 42.696 55.0491 43.0366 54.8848 43.3768C54.6015 43.9595 54.2835 44.5254 53.9323 45.0718C53.2654 46.1063 52.4767 47.0611 51.5823 47.9167C51.5223 47.9744 51.4624 48.0325 51.4037 48.091C51.3662 48.1249 51.3368 48.1664 51.3175 48.2126C51.2982 48.2587 51.2895 48.3085 51.292 48.3583C51.2977 48.4989 51.292 48.6388 51.292 48.781C51.292 49.186 51.292 49.5911 51.292 49.9963C51.292 50.0608 51.2949 50.1253 51.2953 50.1899C51.295 50.2134 51.2998 50.2367 51.3093 50.2583C51.3189 50.2799 51.333 50.2993 51.3507 50.3153C51.3641 50.3272 51.3767 50.3399 51.3885 50.3533C51.4673 50.4567 51.5712 50.4916 51.703 50.4852C51.8648 50.4842 52.026 50.4659 52.1837 50.4307C52.4711 50.3545 52.7696 50.3037 53.0623 50.2395C53.2323 50.2019 53.4006 50.1574 53.5698 50.1193C53.716 50.0857 53.8629 50.0552 54.0091 50.0228C54.2259 49.9747 54.4418 49.925 54.6586 49.8777C54.8347 49.8397 55.0113 49.8052 55.187 49.7671C55.3278 49.7367 55.4691 49.707 55.6082 49.6706C55.9033 49.5916 56.2023 49.5273 56.5041 49.4778C56.7658 49.4335 57.034 49.4409 57.2928 49.4995C57.3162 49.5051 57.3392 49.5131 57.363 49.5167C57.7904 49.586 58.1747 49.7607 58.5417 49.9771C59.0639 50.2852 59.4244 50.7304 59.6757 51.2649C59.8078 51.5352 59.8982 51.8231 59.9438 52.1192C59.9565 52.2122 59.9848 52.3031 59.9943 52.3961C60.0074 52.5543 59.9975 52.7135 59.9647 52.8689C59.9221 53.1057 59.859 53.3386 59.7759 53.5649C59.516 54.2333 59.1066 54.7814 58.46 55.1401C58.2724 55.2442 58.0856 55.3504 57.8696 55.3953C57.824 55.4045 57.7842 55.439 57.7387 55.4518C57.5371 55.5103 57.3355 55.5676 57.1327 55.6209C56.9471 55.6698 56.7607 55.7131 56.5743 55.7587C56.4228 55.7956 56.2713 55.8317 56.1194 55.8681C55.9962 55.8974 55.8731 55.9242 55.7524 55.9555C55.497 56.0204 55.242 56.0885 54.9862 56.153C54.8352 56.1931 54.6832 56.2255 54.5317 56.2624C54.363 56.3025 54.1943 56.3454 54.0251 56.387L53.5361 56.5072C53.408 56.5385 53.2791 56.5665 53.1514 56.5998C52.8961 56.6663 52.6419 56.7368 52.3861 56.8001C52.2297 56.8402 52.0704 56.8715 51.9132 56.9083C51.7845 56.9385 51.6564 56.97 51.5289 57.0029C51.2735 57.0686 51.0194 57.1383 50.7636 57.2032C50.5078 57.2682 50.2381 57.3263 49.9757 57.3904C49.8189 57.4304 49.6633 57.4741 49.5069 57.5138C49.373 57.5478 49.2384 57.5783 49.1049 57.6116C48.8023 57.6873 48.5018 57.7718 48.1976 57.8379C47.9049 57.9029 47.6129 57.9706 47.3194 58.0323C47.1014 58.078 46.8789 58.0924 46.6625 58.1489C46.6274 58.1576 46.5915 58.1631 46.5553 58.1653C46.3279 58.1849 46.1004 58.2054 45.8722 58.2214C45.5902 58.2437 45.3066 58.2388 45.0256 58.207C44.9024 58.191 44.7735 58.1898 44.6479 58.1761C44.5222 58.1625 44.3859 58.1413 44.2554 58.1232C44.1958 58.1148 44.1359 58.108 44.0768 58.0976C43.9947 58.0832 43.9126 58.0659 43.8304 58.0495C43.7951 58.0423 43.7606 58.0303 43.7253 58.0255C43.4207 57.9854 43.1296 57.8904 42.8352 57.8071C42.5753 57.7338 42.3224 57.6424 42.0704 57.5474C41.7419 57.4228 41.4135 57.2938 41.0825 57.1676C40.8481 57.0778 40.612 56.9909 40.3776 56.9011C39.9868 56.7517 39.5975 56.6002 39.205 56.4511C38.8922 56.3309 38.5781 56.2155 38.2653 56.0965C38.0415 56.0116 37.819 55.923 37.5956 55.8373C37.3386 55.7391 37.0812 55.6421 36.8242 55.5444C36.7741 55.5251 36.7248 55.5043 36.6752 55.4823C36.3783 55.3564 36.07 55.2587 35.7695 55.1421C35.4689 55.0255 35.1782 54.9129 34.8822 54.7995C34.6256 54.7009 34.3678 54.6043 34.1108 54.5062C33.8764 54.4164 33.6423 54.3254 33.4079 54.2353L32.6874 53.9592L31.9484 53.6787C31.624 53.5553 31.2997 53.4331 30.9757 53.3093C30.6181 53.1722 30.2589 53.0392 29.9046 52.895C29.7775 52.8417 29.6405 52.8145 29.5022 52.8148C29.2916 52.8148 29.081 52.8148 28.8704 52.8148C28.0766 52.8148 27.2829 52.8148 26.4891 52.8148C26.2674 52.8148 26.3097 52.804 26.1438 52.9563C26.1077 52.9868 26.0793 53.0251 26.0609 53.0681C26.0424 53.1111 26.0344 53.1578 26.0375 53.2043C26.0428 53.357 26.0354 53.5096 26.0375 53.6623C26.0381 53.7918 26.0158 53.9204 25.9718 54.0425C25.9554 54.0992 25.9257 54.1513 25.8849 54.1947C25.8442 54.2381 25.7937 54.2716 25.7374 54.2926C25.6382 54.335 25.5312 54.3572 25.4229 54.3579C25.3687 54.3579 25.3145 54.3579 25.2586 54.3579H19.7772C19.6992 54.3579 19.6208 54.3579 19.5428 54.3535C19.4889 54.3503 19.4356 54.3411 19.3839 54.3258C19.1376 54.2501 19.0431 54.1255 19.007 53.8274C18.9995 53.7278 18.998 53.6278 19.0025 53.5281C19.002 51.3298 19.0017 49.1327 19.0017 46.9366ZM26.0399 47.0949C26.0399 48.5743 26.0399 50.0538 26.0399 51.5334C26.0399 51.6568 26.0638 51.7574 26.1586 51.8499C26.2534 51.9425 26.3466 51.9886 26.4776 51.9754C26.5437 51.972 26.6099 51.972 26.6759 51.9754C27.5381 51.9754 28.3966 51.9786 29.2567 51.9754C29.51 51.9723 29.7613 52.0189 29.9957 52.1124C30.318 52.2406 30.6419 52.364 30.9659 52.4883C31.2619 52.6021 31.5587 52.7134 31.8543 52.8276C32.1668 52.9479 32.4784 53.0713 32.7908 53.1915C33.1139 53.3161 33.4383 53.4383 33.7618 53.5617C33.924 53.6238 34.0853 53.6875 34.2475 53.7488C34.5608 53.869 34.8748 53.9832 35.1877 54.1031C35.5675 54.2489 35.9452 54.3992 36.3249 54.5438C36.7047 54.6885 37.0861 54.8303 37.4663 54.975C37.7964 55.1 38.1259 55.2259 38.4549 55.3528C38.7058 55.4498 38.9562 55.548 39.2071 55.6449C39.4304 55.7311 39.6538 55.8176 39.8775 55.9018C40.1128 55.9903 40.3497 56.0741 40.5845 56.1634C40.8469 56.2632 41.108 56.367 41.3699 56.4688C41.6163 56.5641 41.8597 56.6611 42.1061 56.7533C42.3524 56.8454 42.5877 56.936 42.8328 57.0133C43.0725 57.0899 43.3163 57.1537 43.5632 57.2044C43.8694 57.267 44.1749 57.3291 44.4877 57.3495C44.5539 57.3539 44.62 57.3603 44.6856 57.3667C45.2428 57.4202 45.8038 57.4211 46.3611 57.3695C46.6489 57.3488 46.9354 57.313 47.2192 57.2621C47.3958 57.2269 47.5727 57.1936 47.748 57.154C47.9352 57.1115 48.1208 57.0626 48.3068 57.0165C48.4583 56.9793 48.6098 56.9428 48.7584 56.9043C48.898 56.8687 49.036 56.8274 49.1756 56.7937C49.4494 56.7276 49.7245 56.6659 49.9967 56.6002C50.1892 56.5541 50.3806 56.5044 50.5715 56.4563C50.7111 56.4211 50.8506 56.3866 50.9898 56.3506C51.129 56.3145 51.2797 56.2732 51.4242 56.2348C51.5281 56.2071 51.6295 56.1763 51.7362 56.1518C52.0109 56.0877 52.2868 56.0316 52.5602 55.9631C52.8168 55.9006 53.071 55.8305 53.3263 55.7647C53.4481 55.733 53.5703 55.7026 53.693 55.6738C53.8506 55.6361 54.0091 55.6029 54.1659 55.5636C54.4394 55.4955 54.7116 55.4229 54.9871 55.3548C55.2428 55.2911 55.5003 55.2326 55.756 55.1685C56.0118 55.1044 56.2783 55.0319 56.5394 54.9658C56.865 54.8856 57.1901 54.8007 57.5169 54.7253C57.7148 54.6752 57.903 54.594 58.0741 54.4849C58.2543 54.3747 58.4025 54.2297 58.5516 54.0842C58.9465 53.6947 59.1547 53.2299 59.1493 52.6782C59.1493 52.5431 59.1493 52.4081 59.1469 52.2731C59.1381 52.0024 59.0662 51.7372 58.9367 51.4977C58.7281 51.1014 58.4136 50.7961 58.0334 50.5585C57.7661 50.3853 57.4535 50.2905 57.1327 50.2852C56.9277 50.2834 56.7231 50.284 56.5189 50.2872C56.3864 50.2892 56.2549 50.3091 56.128 50.3461C55.9901 50.3862 55.848 50.4122 55.7072 50.4423C55.5372 50.4788 55.3664 50.5116 55.196 50.5477C55.061 50.5765 54.9267 50.6082 54.792 50.6382C54.5876 50.6845 54.3823 50.7305 54.1762 50.7765L53.6835 50.8883L53.1752 51.0057C53.0582 51.0325 52.9412 51.059 52.8238 51.0858C52.6423 51.1259 52.4601 51.1619 52.2786 51.2028C52.0971 51.2437 51.928 51.285 51.7527 51.3254C51.6418 51.3515 51.5309 51.3775 51.4193 51.4012C51.2374 51.4412 51.0551 51.4753 50.8732 51.515C50.6679 51.5598 50.4627 51.6079 50.2594 51.654C50.1071 51.6881 49.9548 51.7201 49.8029 51.755C49.6333 51.795 49.4646 51.8351 49.2954 51.8752C49.1669 51.9048 49.0376 51.9325 48.9087 51.9601L48.3803 52.0711C48.0633 52.1376 47.7484 52.219 47.4282 52.2659C47.09 52.32 46.749 52.3561 46.4067 52.3741C45.8052 52.3936 45.2031 52.3578 44.6085 52.2671C44.5846 52.2639 44.5616 52.2579 44.5378 52.253C44.3502 52.213 44.1614 52.1781 43.975 52.1328C43.7286 52.0735 43.4856 52.0126 43.245 51.9409C43.0331 51.8772 42.8258 51.7979 42.6176 51.7225C42.4263 51.654 42.2358 51.5819 42.0457 51.5106C41.8946 51.4537 41.7444 51.3948 41.5941 51.3383C41.3983 51.2649 41.2012 51.194 41.0049 51.1211C40.7693 51.0337 40.5344 50.9448 40.2988 50.857C39.9736 50.7368 39.648 50.6166 39.3229 50.4964C39.0765 50.4042 38.8302 50.3101 38.5839 50.2159C38.3375 50.1217 38.0912 50.0324 37.8449 49.9398L37.0894 49.6553L36.3373 49.3676C36.1135 49.2823 35.891 49.1953 35.6668 49.1116C35.4426 49.0278 35.2058 48.9441 34.9767 48.8559C34.8945 48.8239 34.8124 48.7862 34.7266 48.7602C34.6683 48.7453 34.614 48.7179 34.5678 48.6801C34.5216 48.6422 34.4846 48.5949 34.4594 48.5414C34.4245 48.4663 34.4167 48.3819 34.4371 48.3019C34.4575 48.222 34.505 48.151 34.5718 48.1006C34.6313 48.0552 34.7027 48.0269 34.7778 48.0191C34.853 48.0113 34.9288 48.0243 34.9968 48.0566C35.1848 48.1335 35.3778 48.1988 35.5679 48.2709C35.82 48.3659 36.0708 48.4629 36.3225 48.5574C36.6304 48.6732 36.9383 48.787 37.2475 48.9024C37.4938 48.995 37.7402 49.0891 37.9865 49.1829C38.2328 49.2767 38.4792 49.3672 38.7255 49.459C38.9718 49.5508 39.2075 49.6365 39.4485 49.7263C39.7963 49.8553 40.144 49.9835 40.4905 50.1157C40.5809 50.147 40.6745 50.1685 40.7697 50.1798C41.0394 50.2199 41.3104 50.2135 41.5806 50.2059C42.0297 50.1958 42.4629 50.0408 42.8122 49.7651C42.992 49.627 43.1557 49.47 43.3004 49.2971C43.6243 48.9088 43.8206 48.4701 43.8181 47.9596C43.8181 47.7893 43.8181 47.619 43.8152 47.4487C43.8066 47.178 43.7345 46.9127 43.6046 46.6734C43.4125 46.2975 43.1181 46.0062 42.7778 45.757C42.6805 45.6883 42.5761 45.63 42.4661 45.5831C42.2641 45.4929 42.0556 45.4132 41.8532 45.329C41.4389 45.1575 41.0255 44.984 40.61 44.8157C40.3053 44.6919 39.9966 44.5753 39.692 44.4551C39.2703 44.2848 38.8515 44.1085 38.4303 43.9386C38.0645 43.7907 37.6958 43.6489 37.3296 43.5022C37.013 43.3756 36.6981 43.2454 36.3824 43.1176C36.1 43.0034 35.8167 42.8908 35.5338 42.7758C35.1684 42.6275 34.8005 42.4841 34.4392 42.3262C34.2897 42.265 34.1283 42.2363 33.9663 42.2421C31.4878 42.2437 29.0093 42.2437 26.5306 42.2421C26.4764 42.2421 26.4222 42.2421 26.3663 42.2421C26.3119 42.2419 26.2596 42.2628 26.221 42.3002C26.0432 42.4532 26.0399 42.4576 26.0399 42.6924V47.0949ZM43.1661 36.5798V28.8833C43.1661 28.8244 43.1661 28.7654 43.1661 28.7069C43.1689 28.6747 43.1641 28.6423 43.1519 28.6122C43.1397 28.5821 43.1206 28.5551 43.0959 28.5334C43.0644 28.5062 43.0347 28.477 43.0069 28.4461C42.9815 28.4171 42.9495 28.3944 42.9135 28.3797C42.8775 28.365 42.8384 28.3588 42.7995 28.3615C42.607 28.3615 42.4144 28.3559 42.2223 28.3555C41.2897 28.3523 40.3574 28.3497 39.4251 28.3475C39.384 28.3475 39.3409 28.3475 39.2987 28.3475C38.5888 28.3423 37.8793 28.3395 37.1695 28.3307C37.113 28.3281 37.0566 28.3378 37.0044 28.359C36.9522 28.3803 36.9055 28.4126 36.8677 28.4537C36.7918 28.5306 36.7445 28.6088 36.754 28.7178C36.7558 28.753 36.7558 28.7883 36.754 28.8235V42.0866C36.754 42.1391 36.754 42.1924 36.7564 42.2469C36.7561 42.276 36.7644 42.3047 36.7803 42.3294C36.871 42.4312 36.9589 42.5374 37.0898 42.5935C37.1719 42.6287 37.2573 42.6588 37.3407 42.6916C37.6281 42.8066 37.9188 42.92 38.207 43.0366C38.5785 43.1865 38.9484 43.3396 39.32 43.4898C39.6074 43.6064 39.8977 43.719 40.1855 43.8368C40.534 43.9791 40.881 44.1257 41.2295 44.268C41.5506 44.399 41.8721 44.5292 42.1952 44.655C42.3725 44.724 42.5454 44.8029 42.7486 44.7889C42.8718 44.7801 42.9637 44.7528 43.0508 44.6663C43.1378 44.5797 43.1797 44.5012 43.167 44.3858C43.1638 44.3324 43.1638 44.2789 43.167 44.2255L43.1661 36.5798ZM50.4389 44.2876V38.1938C50.4389 38.1353 50.4389 38.0764 50.4389 38.0179C50.4422 37.9886 50.4392 37.9589 50.4299 37.9307C50.4206 37.9026 50.4053 37.8768 50.3851 37.8548C50.3165 37.7899 50.2451 37.7274 50.1724 37.6665C50.1609 37.6569 50.1379 37.6593 50.1198 37.6585C50.0837 37.6585 50.0476 37.6585 50.0115 37.6585C48.1653 37.6585 46.3187 37.6578 44.4717 37.6565C44.4093 37.6525 44.3467 37.6623 44.2885 37.685C44.2304 37.7078 44.1783 37.7429 44.1359 37.7879C44.0538 37.8717 44.0127 37.9562 44.0222 38.0684C44.0263 38.1085 44.0222 38.1485 44.0222 38.1914V45.5706C44.0222 45.6235 44.0246 45.6764 44.0222 45.7309C44.017 45.8191 44.0417 45.9066 44.0924 45.9797C44.2421 46.2063 44.366 46.4482 44.4619 46.701C44.5603 46.9594 44.6262 47.2285 44.6581 47.5024C44.6814 47.7599 44.6629 48.0195 44.6031 48.2713C44.5354 48.5866 44.4277 48.8924 44.2825 49.1817C44.2172 49.3135 44.1421 49.4406 44.0686 49.568C44.0387 49.6189 44.0232 49.6767 44.0238 49.7355C44.0238 50.176 44.0238 50.6167 44.0238 51.0578C44.0223 51.09 44.028 51.1222 44.0405 51.1521C44.053 51.1819 44.0719 51.2088 44.0961 51.2309C44.1371 51.2669 44.1737 51.3046 44.211 51.3427C44.2615 51.3943 44.3292 51.4266 44.4019 51.4336C44.7123 51.4661 45.0178 51.5282 45.3335 51.5354C45.8389 51.5474 46.3439 51.5546 46.8485 51.5274C47.0045 51.519 47.1597 51.4993 47.3145 51.4793C47.529 51.4546 47.742 51.4185 47.9525 51.3711C48.1331 51.3278 48.3162 51.2962 48.4977 51.2561C48.6677 51.2184 48.8364 51.176 49.0056 51.1359C49.1341 51.1063 49.2634 51.0782 49.3923 51.0506C49.5623 51.0141 49.7327 50.9792 49.9027 50.9424C49.9786 50.9259 50.0554 50.9095 50.1297 50.8867C50.1757 50.8758 50.2186 50.855 50.2553 50.8258C50.4421 50.6495 50.4376 50.6807 50.4389 50.4335V44.2876ZM19.8585 46.9474C19.8585 49.0081 19.8585 51.0689 19.8585 53.1298C19.8585 53.3345 19.845 53.29 19.987 53.4367C20.0116 53.4661 20.0431 53.4892 20.0789 53.504C20.1147 53.5188 20.1536 53.5248 20.1923 53.5216C20.2223 53.5188 20.2527 53.5216 20.2826 53.5216H24.7237C24.7647 53.5216 24.8058 53.5216 24.8497 53.5216C24.8886 53.5217 24.9272 53.514 24.9629 53.499C24.9987 53.4841 25.031 53.4622 25.0579 53.4347C25.1507 53.3546 25.2012 53.2648 25.1843 53.1426C25.1829 53.1192 25.1829 53.0958 25.1843 53.0725V40.8653C25.1843 40.8184 25.1823 40.7715 25.1843 40.7246C25.1858 40.6865 25.1788 40.6486 25.1639 40.6134C25.1489 40.5782 25.1264 40.5466 25.0977 40.5207C24.9401 40.3604 24.9417 40.3584 24.7048 40.358H20.3372C20.283 40.358 20.2288 40.358 20.173 40.358C20.1459 40.3575 20.1191 40.3627 20.0942 40.3732C20.0694 40.3837 20.0471 40.3993 20.0289 40.4189C19.8466 40.5984 19.8577 40.5716 19.8569 40.7995V46.9474H19.8585ZM35.8976 37.6982C35.8976 36.4595 35.8976 35.2211 35.8976 33.9829C35.8976 33.7673 35.9185 33.8126 35.7522 33.6471C35.7477 33.6431 35.7432 33.6395 35.7391 33.6351C35.7188 33.6094 35.6921 33.5891 35.6616 33.5762C35.6311 33.5633 35.5977 33.5582 35.5646 33.5614C35.5346 33.5634 35.5046 33.5614 35.4747 33.5614C33.6159 33.5614 31.7576 33.5604 29.8996 33.5586C29.767 33.5586 29.6652 33.5882 29.5864 33.6904C29.5789 33.6997 29.5703 33.7081 29.5609 33.7156C29.5347 33.7355 29.514 33.7615 29.5008 33.7913C29.4877 33.8211 29.4825 33.8537 29.4858 33.8859C29.4883 33.9152 29.4858 33.9448 29.4858 33.9741C29.4858 36.3043 29.4858 38.6345 29.4858 40.9646C29.4858 41.0115 29.4858 41.0584 29.4879 41.1057C29.4893 41.1529 29.5084 41.1979 29.5416 41.2323C29.6841 41.3926 29.7059 41.405 29.9267 41.405H33.7515C33.8599 41.405 33.9683 41.405 34.0763 41.413C34.1361 41.4157 34.1952 41.427 34.2516 41.4467C34.5312 41.5533 34.812 41.657 35.0855 41.7768C35.2464 41.8427 35.4218 41.8678 35.5954 41.8498C35.631 41.8471 35.6651 41.8344 35.6935 41.8133C35.8237 41.7111 35.932 41.5969 35.8988 41.4126C35.8951 41.3717 35.8951 41.3305 35.8988 41.2896L35.8976 37.6982Z" fill="black"/>
<path d="M46.0604 21.6686C46.0386 21.8096 45.9857 21.931 45.851 21.9996C45.7537 22.0488 45.6527 22.0777 45.5406 22.0296C45.4474 21.9895 45.3485 21.9631 45.2532 21.9322C44.951 21.8349 44.6509 21.7319 44.3459 21.6437C44.0872 21.57 43.8228 21.5139 43.56 21.4526C43.3675 21.4073 43.1745 21.3637 42.9803 21.3248C42.8219 21.2931 42.6617 21.2643 42.5012 21.2446C42.1912 21.2046 41.8808 21.1701 41.5701 21.1381C41.3611 21.1164 41.1513 21.098 40.9411 21.086C40.3224 21.0515 39.702 21.0543 39.0837 21.0776C38.6327 21.092 38.1829 21.1321 37.7366 21.1978C37.464 21.2378 37.1894 21.2731 36.9155 21.3148C36.7849 21.3344 36.6552 21.3609 36.5267 21.3909C36.2393 21.4578 35.9556 21.5279 35.6707 21.5985C35.5602 21.6257 35.4519 21.6614 35.3422 21.6874C35.0959 21.7451 34.8635 21.8405 34.6233 21.9142C34.3134 22.0088 34.0165 22.135 33.7168 22.2536C33.3884 22.3834 33.0718 22.5373 32.7549 22.6916C32.4264 22.8518 32.1082 23.0273 31.795 23.2125C31.3053 23.4986 30.8327 23.8116 30.3794 24.1501C30.0599 24.3905 29.7491 24.6401 29.447 24.899C29.3519 24.9804 29.2435 25.0457 29.1263 25.0921C29.1017 25.1029 29.075 25.1083 29.048 25.1079C29.0211 25.1075 28.9945 25.1013 28.9703 25.0897C28.8718 25.0461 28.7716 25.0096 28.7186 24.9042C28.6254 24.7155 28.6497 24.5836 28.8065 24.4346C29.1813 24.0768 29.5976 23.7674 30.0164 23.4625C30.4352 23.1576 30.8622 22.8835 31.3035 22.621C31.7748 22.3398 32.2609 22.0829 32.7598 21.8513C33.1662 21.6638 33.5785 21.4907 33.9993 21.3304C34.347 21.2002 34.7034 21.0964 35.052 20.9698C35.1805 20.9229 35.318 20.8984 35.451 20.8636C35.5496 20.8375 35.6473 20.8079 35.7462 20.7834C36.0492 20.7105 36.3506 20.6284 36.6569 20.5719C36.8806 20.5318 37.0994 20.4605 37.3302 20.4541C37.384 20.4495 37.4374 20.4409 37.4899 20.4284C37.5309 20.4208 37.572 20.4076 37.6131 20.4032C37.9115 20.3699 38.21 20.3355 38.5089 20.3066C38.7364 20.2846 38.9642 20.2665 39.1921 20.2525C39.6243 20.2253 40.0578 20.2233 40.4903 20.2465C40.8507 20.2649 41.2108 20.2886 41.5696 20.3247C41.8501 20.3523 42.1284 20.4048 42.4076 20.4421C42.4671 20.4505 42.5279 20.4525 42.587 20.4617C42.6753 20.4761 42.7631 20.4937 42.8514 20.5114C42.8867 20.5182 42.9208 20.5294 42.9561 20.5366C43.2558 20.5979 43.558 20.6492 43.8544 20.7233C44.1853 20.8035 44.5113 20.9049 44.8398 21.0038C45.1144 21.0876 45.3862 21.1801 45.6584 21.2715C45.7266 21.2944 45.7929 21.3222 45.8567 21.3548C45.9857 21.419 46.03 21.5396 46.0604 21.6686Z" fill="black"/>
<path d="M47.7168 30.5697C47.7271 30.5252 47.7427 30.482 47.7632 30.441C47.8076 30.3647 47.859 30.2924 47.9167 30.2251C48.2657 29.8292 48.6165 29.4346 48.969 29.0414C49.4978 28.4479 50.0266 27.8546 50.5554 27.2615C51.2788 26.4511 52.0006 25.6403 52.7207 24.8293C52.885 24.6434 53.0594 24.4635 53.2249 24.2775C53.4302 24.0467 53.6285 23.8115 53.8317 23.5799C54.0349 23.3483 54.2501 23.1107 54.4558 22.8731C54.5067 22.8153 54.5677 22.7667 54.636 22.7297C54.8031 22.6371 54.9562 22.6692 55.0843 22.785C55.1927 22.8827 55.2679 23.0494 55.1525 23.2333C55.0996 23.3182 55.0396 23.3986 54.9731 23.4737C54.1848 24.3604 53.3956 25.2466 52.6054 26.1324C51.9706 26.8451 51.3365 27.5587 50.7028 28.2733C50.4466 28.561 50.1839 28.8435 49.9277 29.1316C49.6403 29.4553 49.357 29.7827 49.0708 30.1073C48.8787 30.3252 48.6845 30.5416 48.4915 30.7592C48.4201 30.8384 48.3322 30.902 48.2337 30.9455C48.0046 31.0517 47.7225 30.8381 47.7168 30.5697Z" fill="black"/>
<path d="M51.9492 29.7855C51.9677 29.4417 52.0929 29.154 52.2666 28.8815C52.4259 28.6315 52.6624 28.4752 52.9272 28.3566C53.0646 28.2982 53.2065 28.2505 53.3517 28.2139C53.4978 28.1758 53.6512 28.1736 53.7984 28.2075C54.1171 28.2723 54.416 28.4086 54.6712 28.6058C54.8236 28.726 54.9246 28.8863 55.0157 29.053C55.1308 29.266 55.204 29.4981 55.2317 29.7374C55.2363 29.7663 55.2373 29.7956 55.2345 29.8247C55.1965 30.146 55.0808 30.4539 54.8971 30.7231C54.7591 30.9235 54.5686 31.0625 54.3572 31.1771C54.1457 31.2917 53.9121 31.3494 53.676 31.3947C53.6289 31.4045 53.5804 31.4061 53.5328 31.3995C53.1661 31.3418 52.8254 31.2204 52.5306 30.9928C52.3824 30.8716 52.262 30.7215 52.1771 30.552C52.0609 30.3388 51.9718 30.116 51.955 29.8708C51.9525 29.8368 51.9505 29.8019 51.9492 29.7855ZM53.6009 29.0165C53.2174 29.0165 53.247 28.9837 52.9284 29.297C52.8856 29.3383 52.8515 29.3873 52.8281 29.4415C52.8047 29.4956 52.7925 29.5536 52.7921 29.6124C52.7888 29.7298 52.7892 29.8472 52.7921 29.9642C52.7914 30.0231 52.8029 30.0815 52.8257 30.136C52.8485 30.1905 52.8824 30.24 52.9251 30.2815C52.981 30.3344 53.0327 30.3925 53.0893 30.4418C53.1344 30.4853 53.188 30.5193 53.2469 30.542C53.3058 30.5647 53.3689 30.5754 53.4322 30.5736C53.4732 30.5716 53.5163 30.5736 53.5582 30.5736C53.9027 30.5736 53.9277 30.6069 54.2475 30.2811C54.3375 30.1931 54.3895 30.0748 54.3929 29.9506C54.3962 29.8392 54.3962 29.7274 54.3929 29.616C54.3915 29.5092 54.3499 29.4066 54.2759 29.3279C54.2065 29.255 54.1322 29.186 54.0587 29.1171C54.0247 29.0836 53.9841 29.0571 53.9394 29.0393C53.8947 29.0214 53.8467 29.0126 53.7984 29.0133C53.7343 29.0173 53.667 29.0165 53.6009 29.0165Z" fill="black"/>
<path d="M50.7069 24.0182C50.7147 24.1877 50.6514 24.3431 50.6009 24.499C50.5436 24.6654 50.4615 24.8225 50.3571 24.9654C50.2701 25.0922 50.1585 25.2011 50.0286 25.286C49.7753 25.4491 49.5051 25.5713 49.2005 25.6065C49.0151 25.6282 48.827 25.6082 48.6508 25.548C48.5094 25.501 48.3721 25.443 48.2402 25.3745C47.9946 25.2468 47.7925 25.0518 47.6589 24.8136C47.5416 24.602 47.4606 24.3731 47.4191 24.136C47.4056 24.0668 47.4046 23.9959 47.4162 23.9264C47.4786 23.5682 47.6108 23.238 47.8539 22.9575C47.9799 22.8121 48.1413 22.7123 48.3125 22.6229C48.5268 22.5163 48.7585 22.4472 48.9973 22.4186C49.0329 22.4133 49.0691 22.4126 49.1049 22.4166C49.4704 22.4591 49.8177 22.5959 50.1111 22.8129C50.1952 22.8792 50.2691 22.9571 50.3304 23.0441C50.5139 23.2845 50.6178 23.5566 50.6863 23.8455C50.6966 23.9026 50.7035 23.9603 50.7069 24.0182ZM49.8566 24.0182C49.8566 23.9653 49.8541 23.9124 49.8566 23.8579C49.8599 23.7961 49.8488 23.7345 49.8242 23.6775C49.7996 23.6205 49.7621 23.5697 49.7145 23.5289C49.6587 23.4756 49.6041 23.4207 49.5483 23.3686C49.5058 23.3268 49.4553 23.2937 49.3996 23.2711C49.3439 23.2484 49.2842 23.2368 49.2239 23.2368C49.1098 23.2348 48.9956 23.234 48.8815 23.2368C48.7659 23.2383 48.6552 23.2831 48.5724 23.3618C48.512 23.4187 48.4516 23.4764 48.3933 23.5353C48.3477 23.5781 48.3118 23.6298 48.288 23.6871C48.2642 23.7443 48.2529 23.8058 48.255 23.8675C48.2591 23.9729 48.2587 24.0787 48.255 24.1841C48.2537 24.2429 48.2645 24.3014 48.2868 24.3561C48.3091 24.4109 48.3424 24.4607 48.3847 24.5026C48.4406 24.5639 48.505 24.6176 48.5633 24.6765C48.6013 24.7144 48.6467 24.7445 48.6967 24.7651C48.7468 24.7858 48.8005 24.7965 48.8548 24.7967C48.987 24.8015 49.1192 24.8011 49.2514 24.7967C49.3087 24.7969 49.3655 24.7857 49.4183 24.7639C49.4711 24.742 49.5188 24.71 49.5585 24.6697C49.6123 24.6144 49.6698 24.5627 49.7227 24.5094C49.7664 24.4688 49.8007 24.4196 49.8235 24.3651C49.8463 24.3107 49.857 24.2521 49.8549 24.1933C49.8545 24.134 49.8566 24.0751 49.8566 24.0166V24.0182Z" fill="black"/>
<path d="M27.2907 27.0828C27.2723 27.2964 27.1154 27.4615 26.8933 27.4559C26.6712 27.4503 26.5271 27.2868 26.5123 27.0856C26.4988 26.9053 26.7176 26.6946 26.8995 26.6934C27.0814 26.6922 27.2903 26.8937 27.2907 27.0828Z" fill="black"/>
</g>
<defs>
<clipPath id="clip0_1807_4951">
<rect width="41" height="38" fill="white" transform="translate(19 20.2305)"/>
</clipPath>
</defs>
</svg>
