<svg width="95" height="95" viewBox="0 0 95 95" fill="none" xmlns="http://www.w3.org/2000/svg">
<g clip-path="url(#clip0_181695_14375)">
<path d="M47.05 93.14C72.4827 93.14 93.1 72.5138 93.1 47.07C93.1 21.6262 72.4827 1 47.05 1C21.6173 1 1 21.6262 1 47.07C1 72.5138 21.6173 93.14 47.05 93.14Z" fill="white"/>
<path d="M47.05 93.64C72.7591 93.64 93.6 72.7897 93.6 47.07C93.6 21.3503 72.7591 0.5 47.05 0.5C21.3409 0.5 0.5 21.3503 0.5 47.07C0.5 72.7897 21.3409 93.64 47.05 93.64Z" stroke="#2E3192" stroke-opacity="0.2" stroke-linejoin="round"/>
<path opacity="0.6" d="M47.0915 88.18C69.7848 88.18 88.1815 69.7834 88.1815 47.09C88.1815 24.3966 69.7848 6 47.0915 6C24.3981 6 6.00146 24.3966 6.00146 47.09C6.00146 69.7834 24.3981 88.18 47.0915 88.18Z" fill="#C8DCFE"/>
<path fill-rule="evenodd" clip-rule="evenodd" d="M53.2023 26L60.5654 33.3688V48.1992L61.186 48.264C61.5379 48.3011 62.1492 48.4216 62.5567 48.5328C62.9643 48.6348 63.6126 48.8572 63.9923 49.0241C64.372 49.1817 65.0667 49.5617 65.5205 49.8676C65.9743 50.1642 66.6875 50.7481 67.1043 51.156C67.5118 51.5731 68.0953 52.2868 68.4009 52.7409C68.6973 53.1951 69.0771 53.9088 69.253 54.3167C69.4197 54.7245 69.642 55.3733 69.7439 55.7534C69.8828 56.2446 69.9477 56.8564 69.9847 57.8389C70.0218 58.9233 69.994 59.4146 69.8736 60.0634C69.7902 60.5176 69.6142 61.185 69.4846 61.5465C69.3549 61.9079 69.1234 62.4455 68.9659 62.7514C68.8177 63.0573 68.4936 63.5949 68.2435 63.9564C68.0027 64.3179 67.4377 64.9574 66.9839 65.3931C66.5393 65.8287 65.9188 66.3478 65.6131 66.5517C65.3075 66.7556 64.7888 67.0522 64.4554 67.2191C64.122 67.3859 63.6033 67.6084 63.2977 67.7103C62.992 67.8123 62.3622 67.9698 61.9084 68.0625C61.1304 68.2108 60.0931 68.2201 32.0853 68.1274L31.5296 67.905C31.1406 67.7474 30.8072 67.5157 30.4089 67.1171C30.0107 66.7185 29.7791 66.3848 29.3994 65.4394L29.3531 54.7338L28.9826 55.0582C28.7788 55.2343 28.4361 55.466 28.2139 55.5772C27.9453 55.7163 27.6489 55.7719 27.2691 55.7719C26.9635 55.7719 26.5652 55.707 26.3893 55.6329C26.2133 55.5587 25.9262 55.3733 25.7502 55.2343C25.5742 55.086 25.3427 54.7708 25.2223 54.5298C25.0556 54.2054 25 53.9274 25 53.5103C25 53.121 25.0648 52.7873 25.1945 52.5092C25.3242 52.2126 25.9632 51.5082 29.3531 48.1065V38.6707C29.3531 32.0526 29.3808 29.0958 29.4549 28.7529C29.5105 28.4933 29.6494 28.1041 29.7513 27.9001C29.8532 27.6962 30.1311 27.3255 30.3626 27.0752C30.5941 26.8342 30.9554 26.5469 31.1591 26.4356C31.3629 26.3337 31.6963 26.1946 31.9001 26.1298C32.1872 26.0371 34.5489 26.0093 53.2023 26ZM31.6963 27.4182C31.5574 27.4923 31.3073 27.6962 31.1406 27.8723C30.9739 28.0392 30.7701 28.345 30.6775 28.549C30.5201 28.9012 30.5108 29.4759 30.483 37.8921C30.4737 42.8232 30.4923 46.8552 30.5293 46.8552C30.5756 46.8552 30.8627 46.5956 31.1869 46.2805L31.7704 45.6965C31.6222 45.1219 31.5759 44.7233 31.5759 44.4452C31.5759 44.1672 31.65 43.7222 31.7334 43.472C31.8352 43.1846 32.076 42.8139 32.3632 42.508L32.8262 42.0168C32.4187 40.4503 32.3817 40.0981 32.3724 38.8839C32.3724 37.7067 32.4002 37.3081 32.5669 36.6593C32.6781 36.2237 32.9096 35.5378 33.0763 35.1299C33.243 34.7221 33.6228 34.0362 33.9099 33.6005C34.197 33.1649 34.7342 32.5068 35.1139 32.1268C35.4844 31.756 36.0401 31.2648 36.3457 31.0516C36.6514 30.8291 37.2997 30.4584 37.7813 30.2266C38.2629 30.0042 38.9761 29.7261 39.3558 29.6242C39.7356 29.5129 40.4673 29.3832 40.9767 29.3368C41.5941 29.275 42.1961 29.275 42.7827 29.3368C43.2643 29.3832 43.996 29.5129 44.4035 29.6242C44.8111 29.7261 45.4316 29.9486 45.7928 30.1154C46.1448 30.2823 46.7468 30.6067 47.108 30.8477C47.4785 31.0887 48.1083 31.5892 48.4973 31.9692C48.8955 32.34 49.4512 32.9795 49.7291 33.3781C50.0069 33.7859 50.3867 34.444 50.5719 34.8519C50.7664 35.2597 51.0072 35.9085 51.1091 36.2885C51.211 36.6686 51.3499 37.3823 51.4055 37.8643C51.4611 38.3648 51.4796 39.0692 51.4425 39.4863C51.4147 39.8942 51.3221 40.4967 51.2573 40.8303C51.1832 41.164 51.0072 41.785 50.8498 42.2207C50.6923 42.6563 50.3311 43.3886 50.044 43.8427C49.7569 44.2969 49.3123 44.9272 49.0437 45.2238C48.7844 45.5297 48.2379 46.0395 47.8304 46.3639C47.4229 46.6883 46.7375 47.1332 46.3022 47.3557C45.8669 47.5781 45.1815 47.8655 44.774 47.9952C44.3665 48.125 43.6811 48.2826 43.2458 48.3475C42.7642 48.4123 42.051 48.4401 41.3934 48.4031C40.8099 48.3753 39.9856 48.264 39.5596 48.1621L38.8001 47.9674C38.1148 48.5606 37.7072 48.8294 37.4572 48.9499C37.1978 49.0612 36.8274 49.1817 36.6236 49.2187C36.3921 49.2558 36.0308 49.228 35.6511 49.1353L35.0491 48.9777L30.4552 53.5751C30.5108 65.115 30.5108 65.2633 30.7053 65.6711C30.8072 65.9029 31.0758 66.2458 31.2795 66.4312C31.5203 66.6444 31.863 66.839 32.1501 66.9224C32.5762 67.0429 34.1414 67.0615 43.9404 67.0615H55.2399C54.1655 66.357 53.5635 65.8843 53.2115 65.5692C52.8596 65.2448 52.3224 64.6423 52.0168 64.2345C51.7111 63.8266 51.2851 63.1407 51.0721 62.7051C50.859 62.2694 50.5719 61.5835 50.4423 61.1757C50.3126 60.7679 50.1644 60.0542 50.0996 59.6C50.0255 59.1087 50.0069 58.3301 50.0347 57.6998C50.0625 56.9954 50.1644 56.3188 50.3218 55.707C50.4515 55.1972 50.7664 54.363 51.0165 53.8532C51.2666 53.3434 51.6926 52.639 51.9612 52.2775C52.2298 51.916 52.7392 51.3413 53.1004 50.9984C53.4616 50.6462 54.0266 50.1827 54.36 49.9603C54.6934 49.7378 55.3603 49.367 55.8419 49.1353C56.3235 48.9129 57.0737 48.6348 57.509 48.5236C57.9443 48.4123 58.5556 48.2918 58.8798 48.264L59.454 48.1992V34.1567C55.8697 34.1567 55.2121 34.1196 54.8694 34.0269C54.6101 33.9528 54.1933 33.7488 53.9432 33.5727C53.6839 33.4059 53.3227 33.0537 53.1282 32.8034C52.9429 32.5532 52.7021 32.0804 52.6003 31.7468C52.4335 31.2184 52.415 30.8847 52.415 29.1236V27.1123C36.9478 27.1215 32.3446 27.1586 32.2057 27.1957C32.0668 27.242 31.8352 27.3347 31.6963 27.4182ZM53.5264 29.4759C53.5264 30.3379 53.5728 31.2092 53.6191 31.4038C53.6746 31.5892 53.8506 31.9229 54.0173 32.1453C54.1933 32.3678 54.536 32.6458 54.8324 32.7941C55.3325 33.0444 55.3418 33.0537 56.9811 33.0259L58.6205 32.9981L53.5264 27.9001V29.4759ZM40.1431 30.5789C39.7819 30.653 39.1613 30.8384 38.7538 30.996C38.3463 31.1535 37.6794 31.4965 37.2719 31.7653C36.8644 32.0341 36.2531 32.5253 35.929 32.859C35.5955 33.1927 35.1324 33.7303 34.9102 34.064C34.6879 34.3977 34.373 34.9631 34.2063 35.3153C34.0395 35.6675 33.8173 36.2978 33.7061 36.7056C33.6042 37.1135 33.4838 37.8457 33.4561 38.3277C33.419 38.856 33.4468 39.5234 33.5116 39.9961C33.5765 40.4318 33.7339 41.1084 33.8543 41.507L34.0766 42.2207H35.6511C35.6511 35.408 35.6696 34.824 35.79 34.6387C35.9197 34.444 35.9845 34.4348 37.2719 34.4348C38.4945 34.4348 38.6334 34.4533 38.8001 34.6201C38.9761 34.7962 38.9854 34.926 38.9854 38.5131V42.2207H40.1894C40.2357 36.4832 40.245 36.3627 40.421 36.2329C40.5599 36.131 40.9211 36.1032 41.9028 36.1032C43.0235 36.0939 43.218 36.1217 43.357 36.2607C43.5051 36.409 43.5144 36.7056 43.5237 39.3195V42.2207H44.8203C44.8203 38.9302 44.8481 38.578 44.9592 38.4667C45.0704 38.3555 45.3575 38.3277 46.506 38.3463C47.9045 38.3741 47.9138 38.3741 48.0342 38.6058C48.1175 38.7634 48.1546 39.3566 48.1546 40.5245V42.2207L49.6735 42.1743C49.9421 41.4514 50.081 40.9508 50.1644 40.5986C50.2478 40.2186 50.3033 39.4863 50.3033 38.8375C50.3126 38.0033 50.257 37.5213 50.1088 36.891C49.9977 36.4368 49.7384 35.7046 49.5346 35.269C49.3308 34.8333 48.9789 34.2308 48.7566 33.925C48.5436 33.6191 48.0712 33.0908 47.7285 32.7571C47.3766 32.4234 46.8764 32.0156 46.6264 31.8394C46.367 31.6633 45.8299 31.3667 45.4223 31.1813C45.0148 30.9867 44.3294 30.7457 43.8941 30.6437C43.4588 30.5418 42.7271 30.4398 42.2733 30.4213C41.8102 30.3935 41.2916 30.3935 41.1156 30.412C40.9396 30.4398 40.495 30.514 40.1431 30.5789ZM36.7625 42.2207H37.8739V35.547H36.7625V42.2207ZM41.3471 42.1743L42.4122 42.2207V37.2154H41.3008L41.3471 42.1743ZM45.9317 42.2207L46.9969 42.1743L47.0339 39.44H45.9317V42.2207ZM32.6781 44.4174C32.6873 44.6862 32.7244 45.0199 32.7799 45.1589C32.8355 45.3072 33.3912 45.9375 34.0118 46.5585C34.6323 47.1888 35.2899 47.7821 35.4844 47.884C35.6974 47.986 36.0216 48.0601 36.318 48.0601C36.6977 48.0601 36.9015 48.0045 37.2719 47.7821L37.735 47.4947C36.7255 46.9108 36.2716 46.6142 36.0679 46.4566C35.8641 46.299 35.4751 45.9653 35.1973 45.7058C34.9287 45.4463 34.5119 44.9643 34.2618 44.6306C34.021 44.2969 33.7154 43.8335 33.5765 43.5832C33.4375 43.3422 33.2986 43.1476 33.2523 43.1476C33.2152 43.1476 33.0671 43.3237 32.9281 43.5369C32.7429 43.8427 32.6781 44.0467 32.6781 44.4174ZM34.8731 43.6203C34.9657 43.7686 35.2992 44.1764 35.6048 44.5194C35.9197 44.8623 36.4384 45.3443 36.7625 45.5946C37.096 45.8448 37.735 46.2249 38.1981 46.4473C38.6519 46.6698 39.3651 46.9478 39.7726 47.0498C40.3561 47.2166 40.7822 47.2537 41.8565 47.263C42.9865 47.2723 43.3199 47.2352 43.9868 47.0591C44.4128 46.9386 45.0611 46.7069 45.4223 46.54C45.7743 46.3732 46.3393 46.058 46.6727 45.8356C46.9969 45.6131 47.5433 45.1497 47.8767 44.816C48.2009 44.4823 48.6084 44.0096 48.7751 43.7686L49.0808 43.333H34.7064L34.8731 43.6203ZM29.3623 49.6636C26.9357 52.0921 26.2596 52.8244 26.1577 53.1117C26.0744 53.362 26.0558 53.5937 26.1114 53.8069C26.1577 53.9923 26.2874 54.2332 26.3985 54.3445C26.5189 54.465 26.7597 54.5947 26.9357 54.6318C27.158 54.6874 27.3803 54.6689 27.6304 54.5855C27.9267 54.4928 28.6492 53.8161 31.085 51.3784L34.16 48.2918L32.4465 46.5864L29.3623 49.6636ZM56.6199 49.9881C56.1568 50.1827 55.4714 50.5442 55.0917 50.7945C54.712 51.054 54.1007 51.5452 53.7395 51.9067C53.3783 52.259 52.9059 52.8244 52.6836 53.158C52.4613 53.4917 52.1186 54.0942 51.9241 54.502C51.7389 54.9099 51.4981 55.5772 51.3962 55.9851C51.2943 56.3929 51.1925 56.9491 51.1554 57.2086L51.1091 57.6998H59.4448V49.3578C58.9076 49.367 58.4537 49.4319 58.1018 49.5153C57.7406 49.5895 57.0737 49.8027 56.6199 49.9881ZM60.5562 58.0243C65.2519 62.7329 66.6505 64.0954 66.6875 64.0954C66.7246 64.0954 66.9468 63.8359 67.1876 63.5115C67.4192 63.1963 67.7711 62.6124 67.9749 62.2138C68.1694 61.8245 68.4473 61.1386 68.5862 60.6844C68.8085 59.9429 68.8363 59.7483 68.8363 58.256C68.8455 56.8193 68.8177 56.5505 68.6232 55.8924C68.5121 55.4846 68.2805 54.8543 68.1138 54.502C67.9471 54.1406 67.6415 53.603 67.4377 53.2971C67.234 52.9912 66.8172 52.4721 66.5208 52.1477C66.2152 51.8233 65.7428 51.3784 65.4649 51.1652C65.1778 50.9428 64.6406 50.5998 64.2609 50.3866C63.8719 50.1827 63.3162 49.9232 63.0106 49.8212C62.7049 49.71 62.1677 49.5617 61.825 49.4875C61.4824 49.4134 61.0563 49.3578 60.8803 49.3578H60.5562V58.0243ZM51.2851 59.9707C51.3777 60.4249 51.5722 61.1201 51.7204 61.5001C51.8686 61.8801 52.1927 62.529 52.4521 62.9368C52.7021 63.3539 53.2579 64.0305 53.6932 64.4754C54.1285 64.9111 54.6749 65.3931 54.9065 65.5506C55.1287 65.7082 55.6752 66.0141 56.1105 66.2273C56.5365 66.4497 57.2867 66.7185 57.7776 66.8483C58.2592 66.9688 59.028 67.0893 59.4911 67.1264C59.9542 67.1542 60.6858 67.1264 61.1582 67.0708C61.612 67.0059 62.3622 66.8298 62.8253 66.6815C63.2792 66.5239 63.909 66.2644 64.2146 66.0882C64.5202 65.9214 65.0389 65.5877 65.3723 65.3467L65.9743 64.9111L59.8615 58.8121C51.3777 58.8121 51.1091 58.8214 51.1091 58.9697C51.1091 59.0624 51.1832 59.5073 51.2851 59.9707ZM45.1167 52.6946C46.9505 52.6946 47.5711 52.7224 47.6544 52.8058C47.7471 52.8985 47.7748 53.5195 47.7748 55.3548C47.7748 57.774 47.7748 57.7925 47.5618 57.9316C47.3951 58.0428 46.9598 58.0706 42.8661 58.0706L42.403 57.6071L42.3937 55.3548C42.3845 53.399 42.403 53.0746 42.5326 52.8985C42.6808 52.6946 42.7179 52.6946 45.1167 52.6946ZM43.5144 56.9583H46.6634V53.8069H43.5144V56.9583ZM32.5947 53.6215H36.4291C40.1431 53.6215 40.2728 53.6308 40.458 53.8069C40.5599 53.9088 40.6432 54.0664 40.634 54.1498C40.634 54.2425 40.5414 54.4094 40.2265 54.7338H36.4476C32.7985 54.7338 32.6688 54.7245 32.4928 54.5484C32.3909 54.4464 32.2983 54.2889 32.2983 54.1962C32.2891 54.1035 32.3539 53.9366 32.4373 53.8254L32.5947 53.6215ZM40.1801 55.9387L40.4117 56.1705C40.5414 56.3002 40.6432 56.4578 40.6432 56.5227C40.6432 56.5876 40.5877 56.7266 40.5043 56.8471C40.3654 57.051 40.3561 57.051 37.911 57.051C35.8549 57.051 35.4381 57.0325 35.3177 56.912C35.2436 56.8378 35.1788 56.6524 35.1695 56.5041C35.1602 56.3095 35.2158 56.189 35.3733 56.087C35.5585 55.9665 35.966 55.9387 40.1801 55.9387ZM42.8568 59.739H45.1074C46.9598 59.739 47.3951 59.7668 47.5711 59.878C47.7748 60.0171 47.7748 60.0356 47.7841 62.4548C47.7841 64.6237 47.7656 64.9018 47.6267 65.0223C47.497 65.1335 47.0617 65.1706 42.8661 65.2077L42.403 64.7442L42.4122 60.1932L42.8568 59.739ZM43.5144 64.0027H46.6634V60.8513H43.5144V64.0027ZM40.3654 60.7586L40.5043 60.9718C40.5784 61.083 40.6432 61.2313 40.6432 61.2962C40.6432 61.3611 40.5414 61.5186 40.1894 61.8709H36.4291C32.7985 61.8709 32.6688 61.8709 32.4928 61.6855C32.3909 61.5835 32.2983 61.4074 32.2891 61.3055C32.2798 61.1942 32.3539 61.0274 32.4465 60.9347C32.604 60.7679 32.854 60.7586 40.3654 60.7586ZM40.2728 63.0758L40.458 63.3354C40.5691 63.4744 40.6525 63.6412 40.6432 63.7061C40.6432 63.771 40.5599 63.9008 40.458 64.0027C40.282 64.1788 40.1524 64.1881 37.8925 64.1881C35.753 64.1881 35.4844 64.1696 35.3362 64.0305C35.2436 63.9378 35.1695 63.7525 35.1602 63.6134C35.1541 63.4466 35.2251 63.3168 35.3733 63.2241C35.5585 63.1036 35.966 63.0758 40.2728 63.0758Z" fill="black"/>
</g>
<defs>
<clipPath id="clip0_181695_14375">
<rect width="95" height="95" fill="white"/>
</clipPath>
</defs>
</svg>
