<svg width="95" height="95" viewBox="0 0 95 95" fill="none" xmlns="http://www.w3.org/2000/svg">
<g clip-path="url(#clip0_181695_14379)">
<path d="M47.05 93.14C72.4827 93.14 93.1 72.5138 93.1 47.07C93.1 21.6262 72.4827 1 47.05 1C21.6173 1 1 21.6262 1 47.07C1 72.5138 21.6173 93.14 47.05 93.14Z" fill="white"/>
<path d="M47.05 93.64C72.7591 93.64 93.6 72.7897 93.6 47.07C93.6 21.3503 72.7591 0.5 47.05 0.5C21.3409 0.5 0.5 21.3503 0.5 47.07C0.5 72.7897 21.3409 93.64 47.05 93.64Z" stroke="#2E3192" stroke-opacity="0.2" stroke-linejoin="round"/>
<path opacity="0.6" d="M47.0915 88.18C69.7848 88.18 88.1815 69.7834 88.1815 47.09C88.1815 24.3966 69.7848 6 47.0915 6C24.3981 6 6.00146 24.3966 6.00146 47.09C6.00146 69.7834 24.3981 88.18 47.0915 88.18Z" fill="#C8DCFE"/>
<path fill-rule="evenodd" clip-rule="evenodd" d="M58.7219 27.001C59.1531 26.9916 59.3969 27.0479 59.6875 27.1979C59.9031 27.3197 60.2312 27.5822 60.4187 27.7979C60.6062 28.0041 60.8125 28.3416 60.8688 28.5479C60.9344 28.7447 60.9906 29.0635 60.9906 29.2416C60.9906 29.4197 60.9344 29.7385 60.8781 29.9447C60.8031 30.1697 60.5781 30.5072 60.2875 30.7885C60.0062 31.0791 59.6687 31.3041 59.4437 31.3791C59.2375 31.4354 58.9187 31.4916 58.7406 31.4916C58.5625 31.4916 58.2437 31.4354 58.0375 31.3791C57.8031 31.3041 57.475 31.0791 57.1656 30.7697C56.9031 30.4979 56.6781 30.0197 56.6781 29.9447C56.6781 29.8229 56.275 29.8041 50.4906 29.8041V28.6791H53.5844C56.275 28.6791 56.6781 28.6604 56.6781 28.5385C56.6781 28.4635 56.8563 28.0229 57.0719 27.7885C57.2969 27.5635 57.625 27.2916 57.8031 27.1885C58.0281 27.0666 58.3188 27.001 58.7125 27.001H58.7219ZM48.5312 27.7416L49 28.2104V48.7416H69.5312L70 49.2104V52.8947C70 55.5385 69.9625 56.6729 69.8781 56.9354C69.8219 57.1416 69.5969 57.4979 69.3812 57.7322C69.1312 58.0197 68.85 58.2197 68.5375 58.3322C68.1156 58.4822 67.4781 58.4916 52 58.4916V64.4916H53.2656C54.4938 64.4916 54.5406 64.501 54.7656 64.726C55 64.9604 55 64.9697 55 66.7416C55 68.5041 55 68.5229 54.5406 68.9916H40.4688L40.2344 68.7572C40 68.5229 40 68.5135 40 66.7416C40 64.9791 40 64.9604 40.2344 64.726C40.45 64.501 40.4969 64.4916 43 64.4916V58.4916H34.9562C28.8531 58.4916 26.8375 58.4635 26.5563 58.3697C26.35 58.3135 26.0125 58.1072 25.8063 57.9197C25.5906 57.7416 25.3281 57.3854 25 56.7104V43.1822C25 32.9447 25.0281 29.5697 25.1125 29.2885C25.1875 29.0635 25.4125 28.726 25.7031 28.4447C25.9563 28.1822 26.3219 27.9197 26.5 27.8635C26.7344 27.7885 30.0531 27.7604 48.5312 27.7416ZM67.7031 27.751C67.9094 27.751 68.2469 27.7979 68.4437 27.8635C68.65 27.9197 68.9875 28.126 69.1937 28.3135C69.4094 28.4916 69.6719 28.8479 69.7844 29.0822C69.925 29.3729 70 29.6916 70 30.0385C70 30.3947 69.9344 30.676 69.7844 30.9385C69.6719 31.1541 69.4094 31.4822 69.1937 31.6697C68.9875 31.8572 68.65 32.0635 68.4437 32.1197C68.2469 32.1854 67.9094 32.2416 67.7031 32.2416C67.4969 32.2416 67.1125 32.1385 66.8594 32.026C66.5969 31.9041 66.2313 31.6229 66.0344 31.3885C65.8469 31.1635 65.6875 30.5563 65.6875 30.5C65.6875 30.4156 65.1625 30.4906 64 30.5L60.4476 34.8914C60.4476 34.8914 63.366 35.0057 63.366 34.8914C63.366 34.7772 63.6625 33.9854 63.925 33.7135C64.2344 33.4041 64.5625 33.1791 64.7969 33.1041C65.0031 33.0479 65.3219 32.9916 65.5 32.9916C65.6781 32.9916 65.9969 33.0479 66.2031 33.1041C66.4281 33.1791 66.7656 33.4041 67.0469 33.6947C67.3375 33.976 67.5625 34.3135 67.6375 34.5385C67.6937 34.7447 67.75 35.0635 67.75 35.2416C67.75 35.4197 67.6937 35.7385 67.6375 35.9447C67.5625 36.1697 67.3375 36.5072 67.0469 36.7885C66.7656 37.0791 66.4281 37.3041 66.2031 37.3791C65.9969 37.4354 65.6781 37.4916 65.5 37.4916C65.3219 37.4916 65.0031 37.4354 64.7969 37.3791C64.5625 37.3041 64.2344 37.0791 63.925 36.7697C63.6625 36.4979 63.4375 36.2072 63.4375 36.1322C63.4375 36.0104 63.4656 36 59.5 36L56.1719 32.8041H50.5V31.6791L53.875 31.6885H56.8281L59.4531 34.501L63.366 29.7091C63.6098 29.456 63.7375 29.4291 64.6937 29.4291C65.5187 29.4291 65.6875 29.401 65.6875 29.2885C65.6875 29.2135 65.9125 28.7354 66.175 28.4635C66.4469 28.1916 66.8219 27.9197 67 27.8635C67.1781 27.8072 67.4969 27.7604 67.7031 27.751ZM26.3594 29.1094C26.1438 29.325 26.1344 29.7572 26.125 30.976V32.6166H47.9688V28.8281H26.8281L26.3594 29.1094ZM26.2188 56.5229L26.9688 57.3666L47.5047 57.5541L68.0406 57.3666L68.875 56.5229V49.8666H48.4375L47.9688 49.3979V33.7416H26.125L26.2188 56.5229ZM44.125 64.4916H50.875V58.4916H48.0625C48.0625 60.976 48.0531 61.0322 47.8375 61.2572C47.6875 61.4072 47.6875 61.4916 47.5094 61.4916C47.3219 61.4916 47.3219 61.4072 47.1719 61.2572C46.9469 61.0322 46.9375 60.9854 46.9375 59.7572V58.4916H44.125V64.4916ZM41.125 67.8666H53.875V65.6166H41.125V67.8666ZM57.8219 29.2416C57.8125 29.4291 57.8969 29.7947 58.0469 29.9447C58.1969 30.0947 58.5719 30.1791 58.7594 30.1791C58.9375 30.1791 59.3125 30.0947 59.4625 29.9447C59.6031 29.8041 59.6875 29.4197 59.6875 29.2416C59.6875 29.0729 59.6031 28.6885 59.4531 28.5385C59.3031 28.3979 58.9281 28.3041 58.75 28.3041C58.5719 28.3041 58.1875 28.3979 58.0469 28.5385C57.9156 28.6791 57.8219 29.0729 57.8219 29.2416ZM66.8219 29.9916C66.8125 30.1791 66.8969 30.5447 67.0469 30.6947C67.1969 30.8447 67.5719 30.9291 67.7594 30.9291C67.9375 30.9291 68.3125 30.8447 68.4625 30.6947C68.6031 30.5541 68.6875 30.1697 68.6875 29.9916C68.6875 29.8229 68.6031 29.5322 68.4531 29.3822C68.3031 29.2416 67.9281 29.0541 67.75 29.0541C67.5719 29.0541 67.2812 29.1479 67.1406 29.2885C67.0094 29.4291 66.8219 29.8229 66.8219 29.9916ZM64.5719 35.2416C64.5625 35.4291 64.6469 35.701 64.7969 35.851C64.9469 36.001 65.3219 36.1791 65.5094 36.1791C65.6875 36.1791 66.0625 36.001 66.2125 35.851C66.3531 35.7104 66.4375 35.4197 66.4375 35.2416C66.4375 35.0729 66.3531 34.6885 66.2031 34.5385C66.0531 34.3979 65.6781 34.3041 65.5 34.3041C65.3219 34.3041 64.9375 34.3979 64.7969 34.5385C64.6656 34.6791 64.5719 35.0729 64.5719 35.2416ZM50.5 35.4291L56.8281 35.4385L58.375 37.0312L58.8438 36.8447C59.0219 36.7885 59.3219 36.7416 59.5 36.7416C59.6781 36.751 59.9969 36.7979 60.2031 36.8635C60.4375 36.9291 60.7656 37.1541 61.0469 37.4447C61.3375 37.7354 61.5625 38.0635 61.6375 38.2885C61.6937 38.4947 61.75 38.8135 61.75 38.9916C61.75 39.1791 61.6937 39.4885 61.6375 39.6947C61.5625 39.9291 61.3375 40.2572 61.0469 40.5479C60.7656 40.8385 60.4375 41.0635 60.2031 41.1291C59.9969 41.1947 59.6781 41.2416 59.5 41.2416C59.3219 41.2416 59.0031 41.1947 58.7969 41.1291C58.5719 41.0635 58.2437 40.8385 57.9531 40.5479C57.6625 40.2572 57.4375 39.9291 57.3625 39.6947C57.3063 39.4885 57.25 39.1791 57.25 38.9916C57.25 38.8135 57.4281 38.3822 57.4844 38.1947C57.5875 37.876 57.4562 37.8197 56.1719 36.5541H50.5V35.4291ZM58.5156 38.8125C58.5062 39 58.5531 39.5447 58.7031 39.6947C58.8531 39.8447 59.3219 40.1166 59.5094 40.1166C59.6875 40.1166 60.1563 39.9385 60.3063 39.7885C60.4469 39.6479 60.5312 39.1697 60.5312 38.9916C60.5312 38.6719 60.2594 38.3447 60.1094 38.1947C59.9594 38.0541 59.6781 38.0541 59.5 38.0541C59.3219 38.0541 59.0312 38.0541 58.8906 38.1947C58.6094 38.2885 58.5156 38.6438 58.5156 38.8125ZM65.4531 39.001C65.6594 38.9916 66.0156 39.0572 66.25 39.1416C66.4844 39.2166 66.85 39.4604 67.075 39.676C67.3 39.9104 67.5344 40.2479 67.6094 40.4916C67.6937 40.726 67.75 41.0635 67.75 41.2416C67.75 41.4291 67.6937 41.7385 67.6375 41.9447C67.5625 42.1791 67.3375 42.5072 67.0469 42.7979C66.7656 43.0885 66.4375 43.3135 66.2031 43.3791C65.9969 43.4447 65.6687 43.4916 65.4812 43.4916C65.2844 43.4916 65.0219 43.4541 64.8906 43.3979C64.6656 43.3135 64.6 43.3791 63.5219 44.7385C62.8937 45.526 62.2938 46.2479 62.1813 46.3322C61.9938 46.4916 61.6281 46.501 50.5 46.4916V45.3666L61.4219 45.3572L63.7188 42.6094L63.3812 41.9447C63.3062 41.7385 63.25 41.4291 63.25 41.2416C63.25 41.0635 63.3156 40.726 63.3906 40.4916C63.475 40.2479 63.7 39.9104 63.925 39.676C64.15 39.4604 64.4969 39.226 64.7031 39.151C64.9094 39.0666 65.2469 39.001 65.4531 39.001ZM64.5719 41.2416C64.5625 41.4291 64.6469 41.7947 64.7969 41.9447C64.9469 42.0947 65.3219 42.1791 65.5094 42.1791C65.6875 42.1791 66.0625 42.0947 66.2125 41.9447C66.3531 41.8041 66.4375 41.4197 66.4375 41.2416C66.4375 41.0729 66.3531 40.6885 66.2031 40.5385C66.0531 40.3979 65.6781 40.2104 65.5 40.2104C65.3219 40.2104 64.9375 40.3979 64.7969 40.5385C64.6656 40.6791 64.5719 41.0729 64.5719 41.2416ZM55.7031 39.7604C55.9094 39.751 56.2469 39.7979 56.4531 39.8635C56.6875 39.9291 57.0156 40.1541 57.2969 40.4447C57.5875 40.7354 57.8125 41.0635 57.8875 41.2885C57.9437 41.4947 58 41.8135 58 41.9916C58 42.1791 57.9437 42.4885 57.8875 42.6947C57.8125 42.9291 57.5875 43.2572 57.2969 43.5479C57.0156 43.8385 56.6875 44.0635 56.4531 44.1291C56.2469 44.1947 55.9281 44.2416 55.75 44.2416C55.5719 44.2416 55.2531 44.1947 55.0469 44.1291C54.8125 44.0635 54.4844 43.8291 54.1844 43.5197C53.9125 43.2479 53.6875 42.7791 53.6875 42.6947C53.6875 42.5822 53.4531 42.5541 50.5 42.5541V41.4291H52.0938C53.4531 41.4291 53.6875 41.4104 53.6875 41.2885C53.6875 41.2135 53.9125 40.7447 54.1844 40.4729C54.4469 40.1916 54.8219 39.9291 55 39.8729C55.1781 39.8072 55.4969 39.7604 55.7031 39.7604ZM54.8219 41.9916C54.8125 42.1791 54.8969 42.5447 55.0469 42.6947C55.1969 42.8447 55.5719 42.9291 55.7594 42.9291C55.9375 42.9291 56.3125 42.8447 56.4625 42.6947C56.6031 42.5541 56.6875 42.1697 56.6875 41.9916C56.6875 41.8229 56.6031 41.4385 56.4531 41.2885C56.3031 41.1479 55.9281 41.0541 55.75 41.0541C55.5719 41.0541 55.1875 41.1479 55.0469 41.2885C54.9156 41.4291 54.8219 41.8229 54.8219 41.9916ZM28 29.9916C28.1781 29.9916 28.3656 30.0854 28.5156 30.226C28.6656 30.376 28.75 30.5729 28.75 30.7416C28.75 30.9197 28.6656 31.1166 28.525 31.2572C28.375 31.4072 28.1875 31.4916 28.0094 31.4916C27.8219 31.4916 27.6344 31.4072 27.4844 31.2572C27.3344 31.1072 27.25 30.9291 27.2594 30.7416C27.2594 30.5729 27.3531 30.3666 27.4844 30.226C27.625 30.0854 27.8219 29.9916 28 29.9916ZM30.25 29.9916C30.4281 29.9916 30.6156 30.0854 30.7656 30.226C30.9156 30.376 31 30.5729 31 30.7416C31 30.9197 30.9156 31.1166 30.775 31.2572C30.625 31.4072 30.4375 31.4916 30.2594 31.4916C30.0719 31.4916 29.8844 31.4072 29.7344 31.2572C29.5844 31.1072 29.5 30.9291 29.5094 30.7416C29.5094 30.5729 29.6031 30.3666 29.7344 30.226C29.875 30.0854 30.0719 29.9916 30.25 29.9916ZM32.5 29.9916C32.6781 29.9916 32.8656 30.0854 33.0156 30.226C33.1656 30.376 33.25 30.5729 33.25 30.7416C33.25 30.9197 33.1656 31.1166 33.025 31.2572C32.875 31.4072 32.6875 31.4916 32.5094 31.4916C32.3219 31.4916 32.1344 31.4072 31.9844 31.2572C31.8344 31.1072 31.75 30.9291 31.7594 30.7416C31.7594 30.5729 31.8531 30.3666 31.9844 30.226C32.125 30.0854 32.3219 29.9916 32.5 29.9916ZM43.75 35.2416C45.5219 35.2416 45.5312 35.251 46 35.7104V52.1166H49V53.2416H28V52.1166H29.5V50.476C29.5 49.2666 29.5094 49.2104 29.7344 48.976C29.95 48.751 29.9969 48.7416 32.5 48.7416V47.476C32.5 46.2666 32.5094 46.2104 32.7344 45.976C32.95 45.751 32.9969 45.7416 35.5 45.7416V44.101C35.5 42.4885 35.5 42.4604 35.7344 42.226C35.95 42.001 35.9969 41.9916 38.5 41.9916V40.726C38.5 39.5166 38.5094 39.4604 38.7344 39.226C38.95 39.001 38.9969 38.9916 41.5 38.9916L41.5094 37.351C41.5094 35.7385 41.5188 35.701 41.7344 35.476C41.9594 35.251 41.9781 35.2416 43.75 35.2416ZM42.625 52.1166H44.875V36.3666H42.625V52.1166ZM39.625 52.1166H41.5V40.1166H39.625V52.1166ZM36.625 52.1166H38.5V43.1166H36.625V52.1166ZM33.625 52.1166H35.5V46.8666H33.625V52.1166ZM30.625 52.1166H32.5V49.8666H30.625V52.1166ZM50.5 52.1166H52V53.2416H50.5V52.1166Z" fill="black"/>
</g>
<defs>
<clipPath id="clip0_181695_14379">
<rect width="95" height="95" fill="white"/>
</clipPath>
</defs>
</svg>
