<svg width="72" height="72" viewBox="0 0 72 72" fill="none" xmlns="http://www.w3.org/2000/svg">
<g opacity="0.501961">
<path d="M16.3301 8.5136C16.6607 8.639 16.9211 8.7182 17.1647 8.8328C18.6275 9.524 20.0801 10.238 21.5543 10.9046C21.8345 11.0214 22.1477 11.0319 22.4351 10.934C24.2351 10.22 26.0351 9.494 27.7979 8.6984C28.1825 8.5256 28.5689 8.1158 28.7261 7.724C29.3261 6.224 29.8529 4.6904 30.3719 3.1586C30.5399 2.6684 30.8153 2.4656 31.3199 2.4668C34.4903 2.4752 37.6603 2.4752 40.8299 2.4668C41.3375 2.4668 41.6099 2.6714 41.7743 3.161C42.2837 4.6724 42.7979 6.185 43.3943 7.661C43.5611 8.0726 43.9565 8.5082 44.3543 8.69C46.1177 9.4886 47.9165 10.2128 49.7171 10.9256C49.9697 11.0258 50.3459 11 50.5979 10.886C52.0721 10.2188 53.5379 9.5282 54.9827 8.8028C55.6577 8.4638 56.1683 8.5568 56.6945 9.0902C58.7441 11.168 60.8183 13.2218 62.8799 15.2882C63.5297 15.9392 63.5663 16.1882 63.1607 17.0456C62.4767 18.4856 61.7711 19.9184 61.1207 21.374C61.0007 21.6428 60.9797 22.0436 61.0871 22.3148C61.7891 24.0956 62.5073 25.8722 63.2975 27.6146C63.4775 28.016 63.9065 28.4174 64.3175 28.5836C65.8175 29.1908 67.3493 29.7128 68.8775 30.2354C69.3419 30.3938 69.5375 30.6632 69.5375 31.1354C69.5323 34.3278 69.5323 37.5204 69.5375 40.7132C69.5375 41.1932 69.3365 41.4488 68.8733 41.6066C67.3415 42.1262 65.8097 42.6524 64.3085 43.2536C63.9137 43.4114 63.4913 43.7852 63.3191 44.1668C62.5145 45.953 61.7813 47.7722 61.0565 49.5926C60.9629 49.8272 60.9851 50.1776 61.0913 50.411C61.7717 51.9044 62.4713 53.3894 63.2039 54.8576C63.5279 55.5062 63.4439 56.0066 62.9327 56.513C60.8259 58.5982 58.7293 60.695 56.6429 62.8034C56.1569 63.2936 55.6661 63.374 55.0439 63.0656C53.5735 62.338 52.0913 61.6342 50.5973 60.9542C50.3459 60.8402 49.9703 60.8198 49.7171 60.92C47.8949 61.64 46.0769 62.3762 44.2889 63.176C43.9241 63.3392 43.5689 63.7442 43.4165 64.1216C42.8285 65.603 42.3071 67.1126 41.7965 68.6216C41.6165 69.1556 41.3327 69.3926 40.7597 69.3896C37.6353 69.3748 34.5109 69.3748 31.3865 69.3896C30.8135 69.3896 30.5309 69.1586 30.3521 68.6222C29.8547 67.1312 29.3471 65.6402 28.7585 64.1822C28.5917 63.77 28.1975 63.3332 27.7985 63.152C26.0399 62.357 24.2399 61.6322 22.4399 60.9188C22.1873 60.8186 21.8117 60.842 21.5597 60.956C20.0857 61.6228 18.6241 62.317 17.1749 63.0386C16.5035 63.3758 15.9941 63.2942 15.4643 62.7572C13.3999 60.6612 11.3199 58.5812 9.22432 56.5172C8.71012 56.009 8.62912 55.5098 8.95192 54.8624C9.67192 53.4144 10.3655 51.9526 11.0327 50.477C11.1527 50.2076 11.1761 49.8068 11.0693 49.5356C10.3679 47.7548 9.60352 45.9956 8.89252 44.2214C8.67772 43.6856 8.33212 43.3814 7.79752 43.196C6.30952 42.689 4.83712 42.1352 3.34612 41.636C2.83432 41.465 2.61052 41.1884 2.61232 40.6472C2.62512 37.5008 2.62512 34.354 2.61232 31.2068C2.61232 30.6668 2.82652 30.3884 3.34012 30.2168C4.82992 29.72 6.29992 29.1608 7.79092 28.6604C8.36032 28.4684 8.68732 28.1204 8.90752 27.5672C9.59992 25.8308 10.3487 24.1208 11.0315 22.3808C11.1465 22.055 11.1405 21.6988 11.0147 21.377C10.3547 19.8992 9.65631 18.437 8.93572 16.9898C8.61232 16.3412 8.70292 15.8444 9.21652 15.3374C11.3261 13.2542 13.4105 11.1458 15.5165 9.0602C15.7481 8.8304 16.0643 8.6888 16.3301 8.5136ZM55.4927 61.5272C55.6253 61.4186 55.7891 61.3058 55.9271 61.1672C57.7361 59.363 59.5349 57.5492 61.3541 55.7558C61.6541 55.4612 61.6661 55.2302 61.4867 54.8678C60.8201 53.519 60.1997 52.1474 59.5361 50.7974C59.2847 50.2856 59.2781 49.8188 59.5007 49.2938C60.4079 47.153 61.2701 44.993 62.2007 42.8618C62.3417 42.539 62.7035 42.221 63.0377 42.0902C64.4369 41.5418 65.8619 41.057 67.2839 40.5662C67.8311 40.3778 68.0639 40.0526 68.0597 39.4508C68.0327 37.1246 68.0285 34.7978 68.0597 32.4716C68.0693 31.8116 67.8251 31.466 67.2197 31.2602C65.7959 30.7802 64.3733 30.2852 62.9735 29.738C62.6325 29.5912 62.3557 29.3267 62.1935 28.9928C61.2689 26.8598 60.4067 24.6998 59.4935 22.5602C59.2577 22.0064 59.2877 21.5234 59.5487 20.9942C60.2039 19.6652 60.8087 18.311 61.4735 16.9868C61.6751 16.5842 61.6073 16.3484 61.3019 16.0472C59.4987 14.2696 57.7087 12.4792 55.9319 10.676C55.6193 10.358 55.3751 10.3406 54.9869 10.5344C53.6405 11.2058 52.2905 11.876 50.9039 12.4544C50.4935 12.626 49.9007 12.6434 49.4879 12.4832C47.3009 11.6408 45.1361 10.7276 42.9833 9.7928C42.6779 9.6602 42.3743 9.3194 42.2519 9.0044C41.6981 7.5824 41.2025 6.137 40.7015 4.6946C40.5215 4.1744 40.2089 3.9446 39.6359 3.9506C37.2869 3.9734 34.9367 3.9776 32.5877 3.9506C31.9583 3.9428 31.6277 4.181 31.4267 4.7606C30.9407 6.1838 30.4487 7.6064 29.8961 9.0044C29.7647 9.3374 29.4365 9.6914 29.1107 9.8336C26.9999 10.7498 24.8603 11.6012 22.7399 12.5024C22.1651 12.7466 21.6635 12.7172 21.1097 12.4424C19.7831 11.7824 18.4277 11.1824 17.1017 10.5224C16.7219 10.3328 16.5017 10.3982 16.2173 10.6838C14.4381 12.4838 12.6469 14.2732 10.8437 16.052C10.5017 16.3874 10.4837 16.64 10.6925 17.0534C11.3573 18.377 11.9621 19.7312 12.6161 21.0608C12.8681 21.5726 12.8723 22.0406 12.6503 22.565C11.7443 24.7058 10.8809 26.8658 9.95031 28.9964C9.80992 29.3192 9.44752 29.6366 9.11332 29.7686C7.71472 30.3194 6.29332 30.812 4.86952 31.298C4.31332 31.4882 4.08952 31.8104 4.09372 32.4092C4.11892 34.7584 4.11892 37.1074 4.09372 39.4562C4.08712 40.0562 4.31692 40.3754 4.87372 40.5656C6.31792 41.0606 7.76032 41.5634 9.18112 42.1214C9.52203 42.2683 9.79883 42.5327 9.96112 42.8666C10.8857 44.9996 11.7485 47.1596 12.6575 49.2992C12.8927 49.8524 12.8615 50.3372 12.5975 50.8664C11.9429 52.1954 11.3327 53.5466 10.6775 54.875C10.5005 55.235 10.4975 55.466 10.7975 55.7648C12.6343 57.5732 14.4575 59.395 16.2671 61.2302C16.5431 61.5098 16.7663 61.5218 17.1023 61.3574C18.4529 60.6974 19.8251 60.0764 21.1709 59.4044C21.7109 59.1356 22.1909 59.1338 22.7375 59.3642C24.8575 60.2598 26.9849 61.1398 29.1197 62.0042C29.5655 62.1842 29.7971 62.4638 29.9471 62.9114C30.4271 64.337 30.9539 65.7464 31.4471 67.1672C31.6271 67.6886 31.9415 67.9148 32.5145 67.9094C34.8635 67.8866 37.2137 67.8824 39.5627 67.9094C40.1921 67.9172 40.5227 67.6796 40.7219 67.0988C41.2139 65.654 41.7179 64.2116 42.2705 62.7884C42.4111 62.4686 42.6623 62.2103 42.9779 62.0606C45.0899 61.1462 47.2295 60.2936 49.3427 59.3822C49.9673 59.1128 50.5055 59.1422 51.1013 59.4386C52.3859 60.0794 53.6921 60.6782 54.9893 61.2944L55.4927 61.5272Z" fill="#E3E3E3"/>
<path d="M57.3047 35.9526C57.2801 47.7528 47.8493 57.1674 36.0647 57.1548C24.2447 57.1416 14.7923 47.658 14.8469 35.8638C14.9033 24.0426 24.3431 14.6502 36.1199 14.6994C47.9441 14.748 57.3293 24.1632 57.3047 35.9526ZM55.8083 35.9526C55.8299 25.2018 46.9127 16.245 36.1385 16.1946C25.3643 16.1442 16.3667 25.11 16.3451 35.8974C16.3229 46.671 25.3037 55.6626 36.0815 55.6578C46.8395 55.653 55.7867 46.716 55.8083 35.9538V35.9526Z" fill="#E3E3E3"/>
<path d="M36.0794 45.8856H25.343C24.206 45.8856 24.0698 45.7542 24.0698 44.6496C24.0698 39.4988 24.0698 34.3478 24.0698 29.1966C24.0698 28.1616 24.2096 28.0248 25.2608 28.0236C27.2666 28.0206 29.2724 28.0236 31.2788 28.0236C32.1368 28.0236 32.2526 27.9036 32.2556 27.0228C32.2556 26.271 32.2556 25.5186 32.2592 24.7668C32.2592 24.2088 32.5364 23.9238 33.0992 23.9238H39.0488C39.6086 23.9238 39.8888 24.2016 39.8936 24.7638C39.8936 25.0602 39.8936 25.356 39.8978 25.6524C39.9236 28.389 39.5456 28.005 42.305 28.0254C43.8554 28.0368 45.4052 28.0254 46.9556 28.0284C47.921 28.0314 48.0836 28.1856 48.0842 29.1276C48.0874 34.3472 48.0874 39.5672 48.0842 44.7876C48.0842 45.7176 47.9042 45.8904 46.9526 45.8916C43.3282 45.8896 39.7038 45.8876 36.0794 45.8856ZM36.0794 44.379C39.293 44.379 42.506 44.373 45.719 44.3838C46.3124 44.3838 46.5944 44.169 46.5908 43.5438C46.5758 40.9464 46.5908 38.3484 46.5818 35.751C46.5818 35.106 46.3526 34.9446 45.7418 35.1114C42.7976 35.9118 39.8582 36.7314 36.9038 37.4952C36.3602 37.6293 35.7921 37.6293 35.2484 37.4952C32.339 36.7428 29.4446 35.9304 26.5454 35.1384C25.7534 34.9218 25.5734 35.0574 25.5728 35.8932C25.5704 38.3536 25.5704 40.8136 25.5728 43.2732C25.5728 44.2932 25.6538 44.3772 26.6474 44.3772L36.0794 44.379ZM36.1202 29.52C32.929 29.52 29.738 29.52 26.5472 29.52C25.697 29.52 25.571 29.6526 25.5686 30.5196C25.5686 31.158 25.5986 31.7976 25.5602 32.4336C25.5218 33.0696 25.8002 33.3666 26.4062 33.5286C29.4662 34.3446 32.5142 35.1972 35.57 36.0246C35.822 36.093 36.119 36.1398 36.362 36.075C39.554 35.223 42.7382 34.3494 45.9242 33.48C46.3742 33.36 46.6046 33.0846 46.589 32.5914C46.5674 31.8858 46.586 31.179 46.583 30.4722C46.583 29.6604 46.4426 29.5212 45.623 29.5206C42.4566 29.5202 39.289 29.52 36.1202 29.52ZM36.0968 25.4214H34.4576C34.0244 25.4214 33.6992 25.626 33.77 26.0628C33.8762 26.7192 33.3218 27.5544 34.247 28.0056C34.3034 28.0332 34.3814 28.0212 34.4498 28.0218C35.5436 28.0218 36.6368 28.0272 37.7306 28.0218C38.2148 28.0182 38.4788 27.726 38.3864 27.2754C38.2586 26.6526 38.8532 25.8114 37.8728 25.4364C37.7528 25.3908 37.6016 25.4238 37.4654 25.4238C37.0086 25.421 36.5528 25.4202 36.098 25.4214H36.0968Z" fill="#E3E3E3"/>
</g>
</svg>
