<svg width="60" height="61" viewBox="0 0 60 61" fill="none" xmlns="http://www.w3.org/2000/svg">
<g opacity="0.45098">
<path d="M1.76053 47.5433V46.7593C1.76053 38.3548 1.74653 29.9498 1.77303 21.5453C1.77803 19.9333 2.51553 18.6813 4.03503 17.9918C5.65936 17.2548 7.28953 16.5304 8.92553 15.8188C9.52153 15.5603 9.89953 15.2023 9.78353 14.4988C9.77401 14.4216 9.77401 14.3435 9.78353 14.2663C9.86053 13.3028 9.73753 12.4598 9.01003 11.6738C8.27403 10.8788 8.00553 9.79778 8.01253 8.69978C8.02053 7.48428 7.88953 6.26128 8.32553 5.07028C8.85803 3.61578 9.85553 2.68628 11.2955 2.17028C14.49 1.02828 17.9895 3.26578 17.957 6.98478C17.9485 7.94978 17.9195 8.92278 17.7915 9.87778C17.6645 10.8233 17.1235 11.5958 16.509 12.3178C16.341 12.5153 16.2395 12.8178 16.218 13.0813C16.174 13.6213 16.2365 14.1698 16.1955 14.7103C16.156 15.2268 16.414 15.5153 16.83 15.7018C18.28 16.3518 19.7325 16.9953 21.1925 17.6218C21.3667 17.6832 21.5574 17.6787 21.7285 17.6093C23.171 16.9893 24.606 16.3528 26.041 15.7148C26.5045 15.5088 26.799 15.1888 26.718 14.6323C26.7015 14.4971 26.7015 14.3604 26.718 14.2253C26.811 13.2753 26.651 12.4633 25.945 11.6923C25.217 10.8978 24.93 9.82928 24.945 8.72328C24.9625 7.46928 24.829 6.21428 25.2765 4.98228C26.1115 2.67828 28.46 1.60278 30.686 1.90278C32.986 2.20828 34.7815 4.23478 34.89 6.58378C34.9364 7.62874 34.8971 8.67574 34.7725 9.71428C34.656 10.6958 34.1365 11.5248 33.485 12.2768C33.285 12.5108 33.1705 12.8718 33.135 13.1888C33.077 13.6668 33.153 14.1603 33.112 14.6418C33.062 15.2008 33.338 15.5168 33.8 15.7228C35.2 16.3473 36.5935 16.9788 38.005 17.5728C38.2655 17.6678 38.5516 17.6655 38.8105 17.5663C40.1855 16.9873 41.541 16.3623 42.9105 15.7663C43.4445 15.5328 43.773 15.1938 43.676 14.5663C43.665 14.4696 43.665 14.372 43.676 14.2753C43.7485 13.3128 43.637 12.4708 42.893 11.6873C42.149 10.9038 41.893 9.81678 41.9035 8.71378C41.9095 7.86028 41.88 7.00178 41.9585 6.15428C42.1375 4.21978 43.4795 2.69328 45.3265 2.11628C48.4475 1.14078 51.869 3.31078 51.853 7.04178C51.8529 7.98797 51.7927 8.9332 51.673 9.87178C51.5475 10.8218 51.003 11.5863 50.395 12.3093C50.2338 12.5128 50.1362 12.7595 50.1145 13.0183C50.073 13.5583 50.134 14.1068 50.092 14.6468C50.0475 15.2223 50.2965 15.5438 50.8025 15.7633C52.3145 16.4183 53.795 17.1538 55.3305 17.7463C56.876 18.3433 57.709 19.4678 58.111 20.9963C58.145 21.1248 58.1305 21.2663 58.1305 21.4023C58.1305 29.9426 58.1305 38.4833 58.1305 47.0243V47.5468C57.215 47.5468 56.3485 47.5468 55.4805 47.5468C54.7595 47.5468 54.5485 47.7573 54.5455 48.4713C54.5455 48.7373 54.5455 49.0038 54.5455 49.2998H53.519V30.4423H54.5455V31.0833C54.5455 35.8776 54.5455 40.6721 54.5455 45.4668C54.5455 46.3043 54.716 46.4743 55.567 46.4743C55.8 46.4743 56.033 46.4783 56.267 46.4743C56.8115 46.4628 57.0635 46.2078 57.067 45.6488C57.0725 45.0083 57.067 44.3678 57.067 43.7273C57.067 36.5273 57.0515 29.3248 57.079 22.1233C57.0855 20.4893 56.298 19.4438 54.906 18.7943C53.1325 17.9668 51.338 17.1838 49.539 16.4128C49.1325 16.2383 49.0115 16.0168 49.024 15.5873C49.057 14.4818 49.0175 13.3743 49.048 12.2688C49.0545 12.0333 49.174 11.7328 49.348 11.5808C50.3935 10.6568 50.9065 9.53078 50.804 8.13078C50.7665 7.60928 50.829 7.08078 50.7725 6.56028C50.5615 4.60628 48.5725 2.85128 46.7025 2.93828C44.738 3.02928 42.9575 4.94478 42.94 6.98828C42.9365 7.37628 42.9575 7.76528 42.9365 8.15278C42.862 9.52778 43.3475 10.6653 44.393 11.5488C44.678 11.7893 44.7615 12.0438 44.755 12.3988C44.735 13.5053 44.7325 14.6118 44.755 15.7178C44.762 16.0653 44.6375 16.2318 44.327 16.3648C43.134 16.8758 41.948 17.4033 40.769 17.9473C40.4635 18.0883 40.1975 18.3128 39.8795 18.5208C40.601 19.3528 41.063 20.2208 41.1235 21.3028H40.1075C39.774 19.9633 38.868 19.1688 37.6425 18.6438C35.932 17.9118 34.2425 17.1278 32.5325 16.3973C32.1455 16.2318 32.0325 16.0173 32.041 15.6158C32.067 14.5098 32.033 13.4028 32.064 12.2973C32.0705 12.0648 32.193 11.7698 32.364 11.6183C33.421 10.6798 33.954 9.54178 33.8525 8.11528C33.8115 7.53528 33.8705 6.94428 33.789 6.37178C33.519 4.48078 31.439 2.79578 29.611 2.94878C27.711 3.10728 26.0165 4.98978 26.004 6.94878C26.004 7.29878 26.03 7.64878 25.999 7.99878C25.865 9.51328 26.417 10.7233 27.5645 11.6988C27.6985 11.8123 27.783 12.0563 27.786 12.2413C27.804 13.3668 27.771 14.4913 27.8015 15.6183C27.8125 16.0323 27.6745 16.2388 27.3015 16.3998C25.5925 17.1368 23.896 17.8998 22.192 18.6498C20.814 19.2553 20.1955 19.9113 19.716 21.3098H18.8095C18.7095 20.5248 18.9985 19.8098 19.9545 18.5218C19.6725 18.3288 19.4125 18.0948 19.1095 17.9548C17.9315 17.4078 16.7454 16.8798 15.551 16.3708C15.241 16.2383 15.1185 16.0708 15.125 15.7208C15.1465 14.5763 15.1135 13.4303 15.1425 12.2858C15.1485 12.0528 15.2725 11.7588 15.4425 11.6043C16.4745 10.6728 17.0055 9.55428 16.899 8.14578C16.8715 7.77928 16.899 7.40878 16.894 7.03978C16.8755 5.26628 15.5555 3.53978 13.8505 3.06128C11.754 2.47078 9.23553 4.26828 9.06953 6.56128C8.98653 7.70678 8.80453 8.91128 9.35253 9.99528C9.65253 10.5863 10.1525 11.0728 10.546 11.6198C10.6685 11.7913 10.8035 12.0043 10.8085 12.2018C10.841 13.3653 10.8265 14.5298 10.8505 15.6938C10.857 16.0263 10.766 16.2078 10.4395 16.3488C8.64253 17.1248 6.8532 17.9184 5.07153 18.7298C3.61453 19.3958 2.78103 20.4298 2.79053 22.1588C2.83253 29.9033 2.80903 37.6483 2.80853 45.3933C2.80853 46.3433 2.93353 46.4733 3.86453 46.4733C4.03953 46.4733 4.21453 46.4733 4.38903 46.4733C5.08903 46.4698 5.28903 46.2773 5.28903 45.5858C5.29203 41.5678 5.29336 37.5498 5.29303 33.5318V30.4318H6.32553V49.2763H5.31603C5.30803 49.0878 5.28003 48.8993 5.29453 48.7138C5.36753 47.7803 5.14453 47.4803 4.08903 47.5358C3.33803 47.5753 2.58303 47.5433 1.76053 47.5433Z" fill="#E3E3E3"/>
<path d="M48.2405 33.5726C48.2405 36.0756 48.3985 38.5906 48.2095 41.0796C47.7115 47.6521 44.651 52.7021 38.851 55.9586C35.839 57.6496 32.556 58.4486 29.122 58.2236C22.4775 57.7886 17.3675 54.7346 14.0265 48.9016C12.351 45.9791 11.573 42.8021 11.5475 39.4486C11.513 34.8881 11.538 30.3271 11.539 25.7666C11.539 25.0116 12.366 24.1986 13.1335 24.1976C14.8215 24.1956 16.5098 24.1956 18.1985 24.1976C18.957 24.1976 19.735 24.9776 19.7355 25.7446C19.7388 30.4002 19.74 35.0554 19.739 39.7101C19.7295 45.8071 25.1 50.6601 31.109 49.9726C35.7365 49.4436 39.963 44.9131 40.059 40.2886C40.1205 37.3606 40.063 34.4306 40.067 31.5011C40.067 29.5631 40.083 27.6251 40.097 25.6866C40.1015 25.0331 40.931 24.2026 41.589 24.2001C43.3357 24.1937 45.0822 24.1937 46.8285 24.2001C47.4865 24.2001 48.2905 25.0406 48.291 25.7151C48.293 28.3351 48.293 30.9549 48.291 33.5746L48.2405 33.5726ZM47.2465 36.8436C47.2465 35.3496 47.2465 33.8554 47.2465 32.3611C47.2465 31.7356 46.999 31.4811 46.3795 31.4791C44.9435 31.4741 43.5075 31.4761 42.0715 31.4791C41.341 31.4791 41.1425 31.6791 41.142 32.4031C41.142 35.0031 41.188 37.6031 41.124 40.2031C41.0525 43.0881 39.9805 45.6146 37.9955 47.6991C36.1955 49.5876 33.9285 50.6326 31.358 51.0161C30.908 51.0831 30.619 51.2661 30.615 51.7321C30.602 53.3236 30.5935 54.9151 30.615 56.5056C30.621 56.9186 30.865 57.1791 31.3395 57.1121C31.742 57.0551 32.149 57.0256 32.5505 56.9621C39.4585 55.8876 45.3005 50.3846 46.8225 43.5651C47.32 41.3411 47.2315 39.0921 47.2465 36.8436ZM18.62 36.6206L18.6955 36.6171C18.6955 35.2007 18.6955 33.7841 18.6955 32.3671C18.6955 31.6981 18.471 31.4776 17.788 31.4761C16.3713 31.4737 14.9546 31.4737 13.538 31.4761C12.8065 31.4761 12.604 31.6761 12.6035 32.3946C12.6035 34.7446 12.584 37.0906 12.6085 39.4381C12.651 43.4021 13.8225 47.0021 16.251 50.1421C19.388 54.1996 23.448 56.6741 28.6285 57.1421C29.213 57.1951 29.5095 56.9871 29.5135 56.4421C29.525 54.8896 29.521 53.3376 29.5135 51.7851C29.5135 51.3246 29.2515 51.0936 28.8025 51.0351C28.266 50.9621 27.7265 50.8951 27.1995 50.7756C22.7995 49.7791 19.4315 46.1451 18.877 41.6656C18.6715 40.0021 18.701 38.3021 18.62 36.6206ZM44.151 30.4246C44.927 30.4246 45.701 30.4246 46.4795 30.4246C47.0005 30.4246 47.265 30.1801 47.263 29.6501C47.26 28.5636 47.2695 27.4766 47.263 26.3901C47.2585 25.7851 46.7295 25.2451 46.136 25.2401C44.836 25.2321 43.536 25.2321 42.236 25.2401C41.6775 25.2436 41.142 25.7901 41.139 26.3526C41.133 27.4392 41.133 28.5257 41.139 29.6121C41.139 30.1826 41.373 30.4161 41.939 30.4206C42.6765 30.4286 43.414 30.4241 44.151 30.4246ZM15.6045 30.4246C16.38 30.4246 17.1545 30.4246 17.931 30.4246C18.4475 30.4246 18.716 30.1676 18.7165 29.6456C18.7165 28.5401 18.7245 27.4351 18.713 26.3301C18.707 25.7656 18.163 25.2401 17.5955 25.2376C16.3162 25.2316 15.0365 25.2316 13.7565 25.2376C13.6036 25.2387 13.4524 25.27 13.3115 25.3296C13.1707 25.3893 13.043 25.476 12.9357 25.585C12.8284 25.694 12.7436 25.823 12.6862 25.9647C12.6287 26.1065 12.5998 26.2581 12.601 26.4111C12.5963 27.4777 12.5963 28.5444 12.601 29.6111C12.604 30.2111 12.8275 30.4231 13.451 30.4256C14.17 30.4281 14.8875 30.4256 15.605 30.4266L15.6045 30.4246Z" fill="#E3E3E3"/>
<path d="M33.0008 26.893H34.0298C34.0298 27.3025 34.0298 27.685 34.0298 28.068C34.0278 30.357 34.026 32.646 34.0243 34.935C34.0243 35.5405 34.2418 35.756 34.8593 35.76C35.7468 35.766 36.6338 35.76 37.5848 35.76C37.5848 36.34 37.6033 36.86 37.5728 37.378C37.5643 37.528 37.4433 37.697 37.3288 37.8125C35.0018 40.1525 32.6722 42.4895 30.3398 44.8235C30.0438 45.1205 29.8268 45.14 29.5203 44.8305C27.2653 42.5572 25.001 40.2929 22.7273 38.0375C22.3653 37.6795 22.1963 37.3115 22.2478 36.81C22.2808 36.487 22.2538 36.16 22.2538 35.764C23.2038 35.764 24.1088 35.7745 25.0138 35.7605C25.6308 35.751 25.8448 35.5295 25.8448 34.92C25.8448 32.5534 25.8395 30.1867 25.8288 27.82C25.8288 27.532 25.8288 27.2445 25.8288 26.974C26.8053 26.713 26.9288 26.813 26.9248 27.6865C26.9083 30.498 26.9058 33.31 26.8978 36.1215C26.8978 36.331 26.8978 36.5405 26.8978 36.7315C25.8613 37.0885 24.7063 36.402 23.8068 37.156L29.9228 43.3095L36.1198 37.1135C35.8163 37.0135 35.5383 36.8515 35.2523 36.8365C34.5188 36.798 33.7823 36.8235 33.0023 36.8235L33.0008 26.893Z" fill="#E3E3E3"/>
<path d="M6.32861 52.8796H5.32861V51.8711H6.32861V52.8796Z" fill="#E3E3E3"/>
<path d="M26.8646 24.3303H25.8916V23.3398H26.8646V24.3303Z" fill="#E3E3E3"/>
<path d="M33.9829 24.3434H33.0039V23.3379H33.9829V24.3434Z" fill="#E3E3E3"/>
<path d="M54.5155 51.8809V52.8564H53.5229V51.8809H54.5155Z" fill="#E3E3E3"/>
</g>
</svg>
