<svg width="95" height="95" viewBox="0 0 95 95" fill="none" xmlns="http://www.w3.org/2000/svg">
<ellipse cx="47.05" cy="47.07" rx="46.05" ry="46.07" fill="white"/>
<path d="M47.05 93.64C72.7591 93.64 93.6 72.7897 93.6 47.07C93.6 21.3503 72.7591 0.5 47.05 0.5C21.3409 0.5 0.5 21.3503 0.5 47.07C0.5 72.7897 21.3409 93.64 47.05 93.64Z" stroke="#2E3192" stroke-opacity="0.2" stroke-linejoin="round"/>
<circle opacity="0.6" cx="47.0915" cy="47.09" r="41.09" fill="#C8DCFE"/>
<path d="M26.9002 44.6141C25.4765 44.6141 24.0527 44.6191 22.6286 44.612C22.0294 44.6087 21.7536 44.377 21.819 43.9424C21.8923 43.4578 22.2952 43.4453 22.6523 43.4403C23.8073 43.4253 24.9623 43.4345 26.1173 43.4345C27.794 43.4345 29.4715 43.4253 31.1482 43.4416C31.5544 43.4458 31.6748 43.3112 31.7152 42.8999C31.8486 41.5333 31.9694 40.1574 32.4773 38.8608C32.9319 37.7003 33.3557 36.5241 33.8807 35.3958C34.219 34.6683 34.7219 34.0178 35.1386 33.3258C35.3965 32.8974 35.2982 32.7391 34.7882 32.7387C32.6998 32.737 30.6114 32.7383 28.5227 32.7424C28.1382 32.7424 27.8115 32.6766 27.7652 32.227C27.7307 31.8874 28.0515 31.667 28.5361 31.6666C31.0515 31.6666 33.5669 31.6728 36.0823 31.6574C36.2907 31.6574 36.5482 31.5603 36.6948 31.4178C37.8735 30.277 39.1663 29.2603 40.5527 28.3837C41.8861 27.5378 43.3165 26.9128 44.8136 26.4599C45.7426 26.1844 46.6958 25.9984 47.6602 25.9045C48.8477 25.7833 50.0552 25.6962 51.2436 25.7733C52.3877 25.8491 53.5177 26.1483 54.6519 26.3633C56.1936 26.6524 57.6007 27.312 58.9369 28.0953C59.8723 28.6441 60.754 29.2962 61.6115 29.9641C62.2902 30.4933 62.9648 31.0587 63.5165 31.7141C64.2665 32.6028 64.9332 33.5678 65.5644 34.5474C66.0373 35.2778 66.4861 36.0474 66.7915 36.8574C67.2461 38.0624 67.5936 39.3108 67.9327 40.5553C68.3494 42.0774 68.3302 43.6437 68.2532 45.202C68.1944 46.3895 67.9657 47.5491 67.6598 48.7074C67.2647 50.1882 66.6831 51.6128 65.929 52.947C65.5586 53.6087 65.1052 54.2241 64.679 54.8537C64.5023 55.1145 64.4557 55.2649 64.7936 55.4853C65.2144 55.765 65.5863 56.112 65.8944 56.5124C66.3944 57.1603 66.8944 57.8295 67.2723 58.5541C68.1623 60.252 68.4665 62.0895 68.2307 63.9853C68.0502 65.4437 67.4773 66.7712 66.6719 68.0112C65.324 70.0862 63.3769 71.3183 61.0573 71.9533C59.849 72.2841 58.5665 72.3737 57.3194 72.0299C56.4065 71.7799 55.4748 71.5449 54.6144 71.1628C53.4598 70.6499 52.4665 69.8537 51.6727 68.8712C50.6952 67.6599 49.9227 66.3249 49.6727 64.7508C49.5677 64.0883 49.4644 63.4245 49.3986 62.7574C49.3682 62.4408 49.2607 62.3278 48.9402 62.2991C47.1748 62.1524 45.4577 61.8249 43.7765 61.2099C42.1798 60.6226 40.6688 59.8246 39.2836 58.837C38.3669 58.1891 37.5752 57.3691 36.7115 56.6458C36.549 56.5095 36.309 56.3928 36.104 56.3912C33.6202 56.3741 31.1361 56.3808 28.6523 56.3808C28.5273 56.3808 28.3557 56.4303 28.2811 56.3674C28.0852 56.2008 27.8307 56.0037 27.7977 55.7883C27.7777 55.6574 28.1136 55.3524 28.3119 55.3299C28.8902 55.2674 29.4786 55.3078 30.0652 55.3083C31.6486 55.3083 33.2308 55.3083 34.8119 55.3083C35.2907 55.3083 35.3894 55.147 35.1536 54.7408C34.5673 53.7308 33.8965 52.7616 33.4002 51.7095C32.7423 50.3141 32.2186 48.8553 32.0111 47.3074C31.9098 46.5491 31.7807 45.7933 31.7107 45.032C31.6752 44.6483 31.4719 44.6108 31.1719 44.612C29.7482 44.617 28.3244 44.6141 26.9002 44.6141ZM63.2152 43.6845C63.1711 43.2628 63.1419 42.4837 63.0011 41.7262C62.4061 38.5274 60.8432 35.8812 58.3252 33.8216C55.6969 31.6724 52.6877 30.6495 49.2761 30.8462C45.0132 31.092 41.6461 33.0074 39.2052 36.4474C36.5277 40.2199 36.0211 44.3745 37.6382 48.7045C39.6473 54.0878 45.1127 57.6503 50.7927 57.1862C51.0344 57.1586 51.2581 57.0448 51.4227 56.8658C53.4023 54.4991 55.9336 53.3291 59.0061 53.2778C59.2257 53.2745 59.5019 53.1441 59.6507 52.9808C61.964 50.4503 63.1719 47.4733 63.2152 43.6845ZM49.1527 29.6341C51.7232 29.6249 53.4194 29.9403 55.0632 30.5624C58.2232 31.7578 60.6919 33.7962 62.3857 36.7112C64.2077 39.8466 64.8023 43.2224 64.094 46.8003C63.6357 49.1178 62.7061 51.217 61.1773 53.0328C60.8919 53.3716 60.9377 53.5066 61.3727 53.6578C61.8952 53.8383 62.4382 53.9828 62.9244 54.2349C63.5398 54.5541 63.5648 54.5337 63.9807 53.9312C65.1365 52.2583 66.0182 50.4562 66.5565 48.482C67.3752 45.4783 67.379 42.4733 66.5457 39.492C65.4969 35.742 63.3952 32.682 60.2807 30.3195C57.5044 28.2137 54.3723 27.0812 50.9119 26.8708C48.3173 26.7124 45.8107 27.157 43.4119 28.1716C39.7694 29.7133 36.9602 32.2041 35.0169 35.6441C33.2669 38.7421 32.5586 42.0699 32.8919 45.6274C33.0617 47.4863 33.5386 49.3042 34.3032 51.007C35.2798 53.1762 36.6094 55.1045 38.4315 56.6449C39.4157 57.4783 40.4502 58.2699 41.5498 58.9391C43.8311 60.3241 46.3594 60.9741 49.0111 61.1758C49.3769 61.2037 49.5469 61.0853 49.6419 60.7174C49.8014 60.1237 49.9943 59.5394 50.2198 58.9674C50.3907 58.5187 50.3548 58.4549 49.8865 58.4162C48.9911 58.3424 48.0852 58.3058 47.2065 58.1358C43.5265 57.4191 40.5382 55.5441 38.3469 52.512C36.1627 49.4895 35.2352 46.087 35.6965 42.3558C36.1752 38.4837 37.9048 35.2949 40.9498 32.8266C43.5819 30.6933 46.6019 29.6874 49.1527 29.6341ZM58.8365 71.077C63.3565 71.0945 67.1532 67.3237 67.1698 62.8003C67.1865 58.2587 63.4727 54.5253 58.9148 54.4778C54.4382 54.4308 50.5511 58.1553 50.5661 62.8141C50.5802 67.3078 54.3023 71.0591 58.8365 71.077Z" fill="black"/>
<path d="M23.3516 38.6784C23.052 38.6784 22.7354 38.7384 22.4579 38.6601C22.2212 38.5938 22.0295 38.3684 21.8179 38.2134C22.0004 37.9796 22.1666 37.5638 22.3683 37.5467C23.0479 37.4863 23.7404 37.558 24.4266 37.598C24.7762 37.6184 24.907 37.9334 24.837 38.1696C24.7762 38.3759 24.5108 38.5967 24.2929 38.6596C24.0012 38.743 23.6679 38.6805 23.352 38.6805L23.3516 38.6784Z" fill="black"/>
<path d="M23.4282 50.5809C22.8399 50.5063 22.3395 50.7146 21.9765 50.2475C21.7153 49.9105 21.747 49.5625 22.162 49.5038C22.8999 49.3992 23.6565 49.3863 24.4024 49.4113C24.5549 49.4163 24.802 49.753 24.8103 49.9455C24.8174 50.1146 24.5832 50.3917 24.3999 50.4513C24.052 50.5625 23.6645 50.5542 23.4282 50.5809Z" fill="black"/>
<path d="M27.8966 49.2578C28.1649 49.4082 28.4632 49.5261 28.6882 49.7266C28.7761 49.8053 28.7674 50.122 28.6803 50.2411C28.3828 50.6491 27.3774 50.6836 27.007 50.3353C26.5878 49.9411 26.6449 49.622 27.1861 49.4416C27.3895 49.3736 27.6149 49.3716 27.8299 49.3395C27.8516 49.3124 27.8761 49.2849 27.8966 49.2578Z" fill="black"/>
<path d="M27.786 38.7204C27.5602 38.6724 27.3239 38.652 27.1106 38.5716C26.6652 38.4049 26.6131 38.0716 26.9631 37.7579C27.3381 37.4224 28.1989 37.3829 28.5856 37.7099C28.7023 37.8091 28.8485 38.0674 28.8069 38.1245C28.6414 38.3392 28.4391 38.5228 28.2094 38.6666C28.1098 38.7312 27.9335 38.6774 27.7927 38.6774L27.786 38.7204Z" fill="black"/>
<path d="M24.8449 31.6665C24.9862 31.6665 25.1278 31.6719 25.2691 31.6665C25.5983 31.6523 25.8212 31.746 25.8199 32.1327C25.8199 32.4948 25.6337 32.6981 25.2953 32.7319C24.9841 32.7623 24.6399 32.8152 24.3616 32.7127C24.1345 32.6294 23.8695 32.3602 23.8262 32.134C23.7687 31.8331 24.0162 31.6294 24.3758 31.6665C24.5291 31.6798 24.6878 31.6665 24.8449 31.6665Z" fill="black"/>
<path d="M24.8319 56.3812C24.6744 56.3812 24.5152 56.3671 24.3598 56.3837C23.9915 56.4225 23.7698 56.1883 23.8136 55.9012C23.8461 55.6854 24.1052 55.4037 24.319 55.3391C24.6369 55.2433 25.0098 55.2758 25.3498 55.3237C25.6898 55.3716 25.8423 55.6154 25.8173 55.9725C25.7936 56.3058 25.5923 56.3891 25.3044 56.3821C25.1473 56.3779 24.9894 56.3816 24.8319 56.3812Z" fill="black"/>
<path d="M49.3828 41.0425C49.3828 40.1096 49.374 39.1767 49.3869 38.2442C49.3944 37.7146 49.5786 37.5267 50.0019 37.5334C50.444 37.5405 50.5669 37.8275 50.5711 38.1946C50.5807 39.0642 50.5749 39.9338 50.5753 40.803C50.5753 41.483 50.5978 42.1638 50.5678 42.8421C50.5469 43.3117 50.7394 43.4496 51.1828 43.4371C52.0357 43.4134 52.8911 43.4271 53.7436 43.4317C54.2657 43.4342 54.5253 43.648 54.514 44.05C54.5032 44.428 54.2536 44.6209 53.7465 44.6225C52.5769 44.6263 51.4069 44.628 50.2369 44.6225C49.5236 44.6184 49.3899 44.4796 49.384 43.7475C49.3761 42.8438 49.3819 41.943 49.3828 41.0425Z" fill="black"/>
<path d="M59.8603 45.4029C59.4357 45.3916 59.2457 45.1845 59.2353 44.8129C59.2236 44.4204 59.4532 44.2349 59.8186 44.2324C60.1907 44.2299 60.402 44.4437 60.4082 44.8158C60.4103 45.1983 60.189 45.382 59.8603 45.4029Z" fill="black"/>
<path d="M48.2237 54.3325C47.922 54.3083 47.7237 54.1133 47.7266 53.73C47.7308 53.3596 47.9387 53.1883 48.2912 53.1762C48.6533 53.1637 48.907 53.405 48.8941 53.7496C48.8795 54.1242 48.6799 54.3246 48.2237 54.3325Z" fill="black"/>
<path d="M51.0345 33.6348C51.432 33.6435 51.6399 33.8356 51.6541 34.2131C51.6691 34.6127 51.4241 34.7814 51.0645 34.7964C50.7049 34.8114 50.4995 34.6043 50.4878 34.2548C50.4757 33.8852 50.6766 33.671 51.0345 33.6348Z" fill="black"/>
<path d="M46.7002 34.9995C46.6706 35.3286 46.4856 35.5349 46.1277 35.5286C45.7585 35.5228 45.5327 35.3253 45.5352 34.9428C45.5377 34.5603 45.7748 34.3678 46.1373 34.3615C46.5356 34.3528 46.6764 34.6182 46.7002 34.9995Z" fill="black"/>
<path d="M44.3049 51.7185C44.2782 52.0435 44.0853 52.239 43.6999 52.2298C43.3366 52.221 43.1541 52.0344 43.1453 51.6735C43.1357 51.2827 43.3466 51.096 43.717 51.0752C44.0532 51.056 44.3066 51.3185 44.3049 51.7185Z" fill="black"/>
<path d="M56.3165 36.0274C56.3132 36.4203 56.1045 36.5945 55.7232 36.5928C55.3161 36.5907 55.1582 36.3378 55.1632 35.9836C55.1682 35.6295 55.3849 35.4299 55.7394 35.4336C56.114 35.4382 56.3211 35.6366 56.3165 36.0274Z" fill="black"/>
<path d="M58.9174 40.4697C58.5583 40.4322 58.3499 40.2422 58.3566 39.8901C58.3633 39.538 58.532 39.2805 58.9312 39.2934C59.3029 39.3055 59.522 39.5118 59.517 39.8868C59.512 40.2618 59.2679 40.4376 58.9174 40.4697Z" fill="black"/>
<path d="M40.801 42.5926C40.7798 42.9601 40.6039 43.1846 40.2252 43.2084C39.8889 43.2292 39.631 42.9721 39.6289 42.6251C39.626 42.2276 39.8693 42.058 40.2243 42.0417C40.5873 42.0267 40.7589 42.2492 40.801 42.5926Z" fill="black"/>
<path d="M41.3601 47.736C41.3718 47.9527 41.1785 48.1527 40.8018 48.1818C40.456 48.2077 40.198 47.9656 40.1997 47.6114C40.2022 47.2318 40.3935 47.0343 40.783 47.0352C41.1439 47.036 41.3451 47.1939 41.3601 47.736Z" fill="black"/>
<path d="M42.7442 38.0269C42.7259 38.3806 42.5417 38.6019 42.1546 38.599C41.7675 38.596 41.5713 38.3794 41.5713 38.0002C41.5713 37.6344 41.7846 37.4527 42.1346 37.431C42.495 37.4094 42.7425 37.6506 42.7442 38.0269Z" fill="black"/>
<path d="M58.1227 48.9531C58.5606 48.9685 58.7335 49.1844 58.7302 49.559C58.7273 49.9198 58.5414 50.1198 58.1806 50.1165C57.8198 50.1131 57.5844 49.936 57.5806 49.5456C57.5769 49.1552 57.8169 48.9965 58.1227 48.9531Z" fill="black"/>
<path d="M61.8885 60.7846C61.8985 61.1754 61.7389 61.4179 61.3831 61.4463C61.0273 61.4746 60.7906 61.2546 60.7552 60.9238C60.661 60.0408 60.0448 59.6821 59.3114 59.5183C58.5039 59.3379 57.7644 59.5729 57.216 60.2188C56.8044 60.7033 56.8752 61.1667 57.431 61.4838C58.0169 61.8171 58.6544 62.0596 59.2519 62.375C59.9594 62.7492 60.6881 63.095 61.3285 63.5621C62.1506 64.1617 62.0069 65.3846 61.556 66.0129C61.1639 66.56 60.6756 67.0071 59.9839 67.1646C59.656 67.2392 59.4031 67.3621 59.4269 67.7896C59.4489 68.1763 59.2277 68.4288 58.8189 68.4108C58.4235 68.3933 58.2648 68.1263 58.3064 67.76C58.346 67.4133 58.1814 67.3138 57.8769 67.2183C56.9119 66.92 56.1485 66.3796 55.8835 65.3313C55.842 65.1795 55.8165 65.0238 55.8073 64.8667C55.7956 64.5413 55.946 64.3058 56.2748 64.2513C56.6273 64.1929 56.8427 64.3913 56.946 64.7138C57.3864 66.0938 58.7198 66.6329 59.9764 65.9171C60.2074 65.7805 60.4089 65.5992 60.5689 65.3838C60.9094 64.9321 60.7594 64.4004 60.161 64.0958C59.4177 63.7188 58.6427 63.4008 57.876 63.0671C57.1744 62.7613 56.481 62.43 56.0731 61.7467C55.4148 60.6438 56.0969 59.4133 57.0314 58.8217C57.1776 58.728 57.3355 58.6541 57.501 58.6017C57.9652 58.4588 58.4031 58.3375 58.3506 57.6779C58.3414 57.5596 58.7373 57.3029 58.9439 57.3067C59.1106 57.3067 59.4056 57.6058 59.4069 57.7733C59.4102 58.2358 59.6181 58.3942 60.0235 58.5188C61.1452 58.8625 61.9023 59.8325 61.8885 60.7846Z" fill="black"/>
</svg>
