<svg width="95" height="95" viewBox="0 0 95 95" fill="none" xmlns="http://www.w3.org/2000/svg">
<circle cx="47.049" cy="47.05" r="46.05" fill="white"/>
<circle cx="47.049" cy="47.05" r="46.55" stroke="#2E3192" stroke-opacity="0.2" stroke-linejoin="round"/>
<circle opacity="0.6" cx="47.0905" cy="47.09" r="41.09" fill="#C8DCFE"/>
<path d="M46.434 64.4658C45.9264 64.4658 45.4184 64.4801 44.9117 64.4622C44.1526 64.4352 43.7855 64.1212 43.6263 63.3768C43.5446 63.0048 43.5507 62.6047 43.4111 62.26C43.3065 62.002 43.0705 61.6863 42.8276 61.6136C41.4854 61.2122 40.1971 60.7026 38.9745 60.0138C38.8063 59.9186 38.4874 59.9627 38.2991 60.0599C37.9361 60.2469 37.6278 60.5373 37.2763 60.75C36.638 61.1359 36.0308 61.0767 35.4939 60.5609C34.7861 59.8804 34.0919 59.185 33.4114 58.4748C32.9214 57.9648 32.8667 57.3514 33.2436 56.73C33.4649 56.3649 33.7609 56.0427 33.9602 55.6683C34.0529 55.4952 34.0827 55.1922 33.9912 55.0321C33.2983 53.82 32.765 52.5234 32.4044 51.1746C32.3101 50.8165 32.0778 50.616 31.7074 50.5621C31.3371 50.5082 30.954 50.449 30.5833 50.3653C29.883 50.2077 29.56 49.8557 29.5424 49.1452C29.5168 48.068 29.5178 46.9901 29.5453 45.9116C29.5641 45.2252 29.8871 44.8765 30.562 44.7229C30.9479 44.6347 31.3415 44.5788 31.7327 44.5163C32.1043 44.4567 32.3179 44.2386 32.4118 43.883C32.7681 42.5493 33.2947 41.2671 33.9786 40.0679C34.0745 39.8981 34.0386 39.5779 33.9434 39.3917C33.7666 39.0418 33.4861 38.7461 33.2758 38.4117C32.8528 37.7392 32.9108 37.1198 33.46 36.5526C34.122 35.8693 34.7947 35.1966 35.478 34.5346C36.0313 34.0009 36.6458 33.9413 37.2991 34.3431C37.6346 34.554 37.9592 34.7818 38.2718 35.0254C38.5168 35.2116 38.734 35.2406 39.0068 35.0748C40.1799 34.3639 41.4417 33.8592 42.7634 33.5064C43.1559 33.4019 43.3866 33.1716 43.4417 32.7575C43.4915 32.3806 43.5536 32.0037 43.6401 31.6338C43.7965 30.9625 44.151 30.6456 44.8394 30.6301C45.9169 30.6051 46.995 30.6051 48.0738 30.6301C48.7647 30.646 49.1134 30.9568 49.2715 31.6354C49.3613 32.0209 49.3531 32.4394 49.4997 32.7975C49.61 33.0666 49.8566 33.3949 50.1122 33.4709C51.4397 33.8686 52.7215 34.3598 53.9097 35.0756C54.1841 35.2414 54.3997 35.2096 54.6447 35.0246C54.9698 34.7713 55.3086 34.536 55.6594 34.3198C56.2785 33.9486 56.8808 34.0054 57.4026 34.5044C58.1131 35.1849 58.8085 35.8791 59.4888 36.5869C59.9992 37.1177 60.0523 37.7335 59.6623 38.3709C59.4479 38.7216 59.1568 39.0291 58.971 39.3917C58.8751 39.5791 58.842 39.8981 58.9379 40.0683C59.6214 41.2684 60.1483 42.5511 60.5059 43.885C60.6064 44.2631 60.8432 44.4698 61.2332 44.5257C61.6231 44.5816 62.0188 44.6421 62.4031 44.7364C63.0499 44.8952 63.359 45.2468 63.3753 45.9124C63.4025 46.9898 63.4025 48.0679 63.3753 49.1464C63.3606 49.8332 63.0486 50.1913 62.3773 50.3526C62.0065 50.4384 61.6316 50.5054 61.254 50.5531C60.8457 50.609 60.6007 50.8193 60.4953 51.2211C60.1466 52.5454 59.6399 53.8067 58.9298 54.9803C58.7664 55.2493 58.7783 55.4703 58.9677 55.7177C59.2121 56.0298 59.4405 56.354 59.6521 56.6891C60.0564 57.3425 60.0016 57.9623 59.472 58.5119C58.8016 59.2085 58.1175 59.8921 57.4198 60.5626C56.882 61.0779 56.274 61.1342 55.6366 60.7492C55.2986 60.5423 54.9732 60.3154 54.6623 60.0697C54.4034 59.8656 54.1751 59.8419 53.8864 60.017C52.7125 60.7263 51.4516 61.2327 50.1261 61.5818C49.7525 61.6802 49.5312 61.9084 49.4764 62.3013C49.4262 62.6622 49.367 63.0232 49.2898 63.3789C49.1265 64.1253 48.7647 64.4254 48.0032 64.4654C47.9717 64.4654 47.9399 64.4679 47.908 64.4679H46.434V64.4658ZM58.8252 37.6416C58.7521 37.5338 58.6982 37.4219 58.6158 37.3382C57.9694 36.6849 57.312 36.0409 56.6701 35.3823C56.454 35.1606 56.2687 35.1941 56.0473 35.3582C55.639 35.66 55.2205 35.9462 54.8125 36.2471C54.4777 36.4942 54.1494 36.5077 53.8023 36.2749C52.4059 35.3306 50.834 34.6765 49.18 34.3513C48.7864 34.2737 48.6165 34.0581 48.5675 33.6824C48.5079 33.2271 48.4295 32.7743 48.3507 32.3218C48.2759 31.8955 48.0616 31.6534 47.581 31.6685C46.8362 31.693 46.0905 31.675 45.3449 31.675C44.8468 31.675 44.6438 31.8486 44.5589 32.3582C44.4833 32.8114 44.407 33.2647 44.3433 33.7196C44.2927 34.0777 44.1142 34.2733 43.7455 34.3476C42.0925 34.6767 40.5212 35.3303 39.1223 36.2704C38.7785 36.5007 38.451 36.5011 38.1129 36.2484C37.7071 35.9446 37.2828 35.6649 36.8773 35.3602C36.6323 35.1749 36.4412 35.1794 36.2187 35.4097C35.6013 36.0477 34.9733 36.6755 34.3346 37.2929C34.0835 37.5342 34.0998 37.7351 34.2938 37.9907C34.5825 38.3684 34.8426 38.7666 35.1309 39.1455C35.4069 39.5077 35.422 39.8515 35.1652 40.2353C34.2335 41.6208 33.5879 43.1785 33.2664 44.8168C33.1888 45.2097 32.9761 45.3828 32.6004 45.4322C32.1607 45.4902 31.7237 45.569 31.286 45.6421C30.7454 45.7323 30.5865 45.9218 30.5878 46.4587C30.5878 47.188 30.5878 47.9173 30.5878 48.6466C30.5878 49.1562 30.7458 49.3473 31.2631 49.4355C31.716 49.5131 32.1692 49.5894 32.6241 49.654C32.9781 49.7042 33.186 49.8675 33.2607 50.242C33.5866 51.8955 34.2391 53.4675 35.1799 54.8659C35.4249 55.2334 35.4085 55.567 35.1464 55.9149C34.8508 56.3073 34.5776 56.7169 34.2828 57.1097C34.1031 57.349 34.0831 57.543 34.3183 57.7704C34.968 58.3988 35.6054 59.0399 36.2375 59.6871C36.4453 59.9003 36.6282 59.9056 36.8585 59.7345C37.2783 59.4225 37.7115 59.1285 38.1329 58.8186C38.4551 58.5822 38.7724 58.5781 39.1011 58.7982C40.5138 59.746 42.1 60.4052 43.7684 60.7378C44.1465 60.8141 44.2992 61.0318 44.3478 61.3817C44.4152 61.8521 44.4874 62.3209 44.5744 62.7892C44.6495 63.1931 44.8655 63.4238 45.3208 63.4111C46.0817 63.3901 46.8428 63.3901 47.6042 63.4111C48.0599 63.423 48.2723 63.1882 48.347 62.7851C48.4332 62.318 48.5067 61.846 48.5732 61.3776C48.623 61.0256 48.7774 60.8117 49.1559 60.7369C50.8252 60.4078 52.4118 59.7481 53.8223 58.7965C54.1519 58.5756 54.4691 58.5854 54.7905 58.8206C55.2123 59.1301 55.6451 59.4241 56.0653 59.7357C56.2964 59.9068 56.4785 59.899 56.6864 59.6859C57.3166 59.0383 57.9563 58.3994 58.6056 57.7692C58.8416 57.5405 58.8163 57.3461 58.6378 57.1077C58.334 56.7018 58.0494 56.2816 57.7481 55.8733C57.5124 55.554 57.4953 55.2367 57.717 54.9063C58.6681 53.4958 59.3286 51.9098 59.6599 50.2411C59.735 49.8667 59.9424 49.703 60.2969 49.654C60.7518 49.5907 61.2054 49.5168 61.6587 49.4412C62.1613 49.3575 62.3336 49.1493 62.3332 48.6482C62.3332 47.903 62.314 47.1574 62.3398 46.413C62.3561 45.93 62.1099 45.7188 61.6864 45.6453C61.2185 45.5637 60.7473 45.4939 60.2781 45.424C59.9473 45.3746 59.7399 45.2235 59.6684 44.8667C59.3338 43.1823 58.6676 41.5814 57.7084 40.1569C57.4986 39.8442 57.5108 39.5363 57.7334 39.2304C58.0328 38.8221 58.3279 38.4095 58.6186 37.9928C58.6856 37.8927 58.7419 37.7813 58.8252 37.6416Z" fill="black"/>
<path d="M45.9226 69.5025C53.0619 69.3359 58.536 66.6699 62.9068 61.736C67.2878 56.7911 69.0661 51.0123 68.1494 44.4476C67.8027 41.9616 66.977 39.6227 65.8219 37.3985C65.6904 37.1453 65.5397 36.9003 65.4331 36.637C65.3196 36.3577 65.291 36.0453 65.6214 35.8975C65.9288 35.7599 66.2135 35.8423 66.3723 36.1804C66.81 37.1118 67.2882 38.0265 67.679 38.9775C68.8276 41.7771 69.4916 44.7007 69.4544 47.7244C69.3878 53.0932 67.6169 57.8919 64.1898 62.0239C60.4037 66.5882 55.5331 69.3379 49.6804 70.2612C43.2696 71.2722 37.5938 69.4139 32.4292 65.676C32.2622 65.5535 32.1119 65.4073 31.9339 65.3085C31.7942 65.2301 31.5582 65.1194 31.4806 65.1774C31.3255 65.2934 31.2356 65.5086 31.1478 65.6968C31.1045 65.7903 31.1699 65.9492 31.1131 66.0186C30.978 66.1844 30.8191 66.3918 30.6333 66.4404C30.3516 66.5135 30.1245 66.3179 30.1176 66.021C30.0972 65.1186 30.0837 64.2142 30.1327 63.3138C30.1417 63.1553 30.4569 62.8944 30.6419 62.8842C31.4808 62.8379 32.3216 62.8379 33.1605 62.8842C33.3451 62.8948 33.6334 63.1427 33.6591 63.3134C33.6848 63.4841 33.4582 63.7119 33.2977 63.8708C33.1372 64.0296 32.9114 64.146 32.715 64.2791C32.8469 64.4645 32.9429 64.6968 33.1156 64.8283C35.9331 66.9708 39.0389 68.4959 42.5428 69.1097C43.8172 69.3351 45.1185 69.4126 45.9226 69.5025Z" fill="black"/>
<path d="M46.7557 25.6698C37.119 25.6567 28.2639 32.019 25.5248 41.0721C23.769 46.8704 24.3606 52.5091 27.1916 57.8893C27.2733 58.0437 27.3639 58.1927 27.4395 58.3499C27.5869 58.657 27.6665 58.9959 27.3047 59.1792C26.9523 59.3585 26.6885 59.1862 26.5007 58.8318C25.3852 56.7306 24.5479 54.4932 24.0099 52.1759C21.7853 42.6083 26.6032 32.6078 34.8736 27.809C38.5759 25.6608 42.5503 24.4791 46.8308 24.5456C51.0942 24.6114 55.031 25.8911 58.6406 28.1537C59.432 28.6498 60.1739 29.2235 60.9485 29.7462C61.0915 29.8425 61.3614 29.9654 61.4357 29.9054C61.5966 29.7768 61.686 29.5445 61.7705 29.3403C61.8232 29.2137 61.7623 29.0099 61.842 28.932C61.9837 28.7939 62.2062 28.6306 62.3703 28.6539C62.5345 28.6772 62.7807 28.9119 62.7873 29.0622C62.8281 29.9634 62.8334 30.8687 62.7844 31.7691C62.7758 31.9279 62.4577 32.188 62.274 32.1982C61.435 32.2448 60.594 32.2448 59.755 32.1982C59.5708 32.188 59.2834 31.9385 59.2576 31.767C59.2319 31.5955 59.4593 31.3685 59.6206 31.2117C59.7893 31.0483 60.0118 30.9418 60.2111 30.8099C60.0698 30.6139 59.9636 30.373 59.7819 30.2276C57.7546 28.611 55.5104 27.3925 53.0334 26.6147C51.0015 25.9802 48.8843 25.6616 46.7557 25.6698Z" fill="black"/>
<path d="M56.0899 47.4773C56.085 51.4667 53.7771 54.9473 50.1535 56.4304C46.4953 57.9274 42.2882 57.1593 39.6594 54.3479C37.0677 51.5778 36.1477 48.3185 37.3029 44.6055C37.3617 44.4168 37.516 44.207 37.6843 44.1204C37.8092 44.0559 38.1228 44.1204 38.1853 44.2253C38.2902 44.403 38.3102 44.6651 38.2825 44.8811C38.1624 45.8203 37.866 46.7595 37.8991 47.6876C38.0297 51.3793 39.9183 54.0355 43.2335 55.4586C46.5084 56.8649 49.6035 56.2042 52.2679 53.7885C55.6469 50.726 55.675 46.0302 53.8502 43.2069C51.5341 39.6267 47.5835 38.1493 43.846 39.3592C43.5194 39.465 43.1543 39.5369 43.0216 39.0901C42.9011 38.6851 43.1441 38.5046 43.5145 38.378C49.5684 36.3118 56.0985 41.0334 56.0899 47.4773Z" fill="black"/>
<path d="M46.8339 44.3911C46.1569 44.387 45.5575 44.8452 45.4227 45.3343C45.2594 45.9223 45.5526 46.5185 46.1961 46.8554C46.504 47.0154 46.8331 47.1371 47.1577 47.2637C48.0773 47.6235 48.5183 48.3413 48.5661 49.2797C48.6122 50.1878 48.2974 50.9604 47.4538 51.4336C47.1402 51.6092 46.9605 51.8419 46.9834 52.2339C46.996 52.4438 46.963 52.7064 46.8417 52.8587C46.7437 52.9812 46.4333 53.071 46.3072 53.0041C46.1361 52.913 45.9429 52.6553 45.9495 52.4761C45.9711 51.9007 45.6771 51.6423 45.1822 51.5047C45.0597 51.4712 44.8964 51.4369 44.8445 51.3487C44.729 51.1515 44.5746 50.895 44.6224 50.7109C44.66 50.5667 44.9731 50.425 45.172 50.412C45.3709 50.3989 45.5836 50.5508 45.7931 50.6214C46.738 50.942 47.7482 50.1314 47.4844 49.1894C47.3766 48.8043 46.963 48.472 46.6232 48.1959C46.3758 47.995 46.0217 47.924 45.7139 47.7982C44.8184 47.4328 44.397 46.7182 44.3484 45.8007C44.3014 44.9109 44.6073 44.1453 45.4239 43.6732C45.7698 43.4731 45.9666 43.2241 45.9331 42.7982C45.9184 42.6059 45.9552 42.3535 46.0736 42.2232C46.1843 42.1007 46.484 42.0085 46.6085 42.075C46.7804 42.1673 46.976 42.425 46.9679 42.6059C46.9458 43.1804 47.2341 43.4429 47.7327 43.5781C47.8377 43.6135 47.9396 43.6576 48.0373 43.71C48.3345 43.8464 48.4219 44.0922 48.3186 44.3776C48.2084 44.6806 47.9483 44.7565 47.6551 44.6696C47.3251 44.5707 47.0022 44.4487 46.8339 44.3911Z" fill="black"/>
<path d="M40.5924 41.2486C40.3935 41.367 40.2036 41.5597 39.9934 41.5863C39.683 41.6271 39.5058 41.4058 39.5209 41.0808C39.536 40.7557 39.7324 40.5536 40.0379 40.623C40.2449 40.67 40.4152 40.8799 40.6022 41.0166L40.5924 41.2486Z" fill="black"/>
</svg>
