<svg width="63" height="63" viewBox="0 0 63 63" fill="none" xmlns="http://www.w3.org/2000/svg">
<g opacity="0.6">
<path d="M9.25429 31.6795C9.25429 24.6067 9.25429 17.5343 9.25429 10.4622C9.25429 8.95383 9.23539 7.44603 9.23591 5.93771C9.23591 3.62141 10.8739 1.94771 13.1871 1.94771C25.3573 1.93931 37.5276 1.93931 49.6982 1.94771C52.0549 1.94771 53.6808 3.60408 53.6814 5.96921C53.6835 23.1112 53.6835 40.2528 53.6814 57.394C53.6814 59.7891 52.0392 61.4187 49.6457 61.4192C40.1054 61.4192 30.5651 61.4192 21.0248 61.4192H13.3824C10.8681 61.4192 9.23486 59.7943 9.23486 57.2995C9.23486 48.7595 9.23486 40.2195 9.23486 31.6795H9.25429ZM52.3899 31.7399C52.3899 23.2002 52.3594 14.6601 52.4151 6.11988C52.4266 4.38738 51.0238 3.20141 49.5139 3.20508C37.5089 3.23378 25.5029 3.23378 13.4958 3.20508C11.7927 3.19983 10.4928 4.50498 10.497 6.15296C10.5383 23.1714 10.5372 40.1898 10.4938 57.2082C10.4896 58.8157 11.853 60.1534 13.4338 60.1482C25.4605 60.0967 37.4872 60.0967 49.5139 60.1482C51.0028 60.1539 52.4298 58.8771 52.4177 57.2391C52.3557 48.7373 52.3893 40.2386 52.3899 31.7399Z" fill="#E3E3E3"/>
<path d="M41.4999 30.5282C40.4651 30.2725 39.6199 30.0757 38.782 29.8531C38.0344 29.6541 37.9215 29.7061 37.6601 30.4348C37.427 31.0842 37.1912 31.7331 36.9377 32.3746C36.8689 32.5474 36.7308 32.6933 36.6227 32.8513C36.4883 32.7148 36.3124 32.6004 36.2258 32.4382C35.2855 30.6836 34.3604 28.9207 33.4296 27.1624C33.05 26.4442 32.6505 25.736 32.2925 25.0073C32.1108 24.6372 31.8814 24.4471 31.4525 24.4445C31.0109 24.4414 30.7999 24.6729 30.6161 25.022C29.3211 27.4846 28.0198 29.9439 26.7122 32.3998C26.6235 32.5668 26.4739 32.7017 26.3521 32.8513C26.2235 32.6875 26.0486 32.5416 25.9741 32.3557C25.7025 31.6806 25.4508 30.9956 25.2191 30.3009C25.049 29.7927 24.765 29.6504 24.2432 29.8153C23.5082 30.0473 22.7527 30.219 22.003 30.4048C21.8738 30.4369 21.7295 30.409 21.4995 30.409C21.5704 30.187 21.6045 29.9969 21.6875 29.8352C22.9149 27.4979 24.1387 25.1585 25.3919 22.8349C25.6181 22.4149 25.6286 22.166 25.2722 21.7927C22.7627 19.1677 22.3322 14.878 24.2222 11.7159C26.1379 8.50919 30.0166 6.94522 33.6165 7.92802C38.0412 9.13552 40.662 13.3838 39.7097 17.8542C39.3905 19.352 38.7095 20.6918 37.6396 21.799C37.3062 22.144 37.2978 22.3928 37.5188 22.8023C38.7715 25.1254 39.9932 27.4654 41.2201 29.8021C41.3078 29.9728 41.3597 30.1628 41.4999 30.5282ZM38.5694 15.3557C38.573 10.9326 33.354 7.46864 28.6322 9.52822C24.2747 11.4282 22.717 17.0651 26.2949 20.9475C27.0687 21.7875 27.1464 22.2857 26.6167 23.299C25.8355 24.7931 25.0417 26.2794 24.2689 27.7777C24.1791 27.9515 24.198 28.1809 24.1665 28.3846C24.335 28.393 24.5067 28.4256 24.6716 28.4051C25.2879 28.3279 25.8549 28.6393 26.1752 29.2099C26.2513 29.3464 26.4324 29.5144 26.5568 29.5076C26.6813 29.5008 26.8514 29.3244 26.9243 29.1826C27.8021 27.5331 28.692 25.8893 29.5236 24.2167C30.0029 23.2522 30.7957 23.1614 31.7244 23.1735C32.5481 23.184 33.0432 23.5609 33.4002 24.2602C34.2491 25.9224 35.1185 27.574 35.9958 29.2215C36.0399 29.2951 36.0989 29.3587 36.1691 29.4081C36.2393 29.4574 36.319 29.4915 36.4032 29.5081C36.5019 29.5202 36.6578 29.3438 36.7319 29.2183C37.112 28.5715 37.6354 28.3174 38.3546 28.4308C38.4985 28.4539 38.7636 28.4434 38.7825 28.3857C38.833 28.2224 38.8212 28.0462 38.7494 27.8911C37.9199 26.3088 37.0694 24.738 36.2347 23.1577C35.7727 22.282 35.8703 21.7402 36.5549 21.0131C37.8695 19.6276 38.5956 17.9959 38.5694 15.3578V15.3557Z" fill="#E3E3E3"/>
<path d="M31.5333 37.6883C26.4366 37.6883 21.3399 37.6883 16.2432 37.6883C15.7366 37.6883 15.2924 37.6117 15.1575 37.0305C14.9963 36.3359 15.3455 35.9495 16.155 35.9464C18.0308 35.9396 19.9067 35.9464 21.782 35.9464C28.6119 35.9464 35.4412 35.9464 42.2701 35.9464C43.8194 35.9464 45.3676 35.9427 46.9179 35.9464C47.4298 35.9464 47.8629 36.0803 47.9359 36.6814C48.0152 37.3088 47.6571 37.6789 46.9463 37.6847C44.8058 37.6925 42.6649 37.6883 40.5245 37.6883H31.5333Z" fill="#E3E3E3"/>
<path d="M31.5676 41.437C36.6426 41.437 41.7186 41.437 46.7957 41.437C47.589 41.437 47.9276 41.6995 47.9418 42.2943C47.9533 42.7841 47.7124 43.0608 47.2472 43.1469C47.066 43.1731 46.8827 43.1828 46.6996 43.1758C36.5682 43.1758 26.4367 43.1758 16.3053 43.1758C15.8365 43.1758 15.3325 43.2084 15.1687 42.6009C14.9854 41.9232 15.3524 41.4459 16.0948 41.4401C17.5648 41.4254 19.0306 41.4344 20.4979 41.4338H31.5676V41.437Z" fill="#E3E3E3"/>
<path d="M31.5307 48.6834C26.4144 48.6834 21.2983 48.6834 16.1823 48.6834C15.4163 48.6834 15.0683 48.3364 15.1407 47.6812C15.1848 47.2816 15.3959 47.0443 15.7922 46.9924C15.9946 46.9706 16.1982 46.9621 16.4018 46.9666C26.5119 46.9666 36.6218 46.9666 46.7315 46.9666C46.8944 46.9584 47.0577 46.9637 47.2198 46.9824C47.717 47.0669 47.9616 47.3672 47.9401 47.8749C47.9196 48.3616 47.6492 48.6377 47.1841 48.6692C46.6591 48.7054 46.1246 48.6834 45.5949 48.6834H31.5307Z" fill="#E3E3E3"/>
<path d="M24.6134 54.1949C21.823 54.1949 19.0321 54.2085 16.2423 54.1765C15.9 54.1728 15.439 54.0164 15.2448 53.7659C14.8495 53.2567 15.2485 52.5458 15.9142 52.4629C16.195 52.4277 16.4833 52.4508 16.7683 52.4508C22.1653 52.4508 27.5622 52.4508 32.9588 52.4508C33.7321 52.4508 34.0918 52.6918 34.1317 53.2189C34.1805 53.8599 33.855 54.187 33.1053 54.1917C31.3728 54.2022 29.6403 54.1917 27.9115 54.1917H24.6134V54.1949Z" fill="#E3E3E3"/>
<path d="M31.0206 19.8642C30.6369 19.6668 30.2694 19.5633 30.0231 19.3323C29.4588 18.8073 28.9416 18.2298 28.4276 17.6523C28.1342 17.3237 27.8559 16.9068 28.3001 16.5399C28.7306 16.1839 29.1249 16.4307 29.4551 16.8102C29.8131 17.226 30.21 17.6088 30.5618 18.0293C30.8652 18.3921 31.1072 18.3742 31.3902 18.0114C32.1389 17.0507 32.9006 16.0994 33.6577 15.1449C33.7662 14.9978 33.8822 14.8564 34.0052 14.7213C34.3034 14.4162 34.6631 14.3538 34.9833 14.6367C35.2883 14.9061 35.2542 15.251 35.0017 15.5644C34.0079 16.7982 33.0303 18.0456 32.006 19.2531C31.774 19.5224 31.3797 19.6479 31.0206 19.8642Z" fill="#E3E3E3"/>
</g>
</svg>
