<svg width="95" height="95" viewBox="0 0 95 95" fill="none" xmlns="http://www.w3.org/2000/svg">
<g clip-path="url(#clip0_181695_14383)">
<path d="M47.05 93.14C72.4827 93.14 93.1 72.5138 93.1 47.07C93.1 21.6262 72.4827 1 47.05 1C21.6173 1 1 21.6262 1 47.07C1 72.5138 21.6173 93.14 47.05 93.14Z" fill="white"/>
<path d="M47.05 93.64C72.7591 93.64 93.6 72.7897 93.6 47.07C93.6 21.3503 72.7591 0.5 47.05 0.5C21.3409 0.5 0.5 21.3503 0.5 47.07C0.5 72.7897 21.3409 93.64 47.05 93.64Z" stroke="#2E3192" stroke-opacity="0.2" stroke-linejoin="round"/>
<path opacity="0.6" d="M47.0915 88.18C69.7848 88.18 88.1815 69.7834 88.1815 47.09C88.1815 24.3966 69.7848 6 47.0915 6C24.3981 6 6.00146 24.3966 6.00146 47.09C6.00146 69.7834 24.3981 88.18 47.0915 88.18Z" fill="#C8DCFE"/>
<path fill-rule="evenodd" clip-rule="evenodd" d="M39.2246 25C39.7439 25 39.9551 25.0439 40.4303 25.2637C40.7471 25.4131 41.1695 25.6943 41.372 25.9053C41.5832 26.1162 41.8472 26.5029 42.1904 27.2764L44.1705 27.3027C46.0538 27.3291 46.1682 27.3379 46.5467 27.54C46.7667 27.6455 47.1187 27.9092 47.3211 28.1113C47.5323 28.3047 47.7963 28.6475 47.9107 28.8672C48.0163 29.0869 48.1571 29.4736 48.21 29.7285C48.2628 29.9834 48.3068 31.0117 48.3068 34.0088L48.9404 34.0791C49.2924 34.1143 49.882 34.2109 50.2429 34.2812C50.6037 34.3516 51.3781 34.5713 51.959 34.7646C52.5398 34.958 53.015 35.0986 53.015 35.0898C53.0238 35.0723 53.0766 34.9492 53.147 34.8086C53.2174 34.668 53.4022 34.4131 53.5519 34.2373C53.7015 34.0615 54.0799 33.7803 54.9511 33.3057L58.3569 33.2178L58.5681 32.9717C58.7618 32.752 58.7794 32.6553 58.7882 30.9326L58.4097 30.7832C58.1985 30.7041 57.8201 30.4492 57.5561 30.2119C57.3009 29.9834 56.9841 29.5879 56.8696 29.3506C56.7464 29.1045 56.6144 28.6914 56.5704 28.4277C56.5264 28.1289 56.5352 27.7598 56.588 27.4609C56.6408 27.1973 56.764 26.8281 56.852 26.6436C56.9401 26.4678 57.1689 26.1602 57.3449 25.958C57.5297 25.7646 57.9433 25.4658 58.2689 25.2988C58.797 25.0352 58.9466 25 59.5274 25C60.0906 25 60.2666 25.0439 60.7683 25.2812C61.1115 25.457 61.4987 25.7295 61.7099 25.9668C61.9123 26.1865 62.1675 26.582 62.2908 26.8457C62.458 27.2236 62.5108 27.4697 62.5108 27.9883C62.5108 28.5332 62.458 28.7529 62.2468 29.21C62.0795 29.5791 61.8419 29.9131 61.5515 30.1768C61.3051 30.4053 60.9179 30.6602 60.2666 30.9326V31.9434C60.2754 32.7695 60.2402 33.0244 60.0906 33.3496C59.9938 33.5693 59.7826 33.877 59.633 34.0352C59.4746 34.2021 59.193 34.4131 58.9994 34.5186C58.6826 34.6855 58.4625 34.7119 56.9753 34.7559C55.62 34.791 55.2504 34.8262 55.0127 34.958C54.8631 35.0371 54.6519 35.2393 54.5551 35.3887C54.4583 35.5469 54.3791 35.7139 54.3791 35.7666C54.3791 35.8105 54.6871 36.0654 55.0567 36.3115C55.4352 36.5664 56.0336 37.0234 56.3768 37.3223C56.7288 37.6299 57.2921 38.1924 57.6353 38.5791C57.9785 38.9658 58.4713 39.5986 58.7266 39.9854C58.9818 40.3721 59.3778 41.0488 59.5978 41.4795C59.809 41.9102 60.1082 42.6045 60.249 43.0176C60.3986 43.4307 60.5835 44.0547 60.8035 45.0391L61.2611 44.793C61.7187 44.5557 61.7451 44.5557 63.6196 44.5293C64.6581 44.5205 65.5997 44.4941 65.7054 44.4678C65.8198 44.4414 65.987 44.3447 66.0838 44.248C66.251 44.0811 66.2598 43.9492 66.2598 40.6885L65.8022 40.4775C65.5469 40.3545 65.1597 40.082 64.9397 39.8623C64.7197 39.6338 64.4381 39.2559 64.3237 39.0186C64.1389 38.6494 64.1037 38.4561 64.1037 37.7441C64.1037 36.9531 64.1213 36.874 64.4117 36.3467C64.5789 36.0391 64.8605 35.6699 65.0277 35.5205C65.1949 35.3711 65.5557 35.1514 65.8198 35.0283C66.2246 34.835 66.4358 34.7998 67.0518 34.7998C67.6767 34.7998 67.8791 34.835 68.2839 35.0283C68.5479 35.1514 68.9351 35.4326 69.1463 35.6436C69.3576 35.8545 69.6392 36.25 69.7624 36.5137C69.9648 36.918 70 37.1113 70 37.7441C70 38.377 69.9648 38.5703 69.7536 38.9922C69.6216 39.2734 69.3488 39.6689 69.1375 39.8711C68.9351 40.082 68.5303 40.3457 67.7559 40.6885V42.4902C67.7559 44.2832 67.7559 44.292 67.5183 44.7666C67.3774 45.0391 67.1222 45.3643 66.9198 45.5137C66.7262 45.6631 66.3918 45.8301 66.1718 45.8916C65.9078 45.9707 65.1861 46.0059 63.9717 46.0059C62.2644 46.0059 62.1499 46.0234 61.8243 46.208C61.6307 46.3135 61.4019 46.498 61.3139 46.6211C61.1819 46.7793 61.1203 47.0781 61.0587 47.7637C61.0059 48.2734 60.9091 49.0996 60.8387 49.6094C60.7683 50.1191 60.7155 50.6641 60.7155 50.8135C60.7155 50.9717 60.7859 51.2529 60.8827 51.4287C60.9707 51.6133 61.1467 51.8154 61.2787 51.8682C61.4459 51.9473 62.1147 51.9824 63.6372 51.9824C64.8165 51.9824 65.9166 52.0176 66.0838 52.0703C66.251 52.1143 66.5854 52.2813 66.8318 52.4395C67.1398 52.6504 67.3334 52.8613 67.5095 53.2129C67.7471 53.6699 67.7647 53.7666 67.7559 55.8057L68.2575 56.0254C68.5391 56.1484 68.9351 56.4209 69.1552 56.6406C69.3664 56.8604 69.648 57.2559 69.7712 57.5195C69.9648 57.9238 70 58.1348 70 58.75C70 59.3828 69.9648 59.5762 69.7624 59.9805C69.6392 60.2441 69.3576 60.6396 69.1463 60.8594C68.9351 61.0703 68.5479 61.3516 68.2839 61.4746C67.8791 61.6592 67.6679 61.6943 67.0078 61.6943C66.2686 61.6943 66.1806 61.6768 65.6525 61.3867C65.3445 61.2197 64.9573 60.9209 64.7901 60.7275C64.6317 60.5342 64.4029 60.2002 64.2973 59.9805C64.1389 59.6553 64.1037 59.4355 64.1037 58.75C64.1037 58.0645 64.1389 57.8447 64.2973 57.5195C64.4029 57.2998 64.6317 56.9658 64.7901 56.7725C64.9485 56.5791 65.3533 56.2803 66.2598 55.8057V54.8564C66.2598 53.916 66.2598 53.916 65.7318 53.4766H63.5052C62.0355 53.4766 61.1819 53.4414 60.9795 53.3799C60.8123 53.3184 60.5131 53.1602 59.9674 52.791L59.5802 53.5469C59.369 53.9687 58.9818 54.6279 58.7266 55.0146C58.4713 55.4014 57.9961 56.0166 57.6793 56.377C57.3537 56.7373 56.7904 57.3086 56.4208 57.6338C56.0512 57.959 55.4352 58.4336 55.0567 58.6885C54.6783 58.9434 54.3791 59.1807 54.3791 59.2334C54.3791 59.2861 54.4583 59.4531 54.5551 59.6025C54.6519 59.7695 54.8983 59.9717 55.1007 60.0684C55.312 60.165 55.6024 60.2441 55.7432 60.2441C55.884 60.2441 56.2008 60.2969 56.4472 60.376C56.6848 60.4463 57.0369 60.6309 57.2305 60.7891C57.4153 60.9473 57.6705 61.2988 57.7937 61.5625C58.0049 62.002 58.0225 62.125 57.9873 64.0234L58.5153 64.2871C58.8058 64.4277 59.1842 64.6826 59.3602 64.832C59.5362 64.9902 59.8002 65.377 59.9498 65.6934C60.1962 66.1943 60.2314 66.3525 60.2314 67.0117C60.2314 67.6445 60.1962 67.8291 59.9938 68.2422C59.8618 68.5059 59.589 68.8926 59.3778 69.1035C59.1666 69.3145 58.7618 69.6045 58.4713 69.7363C58.0401 69.9473 57.8289 69.9912 57.3009 70C56.7904 70 56.5616 69.9561 56.1128 69.7539C55.8136 69.6133 55.3912 69.332 55.1711 69.1211C54.9599 68.9014 54.6871 68.5059 54.5551 68.2422C54.3703 67.8379 54.3351 67.6357 54.3351 66.9678C54.3439 66.3086 54.3791 66.0977 54.5551 65.7373C54.6695 65.4912 54.9511 65.1133 55.1711 64.8936C55.3912 64.6738 55.7784 64.4014 56.4912 64.0674V63.1621C56.4912 62.6699 56.456 62.1953 56.412 62.1074C56.3768 62.0283 56.2272 61.9141 56.0864 61.8525C55.9456 61.7998 55.6112 61.7295 55.3472 61.7031C55.0479 61.668 54.6607 61.5361 54.3439 61.3603C54.0535 61.2109 53.7015 60.9385 53.5519 60.7627C53.4022 60.5869 53.2174 60.332 53.147 60.1914C53.0766 60.0508 53.0238 59.9277 53.015 59.9102C53.015 59.9014 52.5398 60.042 51.959 60.2353C51.3781 60.4287 50.5949 60.6484 50.2165 60.7187C49.8468 60.7978 49.2396 60.8857 48.2276 60.9912L48.1219 61.4307C48.0691 61.668 47.8579 62.2041 47.6643 62.6172C47.3915 63.1621 47.1363 63.5225 46.6963 63.9531C46.265 64.3926 45.913 64.6475 45.3762 64.9023C44.9802 65.0957 44.3729 65.3154 44.0385 65.3857C43.5721 65.4824 42.7272 65.5176 37.6581 65.5176L37.4293 66.0186C37.2885 66.3437 37.0421 66.6777 36.7517 66.9502C36.4877 67.1963 36.1005 67.4424 35.8276 67.5478C35.5372 67.6533 35.15 67.7148 34.754 67.7148C34.358 67.7148 33.9707 67.6533 33.6715 67.5478C33.4251 67.4512 33.0115 67.1963 32.7739 66.9854C32.5187 66.7568 32.2194 66.3789 32.0698 66.0801C31.8322 65.6143 31.8058 65.4736 31.8058 64.7705C31.8058 64.1025 31.841 63.9092 32.0346 63.4961C32.1578 63.2324 32.4394 62.8457 32.6507 62.6348C32.8619 62.4238 33.2491 62.1602 33.4955 62.0459C33.7507 61.9229 34.1908 61.7998 34.4636 61.7734C34.8596 61.7295 35.1236 61.7559 35.634 61.9141C36.2149 62.0898 36.3557 62.1777 36.8309 62.6523C37.1565 62.9775 37.4293 63.3555 37.7022 64.0322L40.4303 64.0234C41.9264 64.0234 43.3785 63.9883 43.6425 63.9355C43.9065 63.8828 44.3641 63.7334 44.6545 63.6016C44.945 63.4609 45.385 63.1533 45.6226 62.916C45.869 62.6787 46.1946 62.2305 46.353 61.9141C46.5115 61.5977 46.6347 61.2637 46.6347 61.167C46.6347 61.0176 46.5555 60.9824 46.045 60.9209C45.7106 60.8857 45.1474 60.7891 44.7866 60.7187C44.4257 60.6396 43.7305 60.4551 43.2465 60.2969C42.7624 60.1299 41.988 59.8135 41.5304 59.585C41.0727 59.3564 40.5359 59.0664 40.3423 58.9346C40.1487 58.8115 39.6911 58.4863 39.3302 58.2139C38.9694 57.9326 38.3798 57.4316 37.3941 56.4648H30.9258L30.7058 56.9658C30.5825 57.2383 30.3185 57.6338 30.1073 57.8447C29.9049 58.0557 29.5089 58.3281 29.2273 58.46C28.8048 58.6709 28.6112 58.7061 27.9776 58.7061C27.344 58.7061 27.1503 58.6709 26.7455 58.4687C26.4815 58.3457 26.0767 58.0381 25.8391 57.792C25.6103 57.5459 25.3374 57.1592 25.2318 56.9219C25.0734 56.5967 25.0294 56.3506 25.0294 55.7617C25.0294 55.1641 25.0734 54.9268 25.2318 54.5752C25.3462 54.3291 25.5663 53.9775 25.7247 53.7842C25.8831 53.5908 26.2703 53.292 26.5783 53.125C27.1063 52.835 27.1855 52.8174 27.9776 52.8174C28.6992 52.8174 28.8752 52.8525 29.2977 53.0547C29.5705 53.1865 29.9489 53.4678 30.1601 53.7139C30.3713 53.9424 30.6265 54.3203 30.9258 54.9707H36.2501L36.0741 54.6807C35.9685 54.5313 35.6868 54.0039 35.4404 53.5205C35.194 53.0371 34.8684 52.2461 34.7012 51.7627C34.5428 51.2793 34.3492 50.5762 34.2788 50.1982C34.1996 49.8291 34.1027 49.0557 34.0587 48.4844C34.0059 47.834 34.0059 47.0869 34.0587 46.4629C34.1027 45.9268 34.1996 45.1709 34.2788 44.793C34.3492 44.4238 34.5428 43.7207 34.7012 43.2373C34.8684 42.7539 35.194 41.9629 35.4404 41.4795C35.6868 40.9961 35.9685 40.4687 36.2501 40.0293H35.0796C34.446 40.0293 33.6011 39.9941 33.2139 39.9414C32.8267 39.8975 32.2106 39.7568 31.8498 39.6338C31.489 39.5107 30.9522 39.2734 30.6617 39.1064C30.3713 38.9482 29.9313 38.6406 29.6937 38.4297C29.4473 38.2187 29.1041 37.8936 28.9369 37.7002C28.7608 37.5068 28.4792 37.1289 28.2944 36.8652C28.1184 36.6016 27.8632 36.083 27.7224 35.7227C27.5816 35.3623 27.4144 34.7998 27.344 34.4746C27.2384 33.9209 27.212 33.8857 26.9215 33.7979C26.7543 33.7451 26.4287 33.5605 26.1911 33.3936C25.9623 33.2266 25.6543 32.9014 25.5135 32.6641C25.3638 32.4355 25.179 32.0312 25.0998 31.7676C25.003 31.4248 24.9766 31.1172 25.0206 30.7129C25.047 30.3877 25.1614 29.9482 25.2846 29.7021C25.399 29.4561 25.7159 29.0518 25.9887 28.7969C26.3935 28.4277 26.5959 28.3047 27.1151 28.1553C27.6168 28.0059 27.8808 27.9795 28.2856 28.0234C28.576 28.0498 29.0337 28.1816 29.2977 28.3135C29.5617 28.4453 29.9401 28.7178 30.1249 28.9111C30.3097 29.1045 30.5737 29.4824 30.697 29.7461C30.8906 30.1592 30.9258 30.3525 30.9258 31.0205C30.9258 31.627 30.8818 31.9082 30.741 32.207C30.6441 32.4268 30.3889 32.7959 30.1689 33.0244C29.9577 33.2617 29.5705 33.5518 29.2977 33.6836C29.0337 33.8066 28.8048 33.9121 28.7872 33.9121C28.7784 33.9209 28.8312 34.1758 28.9104 34.4922C28.9897 34.8086 29.1745 35.3184 29.3329 35.626C29.4825 35.9336 29.8433 36.4434 30.1337 36.7598C30.4241 37.0674 30.8994 37.4805 31.1898 37.665C31.4802 37.8584 32.0346 38.1133 32.4218 38.2451C33.0819 38.4561 33.2579 38.4736 37.3501 38.5615L37.8782 38.043C38.1774 37.7529 38.635 37.3398 38.8902 37.1201C39.1542 36.8916 39.6735 36.5137 40.0343 36.2764C40.3951 36.0303 41.0727 35.6436 41.5304 35.415C41.988 35.1865 42.7624 34.8701 43.2465 34.7031C43.7305 34.5449 44.4257 34.3516 44.7866 34.2812C45.1474 34.2109 45.737 34.1143 46.7227 34.0088V31.8994C46.7315 29.8516 46.7227 29.7812 46.5291 29.4824C46.4146 29.3154 46.1858 29.0869 46.0186 28.9814C45.7194 28.7793 45.649 28.7705 42.1904 28.7793L41.9968 29.1924C41.8912 29.4297 41.636 29.8076 41.4248 30.0361C41.2136 30.2822 40.8351 30.5635 40.5623 30.6953C40.1399 30.8975 39.9639 30.9326 39.2422 30.9326C38.503 30.9326 38.3534 30.9062 37.9398 30.6865C37.6933 30.5547 37.3149 30.2822 37.1125 30.0713C36.9101 29.8691 36.6461 29.4824 36.5141 29.2187C36.3293 28.8232 36.2941 28.6035 36.2941 27.9883C36.2941 27.3994 36.3381 27.1533 36.4965 26.8193C36.6021 26.5908 36.8749 26.2041 37.1037 25.958C37.3501 25.6943 37.7462 25.4043 38.0542 25.2549C38.4854 25.0527 38.6966 25 39.2158 25L39.2246 25ZM38.1334 26.9775C38.0278 27.127 37.8958 27.3467 37.8518 27.4785C37.799 27.6191 37.755 27.8564 37.755 28.0059C37.755 28.1641 37.8342 28.4629 37.931 28.665C38.0542 28.9199 38.2302 29.1133 38.4766 29.2627C38.7318 29.4033 38.987 29.4824 39.251 29.4824C39.4975 29.4824 39.7791 29.4033 39.9991 29.2803C40.1927 29.1748 40.4303 28.9287 40.5447 28.7354C40.6679 28.5156 40.7471 28.2344 40.7471 27.9883C40.7471 27.7246 40.6679 27.4697 40.5271 27.2148C40.3775 26.9687 40.1839 26.793 39.9287 26.6699C39.7263 26.5732 39.4182 26.4941 39.251 26.5029C39.0838 26.5029 38.8022 26.5469 38.635 26.6084C38.4678 26.6699 38.2478 26.8369 38.1334 26.9775ZM58.3305 27.1094C58.2425 27.2324 58.1281 27.4873 58.0929 27.6807C58.0489 27.874 58.0489 28.1641 58.0929 28.3398C58.1281 28.5068 58.2425 28.7441 58.3305 28.8672C58.4273 28.9902 58.5945 29.1572 58.709 29.2451C58.8234 29.333 59.0962 29.4297 59.3162 29.4561C59.5362 29.4824 59.853 29.4648 60.0202 29.4121C60.1874 29.3594 60.4603 29.1748 60.6099 29.0078C60.7683 28.832 60.9355 28.5332 60.9883 28.3398C61.0411 28.1113 61.0499 27.874 60.9971 27.6543C60.9443 27.4785 60.8211 27.2148 60.7067 27.0742C60.5923 26.9336 60.3458 26.7402 60.1522 26.6523C59.9586 26.5732 59.677 26.4941 59.5362 26.4941C59.3954 26.4941 59.0962 26.582 58.885 26.6875C58.6649 26.8018 58.4185 26.9863 58.3305 27.1094ZM26.7719 30.1504C26.6399 30.3437 26.5255 30.6514 26.4991 30.8447C26.4727 31.0996 26.5255 31.3193 26.6751 31.627C26.7895 31.8643 27.0095 32.1367 27.1503 32.2422C27.3 32.3389 27.608 32.4355 27.8544 32.4531C28.1096 32.4795 28.4176 32.4355 28.6024 32.3652C28.7696 32.2949 29.0249 32.084 29.1745 31.8906C29.3241 31.6885 29.4473 31.4072 29.4649 31.1963C29.4913 31.0029 29.4825 30.7393 29.4473 30.5986C29.4209 30.4668 29.2449 30.2031 29.0689 30.001C28.8752 29.7988 28.6024 29.6143 28.4264 29.5615C28.2592 29.5176 28.0392 29.4824 27.9424 29.4824C27.8456 29.4824 27.5904 29.5615 27.3792 29.6494C27.1415 29.7549 26.9127 29.9395 26.7719 30.1504ZM37.467 40.2288C36.188 42.0417 35.2901 45.5109 35.2901 47.7048C35.2901 50.2646 36.1995 52.9402 37.6718 55.0272C38.7847 56.5689 40.543 58.0014 42.2432 58.8297C44.4729 59.9703 47.0891 60.1086 49.5476 59.7308C51.9364 59.3179 54.505 57.937 56.2495 56.2581C57.8177 54.7489 59.0614 52.67 59.5921 50.5498C60.2897 48.0796 59.8762 44.4932 58.7137 42.2266C57.8663 40.4917 56.1135 38.2761 54.5479 37.1489C52.426 35.6558 50.0347 35.1201 47.4355 35.1461C43.6768 35.1898 39.6775 37.1666 37.467 40.2288ZM65.767 37.0059C65.6437 37.2168 65.5645 37.498 65.5645 37.7441C65.5645 37.9902 65.6437 38.2715 65.767 38.4912C65.8726 38.6846 66.119 38.9219 66.3126 39.0361C66.515 39.1504 66.8142 39.2383 67.0166 39.2383C67.2102 39.2383 67.5271 39.1592 67.7207 39.0625C67.9143 38.9658 68.1607 38.7637 68.2663 38.6055C68.3719 38.4473 68.4863 38.1924 68.5215 38.0518C68.5479 37.9023 68.5567 37.6387 68.5215 37.4541C68.4951 37.2695 68.3455 36.9883 68.1871 36.8037C68.0287 36.6279 67.7647 36.4346 67.6151 36.3643C67.4567 36.3027 67.1926 36.25 67.0342 36.25C66.8758 36.25 66.5678 36.3379 66.3566 36.4521C66.1014 36.584 65.8902 36.7861 65.767 37.0059ZM26.6927 55.0674C26.5783 55.2783 26.4903 55.5859 26.4903 55.7354C26.4903 55.8936 26.5431 56.1572 26.6135 56.3066C26.6751 56.4648 26.8423 56.7021 26.9831 56.834C27.1239 56.9658 27.344 57.1152 27.4848 57.1592C27.6168 57.2119 27.8544 57.2559 28.0128 57.2559C28.1624 57.2559 28.4616 57.1768 28.6728 57.0801C28.9192 56.957 29.1129 56.7813 29.2625 56.5264C29.3945 56.2979 29.4825 56.0166 29.4825 55.7793C29.4825 55.5771 29.4033 55.252 29.3065 55.0586C29.2097 54.8652 28.9985 54.6191 28.8488 54.5137C28.6552 54.3818 28.3912 54.3027 28.0744 54.2852C27.6872 54.2676 27.52 54.3027 27.2384 54.4697C27.0183 54.6016 26.8159 54.8301 26.6927 55.0674ZM65.767 58.0029C65.6437 58.2227 65.5645 58.5039 65.5645 58.75C65.5645 58.9961 65.6437 59.2773 65.767 59.4971C65.899 59.7344 66.0926 59.9189 66.3566 60.0508C66.5766 60.1562 66.8846 60.2441 67.043 60.2441C67.1926 60.2441 67.4567 60.1914 67.6151 60.1299C67.7647 60.0596 68.0287 59.8662 68.1871 59.6904C68.3455 59.4971 68.4951 59.2246 68.5215 59.0312C68.5479 58.8555 68.5479 58.5742 68.5215 58.416C68.4951 58.2666 68.3367 57.9941 68.1871 57.8096C68.0287 57.6338 67.7647 57.4404 67.6151 57.3701C67.4567 57.3086 67.1926 57.2559 67.043 57.2559C66.8846 57.2559 66.5766 57.3437 66.3566 57.4492C66.0926 57.5811 65.899 57.7656 65.767 58.0029ZM33.6451 63.7598C33.4867 63.9531 33.3283 64.2607 33.3019 64.4365C33.2667 64.6211 33.2667 64.9111 33.3019 65.0781C33.3283 65.2451 33.4515 65.5088 33.5571 65.6494C33.6715 65.79 33.9179 65.9834 34.1115 66.0801C34.358 66.1943 34.5868 66.2295 34.8948 66.2031C35.1764 66.1855 35.4404 66.0889 35.634 65.957C35.8012 65.834 36.0125 65.5791 36.1005 65.3857C36.1885 65.1924 36.2589 64.9023 36.2589 64.7441C36.2589 64.5947 36.2149 64.3574 36.1621 64.2168C36.1093 64.085 35.9861 63.8828 35.8804 63.7686C35.7748 63.6543 35.5284 63.4873 35.3348 63.3994C35.1412 63.3115 34.886 63.2412 34.7628 63.2412C34.6396 63.2412 34.402 63.2852 34.2436 63.3291C34.0499 63.373 33.8211 63.54 33.6451 63.7598ZM55.9984 66.2646C55.884 66.4668 55.796 66.7656 55.796 66.9678C55.796 67.1611 55.8752 67.4775 55.972 67.6709C56.0688 67.8643 56.2712 68.1104 56.4296 68.2158C56.588 68.3213 56.8432 68.4355 56.9841 68.4707C57.1337 68.4971 57.3977 68.5059 57.5825 68.4707C57.7673 68.4443 58.0489 68.2949 58.2337 68.1279C58.4097 67.9785 58.6033 67.7148 58.6738 67.5566C58.7354 67.4072 58.7882 67.1436 58.7882 66.9854C58.7882 66.8359 58.7002 66.5283 58.5857 66.3086C58.4537 66.0537 58.2513 65.8428 58.0313 65.7197C57.8201 65.5967 57.5385 65.5176 57.2921 65.5176C57.0457 65.5176 56.764 65.5967 56.544 65.7197C56.3504 65.834 56.104 66.0713 55.9984 66.2646ZM47.4795 37.7529C47.7699 37.7529 48.2892 37.8057 48.6236 37.876C48.9668 37.9463 49.5212 38.1396 49.8556 38.3066C50.1989 38.4736 50.7269 38.8428 51.0349 39.124C51.3429 39.4053 51.7478 39.8711 51.9326 40.1611C52.1262 40.4512 52.3814 41.0049 52.5134 41.3916C52.7158 42.0156 52.7422 42.2617 52.8038 45.2148H53.1558C53.3494 45.2148 53.6487 45.2764 53.8159 45.3467C54.0007 45.4258 54.1591 45.5752 54.2119 45.7158C54.2735 45.8828 54.2999 47.5352 54.2559 55.3398L53.7719 55.7617H41.2752L40.7911 55.3398L40.7647 50.6465C40.7471 47.5352 40.7735 45.8828 40.8351 45.7158C40.8879 45.5752 41.0463 45.4258 41.2312 45.3467C41.3984 45.2764 41.6976 45.2148 42.2432 45.2148L42.2784 43.6504C42.3048 42.2617 42.3312 42.0156 42.5336 41.3916C42.6656 41.0049 42.9208 40.4512 43.1145 40.1611C43.2993 39.8711 43.6865 39.4141 43.9769 39.1504C44.2673 38.8867 44.7954 38.5176 45.1562 38.333C45.517 38.1484 46.0626 37.9463 46.3794 37.8848C46.6963 37.8145 47.1891 37.7529 47.4795 37.7529ZM43.3873 42.8857V45.2148H45.2354C45.2794 42.4639 45.2882 42.4375 45.5522 41.9629C45.7018 41.6992 45.9834 41.3564 46.1682 41.207C46.353 41.0576 46.7315 40.8906 46.9955 40.8203C47.4003 40.7236 47.5675 40.7236 48.0075 40.8203C48.3332 40.8906 48.6676 41.04 48.8788 41.207C49.0636 41.3564 49.3452 41.6992 49.4948 41.9629C49.7588 42.4375 49.7676 42.4639 49.7852 43.8262L49.8116 45.2148H51.6597C51.6597 43.4746 51.6157 42.7275 51.5717 42.4199C51.2959 40.8587 49.7168 38.7668 47.4355 38.8867C45.1542 39.0066 43.3873 40.8538 43.3873 42.8857ZM46.3794 42.7715C46.3266 42.9297 46.2914 43.5449 46.2914 44.1338V45.2148H48.7556C48.7556 43.5449 48.7204 42.9297 48.6676 42.7715C48.6148 42.5957 48.3948 42.1738 48.2276 42.0947C47.9107 41.8486 47.5587 41.7871 47.5059 41.7871C47.4443 41.7959 47.0219 42.0244 46.8899 42.0947C46.7491 42.1738 46.4322 42.6133 46.3794 42.7715ZM41.8736 50.5498L41.8912 54.6191H53.1558L53.0766 46.4365C45.0154 46.4102 41.944 46.4189 41.9088 46.4365C41.8824 46.4541 41.8648 48.502 41.8736 50.5498ZM44.9626 48.291H50.0757L50.5157 48.7305V50.4883C50.5157 52.2197 50.5157 52.2461 50.0933 52.7295H44.9538L44.7426 52.4834C44.5313 52.2461 44.5313 52.2197 44.5313 50.4883C44.5401 48.7393 44.5401 48.7217 44.7514 48.5107L44.9626 48.291ZM45.5874 51.6309H49.3716V49.4336H45.5874V51.6309Z" fill="black"/>
</g>
<defs>
<clipPath id="clip0_181695_14383">
<rect width="95" height="95" fill="white"/>
</clipPath>
</defs>
</svg>
