<svg width="95" height="95" viewBox="0 0 95 95" fill="none" xmlns="http://www.w3.org/2000/svg">
<g clip-path="url(#clip0_181695_14351)">
<path d="M47.05 93.14C72.4827 93.14 93.1 72.5138 93.1 47.07C93.1 21.6262 72.4827 1 47.05 1C21.6173 1 1 21.6262 1 47.07C1 72.5138 21.6173 93.14 47.05 93.14Z" fill="white"/>
<path d="M47.55 94.14C73.2591 94.14 94.1 73.2897 94.1 47.57C94.1 21.8503 73.2591 1 47.55 1C21.8409 1 1 21.8503 1 47.57C1 73.2897 21.8409 94.14 47.55 94.14Z" stroke="#2E3192" stroke-opacity="0.2" stroke-linejoin="round"/>
<path opacity="0.6" d="M47.09 88.18C69.7834 88.18 88.18 69.7834 88.18 47.09C88.18 24.3966 69.7834 6 47.09 6C24.3966 6 6 24.3966 6 47.09C6 69.7834 24.3966 88.18 47.09 88.18Z" fill="#C8DCFE"/>
<path fill-rule="evenodd" clip-rule="evenodd" d="M47.148 26C49.092 26 49.404 26.0363 49.596 26.2176C49.788 26.3988 49.812 26.6768 49.8 28.804C49.8 31.0763 49.788 31.2092 49.56 31.318C49.428 31.3905 48.36 31.4388 47.16 31.4388C45.96 31.4388 44.892 31.3905 44.76 31.318C44.532 31.2092 44.52 31.0642 44.496 28.8161C44.484 26.6647 44.496 26.423 44.7 26.2176C44.892 26.0242 45.144 26 47.148 26ZM45.24 30.7137H49.08V26.846H45.24V30.7137ZM39.72 57.3036V57.9079L31.74 58.0288L27.72 67.2748H66.42L62.556 57.9683L54.6 57.9079V57.1827H58.74C61.956 57.1827 62.916 57.219 63.024 57.3399C63.108 57.4245 64.116 59.6846 65.244 62.3557C66.384 65.0268 67.32 67.299 67.32 67.3957C67.32 67.4924 67.2 67.8791 66.54 68L27.96 67.9396C27.12 67.9396 27 67.4924 27 67.3957C27 67.299 27.936 65.0268 29.064 62.3557C30.204 59.6846 31.104 57.8717 31.26 57.6662C31.44 57.4849 31.5 57.4132 31.86 57.364L39.72 57.3036ZM59.94 28.0547C62.004 28.0547 62.172 28.0668 62.4 28.2964C62.604 28.5019 62.64 28.6953 62.64 30.8345H64.464C65.784 30.8345 66.348 30.8708 66.456 30.9796C66.564 31.1004 66.6 31.886 66.6 34.1945C66.6 37.2161 66.6 37.2403 66.324 37.4216C66.12 37.5666 65.676 37.6029 62.64 37.6029V38.2918C62.64 38.7148 62.568 39.1016 62.46 39.2587C62.28 39.5246 62.22 39.5367 60.264 39.5367C58.8 39.5367 58.224 39.5004 58.104 39.3917C57.996 39.2708 57.96 38.6906 57.96 37.2403C57.96 35.524 57.996 35.2219 58.176 35.0285C58.332 34.8714 58.56 34.8109 59.88 34.823V33.4935H58.764C57.888 33.4935 57.612 33.4452 57.444 33.276C57.252 33.0947 57.228 32.8288 57.24 30.8104C57.24 28.7073 57.252 28.526 57.48 28.2964C57.708 28.0668 57.876 28.0547 59.94 28.0547ZM57.936 30.8587L57.96 32.8892H59.88C59.88 32.2849 59.964 31.2576 60.06 31.1004C60.192 30.9071 60.372 30.8224 60.744 30.8104L61.86 30.7741V28.9612C59.892 28.9128 58.08 28.937 58.02 28.9732C57.972 29.0216 57.924 30.1335 57.936 30.8587ZM60.6 36.8777H65.88V31.5597H60.6V36.8777ZM58.68 38.8115H61.98V37.6029C61.692 37.6029 60.564 37.6875 60.36 37.482C60.156 37.2765 59.94 36.9865 59.94 36.6964C59.94 36.3217 59.88 35.4878 59.88 35.4878C59.58 35.4878 58.68 35.4878 58.68 35.4878V38.8115ZM34.08 30.1094C35.628 30.1094 36.036 30.1456 36.18 30.2906C36.324 30.4357 36.36 30.8587 36.36 32.5266C36.36 34.4604 36.348 34.5934 36.12 34.7022C35.988 34.7747 35.016 34.823 33.96 34.823C32.1 34.823 32.04 34.8109 31.86 34.5571C31.716 34.3396 31.68 33.8803 31.68 32.442C31.68 30.7499 31.704 30.5686 31.92 30.3511C32.136 30.1335 32.316 30.1094 34.08 30.1094ZM32.376 33.1551L32.4 34.0978H35.64V30.8345C34.188 30.8345 32.52 30.8708 32.46 30.9191C32.4 30.9554 32.364 32.6354 32.376 33.1551ZM33.708 36.8777C36.336 36.8777 36.684 36.9019 36.876 37.0953C37.068 37.2765 37.092 37.5787 37.08 40.2619C37.08 42.8967 37.056 43.2472 36.864 43.4406C36.684 43.6219 36.432 43.6581 33 43.646V44.8305C33 45.5919 32.952 46.0512 32.856 46.16C32.748 46.2688 32.088 46.305 30.372 46.305C28.632 46.305 27.984 46.2688 27.864 46.16C27.756 46.0391 27.72 45.3865 27.72 43.646C27.72 41.954 27.756 41.2409 27.864 41.1442C27.96 41.0354 28.404 40.9871 30.36 40.9871L30.336 39.1499C30.324 37.5183 30.336 37.3007 30.54 37.0953C30.732 36.9019 31.008 36.8777 33.708 36.8777ZM31.08 42.9209H36.36V37.6029H31.08V42.9209ZM28.44 45.5799H32.28V43.646C31.548 43.6581 30.696 43.5735 30.576 43.4406C30.456 43.3197 30.36 43.0296 30.36 42.7758V41.7122H28.44V45.5799ZM58.62 46.4259C60.024 46.4622 60.276 46.3896 60.432 46.6072C60.564 46.7885 60.54 47.2478 60.54 48.4201C60.54 49.7376 60.54 49.9309 60.36 50.1122C60.18 50.2935 59.964 50.3056 58.62 50.2935C57.456 50.2935 57.12 50.3419 56.94 50.2089C56.724 50.0518 56.7 49.5683 56.7 49.5683V46.9094C56.7 46.4259 57.108 46.4259 58.62 46.4259ZM57.36 49.6892H59.88V47.1511H57.36V49.6892ZM45.48 51.1396H46.32V55.1281H45.48V51.1396ZM48.36 51.1396H49.2V55.8532H48.36V51.1396ZM42.6 51.7439H43.44V58.5122H42.6V51.7439ZM50.88 52.4691H51.72V58.5122H50.88V52.4691ZM46.32 56.4576V57.9079H45.54V56.4576H46.32ZM48.36 57.1827H49.2V62.6216H48.36V57.1827ZM45.48 59.2374H46.32V62.6216H45.48V59.2374ZM42.6 59.8417H43.44V61.2921H42.6V59.8417ZM50.88 59.8417H51.72V61.2921H50.88V59.8417Z" fill="black" stroke="black" stroke-width="0.25"/>
<path d="M55.2341 39.7356L55.2343 39.7359C55.5051 40.2004 55.3467 40.7999 54.8764 41.0744C54.1745 41.483 53.7132 42.0877 53.7136 42.7922C53.714 43.4973 54.1766 44.1008 54.8802 44.5069C55.3465 44.776 55.5089 45.3821 55.2439 45.8537L54.5586 47.0401C54.2877 47.5091 53.6819 47.668 53.218 47.4003C52.5147 46.9944 51.7598 46.8952 51.1491 47.2487C50.5387 47.602 50.2481 48.3059 50.2489 49.1194C50.2489 49.6545 49.8068 50.0983 49.2682 50.0962L49.2679 50.0962L47.7139 50.0909L47.7139 50.0909L47.7054 50.091C47.2773 50.0968 46.9143 49.7443 46.9073 49.2936L46.9072 49.1258L46.9072 49.1256C46.9062 48.3121 46.6145 47.6082 46.0037 47.2557C45.3925 46.903 44.6381 47.0037 43.9358 47.4121C43.9355 47.4123 43.9352 47.4124 43.9349 47.4126L43.7912 47.4954C43.3972 47.7146 42.9104 47.5766 42.7014 47.2031L42.7014 47.2031L42.6972 47.1958L41.9157 45.8532L41.9155 45.8529C41.6449 45.3888 41.8028 44.7899 42.2723 44.515C42.9771 44.109 43.4412 43.5057 43.4421 42.8009C43.443 42.0956 42.9796 41.4917 42.2763 41.0859C41.8086 40.8159 41.6494 40.2105 41.9181 39.7453L42.6047 38.5565C42.8756 38.0876 43.4814 37.9286 43.9453 38.1964C44.6485 38.6022 45.4031 38.7013 46.0132 38.3491C46.6232 37.9968 46.9131 37.2949 46.9104 36.4845C46.9142 35.9396 47.3591 35.4983 47.8951 35.5005L47.8954 35.5005L49.4494 35.5057L49.4494 35.5058L49.4578 35.5057C49.8905 35.4998 50.2452 35.8554 50.2425 36.2884L50.2425 36.2884L50.2425 36.2919L50.2426 36.463L50.2426 36.4633C50.2436 37.2768 50.5353 37.9806 51.1461 38.3331C51.7573 38.6859 52.5117 38.5851 53.214 38.1767C53.2143 38.1766 53.2146 38.1764 53.2149 38.1762L53.3585 38.0935C53.7525 37.8742 54.2394 38.0122 54.4484 38.3857L54.4483 38.3857L54.4526 38.3931L55.2341 39.7356ZM45.9515 41.2805C45.1152 42.7282 45.6125 44.589 47.0603 45.4245C48.508 46.26 50.3688 45.7601 51.205 44.3123C52.0413 42.8645 51.544 41.0037 50.0963 40.1682C48.6485 39.3327 46.7877 39.8327 45.9515 41.2805Z" stroke="black"/>
</g>
<defs>
<clipPath id="clip0_181695_14351">
<rect width="95" height="95" fill="white"/>
</clipPath>
</defs>
</svg>
