<svg width="22" height="23" viewBox="0 0 22 23" fill="none" xmlns="http://www.w3.org/2000/svg">
<path d="M15.7143 14.4571L22 21.0286L20.1143 23L13.8286 16.4286V15.3903L13.4891 15.0223C12.056 16.3103 10.1954 17.0857 8.17143 17.0857C6.00423 17.0857 3.9258 16.1857 2.39336 14.5836C0.860916 12.9815 0 10.8086 0 8.54286C0 6.27715 0.860916 4.10424 2.39336 2.50214C3.9258 0.900048 6.00423 0 8.17143 0C10.3386 0 12.4171 0.900048 13.9495 2.50214C15.4819 4.10424 16.3429 6.27715 16.3429 8.54286C16.3429 10.6589 15.6011 12.604 14.3691 14.1023L14.7211 14.4571H15.7143ZM8.17143 14.4571C11.3143 14.4571 13.8286 11.8286 13.8286 8.54286C13.8286 5.25714 11.3143 2.62857 8.17143 2.62857C5.02857 2.62857 2.51429 5.25714 2.51429 8.54286C2.51429 11.8286 5.02857 14.4571 8.17143 14.4571ZM11.3143 9.2H8.8V11.8286H7.54286V9.2H5.02857V7.88571H7.54286V5.25714H8.8V7.88571H11.3143V9.2Z" fill="#2E3192"/>
</svg>
