<svg width="78" height="78" viewBox="0 0 78 78" fill="none" xmlns="http://www.w3.org/2000/svg">
<circle cx="38.97" cy="38.97" r="37.97" fill="white"/>
<circle cx="38.97" cy="38.97" r="38.47" stroke="#2E3192" stroke-opacity="0.2" stroke-linejoin="round"/>
<circle opacity="0.6" cx="38.89" cy="38.89" r="33.89" fill="#C8DCFE"/>
<g clip-path="url(#clip0_1807_5011)">
<path d="M59.0007 44.9849C58.9213 45.1873 58.8557 45.3964 58.7595 45.59C58.6413 45.8275 58.4526 46.009 58.2282 46.15C54.3188 48.6023 50.4282 51.0859 46.447 53.4198C44.822 54.3737 43.1735 55.2921 41.4513 56.0651C40.772 56.3704 40.0788 56.6389 39.3576 56.8313C38.5598 57.0441 37.7638 57.024 36.9601 56.8761C35.9873 56.6966 35.077 56.3171 34.1476 55.9987C33.3951 55.7418 32.636 55.504 31.8704 55.2855C31.3121 55.1301 30.7305 55.0761 30.1532 55.126C29.2663 55.1968 28.3798 55.2733 27.4813 55.3485C27.4732 55.4425 27.4701 55.5306 27.4576 55.6164C27.3363 56.4452 26.7229 56.9892 25.8616 56.9952C24.1116 57.0049 22.3616 56.9993 20.6116 56.9977C19.8057 56.9977 19.1601 56.4612 19.0282 55.6932C19.022 55.6739 19.0131 55.6556 19.002 55.6387V40.817C19.0645 40.6428 19.1091 40.4576 19.1963 40.2959C19.4891 39.7535 19.9551 39.4724 20.5688 39.4702C22.3501 39.4642 24.1313 39.4674 25.9126 39.4702C26.0322 39.4711 26.1514 39.4853 26.2679 39.5128C26.6032 39.5899 26.9033 39.777 27.1205 40.0444C27.3377 40.3119 27.4596 40.6445 27.467 40.9893C27.4741 41.2641 27.467 41.5396 27.467 41.8323C27.7629 41.8066 28.037 41.7878 28.3107 41.7577C29.2298 41.6565 30.0882 41.8736 30.9176 42.2478C31.4066 42.4671 31.8938 42.6927 32.3863 42.908C33.2301 43.2781 34.091 43.3533 35.0082 43.1678C36.851 42.7939 38.7082 42.4768 40.5632 42.1469C41.5785 41.9661 42.5338 42.1193 43.3926 42.7244C43.836 43.0377 44.2001 43.4291 44.5101 43.8731C44.5932 43.9925 44.6745 44.1135 44.7635 44.2438C44.9623 44.1526 45.1551 44.0646 45.3473 43.975C47.4098 43.0142 49.4688 42.0435 51.5376 41.0949C53.0707 40.3921 54.5913 40.471 56.0741 41.2607C57.2391 41.8808 58.092 42.8275 58.7707 43.9386C58.8816 44.1204 58.927 44.3429 59.0016 44.5462L59.0007 44.9849ZM45.2163 45.0203C45.4038 45.3487 45.5835 45.6602 45.7588 45.9742C45.9113 46.2471 45.8476 46.4868 45.5788 46.6385C44.0638 47.4955 42.527 48.309 40.9226 48.9858C39.5038 49.5837 38.052 50.0766 36.541 50.3818C36.4299 50.4042 36.315 50.4002 36.2057 50.3702C36.0345 50.3198 35.9226 50.1164 35.9366 49.9359C35.9526 49.7332 36.0929 49.5746 36.3116 49.5286C37.3306 49.3134 38.3327 49.0246 39.3101 48.6643C40.7754 48.1294 42.1795 47.4576 43.5601 46.7359C43.9701 46.5219 44.3726 46.2916 44.7973 46.0582C44.3407 45.3584 44.0182 44.5907 43.462 43.9703C42.7263 43.1496 41.8141 42.8281 40.7332 43.0208C38.8816 43.3511 37.0298 43.6691 35.1882 44.0376C34.1854 44.2382 33.2223 44.2009 32.2788 43.8161C31.7245 43.5899 31.171 43.357 30.6351 43.0913C29.6226 42.5899 28.5685 42.5417 27.4788 42.7491V54.4601C28.1704 54.3975 28.8482 54.3235 29.5282 54.2784C30.0307 54.2449 30.5391 54.2079 31.0395 54.2471C31.9738 54.3166 32.8682 54.5896 33.7473 54.9051C34.8051 55.2858 35.8445 55.7233 36.947 55.9661C37.5291 56.0943 38.1182 56.1604 38.7135 56.0573C39.6098 55.9025 40.4426 55.5559 41.2607 55.1799C43.382 54.1991 45.4082 53.0385 47.3979 51.8186C50.8313 49.7138 54.2441 47.5754 57.6648 45.4499C57.7446 45.4006 57.8193 45.3435 57.8879 45.2795C58.1223 45.0601 58.1829 44.6932 58.0182 44.4181C57.4491 43.4677 56.7329 42.6573 55.7554 42.1118C54.4854 41.403 53.1835 41.3083 51.8491 41.9322C50.1979 42.7052 48.5454 43.4747 46.8916 44.2407C46.3398 44.4955 45.7882 44.7533 45.2163 45.0203ZM26.5785 48.2635C26.5785 46.5142 26.5785 44.7648 26.5785 43.0155C26.5785 42.3836 26.5812 41.7517 26.5866 41.12C26.5882 40.8593 26.5054 40.6412 26.2898 40.4801C26.1413 40.3692 25.9732 40.3592 25.7995 40.3592H20.6745C20.607 40.3592 20.5345 40.3501 20.4726 40.3708C20.3573 40.4093 20.2354 40.4497 20.1382 40.5202C19.917 40.6804 19.886 40.9238 19.886 41.1783C19.886 45.8786 19.886 50.5789 19.886 55.2793C19.886 55.3106 19.886 55.3419 19.886 55.3733C19.901 55.8408 20.1713 56.1075 20.6382 56.1078C22.3674 56.109 24.0965 56.109 25.8257 56.1078C26.3088 56.1078 26.5757 55.8329 26.5757 55.3457L26.5785 48.2635Z" fill="black"/>
<path d="M36.4299 36.747C36.4299 37.687 36.4331 38.6271 36.4259 39.5671C36.4253 39.6853 36.3945 39.8014 36.3365 39.9043C36.2896 39.9806 36.2192 40.0395 36.1361 40.0722C36.0529 40.1049 35.9614 40.1097 35.8752 40.0857C35.7847 40.0599 35.704 40.0072 35.6439 39.9344C35.5838 39.8617 35.5472 39.7724 35.5387 39.6784C35.5334 39.6214 35.5359 39.5637 35.5359 39.5064C35.5359 37.7257 35.5359 35.9449 35.5359 34.164C35.5359 33.3727 35.1296 32.7539 34.3974 32.5032C34.144 32.4161 33.8556 32.4302 33.5827 32.4032C33.5515 32.4004 33.5149 32.4267 33.489 32.4484C33.0856 32.7699 32.6174 32.9297 32.114 32.9983C31.3502 33.1023 30.6074 33.0415 29.9052 32.6959C29.8074 32.6476 29.7031 32.5988 29.6271 32.5245C29.5099 32.4095 29.3771 32.3992 29.2277 32.3992C28.8335 32.389 28.448 32.5159 28.1366 32.7585C27.8251 33.001 27.607 33.3442 27.5193 33.7297C27.4855 33.8923 27.4687 34.058 27.469 34.2241C27.4652 35.3626 27.4671 36.501 27.4668 37.6397C27.4692 37.7024 27.467 37.7653 27.4602 37.8277C27.4425 37.9341 27.3872 38.0306 27.3045 38.0996C27.2218 38.1686 27.1172 38.2055 27.0096 38.2037C26.9022 38.1985 26.8004 38.1543 26.7231 38.0794C26.6458 38.0044 26.5984 37.9038 26.5896 37.7964C26.5874 37.7704 26.5865 37.7444 26.5865 37.7184C26.5865 36.4753 26.5781 35.2322 26.5921 33.9894C26.6059 32.7893 27.5943 31.6925 28.7852 31.5453C29.0834 31.5083 29.3877 31.5117 29.689 31.5139C29.7749 31.5139 29.8893 31.55 29.9418 31.6114C30.2399 31.9611 30.6449 32.0651 31.0668 32.1196C31.5737 32.1851 32.0787 32.1607 32.5571 31.963C32.7162 31.8978 32.8637 31.7878 32.9946 31.6725C33.1152 31.5656 33.2349 31.5061 33.3974 31.5048C33.8574 31.5011 34.3181 31.5001 34.7512 31.6797C35.7256 32.0839 36.3068 32.8096 36.4018 33.866C36.4574 34.4827 36.4246 35.1075 36.4296 35.7289C36.4321 36.0682 36.4299 36.4076 36.4299 36.747Z" fill="black"/>
<path d="M44.0971 36.395C44.0971 35.6429 44.094 34.8908 44.0971 34.1388C44.103 32.969 44.7802 32.0023 45.8571 31.6179C46.3143 31.4546 46.789 31.4612 47.2633 31.4859C47.3505 31.4903 47.4549 31.5549 47.5155 31.6235C47.7083 31.8428 47.953 31.9525 48.2271 32.018C48.8546 32.1681 49.4771 32.1628 50.0843 31.9303C50.239 31.8707 50.3805 31.7595 50.5068 31.6483C50.633 31.537 50.7543 31.474 50.9233 31.4737C51.3462 31.4737 51.7671 31.4737 52.1733 31.6113C53.2433 31.9729 53.9324 32.9227 53.9452 34.1015C53.9593 35.4176 53.9471 36.7337 53.9499 38.0498C53.9499 38.2691 53.8583 38.4224 53.6652 38.5113C53.5068 38.584 53.2874 38.5427 53.1858 38.3923C53.1115 38.2819 53.0697 38.1528 53.0652 38.0197C53.0565 36.7092 53.0633 35.3988 53.0583 34.0883C53.0552 33.2636 52.5012 32.5711 51.713 32.4103C51.5212 32.3712 51.3196 32.379 51.1224 32.3715C51.0813 32.372 51.0416 32.3863 51.0096 32.4122C50.6121 32.7475 50.1365 32.8913 49.6368 32.9653C48.8737 33.0781 48.1321 33.0038 47.428 32.6667C47.3649 32.6417 47.3058 32.6077 47.2524 32.5658C46.9002 32.2389 46.5002 32.3423 46.1252 32.4736C45.4083 32.7243 44.9943 33.351 44.993 34.1259C44.9903 35.6764 44.9903 37.227 44.993 38.7777C44.993 38.997 44.9396 39.1794 44.7193 39.2759C44.4821 39.38 44.1999 39.2562 44.1305 39.0068C44.1084 38.9211 44.0979 38.8329 44.0993 38.7445C44.0962 37.9614 44.0971 37.178 44.0971 36.395Z" fill="black"/>
<path d="M37.5391 23.2268C37.5806 22.8132 37.5809 22.3904 37.6712 21.9878C37.9566 20.7146 39.3006 19.8256 40.5819 20.029C41.7278 20.2114 42.5506 20.9691 42.8222 22.0971C42.8606 22.2595 42.8797 22.4259 42.8791 22.5929C42.8772 23.1296 42.9103 23.6727 42.8419 24.2019C42.6903 25.3635 41.7931 26.2422 40.6381 26.429C39.0922 26.6796 37.5756 25.4961 37.5756 23.777V23.2305L37.5391 23.2268ZM42.0212 23.245L41.9984 23.2431C41.9984 23.0604 41.9984 22.8777 41.9984 22.695C42 22.3647 41.9114 22.0402 41.7422 21.7568C41.557 21.4488 41.2831 21.2043 40.9566 21.0554C40.6301 20.9066 40.2663 20.8604 39.9131 20.923C39.1878 21.0543 38.5828 21.639 38.5003 22.3657C38.4447 22.8608 38.4619 23.3656 38.4691 23.8654C38.4703 24.0803 38.5138 24.2928 38.5969 24.4908C38.6801 24.6888 38.8013 24.8685 38.9538 25.0195C39.4309 25.5077 40.0097 25.68 40.6659 25.5111C41.3441 25.3369 41.7816 24.8879 41.9378 24.207C42.0103 23.8967 41.9962 23.5661 42.0212 23.2459V23.245Z" fill="black"/>
<path d="M46.3359 27.8402C46.3803 27.4216 46.3813 26.9926 46.4775 26.5868C46.7794 25.313 48.1244 24.4626 49.415 24.6591C50.0511 24.7576 50.6306 25.0824 51.0476 25.5741C51.4646 26.0658 51.6912 26.6916 51.6859 27.337C51.6825 27.8167 51.7022 28.3002 51.6519 28.7756C51.5209 30.009 50.48 30.9866 49.2425 31.0781C47.7113 31.1912 46.43 30.0419 46.3778 28.5027C46.3703 28.2833 46.3778 28.064 46.3778 27.8446L46.3359 27.8402ZM47.2338 27.8487L47.2719 27.8515C47.2719 28.0862 47.2603 28.3215 47.2741 28.5556C47.3288 29.4844 48.0997 30.1985 49.0356 30.1963C49.9625 30.1938 50.7463 29.4612 50.7856 28.5403C50.8047 28.0818 50.7966 27.6218 50.7856 27.1615C50.7772 26.8616 50.6808 26.5707 50.5084 26.3255C50.0869 25.7173 49.5009 25.4396 48.7719 25.5465C48.0347 25.6549 47.5338 26.0883 47.3409 26.8115C47.2525 27.1433 47.2663 27.5021 47.2338 27.8487Z" fill="black"/>
<path d="M28.8125 27.8904C28.8544 27.4765 28.8544 27.0532 28.9462 26.6505C29.2422 25.3526 30.5959 24.4736 31.9044 24.6967C33.2247 24.922 34.1319 25.9624 34.1566 27.3029C34.1659 27.824 34.1762 28.3498 34.1191 28.8662C33.9897 30.0303 32.9509 31.0049 31.785 31.1051C30.1687 31.244 28.8738 30.0632 28.8491 28.4269C28.8463 28.2492 28.8491 28.0719 28.8491 27.8942L28.8125 27.8904ZM29.7441 27.8861H29.7475C29.7475 28.1104 29.7416 28.3351 29.7475 28.5591C29.7731 29.3942 30.4706 30.1403 31.2966 30.2199C32.1934 30.3077 33.0628 29.7427 33.2009 28.891C33.2947 28.321 33.2947 27.7241 33.25 27.1462C33.1731 26.1654 32.3528 25.5039 31.3697 25.5575C30.4666 25.6067 29.7609 26.3722 29.7447 27.3214C29.7397 27.5103 29.7425 27.698 29.7425 27.8861H29.7441Z" fill="black"/>
<path d="M40.3588 28.3794C39.6829 28.3822 39.1513 28.302 38.6551 28.0551C38.5532 28.0043 38.4463 27.9507 38.3647 27.8736C38.2438 27.7586 38.1107 27.738 37.9529 27.7398C36.9666 27.7521 36.2463 28.438 36.1926 29.4247C36.1769 29.7086 35.9866 29.9092 35.7391 29.902C35.4801 29.8945 35.3016 29.6826 35.3088 29.3881C35.3401 27.9708 36.4782 26.8684 37.9338 26.8449C38.0432 26.843 38.1526 26.849 38.2619 26.8449C38.4735 26.8346 38.6369 26.9107 38.7869 27.0671C39.0369 27.3293 39.3807 27.4099 39.7213 27.4575C40.2526 27.5318 40.7838 27.5202 41.2869 27.3033C41.4451 27.235 41.5782 27.11 41.7269 27.0172C41.826 26.9546 41.9294 26.8646 42.036 26.8571C42.7794 26.8045 43.4944 26.8938 44.1088 27.371C44.7807 27.8931 45.1269 28.5834 45.1513 29.4341C45.1551 29.5505 45.1142 29.6639 45.037 29.7509C44.9598 29.8379 44.8523 29.8919 44.7366 29.9017C44.5141 29.922 44.3097 29.7491 44.2679 29.5075C44.2335 29.3025 44.2222 29.0901 44.1591 28.8945C43.9469 28.2287 43.3132 27.7721 42.6185 27.7417C42.3976 27.732 42.2169 27.773 42.0301 27.9116C41.5904 28.2362 40.9735 28.3791 40.3588 28.3794Z" fill="black"/>
</g>
<defs>
<clipPath id="clip0_1807_5011">
<rect width="40" height="37" fill="white" transform="translate(19 20)"/>
</clipPath>
</defs>
</svg>
