<svg width="78" height="78" viewBox="0 0 78 78" fill="none" xmlns="http://www.w3.org/2000/svg">
<circle cx="38.97" cy="38.97" r="37.97" fill="white"/>
<circle cx="38.97" cy="38.97" r="38.47" stroke="#2E3192" stroke-opacity="0.2" stroke-linejoin="round"/>
<circle opacity="0.6" cx="38.89" cy="38.89" r="33.89" fill="#C8DCFE"/>
<g clip-path="url(#clip0_1807_4979)">
<path d="M36.3002 53.1966H22.5141C22.4339 53.1966 22.3537 53.1966 22.2735 53.1966C20.8343 53.1593 20 52.2954 20 50.8339C20 42.4707 20 34.108 20 25.7458C20 24.2559 20.8255 23.3912 22.2959 23.3661C23.1647 23.3498 24.0343 23.3604 24.9039 23.3661C25.0363 23.3661 25.1935 23.3612 25.2938 23.4278C25.4093 23.509 25.5449 23.6624 25.5417 23.7818C25.5385 23.9011 25.3989 24.0643 25.2786 24.1252C25.1454 24.1926 24.9657 24.1772 24.8069 24.178C23.8971 24.178 22.9874 24.178 22.0793 24.178C21.7429 24.181 21.4211 24.3175 21.1832 24.5581C20.9452 24.7988 20.8102 25.1244 20.807 25.4649C20.8038 27.6164 20.8038 29.7683 20.807 31.9204C20.807 32.3913 21.0477 32.5943 21.586 32.5943H50.6317C50.8723 32.5943 51.113 32.5983 51.3537 32.5943C51.7644 32.5894 52.0147 32.3361 52.0147 31.918C52.0147 29.7664 52.0147 27.6145 52.0147 25.4624C52.0147 25.1218 51.8815 24.7949 51.6441 24.5533C51.4068 24.3117 51.0846 24.175 50.748 24.1731C49.9193 24.165 49.0898 24.1731 48.2611 24.1731C48.128 24.1731 47.9715 24.2048 47.8665 24.1471C47.7116 24.0619 47.5929 23.9092 47.4589 23.7858C47.5841 23.6543 47.6916 23.4935 47.84 23.4018C47.9411 23.3393 48.0999 23.3653 48.2331 23.3653C49.0224 23.3653 49.8118 23.3498 50.6004 23.3653C51.9585 23.3961 52.8113 24.2462 52.8177 25.6135C52.8322 28.7393 52.8225 31.8652 52.8177 34.9919C52.8177 35.0828 52.7993 35.1729 52.7856 35.3028L51.9995 35.1023C51.9995 34.758 51.9995 34.4219 51.9995 34.0858C51.9995 33.6368 51.7588 33.394 51.3112 33.394H21.4592C21.0228 33.394 20.7982 33.6173 20.7982 34.0574C20.7982 39.7408 20.7982 45.4241 20.7982 51.1075C20.7982 51.8066 21.3718 52.3603 22.0898 52.3603C26.5169 52.3603 30.944 52.3603 35.3712 52.3603C36.1028 52.362 36.1028 52.362 36.3002 53.1966Z" fill="black"/>
<path d="M38.5605 48.1914C38.6889 42.5575 42.8323 38.3737 48.2882 38.3672C53.6044 38.3599 57.9949 42.3902 57.9998 48.1792C58.0046 53.9681 53.6245 58.0033 48.3026 58.0033C42.7986 58.0001 38.6969 53.7708 38.5605 48.1914ZM48.2737 57.2523C53.2114 57.3863 57.2641 52.9175 57.2858 48.2263C57.3067 43.436 53.168 39.0971 48.3171 39.0857C43.4845 39.0744 39.3202 43.3613 39.3002 48.1434C39.2801 52.9938 43.4589 57.3741 48.2737 57.2515V57.2523Z" fill="black"/>
<path d="M44.6329 23.6918C44.6329 24.5565 44.6329 25.4212 44.6329 26.2899C44.6329 27.0263 44.2318 27.4128 43.5042 27.4022C42.7766 27.3917 42.4092 27.0296 42.406 26.2989C42.3985 24.5706 42.3985 22.8415 42.406 21.1115C42.406 20.3719 42.8071 19.9943 43.5371 20.0041C44.2671 20.0138 44.6313 20.3824 44.6329 21.1408C44.6346 21.99 44.6329 22.8409 44.6329 23.6918Z" fill="black"/>
<path d="M30.3554 23.7138C30.3554 24.5801 30.3602 25.4464 30.3554 26.3119C30.3506 27.0231 29.9543 27.408 29.2444 27.4007C28.5344 27.3934 28.155 27.0369 28.1518 26.3411C28.1421 24.5679 28.1421 22.7949 28.1518 21.0223C28.1518 20.3565 28.5464 20.0057 29.2379 20.0001C29.9423 19.9944 30.345 20.3565 30.353 21.0336C30.3651 21.9267 30.3554 22.8207 30.3554 23.7138Z" fill="black"/>
<path d="M36.3469 24.1677C35.4797 24.1677 34.6125 24.1677 33.7453 24.1677C33.5993 24.1677 33.4301 24.1888 33.3145 24.123C33.1854 24.0492 33.0258 23.886 33.0274 23.7642C33.029 23.6424 33.1918 23.4873 33.321 23.4077C33.422 23.3444 33.5793 23.3615 33.7116 23.3615C35.4594 23.3615 37.2072 23.3615 38.9549 23.3615C39.0215 23.3615 39.0889 23.3615 39.1555 23.3615C39.4098 23.385 39.6552 23.4492 39.652 23.7674C39.6488 24.0857 39.4114 24.1612 39.149 24.162C38.2153 24.1677 37.2815 24.162 36.3469 24.162V24.1677Z" fill="black"/>
<path d="M24.1992 37.6521V36.9043H27.8356V37.6513L24.1992 37.6521Z" fill="black"/>
<path d="M27.8537 41.9832C27.8609 42.1456 27.8705 42.269 27.8705 42.3892C27.8705 42.4955 27.8593 42.6011 27.8513 42.7399H24.2148V41.9824L27.8537 41.9832Z" fill="black"/>
<path d="M24.2432 47.0977H27.8531V47.8852H24.8176C24.1068 47.8852 24.0827 47.8552 24.2432 47.0977Z" fill="black"/>
<path d="M34.7557 36.9102V37.6815H31.6671C31.0366 37.6815 30.9877 37.6125 31.1425 36.9102H34.7557Z" fill="black"/>
<path d="M34.7773 47.0977V47.8665H31.1465V47.1001L34.7773 47.0977Z" fill="black"/>
<path d="M31.1674 41.9727H34.7445C34.7614 42.122 34.779 42.2641 34.7934 42.4054C34.8199 42.679 34.7132 42.7838 34.426 42.7789C33.5187 42.7626 32.6106 42.7724 31.7025 42.7724C31.0383 42.7724 30.9877 42.7018 31.1674 41.9727Z" fill="black"/>
<path d="M41.7374 36.9121C41.1759 37.4163 40.6945 37.793 39.9725 37.694C39.5145 37.6315 39.0412 37.6826 38.5743 37.6826C37.9397 37.6826 37.8932 37.6177 38.0456 36.9121H41.7374Z" fill="black"/>
<path d="M46.4473 50.6726V44.5605H47.738C47.7452 44.7108 47.7573 44.8536 47.7573 44.9974C47.7573 46.2282 47.7573 47.4591 47.7573 48.6899C47.7573 49.1487 47.9851 49.3744 48.4408 49.3752H51.8349V50.6743L46.4473 50.6726Z" fill="black"/>
</g>
<defs>
<clipPath id="clip0_1807_4979">
<rect width="38" height="38" fill="white" transform="translate(20 20)"/>
</clipPath>
</defs>
</svg>
