<svg width="78" height="78" viewBox="0 0 78 78" fill="none" xmlns="http://www.w3.org/2000/svg">
<ellipse cx="38.97" cy="38.98" rx="37.97" ry="37.98" fill="white"/>
<path d="M38.97 77.46C60.2165 77.46 77.44 60.2318 77.44 38.98C77.44 17.7282 60.2165 0.5 38.97 0.5C17.7235 0.5 0.5 17.7282 0.5 38.98C0.5 60.2318 17.7235 77.46 38.97 77.46Z" stroke="#2E3192" stroke-opacity="0.2" stroke-linejoin="round"/>
<ellipse opacity="0.6" cx="38.89" cy="38.9" rx="33.89" ry="33.9" fill="#C8DCFE"/>
<path d="M23.2701 36.3671C23.0839 36.2988 22.9005 36.1821 22.7109 36.1713C22.1855 36.1413 21.6564 36.1767 21.1314 36.1471C20.3134 36.1013 19.781 35.7034 19.5993 34.9388C19.0876 32.7934 18.6089 30.638 18.9235 28.408C19.1864 26.5442 19.7743 24.7992 21.0289 23.3563C22.2047 22.0042 23.6985 21.4396 25.4914 21.7288C25.7101 21.7672 25.9334 21.7716 26.1534 21.7417C28.2922 21.4084 30.1868 22.2963 31.313 24.1696C31.4993 24.4792 31.688 24.7871 31.9534 25.2242C32.1089 24.9446 32.2318 24.7909 32.2868 24.6159C33.8459 19.6192 39.7947 18.2826 43.508 21.2188C44.7972 22.238 45.5676 23.5892 45.9484 25.1771C45.9964 25.378 46.1047 25.5646 46.2401 25.8909C46.4193 25.5913 46.538 25.4292 46.6193 25.2505C47.7493 22.7726 50.3659 21.3246 53.0251 21.7117C55.7593 22.1096 57.8359 24.1771 58.2105 26.9201C58.2989 27.5642 58.2572 28.2259 58.3172 28.8755C58.3368 29.0867 58.4334 29.3576 58.5897 29.4771C59.3209 30.0367 59.5034 30.7771 59.4372 31.6413C59.4234 31.8192 59.4747 32.0426 59.5793 32.183C60.3455 33.2109 60.4889 34.308 59.9593 35.4717C59.4514 36.5901 58.5184 37.0313 57.3393 37.0651C57.1726 37.0701 57.0089 37.1434 56.8439 37.1846L56.8309 37.338C57.0155 37.4463 57.1897 37.5796 57.3855 37.6584C58.318 38.0334 59.2568 38.3896 60.193 38.7542C61.943 39.4363 62.8905 40.8184 62.8968 42.7017C62.8997 43.5001 62.8943 44.2984 62.8968 45.0967C62.8968 45.4551 62.8897 45.7867 62.3926 45.7805C61.8955 45.7742 61.8893 45.428 61.8864 45.0813C61.8805 44.3788 61.8864 43.6763 61.8839 42.9734C61.8755 41.3542 61.1197 40.2491 59.6164 39.658C59.1859 39.4884 58.7451 39.3417 58.3284 39.1434C57.9922 38.983 57.7868 39.0755 57.5501 39.3346C56.8914 40.0501 56.2464 40.7876 55.5151 41.4238C54.5834 42.2342 53.4426 42.5905 52.2068 42.6321C51.5847 42.6517 51.5705 42.7196 51.698 43.3009C51.8376 43.9355 51.9526 44.5892 51.9609 45.2359C51.9922 47.5351 51.973 49.8346 51.9734 52.1342C51.9734 52.8226 52.0068 52.8551 52.7151 52.8551C54.184 52.8551 55.6528 52.8551 57.1214 52.8551C57.6851 52.8551 57.7622 52.7788 57.7626 52.2221C57.7626 50.0346 57.7626 47.8471 57.7664 45.6592C57.7664 45.3259 57.7397 44.9559 58.2401 44.9313C58.6318 44.9121 58.7901 45.1059 58.7889 45.4788C58.7859 46.3088 58.7889 47.1392 58.7889 47.9696C58.7889 49.3909 58.8009 50.8121 58.7822 52.2334C58.7759 52.6805 58.9226 52.8805 59.3864 52.8609C59.928 52.838 60.4697 52.8609 61.0143 52.8542C61.5589 52.8476 61.8759 52.5334 61.8805 51.9934C61.8897 50.9234 61.8709 49.8534 61.8947 48.7851C61.8997 48.5717 61.9822 48.2821 62.1347 48.1659C62.4639 47.9138 62.8847 48.1659 62.8889 48.5967C62.9005 49.8421 62.9139 51.0884 62.8834 52.3334C62.8609 53.2501 62.1947 53.8559 61.2076 53.883C60.3143 53.9076 59.4197 53.8909 58.5255 53.8913C56.5616 53.8913 54.5979 53.8913 52.6343 53.8913C52.0334 53.8913 51.9747 53.9513 51.9726 54.5492C51.9726 55.1242 51.9864 55.6992 51.9676 56.2738C51.9259 57.5613 51.1943 58.2934 49.9139 58.298C46.8805 58.3088 43.8468 58.3017 40.8134 58.3021C40.476 58.3021 40.1614 58.2876 40.1468 57.8226C40.133 57.3434 40.4384 57.2771 40.8068 57.2767C42.2918 57.2751 43.7766 57.2751 45.2614 57.2767C45.9359 57.2767 45.9801 57.2351 45.9801 56.5767C45.9801 53.8781 45.9811 51.1794 45.983 48.4805C45.983 48.1351 45.9376 47.7351 46.4693 47.718C46.7689 47.7084 46.9622 47.8351 46.9914 48.1488C47.0064 48.3076 47.0072 48.4676 47.0072 48.6271C47.0072 51.278 47.0072 53.9288 47.0072 56.5796C47.0072 57.2351 47.0489 57.2759 47.7247 57.2763C48.4109 57.2763 49.0976 57.2817 49.7843 57.2763C50.503 57.2692 50.9314 56.8646 50.9322 56.158C50.938 52.4371 50.9501 48.7163 50.9272 44.9959C50.9164 43.2271 49.973 42.023 48.4193 41.2955C47.583 40.9038 46.703 40.6021 45.8301 40.2955C45.693 40.2476 45.4351 40.3417 45.323 40.4576C44.7347 41.0655 44.1805 41.7076 43.6051 42.3263C41.0364 45.0951 36.8039 45.0646 34.278 42.2642C33.7435 41.6713 33.1947 41.0901 32.6676 40.4917C32.4814 40.2805 32.3114 40.2388 32.0426 40.3505C31.1893 40.708 30.2901 40.9713 29.4718 41.3921C28.0409 42.1284 27.1572 43.2955 27.1493 44.9671C27.1318 48.7038 27.1393 52.4405 27.1455 56.1755C27.1455 56.8521 27.5814 57.2646 28.266 57.2726C29.0159 57.2809 29.7659 57.2659 30.5159 57.278C30.9264 57.2846 31.0755 57.1076 31.0743 56.7005C31.0639 53.9538 31.068 51.2071 31.0701 48.4605C31.0701 48.1005 31.0601 47.7234 31.5805 47.7167C31.8551 47.713 32.0484 47.8146 32.0718 48.1176C32.0851 48.2921 32.0955 48.468 32.0955 48.643C32.0972 51.2938 32.0972 53.9446 32.0955 56.5955C32.0955 57.2038 32.1668 57.2742 32.7872 57.2742C34.2243 57.2742 35.6622 57.2617 37.0976 57.2876C37.3314 57.2921 37.6722 57.4046 37.7718 57.5792C38.0018 57.9792 37.7414 58.2971 37.228 58.2996C35.8068 58.3076 34.386 58.3026 32.9651 58.3026C31.4005 58.3026 29.8359 58.3071 28.2714 58.3026C26.8493 58.2976 26.123 57.5709 26.1047 56.1451C26.098 55.6338 26.1047 55.123 26.1047 54.6117C26.1047 53.9213 26.0751 53.893 25.3597 53.893C22.6458 53.893 19.9318 53.893 17.2176 53.893C15.7593 53.893 15.1826 53.3171 15.1826 51.8692C15.1826 48.8673 15.1826 45.8652 15.1826 42.863C15.1826 40.7626 16.0839 39.453 18.0518 38.6909C19.5835 38.0976 21.1176 37.5109 22.6464 36.9092C22.868 36.8217 23.063 36.6676 23.2714 36.5442L23.2701 36.3671ZM16.201 47.2913C16.201 48.8392 16.1976 50.3876 16.201 51.9355C16.201 52.5426 16.5097 52.848 17.1068 52.8521C17.6485 52.8567 18.1922 52.8417 18.7343 52.8567C19.1405 52.868 19.3055 52.7021 19.2993 52.2892C19.283 51.2205 19.2939 50.1509 19.2939 49.0809C19.2939 47.8996 19.2968 46.7188 19.2939 45.5392C19.2939 45.1705 19.3897 44.9142 19.8293 44.928C20.3268 44.9442 20.318 45.303 20.3189 45.6409C20.3239 47.8434 20.3301 50.0459 20.3151 52.2484C20.3118 52.7096 20.491 52.8646 20.9401 52.8601C22.4559 52.8442 23.9718 52.8551 25.4876 52.853C26.0464 52.853 26.1126 52.7821 26.1126 52.2088C26.1126 49.8788 26.0926 47.5484 26.1259 45.2188C26.1351 44.5571 26.2689 43.8909 26.4051 43.2396C26.5064 42.7551 26.4626 42.6438 25.9618 42.6388C24.2922 42.6221 22.8947 41.9926 21.7618 40.7705C21.3172 40.2909 20.8676 39.8151 20.4405 39.3196C20.236 39.0821 20.0485 39.0051 19.7468 39.148C19.3593 39.3317 18.9485 39.4667 18.5476 39.6234C16.9564 40.2455 16.2055 41.3317 16.2022 43.0292C16.1991 44.4509 16.1987 45.8716 16.201 47.2913ZM35.3676 36.2459C34.9118 35.4542 34.4326 34.7709 34.1109 34.0221C33.5922 32.8138 33.7534 31.5101 33.8218 30.2413C33.8347 30.0017 34.1447 29.6713 34.3943 29.568C36.3551 28.7559 37.9418 27.4496 39.3689 25.9163C39.9914 25.2496 40.5672 25.2467 41.2855 25.8205C41.8662 26.2897 42.4811 26.7149 43.1251 27.0926C43.5834 27.358 44.1422 27.4467 44.3776 28.0284C44.4234 28.1421 44.6843 28.253 44.8139 28.2234C44.928 28.1976 45.0639 27.9788 45.0755 27.8363C45.2489 25.6309 44.6905 23.6913 42.9505 22.2113C41.1047 20.6413 39.0068 20.2321 36.7914 21.1851C34.5472 22.1505 33.128 23.9051 33.0393 26.4046C32.928 29.5296 33.0051 32.6592 32.9976 35.7867C32.9976 36.1826 33.1839 36.3767 33.5809 36.3755C34.0434 36.3755 34.5068 36.3876 34.9684 36.3688C35.1251 36.3613 35.2764 36.2759 35.3676 36.2467V36.2459ZM49.3718 35.8196C49.3455 35.7633 49.3153 35.7088 49.2814 35.6567C49.2289 35.5963 49.1733 35.5387 49.1147 35.4842C48.1443 34.593 47.6722 33.478 47.6405 32.1713C47.6264 31.5967 47.6297 31.0217 47.6364 30.4471C47.6455 29.7042 47.803 29.5326 48.558 29.4584C49.5285 29.3634 50.2547 28.8646 50.6897 28.0296C50.9639 27.5042 51.2989 27.2905 51.8614 27.3705C52.5234 27.4642 53.0697 27.2563 53.5564 26.7871C54.0272 26.3342 54.5222 26.4242 54.9601 26.9046C55.2101 27.178 55.5155 27.4421 55.8497 27.5867C56.4597 27.8509 56.558 27.9201 56.5634 28.5963C56.5693 29.4421 56.5289 30.2901 56.5726 31.1338C56.6634 32.8951 56.2868 34.4671 54.8918 35.6671C54.8705 35.6855 54.8664 35.7238 54.8184 35.8384C54.9918 35.9084 55.1622 36.0317 55.3364 36.0371C56.0218 36.0596 56.7093 36.0655 57.3943 36.0371C58.2405 36.0046 58.7847 35.4955 59.0997 34.7676C59.4014 34.0738 59.2518 33.4155 58.6859 32.8926C58.3026 32.538 58.1789 32.1267 58.3468 31.6392C58.5234 31.1267 58.3885 30.6738 57.9497 30.4276C57.3247 30.0742 57.2297 29.5526 57.2697 28.9309C57.2889 28.6288 57.2697 28.3242 57.2734 28.0213C57.2989 26.6638 56.8464 25.4796 55.9372 24.4842C54.7768 23.2117 53.3655 22.4742 51.6039 22.7226C49.0159 23.0876 47.0572 25.2809 47.1039 27.9188C47.1264 29.1321 46.8222 30.2251 46.4076 31.2938C46.1709 31.9038 46.1197 32.4826 46.1185 33.0988C46.1168 33.801 46.1168 34.5034 46.1185 35.2059C46.1185 35.818 46.278 36.0101 46.8893 36.0338C47.5426 36.0596 48.198 36.0592 48.8514 36.0338C49.0268 36.0317 49.1947 35.8984 49.3718 35.8205V35.8196ZM22.4401 34.8596C21.8725 34.1101 21.5562 33.2004 21.5364 32.2605C21.5134 31.3671 21.5247 30.4734 21.5226 29.5796C21.5226 29.1309 21.7247 28.8955 22.1893 28.8059C23.6747 28.5196 24.7047 27.6359 25.3251 26.2726C25.4684 25.9576 25.6139 25.7155 26.0076 25.7242C26.3789 25.7326 26.5143 25.9684 26.648 26.2659C27.273 27.6509 28.3201 28.5284 29.828 28.8117C30.2143 28.8842 30.453 29.0776 30.4422 29.4746C30.383 31.3163 30.8068 33.2376 29.5418 34.8584C30.1122 35.4121 31.0226 35.1763 31.1922 34.4417C31.5576 32.8584 31.9551 31.2676 31.8818 29.6226C31.7809 27.3546 31.1551 25.2826 29.4493 23.6688C28.5697 22.8355 27.5239 22.5276 26.3205 22.7621C26.0589 22.8181 25.7888 22.8223 25.5255 22.7746C24.3089 22.5171 23.2539 22.8163 22.3343 23.6351C20.913 24.8984 20.2726 26.5617 19.9655 28.3751C19.6097 30.4726 20.081 32.5042 20.5668 34.5226C20.731 35.2017 21.8393 35.4046 22.4401 34.8596ZM40.2468 26.6513C40.3205 26.6096 40.2885 26.6196 40.2664 26.6413C38.7722 28.1905 37.1376 29.5413 35.1355 30.4059C34.9743 30.4755 34.8439 30.7667 34.818 30.9688C34.7697 31.3776 34.7943 31.7967 34.8084 32.2109C34.8462 33.3223 35.3128 34.376 36.1105 35.1509C36.9081 35.9258 37.9747 36.3618 39.0868 36.3676C41.2747 36.3896 43.2055 34.4992 43.273 32.2326C43.3072 31.0696 43.2972 29.9042 43.2676 28.7413C43.2626 28.5492 43.101 28.2884 42.931 28.1863C42.0809 27.6688 41.2051 27.1934 40.2468 26.6517V26.6513ZM26.0222 27.5659C25.948 27.6134 25.8972 27.6292 25.873 27.6634C25.1105 28.6813 24.0968 29.328 22.9043 29.7376C22.7497 29.7905 22.5805 30.0576 22.5709 30.2334C22.5375 30.918 22.5386 31.6039 22.5743 32.2884C22.6539 33.8271 23.9876 35.2813 25.463 35.4713C27.1514 35.6884 28.8455 34.6851 29.2409 33.0792C29.4493 32.2305 29.3659 31.3109 29.4372 30.4255C29.4747 29.973 29.2664 29.7717 28.8626 29.6338C27.9289 29.3192 27.0976 28.8288 26.446 28.0692C26.3047 27.9042 26.1668 27.7355 26.0222 27.5659ZM54.2351 27.9013C53.5497 28.0867 52.9534 28.3155 52.338 28.3901C51.9326 28.4392 51.6493 28.5301 51.4484 28.8867C51.0518 29.5905 50.4193 30.0021 49.6776 30.2667C48.6535 30.6321 48.653 30.6309 48.6539 31.7376C48.6539 31.8171 48.6539 31.8967 48.6539 31.9767C48.6518 33.1221 49.1172 34.0434 49.9989 34.7601C51.0405 35.6067 52.2034 35.7555 53.4039 35.213C54.6122 34.6676 55.4251 33.7459 55.5009 32.3646C55.5626 31.2509 55.5426 30.1317 55.5134 29.0159C55.5089 28.8292 55.318 28.6026 55.1518 28.4742C54.8414 28.2351 54.4855 28.0538 54.2351 27.9013ZM42.3601 39.0942C42.1905 38.9634 42.0718 38.8213 41.9214 38.7646C41.4114 38.5738 41.2351 38.1901 41.2159 37.6851C41.1939 37.1017 41.0947 37.0351 40.5176 37.1942C39.5097 37.4726 38.5026 37.4417 37.4989 37.1776C36.9847 37.0421 36.8805 37.1059 36.8664 37.6417C36.8518 38.1863 36.6655 38.5942 36.1076 38.7809C35.9439 38.8359 35.8076 38.973 35.6076 39.1063C36.1593 39.6709 36.6343 40.2101 37.1643 40.6896C37.668 41.1425 38.3226 41.3911 39 41.3869C39.6773 41.3826 40.3287 41.1258 40.8268 40.6667C41.3555 40.1826 41.8297 39.6421 42.3609 39.0942H42.3601ZM23.4226 37.8692C25.3626 40.3942 26.9439 40.1096 28.6001 37.9221C28.5439 37.8542 28.4985 37.7484 28.4226 37.7171C27.9393 37.5176 27.7397 37.1617 27.6993 36.6451C27.6772 36.3634 27.4276 36.3076 27.1472 36.3817C26.3886 36.5861 25.5895 36.5861 24.8309 36.3817C24.4501 36.2805 24.3443 36.4401 24.2547 36.7863C24.181 37.0692 23.9764 37.3246 23.8005 37.5713C23.7164 37.6905 23.5643 37.7617 23.4234 37.8692H23.4226ZM49.4793 37.8996C51.2014 40.2592 52.9609 40.2476 54.6209 37.8859C54.598 37.8501 54.583 37.7938 54.548 37.7742C54.0897 37.518 53.8026 37.1755 53.7814 36.6076C53.7718 36.3463 53.5151 36.3576 53.2609 36.3709C52.5047 36.4092 51.7418 36.4317 50.9889 36.3709C50.5801 36.3367 50.3805 36.3901 50.3534 36.818C50.3293 37.193 50.1801 37.4871 49.8005 37.638C49.678 37.6855 49.5835 37.8109 49.4801 37.8996H49.4793ZM44.3268 39.8926C43.8372 39.3271 43.6647 39.3171 43.2147 39.8038C42.8572 40.1901 42.5064 40.5826 42.1489 40.9705C40.363 42.8976 37.5397 42.8788 35.7789 40.9288C35.4366 40.5502 35.0928 40.1731 34.7472 39.7976C34.3501 39.3684 34.0997 39.393 33.6564 39.9476C34.4035 40.7155 35.1026 41.553 35.9209 42.2513C37.7301 43.793 40.4309 43.733 42.1839 42.1321C42.9459 41.4355 43.6172 40.6396 44.3268 39.8926ZM30.5226 38.6921C30.1151 38.1821 29.9459 38.1663 29.5418 38.5976C29.2689 38.8892 29.0043 39.188 28.7309 39.4784C27.466 40.8217 25.6143 41.0976 24.0809 40.0796C23.508 39.6992 23.0572 39.1292 22.5693 38.6271C22.1072 38.1517 21.8905 38.1534 21.3609 38.7767C22.1472 39.5059 22.868 40.3396 23.7451 40.9488C24.9814 41.8076 26.3922 41.8855 27.7472 41.1909C28.8668 40.6167 29.7172 39.6942 30.5226 38.6921ZM56.6343 38.6851C56.1343 38.1592 55.9584 38.1538 55.5489 38.5971C55.2572 38.9138 54.9726 39.2388 54.6705 39.5459C53.4059 40.8301 51.5776 41.0796 50.0872 40.083C49.5155 39.7005 49.0676 39.1284 48.5776 38.6288C48.1251 38.1663 47.9222 38.1767 47.5051 38.7463C48.233 39.5155 48.9476 40.2713 49.8489 40.8892C50.9672 41.6555 52.0772 41.748 53.2964 41.4134C54.8001 40.9996 55.6014 39.7238 56.6343 38.6851ZM28.7251 36.3451L28.7101 36.5388C28.9076 36.6588 29.0926 36.8088 29.3043 36.8934C30.3689 37.318 31.4639 37.6751 32.5014 38.1559C33.3139 38.5309 34.0543 38.598 34.8372 38.1463C35.1264 37.9796 35.4439 37.863 35.748 37.7234L35.7226 37.5359C35.538 37.4942 35.3543 37.4192 35.1684 37.4138C34.5955 37.398 34.0214 37.4188 33.4476 37.4059C32.5455 37.3851 32.153 37.0388 31.9726 36.1596C31.9414 36.0067 31.8393 35.868 31.7976 35.7809C31.3809 35.9176 31.0434 36.0821 30.6909 36.1292C30.2359 36.1896 29.7676 36.1388 29.3076 36.1709C29.1101 36.1838 28.9193 36.2842 28.7251 36.3451ZM42.6834 36.2292C42.7955 36.2663 42.9576 36.3584 43.1239 36.3667C43.5676 36.3884 44.0139 36.3688 44.4572 36.3755C44.8926 36.3821 45.0964 36.1859 45.0897 35.7413C45.0776 34.9463 45.083 34.1509 45.0897 33.3559C45.0897 33.0942 45.0959 32.7513 44.7839 32.7751C44.5755 32.7909 44.3309 33.0667 44.2109 33.2851C44.0468 33.5851 44.0339 33.968 43.8697 34.2684C43.5155 34.9163 43.1072 35.5351 42.6826 36.2292H42.6834ZM42.3584 37.5417L42.3459 37.7692C42.9293 38.0034 43.5034 38.2551 44.0959 38.4613C44.3002 38.5271 44.52 38.5271 44.7243 38.4613C45.4451 38.2092 46.1547 37.9246 46.8618 37.6367C47.0414 37.5634 47.1951 37.4317 47.3989 37.3034C47.2672 37.1884 47.2047 37.0871 47.1268 37.0734C46.7518 37.0076 46.3768 36.9571 45.9959 36.9209C45.9159 36.9134 45.8293 36.9971 45.743 37.0246C45.3264 37.1551 44.9172 37.3413 44.493 37.3917C43.9589 37.4555 43.4097 37.3959 42.868 37.4121C42.6951 37.4188 42.5272 37.4971 42.3576 37.5413L42.3584 37.5417ZM44.5726 29.2042C44.4501 29.4201 44.3297 29.5355 44.3255 29.6551C44.3047 30.2246 44.2984 30.7967 44.3314 31.3634C44.3372 31.4676 44.5626 31.6551 44.6622 31.6413C45.2785 31.5492 45.7743 30.558 45.4355 30.0667C45.2193 29.7567 44.8951 29.5209 44.5718 29.2042H44.5726Z" fill="black"/>
</svg>
