<svg width="78" height="78" viewBox="0 0 78 78" fill="none" xmlns="http://www.w3.org/2000/svg">
<ellipse cx="38.97" cy="38.98" rx="37.97" ry="37.98" fill="white"/>
<path d="M38.97 77.46C60.2165 77.46 77.44 60.2318 77.44 38.98C77.44 17.7282 60.2165 0.5 38.97 0.5C17.7235 0.5 0.5 17.7282 0.5 38.98C0.5 60.2318 17.7235 77.46 38.97 77.46Z" stroke="#2E3192" stroke-opacity="0.2" stroke-linejoin="round"/>
<ellipse opacity="0.6" cx="38.89" cy="38.9" rx="33.89" ry="33.9" fill="#C8DCFE"/>
<path d="M31.1117 58.9069H20.3048C18.9119 58.9069 18.0928 58.0946 18.0928 56.7132C18.0928 53.6256 18.0928 50.5378 18.0928 47.4499C18.0928 46.0947 18.9112 45.2516 20.2643 45.2376C21.5299 45.2243 22.7955 45.2304 24.0626 45.2376C24.7305 45.2408 25.3024 45.473 25.7944 45.9406C25.9105 46.0514 26.1606 46.084 26.3341 46.0575C26.5899 46.017 26.8336 45.8937 27.0801 45.7998C27.5632 45.616 27.613 45.5099 27.4571 45.0194C26.9733 43.4968 26.7125 41.9395 26.7763 40.3392C26.9153 36.7763 28.177 33.667 30.6481 31.0913C32.429 29.2351 34.2715 27.4363 36.1001 25.6274C36.3456 25.3841 36.3918 25.177 36.2768 24.8585C35.7622 23.4337 35.2673 22.0018 34.7696 20.5714C34.5356 19.8991 34.6621 19.3412 35.1097 19.0355C35.6285 18.6801 36.1406 18.7267 36.7161 19.1817C37.2199 19.5798 37.7373 19.5684 38.2211 19.1459C39.7225 17.8409 41.5443 17.8366 43.0134 19.1344C43.5212 19.5827 44.0006 19.582 44.5797 19.1316C45.4039 18.4898 46.4541 18.8342 46.5928 19.8124C46.6261 20.0464 46.5638 20.3112 46.4853 20.5413C45.9944 21.9884 45.4927 23.4318 44.9803 24.8714C44.8728 25.1734 44.9086 25.3752 45.1448 25.6059C46.5423 26.9819 47.924 28.3733 49.3108 29.7601C49.7644 30.2134 49.8418 30.5649 49.5494 30.8322C49.2792 31.0788 48.9266 30.9895 48.5034 30.5663C47.044 29.109 45.5949 27.6474 44.1257 26.2061C43.9482 26.0453 43.72 25.9517 43.4807 25.9417C41.5753 25.9209 39.6699 25.9209 37.7646 25.9417C37.5571 25.9417 37.2987 26.0438 37.1525 26.1882C35.2594 28.0526 33.3463 29.8995 31.5124 31.8194C28.0444 35.4537 27.0995 39.7307 28.4493 44.541C28.6156 45.133 28.7489 45.1892 29.3172 44.9764C32.037 43.9568 34.7104 44.066 37.3374 45.3039C39.1979 46.1811 41.0533 47.0687 42.9038 47.9667C44.1253 48.5572 44.6987 49.615 44.5697 50.9523C44.5546 51.1089 44.5973 51.3465 44.7015 51.4181C44.8001 51.4866 45.0577 51.4414 45.172 51.3522C45.9062 50.781 46.6372 50.2034 47.3371 49.591C49.032 48.1068 50.7153 46.6093 52.3871 45.0986C52.5985 44.9045 52.7554 44.6584 52.8421 44.3848C53.5782 41.908 53.5663 39.4261 52.8278 36.9486C52.7884 36.8157 52.7458 36.6831 52.7092 36.5491C52.6239 36.2348 52.7167 35.989 53.0317 35.8815C53.3563 35.7701 53.6409 35.8765 53.7254 36.2169C53.9713 37.227 54.288 38.2365 54.3798 39.2627C54.4804 40.3879 54.3726 41.5335 54.3314 42.6694C54.3149 43.1252 54.4658 43.2642 54.895 43.1026C56.2477 42.5938 57.6581 43.0041 58.3616 44.111C59.1255 45.3136 58.9524 46.791 57.9072 47.8097C55.3272 50.3238 52.7547 52.845 50.1536 55.3369C47.6718 57.7148 44.7026 58.9148 41.2526 58.9076C37.8713 58.9012 34.4915 58.9069 31.1117 58.9069ZM34.3679 57.8176V57.8137C36.8017 57.8137 39.2355 57.8409 41.6686 57.8061C44.2608 57.7703 46.6423 56.9848 48.5507 55.2297C51.5281 52.4917 54.3959 49.634 57.2941 46.8089C57.9566 46.1639 57.8943 45.1605 57.2285 44.489C56.5513 43.805 55.5909 43.7724 54.8714 44.4106C52.3656 46.6354 49.8777 48.8815 47.3464 51.0756C46.6398 51.6876 45.85 52.2491 45.0111 52.6522C43.4287 53.4115 41.7911 53.6351 40.0482 53.003C37.9477 52.2416 35.793 51.6295 33.6613 50.9534C33.075 50.7674 32.8851 50.5524 32.9905 50.1872C33.1001 49.8067 33.3972 49.7293 34.0013 49.9217C36.3839 50.6803 38.7639 51.4457 41.1497 52.1932C42.1273 52.4992 43.0346 52.0724 43.3872 51.1813C43.7251 50.3274 43.3442 49.3914 42.439 48.9521C40.489 48.0054 38.5411 47.0529 36.5702 46.151C34.7782 45.3322 32.8823 45.1247 30.9874 45.6303C29.4892 46.0302 28.0444 46.6304 26.5767 47.1439C26.3047 47.2389 26.2717 47.4542 26.2721 47.7126C26.2785 50.661 26.2795 53.6091 26.275 56.557C26.2792 56.7653 26.2672 56.9736 26.2391 57.1801C26.1503 57.7406 26.2072 57.8165 26.7766 57.8169L34.3679 57.8176ZM19.1817 52.1076C19.1817 53.6642 19.1817 55.2208 19.1817 56.7774C19.1817 57.4252 19.5695 57.8144 20.2145 57.8165C21.5209 57.8201 22.8274 57.8201 24.1339 57.8165C24.7757 57.8137 25.1699 57.4195 25.1699 56.7745C25.1727 53.6474 25.1727 50.5203 25.1699 47.393C25.1699 46.7458 24.7796 46.3606 24.1307 46.3588C22.8383 46.3545 21.5458 46.3545 20.2532 46.3588C19.5419 46.3588 19.1828 46.7232 19.1821 47.4388C19.1807 48.9947 19.1806 50.551 19.1817 52.1076ZM40.5846 24.8165C41.5163 24.8165 42.448 24.8061 43.3764 24.8223C43.7036 24.8276 43.8953 24.7108 44.001 24.4023C44.4149 23.1944 44.8424 21.9911 45.2483 20.7799C45.2906 20.6531 45.2523 20.4452 45.1674 20.3499C45.1075 20.2815 44.8868 20.2922 44.771 20.3431C43.8261 20.7598 42.9794 20.5914 42.2172 19.9321C41.1727 19.0302 40.0672 19.023 39.0395 19.9163C38.2788 20.5764 37.4378 20.7613 36.4882 20.3528C36.3699 20.3019 36.1506 20.2847 36.0879 20.3528C35.9998 20.4481 35.9532 20.6591 35.9955 20.7849C36.4072 22.0083 36.8404 23.2241 37.2693 24.4417C37.3625 24.7058 37.5345 24.8294 37.8344 24.8244C38.7507 24.8076 39.6677 24.8172 40.5846 24.8165Z" fill="black"/>
<path d="M39.3194 36.2804C39.3194 36.8576 39.825 37.3385 40.4936 37.4224C40.8498 37.4672 41.2175 37.5023 41.5525 37.6191C42.4534 37.9337 43.0249 38.735 43.0446 39.6347C43.0636 40.5055 42.5257 41.3207 41.6607 41.6844C41.3816 41.8016 41.1888 41.9417 41.1501 42.2656C41.1143 42.5559 40.9064 42.706 40.6273 42.706C40.3482 42.706 40.1342 42.5537 40.1031 42.266C40.0672 41.9356 39.8716 41.8001 39.5931 41.6865C38.8048 41.364 38.368 40.7527 38.2286 39.9261C38.1526 39.4763 38.3408 39.1771 38.6944 39.1313C39.0277 39.0876 39.2405 39.3015 39.3158 39.7551C39.4054 40.2959 39.8737 40.7434 40.4087 40.799C41.0784 40.8706 41.6765 40.5524 41.8832 40.0185C42.138 39.361 41.5762 38.612 40.786 38.5339C40.4428 38.4981 40.0905 38.4623 39.7648 38.3587C38.8378 38.0581 38.2437 37.2618 38.2154 36.3452C38.1874 35.4455 38.7149 34.6388 39.6053 34.264C39.8855 34.1461 40.0687 33.9996 40.107 33.676C40.1428 33.3858 40.374 33.2062 40.6359 33.2621C40.8258 33.3023 41.0756 33.4936 41.125 33.667C41.216 33.9878 41.3723 34.1601 41.6733 34.2762C42.4426 34.5711 42.8522 35.172 43.0138 35.9579C43.1113 36.4319 42.9471 36.748 42.5838 36.8114C42.2308 36.8727 42.0198 36.6659 41.9388 36.1797C41.8313 35.525 41.2221 35.0882 40.4918 35.1427C39.854 35.19 39.3197 35.7081 39.3194 36.2804Z" fill="black"/>
<path d="M52.1247 33.1254C52.0911 33.4662 51.9144 33.6568 51.5955 33.6844C51.2931 33.7109 51.0415 33.4493 51.044 33.1379C51.0429 33.0651 51.0567 32.9929 51.0847 32.9257C51.1128 32.8585 51.1543 32.7978 51.2068 32.7473C51.2594 32.6969 51.3217 32.6578 51.39 32.6326C51.4583 32.6073 51.531 32.5964 51.6037 32.6004C51.8882 32.6141 52.1265 32.8635 52.1247 33.1254Z" fill="black"/>
</svg>
