<svg width="978" height="978" viewBox="0 0 978 978" fill="none" xmlns="http://www.w3.org/2000/svg">
<g opacity="0.7">
<path d="M283.094 171.241C283.094 171.241 272.101 169.103 270.272 165.137C268.442 161.171 273.015 154.759 262.33 153.229C251.644 151.699 250.73 155.973 246.763 145.287C242.797 134.602 235.471 137.346 236.386 127.276C237.3 117.197 240.352 115.984 237.916 102.545C235.471 89.1157 237.916 94.3045 244.934 89.1157C251.952 83.9269 254.089 81.4819 251.038 77.8234C247.986 74.1559 243.096 77.5155 243.712 68.0525C244.318 58.5894 233.941 66.5221 231.496 60.1108C229.051 53.6994 229.965 55.5286 222.947 52.4769C215.929 49.4252 215.006 52.4769 215.313 44.2364C215.621 35.9958 210.731 37.825 218.981 35.6879C218.981 35.6879 220.738 36.7565 223.482 33.5508C226.225 30.3451 230.119 24.622 233.325 24.622C236.531 24.622 237.907 22.7928 240.651 24.622C243.395 26.4513 243.168 26.9131 247.062 26.9131C250.956 26.9131 249.489 24.622 248.62 20.7281C247.75 16.8343 254.85 18.2107 260.573 18.2107C266.296 18.2107 267.446 15.005 270.878 15.2314C274.31 15.4578 285.53 17.2961 289.65 17.7489C293.771 18.2016 296.976 30.3451 298.806 31.2598C300.635 32.1744 311.402 33.089 316.437 37.8975C321.472 42.706 321.472 46.138 327.883 49.5791C334.294 53.0112 330.627 58.7343 333.833 59.658C337.038 60.5726 346.655 63.3255 347.57 65.1547C348.484 66.9839 347.343 71.1042 351.002 71.7924C354.669 72.4806 365.654 66.9839 368.633 66.2957C371.612 65.6075 372.065 60.1108 376.874 59.658C381.682 59.1961 393.817 60.1198 397.022 58.517C400.228 56.9141 398.851 55.0849 402.293 56.9141C405.725 58.7434 403.434 60.5816 409.166 60.808C414.889 61.0344 418.783 59.4316 421.762 66.3048C424.741 73.1779 426.109 71.3396 424.053 78.6656C421.988 85.9915 423.591 89.1972 419.245 91.4883C414.898 93.7793 418.104 97.2114 411.23 102.246C404.357 107.281 402.528 107.281 401.387 110.487C400.246 113.692 401.613 113.692 393.835 116.672C386.047 119.651 385.132 122.621 386.509 126.062C387.885 129.503 389.941 131.333 386.735 134.077C383.529 136.82 385.359 140.026 389.253 140.95C393.146 141.864 398.643 138.659 398.408 144.155C398.181 149.652 400.011 153.084 402.075 156.752C404.14 160.419 402.537 166.142 399.784 166.83C397.031 167.519 391.996 168.207 389.705 170.036C387.414 171.865 386.726 173.622 383.52 171.259C380.315 168.895 383.52 164.313 380.088 163.625C376.656 162.937 372.989 163.398 372.074 166.83C371.16 170.263 371.848 171.865 374.818 175.986C377.797 180.106 379.626 176.9 379.165 183.312C378.703 189.723 375.497 188.582 385.802 192.702C396.108 196.822 392.44 205.751 396.56 206.666C400.681 207.58 397.249 206.439 402.745 211.474C408.242 216.509 410.533 212.851 416.483 217.424C422.432 222.006 423.03 220.63 425.022 224.75C427.014 228.87 426.552 229.096 434.34 231.388C442.128 233.679 445.56 237.799 444.184 240.316C442.807 242.834 440.29 239.628 437.999 243.522C435.708 247.416 436.622 251.536 431.814 252.451C427.005 253.365 426.779 258.636 425.864 261.38C424.95 264.123 428.155 265.5 422.885 267.791C417.615 270.082 422.885 277.408 420.82 280.387C418.756 283.366 417.615 286.798 421.508 289.542C425.402 292.286 430.899 290.919 433.416 292.286C435.934 293.663 433.643 294.351 439.14 295.265C444.636 296.18 442.119 295.492 446.013 299.386C449.907 303.28 454.253 309.691 462.267 311.294C470.282 312.897 467.302 316.564 473.714 317.705C480.125 318.846 482.869 318.846 487.913 322.514C492.948 326.181 497.068 322.975 498.444 326.86C499.821 330.754 501.188 331.669 505.77 331.669C510.353 331.669 511.72 328.463 519.055 329.378C526.381 330.292 523.637 334.874 527.531 331.669C531.425 328.463 539.892 327.775 544.936 336.939C549.98 346.103 554.553 345.868 559.135 347.018C563.717 348.159 563.481 349.083 569.44 348.847C575.39 348.621 576.078 346.402 578.595 348.883C581.113 351.365 583.177 352.515 586.609 352.515C590.041 352.515 592.559 350.685 598.291 352.515C604.014 354.344 609.973 356.635 617.987 356.861C626.001 357.088 620.966 357.088 627.83 359.152C634.703 361.217 646.376 356.861 647.979 354.57C649.582 352.279 650.496 341.974 650.044 339.004C649.582 336.024 645.009 331.678 645.697 327.558C646.385 323.437 647.526 323.211 648.903 317.479C650.279 311.756 651.42 309.926 654.852 307.635C658.284 305.344 660.575 303.053 663.093 303.515C665.61 303.977 670.88 309.465 669.73 313.594C668.589 317.714 668.444 323.899 669.893 328.481C671.333 333.063 669.73 339.239 677.292 341.766C684.853 344.292 694.008 341.304 696.299 344.971C698.59 348.639 701.334 342.526 707.447 341.304C713.55 340.081 713.251 340.697 726.074 339.773C738.897 338.859 745.915 340.38 753.549 338.551C761.182 336.722 765.149 337.328 765.764 334.585C766.371 331.841 768.209 317.18 760.268 317.18C752.326 317.18 748.36 316.265 748.668 312.906C748.975 309.546 749.89 302.827 754.472 302.528C759.054 302.22 762.713 304.058 768.209 300.083C773.706 296.117 767.295 293.98 777.066 291.842C786.837 289.705 786.221 290.013 789.282 282.687C792.333 275.361 792.641 269.557 804.848 268.642C817.064 267.727 816.141 260.7 824.689 255.213C833.237 249.716 836.289 246.356 842.393 248.493C848.496 250.631 850.334 252.161 857.044 247.887C863.764 243.613 873.227 237.808 875.364 242.698C877.501 247.579 876.894 246.972 875.364 250.938C873.833 254.905 873.227 254.606 881.168 254.905C889.11 255.213 883.613 263.145 882.391 267.121C881.168 271.087 879.647 278.114 882.998 277.806C886.357 277.498 888.802 271.703 895.82 274.139C902.838 276.584 905.283 274.447 908.036 282.995C910.78 291.544 914.448 292.458 913.225 295.818C912.003 299.177 911.396 293.989 910.481 302.537C909.567 311.085 898.573 312.308 895.214 311.692C891.854 311.085 892.47 308.333 885.751 311.085C879.031 313.829 873.535 318.104 867.123 319.326C860.712 320.549 864.379 333.063 859.489 341.612C854.609 350.16 849.411 366.035 847.889 369.086C846.368 372.138 839.649 370.001 841.17 374.275C842.7 378.549 848.496 382.516 848.188 390.15C847.88 397.783 846.966 400.835 849.103 402.365C851.24 403.896 850.325 409.999 846.658 409.691C842.99 409.384 842.383 406.051 837.801 409.7C833.219 413.35 834.134 427.096 830.783 427.395C827.424 427.703 829.561 426.788 821.927 427.395C814.293 428.002 810.635 425.258 807.882 425.258C805.138 425.258 814.293 436.251 813.379 442.047C812.464 447.852 808.498 458.537 806.053 464.948C803.608 471.36 803.608 472.89 805.745 476.549C807.882 480.216 806.053 487.234 802.693 487.841C799.333 488.448 795.367 486.012 792.007 483.567C788.648 481.122 785.904 478.985 786.203 471.351C786.511 463.717 785.895 450.894 782.843 449.065C779.791 447.236 771.243 451.809 768.49 452.732C765.746 453.647 760.548 455.476 755.667 455.177C750.787 454.87 748.342 452.434 748.034 446.937C747.726 441.44 747.726 430.447 751.393 427.395C755.061 424.343 754.445 423.429 760.548 422.813C766.652 422.206 769.097 422.505 773.063 420.676C777.03 418.847 775.508 411.213 775.807 407.246C776.115 403.28 773.978 401.75 780.688 401.442C787.407 401.134 784.962 392.585 779.158 391.671C773.353 390.756 773.054 389.534 764.198 390.756C755.342 391.979 752.906 385.875 744.964 389.842C737.022 393.808 741.912 394.723 729.089 393.808C716.267 392.893 711.078 393.808 703.752 388.311C696.426 382.815 702.53 372.745 702.222 369.992C701.914 367.248 702.529 362.05 697.947 361.443C693.365 360.837 695.502 365.718 686.347 363.273C677.192 360.828 679.628 356.255 673.832 355.947C668.028 355.639 672.61 362.965 666.814 359.913C661.01 356.861 664.071 351.971 658.873 354.108C653.684 356.246 655.513 366.324 653.376 369.983C651.239 373.65 653.684 377.925 658.945 380.442C664.215 382.959 664.215 386.391 669.703 387.08C675.2 387.768 678.858 391.2 674.738 393.953C670.618 396.697 669.241 396.47 664.895 397.385C660.548 398.3 665.583 404.484 659.86 406.314C654.137 408.143 652.76 409.058 652.307 412.263C651.846 415.469 662.613 422.795 668.562 423.945C674.512 425.086 675.662 427.151 671.306 432.421C666.959 437.691 667.186 445.017 670.391 447.987C673.597 450.967 672.909 452.569 674.059 454.861C675.2 457.152 682.535 459.207 680.47 467.221C678.405 475.236 680.244 473.633 681.158 480.732C682.073 487.832 687.343 492.414 680.244 495.158C673.144 497.902 673.371 495.158 667.883 498.825C662.386 502.493 662.848 496.308 661.245 494.017C659.642 491.726 654.608 494.017 650.487 502.257C646.367 510.498 648.423 510.299 642.011 512.119C635.6 513.939 638.117 514.165 630.103 517.145C622.089 520.124 622.551 524.932 622.777 531.344C623.004 537.755 625.295 541.423 620.713 544.628C616.13 547.834 619.572 554.019 615.678 557.451C611.784 560.883 614.229 561.345 610.371 565.003C606.513 568.671 609.955 568.897 601.252 569.585C592.55 570.274 593.238 573.017 589.57 575.082C585.903 577.147 583.847 579.664 582.471 577.826C581.094 575.997 580.642 573.017 579.039 572.791C577.436 572.565 574.004 572.103 572.166 577.373C570.337 582.643 573.542 581.72 569.648 586.302C565.754 590.884 558.428 593.175 556.137 598.663C553.846 604.159 554.535 604.386 548.123 613.088C541.712 621.791 534.386 624.534 530.718 628.202C527.051 631.869 523.166 632.322 519.037 639.648C514.916 646.974 513.314 650.642 503.235 654.3C493.156 657.968 492.477 659.335 488.348 663.917C484.227 668.499 486.971 669.867 487.886 672.619C488.8 675.363 488.112 681.548 478.495 683.839C468.878 686.13 468.416 684.528 460.176 685.904C451.935 687.28 451.7 696.209 447.579 702.159C443.459 708.108 438.877 706.967 435.671 704.45C432.466 701.932 431.325 701.932 426.969 704.676C422.622 707.42 417.578 714.981 417.578 722.534C417.578 730.086 418.267 757.796 419.869 763.981C421.472 770.166 426.969 773.136 423.301 775.889C419.634 778.633 418.955 782.762 420.784 785.506C422.613 788.25 429.025 788.712 425.592 794.897C422.16 801.082 420.096 814.592 415.514 820.768C410.932 826.953 410.017 826.265 409.564 833.129C409.102 840.002 411.629 854.192 409.564 860.377C407.499 866.562 408.188 863.583 406.585 874.576C404.982 885.57 407.273 886.258 402.917 886.258C398.571 886.258 401.315 884.193 394.441 889.926C387.568 895.649 390.547 902.975 385.051 904.577C379.554 906.18 375.66 917.862 377.263 918.088C378.866 918.315 383.674 920.153 378.866 921.982C374.057 923.812 372.228 920.153 367.872 925.188C363.526 930.223 361.923 925.876 357.567 935.031C353.22 944.187 358.708 947.166 344.971 954.039C331.234 960.912 338.786 964.797 331.46 962.515C324.134 960.224 328.716 961.827 321.843 958.621C314.97 955.415 314.743 959.309 311.311 951.295C307.879 943.281 305.588 942.366 298.489 935.729C291.389 929.091 296.424 929.317 293.454 919.7C290.475 910.083 288.183 915.58 290.936 907.566C293.68 899.552 294.604 899.552 293.454 893.14C292.313 886.729 290.248 895.658 287.731 893.14C285.213 890.623 288.419 883.985 283.384 874.133C278.349 864.289 278.114 864.516 278.114 859.019C278.114 853.522 270.326 849.864 266.432 842.764C262.538 835.665 264.367 832.233 257.503 823.53C250.63 814.828 249.951 822.154 247.424 806.814C244.907 791.474 244.445 795.82 242.616 779.104C240.787 762.387 241.701 755.523 235.29 745.444C228.879 735.365 230.943 725.296 224.532 719.573C218.121 713.849 206.213 695.53 203.695 687.516C201.178 679.502 200.489 680.643 200.263 665.303C200.037 649.962 194.078 633.708 193.39 626.146C192.702 618.585 193.616 606.912 193.39 602.104C193.164 597.295 187.893 589.743 189.496 575.77C191.099 561.807 189.958 556.536 191.787 550.813C193.616 545.09 191.099 528.835 190.411 522.189C189.722 515.551 187.205 516.954 190.411 512.128C193.616 507.301 188.581 504.331 187.205 501.125C185.829 497.92 190.872 492.885 187.205 490.367C183.537 487.85 175.985 490.594 176.9 498.843C177.814 507.084 181.935 511.204 175.071 515.56C168.197 519.907 172.327 529.985 160.871 530.447C149.425 530.909 141.864 532.512 132.709 531.362C123.553 530.212 125.609 521.518 116.907 516.71C108.204 511.901 98.8137 502.746 92.176 498.852C85.5383 494.959 85.3028 488.094 82.7854 482.598C80.2679 477.101 80.9561 472.754 85.5292 475.272C90.1113 477.789 88.273 482.371 92.6288 483.512C96.9754 484.653 101.331 486.256 105.913 483.286C110.495 480.307 115.992 477.789 120.565 475.96C125.147 474.131 129.494 468.86 125.835 466.805C122.168 464.74 121.253 465.664 109.119 465.428C96.9845 465.202 99.0401 470.01 90.3468 465.428C81.6444 460.846 83.4736 456.038 79.5888 452.832C75.6949 449.626 68.1425 445.959 70.4336 441.839C72.7246 437.718 78.2214 439.095 75.2421 437.03C72.2628 434.965 73.6393 437.718 68.8308 435.889C64.0223 434.06 63.334 429.94 65.8515 429.016C68.3689 428.101 72.0364 429.478 76.1567 427.413C80.277 425.348 79.136 425.348 84.3973 419.861C89.6676 414.364 90.1204 413.676 94.7025 416.193C99.2846 418.711 101.114 421.464 105.696 421.464C110.278 421.464 109.363 426.046 113.936 425.131C118.519 424.217 118.057 419.182 125.618 418.493C133.17 417.805 131.568 413.685 137.3 418.267C143.023 422.849 149.208 418.041 148.981 415.061C148.755 412.082 151.273 399.259 144.861 395.366C138.45 391.472 137.535 389.642 139.591 384.834C141.656 380.025 143.258 377.961 137.3 377.734C131.35 377.508 122.186 379.564 124.477 369.494C126.768 359.415 137.073 353.004 128.824 350.26C120.583 347.516 124.015 349.572 118.745 346.14C113.475 342.707 105.008 334.005 109.816 330.111C114.625 326.217 113.936 328.97 121.036 320.032C128.136 311.104 131.568 304.466 137.064 305.145C142.561 305.833 148.058 305.371 148.058 311.095C148.058 316.818 154.931 309.265 161.795 307.889C168.668 306.512 174.844 310.18 179.426 305.824C184.008 301.478 193.39 297.584 198.434 284.526C203.469 271.476 210.116 272.165 215.15 269.874C220.185 267.583 222.024 257.739 225.229 248.349C228.435 238.958 235.761 238.043 238.74 237.591C241.719 237.129 242.634 224.08 251.336 219.959C260.039 215.839 266.677 210.116 265.762 208.74C264.847 207.363 262.556 196.143 263.697 190.647C264.838 185.15 267.365 176.221 272.4 175.995C277.435 175.768 285.222 173.704 285.222 173.704L283.094 171.241Z" stroke="#676B78" stroke-width="0.9514" stroke-miterlimit="10"/>
<path d="M283.094 171.241C283.094 171.241 289.433 168.415 295.156 166.586C300.879 164.757 299.502 158.346 301.105 152.622C302.708 146.899 307.743 150.558 312.325 147.126C316.907 143.694 321.027 143.232 326.062 143.92C331.097 144.608 328.127 151.708 334.538 153.075C340.95 154.452 342.091 151.699 345.985 153.537C349.878 155.366 349.878 155.602 353.999 154.452C358.119 153.311 358.807 154.452 362.475 160.863C366.142 167.274 371.784 168.343 371.784 168.343" stroke="#676B78" stroke-width="0.95" stroke-miterlimit="10" stroke-linecap="round" stroke-linejoin="round" stroke-dasharray="1.12 1.12"/>
<path d="M388.03 193.762C388.03 193.762 386.291 196.814 386.291 200.472C386.291 204.14 390.692 205.969 388.03 208.024C385.377 210.089 384 209.165 380.106 208.024C376.213 206.883 373.469 205.733 368.887 206.648C364.304 207.563 362.475 204.982 358.355 209.247C354.235 213.521 349.2 214.436 348.964 221.3C348.738 228.173 351.944 230.917 347.135 231.379C342.327 231.841 342.1 226.108 336.604 224.053C331.107 221.988 332.71 218.782 325.846 216.265C318.972 213.748 324.705 212.597 320.575 207.336C316.455 202.066 308.667 206.422 306.15 199.096C303.632 191.77 307.979 189.252 302.256 184.444C296.533 179.635 295.156 166.586 295.156 166.586" stroke="#676B78" stroke-width="0.95" stroke-miterlimit="10" stroke-linecap="round" stroke-linejoin="round" stroke-dasharray="1.12 1.12"/>
<path d="M238.83 237.564C238.83 237.564 240.659 244.663 246.156 245.116C251.653 245.578 266.078 243.975 270.199 245.116C274.319 246.257 272.263 251.989 275.695 253.818C279.127 255.648 280.966 254.28 285.086 253.818C289.206 253.357 290.583 259.333 293.1 254.742C295.617 250.151 294.929 249.924 301.576 250.377C308.214 250.839 305.008 246.031 307.761 242.825C310.505 239.619 311.428 240.76 315.549 241.91C319.669 243.051 320.131 245.116 322.648 237.564C325.166 230.011 328.371 233.896 328.598 228.173C328.824 222.45 327.448 216.935 327.448 216.935" stroke="#676B78" stroke-width="0.95" stroke-miterlimit="10" stroke-linecap="round" stroke-linejoin="round" stroke-dasharray="1.12 1.12"/>
<path d="M348.066 231.243C348.066 231.243 350.33 235.743 352.621 242.381C354.912 249.019 356.968 248.104 362.7 250.857C368.423 253.601 372.544 254.823 377.814 256.508C383.084 258.192 385.602 258.645 397.736 258.645C409.871 258.645 413.764 260.474 418.347 258.645C422.929 256.816 427.312 256.508 427.312 256.508" stroke="#676B78" stroke-width="0.95" stroke-miterlimit="10" stroke-linecap="round" stroke-linejoin="round" stroke-dasharray="1.12 1.12"/>
<path d="M258.752 245.342C258.752 245.342 258.752 266.188 261.269 266.188C263.787 266.188 264.249 263.209 268.369 264.359C272.489 265.509 277.524 263.218 278.674 267.565C279.815 271.911 277.099 272.373 283.727 275.352C290.356 278.332 288.527 278.558 287.15 284.969C285.774 291.381 290.818 291.154 295.164 293.445C299.511 295.737 296.767 304.892 299.058 308.786C301.349 312.679 304.093 308.559 310.052 307.183C316.001 305.806 314.634 301.233 316.001 305.806C317.378 310.388 315.313 317.714 319.669 317.714C324.015 317.714 326.306 316.112 326.08 320.694C325.854 325.276 333.18 327.793 336.612 319.779C340.044 311.765 340.578 321.382 342.027 310.388C343.476 299.395 342.099 298.254 338.441 294.36C334.773 290.466 328.19 299.857 328.625 290.693C329.059 281.537 329.512 274.202 331.577 269.394C333.641 264.585 323.336 260.99 330.889 256.49C338.441 251.989 336.612 246.031 339.365 242.599C342.108 239.166 350.358 236.314 350.358 236.314" stroke="#676B78" stroke-width="0.95" stroke-miterlimit="10" stroke-linecap="round" stroke-linejoin="round" stroke-dasharray="1.12 1.12"/>
<path d="M149.135 412.761C149.135 412.761 153.952 410.036 158.842 412.761C163.723 415.487 163.424 415.487 171.357 415.487C179.299 415.487 180.666 414.572 185.475 419.381C190.283 424.189 189.595 423.275 195.318 423.275C201.041 423.275 204.02 424.651 206.538 421.446C209.055 418.24 211.346 417.778 210.205 424.878C209.064 431.977 208.376 433.806 212.723 436.786C217.07 439.765 216.617 438.615 219.134 445.262C221.652 451.908 225.319 452.135 230.128 455.34C234.936 458.546 236.077 454.879 239.745 462.893C243.412 470.907 249.362 471.822 250.503 469.304C251.644 466.787 250.729 466.56 254.17 461.29C257.611 456.02 256.914 454.19 258.752 450.297C260.581 446.403 263.334 446.629 261.732 437.7C260.129 428.772 258.064 431.515 259.902 422.813C261.732 414.111 257.892 417.543 262.221 413.196C266.549 408.849 267.002 402.891 270.443 404.041C273.875 405.182 276.166 405.182 275.251 409.99C274.337 414.799 273.594 417.316 275.451 417.543C277.307 417.769 277.307 416.166 282.342 415.478C287.377 414.79 289.668 413.649 290.356 417.543C291.044 421.437 292.185 422.577 290.356 424.642C288.527 426.707 288.065 423.954 288.291 430.592C288.518 437.229 283.021 438.832 282.795 440.671C282.568 442.5 279.815 443.414 283.257 444.791C286.689 446.167 289.36 438.334 291.343 437.211C293.326 436.088 296.306 436.777 298.823 432.883C301.341 428.989 302.491 427.232 304.927 429.215C307.372 431.198 305.687 433.028 310.269 433.336C314.851 433.643 313.321 433.336 316.989 435.473C320.656 437.61 324.007 438.524 323.092 432.113C322.177 425.702 321.109 423.872 323.246 423.411C325.383 422.949 325.075 426.01 327.058 423.257C329.042 420.513 327.366 419.29 326.144 417.914C324.921 416.537 318.51 413.178 323.092 408.904C327.674 404.629 335 406.767 336.223 404.937C337.445 403.108 337.291 395.782 333.017 396.235C328.743 396.697 327.828 398.028 324.315 396.217C320.801 394.406 318.211 398.372 315.612 391.662C313.013 384.943 309.663 382.959 316.835 377.617C324.007 372.274 328.127 371.359 333.778 366.017C339.428 360.674 340.189 359.913 346.754 359.451C353.319 358.989 362.475 353.882 362.248 350.441C362.022 347.009 356.063 348.838 352.405 348.376C348.737 347.914 346.22 347.688 346.908 342.88C347.596 338.071 349.199 333.263 344.391 331.66C339.582 330.057 338.206 332.122 338.668 327.992C339.129 323.872 337.463 317.986 337.463 317.986" stroke="#676B78" stroke-width="0.95" stroke-miterlimit="10" stroke-linecap="round" stroke-linejoin="round" stroke-dasharray="1.12 1.12"/>
<path d="M190.654 560.195C190.654 560.195 195.318 556.835 199.284 555.006C203.251 553.177 204.319 555.767 208.901 552.561C213.483 549.355 212.107 547.372 214.706 543.551C217.305 539.738 217.45 542.02 219.587 543.551C221.724 545.081 226.152 543.859 227.827 540.807C229.503 537.755 229.657 531.036 227.827 530.121C225.998 529.207 225.228 523.556 228.289 521.573C231.341 519.59 233.786 522.487 232.563 517.453C231.341 512.418 225.844 511.349 226.913 507.229C227.981 503.109 231.341 503.263 234.393 502.04C237.444 500.818 239.889 496.851 240.65 491.047C241.411 485.242 240.65 486.464 244.318 483.413C247.985 480.361 247.188 470.4 247.188 470.4" stroke="#676B78" stroke-width="0.95" stroke-miterlimit="10" stroke-linecap="round" stroke-linejoin="round" stroke-dasharray="1.12 1.12"/>
<path d="M524.633 332.094C524.633 332.094 527.331 342.21 530.999 344.347C534.666 346.484 539.547 346.484 538.325 351.066C537.102 355.648 533.063 348.621 531.569 356.563C530.075 364.504 526.344 367.248 531.569 371.214C536.794 375.181 544.12 374.882 545.95 378.233C547.779 381.592 545.035 383.421 541.675 383.729C538.316 384.037 538.008 382.507 533.127 386.174C528.246 389.842 525.493 394.723 522.749 396.86C520.005 398.997 516.03 395.945 513.594 401.134C511.149 406.323 517.261 412.734 519.091 414.871C520.92 417.008 519.091 420.975 515.423 421.889C511.756 422.804 517.95 435.319 513.024 438.38C508.097 441.431 512.679 444.483 505.652 443.568C498.634 442.654 491 446.013 491.607 441.431C492.214 436.849 494.052 435.328 495.275 432.276C496.497 429.224 496.497 422.813 492.83 422.197C489.162 421.591 489.162 426.779 481.537 417.615C473.913 408.451 473.297 404.792 469.629 404.792C465.962 404.792 464.748 406.015 457.114 406.93C449.481 407.844 450.685 410.896 442.915 407.844C435.137 404.792 437.582 402.04 430.862 403.262C424.143 404.485 423.844 405.091 420.784 400.21C417.732 395.329 415.903 404.485 405.824 403.878C395.745 403.271 400.019 397.159 390.864 398.381C381.709 399.604 388.283 394.415 382.089 392.577C375.904 390.747 371.63 398.381 372.853 405.091C374.075 411.811 375.298 415.17 378.657 420.359C382.017 425.548 387.676 433.788 382.098 434.712C376.52 435.636 376.52 425.249 369.502 425.249C362.484 425.249 363.254 423.719 362.258 415.786C361.261 407.844 356.236 399.296 362.258 395.945C368.279 392.586 367.673 390.141 374.999 386.482C382.325 382.815 388.428 373.659 387.821 370.608C387.215 367.556 390.429 362.059 382.098 357.785C373.776 353.511 374.908 348.141 368.279 348.63C361.642 349.119 361.642 349.119 361.642 349.119" stroke="#676B78" stroke-width="0.95" stroke-miterlimit="10" stroke-linecap="round" stroke-linejoin="round" stroke-dasharray="1.12 1.12"/>
<path d="M648.061 334.739C648.061 334.739 653.123 333.897 658.311 332.104C663.5 330.311 664.116 330.003 666.253 330.003C668.39 330.003 670.292 330.003 670.292 330.003" stroke="#676B78" stroke-width="0.95" stroke-miterlimit="10" stroke-linecap="round" stroke-linejoin="round" stroke-dasharray="1.12 1.12"/>
<path d="M645.533 356.354C645.533 356.354 653.429 353.402 652.814 356.354C652.207 359.306 649.852 364.196 645.533 367.556C641.213 370.916 642.526 380.687 645.533 384.345C648.539 388.013 642.128 391.671 640.299 392.893C638.47 394.116 649.182 405.109 646.574 409.682C643.966 414.265 646.103 413.649 643.043 421.283C639.991 428.916 633.272 421.591 631.75 431.054C630.22 440.517 632.357 439.973 621.373 443.912C610.379 447.852 610.379 443.577 604.276 447.852C598.172 452.126 596.95 446.937 592.06 449.989C587.179 453.04 587.179 456.092 592.06 461.281C596.941 466.47 601.523 471.251 607.327 470.536C613.132 469.829 610.379 482.652 614.047 486.926C617.714 491.201 613.132 496.082 608.858 494.56C604.584 493.03 602.754 483.567 599.395 483.567C596.035 483.567 594.813 485.966 593.59 494.841C592.368 503.715 588.709 506.16 584.734 501.578C580.767 496.996 576.493 498.219 569.774 497.612C563.055 497.005 570.689 490.286 565.808 487.533C560.927 484.789 559.396 488.411 551.156 489.19C542.915 489.978 537.419 492.378 536.504 489.19C535.589 486.003 535.281 484.78 538.949 479.899C542.616 475.018 544.754 478.568 540.778 470.536C536.812 462.504 532.836 462.196 532.538 455.476C532.23 448.757 531.27 453.031 522.16 445.705C513.041 438.38 513.041 438.38 513.041 438.38" stroke="#676B78" stroke-width="0.95" stroke-miterlimit="10" stroke-linecap="round" stroke-linejoin="round" stroke-dasharray="1.12 1.12"/>
<path d="M638.768 512.128C638.768 512.128 641.82 507.021 633.579 503.842C625.339 500.664 618.013 499.142 617.089 497.304C616.174 495.475 613.865 493.501 613.865 493.501" stroke="#676B78" stroke-width="0.95" stroke-miterlimit="10" stroke-linecap="round" stroke-linejoin="round" stroke-dasharray="1.12 1.12"/>
<path d="M234.402 502.031C234.402 502.031 239.437 505.481 245.242 503.833C251.046 502.185 247.986 506.459 253.184 510.425C258.372 514.392 262.339 515.614 268.143 516.529C273.948 517.444 275.469 516.837 280.051 520.495C284.634 524.163 290.429 518.666 294.097 524.163C297.764 529.659 300.2 532.104 306.313 530.882C312.416 529.659 311.193 528.138 318.221 522.641C325.239 517.145 331.043 514.365 335.317 515.297C339.592 516.23 331.65 526.916 343.259 526.608C354.859 526.3 355.475 513.939 364.024 516.61C372.572 519.282 372.88 526.001 380.514 522.641C388.148 519.282 390.891 515.162 397.303 516.61C403.714 518.059 409.519 523.864 417.759 522.94C426 522.026 432.719 522.94 433.326 525.684C433.932 528.428 428.744 527.821 430.582 534.54C432.411 541.26 437.093 545.226 433.38 553.774C429.667 562.323 429.359 566.905 432.112 571.478C434.856 576.06 441.575 581.856 436.694 584.301C431.813 586.746 428.146 589.182 425.094 597.431C422.042 605.672 432.112 610.254 425.701 613.306C419.29 616.357 432.112 616.973 433.335 620.324C434.557 623.683 440.652 625.205 442.943 633.454C445.243 641.695 451.953 641.088 455.621 640.78C459.288 640.472 456.843 641.387 462.032 631.924C467.221 622.461 471.803 616.656 474.248 612.69C476.693 608.724 485.54 613.604 484.327 601.09C483.104 588.575 480.36 600.175 480.967 584.907C481.574 569.64 473.641 565.981 479.437 565.366C485.241 564.759 490.729 575.444 495.311 575.444C499.893 575.444 498.363 569.033 495.311 566.896C492.259 564.759 490.077 555.604 489.026 550.406C487.985 545.217 487.061 544.909 491.643 540.327C496.226 535.745 490.729 532.086 499.585 529.949C508.442 527.812 512.1 536.668 515.152 523.846C518.203 511.023 514.844 510.661 523.7 503.824C532.557 496.987 536.523 489.181 536.523 489.181" stroke="#676B78" stroke-width="0.95" stroke-miterlimit="10" stroke-linecap="round" stroke-linejoin="round" stroke-dasharray="1.12 1.12"/>
<path d="M213.393 705.374C213.393 705.374 220.809 700.637 224.169 703.082C227.528 705.527 232.717 706.134 236.385 700.339C240.052 694.534 244.018 691.826 240.351 686.601C236.683 681.376 235.325 681.72 241.809 673.779C248.293 665.837 244.933 663.093 253.174 664.008C261.414 664.922 262.03 665.837 269.664 657.596C277.298 649.356 272.109 646.603 282.179 648.74C292.257 650.877 299.275 650.569 304.156 642.936C309.037 635.302 307.208 631.942 315.449 630.113C323.689 628.284 324.305 629.805 332.853 621.564C341.402 613.324 341.402 620.65 343.847 605.998C346.292 591.346 347.207 590.73 353.002 589.209C358.807 587.678 357.276 591.038 362.465 583.712C367.654 576.386 369.483 573.941 374.98 575.164C380.477 576.386 381.083 585.243 389.94 585.541C398.796 585.849 403.07 574.856 408.567 583.712C414.064 592.569 408.259 603.553 411.927 609.665C415.594 615.769 423.898 615.035 423.898 615.035" stroke="#676B78" stroke-width="0.95" stroke-miterlimit="10" stroke-linecap="round" stroke-linejoin="round" stroke-dasharray="1.12 1.12"/>
<path d="M229.938 730.566C229.938 730.566 232.727 733.609 234.248 727.505C235.778 721.402 232.093 704.26 232.093 704.26" stroke="#676B78" stroke-width="0.95" stroke-miterlimit="10" stroke-linecap="round" stroke-linejoin="round" stroke-dasharray="1.12 1.12"/>
<path d="M246.727 802.168C246.727 802.168 264.168 807.185 266.006 813.597C267.835 820.008 270.28 820.316 279.743 823.974C289.206 827.642 290.429 820.008 291.035 830.386C291.642 840.763 299.276 845.952 301.413 848.705C303.55 851.449 305.081 864.271 310.568 866.716C316.065 869.161 309.654 885.643 316.065 889.618C322.476 893.593 326.144 887.789 324.306 902.133C322.476 916.486 328.888 915.263 323.083 924.111C317.278 932.967 320.638 928.992 319.416 936.625C318.193 944.259 321.861 946.704 319.416 949.14C316.971 951.585 311.401 951.277 311.401 951.277" stroke="#676B78" stroke-width="0.95" stroke-miterlimit="10" stroke-linecap="round" stroke-linejoin="round" stroke-dasharray="1.12 1.12"/>
<path d="M455.594 640.798C455.594 640.798 462.005 640.491 467.502 637.439C472.999 634.387 475.136 635.61 484.291 626.753C493.446 617.897 490.095 612.708 497.114 614.537C504.132 616.367 507.192 618.205 509.628 611.793C512.073 605.382 507.491 603.553 515.732 601.416C523.972 599.279 526.109 594.09 529.469 599.279C532.829 604.468 542.6 608.434 546.258 605.998C549.925 603.553 556.183 598.672 556.183 598.672" stroke="#676B78" stroke-width="0.95" stroke-miterlimit="10" stroke-linecap="round" stroke-linejoin="round" stroke-dasharray="1.12 1.12"/>
<path d="M291.859 835.076C291.859 835.076 302.636 834.66 304.157 838.019C305.687 841.379 312.705 845.961 315.15 843.824C317.595 841.687 317.994 837.105 325.573 836.806C333.162 836.498 336.82 835.583 339.872 827.95C342.924 820.316 333.768 820.624 337.735 813.597C341.701 806.578 336.204 803.826 344.146 803.826C352.088 803.826 354.225 797.152 356.661 802.168C359.106 807.185 364.603 811.459 366.432 807.493C368.261 803.527 370.099 799.253 376.203 798.338C382.306 797.423 385.358 802.304 389.333 800.783C393.3 799.253 400.626 793.765 400.934 791.32C401.241 788.875 404.212 789.789 412.534 787.652C420.856 785.515 419.887 782.454 419.887 782.454" stroke="#676B78" stroke-width="0.95" stroke-miterlimit="10" stroke-linecap="round" stroke-linejoin="round" stroke-dasharray="1.12 1.12"/>
<path d="M332.862 621.564C332.862 621.564 339.88 632.558 337.743 636.832C335.606 641.106 330.517 644.158 335.506 648.74C340.496 653.322 333.469 659.426 332.862 667.06C332.255 674.693 339.98 677.971 335.506 681.367C331.033 684.763 333.17 690.26 336.828 693.004C340.496 695.748 340.423 700.945 332.826 702.775C325.228 704.604 323.399 703.689 321.262 708.271C319.125 712.854 325.228 719.872 323.707 724.454C322.176 729.036 316.073 726.908 315.466 731.327C314.86 735.746 309.97 751.322 315.466 751.62C320.963 751.928 332.563 746.431 332.255 754.364C331.947 762.306 324.929 758.032 324.314 763.827C323.707 769.632 330.725 770.546 337.136 770.239C343.548 769.931 347.514 767.495 350.874 772.684C354.233 777.872 348.709 776.641 355.899 782.445C363.089 788.25 364.312 787.335 362.175 793.14C360.038 798.945 356.678 802.168 356.678 802.168" stroke="#676B78" stroke-width="0.95" stroke-miterlimit="10" stroke-linecap="round" stroke-linejoin="round" stroke-dasharray="1.12 1.12"/>
<path d="M698.002 361.444C698.002 361.444 699.297 355.259 700.9 354.118C702.503 352.977 703.372 342.961 703.372 342.961" stroke="#676B78" stroke-width="0.95" stroke-miterlimit="10" stroke-linecap="round" stroke-linejoin="round" stroke-dasharray="1.12 1.12"/>
<path d="M701.959 372.011C701.959 372.011 708.687 368.769 716.928 368.996C725.168 369.222 731.353 370.626 735.247 370.499C739.141 370.372 739.829 375.027 745.552 372.011C751.276 368.996 754.708 360.755 761.807 361.443C768.907 362.132 773.253 359.614 772.339 366.026C771.424 372.437 772.801 374.04 777.609 374.502C782.418 374.963 786.538 380.451 786.085 383.657C785.623 386.862 781.249 392.359 781.249 392.359" stroke="#676B78" stroke-width="0.95" stroke-miterlimit="10" stroke-linecap="round" stroke-linejoin="round" stroke-dasharray="1.12 1.12"/>
<path d="M764.931 335.916C764.931 335.916 761.807 336.948 772.574 332.366C783.332 327.784 794.787 329.849 803.254 327.784C811.73 325.719 814.012 330.528 814.474 320.458C814.936 310.379 817.218 311.303 822.488 308.776C827.758 306.259 825.467 303.742 830.502 303.053C835.537 302.365 838.055 308.324 844.928 300.989C851.801 293.663 858.439 292.06 863.7 290.91C868.97 289.769 871.488 285.64 870.338 292.051C869.197 298.462 863.465 297.548 867.82 302.356C872.167 307.165 874.232 308.994 869.649 313.576C865.067 318.158 863.311 316.456 864.071 321.771" stroke="#676B78" stroke-width="0.95" stroke-miterlimit="10" stroke-linecap="round" stroke-linejoin="round" stroke-dasharray="1.12 1.12"/>
<path d="M842.275 371.54C842.275 371.54 843.099 366.026 840.119 365.799C837.14 365.573 837.376 372.437 832.794 373.587C828.211 374.728 827.523 371.948 820.885 376.883C814.248 381.827 819.509 381.827 810.127 384.345C800.737 386.862 803.716 393.962 801.887 399.459C800.058 404.955 798.219 408.849 799.143 413.658C800.058 418.466 807.918 425.258 807.918 425.258" stroke="#676B78" stroke-width="0.95" stroke-miterlimit="10" stroke-linecap="round" stroke-linejoin="round" stroke-dasharray="1.12 1.12"/>
<path d="M773.107 420.676C773.107 420.676 778.984 425.303 778.296 429.442C777.608 433.571 777.418 449.273 777.418 449.273" stroke="#676B78" stroke-width="0.95" stroke-miterlimit="10" stroke-linecap="round" stroke-linejoin="round" stroke-dasharray="1.12 1.12"/>
<path d="M797.758 413.875C797.758 413.875 797.758 412.272 791.808 412.734C785.859 413.196 791.419 420.975 786.122 422.578C780.824 424.18 777.211 425.249 777.211 425.249" stroke="#676B78" stroke-width="0.95" stroke-miterlimit="10" stroke-linecap="round" stroke-linejoin="round" stroke-dasharray="1.12 1.12"/>
<path d="M810.127 384.345C810.127 384.345 812.871 379.075 809.213 372.663C805.545 366.252 812.192 362.132 814.483 362.584C816.774 363.046 817.87 363.427 820.641 362.548C823.412 361.67 824.562 351.138 828.682 346.783C832.802 342.427 832.35 344.718 837.385 336.939C842.419 329.151 844.258 327.784 851.584 325.946C858.91 324.117 865.339 320.141 865.339 320.141" stroke="#676B78" stroke-width="0.95" stroke-miterlimit="10" stroke-linecap="round" stroke-linejoin="round" stroke-dasharray="1.12 1.12"/>
<path fill-rule="evenodd" clip-rule="evenodd" d="M266.34 589.958C265.595 591.57 265.194 593.32 265.164 595.096C265.134 596.872 265.475 598.635 266.165 600.271C267.46 597.213 270.006 595.008 273 593.569C272.705 593.427 272.408 593.294 272.105 593.166C270.235 592.384 268.236 591.408 266.34 589.958Z" fill="#EF562C"/>
<path fill-rule="evenodd" clip-rule="evenodd" d="M287.999 573C287.999 573 279.23 577.687 272.998 582.571C274.67 583.882 276.16 585.207 277.24 586.46C278.235 587.482 279.05 588.664 279.65 589.958C283.493 587.023 286.913 582.147 287.991 573" fill="#EF562C"/>
<path fill-rule="evenodd" clip-rule="evenodd" d="M268.749 586.46C269.837 585.207 271.327 583.882 272.991 582.571C266.777 577.687 258 573 258 573C259.076 582.147 262.496 587.023 266.339 589.958C266.941 588.665 267.755 587.483 268.749 586.46Z" fill="#477FC1"/>
<path fill-rule="evenodd" clip-rule="evenodd" d="M272.998 593.569C275.979 595.002 278.512 597.192 279.814 600.227C279.815 600.231 279.818 600.234 279.821 600.237C279.824 600.239 279.828 600.24 279.832 600.24C279.836 600.24 279.84 600.239 279.843 600.237C279.847 600.234 279.849 600.231 279.851 600.227C280.532 598.596 280.867 596.84 280.833 595.072C280.8 593.304 280.4 591.563 279.658 589.958C277.762 591.406 275.763 592.384 273.893 593.166C273.592 593.294 273.293 593.427 272.998 593.569Z" fill="#477FC1"/>
<path fill-rule="evenodd" clip-rule="evenodd" d="M277.249 586.46C276.16 585.207 274.669 583.882 273.007 582.571C271.336 583.882 269.845 585.207 268.766 586.46C267.772 587.482 266.957 588.665 266.355 589.957C268.251 591.407 270.25 592.383 272.12 593.166C272.423 593.293 272.72 593.428 273.015 593.569C273.31 593.428 273.607 593.293 273.91 593.166C275.78 592.383 277.779 591.407 279.675 589.957C279.073 588.665 278.259 587.483 277.267 586.46H277.249Z" fill="#2D3891"/>
<path fill-rule="evenodd" clip-rule="evenodd" d="M398.34 478.958C397.595 480.57 397.194 482.32 397.164 484.096C397.134 485.872 397.475 487.635 398.165 489.271C399.46 486.213 402.006 484.008 405 482.569C404.705 482.427 404.408 482.294 404.105 482.166C402.235 481.384 400.236 480.408 398.34 478.958Z" fill="#EF562C"/>
<path fill-rule="evenodd" clip-rule="evenodd" d="M419.999 462C419.999 462 411.23 466.687 404.998 471.571C406.67 472.882 408.16 474.207 409.24 475.46C410.235 476.482 411.05 477.664 411.65 478.958C415.493 476.023 418.913 471.147 419.991 462" fill="#EF562C"/>
<path fill-rule="evenodd" clip-rule="evenodd" d="M400.749 475.46C401.837 474.207 403.327 472.882 404.991 471.571C398.777 466.687 390 462 390 462C391.076 471.147 394.496 476.023 398.339 478.958C398.941 477.665 399.755 476.483 400.749 475.46Z" fill="#477FC1"/>
<path fill-rule="evenodd" clip-rule="evenodd" d="M404.998 482.569C407.979 484.002 410.512 486.192 411.814 489.227C411.815 489.231 411.818 489.234 411.821 489.237C411.824 489.239 411.828 489.24 411.832 489.24C411.836 489.24 411.84 489.239 411.843 489.237C411.847 489.234 411.849 489.231 411.851 489.227C412.532 487.596 412.867 485.84 412.833 484.072C412.8 482.304 412.4 480.563 411.658 478.958C409.762 480.406 407.763 481.384 405.893 482.166C405.592 482.294 405.293 482.427 404.998 482.569Z" fill="#477FC1"/>
<path fill-rule="evenodd" clip-rule="evenodd" d="M409.249 475.46C408.16 474.207 406.669 472.882 405.007 471.571C403.336 472.882 401.845 474.207 400.766 475.46C399.772 476.482 398.957 477.665 398.355 478.957C400.251 480.407 402.25 481.383 404.12 482.166C404.423 482.293 404.72 482.428 405.015 482.569C405.31 482.428 405.607 482.293 405.91 482.166C407.78 481.383 409.779 480.407 411.675 478.957C411.073 477.665 410.259 476.483 409.267 475.46H409.249Z" fill="#2D3891"/>
<path fill-rule="evenodd" clip-rule="evenodd" d="M212.34 363.958C211.595 365.57 211.194 367.32 211.164 369.096C211.134 370.872 211.475 372.635 212.165 374.271C213.46 371.213 216.006 369.008 219 367.569C218.705 367.427 218.408 367.294 218.105 367.166C216.235 366.384 214.236 365.408 212.34 363.958Z" fill="#EF562C"/>
<path fill-rule="evenodd" clip-rule="evenodd" d="M233.999 347C233.999 347 225.23 351.687 218.998 356.571C220.67 357.882 222.16 359.207 223.24 360.46C224.235 361.482 225.05 362.664 225.65 363.958C229.493 361.023 232.913 356.147 233.991 347" fill="#EF562C"/>
<path fill-rule="evenodd" clip-rule="evenodd" d="M214.749 360.46C215.837 359.207 217.327 357.882 218.991 356.571C212.777 351.687 204 347 204 347C205.076 356.147 208.496 361.023 212.339 363.958C212.941 362.665 213.755 361.483 214.749 360.46Z" fill="#477FC1"/>
<path fill-rule="evenodd" clip-rule="evenodd" d="M218.998 367.569C221.979 369.002 224.512 371.192 225.814 374.227C225.815 374.231 225.818 374.234 225.821 374.237C225.824 374.239 225.828 374.24 225.832 374.24C225.836 374.24 225.84 374.239 225.843 374.237C225.847 374.234 225.849 374.231 225.851 374.227C226.532 372.596 226.867 370.84 226.833 369.072C226.8 367.304 226.4 365.563 225.658 363.958C223.762 365.406 221.763 366.384 219.893 367.166C219.592 367.294 219.293 367.427 218.998 367.569Z" fill="#477FC1"/>
<path fill-rule="evenodd" clip-rule="evenodd" d="M223.249 360.46C222.16 359.207 220.669 357.882 219.007 356.571C217.336 357.882 215.845 359.207 214.766 360.46C213.772 361.482 212.957 362.665 212.355 363.957C214.251 365.407 216.25 366.383 218.12 367.166C218.423 367.293 218.72 367.428 219.015 367.569C219.31 367.428 219.607 367.293 219.91 367.166C221.78 366.383 223.779 365.407 225.675 363.957C225.073 362.665 224.259 361.483 223.267 360.46H223.249Z" fill="#2D3891"/>
<path fill-rule="evenodd" clip-rule="evenodd" d="M591.34 402.958C590.595 404.57 590.194 406.32 590.164 408.096C590.134 409.872 590.475 411.635 591.165 413.271C592.46 410.213 595.006 408.008 598 406.569C597.705 406.427 597.408 406.294 597.105 406.166C595.235 405.384 593.236 404.408 591.34 402.958Z" fill="#EF562C"/>
<path fill-rule="evenodd" clip-rule="evenodd" d="M612.999 386C612.999 386 604.23 390.687 597.998 395.571C599.67 396.882 601.16 398.207 602.24 399.46C603.235 400.482 604.05 401.664 604.65 402.958C608.493 400.023 611.913 395.147 612.991 386" fill="#EF562C"/>
<path fill-rule="evenodd" clip-rule="evenodd" d="M593.749 399.46C594.837 398.207 596.327 396.882 597.991 395.571C591.777 390.687 583 386 583 386C584.076 395.147 587.496 400.023 591.339 402.958C591.941 401.665 592.755 400.483 593.749 399.46Z" fill="#477FC1"/>
<path fill-rule="evenodd" clip-rule="evenodd" d="M597.998 406.569C600.979 408.002 603.512 410.192 604.814 413.227C604.815 413.231 604.818 413.234 604.821 413.237C604.824 413.239 604.828 413.24 604.832 413.24C604.836 413.24 604.84 413.239 604.843 413.237C604.847 413.234 604.849 413.231 604.851 413.227C605.532 411.596 605.867 409.84 605.833 408.072C605.8 406.304 605.4 404.563 604.658 402.958C602.762 404.406 600.763 405.384 598.893 406.166C598.592 406.294 598.293 406.427 597.998 406.569Z" fill="#477FC1"/>
<path fill-rule="evenodd" clip-rule="evenodd" d="M602.249 399.46C601.16 398.207 599.669 396.882 598.007 395.571C596.336 396.882 594.845 398.207 593.766 399.46C592.772 400.482 591.957 401.665 591.355 402.957C593.251 404.407 595.25 405.383 597.12 406.166C597.423 406.293 597.72 406.428 598.015 406.569C598.31 406.428 598.607 406.293 598.91 406.166C600.78 405.383 602.779 404.407 604.675 402.957C604.073 401.665 603.259 400.483 602.267 399.46H602.249Z" fill="#2D3891"/>
<path fill-rule="evenodd" clip-rule="evenodd" d="M274.34 747.958C273.595 749.57 273.194 751.32 273.164 753.096C273.134 754.872 273.475 756.635 274.165 758.271C275.46 755.213 278.006 753.008 281 751.569C280.705 751.427 280.408 751.293 280.105 751.166C278.235 750.383 276.236 749.408 274.34 747.958Z" fill="#EF562C"/>
<path fill-rule="evenodd" clip-rule="evenodd" d="M295.999 731C295.999 731 287.23 735.687 280.998 740.571C282.67 741.882 284.16 743.207 285.24 744.46C286.235 745.482 287.05 746.664 287.65 747.958C291.493 745.023 294.913 740.147 295.991 731" fill="#EF562C"/>
<path fill-rule="evenodd" clip-rule="evenodd" d="M276.749 744.46C277.837 743.207 279.327 741.882 280.991 740.571C274.777 735.687 266 731 266 731C267.076 740.147 270.496 745.023 274.339 747.958C274.941 746.665 275.755 745.483 276.749 744.46Z" fill="#477FC1"/>
<path fill-rule="evenodd" clip-rule="evenodd" d="M280.998 751.569C283.979 753.002 286.512 755.192 287.814 758.227C287.815 758.231 287.818 758.234 287.821 758.237C287.824 758.239 287.828 758.24 287.832 758.24C287.836 758.24 287.84 758.239 287.843 758.237C287.847 758.234 287.849 758.231 287.851 758.227C288.532 756.595 288.867 754.84 288.833 753.072C288.8 751.304 288.4 749.563 287.658 747.958C285.762 749.406 283.763 750.383 281.893 751.166C281.592 751.293 281.293 751.427 280.998 751.569Z" fill="#477FC1"/>
<path fill-rule="evenodd" clip-rule="evenodd" d="M285.249 744.46C284.16 743.207 282.669 741.882 281.007 740.571C279.336 741.882 277.845 743.207 276.766 744.46C275.772 745.482 274.957 746.665 274.355 747.957C276.251 749.407 278.25 750.383 280.12 751.166C280.423 751.293 280.72 751.428 281.015 751.569C281.31 751.428 281.607 751.293 281.91 751.166C283.78 750.383 285.779 749.407 287.675 747.957C287.073 746.665 286.259 745.483 285.267 744.46H285.249Z" fill="#2D3891"/>
<path fill-rule="evenodd" clip-rule="evenodd" d="M371.066 860.351C369.987 862.684 369.408 865.215 369.364 867.785C369.32 870.354 369.813 872.904 370.812 875.271C372.686 870.848 376.368 867.657 380.7 865.576C380.273 865.369 379.844 865.177 379.406 864.993C376.7 863.86 373.808 862.449 371.066 860.351Z" fill="#EF562C"/>
<path fill-rule="evenodd" clip-rule="evenodd" d="M402.398 835.819C402.398 835.819 389.712 842.599 380.697 849.665C383.116 851.562 385.272 853.478 386.834 855.291C388.273 856.769 389.452 858.48 390.32 860.351C395.88 856.105 400.828 849.051 402.387 835.819" fill="#EF562C"/>
<path fill-rule="evenodd" clip-rule="evenodd" d="M374.551 855.291C376.124 853.478 378.28 851.562 380.687 849.665C371.697 842.599 359 835.819 359 835.819C360.556 849.051 365.505 856.105 371.064 860.351C371.934 858.481 373.113 856.77 374.551 855.291Z" fill="#477FC1"/>
<path fill-rule="evenodd" clip-rule="evenodd" d="M380.697 865.576C385.01 867.648 388.675 870.817 390.558 875.207C390.559 875.213 390.563 875.218 390.568 875.221C390.572 875.225 390.578 875.226 390.584 875.226C390.59 875.226 390.596 875.225 390.6 875.221C390.605 875.218 390.609 875.213 390.611 875.207C391.596 872.847 392.081 870.307 392.033 867.75C391.985 865.193 391.405 862.673 390.332 860.351C387.59 862.446 384.697 863.86 381.992 864.993C381.556 865.177 381.124 865.369 380.697 865.576Z" fill="#477FC1"/>
<path fill-rule="evenodd" clip-rule="evenodd" d="M386.848 855.291C385.272 853.478 383.115 851.561 380.711 849.665C378.293 851.561 376.137 853.478 374.575 855.291C373.137 856.77 371.958 858.48 371.088 860.35C373.83 862.448 376.722 863.859 379.428 864.992C379.866 865.176 380.295 865.371 380.722 865.575C381.149 865.371 381.579 865.176 382.016 864.992C384.722 863.859 387.615 862.448 390.357 860.35C389.486 858.481 388.309 856.771 386.873 855.291H386.848Z" fill="#2D3891"/>
</g>
</svg>
