<svg width="103" height="102" viewBox="0 0 103 102" fill="none" xmlns="http://www.w3.org/2000/svg">
<ellipse cx="51.7803" cy="50.97" rx="49.96" ry="49.97" fill="white"/>
<path d="M51.7803 101.44C79.6487 101.44 102.24 78.8437 102.24 50.97C102.24 23.0963 79.6487 0.5 51.7803 0.5C23.9119 0.5 1.32031 23.0963 1.32031 50.97C1.32031 78.8437 23.9119 101.44 51.7803 101.44Z" stroke="#2E3192" stroke-opacity="0.2" stroke-linejoin="round"/>
<circle opacity="0.6" cx="51.57" cy="51.1598" r="44.57" fill="#C8DCFE"/>
<g clip-path="url(#clip0_1_25820)">
<path d="M36.6556 73.0717C35.2353 73.0717 33.8149 73.0572 32.3936 73.0799C31.9207 73.0871 31.693 72.9287 31.6357 72.4477C31.2534 69.2165 30.8562 65.9867 30.4638 62.7564C30.1948 60.5397 29.9256 58.3229 29.6563 56.1062C29.5928 55.5876 29.7098 55.4374 30.2341 55.4365C32.1336 55.4321 34.0335 55.4403 35.9329 55.4297C36.2964 55.4297 36.4895 55.5703 36.5868 55.9155C36.764 56.5444 36.9806 57.1621 37.1496 57.7933C37.2556 58.1886 37.479 58.3071 37.8126 58.1111C38.3726 57.7827 38.9735 57.4852 39.4429 57.0518C40.6832 55.9045 42.0463 55.0094 43.6968 54.5804C45.7951 54.0334 47.8231 54.2434 49.749 55.1967C50.9412 55.787 52.1661 56.0797 53.4868 56.0114C53.7574 55.9974 54.0328 55.9815 54.3005 56.0142C55.9857 56.2179 57.511 55.8269 58.8924 54.8409C59.15 54.6569 59.4485 54.5289 59.7306 54.3815C61.1356 53.6468 62.4987 53.7474 63.7982 54.6285C64.0871 54.825 64.3052 54.8572 64.6196 54.6882C65.8204 54.0421 67.0621 54.201 68.0439 55.1591C68.3573 55.4654 68.588 55.4745 68.9587 55.2954C70.5052 54.5477 72.3657 55.0595 73.2853 56.4365C73.5135 56.7784 73.4668 56.9921 73.1307 57.2228C68.7868 60.1964 64.4761 63.2201 60.0937 66.1364C58.5601 67.1572 56.7305 67.4976 54.9009 67.2511C52.5334 66.9314 50.1882 66.4451 47.8337 66.0276C47.2684 65.9275 46.7075 65.8052 46.1413 65.7127C45.3931 65.5904 44.6969 65.6858 44.0387 66.1239C43.0044 66.8144 41.95 67.4769 40.884 68.1172C40.5089 68.3421 40.4329 68.5862 40.5585 68.9839C40.9153 70.1077 41.2509 71.2382 41.5913 72.3673C41.7507 72.8969 41.6236 73.0702 41.0617 73.0722C39.5932 73.0751 38.1242 73.0717 36.6556 73.0717ZM57.7383 59.5502L57.7416 59.7631C58.7465 59.7631 59.7513 59.7597 60.7557 59.7631C61.3022 59.7659 61.3725 59.6769 61.2141 59.1444C60.8164 57.8078 59.5183 56.7981 58.1124 56.7779C56.5962 56.7557 55.079 56.7422 53.5633 56.7779C52.1271 56.8106 50.7886 56.5217 49.503 55.8727C47.7562 54.9911 45.9034 54.8409 44.0035 55.2554C42.4435 55.5954 41.1849 56.4538 40.0183 57.5184C39.4632 58.0239 38.7891 58.4298 38.1092 58.7577C37.6595 58.9749 37.5618 59.1631 37.7033 59.6186C38.4737 62.0987 39.2205 64.5865 39.9774 67.071C40.1401 67.6049 40.2716 67.6521 40.753 67.3498C41.7661 66.7139 42.7772 66.0759 43.7864 65.4359C44.4893 64.9915 45.2506 64.8099 46.0729 64.9496C47.0046 65.1075 47.9242 65.3001 48.8496 65.4643C50.8112 65.8143 52.7641 66.2399 54.7391 66.4797C56.7714 66.7267 58.6921 66.3112 60.4076 65.0834C62.1847 63.8118 64.0067 62.6028 65.8084 61.3664C67.8999 59.9306 69.9908 58.4944 72.0811 57.0576C72.5457 56.7379 72.5544 56.579 72.0999 56.2391C71.1947 55.565 70.1884 55.475 69.211 55.9791C66.9307 57.1568 64.6851 58.3971 62.4269 59.6215C62.3008 59.6899 62.1313 59.8425 62.1327 59.9537C62.1414 60.5835 61.7572 60.5657 61.2979 60.5536C59.0975 60.4978 56.8968 60.4564 54.6958 60.4294C54.2995 60.4241 53.9013 60.5257 53.5056 60.5175C53.3611 60.5146 53.2215 60.3312 53.0799 60.2286C53.1863 60.0924 53.2725 59.9306 53.4059 59.829C53.4954 59.7611 53.6495 59.7669 53.7762 59.7597C55.0973 59.6887 56.418 59.6189 57.7383 59.5502ZM36.5006 72.3052C37.7293 72.3052 38.9582 72.3052 40.1873 72.3052C40.7396 72.3052 40.7925 72.2411 40.638 71.7332C39.1069 66.7046 37.5764 61.6755 36.0466 56.6459C35.9454 56.3089 35.7914 56.1905 35.4428 56.1948C34.007 56.2112 32.5703 56.2015 31.134 56.2015C30.4248 56.2015 30.4118 56.2295 30.5009 56.9276C30.782 59.1747 31.0526 61.4222 31.3261 63.6684C31.6554 66.3748 31.9886 69.0812 32.3059 71.7895C32.3541 72.1829 32.4985 72.3235 32.9102 72.3138C34.1067 72.2869 35.3046 72.3052 36.5006 72.3052ZM67.6342 55.8929C67.5292 55.7485 67.4748 55.631 67.3833 55.5559C66.7535 55.0518 66.0092 54.8303 65.2836 55.1741C63.9759 55.7942 62.7206 56.5222 61.4452 57.2102C61.2044 57.3402 61.152 57.5131 61.3113 57.7591C61.4881 58.0234 61.6436 58.3013 61.7764 58.5902C61.9209 58.9214 62.1173 58.9667 62.4183 58.8039C64.0428 57.9248 65.6702 57.0528 67.2937 56.1726C67.4093 56.112 67.5008 56.0075 67.6342 55.8929ZM63.2893 55.2925C63.1395 55.1505 63.0485 54.9998 62.9219 54.9555C62.5807 54.8301 62.2287 54.7367 61.8703 54.6762C60.7764 54.5106 59.9083 55.0903 59.0224 55.591C58.9121 55.6531 58.7503 55.8216 58.7725 55.8799C58.8206 56.0046 58.9564 56.1206 59.084 56.1856C59.4477 56.3793 59.8237 56.5489 60.2097 56.6931C60.396 56.7586 60.6565 56.7894 60.8217 56.71C61.5501 56.3547 62.2579 55.9555 62.9691 55.565C63.0707 55.5077 63.1501 55.4119 63.2893 55.2925Z" fill="black"/>
<path d="M51.4923 51.2582C49.2897 51.2582 47.0867 51.2582 44.8835 51.2582C44.2094 51.2582 44.1444 51.1898 44.1391 50.5172C44.1304 49.3828 44.1304 49.3828 42.9927 49.3828C40.247 49.3828 37.5012 49.3828 34.7555 49.3828C33.9948 49.3828 33.9018 49.2966 33.9129 48.5306C33.9327 47.2075 33.859 45.8719 34.0188 44.5651C34.2398 42.7552 35.7522 41.4023 37.5582 41.1765C37.8774 41.137 38.123 41.1981 38.3628 41.4586C39.6045 42.8067 41.3841 42.8111 42.6513 41.4755C42.9027 41.2106 43.1603 41.1004 43.4983 41.2039C43.908 41.3296 44.3274 41.4413 44.7145 41.6194C45.0188 41.7595 45.2181 41.7639 45.4661 41.5043C46.1816 40.7527 47.0795 40.3266 48.0969 40.1408C48.5302 40.0623 48.86 40.1244 49.1961 40.4918C50.5443 41.9666 52.7109 41.9589 54.0591 40.4855C54.3783 40.1374 54.685 40.0743 55.115 40.1649C56.0957 40.3714 56.9508 40.8004 57.6456 41.5222C57.8575 41.7417 58.0404 41.7889 58.3144 41.6406C58.5831 41.5017 58.8644 41.3888 59.1546 41.3036C59.7588 41.1153 60.2528 41.1167 60.7728 41.6733C61.8321 42.8101 63.6699 42.7268 64.7475 41.5616C65.0797 41.2029 65.3907 41.1384 65.8438 41.2395C67.79 41.6729 69.1285 43.2666 69.166 45.2686C69.1863 46.4015 69.1733 47.5354 69.1709 48.6688C69.1709 49.2653 69.051 49.3833 68.4298 49.3838C65.5249 49.3867 62.62 49.3867 59.715 49.3838C59.587 49.3838 59.4319 49.3385 59.338 49.3953C59.1936 49.483 59.0193 49.6231 58.9827 49.7719C58.924 50.0126 58.9687 50.2784 58.9654 50.534C58.9572 51.1672 58.8715 51.2563 58.2465 51.2592C55.9945 51.2604 53.7431 51.2601 51.4923 51.2582ZM51.5886 50.4917C53.6166 50.4917 55.6444 50.4917 57.6721 50.4917C57.9745 50.4917 58.2046 50.4666 58.2017 50.0689C58.1863 48.169 58.2301 46.2652 58.1647 44.3696C58.1078 42.7326 56.8753 41.3507 55.2849 40.9511C54.9436 40.8649 54.7071 40.903 54.4327 41.162C52.8019 42.7157 50.3844 42.7027 48.7864 41.137C48.5307 40.8856 48.288 40.8481 47.9731 40.915C46.2239 41.2862 44.9398 42.7976 44.9143 44.5945C44.8873 46.3822 44.9181 48.1709 44.8974 49.9592C44.8921 50.3925 45.051 50.5013 45.4574 50.4984C47.5008 50.483 49.5447 50.4917 51.5886 50.4917ZM39.3633 48.6139C40.7822 48.6139 42.2016 48.6033 43.6201 48.6202C44.0187 48.625 44.1531 48.4829 44.1454 48.0905C44.1261 47.0703 44.0876 46.0462 44.1564 45.0302C44.2046 44.2955 44.4169 43.5713 44.5532 42.8419C44.5782 42.7066 44.6461 42.5448 44.5989 42.4375C44.4188 42.0277 43.3471 41.8727 43.0009 42.1876C41.53 43.5314 39.4736 43.5357 38.0325 42.1784C37.8067 41.9656 37.5991 41.9069 37.3074 41.9699C35.8148 42.2925 34.7016 43.6248 34.6809 45.1477C34.6669 46.1362 34.6948 47.1252 34.6693 48.1132C34.6587 48.5267 34.8181 48.6264 35.2018 48.6216C36.5885 48.6047 37.9761 48.6153 39.3633 48.6153V48.6139ZM63.6651 48.6139C65.085 48.6139 66.5059 48.6062 67.9257 48.6192C68.2661 48.6221 68.4169 48.5301 68.4101 48.1613C68.3913 47.1401 68.4164 46.1184 68.3986 45.0972C68.374 43.671 67.334 42.383 65.9594 42.0157C65.6363 41.9285 65.4095 41.9675 65.1452 42.2083C63.7489 43.4832 61.834 43.5266 60.3886 42.3479C59.8108 41.8756 59.4016 41.851 58.7217 42.2314C58.4723 42.371 58.3847 42.5323 58.5214 42.814C58.8869 43.5627 58.9745 44.3667 58.9663 45.1896C58.9567 46.1309 58.9822 47.0732 58.9562 48.014C58.9437 48.4613 59.066 48.637 59.548 48.6264C60.9187 48.5956 62.2924 48.6153 63.6632 48.6153L63.6651 48.6139Z" fill="black"/>
<path d="M55.7454 34.3134C55.7849 35.5363 55.6255 36.6996 54.8696 37.7203C54.3736 38.3814 53.6919 38.8797 52.9115 39.1516C52.1312 39.4235 51.2874 39.4568 50.4881 39.2471C48.8578 38.8104 47.5563 37.3992 47.4417 35.7554C47.3647 34.6504 47.3387 33.505 47.5409 32.4245C47.9073 30.4678 49.84 29.0763 51.7337 29.2159C53.8397 29.3715 55.4608 30.9117 55.6751 32.9763C55.7227 33.4198 55.7237 33.8675 55.7454 34.3134ZM48.1592 34.2787H48.1616C48.1616 34.7092 48.1365 35.1415 48.1659 35.5701C48.2824 37.2673 49.6956 38.5885 51.4356 38.6462C53.1882 38.704 54.7352 37.4517 54.8994 35.7419C54.9895 34.7894 54.9895 33.8306 54.8994 32.8781C54.7347 31.1448 53.1979 29.9126 51.3937 29.9685C49.6816 30.021 48.2699 31.3744 48.1611 33.0827C48.138 33.4804 48.1592 33.8801 48.1592 34.2787Z" fill="black"/>
<path d="M44.1817 36.1497C44.1509 36.5941 44.1538 37.0438 44.0854 37.482C43.7917 39.3208 42.3169 40.6198 40.5018 40.666C38.7848 40.7094 37.1641 39.4585 36.869 37.6727C36.7047 36.6655 36.7025 35.6385 36.8627 34.6307C37.1622 32.7861 38.8941 31.4779 40.6183 31.6171C42.5991 31.7769 44.0488 33.2613 44.1485 35.2388C44.1639 35.5411 44.1485 35.845 44.1485 36.1478L44.1817 36.1497ZM37.5291 36.1382C37.5291 36.4728 37.5185 36.8079 37.5291 37.1421C37.5878 38.6977 38.8565 39.9005 40.4377 39.9063C42.0059 39.912 43.3102 38.7088 43.3777 37.1642C43.4075 36.4805 43.4075 35.793 43.3777 35.1093C43.3093 33.5637 42.0074 32.3648 40.4358 32.3687C38.8642 32.3725 37.5878 33.5791 37.5291 35.1348C37.518 35.4689 37.5291 35.8036 37.5291 36.1382Z" fill="black"/>
<path d="M66.4118 36.1795C66.3005 36.8666 66.2798 37.584 66.0598 38.234C65.5191 39.8354 63.8084 40.8624 62.233 40.6265C60.3432 40.3438 59.0335 38.9663 58.9435 37.0895C58.9045 36.2811 58.9031 35.4553 59.0239 34.6585C59.2945 32.8674 61.0245 31.5005 62.7636 31.6146C64.7015 31.7417 66.2028 33.2208 66.3039 35.1125C66.3222 35.4626 66.3039 35.814 66.3039 36.165L66.4118 36.1795ZM65.5494 36.1313C65.5494 35.7943 65.561 35.4616 65.5494 35.1275C65.4868 33.5684 64.2181 32.371 62.6355 32.369C61.0673 32.369 59.763 33.5776 59.7009 35.1178C59.6734 35.7856 59.6768 36.4568 59.7009 37.1251C59.7524 38.6914 61.0606 39.9153 62.6514 39.9066C64.234 39.898 65.4921 38.6981 65.5518 37.1352C65.561 36.8006 65.5499 36.4655 65.5494 36.1309V36.1313Z" fill="black"/>
<path d="M36.1981 71.3449C35.3449 71.3449 34.5726 70.5635 34.5861 69.7122C34.5996 68.8797 35.369 68.119 36.1947 68.1233C37.0441 68.1267 37.8318 68.924 37.8125 69.7603C37.7933 70.5967 37.0296 71.3439 36.1981 71.3449ZM36.1769 70.5803C36.6998 70.5861 37.0489 70.2466 37.0503 69.731C37.0503 69.2447 36.7041 68.8903 36.2169 68.8816C35.7027 68.873 35.3473 69.224 35.3502 69.7392C35.3521 70.2346 35.6849 70.575 36.1769 70.5803Z" fill="black"/>
</g>
<defs>
<clipPath id="clip0_1_25820">
<rect width="48" height="48" fill="white" transform="translate(27 25.5898)"/>
</clipPath>
</defs>
</svg>
