<svg width="102" height="102" viewBox="0 0 102 102" fill="none" xmlns="http://www.w3.org/2000/svg">
<ellipse cx="50.96" cy="50.97" rx="49.96" ry="49.97" fill="white"/>
<path d="M50.96 101.44C78.8284 101.44 101.42 78.8437 101.42 50.97C101.42 23.0963 78.8284 0.5 50.96 0.5C23.0916 0.5 0.5 23.0963 0.5 50.97C0.5 78.8437 23.0916 101.44 50.96 101.44Z" stroke="#2E3192" stroke-opacity="0.2" stroke-linejoin="round"/>
<circle opacity="0.6" cx="50.57" cy="50.57" r="44.57" fill="#C8DCFE"/>
<g clip-path="url(#clip0_1_25842)">
<path d="M52.4115 51.5191C47.6548 51.5191 42.8979 51.5182 38.1406 51.5166C35.9702 51.5128 34.3369 50.2666 33.8169 48.2516C33.7553 48.0375 33.7134 47.8183 33.6919 47.5966C33.4419 43.942 33.9835 40.4587 35.9702 37.3012C36.2745 36.8167 36.6211 36.3602 37.006 35.937C37.256 35.6612 37.2769 35.4528 37.1044 35.1412C36.3894 33.8478 35.6853 32.5482 34.9923 31.2424C34.6315 30.562 34.8673 29.877 35.5248 29.6982C35.7406 29.6391 35.9998 29.6641 36.2227 29.7187C36.8544 29.8741 37.4727 30.0887 38.1077 30.2262C38.2965 30.2678 38.5752 30.1874 38.7231 30.0595C39.156 29.6845 39.5365 29.2537 39.9506 28.8582C40.5585 28.2778 41.2348 28.3399 41.7423 29.0091C41.9273 29.2499 42.1056 29.4941 42.2919 29.7332C42.5002 30.0012 42.7131 30.0316 42.961 29.7678C43.2548 29.4549 43.5606 29.152 43.8727 28.8574C44.4835 28.2803 45.1577 28.3416 45.6669 29.0095C45.9081 29.3257 46.1515 29.6399 46.3919 29.9566C46.5648 30.1841 46.7669 30.2141 47.0169 30.0816C47.411 29.8732 47.8106 29.6795 48.2098 29.4828C48.6548 29.2632 49.0927 29.2895 49.4477 29.6341C49.786 29.9624 49.831 30.3799 49.6485 30.8232C49.074 32.2187 48.5152 33.6203 47.9277 35.0103C47.7581 35.4112 47.7519 35.7249 48.011 36.1112C48.3723 36.6487 48.6544 37.2432 48.9344 37.8303C49.1035 38.1853 49.3044 38.3691 49.7298 38.3507C50.5398 38.3162 51.3548 38.3237 52.1635 38.3474C52.6265 38.3612 52.769 38.1707 52.7665 37.7262C52.7535 35.1803 52.7598 32.6345 52.7602 30.0882C52.7602 29.2666 52.849 29.1749 53.6494 29.1749C55.9402 29.1749 58.2319 29.1749 60.5244 29.1749C61.239 29.1749 61.3531 29.2895 61.3535 30.0053C61.3535 33.172 61.3535 36.3387 61.3535 39.5053C61.3535 39.6328 61.3265 39.7687 61.3631 39.8849C61.4023 40.0099 61.4781 40.1724 61.5815 40.2182C61.671 40.2557 61.8531 40.1845 61.939 40.1028C62.4223 39.642 62.8865 39.1603 63.3627 38.692C63.8152 38.2466 64.046 38.2391 64.4877 38.6795C66.3922 40.5778 68.2908 42.4821 70.1835 44.3924C70.346 44.5591 70.5115 44.9312 70.4335 45.0712C70.3306 45.2549 69.9906 45.3791 69.744 45.3949C68.994 45.442 68.994 45.417 68.994 46.1532C68.994 47.0282 68.9906 47.9032 68.994 48.7782C68.9965 49.2841 69.166 49.4032 69.6348 49.2366C71.6081 48.5457 73.3931 50.0153 73.1123 52.0824C72.599 55.8607 71.4277 59.3841 69.1173 62.4666C65.8535 66.8216 61.5077 69.4187 56.161 70.3191C54.9294 70.5274 53.661 70.5953 52.411 70.602C46.9702 70.6316 41.529 70.6191 36.0881 70.6082C35.5048 70.6082 35.3506 70.7216 35.3852 71.3166C35.4048 71.6822 35.404 72.0486 35.3827 72.4141C35.341 73.1562 34.879 73.6466 34.1373 73.6583C32.6265 73.6824 31.1152 73.6824 29.6035 73.6583C28.8015 73.647 28.336 73.1308 28.3281 72.2962C28.3173 71.1824 28.3248 70.0687 28.3248 68.9545C28.3248 64.6264 28.3248 60.2982 28.3248 55.9699C28.3248 54.8166 28.759 54.3807 29.9081 54.3795C31.2448 54.3795 32.581 54.3762 33.9173 54.3795C34.9106 54.3828 35.381 54.8528 35.3902 55.8378C35.394 56.2357 35.3827 56.6337 35.3931 57.0312C35.4056 57.4974 35.6323 57.6249 36.0335 57.3857C38.2419 56.0712 40.5977 55.1357 43.1352 54.7349C44.4373 54.527 45.7526 54.4124 47.071 54.392C50.5385 54.3457 54.0073 54.3787 57.4756 54.3757C59.184 54.3757 60.4548 55.0424 61.1031 56.6957C61.2431 57.052 61.4677 57.1657 61.8531 56.9937C63.0577 56.4582 64.2815 55.9657 65.4781 55.4174C65.7281 55.3028 65.9627 55.0537 66.0965 54.8078C66.5515 53.9707 66.959 53.1078 67.3827 52.2537C67.671 51.6728 67.5731 51.5128 66.9219 51.5124C62.0852 51.5163 57.2484 51.5185 52.4115 51.5191ZM45.9085 60.4945H46.5335C50.3044 60.4945 54.0749 60.4937 57.8452 60.492C58.5214 60.49 59.1693 60.2206 59.6475 59.7425C60.1256 59.2644 60.3952 58.6165 60.3973 57.9403C60.4031 56.5024 59.2794 55.3432 57.8465 55.3412C53.9965 55.3349 50.1456 55.2995 46.296 55.3537C42.481 55.4053 38.9844 56.5491 35.8002 58.6545C35.5085 58.8474 35.3765 59.0612 35.3781 59.4282C35.3931 62.6107 35.3865 65.7933 35.3869 68.9757C35.3869 69.6266 35.4202 69.6607 36.056 69.6607C41.7038 69.6607 47.3517 69.6589 52.9998 69.6553C53.7315 69.659 54.4629 69.6188 55.1898 69.5349C60.0885 68.9341 64.1481 66.7353 67.4177 63.0537C70.279 59.8332 71.6927 55.9957 72.2094 51.782C72.3306 50.7957 71.5365 49.9807 70.5456 49.9903C69.774 49.9982 69.3256 50.4641 69.0081 51.0916C68.2477 52.5945 67.5081 54.1091 66.7369 55.6057C66.6112 55.8347 66.4166 56.0183 66.1806 56.1303C64.7302 56.777 63.261 57.3803 61.811 58.0299C61.5923 58.1274 61.3385 58.3478 61.2756 58.5624C60.6952 60.5537 59.5323 61.4478 57.4473 61.4482C53.7717 61.4482 50.0966 61.4482 46.4219 61.4482H45.9085V60.4945ZM41.5002 50.5641C42.7402 50.5641 43.9804 50.5641 45.2206 50.5641C45.8552 50.5641 45.8873 50.5312 45.8873 49.8774C45.8873 46.8082 45.8873 43.7388 45.8873 40.6691C45.8873 40.1124 45.8798 39.5557 45.8898 38.9995C45.8985 38.4966 46.046 38.3553 46.5531 38.3428C46.8865 38.3345 47.2227 38.3612 47.5531 38.3341C47.8835 38.307 48.0581 38.1237 47.884 37.7849C47.6835 37.3916 47.4585 37.0087 47.2369 36.6249C47.0731 36.3374 46.8377 36.2337 46.4927 36.2357C43.9335 36.2507 41.3731 36.2728 38.8148 36.2241C38.1519 36.2116 37.7448 36.452 37.3769 36.9366C36.236 38.4374 35.4969 40.1249 35.0002 41.9353C34.5248 43.6662 34.6252 45.4353 34.6252 47.1957C34.6252 49.0887 36.0869 50.5528 37.9719 50.5628C39.149 50.5695 40.3256 50.5641 41.5002 50.5641ZM53.7165 40.3274C53.7165 43.5416 53.721 46.7562 53.711 49.9703C53.711 50.3907 53.8444 50.5757 54.286 50.5703C55.6222 50.5537 56.9585 50.5537 58.2952 50.5703C58.7302 50.5753 58.8827 50.4037 58.8785 49.9774C58.8623 48.7045 58.8731 47.4316 58.8727 46.1587C58.8727 45.4153 58.8727 45.4403 58.1265 45.3941C57.879 45.3787 57.5015 45.2516 57.4373 45.0816C57.3694 44.8962 57.5398 44.5449 57.7102 44.3641C58.4969 43.5307 59.3298 42.7437 60.1202 41.9145C60.2828 41.7343 60.3777 41.5032 60.3885 41.2607C60.4052 37.7607 60.4006 34.2607 60.3998 30.7582C60.3998 30.1845 60.3465 30.1332 59.769 30.1332C57.9709 30.1332 56.173 30.1332 54.3752 30.1332C53.764 30.1332 53.7181 30.1787 53.7181 30.7816C53.7165 33.9632 53.7159 37.1452 53.7165 40.3274ZM29.2773 63.9795C29.2773 66.6834 29.2773 69.3873 29.2773 72.0912C29.2773 72.6628 29.3315 72.7162 29.9102 72.7162C31.2144 72.7162 32.5185 72.7045 33.8223 72.7233C34.271 72.7299 34.4394 72.5733 34.4385 72.1162C34.4285 66.7242 34.4285 61.3321 34.4385 55.9399C34.4385 55.4816 34.2719 55.3257 33.8227 55.332C32.519 55.3512 31.2148 55.3378 29.9106 55.3391C29.3319 55.3391 29.2777 55.3924 29.2773 55.9641C29.2767 58.6355 29.2767 61.3073 29.2773 63.9795ZM52.7619 44.9432C52.7619 43.2574 52.7535 41.5716 52.7677 39.8862C52.771 39.4616 52.6252 39.2874 52.1877 39.2916C50.5977 39.3066 49.0077 39.3066 47.4177 39.2916C46.9819 39.2874 46.8344 39.4603 46.8373 39.8853C46.8473 43.2406 46.8473 46.596 46.8373 49.9516C46.8373 50.3974 46.9815 50.5766 47.4419 50.5712C49.0155 50.5531 50.5895 50.5531 52.164 50.5712C52.6223 50.5766 52.7735 50.3991 52.7694 49.9524C52.7502 48.2828 52.7619 46.6128 52.7619 44.9432ZM45.1185 33.1849C44.859 33.7041 44.629 34.1574 44.4056 34.6137C44.1735 35.0882 44.2969 35.2803 44.8381 35.2862C45.3469 35.2907 45.8565 35.2712 46.3644 35.2928C46.6831 35.3066 46.869 35.1812 46.9848 34.8957C47.4931 33.6457 48.0135 32.4007 48.509 31.1457C48.5594 31.0182 48.5227 30.7778 48.4315 30.6953C48.3402 30.6128 48.109 30.6066 47.9731 30.6562C47.6765 30.7641 47.4056 30.9399 47.1152 31.0678C46.5794 31.3041 46.1294 31.1874 45.7627 30.7241C45.5265 30.4249 45.301 30.1166 45.0715 29.812C44.8419 29.5074 44.6231 29.4537 44.3431 29.7724C44.0574 30.093 43.7534 30.3968 43.4327 30.6824C42.8219 31.2345 42.1731 31.162 41.6744 30.5066C41.4822 30.2538 41.2877 30.0023 41.091 29.752C40.8915 29.497 40.6973 29.4828 40.466 29.7312C40.1073 30.1137 39.7285 30.4778 39.3548 30.8462C38.974 31.2212 38.5435 31.3695 38.009 31.1853C37.5592 31.0286 37.0999 30.9006 36.634 30.802C36.4619 30.7662 36.2173 30.8053 36.0923 30.9128C36.0194 30.9762 36.0727 31.2632 36.1485 31.4082C36.6327 32.338 37.1297 33.261 37.6394 34.1774C38.3969 35.5462 38.009 35.2507 39.5615 35.287C39.5774 35.2878 39.5934 35.2878 39.6094 35.287C40.019 35.262 40.151 35.0666 39.9869 34.6962C39.8281 34.3357 39.6535 33.9832 39.4656 33.5912L40.2948 33.1928C40.4848 33.5832 40.699 33.9107 40.8081 34.2699C41.0606 35.1032 41.5644 35.407 42.4356 35.3116C42.876 35.2628 43.1298 35.1353 43.3106 34.7457C43.6173 34.0862 43.956 33.4416 44.2927 32.7691L45.1185 33.1849ZM63.9494 45.4082C62.7573 45.4082 61.5652 45.4153 60.3735 45.4041C59.9985 45.4007 59.8198 45.5341 59.8227 45.9278C59.8323 47.3107 59.829 48.6937 59.8227 50.0766C59.8227 50.4137 59.9694 50.5728 60.3085 50.5657C60.626 50.5587 60.944 50.5657 61.2619 50.5657C61.879 50.5657 61.9235 50.5241 61.9244 49.9237C61.9244 49.1287 61.9244 48.3341 61.9244 47.5391C61.9244 46.8766 62.0494 46.7503 62.694 46.7474C63.5201 46.7441 64.3465 46.7441 65.1731 46.7474C65.7981 46.7503 65.929 46.8799 65.9319 47.5024C65.9366 48.3607 65.9366 49.2191 65.9319 50.0774C65.9319 50.4145 66.0781 50.5732 66.4173 50.567C66.7827 50.5603 67.1485 50.5549 67.514 50.567C67.9073 50.5816 68.041 50.3932 68.0381 50.0178C68.0279 48.6667 68.0279 47.3155 68.0381 45.9641C68.0423 45.5557 67.881 45.3987 67.4748 45.4032C66.3019 45.4166 65.1252 45.4082 63.9494 45.4082ZM63.9077 44.4532C65.2256 44.4532 66.544 44.4616 67.8615 44.4437C68.0415 44.4412 68.2194 44.3082 68.3981 44.2353C68.3244 44.0782 68.286 43.8862 68.171 43.7695C66.8998 42.4807 65.6094 41.2107 64.3415 39.9187C64.0373 39.6087 63.8273 39.6082 63.5227 39.9187C62.2552 41.2103 60.9648 42.4812 59.6931 43.7699C59.5781 43.8866 59.5394 44.0782 59.4652 44.2349C59.644 44.3074 59.8219 44.4403 60.0019 44.4432C61.3031 44.4616 62.6052 44.4532 63.9073 44.4532H63.9077ZM64.9815 49.147C64.9815 48.8137 65.0285 48.4703 64.9623 48.1507C64.9269 47.9795 64.7123 47.7457 64.5506 47.7207C64.1423 47.6591 63.7269 47.6591 63.3185 47.7207C63.1556 47.7457 62.9127 47.9866 62.9019 48.1428C62.8546 48.8077 62.8546 49.4751 62.9019 50.1399C62.9127 50.2912 63.1673 50.5187 63.3356 50.5453C63.7231 50.6057 64.1273 50.562 64.5231 50.5653C64.8385 50.5674 64.9844 50.4116 64.9815 50.0999C64.9785 49.7882 64.981 49.4645 64.981 49.147H64.9815Z" fill="black"/>
<path d="M43.7492 41.5892C42.9475 41.5892 42.14 41.5871 41.3325 41.5892C40.785 41.5892 40.7325 41.6508 40.7317 42.2462C40.7317 42.8617 40.78 42.9217 41.3113 42.9246C41.9154 42.9279 42.5196 42.9183 43.1246 42.9279C43.6288 42.9358 43.7763 43.0833 43.7838 43.5896C43.7938 44.2257 43.7938 44.8619 43.7838 45.4983C43.7767 46.0083 43.63 46.1504 43.1329 46.1712C43.1008 46.1712 43.0692 46.1712 43.0375 46.1712C42.2963 46.1825 42.2963 46.1825 42.2263 46.935H41.3513C41.245 46.1796 41.245 46.1796 40.5425 46.1712C39.8725 46.1633 39.755 46.0242 39.7954 45.2167C40.5796 45.2167 41.3696 45.2312 42.1579 45.2067C42.3725 45.2004 42.7292 45.1204 42.7667 44.9983C42.8525 44.7142 42.8163 44.3762 42.7554 44.075C42.7371 43.9846 42.4742 43.895 42.3204 43.8896C41.7008 43.8688 41.08 43.8871 40.4596 43.8787C39.9254 43.8717 39.7838 43.7287 39.7767 43.1925C39.7688 42.5879 39.7708 41.9842 39.7767 41.3787C39.7813 40.765 39.9129 40.6417 40.5475 40.6346C41.2721 40.6267 41.2792 40.6204 41.3208 39.9062H42.1958C42.3483 40.6146 42.3483 40.6146 43.0875 40.6346C43.6963 40.65 43.825 40.8254 43.7492 41.5892Z" fill="black"/>
<path d="M32.3133 58.2405V59.893H31.4004V58.2405H32.3133Z" fill="black"/>
</g>
<defs>
<clipPath id="clip0_1_25842">
<rect width="55" height="55" fill="white" transform="translate(19 22)"/>
</clipPath>
</defs>
</svg>
