<svg width="103" height="102" viewBox="0 0 103 102" fill="none" xmlns="http://www.w3.org/2000/svg">
<ellipse cx="51.2393" cy="50.97" rx="49.96" ry="49.97" fill="white"/>
<path d="M51.2393 101.44C79.1077 101.44 101.699 78.8437 101.699 50.97C101.699 23.0963 79.1077 0.5 51.2393 0.5C23.3709 0.5 0.779297 23.0963 0.779297 50.97C0.779297 78.8437 23.3709 101.44 51.2393 101.44Z" stroke="#2E3192" stroke-opacity="0.2" stroke-linejoin="round"/>
<circle opacity="0.6" cx="50.8493" cy="50.57" r="44.57" fill="#C8DCFE"/>
<path d="M48.5691 64.5424H47.5492C47.5457 64.469 47.5392 64.4014 47.5386 64.3338C47.5386 63.957 47.5421 63.5801 47.5386 63.2032C47.537 63.0991 47.52 62.9959 47.4882 62.8968C47.2571 62.194 47.02 61.4941 46.7878 60.7919C46.7564 60.6847 46.6959 60.5882 46.6129 60.5134C46.5602 60.4678 46.5128 60.4162 46.4606 60.3706C45.3163 59.3691 44.6568 58.098 44.3931 56.6153C44.335 56.2504 44.3052 55.8815 44.3042 55.5119C44.2906 54.8358 44.287 54.1578 44.3042 53.4817C44.3332 52.2692 43.8989 51.2624 43.0076 50.447C42.8227 50.2769 42.636 50.1087 42.4535 49.9362C42.3975 49.8846 42.3241 49.8558 42.2479 49.8556C42.0244 49.8338 41.7996 49.8816 41.6043 49.9925C40.703 50.5211 40.0399 51.2334 39.8858 52.3084C39.8076 52.8565 39.8574 53.4058 39.9599 53.9528C40.242 55.4538 40.5104 56.9572 40.7848 58.4565C40.8909 59.0402 40.9999 59.6227 41.1012 60.2064C41.1308 60.3711 41.1463 60.5381 41.1475 60.7054C41.1498 63.8264 41.1498 66.9458 41.1475 70.0636C41.1427 70.9871 41.3293 71.9015 41.6956 72.7492C42.3907 74.3635 43.0775 75.9813 43.7756 77.5943C43.8847 77.8361 43.9382 78.0994 43.932 78.3647C43.9232 78.6918 43.932 79.0165 43.932 79.3756C43.7543 79.3756 43.5883 79.3792 43.4242 79.3798H42.9217C42.9169 79.3004 42.9098 79.234 42.9098 79.1676C42.9098 78.8121 42.9146 78.4565 42.9063 78.101C42.9045 77.9903 42.882 77.8809 42.8399 77.7786C42.1734 76.213 41.5036 74.6487 40.8304 73.0858C40.3588 72.0015 40.1167 70.8313 40.1193 69.6488C40.1193 66.5922 40.1205 63.5354 40.1229 60.4784C40.1229 60.1039 40.0375 59.7454 39.9729 59.3827C39.6316 57.4811 39.2926 55.5795 38.9359 53.6808C38.6663 52.2461 39.1309 51.0408 40.0618 49.983C40.2645 49.7555 40.5478 49.5907 40.7978 49.3999C40.8417 49.3655 40.8938 49.3407 40.9406 49.3116C41.1818 49.1516 41.2672 48.9484 41.199 48.6692C41.1778 48.6111 41.1449 48.5578 41.1024 48.5128C39.5839 46.6256 38.6319 44.3464 38.3569 41.9398C38.0903 39.5741 38.5561 37.3371 39.6061 35.2245C41.3543 31.7087 44.2064 29.5688 47.9907 28.6408C49.2253 28.3301 50.5035 28.2299 51.7715 28.3445C53.3304 28.485 54.8519 28.9022 56.2645 29.5765C57.4982 30.1576 58.6295 30.9349 59.6144 31.8781C60.743 32.9761 61.6486 34.2821 62.2811 35.7241C63.0058 37.3442 63.407 39.0426 63.3869 40.8204C63.3578 43.0947 62.7232 45.2085 61.5469 47.1558C60.8559 48.3153 59.9721 49.3484 58.9335 50.2106C58.3889 50.658 57.9368 51.186 57.6636 51.8485C57.4702 52.3138 57.3696 52.8125 57.3673 53.3164C57.3638 53.9682 57.3673 54.6141 57.3673 55.263C57.3673 55.5048 57.5119 55.6393 57.7495 55.6547C57.9376 55.6621 58.1244 55.6213 58.2923 55.5362C58.6106 55.391 58.9329 55.2636 59.2838 55.2144C59.485 55.193 59.6885 55.2089 59.884 55.2612C59.993 55.2857 60.1002 55.3169 60.2052 55.3549C61.1682 55.698 61.6589 56.4138 61.7999 57.3969C61.82 57.538 61.788 57.6873 61.7756 57.8325C61.7632 57.9777 61.7513 58.1098 61.7288 58.2473C61.6926 58.4743 61.8372 58.591 61.9931 58.703C62.0232 58.7206 62.0547 58.7357 62.0873 58.7481C62.9252 59.1285 63.3163 59.8295 63.4349 60.7007C63.484 61.0562 63.3715 61.3928 63.2298 61.7146C63.1519 61.8857 63.0602 62.0502 62.9555 62.2064C62.7777 62.4808 62.8233 62.799 63.0858 62.9904C63.1031 63.0022 63.1211 63.0129 63.1398 63.0224C63.7987 63.378 64.1187 63.9706 64.2704 64.6764C64.3889 65.2138 64.2029 65.695 63.9581 66.1578C63.7956 66.4776 63.5458 66.7447 63.2375 66.9282C63.1901 66.9567 63.151 66.9981 63.1042 67.0284C62.8861 67.1712 62.9341 67.3898 62.9478 67.5943C62.9507 67.6417 63.0035 67.6879 63.0378 67.7306C63.3312 68.0883 63.5312 68.5132 63.6198 68.9673C63.6647 69.201 63.6578 69.4417 63.5996 69.6725C63.5102 70.0541 63.3427 70.4131 63.1077 70.7267C62.9728 70.9057 62.8026 71.0552 62.6076 71.1658C62.4952 71.2277 62.3981 71.314 62.3234 71.4183C62.2486 71.5225 62.1981 71.6422 62.1756 71.7685C62.0269 72.4352 61.852 73.0965 61.682 73.7584C61.5113 74.4235 61.1908 75.0407 60.7451 75.5629C60.4825 75.8627 60.1722 76.117 59.8266 76.3155C58.9246 76.8607 58.0217 77.4029 57.1178 77.9421C57.0758 77.9676 57.0313 77.9889 56.9922 78.018C56.8174 78.146 56.6959 78.2894 56.7166 78.5371C56.7421 78.8061 56.7226 79.0787 56.7226 79.3667H55.7075C55.7027 79.3075 55.6956 79.2518 55.695 79.1978C55.695 78.863 55.695 78.5282 55.695 78.1904C55.6965 78.0999 55.7072 78.0097 55.727 77.9214C55.7444 77.8326 55.7811 77.7487 55.8344 77.6756C55.8877 77.6024 55.9565 77.5419 56.0358 77.4983C57.1024 76.8654 58.172 76.2319 59.2304 75.5818C59.8491 75.2014 60.3457 74.693 60.6147 74.0055C60.7178 73.7164 60.8004 73.4204 60.8618 73.1196C60.8999 72.9433 60.9211 72.7637 60.9252 72.5833C60.9335 72.37 60.7777 72.2278 60.5661 72.2159C60.3853 72.2076 60.2051 72.2425 60.0405 72.3178C59.0923 72.7291 58.1442 73.1327 57.196 73.5392C57.1575 73.5558 57.1178 73.57 57.0775 73.5884C55.9048 74.1697 54.4423 73.426 54.0399 72.3439C53.8995 71.9676 53.7839 71.5919 53.8497 71.1824C53.8588 71.0921 53.8608 71.0011 53.8556 70.9104C53.8556 70.6882 53.7584 70.5507 53.5439 70.479C52.5128 70.1324 52.034 69.2938 51.9439 68.3332C51.9226 68.1134 51.9878 67.8728 52.0624 67.6595C52.1558 67.4048 52.2749 67.1604 52.418 66.93C52.5958 66.6337 52.5489 66.3072 52.2651 66.1158C52.2479 66.1039 52.2283 66.095 52.2106 66.0849C51.4787 65.653 51.154 64.9715 51.0752 64.1638C51.0378 63.7756 51.183 63.407 51.3596 63.0621C51.503 62.7807 51.679 62.5229 51.9356 62.3273C52.0891 62.2088 52.1946 62.0743 52.1726 61.8532C52.1454 61.6014 52.0251 61.4574 51.7709 61.4568C51.0663 61.4568 50.3617 61.4568 49.6565 61.4503C49.4414 61.4503 49.2257 61.4159 49.0106 61.3993C48.8648 61.3881 48.719 61.3732 48.5732 61.3715C48.3184 61.3685 48.1851 61.5107 48.1774 61.7679C48.1681 61.9354 48.1958 62.103 48.2586 62.2586C48.5128 62.8357 48.6191 63.4671 48.5679 64.0956C48.5608 64.2372 48.5691 64.3771 48.5691 64.5424ZM50.8393 52.4044C52.6052 52.4044 54.3706 52.4014 56.1365 52.4085C56.3018 52.4085 56.4209 52.3593 56.511 52.2349C56.5585 52.1675 56.5953 52.0931 56.62 52.0144C56.9489 51.0266 57.4781 50.1774 58.2846 49.5024C59.4698 48.5051 60.4523 47.3341 61.1629 45.9469C61.9576 44.3938 62.3752 42.6752 62.3818 40.9306C62.3972 39.5001 62.1898 38.1087 61.692 36.7635C61.09 35.138 60.1442 33.7412 58.9069 32.5359C57.4918 31.1581 55.8396 30.2011 53.9291 29.6915C52.4186 29.2885 50.8832 29.2417 49.3395 29.4147C47.9563 29.5759 46.6179 30.0055 45.3993 30.6793C44.316 31.2666 43.372 32.0334 42.524 32.9258C41.3151 34.1843 40.4201 35.7103 39.9119 37.3798C39.4118 39.0076 39.3353 40.671 39.522 42.3516C39.6772 43.6928 40.0843 44.9926 40.722 46.1827C41.4236 47.5167 42.3866 48.6372 43.5172 49.6233C43.7231 49.8008 43.9147 49.9942 44.0903 50.2017C44.5321 50.7356 44.8607 51.3537 45.0562 52.0186C45.1463 52.3149 45.2731 52.4061 45.5848 52.4061L50.8393 52.4044ZM50.8322 56.1063H55.9611C56.2129 56.1063 56.3552 55.9623 56.3552 55.7087C56.3552 55.0734 56.3552 54.4381 56.3552 53.8035C56.357 53.7555 56.3491 53.7077 56.3321 53.6628C56.3151 53.6179 56.2893 53.5769 56.2562 53.5421C56.162 53.4349 56.0535 53.4177 55.9226 53.4177C52.6831 53.4201 49.4451 53.4201 46.2088 53.4177C46.0275 53.4177 45.8455 53.4177 45.6642 53.4177C45.5712 53.4207 45.483 53.4593 45.4176 53.5254C45.3522 53.5916 45.3147 53.6803 45.3128 53.7732C45.3128 54.4287 45.3128 55.0847 45.3128 55.7407C45.3106 55.7819 45.3168 55.8231 45.3311 55.8618C45.3453 55.9005 45.3673 55.9359 45.3958 55.9658C45.4363 56.0124 45.487 56.0492 45.5438 56.0733C45.6007 56.0975 45.6623 56.1083 45.724 56.1051C47.4272 56.1031 49.1299 56.1035 50.8322 56.1063ZM62.4399 60.837C62.4399 60.7812 62.4399 60.7255 62.4399 60.6698C62.4452 60.5372 62.4218 60.405 62.3713 60.2823C62.3208 60.1595 62.2443 60.0492 62.1472 59.9587C62.0826 59.8953 62.0198 59.8301 61.9546 59.7673C61.782 59.6006 61.5521 59.5063 61.3122 59.5036C60.9685 59.4918 60.6272 59.4858 60.3285 59.701C60.3046 59.7151 60.2791 59.7264 60.2526 59.7347C58.386 60.5051 56.556 61.3673 54.6657 62.0849C54.0731 62.3095 53.4989 62.5815 52.9152 62.8287C52.6268 62.9581 52.3844 63.172 52.22 63.442C52.0156 63.7549 52.0097 64.5087 52.2266 64.8085C52.3658 65.0029 52.5584 65.1641 52.738 65.3241C52.8028 65.3777 52.8807 65.413 52.9638 65.4266C53.3377 65.493 53.7086 65.5161 54.0725 65.3596C56.5578 64.293 59.0441 63.2298 61.5315 62.1703C61.8278 62.0452 62.0476 61.845 62.2467 61.6097C62.3692 61.4641 62.4371 61.2803 62.4387 61.09C62.4417 61.0047 62.4399 60.9205 62.4399 60.837ZM61.9534 63.6571C61.679 63.6316 61.4331 63.7164 61.183 63.8224C58.7621 64.8638 56.3396 65.9007 53.9155 66.933C53.645 67.0455 53.4032 67.2172 53.2079 67.4355C53.0642 67.5808 52.9755 67.7717 52.9572 67.9753C52.9445 68.1839 52.9445 68.3931 52.9572 68.6017C52.9768 68.9015 53.1664 69.1078 53.372 69.3051C53.698 69.6192 54.4322 69.7519 54.8381 69.5611C54.876 69.5439 54.9092 69.5173 54.9466 69.4977C55.0758 69.4301 55.2026 69.3555 55.3365 69.2974C56.3226 68.8725 57.3057 68.4417 58.2995 68.031C59.2002 67.6577 60.0772 67.2245 61.0064 66.9211C61.455 66.7753 61.8758 66.5442 62.3166 66.37C62.5889 66.2623 62.8324 66.0927 63.0278 65.8746C63.2056 65.6935 63.3047 65.4493 63.3033 65.1955C63.3033 65.077 63.3033 64.9584 63.3033 64.8399C63.2986 64.3487 62.8476 63.7845 62.3694 63.6861C62.2315 63.6672 62.0925 63.6575 61.9534 63.6571ZM60.8275 57.5445L60.8067 57.541C60.8067 57.4852 60.8067 57.4295 60.8067 57.3738C60.8014 56.9087 60.3848 56.3451 59.9309 56.242C59.5611 56.1578 59.1842 56.1555 58.8215 56.3113C57.1812 57.0147 55.5409 57.7205 53.8971 58.4168C53.6008 58.5418 53.3875 58.7528 53.1919 58.9904C53.0819 59.1284 53.0195 59.2982 53.0141 59.4746C53.0088 59.5718 53.0141 59.6701 53.0082 59.7673C52.9786 60.1501 53.1178 60.4535 53.3981 60.7155C53.7744 61.0675 54.3587 61.1984 54.8322 60.9964C56.5894 60.2457 58.3455 59.4928 60.1003 58.7374C60.2483 58.6733 60.3817 58.5798 60.4925 58.4625C60.6032 58.3453 60.6889 58.2067 60.7445 58.0553C60.8049 57.8983 60.8008 57.7158 60.8275 57.5445ZM62.6586 69.2672C62.639 69.109 62.6313 68.9478 62.5993 68.7931C62.5501 68.5721 62.3694 68.4375 62.2372 68.2663C61.9356 67.8799 61.2174 67.8515 60.8589 68.0044C59.0734 68.7581 57.2932 69.5261 55.5119 70.2912C55.4421 70.3218 55.3767 70.3616 55.3175 70.4097C54.9815 70.6817 54.7978 71.023 54.8435 71.4681C54.8523 71.551 54.8435 71.6352 54.8488 71.7187C54.8575 71.9227 54.9352 72.1176 55.0692 72.2716C55.3655 72.6325 55.7211 72.8595 56.2094 72.7984C56.2574 72.7925 56.3083 72.805 56.3558 72.7984C56.4986 72.7735 56.652 72.7658 56.7812 72.7107C58.4565 71.9996 60.1323 71.2885 61.7987 70.5584C62.3362 70.3184 62.6894 69.9149 62.6568 69.2672H62.6586ZM49.3673 57.1344H46.1904C46.1347 57.1344 46.0784 57.1344 46.0233 57.1344C45.8882 57.1433 45.7235 57.295 45.7175 57.4272C45.6997 57.6278 45.7251 57.8299 45.7922 58.0198C46.034 58.6414 46.444 59.1368 46.9341 59.5706C47.5719 60.1487 48.4046 60.4645 49.2654 60.4547C49.7815 60.4547 50.2971 60.4405 50.8126 60.4352C51.0918 60.4352 51.3709 60.4352 51.6494 60.4352C51.6976 60.4357 51.7453 60.4267 51.79 60.4085C51.8346 60.3903 51.8751 60.3634 51.9092 60.3293C51.9432 60.2953 51.9701 60.2547 51.9883 60.2101C52.0065 60.1655 52.0156 60.1177 52.015 60.0695C52.015 60.0138 52.015 59.9581 52.015 59.9024C52.0067 59.2458 52.236 58.6746 52.6443 58.1709C52.7403 58.0524 52.8624 57.9558 52.9673 57.8444C53.0722 57.733 53.0746 57.4041 52.9744 57.2838C52.9344 57.2319 52.8824 57.1906 52.8228 57.1635C52.7632 57.1363 52.6979 57.1241 52.6325 57.1279C51.5427 57.1374 50.4571 57.1344 49.3673 57.1344Z" fill="black"/>
<path d="M51.327 25.598H50.3664C50.3196 25.457 50.3013 23.1245 50.3457 22.7388H51.327V25.598Z" fill="black"/>
<path d="M32.7129 41.3514V40.3647H35.5716V41.3514H32.7129Z" fill="black"/>
<path d="M66.0977 40.363H68.9551V41.3533H66.0977V40.363Z" fill="black"/>
<path d="M37.7441 28.3773L38.3675 27.7568L40.3231 29.7124L39.6944 30.3299L37.7441 28.3773Z" fill="black"/>
<path d="M63.3205 27.7703L63.9333 28.3907L61.9843 30.3392L61.3691 29.7258L63.3205 27.7703Z" fill="black"/>
<path d="M50.7055 48.7796C50.0633 48.7589 49.4257 48.6631 48.8057 48.494C48.4312 48.3933 48.2919 48.2119 48.2807 47.8196C48.2679 47.5966 48.2691 47.3729 48.2842 47.15C48.3085 46.9094 48.1853 46.7696 48.0057 46.6599C47.7023 46.4756 47.4018 46.2813 47.0824 46.1266C46.9778 46.0782 46.8635 46.0544 46.7482 46.0571C46.6329 46.0597 46.5198 46.0888 46.4175 46.142C46.1799 46.2595 45.9483 46.3889 45.7236 46.5296C45.5144 46.6617 45.3272 46.6291 45.1458 46.4928C45.052 46.4213 44.9644 46.3421 44.8839 46.2558C43.9883 45.2989 43.3339 44.1421 42.9752 42.8816C42.9357 42.7728 42.9382 42.6532 42.982 42.5461C43.0258 42.439 43.1078 42.352 43.2122 42.302C43.4244 42.1835 43.6383 42.065 43.851 41.9465C43.8946 41.9245 43.9368 41.8997 43.9773 41.8724C44.1331 41.7539 44.235 41.6241 44.222 41.403C44.1992 41.0554 44.1992 40.7066 44.222 40.3589C44.2415 40.0762 44.1035 39.9186 43.8848 39.7953L43.246 39.4398C42.9734 39.2863 42.8987 39.1002 42.9882 38.7974C43.3559 37.5324 44.0232 36.3747 44.9337 35.4226C45.0219 35.3341 45.1188 35.2547 45.2229 35.1856C45.2904 35.1353 45.3718 35.1073 45.4559 35.1055C45.5401 35.1037 45.6226 35.1282 45.6922 35.1755C45.9204 35.3094 46.1497 35.4439 46.3879 35.5601C46.6498 35.6881 46.9165 35.6987 47.1802 35.5417C47.4173 35.3989 47.6667 35.2691 47.9103 35.134C47.9608 35.1106 48.0097 35.0839 48.0567 35.054C48.2066 34.939 48.3014 34.8051 48.2807 34.5942C48.2667 34.3785 48.2667 34.1621 48.2807 33.9464C48.2848 33.8563 48.2967 33.7667 48.3162 33.6786C48.3335 33.5745 48.3817 33.4781 48.4547 33.4018C48.5276 33.3256 48.6219 33.2732 48.7251 33.2513C49.7183 32.9864 50.7221 32.8525 51.7473 33.0143C52.1189 33.0736 52.4893 33.1429 52.8555 33.2294C53.2436 33.3213 53.3823 33.5127 53.3888 33.9156C53.4002 34.1316 53.3988 34.3481 53.3847 34.5639C53.358 34.8235 53.4978 34.9645 53.6916 35.0801C53.9672 35.2436 54.2445 35.4054 54.5213 35.563C54.6304 35.625 54.7531 35.6592 54.8786 35.6625C55.0041 35.6658 55.1284 35.6381 55.2407 35.582C55.4808 35.47 55.7127 35.3411 55.9346 35.1962C56.1521 35.0564 56.3423 35.0943 56.5313 35.2353C56.6038 35.2899 56.6714 35.3506 56.7334 35.4167C57.6468 36.3754 58.3158 37.5401 58.6836 38.8122C58.7678 39.1008 58.6901 39.291 58.4282 39.438C58.2155 39.5565 58.0015 39.675 57.7894 39.7936C57.7404 39.82 57.6937 39.8503 57.6495 39.8842C57.581 39.9311 57.5261 39.9954 57.4906 40.0705C57.4551 40.1456 57.4402 40.2287 57.4475 40.3115C57.4695 40.6667 57.4695 41.0229 57.4475 41.3782C57.4279 41.6549 57.5618 41.806 57.7752 41.9257C57.9885 42.0454 58.2137 42.1704 58.4318 42.2937C58.6943 42.4424 58.769 42.6297 58.683 42.9207C58.3198 44.1691 57.6652 45.3134 56.7731 46.2593C56.6646 46.3676 56.5455 46.4647 56.4175 46.5491C56.3576 46.5931 56.2856 46.6174 56.2113 46.6186C56.137 46.6199 56.0641 46.5981 56.0027 46.5562C55.7728 46.4253 55.5423 46.2931 55.3064 46.1728C55.0232 46.0288 54.7417 46.0205 54.4584 46.1947C54.2267 46.337 53.9844 46.4579 53.7473 46.5906C53.6809 46.6277 53.617 46.6691 53.5559 46.7144C53.4964 46.7566 53.4494 46.814 53.4199 46.8807C53.3904 46.9473 53.3794 47.0207 53.3882 47.0931C53.4024 47.3225 53.3882 47.553 53.3882 47.7835C53.3861 47.8598 53.3774 47.9357 53.3621 48.0105C53.3124 48.2605 53.1642 48.4087 52.9147 48.4786C52.1934 48.6687 51.4515 48.7698 50.7055 48.7796ZM57.534 38.545C57.5678 38.3915 57.5198 38.2457 57.4469 38.1088C57.2839 37.8007 57.1346 37.4836 56.945 37.1927C56.7672 36.9201 56.5461 36.6742 56.3399 36.4223C56.3071 36.3782 56.2588 36.3482 56.2048 36.3382C56.0057 36.3293 55.8101 36.3145 55.6199 36.4306C55.1186 36.7364 54.6125 36.702 54.1183 36.4027C54.0827 36.3808 54.0478 36.3577 54.011 36.337C53.7556 36.1953 53.5055 36.0407 53.2407 35.9156C52.9131 35.7671 52.6558 35.4973 52.523 35.163C52.4268 34.9382 52.3758 34.6965 52.3731 34.4519C52.3731 34.206 52.2421 34.0561 51.9921 34.0217C51.2306 33.9201 50.459 33.9201 49.6975 34.0217C49.4315 34.0561 49.3159 34.187 49.2999 34.4602C49.2981 34.5231 49.2929 34.5858 49.2845 34.6481C49.1938 35.2241 48.9533 35.6887 48.382 35.9358C48.1364 36.0517 47.8988 36.1839 47.6709 36.3316C47.4587 36.467 47.2259 36.5671 46.9817 36.6279C46.8462 36.6672 46.7024 36.6672 46.5669 36.6279C46.3734 36.5713 46.1854 36.4975 46.0051 36.4075C45.8273 36.3091 45.6495 36.3216 45.4777 36.3447C45.3847 36.3571 45.2922 36.4584 45.2217 36.5384C44.7733 37.0466 44.4154 37.6279 44.1633 38.257C44.0247 38.6013 44.126 38.8644 44.4484 39.0493C44.6297 39.153 44.814 39.2519 44.9959 39.355C45.2181 39.4807 45.3017 39.6555 45.2685 39.9097C45.1863 40.5327 45.1853 41.1638 45.2655 41.787C45.3035 42.0792 45.2253 42.2386 44.9639 42.3856C44.7861 42.4845 44.6018 42.5699 44.4371 42.6848C44.3186 42.7654 44.1787 42.8697 44.1444 42.9906C44.0949 43.1739 44.1106 43.3687 44.1888 43.5417C44.4306 44.0992 44.7478 44.6208 45.1316 45.0919C45.1938 45.1672 45.2679 45.2324 45.3313 45.3059C45.356 45.3349 45.3869 45.3578 45.4219 45.3729C45.4568 45.3881 45.4948 45.3949 45.5328 45.393C45.7224 45.393 45.8984 45.3817 46.0727 45.278C46.5378 45.0013 47.0137 45.0149 47.483 45.278L47.5559 45.3189C47.8664 45.4919 48.1734 45.6715 48.4881 45.8356C48.746 45.9633 48.9554 46.1712 49.0848 46.4282C49.2172 46.6904 49.2902 46.9785 49.2987 47.2721C49.3076 47.5091 49.4368 47.6614 49.6703 47.6934C50.4522 47.7999 51.2452 47.7973 52.0264 47.6857C52.1227 47.6726 52.2109 47.6249 52.2746 47.5515C52.3383 47.4781 52.3731 47.3841 52.3725 47.2869C52.368 47.0489 52.4139 46.8126 52.507 46.5936C52.606 46.3613 52.7115 46.1195 52.9373 45.9897C53.4113 45.7118 53.8919 45.4416 54.3808 45.1903C54.715 45.0179 55.0676 45.0321 55.4113 45.1873C55.5079 45.2275 55.6017 45.2741 55.6922 45.3266C55.8481 45.4244 56.0199 45.3947 56.1811 45.3776C56.2629 45.3693 56.3476 45.2857 56.4098 45.217C56.8801 44.6989 57.2528 44.1001 57.5097 43.4493C57.6418 43.118 57.5334 42.8525 57.2253 42.673C57.1891 42.6516 57.1518 42.6327 57.115 42.6137C56.9568 42.5248 56.7974 42.4389 56.641 42.347C56.5508 42.2996 56.4784 42.2245 56.4343 42.1327C56.3902 42.0409 56.3769 41.9374 56.3962 41.8374C56.4815 41.1937 56.4815 40.5416 56.3962 39.8979C56.3754 39.7915 56.3899 39.6813 56.4375 39.5839C56.4851 39.4866 56.5632 39.4075 56.6599 39.3586C56.8602 39.2448 57.0658 39.1405 57.2608 39.019C57.4321 38.9112 57.5903 38.7927 57.534 38.545Z" fill="black"/>
<path d="M50.8016 37.5706C52.1355 37.6731 53.4007 38.338 53.9275 39.855C54.2884 40.8944 54.0709 41.8343 53.4937 42.7202C52.9918 43.4906 52.2339 43.8811 51.3604 44.0766C50.59 44.2503 49.8819 44.0322 49.2117 43.6677C48.2991 43.1723 47.8292 42.3593 47.6117 41.3774C47.4392 40.5951 47.6644 39.884 48.0377 39.2103C48.5367 38.3101 49.3492 37.8503 50.3234 37.6369C50.5017 37.5984 50.6837 37.5866 50.8016 37.5706ZM50.8348 43.1261H50.9604C51.4237 43.1187 51.8729 42.9655 52.2441 42.6881C52.6153 42.4108 52.8896 42.0234 53.028 41.5812C53.0391 41.5482 53.0482 41.5146 53.0552 41.4805C53.1276 41.0956 53.1316 40.7011 53.0671 40.3149C52.9486 39.6227 52.4881 39.1711 51.9222 38.8168C51.6631 38.6603 51.3642 38.5823 51.0617 38.5922C50.9011 38.5922 50.74 38.5815 50.5806 38.5951C50.4074 38.6082 50.2357 38.6364 50.0674 38.6793C49.6223 38.7978 49.3094 39.1113 49.0149 39.442C48.8022 39.6759 48.6602 39.9655 48.6054 40.2769C48.5385 40.6491 48.5365 41.03 48.5995 41.4029C48.718 42.0944 49.1773 42.5483 49.7444 42.9009C50.0745 43.1048 50.4508 43.1486 50.8348 43.1261Z" fill="black"/>
</svg>
