<svg width="102" height="102" viewBox="0 0 102 102" fill="none" xmlns="http://www.w3.org/2000/svg">
<ellipse cx="50.96" cy="50.97" rx="49.96" ry="49.97" fill="white"/>
<path d="M50.96 101.44C78.8284 101.44 101.42 78.8437 101.42 50.97C101.42 23.0963 78.8284 0.5 50.96 0.5C23.0916 0.5 0.5 23.0963 0.5 50.97C0.5 78.8437 23.0916 101.44 50.96 101.44Z" stroke="#2E3192" stroke-opacity="0.2" stroke-linejoin="round"/>
<circle opacity="0.6" cx="50.57" cy="50.57" r="44.57" fill="#C8DCFE"/>
<path d="M55.8155 53.4912L51.7716 49.4371C52.0219 49.0301 52.3543 48.6042 52.5541 48.1236C52.6834 47.7953 52.7006 47.4336 52.603 47.0946C52.3511 46.3245 52.023 45.5764 51.6771 44.839C51.5697 44.614 51.3399 44.3691 51.1132 44.295C50.4586 44.0802 49.7787 43.9481 49.1063 43.7902C48.6767 43.6898 48.3545 43.8047 48.1563 44.2392C47.9377 44.7225 47.673 45.1854 47.449 45.6661C47.195 46.2063 47.3094 46.4663 47.8647 46.6821C49.4189 47.2863 49.8023 48.949 48.6676 50.1616C48.2514 50.6063 48.2594 50.8179 48.7025 51.269C49.7325 52.3189 50.8168 53.3215 51.7808 54.4284C58.838 62.5323 54.8183 75.1043 44.3783 77.6284C37.2303 79.3587 29.7617 74.9384 27.7956 67.6932C26.3456 62.3491 27.6743 57.6463 31.4802 53.6416C32.2611 52.8194 33.0828 52.0359 33.8824 51.2314C34.2863 50.8254 34.283 50.5816 33.8824 50.1605C32.7578 48.9791 33.1198 47.3046 34.6289 46.7047C35.2733 46.4485 35.37 46.2074 35.0548 45.5732C34.275 44.0039 33.4673 42.4487 32.7106 40.8687C31.752 38.8672 32.782 36.8109 34.9232 36.3845C35.675 36.2346 36.2733 36.5418 36.8028 37.0251C37.038 37.24 37.2357 37.4945 37.4666 37.7142C37.9499 38.1723 38.6443 38.1663 39.1282 37.7023C39.343 37.4945 39.5406 37.2631 39.7533 37.0504C40.6609 36.1417 41.8526 36.1342 42.7671 37.0327C42.982 37.2437 43.1748 37.4768 43.3906 37.6862C43.8955 38.1749 44.5882 38.1771 45.0931 37.697C45.2364 37.5649 45.3714 37.4241 45.4974 37.2754C46.7917 35.7073 48.5709 36.3909 49.4473 37.422C49.7476 37.7748 50.0193 38.0321 50.5107 37.9091C51.059 37.7711 51.5848 37.6943 51.7743 36.98C51.9558 36.2856 52.2931 35.6283 52.6024 34.9737C52.7952 34.565 52.8076 34.2127 52.5487 33.8325C52.2706 33.4232 52.0246 32.9925 51.806 32.6381L55.88 28.5706C56.2226 28.78 56.6807 29.0421 57.1184 29.3337C57.4658 29.5652 57.7924 29.5609 58.1645 29.3944C58.8901 29.0722 59.6199 28.7499 60.3664 28.4777C60.7461 28.3391 60.9453 28.1205 61.0248 27.7371C61.1354 27.2038 61.2718 26.6759 61.4007 26.1367H67.0938C67.226 26.6872 67.3087 27.2511 67.5079 27.772C67.6325 28.0626 67.8537 28.3013 68.1341 28.4476C68.8454 28.8039 69.5812 29.109 70.3359 29.3606C70.6453 29.4621 71.0529 29.4288 71.3654 29.316C71.7564 29.1747 72.0872 28.8729 72.4626 28.6758C72.5834 28.6125 72.8299 28.5942 72.9073 28.6699C74.1962 29.9325 75.4684 31.2133 76.7648 32.5108C76.4732 32.985 76.1418 33.4114 75.9421 33.8926C75.8126 34.2208 75.7952 34.5825 75.8927 34.9216C76.1511 35.6931 76.4601 36.4467 76.8174 37.1777C76.9488 37.4313 77.1668 37.6295 77.4318 37.7362C77.9748 37.929 78.5515 38.0273 79.1192 38.1658V43.8611C78.5639 43.9932 77.9989 44.0759 77.4775 44.2725C77.2089 44.3745 76.9345 44.6398 76.8046 44.9019C76.4467 45.612 76.1403 46.347 75.8878 47.101C75.7869 47.4098 75.8175 47.8255 75.9415 48.1295C76.1343 48.5972 76.4603 49.0107 76.6934 49.3861C75.3374 50.7405 74.0034 52.0745 72.6232 53.4536C72.2687 53.2345 71.8434 52.901 71.3628 52.7018C71.0344 52.5728 70.6727 52.556 70.3338 52.654C69.5638 52.9134 68.8116 53.2229 68.082 53.5804C67.8282 53.7118 67.6295 53.9294 67.5219 54.1942C67.3296 54.7377 67.2313 55.3145 67.0922 55.8827H61.3996C61.2665 55.3274 61.1848 54.7624 60.9845 54.2409C60.8819 53.9724 60.6166 53.698 60.3546 53.568C59.6602 53.2233 58.9169 52.9773 58.2129 52.6481C57.801 52.4564 57.4503 52.4537 57.0722 52.7109C56.6624 52.988 56.2312 53.2351 55.8155 53.4912ZM41.2774 50.7942C39.5052 50.7942 37.733 50.805 35.9607 50.7851C35.5902 50.7813 35.3378 50.8974 35.0848 51.1573C34.1085 52.161 33.1257 53.1577 32.1188 54.1303C28.7059 57.424 27.5921 61.4861 28.2296 66.0703C29.1479 72.6635 35.6734 78.6369 44.0893 76.8867C49.6971 75.7224 53.763 71.1641 54.3811 65.4478C54.8516 61.0978 53.6588 57.2849 50.472 54.1776C49.4441 53.1751 48.4304 52.1587 47.4308 51.1283C47.1859 50.8769 46.9367 50.7889 46.5941 50.7916C44.8224 50.8018 43.0496 50.7942 41.2774 50.7942ZM75.7015 32.7643C75.5629 32.5457 75.4867 32.3696 75.3631 32.2407C74.8465 31.7036 74.3211 31.1765 73.7869 30.6591C72.5555 29.4663 72.8616 29.2687 71.1786 30.3299C71.0174 30.4303 70.7129 30.4137 70.5239 30.3347C69.7914 30.0276 69.1088 29.5292 68.3511 29.3713C67.248 29.1409 66.661 28.6194 66.6105 27.4917C66.5939 27.1114 66.3479 26.9546 65.9591 26.9659C65.1798 26.9842 64.4017 26.9621 63.6203 26.9734C61.68 26.9987 62.1096 26.6754 61.6155 28.5475C61.6107 28.5647 61.6155 28.5878 61.6026 28.6012C61.4614 28.7456 61.3438 28.9513 61.173 29.0201C60.4351 29.3149 59.6156 29.4599 58.9497 29.8648C58.0152 30.4336 57.2263 30.5769 56.3719 29.7751C56.1034 29.526 55.7591 29.5979 55.4767 29.8874C54.6958 30.6861 53.9064 31.4758 53.1083 32.2563C52.8339 32.5248 52.8226 32.8126 52.9923 33.1182C53.1722 33.4404 53.4161 33.7369 53.5627 34.0741C53.6469 34.2838 53.6517 34.517 53.5761 34.7298C53.2764 35.4468 52.784 36.1127 52.6314 36.8533C52.3968 37.9934 51.8527 38.6089 50.6815 38.6765C50.3243 38.6969 50.24 38.9714 50.1911 39.3145C50.108 39.8695 49.9744 40.4158 49.7921 40.9466C49.6584 41.3456 49.4194 41.7086 49.239 42.0926C48.9656 42.6742 49.1224 43.0002 49.7331 43.1452C50.3872 43.3004 51.0381 43.4728 51.6975 43.6017C52.0531 43.671 52.2136 43.8321 52.3183 44.1898C52.5369 44.9336 52.7179 45.7294 53.1271 46.3674C53.7103 47.2804 53.7716 48.029 53.0348 48.8518C52.7507 49.1686 52.8425 49.5241 53.1679 49.8308C53.7098 50.3415 54.2211 50.8828 54.7522 51.4048C55.9836 52.6153 55.685 52.7093 57.2655 51.7024C57.5475 51.5225 57.7489 51.5466 58.0324 51.6932C58.7231 52.0493 59.4099 52.4988 60.1516 52.647C61.2638 52.872 61.8277 53.4177 61.8846 54.5379C61.9039 54.9224 62.1574 55.0648 62.5419 55.0562C63.3389 55.0384 64.1369 55.0605 64.9344 55.0492C66.7491 55.0239 66.4134 55.3333 66.85 53.5675C66.857 53.5511 66.8621 53.534 66.8651 53.5165C66.8651 53.1406 67.1062 53.0439 67.422 52.944C68.1792 52.7039 68.9976 52.5326 69.648 52.1116C70.5529 51.5262 71.2838 51.509 72.0824 52.2233C72.4046 52.5122 72.758 52.4172 73.0641 52.096C73.5651 51.5703 74.0941 51.0714 74.6006 50.5504C75.8357 49.2814 75.9593 49.6079 74.9303 47.9426C74.8299 47.7815 74.8438 47.4764 74.9228 47.2874C75.2219 46.571 75.7101 45.904 75.8658 45.1634C76.1 44.0528 76.6075 43.4277 77.7712 43.3799C78.1471 43.3649 78.3023 43.1114 78.2932 42.7231C78.2744 41.9261 78.2964 41.1281 78.2857 40.3306C78.2605 38.4859 78.5719 38.8575 76.7578 38.3973C76.7416 38.3905 76.7247 38.3856 76.7074 38.3828C76.3744 38.3871 76.303 38.168 76.2004 37.8946C75.8164 36.871 75.4185 35.8501 74.9609 34.8582C74.7998 34.5091 74.7579 34.2701 74.9856 33.9522C75.2466 33.5795 75.4555 33.1773 75.7026 32.7643H75.7015ZM44.0609 41.5717C43.8461 42.3236 43.6484 43.019 43.4492 43.7156C43.2639 44.36 43.0652 45.0044 42.896 45.6543C42.7226 46.3175 42.9014 46.5361 43.5786 46.5371C44.2166 46.5371 44.8573 46.5022 45.4915 46.549C45.9996 46.5855 46.2665 46.3755 46.4775 45.9437C47.2933 44.2741 48.1085 42.6039 48.9721 40.9589C49.2968 40.3461 49.4263 39.6486 49.3432 38.9601C49.2551 38.118 48.7352 37.5638 47.9753 37.2861C47.3352 37.0531 46.6864 37.0579 46.2004 37.6836C44.9905 39.2361 43.505 39.256 42.2849 37.6685C42.1638 37.5109 42.0078 37.3835 41.8291 37.2963C41.6505 37.2092 41.454 37.1646 41.2553 37.1663C41.0565 37.1679 40.8608 37.2156 40.6836 37.3056C40.5064 37.3957 40.3525 37.5256 40.2339 37.6852C39.0342 39.2458 37.581 39.213 36.3463 37.7104C35.7583 36.9945 34.7266 37.0123 33.9834 37.5949C33.0645 38.3113 32.9576 39.5922 33.3792 40.4949C34.2616 42.3869 35.2207 44.244 36.1761 46.1005C36.276 46.2955 36.5585 46.5033 36.7668 46.5157C37.5805 46.5637 38.3963 46.5627 39.2098 46.5124C39.3806 46.5022 39.5922 46.2305 39.6754 46.0329C39.7383 45.8836 39.6421 45.6569 39.5906 45.4706C39.2302 44.1817 38.8629 42.8928 38.487 41.5642L39.2211 41.3676C39.6652 42.9159 40.1008 44.4094 40.518 45.9083C40.6303 46.31 40.7925 46.5495 41.2699 46.5495C41.7473 46.5495 41.9143 46.3164 42.0266 45.912C42.4481 44.3971 42.8891 42.8869 43.33 41.3472L44.0609 41.5717ZM41.2318 49.943C43.2156 49.943 45.1996 49.943 47.1837 49.943C48.0188 49.943 48.4973 49.4849 48.5027 48.695C48.5081 47.8566 48.0446 47.3926 47.1864 47.3921C43.2535 47.39 39.321 47.39 35.3888 47.3921C34.5172 47.3921 34.0435 47.8448 34.0435 48.6665C34.0435 49.4882 34.5172 49.9425 35.3861 49.9436C37.3345 49.945 39.283 49.9448 41.2318 49.943Z" fill="black"/>
<path d="M44.2507 69.5134C43.5488 69.5134 42.929 69.5285 42.3103 69.5086C41.8485 69.4936 41.6702 69.6966 41.6949 70.1434C41.7132 70.4769 41.6981 70.812 41.6981 71.1804H40.8475C40.8475 70.8249 40.8228 70.4731 40.8534 70.1262C40.8942 69.6649 40.7132 69.4237 40.2723 69.2669C39.2245 68.891 38.6134 68.1177 38.3733 66.9926H39.0489C39.2713 67.3357 39.4608 67.6907 39.71 68.0001C40.101 68.4834 40.6273 68.6934 41.2572 68.6687C41.7878 68.6483 42.32 68.6579 42.8517 68.6687C43.2249 68.6751 43.4059 68.5124 43.4016 68.1316C43.3946 67.5119 43.4161 66.8911 43.3936 66.2719C43.3592 65.3439 42.5128 64.4884 41.5853 64.4143C39.3266 64.2338 38.2955 63.1136 38.2949 60.8387C38.2949 60.0632 38.2949 59.2882 38.2949 58.4553C38.9533 58.4553 39.5688 58.4338 40.1821 58.4617C40.6966 58.4859 40.8888 58.2684 40.8518 57.7716C40.8287 57.4569 40.8475 57.139 40.8475 56.7883H41.6981C41.6981 57.1438 41.7228 57.4956 41.6922 57.8425C41.6514 58.3038 41.8318 58.5455 42.2744 58.7018C43.3259 59.0777 43.9279 59.8554 44.1733 60.9767H43.4961C43.2743 60.6335 43.0842 60.2785 42.8356 59.9692C42.4451 59.4859 41.9183 59.2754 41.2889 59.3006C40.7578 59.321 40.2261 59.3108 39.6944 59.3006C39.3223 59.2947 39.1386 59.4531 39.144 59.8376C39.152 60.4579 39.13 61.0782 39.152 61.6974C39.1848 62.6238 40.0317 63.5271 40.9602 63.5453C43.1229 63.5883 44.3506 65.0936 44.2566 67.1311C44.2211 67.9039 44.2507 68.6805 44.2507 69.5134Z" fill="black"/>
<path d="M50.3792 67.7019L51.0344 67.9414C49.6837 71.7834 45.7048 74.3859 41.7383 74.5813V73.7758C43.6254 73.6759 45.3756 73.1313 46.9185 72.0132C48.4614 70.8951 49.6257 69.4876 50.3792 67.7019Z" fill="black"/>
<path d="M32.0563 60.2435C31.7835 60.1554 31.5859 60.0915 31.3555 60.0179C32.3672 56.9622 34.9209 55.1846 36.9476 52.9688C37.0303 53.0337 37.0867 53.0762 37.1394 53.1202C37.2736 53.2357 37.4079 53.3527 37.5389 53.4693C35.633 55.6926 33.0665 57.3069 32.0563 60.2435Z" fill="black"/>
<path d="M31.4743 62.7831V63.5253H30.6445C30.6644 63.2488 30.6821 62.9947 30.7041 62.6897L31.4743 62.7831Z" fill="black"/>
<path d="M51.9009 64.447C51.8617 64.7376 51.8294 64.9798 51.7892 65.2773L51.0566 65.1575V64.447H51.9009Z" fill="black"/>
<path d="M74.027 41.0048C74.027 46.2806 69.54 50.7789 64.2631 50.7901C58.9679 50.8009 54.452 46.279 54.4649 40.986C54.4778 35.7085 58.9792 31.2221 64.2556 31.228C69.532 31.2339 74.0248 35.7279 74.027 41.0048ZM55.3123 40.9876C55.3096 46.0261 59.1972 49.9379 64.2116 49.9432C69.2522 49.9486 73.1742 46.0621 73.1801 41.0553C73.186 35.9803 69.3054 32.076 64.2529 32.076C59.2176 32.076 55.3145 35.9652 55.3123 40.9876Z" fill="black"/>
<path d="M62.4888 46.5323L59.2188 43.2617L59.7644 42.7532C60.506 43.4986 61.2402 44.2392 61.9775 44.9765C62.4184 45.418 62.6757 45.4147 63.1268 44.9631C65.1442 42.9481 67.1601 40.9314 69.1743 38.9128C69.3102 38.7764 69.4074 38.6024 69.547 38.4128L70.054 38.9665L62.4888 46.5323Z" fill="black"/>
</svg>
