<svg width="78" height="78" viewBox="0 0 78 78" fill="none" xmlns="http://www.w3.org/2000/svg">
<ellipse cx="38.97" cy="38.98" rx="37.97" ry="37.98" fill="white"/>
<path d="M38.97 77.46C60.2165 77.46 77.44 60.2318 77.44 38.98C77.44 17.7282 60.2165 0.5 38.97 0.5C17.7235 0.5 0.5 17.7282 0.5 38.98C0.5 60.2318 17.7235 77.46 38.97 77.46Z" stroke="#2E3192" stroke-opacity="0.2" stroke-linejoin="round"/>
<ellipse opacity="0.6" cx="38.89" cy="38.9" rx="33.89" ry="33.9" fill="#C8DCFE"/>
<path d="M40.2415 39.4565C36.0556 39.4565 31.8695 39.4558 27.6831 39.4543C25.7732 39.451 24.3358 38.3543 23.8782 36.5811C23.824 36.3928 23.7872 36.1998 23.7682 36.0047C23.5482 32.7887 24.0249 29.7234 25.7732 26.9448C26.0409 26.5184 26.3459 26.1167 26.6847 25.7443C26.9047 25.5016 26.923 25.3182 26.7712 25.044C26.142 23.9058 25.5225 22.7622 24.9126 21.6131C24.5951 21.0143 24.8026 20.4115 25.3812 20.2542C25.5711 20.2021 25.7992 20.2241 25.9954 20.2722C26.5512 20.4089 27.0954 20.5978 27.6542 20.7188C27.8203 20.7554 28.0656 20.6847 28.1957 20.5721C28.5767 20.2421 28.9115 19.863 29.2759 19.515C29.8109 19.0042 30.406 19.0589 30.8526 19.6477C31.0154 19.8597 31.1723 20.0745 31.3362 20.285C31.5196 20.5208 31.7069 20.5475 31.9251 20.3154C32.1836 20.0401 32.4527 19.7735 32.7274 19.5143C33.2649 19.0064 33.8582 19.0603 34.3062 19.6481C34.5185 19.9264 34.7327 20.2029 34.9442 20.4815C35.0964 20.6817 35.2742 20.7081 35.4942 20.5915C35.8411 20.4082 36.1927 20.2377 36.544 20.0646C36.9356 19.8714 37.321 19.8945 37.6334 20.1977C37.9311 20.4867 37.9707 20.8541 37.8101 21.2442C37.3045 22.4722 36.8128 23.7056 36.2958 24.9288C36.1465 25.2816 36.141 25.5577 36.3691 25.8976C36.687 26.3706 36.9352 26.8938 37.1816 27.4104C37.3305 27.7228 37.5072 27.8845 37.8816 27.8684C38.5944 27.838 39.3116 27.8446 40.0233 27.8655C40.4307 27.8776 40.5561 27.71 40.5539 27.3188C40.5425 25.0784 40.548 22.8381 40.5484 20.5974C40.5484 19.8743 40.6265 19.7937 41.3308 19.7937C43.3468 19.7937 45.3634 19.7937 47.3808 19.7937C48.0097 19.7937 48.1101 19.8945 48.1105 20.5244C48.1105 23.3111 48.1105 26.0978 48.1105 28.8844C48.1105 28.9966 48.0867 29.1162 48.1189 29.2185C48.1534 29.3285 48.2201 29.4715 48.3111 29.5118C48.3899 29.5448 48.5501 29.4821 48.6257 29.4102C49.051 29.0047 49.4595 28.5808 49.8786 28.1687C50.2768 27.7767 50.4799 27.7701 50.8686 28.1577C52.5445 29.8282 54.2153 31.504 55.8809 33.1851C56.0239 33.3317 56.1695 33.6592 56.1009 33.7824C56.0103 33.9441 55.7111 34.0533 55.4941 34.0673C54.8341 34.1087 54.8341 34.0867 54.8341 34.7346C54.8341 35.5046 54.8311 36.2746 54.8341 37.0446C54.8363 37.4897 54.9855 37.5946 55.398 37.4479C57.1345 36.84 58.7053 38.1332 58.4582 39.9523C58.0065 43.2772 56.9758 46.3777 54.9426 49.0903C52.0705 52.9227 48.2462 55.2082 43.5411 56.0005C42.4572 56.1839 41.3411 56.2436 40.2411 56.2495C35.4532 56.2755 30.6649 56.2645 25.8769 56.255C25.3636 56.255 25.2279 56.3547 25.2584 56.8783C25.2756 57.2001 25.2749 57.5225 25.2562 57.8441C25.2195 58.4972 24.8129 58.9287 24.1602 58.939C22.8307 58.9603 21.5008 58.9603 20.1705 58.939C19.4647 58.9291 19.0551 58.4748 19.0481 57.7404C19.0386 56.7603 19.0452 55.7802 19.0452 54.7997C19.0452 50.991 19.0452 47.1822 19.0452 43.3733C19.0452 42.3583 19.4273 41.9748 20.4385 41.9737C21.6148 41.9737 22.7907 41.9708 23.9666 41.9737C24.8407 41.9766 25.2547 42.3902 25.2628 43.257C25.2661 43.6072 25.2562 43.9574 25.2653 44.3072C25.2763 44.7175 25.4758 44.8297 25.8289 44.6192C27.7722 43.4624 29.8454 42.6392 32.0784 42.2865C33.2242 42.1035 34.3817 42.0027 35.5419 41.9847C38.5933 41.944 41.6458 41.973 44.6979 41.9704C46.2013 41.9704 47.3196 42.5571 47.8901 44.012C48.0133 44.3255 48.211 44.4256 48.5501 44.2742C49.6102 43.803 50.6871 43.3696 51.7401 42.8871C51.9601 42.7862 52.1666 42.567 52.2843 42.3506C52.6847 41.614 53.0433 40.8546 53.4162 40.103C53.6699 39.5918 53.5837 39.451 53.0106 39.4507C48.7544 39.4541 44.498 39.456 40.2415 39.4565ZM34.5189 47.3549H35.0689C38.3872 47.3549 41.7053 47.3542 45.0232 47.3527C45.6182 47.351 46.1884 47.1138 46.6092 46.6931C47.0299 46.2724 47.2672 45.7023 47.269 45.1072C47.2741 43.8419 46.2852 42.8218 45.0243 42.82C41.6363 42.8145 38.2475 42.7833 34.8599 42.831C31.5027 42.8764 28.4256 43.8829 25.6236 45.7357C25.3669 45.9055 25.2507 46.0936 25.2521 46.4166C25.2653 49.2172 25.2595 52.0178 25.2598 54.8184C25.2598 55.3911 25.2892 55.4212 25.8487 55.4212C30.8187 55.4212 35.7889 55.4196 40.7592 55.4164C41.4031 55.4197 42.0467 55.3843 42.6864 55.3105C46.9973 54.7817 50.5697 52.8468 53.447 49.607C55.9649 46.773 57.209 43.396 57.6636 39.6879C57.7703 38.82 57.0715 38.1028 56.1995 38.1112C55.5205 38.1182 55.1259 38.5281 54.8465 39.0803C54.1774 40.4029 53.5265 41.7357 52.8478 43.0528C52.7372 43.2543 52.5659 43.4158 52.3583 43.5144C51.082 44.0835 49.7891 44.6144 48.5131 45.1861C48.3206 45.2719 48.0973 45.4658 48.0419 45.6547C47.5312 47.407 46.5078 48.1938 44.673 48.1942C41.4385 48.1942 38.2044 48.1942 34.9706 48.1942H34.5189V47.3549ZM30.6396 38.6161C31.7308 38.6161 32.8221 38.6161 33.9135 38.6161C34.472 38.6161 34.5002 38.5872 34.5002 38.0119C34.5002 35.311 34.5002 32.6099 34.5002 29.9085C34.5002 29.4187 34.4936 28.9288 34.5024 28.4393C34.5101 27.9967 34.6399 27.8724 35.0861 27.8614C35.3795 27.8541 35.6754 27.8776 35.9661 27.8537C36.2569 27.8299 36.4105 27.6686 36.2573 27.3705C36.0809 27.0243 35.8829 26.6874 35.6878 26.3497C35.5437 26.0967 35.3366 26.0054 35.033 26.0072C32.7809 26.0204 30.5277 26.0398 28.2764 25.9969C27.693 25.9859 27.3348 26.1975 27.011 26.6239C26.0071 27.9447 25.3566 29.4297 24.9196 31.0228C24.5012 32.546 24.5896 34.1028 24.5896 35.652C24.5896 37.3178 25.8758 38.6062 27.5346 38.615C28.5705 38.6209 29.6059 38.6161 30.6396 38.6161ZM41.3899 29.6079C41.3899 32.4363 41.3939 35.2652 41.3851 38.0936C41.3851 38.4636 41.5024 38.6264 41.8911 38.6216C43.0669 38.607 44.2429 38.607 45.4192 38.6216C45.802 38.626 45.9362 38.475 45.9325 38.0999C45.9182 36.9797 45.9277 35.8595 45.9274 34.7394C45.9274 34.0852 45.9274 34.1072 45.2707 34.0665C45.0529 34.053 44.7207 33.9411 44.6642 33.7915C44.6044 33.6284 44.7544 33.3193 44.9044 33.1601C45.5966 32.4268 46.3296 31.7342 47.0252 31.0045C47.1682 30.8459 47.2517 30.6426 47.2613 30.4292C47.276 27.3492 47.2719 24.2692 47.2712 21.187C47.2712 20.6821 47.2243 20.637 46.7161 20.637C45.1338 20.637 43.5516 20.637 41.9696 20.637C41.4317 20.637 41.3913 20.677 41.3913 21.2075C41.3899 24.0074 41.3894 26.8075 41.3899 29.6079ZM19.8834 50.4217C19.8834 52.8011 19.8834 55.1806 19.8834 57.56C19.8834 58.063 19.9311 58.11 20.4404 58.11C21.588 58.11 22.7357 58.0997 23.883 58.1162C24.2779 58.1221 24.426 57.9842 24.4253 57.582C24.4165 52.8371 24.4165 48.092 24.4253 43.3469C24.4253 42.9435 24.2786 42.8064 23.8834 42.8119C22.7361 42.8288 21.5884 42.817 20.4407 42.8181C19.9314 42.8181 19.8838 42.8651 19.8834 43.3681C19.8829 45.719 19.8829 48.0702 19.8834 50.4217ZM40.5498 33.6698C40.5498 32.1863 40.5425 30.7027 40.555 29.2196C40.5579 28.8459 40.4296 28.6927 40.0446 28.6963C38.6454 28.7095 37.2462 28.7095 35.847 28.6963C35.4634 28.6927 35.3336 28.8448 35.3362 29.2188C35.345 32.1715 35.345 35.1242 35.3362 38.0771C35.3362 38.4695 35.4631 38.6271 35.8682 38.6224C37.253 38.6065 38.6382 38.6065 40.0237 38.6224C40.427 38.6271 40.5601 38.4709 40.5564 38.0779C40.5396 36.6086 40.5498 35.139 40.5498 33.6698ZM33.8237 23.3225C33.5953 23.7793 33.3929 24.1783 33.1963 24.5798C32.9921 24.9974 33.1006 25.1664 33.5769 25.1716C34.0246 25.1756 34.4731 25.1584 34.92 25.1774C35.2005 25.1895 35.3641 25.0792 35.466 24.828C35.9133 23.728 36.3713 22.6324 36.8073 21.528C36.8516 21.4158 36.8194 21.2042 36.7391 21.1316C36.6588 21.059 36.4553 21.0535 36.3357 21.0972C36.0747 21.1921 35.8363 21.3469 35.5808 21.4594C35.1092 21.6673 34.7132 21.5647 34.3906 21.1569C34.1827 20.8937 33.9843 20.6223 33.7823 20.3543C33.5802 20.0863 33.3877 20.039 33.1413 20.3195C32.8899 20.6016 32.6224 20.869 32.3402 21.1203C31.8026 21.6061 31.2317 21.5423 30.7928 20.9655C30.6237 20.7431 30.4526 20.5217 30.2795 20.3015C30.1039 20.0771 29.933 20.0646 29.7295 20.2832C29.4138 20.6198 29.0805 20.9402 28.7516 21.2644C28.4165 21.5944 28.0377 21.7249 27.5673 21.5628C27.1715 21.4249 26.7673 21.3123 26.3573 21.2255C26.2058 21.194 25.9906 21.2284 25.8806 21.323C25.8164 21.3788 25.8634 21.6314 25.9301 21.759C26.3562 22.5772 26.7935 23.3894 27.242 24.1959C27.9086 25.4004 27.5673 25.1404 28.9335 25.1723C28.9475 25.173 28.9616 25.173 28.9756 25.1723C29.3361 25.1503 29.4523 24.9783 29.3078 24.6524C29.1681 24.3352 29.0145 24.025 28.8491 23.68L29.5788 23.3294C29.746 23.673 29.9345 23.9612 30.0305 24.2773C30.2527 25.0106 30.696 25.2779 31.4627 25.1939C31.8503 25.151 32.0736 25.0388 32.2327 24.696C32.5026 24.1156 32.8007 23.5483 33.097 22.9565L33.8237 23.3225ZM50.3948 34.079C49.3458 34.079 48.2968 34.0852 47.2481 34.0753C46.9181 34.0724 46.7608 34.1897 46.7634 34.5362C46.7718 35.7532 46.7689 36.9702 46.7634 38.1871C46.7634 38.4838 46.8924 38.6238 47.1909 38.6176C47.4703 38.6114 47.7501 38.6176 48.0298 38.6176C48.5729 38.6176 48.6121 38.5809 48.6128 38.0526C48.6128 37.353 48.6128 36.6537 48.6128 35.9541C48.6128 35.3711 48.7228 35.26 49.2901 35.2575C50.017 35.2545 50.7443 35.2545 51.4717 35.2575C52.0217 35.26 52.1369 35.3741 52.1394 35.9219C52.1436 36.6772 52.1436 37.4325 52.1394 38.1879C52.1394 38.4845 52.2681 38.6242 52.5666 38.6187C52.8882 38.6128 53.2101 38.6081 53.5317 38.6187C53.8778 38.6315 53.9955 38.4658 53.9929 38.1354C53.9839 36.9465 53.9839 35.7574 53.9929 34.5681C53.9966 34.2088 53.8547 34.0706 53.4972 34.0746C52.465 34.0863 51.4296 34.079 50.3948 34.079ZM50.3582 33.2386C51.5179 33.2386 52.6781 33.2459 53.8375 33.2302C53.9959 33.228 54.1524 33.111 54.3097 33.0468C54.2448 32.9086 54.2111 32.7396 54.1099 32.6369C52.9912 31.5028 51.8556 30.3852 50.7399 29.2482C50.4722 28.9754 50.2874 28.975 50.0194 29.2482C48.904 30.3848 47.7684 31.5032 46.6493 32.6373C46.5481 32.7399 46.514 32.9086 46.4488 33.0465C46.6061 33.1103 46.7626 33.2272 46.921 33.2298C48.0661 33.2459 49.212 33.2386 50.3578 33.2386H50.3582ZM51.3031 37.3691C51.3031 37.0758 51.3445 36.7736 51.2862 36.4924C51.255 36.3417 51.0662 36.136 50.9239 36.114C50.5646 36.0597 50.1991 36.0597 49.8397 36.114C49.6963 36.136 49.4826 36.3479 49.473 36.4854C49.4314 37.0705 49.4314 37.6578 49.473 38.2429C49.4826 38.376 49.7066 38.5762 49.8547 38.5996C50.1957 38.6528 50.5514 38.6143 50.8997 38.6172C51.1773 38.6191 51.3056 38.4819 51.3031 38.2077C51.3005 37.9334 51.3027 37.6485 51.3027 37.3691H51.3031Z" fill="black"/>
<path d="M32.6205 30.7192C31.915 30.7192 31.2044 30.7174 30.4938 30.7192C30.012 30.7192 29.9658 30.7735 29.9651 31.2975C29.9651 31.839 30.0076 31.8918 30.4751 31.8944C31.0068 31.8973 31.5384 31.8889 32.0708 31.8973C32.5145 31.9043 32.6443 32.0341 32.6509 32.4796C32.6597 33.0394 32.6597 33.5993 32.6509 34.1593C32.6447 34.6081 32.5156 34.7331 32.0782 34.7515C32.0499 34.7515 32.0221 34.7515 31.9942 34.7515C31.3419 34.7614 31.3419 34.7614 31.2803 35.4236H30.5103C30.4168 34.7588 30.4168 34.7588 29.7986 34.7515C29.209 34.7445 29.1056 34.622 29.1412 33.9114C29.8312 33.9114 30.5264 33.9243 31.2202 33.9026C31.409 33.8971 31.7229 33.8267 31.7559 33.7193C31.8314 33.4692 31.7995 33.1719 31.746 32.9068C31.7298 32.8272 31.4985 32.7484 31.3632 32.7436C30.8179 32.7253 30.2716 32.7414 29.7256 32.7341C29.2556 32.7278 29.1309 32.6021 29.1247 32.1302C29.1177 31.5981 29.1195 31.0668 29.1247 30.5341C29.1287 29.994 29.2446 29.8854 29.803 29.8792C30.4406 29.8722 30.4469 29.8667 30.4835 29.2383H31.2535C31.3877 29.8616 31.3877 29.8616 32.0382 29.8792C32.5739 29.8928 32.6872 30.0471 32.6205 30.7192Z" fill="black"/>
<path d="M22.5563 45.3711V46.8253H21.7529V45.3711H22.5563Z" fill="black"/>
</svg>
