<svg width="78" height="78" viewBox="0 0 78 78" fill="none" xmlns="http://www.w3.org/2000/svg">
<ellipse cx="38.97" cy="38.98" rx="37.97" ry="37.98" fill="white"/>
<path d="M38.97 77.46C60.2165 77.46 77.44 60.2318 77.44 38.98C77.44 17.7282 60.2165 0.5 38.97 0.5C17.7235 0.5 0.5 17.7282 0.5 38.98C0.5 60.2318 17.7235 77.46 38.97 77.46Z" stroke="#2E3192" stroke-opacity="0.2" stroke-linejoin="round"/>
<ellipse opacity="0.6" cx="38.89" cy="38.9" rx="33.89" ry="33.9" fill="#C8DCFE"/>
<path d="M34.1339 24.5389C34.2887 24.3461 34.5163 24.1581 34.6203 23.9169C35.4955 21.8945 37.9543 21.0233 39.8975 21.4097C41.4247 21.7129 42.6395 22.4597 43.3099 23.9325C43.341 24.0036 43.3803 24.0707 43.4271 24.1325C43.5411 24.2797 43.6615 24.4221 43.7951 24.5853C44.7047 23.8749 45.6663 23.5753 46.7551 23.6469C48.3951 23.7545 49.7463 24.8333 49.9379 26.4533C50.0803 27.6593 50.0303 28.8997 49.9455 30.1161C49.8883 30.9341 49.4507 31.6361 48.8015 32.1829C48.6143 32.3409 48.3423 32.7205 48.3847 32.7717C48.5847 33.0153 48.8547 33.2517 49.1475 33.3581C49.7707 33.5881 50.4491 33.6781 51.0599 33.9321C52.5911 34.5721 53.0879 35.8821 53.1719 37.4153C53.1991 37.9105 53.1895 38.4089 53.1747 38.9053C53.1579 39.4629 53.0419 39.5745 52.4715 39.5789C51.3071 39.5873 50.1423 39.5789 48.9779 39.5821C48.4123 39.5821 48.1611 39.8325 48.1611 40.3865C48.1611 41.3337 48.1643 42.2809 48.1611 43.2265C48.1579 43.9253 48.0755 44.0149 47.3955 44.0173C45.703 44.0224 44.0106 44.0224 42.3183 44.0173C41.7359 44.0145 41.6575 43.9153 41.6611 43.4325C41.6611 43.1309 41.8099 43.0077 42.0803 42.9925C42.3279 42.9785 42.5767 42.9805 42.8247 42.9745C43.2563 42.9641 43.5295 42.6893 43.5343 42.2501C43.5395 41.7845 43.5283 41.3185 43.5395 40.8529C43.5475 40.5233 43.6019 40.2529 44.0563 40.2549C44.4963 40.2549 44.5823 40.4881 44.5843 40.8381C44.5863 41.2885 44.5843 41.7385 44.5867 42.1889C44.5899 42.7089 44.8579 42.9721 45.3839 42.9745C45.7411 42.9745 46.0995 42.9933 46.4551 42.9697C46.8427 42.9441 47.0951 42.7121 47.1051 42.3237C47.1263 41.6261 47.1399 40.9237 47.0967 40.2285C46.9767 38.2981 45.6703 36.7485 43.7839 36.2637C43.1839 36.1093 42.5779 35.9749 41.9751 35.8293C41.3875 35.6877 41.1863 35.7781 40.9327 36.3453C40.4639 37.3937 39.9983 38.4429 39.5487 39.4993C39.4287 39.7853 39.2911 39.9545 38.9419 39.9497C38.6099 39.9453 38.4895 39.7753 38.3759 39.5097C37.9291 38.4697 37.4679 37.4345 37.0083 36.3993C36.7215 35.7533 36.5583 35.6793 35.8699 35.8445C35.2971 35.9833 34.7187 36.1001 34.1499 36.2581C32.4971 36.7185 31.3271 37.7509 30.9499 39.4265C30.7315 40.3917 30.8063 41.4321 30.8343 42.4361C30.8395 42.6213 31.2295 42.8905 31.4831 42.9513C31.8499 43.0397 32.2539 42.9805 32.6431 42.9721C33.0323 42.9637 33.3203 42.6597 33.3255 42.2605C33.3319 41.7805 33.3255 41.2981 33.3307 40.8169C33.3343 40.4897 33.4107 40.2625 33.8307 40.2541C34.2687 40.2453 34.3671 40.4797 34.3743 40.8261C34.3835 41.2917 34.3743 41.7577 34.3787 42.2233C34.3827 42.6957 34.6483 42.9661 35.1091 42.9737C35.2799 42.9765 35.4511 42.9737 35.6215 42.9773C35.9563 42.9877 36.1663 43.0885 36.1679 43.4973C36.1695 43.9061 35.9579 44.0141 35.6251 44.0149C33.8703 44.0189 32.1159 44.0113 30.3615 44.0213C29.8843 44.0241 29.7487 43.7681 29.7507 43.3505C29.7551 42.3413 29.7527 41.3317 29.7507 40.3225C29.7507 39.8657 29.4707 39.5821 29.0119 39.5805C27.8471 39.5765 26.6827 39.5805 25.5183 39.5773C24.8575 39.5745 24.7495 39.4805 24.7583 38.8285C24.7659 38.0685 24.7315 37.2969 24.8579 36.5545C25.1243 34.9905 26.0979 34.0321 27.6347 33.6493C28.0263 33.5517 28.4251 33.4773 28.8099 33.3577C29.0067 33.2969 29.1915 33.1761 29.3619 33.0541C29.6395 32.8541 29.6391 32.6361 29.3731 32.4101C29.1731 32.2397 28.9331 32.0837 28.8035 31.8665C28.5035 31.3661 28.0747 30.8485 28.0279 30.3093C27.9139 28.9893 27.7971 27.6213 28.0239 26.3325C28.4883 23.6925 31.3259 23.1909 33.0671 23.9485C33.4139 24.1013 33.7383 24.3197 34.1339 24.5389ZM42.7739 28.4849C43.0139 27.7781 42.5035 27.3669 41.8487 27.0281C41.5315 26.8651 41.2243 26.6833 40.9287 26.4837C40.6787 26.3137 40.5019 26.3001 40.2455 26.5149C39.5557 27.1017 38.7178 27.4872 37.8235 27.6293C37.2299 27.7229 36.6199 27.7261 36.0167 27.7437C35.3791 27.7625 35.1767 27.9745 35.1423 28.5933C35.0623 30.0881 35.6839 31.2357 36.8387 32.1253C37.7411 32.8205 38.7587 33.0453 39.8615 32.7381C41.6399 32.2441 42.7755 30.6269 42.7755 28.4849H42.7739ZM43.5835 34.8961C43.8339 35.0345 44.0551 35.2161 44.3071 35.2861C45.8019 35.6985 46.9703 36.4861 47.6459 37.9417C47.7619 38.1913 48.1047 38.4801 48.3579 38.4953C49.3949 38.5583 50.4348 38.5583 51.4719 38.4953C51.6987 38.4813 52.0591 38.1353 52.0943 37.9057C52.3511 36.2109 50.9987 34.9505 49.8943 34.6581C49.2055 34.4761 48.5115 34.3133 47.8143 34.1605C47.4831 34.0877 47.3199 33.9429 47.2915 33.5741C47.2643 33.2141 47.0311 32.9609 46.6263 32.9485C45.9695 32.9281 45.5719 33.0937 45.5635 33.4869C45.5523 34.0161 45.2375 34.1133 44.8331 34.2021C44.3903 34.2977 43.8907 34.3065 43.5851 34.8961H43.5835ZM34.3231 34.8961C33.9995 34.2725 33.4431 34.3009 32.9631 34.1705C32.6779 34.0929 32.4031 34.0453 32.3707 33.6433C32.3247 33.1001 32.0639 32.9449 31.3531 32.9461C30.9415 32.9461 30.6559 33.1961 30.6139 33.6465C30.5859 33.9477 30.4419 34.0761 30.1615 34.1377C29.5119 34.2809 28.8659 34.4405 28.2203 34.6025C26.6835 34.9877 25.7803 36.1625 25.7967 37.7433C25.8019 38.2537 26.0727 38.5185 26.6007 38.5201C27.4999 38.5225 28.4007 38.4921 29.2967 38.5321C29.8027 38.5557 30.1007 38.3197 30.2799 37.9197C30.9263 36.4961 32.0739 35.7197 33.5287 35.2993C33.8099 35.2197 34.0595 35.0349 34.3247 34.8973L34.3231 34.8961ZM42.2431 25.9277C42.6511 25.6949 42.7431 25.4217 42.5815 25.0149C42.2667 24.2225 41.7271 23.6085 41.0743 23.1037C39.9723 22.2521 38.7311 22.0889 37.4951 22.7201C36.1571 23.4037 35.2571 24.4765 35.1667 26.0585C35.1451 26.4317 35.4167 26.6529 35.7707 26.6813C37.2703 26.8013 38.6387 26.5325 39.7051 25.3433C40.0823 24.9229 40.4579 24.8957 40.9595 25.1749C41.3927 25.4169 41.8143 25.6761 42.2435 25.9289L42.2431 25.9277ZM43.8223 28.9405H43.8255C43.8255 29.0801 43.8163 29.2205 43.8255 29.3585C43.9291 30.6977 45.1399 31.8941 46.3971 31.9021C47.6471 31.9101 48.8971 30.7277 48.9971 29.4409C49.0479 28.7973 48.8023 28.5169 48.1627 28.5289C46.9151 28.5521 45.6883 28.4489 44.5075 28.0049C44.2203 27.8965 43.8599 28.1513 43.8219 28.4765C43.8079 28.6305 43.8227 28.7869 43.8227 28.9417L43.8223 28.9405ZM34.0991 28.9689C34.0991 28.8761 34.0991 28.7829 34.0991 28.6889C34.0951 28.0733 33.7987 27.8645 33.2227 28.0661C33.0471 28.1273 32.8707 28.2061 32.6895 28.2261C31.6763 28.3349 30.6623 28.4369 29.6471 28.5217C29.2331 28.5565 28.9207 28.8053 28.9047 29.1741C28.8475 30.4973 30.1231 31.8281 31.4399 31.9113C32.5679 31.9841 34.2735 30.6185 34.0995 28.9701L34.0991 28.9689ZM33.8695 26.3529C33.4107 25.3129 32.3967 24.6309 31.3995 24.6753C30.4395 24.7181 29.3451 25.5901 29.0271 26.5625C28.8443 27.1225 29.0871 27.4849 29.6671 27.4785C30.2387 27.4721 30.8175 27.4845 31.3803 27.4009C32.2911 27.2657 33.2207 27.1229 33.8699 26.3541L33.8695 26.3529ZM44.0071 26.4085C44.3355 26.6141 44.6251 26.8485 44.9547 26.9929C46.0599 27.4729 47.2371 27.5169 48.4183 27.4761C48.7823 27.4637 49.0363 27.0809 48.9291 26.7217C48.6491 25.7857 48.0247 25.1321 47.1291 24.7961C45.9719 24.3637 44.6919 25.0249 44.0075 26.4097L44.0071 26.4085ZM38.9599 37.6301C39.1999 37.2677 39.3887 37.0449 39.5115 36.7901C39.78 36.2336 40.0287 35.6677 40.2575 35.0925C40.3392 34.8779 40.3781 34.6493 40.3719 34.4197C40.3643 34.0769 40.0183 33.8489 39.6763 33.8645C39.1999 33.8865 38.7215 33.8537 38.2451 33.8733C38.0726 33.8799 37.9058 33.9366 37.7651 34.0365C37.4015 34.3165 37.4955 34.6957 37.6387 35.0457C37.8787 35.6325 38.1303 36.2149 38.4047 36.7857C38.5235 37.0397 38.7127 37.2637 38.9599 37.6301ZM34.4431 31.6797C34.2851 31.8209 34.0175 32.0497 33.7631 32.2909C33.3091 32.7193 33.4075 33.1149 34.0143 33.3217C34.1019 33.3513 34.1951 33.3617 34.2847 33.3861C34.7191 33.4957 35.1715 33.5613 35.5819 33.7297C36.0107 33.9053 36.2351 33.7589 36.2219 33.5833L34.4431 31.6797ZM43.4799 31.6797L41.6475 33.5913C41.6475 33.6137 41.8439 33.8393 41.9903 33.8101C42.6703 33.6745 43.3503 33.5093 44.0019 33.2745C44.5619 33.0721 44.6019 32.7213 44.1823 32.3177C43.9275 32.0725 43.6591 31.8397 43.4799 31.6797Z" fill="black"/>
<path d="M55.8437 44.2227C56.2237 44.0139 56.2837 43.7003 56.2837 43.3111C56.2701 40.0347 56.2753 36.7583 56.2769 33.4819C56.2769 33.2339 56.2673 32.9819 56.3049 32.7383C56.4537 31.7691 56.8857 30.9971 57.8825 30.6859C58.9437 30.3547 59.9709 30.4515 60.8025 31.2199C61.3449 31.7195 61.5077 32.4339 61.5045 33.1799C61.4941 35.7107 61.5005 38.2419 61.5005 40.7731C61.5005 42.8071 61.4745 44.8419 61.5081 46.8755C61.5401 48.8107 60.9921 50.5519 59.8845 52.1199C57.7267 55.1759 55.5607 58.2263 53.3865 61.2711C53.1741 61.5699 52.6201 61.7483 52.4761 61.5175C52.3409 61.3007 52.3837 60.9575 52.3981 60.6711C52.4041 60.5511 52.5341 60.4311 52.6145 60.3195C54.7517 57.3059 56.8817 54.2871 59.0309 51.2819C60.0033 49.9219 60.4869 48.4263 60.4833 46.7551C60.4741 42.3151 60.4653 37.8751 60.4941 33.4323C60.4993 32.6359 60.1085 32.1487 59.5373 31.7407C59.1513 31.4643 58.6909 31.4635 58.3049 31.7219C57.7233 32.1111 57.3021 32.5983 57.3073 33.3919C57.3301 36.8699 57.2973 40.3483 57.3249 43.8263C57.3401 45.7307 56.7049 47.3387 55.3893 48.7063C54.1833 49.9595 53.0045 51.2383 51.8121 52.5063C51.4309 52.9111 50.8713 53.0663 50.6289 52.8419C50.3957 52.6255 50.5229 52.0511 50.9089 51.6419C52.2573 50.2019 53.6129 48.7711 54.9581 47.3287C55.4601 46.7907 55.5909 46.1395 55.2505 45.5775C54.8661 44.9427 54.3909 44.3719 53.5305 44.4403C53.3365 44.4559 53.1173 44.5063 52.9629 44.6155C51.3793 45.7327 49.7337 46.7775 48.2497 48.0155C46.2317 49.6983 45.0441 51.9311 44.5165 54.5119C44.0721 56.6855 43.6085 58.8551 43.1493 61.0255C43.0969 61.2739 43.1013 61.5611 42.7233 61.5899C42.1677 61.6327 41.9973 61.4351 42.1233 60.7567C42.2833 59.8875 42.4801 59.0247 42.6661 58.1603C43.0117 56.5523 43.3157 54.9335 43.7189 53.3399C44.5109 50.2079 46.2145 47.6915 48.9293 45.8919C49.8093 45.3087 50.6793 44.7107 51.5573 44.1243C53.1201 43.0771 54.3429 43.1043 55.8437 44.2227Z" fill="black"/>
<path d="M22.0638 44.2222C23.5486 43.1118 24.7922 43.0654 26.3106 44.0978C27.6574 45.0138 29.0546 45.875 30.3018 46.9138C32.5294 48.7686 33.7734 51.2446 34.3778 54.053C34.8446 56.2222 35.2938 58.3946 35.7498 60.5658C35.78 60.6861 35.7982 60.8091 35.8042 60.933C35.8042 61.2206 35.8778 61.5414 35.4238 61.5878C35.0182 61.6278 34.8386 61.4702 34.7582 61.0754C34.339 59.0082 33.8598 56.9526 33.4782 54.879C32.8166 51.295 30.8698 48.599 27.9002 46.5794C26.9896 45.9596 26.0753 45.3448 25.1574 44.735C24.3414 44.1914 23.655 44.3398 22.891 45.215C22.3366 45.8506 22.3446 46.6722 22.9454 47.3182C24.2654 48.7394 25.6022 50.1474 26.9286 51.5638C27.0654 51.7098 27.2458 51.8622 27.2886 52.0398C27.3466 52.2906 27.3926 52.7146 27.2666 52.7998C27.0738 52.9282 26.7242 52.861 26.4526 52.8126C26.3238 52.7898 26.2126 52.627 26.107 52.515C24.8713 51.2046 23.6373 49.893 22.405 48.5802C21.1766 47.2762 20.5798 45.735 20.5878 43.9378C20.6038 40.4606 20.575 36.983 20.6058 33.5058C20.613 32.7254 20.2926 32.1714 19.6902 31.7982C19.4082 31.6234 18.9742 31.5698 18.6398 31.631C18.0346 31.7418 17.4318 32.6018 17.4314 33.231C17.4282 37.8262 17.4282 42.4212 17.4314 47.0162C17.4338 48.5662 17.9322 49.9654 18.8402 51.2242C19.2846 51.841 19.7278 52.4594 20.1538 53.089C20.2802 53.2758 20.4022 53.4994 20.4202 53.715C20.4354 53.895 20.315 54.235 20.2202 54.247C19.9726 54.2798 19.5802 54.2638 19.467 54.1066C18.5186 52.8062 17.4082 51.5838 16.933 50.0106C16.653 49.0866 16.441 48.1034 16.4306 47.1442C16.3798 42.4878 16.4054 37.8302 16.409 33.173C16.409 31.7674 17.089 30.8014 18.335 30.5846C20.1218 30.2734 21.6202 31.0678 21.6302 33.2058C21.6454 36.5746 21.6442 39.9432 21.6266 43.3118C21.6234 43.7014 21.685 44.0142 22.0638 44.2222Z" fill="black"/>
<path d="M24.9601 61.5875C24.8977 61.5475 24.6857 61.4712 24.5685 61.3216C24.1881 60.8352 23.8357 60.3256 23.4885 59.8156C23.3953 59.6796 23.2933 59.5068 23.3001 59.356C23.3097 59.1476 23.3993 58.7799 23.4885 58.7695C23.7485 58.7391 24.1317 58.76 24.2757 58.9264C24.7285 59.4492 25.1193 60.032 25.4857 60.622C25.8129 61.15 25.6201 61.5879 24.9601 61.5875Z" fill="black"/>
<path d="M35.044 20.1341C34.5188 20.1341 33.6664 19.3781 33.5952 18.8893C33.5172 18.3529 33.6852 18.1813 34.2292 18.2421C34.724 18.2973 35.482 19.1313 35.5056 19.6221C35.5232 19.9913 35.4048 20.1945 35.044 20.1341Z" fill="black"/>
<path d="M44.2885 18.7073C44.2885 19.2673 43.5213 20.1073 43.0045 20.1473C42.4581 20.1901 42.3365 20.0673 42.3921 19.5277C42.4449 19.0189 43.2981 18.2765 43.8133 18.2569C44.1817 18.2421 44.3309 18.3885 44.2885 18.7073Z" fill="black"/>
<path d="M39.4799 17.6662C39.4799 17.8662 39.4875 18.0662 39.4799 18.2686C39.4635 18.6142 39.3599 18.8358 38.9299 18.8286C38.4999 18.8214 38.4383 18.5766 38.4303 18.2686C38.4191 17.8214 38.4303 17.373 38.4455 16.9258C38.4559 16.583 38.6659 16.5102 38.9771 16.5098C39.2883 16.5094 39.4479 16.6238 39.4615 16.9262C39.4727 17.1726 39.4639 17.4194 39.4639 17.6662H39.4799Z" fill="black"/>
<path d="M21.926 57.0659C21.5292 57.1099 21.416 56.9163 21.416 56.5715C21.416 56.2087 21.576 56.0875 21.9272 56.0859C22.3024 56.0859 22.4072 56.2591 22.4096 56.5987C22.4104 56.9571 22.268 57.1243 21.926 57.0659Z" fill="black"/>
<path d="M39.4205 43.4957C39.4805 43.9109 39.2605 43.9725 38.9245 43.9817C38.5209 43.9929 38.4749 43.7817 38.4689 43.4589C38.4621 43.0949 38.6397 43.0189 38.9577 43.0157C39.3225 43.0113 39.4885 43.1445 39.4205 43.4957Z" fill="black"/>
</svg>
