<svg width="78" height="78" viewBox="0 0 78 78" fill="none" xmlns="http://www.w3.org/2000/svg">
<ellipse cx="38.97" cy="38.98" rx="37.97" ry="37.98" fill="white"/>
<path d="M38.97 77.46C60.2165 77.46 77.44 60.2318 77.44 38.98C77.44 17.7282 60.2165 0.5 38.97 0.5C17.7235 0.5 0.5 17.7282 0.5 38.98C0.5 60.2318 17.7235 77.46 38.97 77.46Z" stroke="#2E3192" stroke-opacity="0.2" stroke-linejoin="round"/>
<ellipse opacity="0.6" cx="38.89" cy="38.9" rx="33.89" ry="33.9" fill="#C8DCFE"/>
<path d="M33.3372 34.1266C33.1237 34.0244 32.9146 33.9782 32.7826 33.8525C32.1275 33.2242 31.4846 32.5832 30.854 31.9294C30.5838 31.6478 30.5826 31.3027 30.7592 30.9553C30.9108 30.6573 31.0499 30.3533 31.1932 30.0513C31.4815 29.4435 31.2394 28.874 30.5994 28.6594C30.2109 28.5289 29.8235 28.3938 29.4299 28.2798C29.1221 28.1909 28.9752 28.0025 28.9756 27.6861C28.9772 26.6983 28.9772 25.7104 28.9756 24.7223C28.9756 24.4047 29.1295 24.223 29.4397 24.1376C29.8051 24.0369 30.1616 23.9026 30.5223 23.7851C31.2539 23.5469 31.4928 23.0017 31.165 22.3132L31.0663 22.108C30.4682 20.8574 30.4545 20.8448 31.4039 19.8073C31.8015 19.3729 32.2679 19.0005 32.7097 18.6072C33.0411 18.3119 33.4018 18.2673 33.8009 18.4866C34.0802 18.6401 34.3755 18.7639 34.6626 18.901C35.2783 19.1936 35.8227 18.9566 36.0471 18.2959C36.1834 17.8936 36.2821 17.4734 36.467 17.0946C36.5539 16.9176 36.8042 16.7159 36.9871 16.7088C37.989 16.6697 38.9929 16.6924 39.9959 16.6896C40.2951 16.6896 40.4749 16.8236 40.5619 17.113C40.6755 17.4906 40.8074 17.8627 40.9343 18.2363C41.1693 18.93 41.7424 19.1814 42.3863 18.8755C42.4959 18.8234 42.6166 18.7858 42.7137 18.7165C43.5033 18.1525 44.1836 18.337 44.7993 19.0075C45.2403 19.4877 45.6872 19.9632 46.1235 20.4477C46.413 20.7692 46.4236 21.1249 46.2258 21.5024C46.0918 21.7582 45.9755 22.023 45.8513 22.2834C45.5247 22.9677 45.7577 23.5262 46.4749 23.7737C46.8481 23.9026 47.219 24.0436 47.5978 24.1513C47.897 24.2367 48.0223 24.4278 48.0231 24.7168C48.0259 25.7199 48.0439 26.7241 48.0051 27.7256C47.9981 27.9089 47.7901 28.16 47.6107 28.2458C47.219 28.4345 46.7804 28.5325 46.3644 28.6766C46.2342 28.7226 46.115 28.7954 46.0146 28.8903C45.9143 28.9853 45.835 29.1002 45.7818 29.2277C45.7286 29.3551 45.7027 29.4924 45.7059 29.6305C45.709 29.7686 45.7411 29.9045 45.8 30.0294C45.8842 30.208 45.9504 30.3988 46.0585 30.5617C46.4854 31.2056 46.4196 31.7837 45.8627 32.3132C45.3351 32.8142 44.8165 33.3249 44.2811 33.8176C43.9517 34.1212 43.5761 34.1309 43.1845 33.9226C42.9436 33.7937 42.6937 33.6809 42.4466 33.5638C41.7377 33.2282 41.1725 33.4679 40.9257 34.2085C40.8055 34.5684 40.6782 34.926 40.5689 35.2891C40.4769 35.593 40.2873 35.7399 39.9697 35.7391C38.9968 35.7364 38.0243 35.7348 37.0514 35.7391C36.713 35.7391 36.5179 35.5883 36.4247 35.2648C36.3095 34.8732 36.1764 34.4842 36.0428 34.0969C35.8388 33.5062 35.2203 33.2521 34.6595 33.5164C34.2239 33.722 33.7845 33.9206 33.3372 34.1266ZM45.1142 21.1174C44.9528 20.9267 44.7977 20.7258 44.6235 20.5405C43.6968 19.5633 43.6952 19.5653 42.4916 20.1191C42.4663 20.136 42.438 20.1478 42.4082 20.1539C42.0898 20.1516 41.7619 20.1931 41.4549 20.1324C40.4365 19.9311 39.871 19.2872 39.7315 18.2622C39.7279 18.2475 39.7229 18.2332 39.7167 18.2195C39.6144 17.93 39.4331 17.7761 39.1029 17.7969C38.7547 17.8184 38.4007 17.8317 38.0552 17.7945C37.5633 17.742 37.2856 17.9622 37.2253 18.4181C37.0925 19.4066 36.4842 19.8935 35.5775 20.1614C35.1859 20.2789 34.8565 20.293 34.4883 20.1136C33.3297 19.5508 33.3262 19.5586 32.4246 20.4912C31.8618 21.0736 31.8218 21.0963 32.2182 21.7899C32.5942 22.4471 32.6643 23.0609 32.2652 23.7134C32.2261 23.7788 32.1965 23.8495 32.1775 23.9233C32.0576 24.3777 31.7603 24.5943 31.3095 24.74C29.858 25.21 30.1189 24.9503 30.1012 26.4092C30.0907 27.2846 30.0875 27.3312 30.9582 27.5549C31.6761 27.739 32.1481 28.0954 32.3095 28.8278C32.3218 28.8719 32.3407 28.9138 32.3655 28.9523C32.6428 29.4325 32.5907 29.8829 32.3377 30.3745C31.8348 31.3536 31.8567 31.3634 32.651 32.1472C33.3611 32.8486 33.3607 32.8486 34.2811 32.41C34.4182 32.3446 34.5514 32.2412 34.6947 32.2239C34.9403 32.1945 35.2062 32.1671 35.4389 32.2302C36.418 32.4946 37.1622 33.0065 37.2633 34.1262C37.2669 34.141 37.2718 34.1555 37.2781 34.1693C37.3643 34.4709 37.55 34.6205 37.8782 34.6068C38.2577 34.5854 38.6381 34.5863 39.0175 34.6096C39.4448 34.6425 39.6834 34.4643 39.7648 34.0581C39.9332 33.2007 40.3214 32.6015 41.2532 32.3391C41.7737 32.1922 42.1818 32.1197 42.6726 32.3743C43.6431 32.878 43.6517 32.8584 44.4398 32.0633C45.1428 31.3529 45.1428 31.3529 44.7237 30.4696C44.652 30.3189 44.5424 30.1724 44.5216 30.0141C44.4891 29.7697 44.4684 29.505 44.5291 29.27C44.7848 28.2834 45.3124 27.5694 46.4232 27.4417C46.7925 27.399 46.9425 27.1283 46.9124 26.7473C46.8812 26.4291 46.8812 26.1086 46.9124 25.7904C46.9715 25.2875 46.7643 25.0043 46.2818 24.9182C45.4409 24.7682 44.9129 24.3459 44.6434 23.4768C44.477 22.9399 44.3881 22.5075 44.6865 22.0179C44.8502 21.748 44.9622 21.4453 45.1142 21.1174Z" fill="black"/>
<path d="M45.8472 41.3321C47.7319 41.3321 49.6166 41.3321 51.5013 41.3321C52.0656 41.3321 52.1279 41.2675 52.1279 40.7008C52.1279 40.1524 52.1005 39.6041 52.142 39.0601C52.1596 38.8345 52.2842 38.4792 52.4354 38.4334C52.6665 38.3645 53.028 38.4311 53.2187 38.5842C53.8943 39.1239 54.5222 39.7236 55.1661 40.3032C56.8842 41.8495 58.6007 43.3962 60.3157 44.9433C60.9248 45.4916 60.9271 45.7701 60.322 46.3141C58.0075 48.4002 55.6917 50.4845 53.3746 52.5671C53.2622 52.6678 53.1439 52.7719 53.0103 52.837C52.5403 53.0649 52.1487 52.837 52.1369 52.3035C52.1177 51.4681 52.1318 50.6319 52.1287 49.7968C52.1287 49.2806 52.0335 49.1847 51.5193 49.1847C47.7958 49.1847 44.0721 49.1847 40.3482 49.1847C39.5225 49.1847 39.4277 49.0911 39.4277 48.276C39.4277 46.2694 39.4277 44.2631 39.4277 42.2573C39.4277 41.4163 39.5147 41.3325 40.3752 41.3321H45.8472ZM53.4408 50.8677L59.2504 45.6287L53.532 40.4803C53.093 40.7615 53.2916 41.1802 53.2794 41.5237C53.2493 42.365 53.1701 42.4637 52.3292 42.4637C48.6215 42.4637 44.9137 42.4637 41.2059 42.4637C40.6458 42.4637 40.5691 42.542 40.5683 43.0931C40.5667 44.5067 40.5667 45.9201 40.5683 47.3333C40.5683 48.0179 40.6074 48.0586 41.2905 48.0586H52.3649C53.1764 48.0586 53.2657 48.1507 53.2657 48.9806C53.2657 49.4212 53.2528 49.8626 53.2724 50.3025C53.2822 50.4682 53.3664 50.626 53.4408 50.8677Z" fill="black"/>
<path d="M31.1584 49.5489C33.0274 49.5489 34.8966 49.5489 36.7659 49.5489C37.4442 49.5489 37.5747 49.6754 37.5758 50.3393C37.5787 52.4211 37.5787 54.5031 37.5758 56.5852C37.5758 57.2784 37.4532 57.3971 36.7439 57.3975C33.0207 57.3991 29.2976 57.3991 25.5744 57.3975C24.9414 57.3975 24.8756 57.4652 24.8749 58.1068C24.8749 58.6234 24.9027 59.1424 24.8615 59.6558C24.8435 59.8838 24.7237 60.2555 24.5842 60.2892C24.332 60.3495 23.9576 60.2923 23.7617 60.1325C22.9635 59.4776 22.2131 58.7648 21.445 58.0735C19.864 56.6507 18.2831 55.2277 16.7023 53.8043C16.0631 53.2266 16.0667 52.9818 16.7051 52.4061C19.0191 50.3201 21.3343 48.2359 23.6509 46.1535C23.7731 46.0435 23.909 45.933 24.0582 45.8723C24.5204 45.6851 24.8576 45.9201 24.8682 46.4512C24.8843 47.2713 24.8721 48.0923 24.8745 48.9128C24.8745 49.4749 24.9481 49.5493 25.5043 49.5497C27.3892 49.5502 29.2739 49.5499 31.1584 49.5489ZM23.4938 58.2693C23.8922 57.9517 23.7167 57.542 23.7288 57.1903C23.7555 56.3713 23.8319 56.2761 24.6512 56.2761C28.3768 56.2761 32.102 56.2761 35.827 56.2761C36.3527 56.2761 36.4384 56.1908 36.4392 55.6687C36.4416 54.2702 36.4416 52.8713 36.4392 51.472C36.4392 50.6996 36.4263 50.6886 35.6386 50.6886H24.6912C23.8295 50.6886 23.7371 50.5946 23.7363 49.7146C23.7363 49.2888 23.7531 48.8619 23.7273 48.4377C23.7175 48.2748 23.6098 48.1181 23.5275 47.9058L17.7563 53.1025L23.4938 58.2693Z" fill="black"/>
<path d="M52.5122 26.8634C52.4985 29.2987 51.8072 31.7827 50.4113 34.07C50.3381 34.1899 50.34 34.3559 50.3068 34.5009C50.4607 34.5075 50.6244 34.5518 50.7666 34.5146C51.1774 34.4069 51.5824 34.2729 51.985 34.1362C52.2553 34.0442 52.4221 34.097 52.4797 34.4002C52.5075 34.5486 52.6098 34.6943 52.5992 34.8353C52.5902 34.963 52.4993 35.1612 52.4002 35.1937C51.1018 35.6202 49.8003 36.0393 48.4871 36.4153C48.2705 36.4772 47.8314 36.3871 47.7782 36.2543C47.6853 36.0213 47.7202 35.6386 47.8631 35.4287C48.2799 34.8158 48.8192 34.2858 49.234 33.6725C52.4456 28.9357 52.0179 22.5409 48.2192 18.2483C47.8667 17.8491 47.8964 17.7833 48.4499 17.282C48.7945 16.9687 48.95 17.2268 49.1392 17.4504C51.3372 20.0452 52.4989 23.206 52.5122 26.8634Z" fill="black"/>
<path d="M27.115 18.387C26.896 18.3478 26.7233 18.2722 26.5667 18.2933C25.9208 18.3783 25.2789 18.4927 24.5797 18.6067C24.5229 18.2201 24.472 17.8711 24.416 17.4912C25.884 17.2468 27.2893 16.9965 28.7005 16.7862C29.2288 16.7079 29.5124 17.1606 29.2742 17.6541C29.2034 17.8006 29.0827 17.9283 28.9711 18.0497C24.5488 22.9146 24.4869 30.0817 28.8262 35.05C29.1329 35.4025 29.1003 35.457 28.5783 35.9509C28.2904 36.225 28.1247 36.1075 27.9124 35.8631C23.8062 31.115 23.3495 24.1441 26.8048 18.8617L27.115 18.387Z" fill="black"/>
<path d="M30.4795 42.44V41.3633H36.7975V42.44H30.4795Z" fill="black"/>
<path d="M30.4912 45.0898H36.8061V46.1661H30.4912V45.0898Z" fill="black"/>
<path d="M40.1914 53.6286V52.5742H46.507V53.6286H40.1914Z" fill="black"/>
<path d="M40.1914 57.3645V56.3105H46.5055V57.3645H40.1914Z" fill="black"/>
<path d="M28.5722 42.4506H27.5088V41.3594H28.5722V42.4506Z" fill="black"/>
<path d="M28.5904 45.0898V46.1622H27.4961V45.0898H28.5904Z" fill="black"/>
<path d="M49.506 52.5762V53.6337H48.4297V52.5762H49.506Z" fill="black"/>
<path d="M49.5054 57.3814H48.4307V56.3125H49.5054V57.3814Z" fill="black"/>
<path d="M43.1643 26.2301C43.1537 28.8668 41.1374 30.878 38.5035 30.8796C35.8519 30.8816 33.8301 28.8472 33.8399 26.1874C33.8497 23.5276 35.8828 21.5266 38.5461 21.5411C41.1727 21.5568 43.1749 23.5903 43.1643 26.2301ZM38.4854 22.6746C36.6019 22.684 34.9632 24.3247 34.9604 26.2039C34.9573 28.098 36.6238 29.7567 38.5195 29.7465C40.3995 29.7363 42.0414 28.0913 42.0445 26.2149C42.0476 24.3188 40.3854 22.6652 38.4854 22.6746Z" fill="black"/>
</svg>
