<svg width="78" height="78" viewBox="0 0 78 78" fill="none" xmlns="http://www.w3.org/2000/svg">
<ellipse cx="38.97" cy="38.98" rx="37.97" ry="37.98" fill="white"/>
<path d="M38.97 77.46C60.2165 77.46 77.44 60.2318 77.44 38.98C77.44 17.7282 60.2165 0.5 38.97 0.5C17.7235 0.5 0.5 17.7282 0.5 38.98C0.5 60.2318 17.7235 77.46 38.97 77.46Z" stroke="#2E3192" stroke-opacity="0.2" stroke-linejoin="round"/>
<ellipse opacity="0.6" cx="38.89" cy="38.9" rx="33.89" ry="33.9" fill="#C8DCFE"/>
<path d="M37.6124 48.4506C35.2808 47.6106 33.9824 46.0078 33.9324 43.5366C33.9032 42.141 34.3972 40.9082 35.386 39.919C37.3004 38.0038 40.7712 38.0254 42.5776 39.9794C43.8612 41.3674 44.268 43.0222 43.8016 44.8618C43.3352 46.7014 42.0844 47.8194 40.3028 48.4318C40.324 48.4922 40.3448 48.5518 40.366 48.6122C40.5528 48.6414 40.7424 48.7078 40.926 48.6922C43.5224 48.499 45.9716 47.7362 48.366 46.761C49.5 46.299 50.6356 45.8362 51.7932 45.441C52.2624 45.281 52.8028 45.201 53.2912 45.2554C54.3184 45.3706 55.0204 46.103 55.1652 47.0502C55.3332 48.1478 54.9048 49.0314 53.934 49.5198C51.4132 50.7883 48.8895 52.0506 46.3628 53.3066C45.2604 53.8566 45.236 53.9334 45.334 55.1382C45.4986 57.1648 45.6414 59.1939 45.7624 61.2254C45.776 61.4502 45.6784 61.7778 45.5148 61.8986C45.1456 62.1714 44.68 61.9154 44.6452 61.4514C44.4704 59.1134 44.294 56.7754 44.1484 54.4354C44.094 53.5666 44.4784 52.9378 45.2928 52.5382C47.8816 51.2674 50.4528 49.9654 53.034 48.6754C53.1308 48.6266 53.2316 48.5842 53.3252 48.5298C53.948 48.1666 54.1924 47.6018 53.9452 47.1034C53.6292 46.467 53.0128 46.2098 52.3488 46.4634C50.6688 47.1034 49.0016 47.7786 47.3156 48.4022C41.5856 50.5222 35.8684 50.4366 30.1736 48.2534C28.6392 47.6654 27.1075 47.071 25.5784 46.4702C25.1616 46.3066 24.7676 46.2702 24.3948 46.5678C23.5868 47.2138 23.6968 48.0542 24.6748 48.5534C26.2916 49.3762 27.918 50.1798 29.54 50.9934C30.538 51.493 31.526 52.0138 32.536 52.4882C33.4288 52.9078 33.7888 53.6082 33.7248 54.5522C33.5976 56.4266 33.4516 58.2998 33.3144 60.1738C33.2872 60.5454 33.2712 60.9178 33.2344 61.289C33.1832 61.8322 33.0184 62.0154 32.622 61.9794C32.142 61.9358 32.1264 61.585 32.1516 61.2266C32.2536 59.7866 32.3624 58.3466 32.4672 56.9066C32.5204 56.179 32.5376 55.4466 32.6328 54.7242C32.716 54.0938 32.4512 53.7314 31.9192 53.4678C29.5734 52.3032 27.2299 51.1334 24.8888 49.9582C24.5972 49.813 24.3132 49.6502 24.014 49.5234C22.8404 49.0258 22.5376 47.625 22.8692 46.6938C23.0586 46.1704 23.4344 45.7354 23.9247 45.4721C24.4149 45.2087 24.9851 45.1355 25.526 45.2666C26.1544 45.419 26.7544 45.6906 27.366 45.9146C29.5612 46.7202 31.686 47.739 33.99 48.2158C35.006 48.4262 36.0384 48.5562 37.066 48.7034C37.2188 48.7254 37.386 48.6422 37.546 48.6074L37.6124 48.4506ZM38.9512 39.6154C36.8764 39.6154 35.0432 41.4378 35.0396 43.5066C35.0356 45.6122 36.8524 47.4402 38.9528 47.4446C41.0244 47.449 42.8548 45.627 42.864 43.5522C42.8728 41.4514 41.0496 39.617 38.9512 39.6154Z" fill="black"/>
<path d="M27.2878 41.2346C27.257 41.229 27.1714 41.2346 27.1062 41.1982C26.6438 40.9522 26.2398 41.125 25.7926 41.2946C25.3086 41.4786 24.9774 41.7394 24.7578 42.2118C24.6778 42.3806 24.4174 42.5318 24.219 42.563C23.8242 42.6266 23.4154 42.5974 23.0126 42.6158C22.4126 42.6434 21.9562 42.5034 21.677 41.8662C21.5622 41.603 21.127 41.4774 20.8334 41.2958C20.431 41.0466 20.0386 41.035 19.5666 41.183C18.6986 41.4546 17.2322 39.8802 17.4906 39.0074C17.7222 38.2242 17.2946 37.1906 16.5586 36.8306C16.2594 36.6846 16.0854 36.4926 16.085 36.1594C16.085 35.6182 16.0882 35.0774 16.0894 34.5362C16.0894 34.2046 16.2554 34.0058 16.5514 33.8562C17.3038 33.4734 17.733 32.4682 17.4866 31.6834C17.3666 31.3058 17.4098 30.983 17.6866 30.6974C17.9354 30.4426 18.1826 30.1858 18.4326 29.9322C18.8542 29.5042 19.3214 29.353 19.9058 29.6214C20.0566 29.6906 20.2926 29.6446 20.4658 29.5814C21.0906 29.3574 21.7322 29.1534 21.9706 28.405C22.0106 28.285 22.2682 28.1722 22.4302 28.165C23.0322 28.1366 23.6402 28.1154 24.2374 28.1742C24.445 28.1946 24.6954 28.4162 24.811 28.6142C25.237 29.341 26.223 29.787 27.0302 29.5418C27.3926 29.4314 27.7018 29.4774 27.979 29.7306C28.2082 29.9394 28.4306 30.1558 28.6614 30.3626C29.1634 30.813 29.3602 31.3294 29.059 31.9822C29.0086 32.0918 29.013 32.2554 29.0534 32.373C29.1638 32.693 29.2682 33.0306 29.4502 33.3118C29.6045 33.5367 29.8138 33.7185 30.0582 33.8398C30.393 34.0074 30.5486 34.245 30.5586 34.5998C30.5686 34.941 30.5718 35.2826 30.5858 35.6234C30.6118 36.2522 30.5058 36.7662 29.8046 37.0326C29.5782 37.119 29.4558 37.5046 29.307 37.7654C29.055 38.2054 28.8922 38.6622 29.1734 39.1598C29.2018 39.2102 29.1998 39.2798 29.2038 39.3422C29.243 39.9634 27.9598 41.263 27.2878 41.2346ZM28.0542 31.501C28.0486 31.2034 27.331 30.611 27.0694 30.721C26.5778 30.9286 26.1434 30.857 25.7058 30.577C25.5103 30.4499 25.2935 30.3593 25.0658 30.3094C24.5802 30.2102 24.2386 30.0038 24.021 29.5134C23.8086 29.0334 22.963 28.9866 22.7578 29.4434C22.5014 30.0138 22.0694 30.2266 21.5282 30.3634C21.3315 30.4105 21.1442 30.4904 20.9742 30.5998C20.5658 30.8746 20.1602 30.9098 19.6978 30.7322C19.2882 30.5738 18.5878 31.2582 18.725 31.6798C18.8758 32.1434 18.8398 32.5514 18.565 32.9598C18.4343 33.1539 18.3418 33.3711 18.2922 33.5998C18.1882 34.1046 17.945 34.4486 17.4582 34.6766C17.005 34.889 16.9666 35.7566 17.4102 35.949C17.9794 36.1982 18.2102 36.6226 18.3554 37.165C18.4094 37.3594 18.4936 37.5442 18.605 37.7126C18.8478 38.081 18.9086 38.4642 18.715 38.8578C18.5622 39.1682 18.7126 39.3558 18.9226 39.5346C19.1534 39.731 19.3034 40.0946 19.725 39.8946C20.0914 39.7202 20.445 39.789 20.785 40.0002C20.9675 40.1177 21.1663 40.208 21.375 40.2682C21.9594 40.4218 22.4426 40.6606 22.7614 41.2354C22.9854 41.6394 23.8042 41.615 23.9822 41.2006C24.2222 40.6406 24.6358 40.4262 25.1734 40.307C25.3707 40.2616 25.5579 40.1802 25.7258 40.067C26.147 39.7818 26.5682 39.743 27.0458 39.9238C27.4318 40.0702 28.1566 39.3758 28.0038 38.9986C27.8038 38.5002 27.8714 38.0766 28.1442 37.6354C28.2894 37.3965 28.3949 37.1357 28.4566 36.863C28.5454 36.4678 28.7274 36.1902 29.1202 36.0482C29.453 35.9282 29.547 35.6714 29.5506 35.3158C29.5542 34.9486 29.413 34.7406 29.1046 34.5854C28.9302 34.4978 28.6558 34.3854 28.635 34.2502C28.4926 33.3366 27.5034 32.6038 28.0458 31.5474C28.0511 31.5325 28.054 31.5168 28.0542 31.501Z" fill="black"/>
<path d="M34.5438 33.6082C34.7162 32.6082 34.8958 31.4882 35.1074 30.377C35.1874 29.9494 35.139 29.6374 34.7838 29.321C33.9962 28.619 33.257 27.863 32.5078 27.121C32.3686 26.983 32.2278 26.8154 32.1686 26.635C32.037 26.235 32.215 25.9722 32.6374 25.907C33.8022 25.7274 34.9666 25.5434 36.1358 25.3958C36.5126 25.3482 36.7086 25.1614 36.8614 24.8458C37.3538 23.8266 37.8646 22.8166 38.3562 21.797C38.4798 21.541 38.6154 21.3542 38.9338 21.3478C39.2718 21.341 39.421 21.5314 39.5534 21.8058C40.0446 22.8254 40.5646 23.8314 41.0482 24.855C41.2206 25.2194 41.4702 25.3854 41.8614 25.4362C42.9534 25.5782 44.0438 25.7338 45.1294 25.9162C45.3458 25.9522 45.6894 26.1002 45.711 26.239C45.751 26.4898 45.6758 26.8502 45.5058 27.029C44.7258 27.8502 43.9094 28.6382 43.0782 29.4082C42.789 29.6762 42.7234 29.9362 42.7938 30.3078C42.9982 31.3898 43.1862 32.4754 43.343 33.5654C43.3762 33.7958 43.3238 34.1694 43.1758 34.2622C42.9874 34.3802 42.6202 34.365 42.403 34.2586C41.359 33.7474 40.335 33.195 39.315 32.6366C39.0518 32.4926 38.849 32.4994 38.5874 32.6414C37.5663 33.1969 36.5374 33.7384 35.5006 34.2658C34.8998 34.5694 34.5094 34.3398 34.5438 33.6082ZM34.181 26.9198C34.821 27.5954 35.3622 28.2158 35.957 28.7806C36.319 29.1246 36.4066 29.4902 36.3206 29.9514C36.1846 30.6832 36.0599 31.4165 35.9466 32.1514C35.9286 32.269 35.9554 32.4478 36.0326 32.5114C36.103 32.5674 36.2878 32.5382 36.3926 32.4858C37.0694 32.1418 37.7446 31.7934 38.4066 31.4222C38.7846 31.2102 39.129 31.2146 39.5038 31.4222C40.127 31.7689 40.7578 32.1008 41.3962 32.4178C41.5414 32.4906 41.7238 32.4874 41.8894 32.5194C41.9086 32.3634 41.9626 32.2022 41.9406 32.0518C41.8446 31.3922 41.757 30.729 41.607 30.0806C41.4734 29.5014 41.607 29.0806 42.0558 28.6782C42.637 28.153 43.1502 27.5518 43.7494 26.9242C43.5678 26.8598 43.4114 26.777 43.2458 26.7502C42.4654 26.6238 41.6774 26.5366 40.9034 26.3806C40.6858 26.3366 40.4314 26.1486 40.3222 25.9542C39.9574 25.307 39.655 24.625 39.319 23.961C39.233 23.791 39.1098 23.641 38.959 23.4098C38.805 23.631 38.6842 23.7678 38.6046 23.9254C38.2758 24.575 37.9478 25.2258 37.6446 25.8878C37.5014 26.199 37.3122 26.3678 36.9558 26.4114C36.1862 26.501 35.4206 26.6266 34.6558 26.751C34.4886 26.7762 34.3342 26.8618 34.181 26.9198Z" fill="black"/>
<path d="M47.3379 35.3056C47.3447 31.2128 50.5563 28.0372 54.6711 28.0548C58.7023 28.0716 61.8815 31.2916 61.8711 35.3476C61.8619 39.3876 58.6747 42.6 54.6775 42.5964C50.5163 42.5924 47.3307 39.4288 47.3379 35.3056ZM48.4547 35.2924C48.4495 38.6092 51.2799 41.444 54.5999 41.4496C57.8971 41.4548 60.7411 38.6356 60.7511 35.352C60.7611 31.992 57.9291 29.176 54.5355 29.1732C51.2871 29.1704 48.4595 32.016 48.4547 35.2924Z" fill="black"/>
<path d="M20.5 56.1046C20.5356 55.091 21.0144 54.1818 21.8328 53.483C22.3928 53.003 23.0356 52.6142 23.6636 52.2194C24.0584 51.9714 24.4636 52.049 24.6076 52.3322C24.7812 52.6698 24.6224 52.9594 24.2296 53.243C23.5548 53.7302 22.852 54.203 22.2696 54.7878C21.3716 55.6922 21.372 56.7222 22.2696 57.6278C22.8512 58.2146 23.5548 58.685 24.2296 59.1742C24.614 59.4542 24.7952 59.7742 24.5916 60.087C24.3516 60.4542 23.9996 60.3774 23.6856 60.207C22.7688 59.7106 21.8892 59.1606 21.2532 58.303C20.7892 57.6806 20.5072 56.9878 20.5 56.1046Z" fill="black"/>
<path d="M56.6564 56.3295C56.6164 57.3103 56.1604 58.2023 55.3728 58.8839C54.7916 59.3871 54.1212 59.7919 53.4676 60.2039C53.1696 60.3923 52.806 60.4571 52.5628 60.0915C52.3524 59.7751 52.5268 59.4515 52.9148 59.1783C53.558 58.7251 54.2268 58.2863 54.7864 57.7407C55.8164 56.7371 55.812 55.6571 54.7712 54.6539C54.1972 54.1007 53.5152 53.6539 52.8536 53.2011C52.51 52.9659 52.3864 52.6975 52.5552 52.3411C52.7284 51.9743 53.0916 52.0127 53.3632 52.1535C54.4296 52.7055 55.4404 53.3395 56.1012 54.3935C56.4724 54.9703 56.6655 55.6437 56.6564 56.3295Z" fill="black"/>
<path d="M34.5013 20.9903C34.4585 21.5451 33.9321 21.7771 33.5533 21.4483C32.9775 20.9529 32.4433 20.411 31.9561 19.8283C31.8261 19.6715 31.8553 19.1843 31.9981 19.0543C32.1485 18.9175 32.6173 18.9127 32.7817 19.0495C33.3517 19.5231 33.8585 20.0747 34.3677 20.6171C34.4709 20.7271 34.4801 20.9259 34.5013 20.9903Z" fill="black"/>
<path d="M43.9131 21.6263C43.7723 21.5339 43.5183 21.4583 43.4787 21.3207C43.4175 21.1071 43.4139 20.7743 43.5415 20.6275C44.0241 20.0611 44.552 19.5348 45.1199 19.0539C45.2847 18.9167 45.7523 18.9171 45.9019 19.0539C46.0515 19.1907 46.0779 19.6711 45.9487 19.8271C45.4667 20.4095 44.9035 20.9259 44.3567 21.4527C44.2659 21.5391 44.1051 21.5539 43.9131 21.6263Z" fill="black"/>
<path d="M39.5092 17.8005C39.5092 18.1577 39.5092 18.5145 39.5092 18.8717C39.5092 19.2357 39.3608 19.4653 38.9632 19.4697C38.5736 19.4741 38.3956 19.2697 38.3944 18.8961C38.392 18.1665 38.392 17.4369 38.3944 16.7073C38.3944 16.3329 38.572 16.1285 38.962 16.1329C39.3596 16.1369 39.5084 16.3645 39.5092 16.7293C39.51 17.0869 39.5092 17.4437 39.5092 17.8005Z" fill="black"/>
<path d="M26.5439 35.341C26.5347 37.183 25.1187 38.5858 23.2827 38.5714C21.4383 38.5566 20.0503 37.1546 20.0527 35.3086C20.0551 33.4766 21.4771 32.0686 23.3139 32.0782C25.1507 32.0878 26.5531 33.5002 26.5439 35.341ZM25.4239 35.3222C25.4239 34.2382 24.3815 33.1994 23.2943 33.197C22.2167 33.1946 21.1627 34.2522 21.1703 35.3286C21.1775 36.4182 22.2203 37.4578 23.3007 37.4522C24.3903 37.447 25.4251 36.4086 25.4239 35.3222Z" fill="black"/>
<path d="M54.0464 36.8982C54.04 36.7586 54.0408 36.6188 54.0488 36.4794C54.0912 36.0738 53.918 35.9154 53.51 35.8502C52.3684 35.6682 51.71 34.8534 51.7188 33.7114C51.7268 32.6006 52.4044 31.783 53.5152 31.6246C53.9344 31.5646 54.0788 31.3914 54.0504 30.993C54.0264 30.661 54.0904 30.3634 54.5004 30.305C54.9232 30.2454 55.1804 30.4514 55.1536 30.9226C55.1268 31.3938 55.302 31.587 55.7536 31.6662C56.3212 31.7654 56.8016 32.0506 57.1 32.5714C57.2676 32.8634 57.3252 33.2062 57.0388 33.4186C56.7392 33.641 56.4212 33.5742 56.13 33.2738C55.9224 33.0602 55.618 32.9406 55.3568 32.779C55.292 33.0654 55.2252 33.3514 55.1644 33.6386C55.1582 33.7004 55.1582 33.7627 55.1644 33.8246C55.1644 34.6422 55.1644 34.6422 55.9516 34.8522C56.962 35.1218 57.5432 35.955 57.4908 37.0578C57.4416 38.0926 56.7708 38.8706 55.7164 39.0234C55.2764 39.087 55.1436 39.2666 55.1564 39.6846C55.172 40.183 54.9964 40.3558 54.5908 40.3498C54.1592 40.3438 54.0164 40.0758 54.052 39.7034C54.0952 39.2558 53.9072 39.0718 53.474 38.9938C52.874 38.8854 52.3604 38.5938 52.074 38.0214C51.9332 37.7414 51.9008 37.4138 52.1984 37.229C52.4744 37.0578 52.77 37.0914 53.044 37.349C53.276 37.567 53.6316 37.909 53.8332 37.8506C54.228 37.737 53.9904 37.263 54.0464 36.945C54.0476 36.9294 54.0476 36.9137 54.0464 36.8982ZM55.1664 36.8706C55.1664 37.103 55.1208 37.3506 55.184 37.563C55.2208 37.6882 55.464 37.8706 55.5588 37.843C56.2816 37.6238 56.4844 36.781 55.946 36.2594C55.7924 36.1106 55.5664 36.037 55.3732 35.9286C55.3036 36.1346 55.2232 36.3374 55.1688 36.547C55.1428 36.6478 55.1648 36.7602 55.1648 36.8706H55.1664ZM54.0464 33.8334C54.0512 33.7565 54.0512 33.6794 54.0464 33.6026C54.0104 33.3182 54.1884 32.8586 53.7908 32.8338C53.5508 32.8186 53.2816 33.2006 53.0308 33.4122C52.9908 33.4478 52.9728 33.521 52.9588 33.5802C52.856 34.0102 53.112 34.2854 53.3988 34.5266C53.5188 34.6258 53.6896 34.6606 53.8388 34.7242C53.9084 34.4582 53.9784 34.1922 54.0464 33.9242C54.0499 33.894 54.0499 33.8635 54.0464 33.8334Z" fill="black"/>
</svg>
