<svg width="79" height="79" viewBox="0 0 79 79" fill="none" xmlns="http://www.w3.org/2000/svg">
<circle cx="39.6497" cy="39.7395" r="37.97" fill="white"/>
<circle cx="39.6497" cy="39.7395" r="38.47" stroke="#2E3192" stroke-opacity="0.2" stroke-linejoin="round"/>
<circle opacity="0.6" cx="39.3802" cy="40.0599" r="33.89" fill="#C8DCFE"/>
<g clip-path="url(#clip0_1807_5100)">
<path d="M60.9932 42.8256C60.9932 45.3129 60.9858 47.8003 60.999 50.2868C60.999 50.9178 60.7502 51.3845 60.2468 51.728C59.2631 52.3948 58.1467 52.7499 56.9963 52.9116C55.5207 53.1183 54.0294 53.205 52.5439 53.3392C52.4353 53.3484 52.2951 53.3642 52.2204 53.3092C52.0894 53.2167 51.9086 53.0692 51.9094 52.9466C51.9102 52.8241 52.0819 52.6499 52.2196 52.5807C52.3573 52.5115 52.5431 52.5357 52.7081 52.534C54.6506 52.5157 56.5815 52.3765 58.4312 51.7305C58.9918 51.5346 59.5036 51.1812 60.0071 50.8561C60.2368 50.7094 60.3488 49.7725 60.1729 49.5791C60.0809 49.4782 59.832 49.4024 59.7201 49.4549C57.5221 50.4885 55.1682 50.6485 52.8002 50.7377C52.6642 50.7427 52.5 50.7552 52.3979 50.6894C52.2777 50.611 52.1375 50.4476 52.1416 50.3259C52.1458 50.2042 52.2943 50.0259 52.4195 49.9775C52.5904 49.9108 52.7994 49.9383 52.9926 49.9333C54.8928 49.8833 56.7831 49.7374 58.5846 49.0756C59.0823 48.8939 59.5335 48.5805 59.978 48.2846C60.2169 48.1254 60.3562 47.2685 60.1887 47.0534C60.1058 46.9475 59.852 46.8567 59.7441 46.9075C57.4292 48.0045 54.9509 48.1512 52.4552 48.2054C52.1483 48.212 51.7311 48.2804 51.7236 47.8186C51.7162 47.3568 52.1259 47.4152 52.4386 47.411C54.4897 47.3852 56.5326 47.2676 58.4859 46.5724C59.02 46.3824 59.5077 46.0431 59.9905 45.7306C60.2169 45.5839 60.3538 44.742 60.1904 44.5377C60.1008 44.4252 59.8337 44.3344 59.7151 44.3869C56.9 45.648 53.9257 45.7264 50.9232 45.6147C50.6644 45.6047 50.4355 45.5247 50.438 45.2204C50.438 44.892 50.6761 44.8353 50.9564 44.827C52.5439 44.7803 54.1397 44.8103 55.7148 44.6419C56.813 44.5244 57.8854 44.1418 58.9612 43.8526C59.2332 43.7792 59.4887 43.6083 59.7242 43.4433C60.2053 43.1099 60.377 42.6097 60.2144 42.0613C60.1481 41.8354 59.9872 41.7178 59.7367 41.8204C55.5207 43.5458 51.211 43.43 46.8748 42.423C46.1623 42.2563 45.4822 41.8954 44.8261 41.5503C44.2314 41.2369 43.9826 40.6784 43.9826 39.9899C43.9951 38.4895 43.9992 36.9891 43.9826 35.4887C43.9735 34.7468 44.2796 34.2125 44.895 33.8316C45.9268 33.1956 47.0739 32.8938 48.2459 32.6821C50.7004 32.2486 53.2065 32.1941 55.6775 32.5204C55.986 32.5596 56.4422 32.4696 56.4322 33.0097C56.4264 33.3148 56.1735 33.3781 55.5796 33.3098C52.7156 32.9805 49.8649 33.0089 47.0631 33.7716C46.4637 33.9358 45.8886 34.1791 45.3528 34.4951C44.5848 34.9477 44.6063 35.412 45.3586 35.8938C46.2237 36.4473 47.2033 36.7074 48.1994 36.8782C51.5909 37.4617 54.9708 37.4734 58.2976 36.489C58.8898 36.3131 59.448 35.9622 59.9656 35.6096C60.348 35.3478 60.3496 35.0594 59.9789 34.7943C59.4912 34.4468 58.9379 34.1892 58.403 33.9091C58.2371 33.8199 58.009 33.8216 57.8622 33.7116C57.7444 33.6232 57.625 33.4081 57.6556 33.2864C57.6863 33.1648 57.926 32.9839 58.0314 33.0097C59.0026 33.2448 59.9714 33.5374 60.6482 34.3301C60.8589 34.5801 60.9717 34.9861 60.975 35.3228C61.0057 37.8235 60.9932 40.325 60.9932 42.8256ZM52.5331 42.4089C53.8245 42.2838 55.1193 42.1896 56.4057 42.0237C57.4522 41.9037 58.4693 41.5984 59.4099 41.1218C60.0029 40.8126 60.3504 40.3841 60.2318 39.6615C60.1729 39.3022 60.0095 39.1822 59.6728 39.328C59.3361 39.4739 58.9935 39.6398 58.641 39.7557C56.6504 40.4133 54.5909 40.6125 52.5124 40.595C50.0308 40.5742 47.5707 40.3908 45.2757 39.2972C44.9962 39.1647 44.8527 39.3322 44.8071 39.5814C44.676 40.3016 44.851 40.6934 45.4971 41.0602C45.823 41.2417 46.1644 41.3935 46.5173 41.5136C48.4615 42.1788 50.4886 42.3072 52.5331 42.4063V42.4089ZM52.4842 39.8465C53.5989 39.7632 54.7178 39.7173 55.8268 39.5823C57.075 39.4297 58.3026 39.1655 59.4372 38.5695C60.027 38.2619 60.3297 37.8243 60.2302 37.1316C60.1787 36.7707 60.0112 36.6465 59.6711 36.7874C59.3021 36.9407 58.9404 37.1208 58.5605 37.2417C56.6869 37.8477 54.7502 38.0469 52.7952 38.0469C50.2157 38.0469 47.6528 37.8877 45.2641 36.7532C44.9746 36.6165 44.8494 36.794 44.8037 37.0416C44.6777 37.7918 44.8552 38.1652 45.5311 38.542C45.8216 38.7024 46.1252 38.8377 46.4385 38.9463C48.3951 39.6315 50.4281 39.7815 52.4842 39.844V39.8465Z" fill="black"/>
<path d="M31.585 29.8638C30.9489 29.8638 30.3102 29.9004 29.6774 29.8529C29.0968 29.8088 28.6431 30.0046 28.1886 30.3289C26.188 31.7534 24.6444 33.5856 23.4285 35.7036C22.0401 38.1209 21.0912 40.6933 20.8225 43.4949C20.3605 48.307 23.0719 51.5428 26.475 53.1516C28.5162 54.116 30.6893 54.4477 32.9271 54.4302C33.0797 54.4302 33.2522 54.3819 33.3783 54.4394C33.5441 54.5136 33.6686 54.6711 33.8104 54.7928C33.6851 54.9304 33.5616 55.0754 33.4289 55.2013C33.3882 55.2388 33.2961 55.2263 33.2273 55.2279C30.2215 55.2846 27.3575 54.7278 24.7962 53.079C21.1053 50.7068 19.5377 47.2583 20.1175 42.9314C20.7055 38.5419 22.5933 34.7134 25.6182 31.4875C26.3116 30.7473 27.1833 30.1747 27.9754 29.5279C28.0932 29.432 28.2334 29.3611 28.3478 29.2653C28.8388 28.8435 28.8811 28.4317 28.566 27.8674C27.8195 26.5237 27.073 25.18 26.3721 23.8105C26.1432 23.3629 26.0296 22.8436 25.9325 22.3435C25.7758 21.5307 26.2643 20.9406 27.0829 21.0048C27.9613 21.0748 28.867 21.1256 29.6989 21.3849C31.7418 22.0217 33.7473 21.9367 35.7852 21.4065C36.5823 21.199 37.4126 21.1006 38.2345 21.0148C39.0308 20.9314 39.506 21.4466 39.2995 22.2284C39.07 23.1129 38.7647 23.9758 38.3871 24.8074C37.9359 25.7885 37.3794 26.7246 36.8511 27.6649C36.3957 28.4784 36.5068 28.8318 37.2492 29.4153C38.281 30.2255 39.3144 31.0466 40.2525 31.961C41.3308 33.0104 42.1469 34.2749 42.837 35.6153C42.9 35.7378 42.9929 35.8703 42.9879 35.9945C42.983 36.1187 42.905 36.3238 42.8063 36.3646C42.6827 36.4163 42.4928 36.3646 42.3568 36.3055C42.2738 36.2688 42.2332 36.1296 42.1809 36.0321C40.8588 33.5397 39.0075 31.5309 36.6711 29.9738C36.0905 29.587 35.7894 29.0669 35.7811 28.3792C35.7769 28.0325 35.6152 27.9216 35.2909 27.9233C34.0186 27.9308 32.7471 27.9283 31.4756 27.9233C31.3254 27.9233 31.1438 27.9391 31.0327 27.8666C30.9695 27.8238 30.9162 27.768 30.8763 27.7029C30.8364 27.6378 30.8108 27.5649 30.8012 27.489C30.8012 27.3806 30.9406 27.2214 31.0559 27.1706C31.1994 27.1089 31.381 27.1256 31.5461 27.1256C32.9702 27.1256 34.3943 27.1147 35.8184 27.1314C36.1046 27.1314 36.3161 27.0555 36.4322 26.8121C37.0833 25.4968 37.7725 24.1973 38.3548 22.8519C38.7604 21.915 38.5447 21.69 37.532 21.8658C36.4579 22.0517 35.3946 22.2968 34.3246 22.5068C32.8856 22.7894 31.4756 22.6519 30.0581 22.2926C29.1275 22.0567 28.162 21.9517 27.2065 21.825C26.8051 21.7716 26.6417 21.9417 26.7288 22.3393C26.8416 22.8494 26.9826 23.3721 27.2206 23.8322C27.8253 24.9992 28.483 26.1436 29.1383 27.2864C29.3871 27.7149 29.5953 28.1367 29.553 28.6526C29.5248 28.986 29.7329 29.0694 30.0274 29.0694C31.2583 29.0636 32.4891 29.0694 33.72 29.0694H34.0932C34.3761 29.0694 34.6556 29.1161 34.6489 29.472C34.6423 29.8279 34.357 29.8638 34.0783 29.8646L31.585 29.8638Z" fill="black"/>
<path d="M42.1302 58.2289C46.6315 58.238 49.9102 55.2064 50.2055 51.3262C50.5016 47.4244 47.7595 43.8826 43.9574 43.2824C42.2986 43.0199 40.7086 43.2641 39.2189 44.0718C39.1825 44.0918 39.1451 44.1102 39.1095 44.131C38.8722 44.266 38.6284 44.3361 38.4691 44.0393C38.3099 43.7426 38.4691 43.5467 38.7321 43.4483C39.5698 43.1341 40.3909 42.7156 41.2602 42.5564C46.3387 41.6212 50.9345 45.4739 50.9992 50.6702C51.0507 54.7963 47.8823 58.4381 43.8073 58.9357C38.8573 59.5401 34.5758 55.8566 34.4688 50.8428C34.4207 48.5922 35.2203 46.6292 36.739 44.9704C36.8286 44.872 36.953 44.7637 37.0707 44.7462C37.1885 44.7287 37.3934 44.7678 37.4689 44.8579C37.5443 44.9479 37.5443 45.1429 37.5078 45.2746C37.4714 45.4063 37.3552 45.5005 37.264 45.6081C35.1183 48.0254 34.6157 50.8019 35.9004 53.731C37.1827 56.6318 39.5466 58.128 42.1302 58.2289Z" fill="black"/>
<path d="M42.6235 50.3087C42.9138 50.3087 43.2041 50.2887 43.4936 50.3087C44.6349 50.4029 45.3955 51.1764 45.4345 52.2634C45.4734 53.3212 44.7228 54.1622 43.599 54.3214C43.0084 54.4048 43.0092 54.4048 43.0076 55.0174C43.0076 55.2809 43.049 55.5568 42.9852 55.8043C42.9445 55.9627 42.7471 56.0811 42.6202 56.2169C42.4892 56.0827 42.2785 55.9669 42.2453 55.8102C42.1831 55.5176 42.2064 55.2017 42.2246 54.8932C42.2478 54.5165 42.1184 54.3514 41.7178 54.3164C40.6304 54.2214 39.9122 53.5129 39.8176 52.5076C39.7919 52.235 39.8226 51.9783 40.1444 51.9366C40.4662 51.895 40.5591 52.1142 40.5956 52.4009C40.696 53.1236 41.1654 53.5187 41.9003 53.5229C42.3979 53.5229 42.8956 53.5287 43.3933 53.5229C44.1099 53.5137 44.6457 52.9861 44.6424 52.3026C44.639 51.6191 44.0958 51.1064 43.375 51.0981C42.8774 51.0922 42.3797 51.1056 41.882 51.0922C40.7258 51.0622 39.8914 50.2587 39.8458 49.1526C39.8002 48.0464 40.5823 47.1971 41.7435 47.0937C42.0902 47.0629 42.2362 46.9086 42.2221 46.5644C42.2097 46.2593 42.2171 45.9534 42.2221 45.6475C42.2271 45.3974 42.3333 45.1974 42.6028 45.1915C42.8973 45.1857 43.0026 45.3907 43.0034 45.6633C43.0043 45.9359 43.0208 46.2201 43.0034 46.4969C42.9761 46.897 43.1328 47.0704 43.5434 47.0954C44.5536 47.1579 45.2727 47.8456 45.4112 48.8392C45.4502 49.1159 45.4577 49.3985 45.1019 49.4551C44.746 49.5118 44.6722 49.2651 44.6366 48.9692C44.609 48.6758 44.4747 48.403 44.2593 48.203C44.044 48.0031 43.7627 47.89 43.4696 47.8856C42.9172 47.8647 42.3631 47.8639 41.8107 47.8856C41.6517 47.886 41.4944 47.9187 41.3484 47.9819C41.2023 48.045 41.0705 48.1373 40.9609 48.253C40.8513 48.3688 40.7662 48.5057 40.7107 48.6554C40.6552 48.8051 40.6304 48.9646 40.6379 49.1242C40.6479 49.7844 41.1447 50.2754 41.8356 50.2979C42.0985 50.307 42.3615 50.2979 42.6235 50.2979V50.3087Z" fill="black"/>
</g>
<defs>
<clipPath id="clip0_1807_5100">
<rect width="41" height="38" fill="white" transform="translate(20 21)"/>
</clipPath>
</defs>
</svg>
