<svg width="78" height="78" viewBox="0 0 78 78" fill="none" xmlns="http://www.w3.org/2000/svg">
<circle cx="38.97" cy="38.97" r="37.97" fill="white"/>
<circle cx="38.97" cy="38.97" r="38.47" stroke="#2E3192" stroke-opacity="0.2" stroke-linejoin="round"/>
<circle opacity="0.6" cx="38.89" cy="38.89" r="33.89" fill="#C8DCFE"/>
<g clip-path="url(#clip0_1807_5074)">
<path d="M26.7946 23.0307C26.9425 23.1062 27.085 23.1917 27.2212 23.2867C28.7411 24.514 30.394 24.6637 32.1641 23.9116C32.5606 23.7443 32.9655 23.5912 33.3603 23.4155C35.0208 22.6768 36.0078 21.4278 36.227 19.6032C36.2931 19.0561 36.3491 19.0008 36.9079 19C38.3021 19 39.6963 19 41.0904 19C41.6484 19 41.7044 19.0577 41.7705 19.604C41.9888 21.4286 42.9768 22.6777 44.6372 23.4155C45.0831 23.613 45.5365 23.7937 45.989 23.9735C47.6804 24.6428 49.2614 24.488 50.7086 23.3386C51.1586 22.9805 51.2849 22.9872 51.6982 23.3988C52.6752 24.3737 53.6511 25.3497 54.6259 26.3269C54.9998 26.7033 55.0082 26.8472 54.6845 27.253C53.5008 28.7371 53.3352 30.3484 54.0546 32.0835C54.2261 32.4951 54.3892 32.91 54.5657 33.3191C55.3052 35.0182 56.5733 36.0297 58.4354 36.2204C58.872 36.2648 59.0033 36.4588 59 36.8646C58.9883 38.2862 58.9883 39.7085 59 41.1312C59 41.537 58.8703 41.7294 58.4345 41.7737C56.5708 41.9636 55.3035 42.9751 54.5657 44.6759C54.3716 45.1226 54.1826 45.5727 54.0061 46.027C53.3511 47.706 53.515 49.2746 54.6569 50.706C55.0166 51.1561 55.0099 51.2833 54.5983 51.6957C53.6241 52.6734 52.6481 53.6494 51.6705 54.6238C51.2941 54.9986 51.1494 55.0078 50.7445 54.6849C49.2455 53.4894 47.6177 53.3329 45.8761 54.07C45.4779 54.2373 45.0747 54.392 44.679 54.5644C42.9784 55.3023 41.9663 56.5722 41.7755 58.432C41.7312 58.867 41.5396 59.0033 41.1339 59C39.7119 58.99 38.2898 58.99 36.8678 59C36.4654 59 36.268 58.8728 36.2236 58.4353C36.0329 56.5689 35.0249 55.3014 33.3226 54.561C32.8626 54.3619 32.4025 54.1662 31.9324 53.9863C30.2644 53.3488 28.7085 53.5195 27.2914 54.6506C26.8397 55.0103 26.7143 55.0053 26.3027 54.5945C25.3251 53.6196 24.3492 52.6436 23.3749 51.6664C22.9901 51.2799 22.9859 51.1494 23.3356 50.7085C24.4699 49.2763 24.6456 47.7094 23.9923 46.0236C23.8158 45.5693 23.6334 45.1167 23.431 44.6734C22.6614 42.9893 21.4234 41.9251 19.5203 41.7612C19.1548 41.7294 18.9992 41.5679 19 41.2082C19.005 39.7297 19.005 38.2517 19 36.7742C19 36.4137 19.1564 36.2581 19.5211 36.2213C21.4393 36.0305 22.7275 34.9948 23.4628 33.2363C23.6451 32.7988 23.8375 32.3654 24.0065 31.9237C24.6422 30.2505 24.4716 28.6995 23.3373 27.2823C22.9784 26.833 22.9851 26.7084 23.3975 26.2951C24.3723 25.3179 25.3482 24.3419 26.3253 23.367C26.4734 23.2438 26.6303 23.1314 26.7946 23.0307ZM25.1215 30.1627C25.109 30.3065 25.1282 30.5257 25.068 30.7207C24.7777 31.6476 24.4958 32.5787 24.1554 33.4873C23.4611 35.3403 22.1319 36.4848 20.1887 36.8905C19.8675 36.9583 19.7545 37.1172 19.7587 37.436C19.7713 38.4123 19.7637 39.3878 19.7637 40.3641C19.7637 40.9999 19.7637 40.9999 20.3669 41.1429C22.0845 41.5501 23.3024 42.5598 24.0207 44.1722C24.2644 44.7194 24.4936 45.2724 24.7083 45.8312C25.3775 47.5613 25.2345 49.2202 24.2265 50.7855C24.0517 51.0566 24.0533 51.2423 24.2901 51.4723C25.0304 52.191 25.7648 52.9163 26.4767 53.6625C26.7435 53.942 26.9435 53.9445 27.263 53.7403C28.7035 52.8201 30.251 52.6402 31.8696 53.1848C32.4226 53.3706 32.9521 53.6249 33.4975 53.8366C35.3436 54.5527 36.4897 55.8695 36.8962 57.8112C36.9639 58.1341 37.1237 58.2446 37.4416 58.2412C38.4588 58.2287 39.4768 58.2203 40.494 58.2412C40.8972 58.2504 41.0503 58.0948 41.1339 57.7133C41.5078 55.9941 42.4932 54.7451 44.101 54.0114C44.7083 53.7337 45.3248 53.471 45.9522 53.2426C47.6453 52.6243 49.2698 52.7833 50.7889 53.7671C51.0858 53.9595 51.274 53.9185 51.5074 53.6776C52.216 52.9464 52.9295 52.2228 53.6681 51.52C53.945 51.2557 53.955 51.0582 53.7518 50.7353C52.8258 49.2813 52.6459 47.7236 53.2055 46.0905C53.3912 45.5509 53.638 45.0339 53.8438 44.501C54.5531 42.658 55.8706 41.5102 57.8155 41.1036C58.1359 41.0359 58.2522 40.8794 58.248 40.5598C58.2346 39.5835 58.243 38.6081 58.243 37.6318C58.243 36.9943 58.243 36.9951 57.6407 36.8512C55.9593 36.4496 54.7414 35.4733 54.0211 33.898C53.7434 33.2915 53.4816 32.6741 53.2532 32.0475C52.635 30.3534 52.7923 28.7296 53.7794 27.2103C53.9734 26.9117 53.9283 26.7259 53.6882 26.4934C52.9579 25.7848 52.2335 25.0712 51.5308 24.3333C51.2657 24.0555 51.0666 24.0472 50.7445 24.2496C49.2899 25.1749 47.7331 25.3548 46.0994 24.7942C45.5607 24.6094 45.0429 24.3634 44.5101 24.1568C42.6698 23.439 41.5154 22.1255 41.1088 20.1829C41.0419 19.86 40.8838 19.7479 40.5651 19.7513C39.5613 19.7638 38.5575 19.7764 37.5537 19.7462C37.1154 19.7337 36.9497 19.8968 36.8577 20.3143C36.4604 22.1013 35.3972 23.3503 33.7108 24.0647C33.2239 24.2705 32.7371 24.483 32.2461 24.6746C30.4894 25.369 28.8064 25.251 27.2128 24.2228C26.9159 24.0304 26.7276 24.0731 26.4943 24.314C25.7765 25.0547 25.0471 25.7839 24.306 26.5017C24.055 26.741 24.0358 26.9334 24.2315 27.2204C24.8204 28.0846 25.0881 29.0558 25.1182 30.1627H25.1215Z" fill="black"/>
<path d="M39.0518 25.6445C46.4264 25.7106 52.3983 31.7199 52.3523 39.03C52.3079 46.3996 46.2458 52.4498 38.9439 52.3444C31.3694 52.2356 25.6142 46.2799 25.6644 38.9229C25.7146 31.4112 31.6688 25.7056 39.0518 25.6445ZM51.5835 39.03C51.59 36.5401 50.8578 34.1042 49.4797 32.0304C48.1016 29.9567 46.1395 28.3384 43.8415 27.3802C41.5436 26.422 39.0131 26.1669 36.5702 26.6474C34.1272 27.1278 31.8817 28.322 30.1176 30.079C28.3535 31.8361 27.1501 34.0769 26.6597 36.5181C26.1693 38.9592 26.4138 41.491 27.3625 43.7932C28.3111 46.0953 29.9211 48.0643 31.9889 49.4511C34.0567 50.8378 36.4894 51.5801 38.979 51.5839C40.6314 51.5883 42.2683 51.2669 43.7964 50.638C45.3244 50.0092 46.7134 49.0852 47.8841 47.919C49.0548 46.7528 49.9841 45.3673 50.6188 43.8416C51.2536 42.3159 51.5814 40.68 51.5835 39.0275V39.03Z" fill="black"/>
<path d="M38.7569 35.6198C38.7569 36.5953 38.7569 37.5713 38.7569 38.5479C38.7569 39.2247 38.7711 39.2398 39.4261 39.2398H45.449C46.0563 39.2398 46.1299 39.3184 46.1182 39.9091C46.0195 43.6854 43.0482 46.8779 39.2438 47.2945C38.1427 47.4198 37.0275 47.3072 35.9737 46.9644C34.9198 46.6217 33.9518 46.0567 33.135 45.3076C32.3183 44.5586 31.6718 43.6429 31.2392 42.6225C30.8067 41.6021 30.5982 40.5008 30.6278 39.3929C30.7256 35.3714 34.0742 31.9848 38.0534 31.8828C38.6749 31.8669 38.7494 31.9372 38.7502 32.5671C38.7578 33.5852 38.7561 34.6025 38.7569 35.6198ZM37.9957 36.2824C37.9957 35.2367 37.9957 34.1909 37.9957 33.146C37.9957 32.7319 37.8686 32.6315 37.4553 32.6834C33.5421 33.1854 30.7633 37.0103 31.4977 40.882C32.1452 44.2744 35.1006 46.662 38.5804 46.6035C41.893 46.5483 44.7848 43.9866 45.2959 40.6553C45.3795 40.0831 45.3126 40.0019 44.7179 40.0019C42.6969 40.0019 40.6759 40.0019 38.6549 40.0019C38.1036 40.0019 37.999 39.8948 37.9974 39.3385C37.9918 38.3184 37.9912 37.2997 37.9957 36.2824Z" fill="black"/>
<path d="M44.0618 37.9773C42.9334 37.9773 41.8032 37.9773 40.6773 37.9773C40.121 37.9773 40.0215 37.876 40.0215 37.3172C40.0215 35.0472 40.0215 32.7776 40.0215 30.5082C40.0215 29.9468 40.1336 29.8389 40.6806 29.8598C44.6959 29.9903 47.9783 33.253 48.1414 37.2804C48.1649 37.861 48.0578 37.9756 47.4873 37.9773C46.3455 37.9798 45.2036 37.9773 44.0618 37.9773ZM40.7827 33.898C40.7827 34.8317 40.7894 35.7653 40.7827 36.699C40.7785 37.0436 40.9115 37.2193 41.267 37.2193C43.1341 37.2193 45.002 37.2193 46.8716 37.2193C47.269 37.2193 47.3877 37.0696 47.3401 36.6722C46.9779 33.642 44.4123 31.067 41.3841 30.683C40.909 30.6236 40.7894 30.7324 40.7894 31.226C40.7855 32.115 40.7833 33.0057 40.7827 33.898Z" fill="black"/>
</g>
<defs>
<clipPath id="clip0_1807_5074">
<rect width="40" height="40" fill="white" transform="translate(19 19)"/>
</clipPath>
</defs>
</svg>
