<svg width="78" height="78" viewBox="0 0 78 78" fill="none" xmlns="http://www.w3.org/2000/svg">
<circle cx="38.97" cy="38.97" r="37.97" fill="white"/>
<circle cx="38.97" cy="38.97" r="38.47" stroke="#2E3192" stroke-opacity="0.2" stroke-linejoin="round"/>
<circle opacity="0.6" cx="38.89" cy="38.89" r="33.89" fill="#C8DCFE"/>
<g clip-path="url(#clip0_1807_5087)">
<path d="M59.0007 45.9849C58.9213 46.1873 58.8557 46.3964 58.7595 46.59C58.6413 46.8275 58.4526 47.009 58.2282 47.15C54.3188 49.6023 50.4282 52.0859 46.447 54.4198C44.822 55.3737 43.1735 56.2921 41.4513 57.0651C40.772 57.3704 40.0788 57.6389 39.3576 57.8313C38.5598 58.0441 37.7638 58.024 36.9601 57.8761C35.9873 57.6966 35.077 57.3171 34.1476 56.9987C33.3951 56.7418 32.636 56.504 31.8704 56.2855C31.3121 56.1301 30.7305 56.0761 30.1532 56.126C29.2663 56.1968 28.3798 56.2733 27.4813 56.3485C27.4732 56.4425 27.4701 56.5306 27.4576 56.6164C27.3363 57.4452 26.7229 57.9892 25.8616 57.9952C24.1116 58.0049 22.3616 57.9993 20.6116 57.9977C19.8057 57.9977 19.1601 57.4612 19.0282 56.6932C19.022 56.6739 19.0131 56.6556 19.002 56.6387V41.817C19.0645 41.6428 19.1091 41.4576 19.1963 41.2959C19.4891 40.7535 19.9551 40.4724 20.5688 40.4702C22.3501 40.4642 24.1313 40.4674 25.9126 40.4702C26.0322 40.4711 26.1514 40.4853 26.2679 40.5128C26.6032 40.5899 26.9033 40.777 27.1205 41.0444C27.3377 41.3119 27.4596 41.6445 27.467 41.9893C27.4741 42.2641 27.467 42.5396 27.467 42.8323C27.7629 42.8066 28.037 42.7878 28.3107 42.7577C29.2298 42.6565 30.0882 42.8736 30.9176 43.2478C31.4066 43.4671 31.8938 43.6927 32.3863 43.908C33.2301 44.2781 34.091 44.3533 35.0082 44.1678C36.851 43.7939 38.7082 43.4768 40.5632 43.1469C41.5785 42.9661 42.5338 43.1193 43.3926 43.7244C43.836 44.0377 44.2001 44.4291 44.5101 44.8731C44.5932 44.9925 44.6745 45.1135 44.7635 45.2438C44.9623 45.1526 45.1551 45.0646 45.3473 44.975C47.4098 44.0142 49.4688 43.0435 51.5376 42.0949C53.0707 41.3921 54.5913 41.471 56.0741 42.2607C57.2391 42.8808 58.092 43.8275 58.7707 44.9386C58.8816 45.1204 58.927 45.3429 59.0016 45.5462L59.0007 45.9849ZM45.2163 46.0203C45.4038 46.3487 45.5835 46.6602 45.7588 46.9742C45.9113 47.2471 45.8476 47.4868 45.5788 47.6385C44.0638 48.4955 42.527 49.309 40.9226 49.9858C39.5038 50.5837 38.052 51.0766 36.541 51.3818C36.4299 51.4042 36.315 51.4002 36.2057 51.3702C36.0345 51.3198 35.9226 51.1164 35.9366 50.9359C35.9526 50.7332 36.0929 50.5746 36.3116 50.5286C37.3306 50.3134 38.3327 50.0246 39.3101 49.6643C40.7754 49.1294 42.1795 48.4576 43.5601 47.7359C43.9701 47.5219 44.3726 47.2916 44.7973 47.0582C44.3407 46.3584 44.0182 45.5907 43.462 44.9703C42.7263 44.1496 41.8141 43.8281 40.7332 44.0208C38.8816 44.3511 37.0298 44.6691 35.1882 45.0376C34.1854 45.2382 33.2223 45.2009 32.2788 44.8161C31.7245 44.5899 31.171 44.357 30.6351 44.0913C29.6226 43.5899 28.5685 43.5417 27.4788 43.7491V55.4601C28.1704 55.3975 28.8482 55.3235 29.5282 55.2784C30.0307 55.2449 30.5391 55.2079 31.0395 55.2471C31.9738 55.3166 32.8682 55.5896 33.7473 55.9051C34.8051 56.2858 35.8445 56.7233 36.947 56.9661C37.5291 57.0943 38.1182 57.1604 38.7135 57.0573C39.6098 56.9025 40.4426 56.5559 41.2607 56.1799C43.382 55.1991 45.4082 54.0385 47.3979 52.8186C50.8313 50.7138 54.2441 48.5754 57.6648 46.4499C57.7446 46.4006 57.8193 46.3435 57.8879 46.2795C58.1223 46.0601 58.1829 45.6932 58.0182 45.4181C57.4491 44.4677 56.7329 43.6573 55.7554 43.1118C54.4854 42.403 53.1835 42.3083 51.8491 42.9322C50.1979 43.7052 48.5454 44.4747 46.8916 45.2407C46.3398 45.4955 45.7882 45.7533 45.2163 46.0203ZM26.5785 49.2635C26.5785 47.5142 26.5785 45.7648 26.5785 44.0155C26.5785 43.3836 26.5812 42.7517 26.5866 42.12C26.5882 41.8593 26.5054 41.6412 26.2898 41.4801C26.1413 41.3692 25.9732 41.3592 25.7995 41.3592H20.6745C20.607 41.3592 20.5345 41.3501 20.4726 41.3708C20.3573 41.4093 20.2354 41.4497 20.1382 41.5202C19.917 41.6804 19.886 41.9238 19.886 42.1783C19.886 46.8786 19.886 51.5789 19.886 56.2793C19.886 56.3106 19.886 56.3419 19.886 56.3733C19.901 56.8408 20.1713 57.1075 20.6382 57.1078C22.3674 57.109 24.0965 57.109 25.8257 57.1078C26.3088 57.1078 26.5757 56.8329 26.5757 56.3457L26.5785 49.2635Z" fill="black"/>
<path d="M36.4299 37.747C36.4299 38.687 36.4331 39.6271 36.4259 40.5671C36.4253 40.6853 36.3945 40.8014 36.3365 40.9043C36.2896 40.9806 36.2192 41.0395 36.1361 41.0722C36.0529 41.1049 35.9614 41.1097 35.8752 41.0857C35.7847 41.0599 35.704 41.0072 35.6439 40.9344C35.5838 40.8617 35.5472 40.7724 35.5387 40.6784C35.5334 40.6214 35.5359 40.5637 35.5359 40.5064C35.5359 38.7257 35.5359 36.9449 35.5359 35.164C35.5359 34.3727 35.1296 33.7539 34.3974 33.5032C34.144 33.4161 33.8556 33.4302 33.5827 33.4032C33.5515 33.4004 33.5149 33.4267 33.489 33.4484C33.0856 33.7699 32.6174 33.9297 32.114 33.9983C31.3502 34.1023 30.6074 34.0415 29.9052 33.6959C29.8074 33.6476 29.7031 33.5988 29.6271 33.5245C29.5099 33.4095 29.3771 33.3992 29.2277 33.3992C28.8335 33.389 28.448 33.5159 28.1366 33.7585C27.8251 34.001 27.607 34.3442 27.5193 34.7297C27.4855 34.8923 27.4687 35.058 27.469 35.2241C27.4652 36.3626 27.4671 37.501 27.4668 38.6397C27.4692 38.7024 27.467 38.7653 27.4602 38.8277C27.4425 38.9341 27.3872 39.0306 27.3045 39.0996C27.2218 39.1686 27.1172 39.2055 27.0096 39.2037C26.9022 39.1985 26.8004 39.1543 26.7231 39.0794C26.6458 39.0044 26.5984 38.9038 26.5896 38.7964C26.5874 38.7704 26.5865 38.7444 26.5865 38.7184C26.5865 37.4753 26.5781 36.2322 26.5921 34.9894C26.6059 33.7893 27.5943 32.6925 28.7852 32.5453C29.0834 32.5083 29.3877 32.5117 29.689 32.5139C29.7749 32.5139 29.8893 32.55 29.9418 32.6114C30.2399 32.9611 30.6449 33.0651 31.0668 33.1196C31.5737 33.1851 32.0787 33.1607 32.5571 32.963C32.7162 32.8978 32.8637 32.7878 32.9946 32.6725C33.1152 32.5656 33.2349 32.5061 33.3974 32.5048C33.8574 32.5011 34.3181 32.5001 34.7512 32.6797C35.7256 33.0839 36.3068 33.8096 36.4018 34.866C36.4574 35.4827 36.4246 36.1075 36.4296 36.7289C36.4321 37.0682 36.4299 37.4076 36.4299 37.747Z" fill="black"/>
<path d="M44.0971 37.395C44.0971 36.6429 44.094 35.8908 44.0971 35.1388C44.103 33.969 44.7802 33.0023 45.8571 32.6179C46.3143 32.4546 46.789 32.4612 47.2633 32.4859C47.3505 32.4903 47.4549 32.5549 47.5155 32.6235C47.7083 32.8428 47.953 32.9525 48.2271 33.018C48.8546 33.1681 49.4771 33.1628 50.0843 32.9303C50.239 32.8707 50.3805 32.7595 50.5068 32.6483C50.633 32.537 50.7543 32.474 50.9233 32.4737C51.3462 32.4737 51.7671 32.4737 52.1733 32.6113C53.2433 32.9729 53.9324 33.9227 53.9452 35.1015C53.9593 36.4176 53.9471 37.7337 53.9499 39.0498C53.9499 39.2691 53.8583 39.4224 53.6652 39.5113C53.5068 39.584 53.2874 39.5427 53.1858 39.3923C53.1115 39.2819 53.0697 39.1528 53.0652 39.0197C53.0565 37.7092 53.0633 36.3988 53.0583 35.0883C53.0552 34.2636 52.5012 33.5711 51.713 33.4103C51.5212 33.3712 51.3196 33.379 51.1224 33.3715C51.0813 33.372 51.0416 33.3863 51.0096 33.4122C50.6121 33.7475 50.1365 33.8913 49.6368 33.9653C48.8737 34.0781 48.1321 34.0038 47.428 33.6667C47.3649 33.6417 47.3058 33.6077 47.2524 33.5658C46.9002 33.2389 46.5002 33.3423 46.1252 33.4736C45.4083 33.7243 44.9943 34.351 44.993 35.1259C44.9903 36.6764 44.9903 38.227 44.993 39.7777C44.993 39.997 44.9396 40.1794 44.7193 40.2759C44.4821 40.38 44.1999 40.2562 44.1305 40.0068C44.1084 39.9211 44.0979 39.8329 44.0993 39.7445C44.0962 38.9614 44.0971 38.178 44.0971 37.395Z" fill="black"/>
<path d="M37.5391 24.2268C37.5806 23.8132 37.5809 23.3904 37.6712 22.9878C37.9566 21.7146 39.3006 20.8256 40.5819 21.029C41.7278 21.2114 42.5506 21.9691 42.8222 23.0971C42.8606 23.2595 42.8797 23.4259 42.8791 23.5929C42.8772 24.1296 42.9103 24.6727 42.8419 25.2019C42.6903 26.3635 41.7931 27.2422 40.6381 27.429C39.0922 27.6796 37.5756 26.4961 37.5756 24.777V24.2305L37.5391 24.2268ZM42.0212 24.245L41.9984 24.2431C41.9984 24.0604 41.9984 23.8777 41.9984 23.695C42 23.3647 41.9114 23.0402 41.7422 22.7568C41.557 22.4488 41.2831 22.2043 40.9566 22.0554C40.6301 21.9066 40.2663 21.8604 39.9131 21.923C39.1878 22.0543 38.5828 22.639 38.5003 23.3657C38.4447 23.8608 38.4619 24.3656 38.4691 24.8654C38.4703 25.0803 38.5138 25.2928 38.5969 25.4908C38.6801 25.6888 38.8013 25.8685 38.9538 26.0195C39.4309 26.5077 40.0097 26.68 40.6659 26.5111C41.3441 26.3369 41.7816 25.8879 41.9378 25.207C42.0103 24.8967 41.9962 24.5661 42.0212 24.2459V24.245Z" fill="black"/>
<path d="M46.3359 28.8402C46.3803 28.4216 46.3813 27.9926 46.4775 27.5868C46.7794 26.313 48.1244 25.4626 49.415 25.6591C50.0511 25.7576 50.6306 26.0824 51.0476 26.5741C51.4646 27.0658 51.6912 27.6916 51.6859 28.337C51.6825 28.8167 51.7022 29.3002 51.6519 29.7756C51.5209 31.009 50.48 31.9866 49.2425 32.0781C47.7113 32.1912 46.43 31.0419 46.3778 29.5027C46.3703 29.2833 46.3778 29.064 46.3778 28.8446L46.3359 28.8402ZM47.2338 28.8487L47.2719 28.8515C47.2719 29.0862 47.2603 29.3215 47.2741 29.5556C47.3288 30.4844 48.0997 31.1985 49.0356 31.1963C49.9625 31.1938 50.7463 30.4612 50.7856 29.5403C50.8047 29.0818 50.7966 28.6218 50.7856 28.1615C50.7772 27.8616 50.6808 27.5707 50.5084 27.3255C50.0869 26.7173 49.5009 26.4396 48.7719 26.5465C48.0347 26.6549 47.5338 27.0883 47.3409 27.8115C47.2525 28.1433 47.2663 28.5021 47.2338 28.8487Z" fill="black"/>
<path d="M28.8125 28.8904C28.8544 28.4765 28.8544 28.0532 28.9462 27.6505C29.2422 26.3526 30.5959 25.4736 31.9044 25.6967C33.2247 25.922 34.1319 26.9624 34.1566 28.3029C34.1659 28.824 34.1762 29.3498 34.1191 29.8662C33.9897 31.0303 32.9509 32.0049 31.785 32.1051C30.1687 32.244 28.8738 31.0632 28.8491 29.4269C28.8463 29.2492 28.8491 29.0719 28.8491 28.8942L28.8125 28.8904ZM29.7441 28.8861H29.7475C29.7475 29.1104 29.7416 29.3351 29.7475 29.5591C29.7731 30.3942 30.4706 31.1403 31.2966 31.2199C32.1934 31.3077 33.0628 30.7427 33.2009 29.891C33.2947 29.321 33.2947 28.7241 33.25 28.1462C33.1731 27.1654 32.3528 26.5039 31.3697 26.5575C30.4666 26.6067 29.7609 27.3722 29.7447 28.3214C29.7397 28.5103 29.7425 28.698 29.7425 28.8861H29.7441Z" fill="black"/>
<path d="M40.3588 29.3794C39.6829 29.3822 39.1513 29.302 38.6551 29.0551C38.5532 29.0043 38.4463 28.9507 38.3647 28.8736C38.2438 28.7586 38.1107 28.738 37.9529 28.7398C36.9666 28.7521 36.2463 29.438 36.1926 30.4247C36.1769 30.7086 35.9866 30.9092 35.7391 30.902C35.4801 30.8945 35.3016 30.6826 35.3088 30.3881C35.3401 28.9708 36.4782 27.8684 37.9338 27.8449C38.0432 27.843 38.1526 27.849 38.2619 27.8449C38.4735 27.8346 38.6369 27.9107 38.7869 28.0671C39.0369 28.3293 39.3807 28.4099 39.7213 28.4575C40.2526 28.5318 40.7838 28.5202 41.2869 28.3033C41.4451 28.235 41.5782 28.11 41.7269 28.0172C41.826 27.9546 41.9294 27.8646 42.036 27.8571C42.7794 27.8045 43.4944 27.8938 44.1088 28.371C44.7807 28.8931 45.1269 29.5834 45.1513 30.4341C45.1551 30.5505 45.1142 30.6639 45.037 30.7509C44.9598 30.8379 44.8523 30.8919 44.7366 30.9017C44.5141 30.922 44.3097 30.7491 44.2679 30.5075C44.2335 30.3025 44.2222 30.0901 44.1591 29.8945C43.9469 29.2287 43.3132 28.7721 42.6185 28.7417C42.3976 28.732 42.2169 28.773 42.0301 28.9116C41.5904 29.2362 40.9735 29.3791 40.3588 29.3794Z" fill="black"/>
</g>
<defs>
<clipPath id="clip0_1807_5087">
<rect width="40" height="37" fill="white" transform="translate(19 21)"/>
</clipPath>
</defs>
</svg>
