<svg width="102" height="102" viewBox="0 0 102 102" fill="none" xmlns="http://www.w3.org/2000/svg">
<ellipse cx="50.96" cy="50.97" rx="49.96" ry="49.97" fill="white"/>
<path d="M50.96 101.44C78.8284 101.44 101.42 78.8437 101.42 50.97C101.42 23.0963 78.8284 0.5 50.96 0.5C23.0916 0.5 0.5 23.0963 0.5 50.97C0.5 78.8437 23.0916 101.44 50.96 101.44Z" stroke="#2E3192" stroke-opacity="0.2" stroke-linejoin="round"/>
<circle opacity="0.6" cx="50.57" cy="50.57" r="44.57" fill="#C8DCFE"/>
<path d="M42.7024 36.4457V35.9123C42.7024 34.3049 42.7024 32.6975 42.7024 31.0901C42.7024 30.4286 42.832 30.2978 43.4806 30.2974C49.1815 30.2974 54.882 30.2974 60.5824 30.2974C61.2306 30.2974 61.3657 30.4341 61.3657 31.0858C61.3673 35.2531 61.3673 39.4206 61.3657 43.5882V44.196C61.7503 44.0711 62.0707 43.9712 62.3872 43.8635C63.2602 43.567 64.1316 43.2651 65.0051 42.969C65.8479 42.683 66.0657 42.8366 66.0657 43.7131C66.0657 51.8248 66.0657 59.9366 66.0657 68.0486C66.0657 68.3619 66.0657 68.6744 66.0657 68.9862C66.0657 69.5772 66.0657 69.578 66.6387 69.5784C68.2759 69.5784 69.9132 69.5784 71.5506 69.5784C71.7127 69.5784 71.9192 69.5482 72.0265 69.6321C72.1804 69.7527 72.3472 69.965 72.3488 70.1412C72.3488 70.2893 72.1471 70.4737 71.9912 70.576C71.8839 70.6465 71.7026 70.6108 71.5545 70.6112C57.5485 70.6112 43.5425 70.6112 29.5365 70.6112C29.403 70.6112 29.231 70.6543 29.1448 70.5889C28.9741 70.4612 28.7403 70.2716 28.7383 70.1056C28.7363 69.9395 28.9604 69.7355 29.13 69.6101C29.2294 69.5369 29.4178 69.5792 29.5663 69.5788C30.9951 69.5788 32.424 69.5788 33.8531 69.5788C34.5099 69.5788 34.5103 69.5788 34.5103 68.9404V37.3282C34.5103 36.555 34.6184 36.4461 35.381 36.4461C37.6283 36.4461 39.8759 36.4461 42.1235 36.4461L42.7024 36.4457ZM35.547 37.5217V68.929C35.5519 69.0182 35.5519 69.1077 35.547 69.1969C35.5149 69.4856 35.6324 69.5937 35.9273 69.5851C36.5074 69.5674 37.0898 69.5545 37.6683 69.5886C38.0772 69.6129 38.1622 69.4593 38.1602 69.0794C38.1461 66.0131 38.1516 62.9463 38.1532 59.8796C38.1532 59.2349 38.2969 59.0962 38.942 59.0943C41.1006 59.0943 43.2592 59.0943 45.4178 59.0943C46.207 59.0943 46.3132 59.2016 46.3132 60.001C46.3132 63.0376 46.3194 66.0746 46.3057 69.1111C46.3057 69.4797 46.4044 69.6015 46.78 69.5894C47.5978 69.5627 48.418 69.5569 49.2354 69.5894C49.6733 69.6078 49.7802 69.4629 49.7798 69.0375C49.7683 58.6918 49.7649 48.3459 49.7696 37.9999C49.7696 37.8432 49.7532 37.6865 49.7438 37.5213L35.547 37.5217ZM65.0301 44.0829C64.81 44.1475 64.6827 44.18 64.5601 44.2219C60.1124 45.7363 55.6641 47.2471 51.2153 48.7543C50.8765 48.8686 50.804 49.039 50.8044 49.3653C50.813 55.9272 50.8118 62.4892 50.8009 69.0512C50.8009 69.495 50.9391 69.5901 51.357 69.5886C55.7314 69.5745 60.1061 69.5755 64.481 69.5917C64.9534 69.5917 65.0411 69.4452 65.0403 69.0097C65.028 60.8855 65.025 52.7611 65.0313 44.6367L65.0301 44.0829ZM43.7434 36.4454H44.2863C46.177 36.4454 48.0676 36.4454 49.958 36.4454C50.6802 36.4454 50.8091 36.5754 50.8095 37.307C50.8095 40.6114 50.8095 43.916 50.8095 47.2209C50.8095 47.3897 50.824 47.5585 50.833 47.7571C50.9803 47.7246 51.068 47.714 51.1506 47.6862C54.1075 46.6796 57.0644 45.6743 60.0215 44.6704C60.2957 44.5779 60.338 44.4236 60.3376 44.1741C60.3321 40.0358 60.3304 35.8972 60.3325 31.7583C60.3325 31.6286 60.3133 31.499 60.3 31.3274H44.2855C44.1962 31.3274 44.0897 31.2977 44.0215 31.3361C43.9146 31.3968 43.7548 31.5025 43.7536 31.5906C43.7376 33.1847 43.7419 34.7757 43.7419 36.4457L43.7434 36.4454ZM45.2709 60.1592H42.7564C42.7564 61.3342 42.7494 62.4763 42.767 63.6192C42.767 63.7367 42.8998 63.8659 42.9985 63.9607C43.4622 64.4045 43.6114 65.1169 43.1669 65.5141C42.7047 65.9273 42.758 66.3855 42.7553 66.8775C42.7533 67.2793 42.7553 67.6808 42.7553 68.0822V69.5796C43.474 69.5796 44.1261 69.558 44.7763 69.5878C45.1624 69.6058 45.2854 69.4993 45.2811 69.0955C45.258 67.3557 45.2713 65.6151 45.2713 63.875L45.2709 60.1592ZM39.2483 60.1541C39.2343 60.1834 39.2231 60.214 39.215 60.2454C39.2085 63.2615 39.2013 66.2773 39.1934 69.2929C39.1934 69.5467 39.3313 69.5811 39.5346 69.5796C40.1291 69.5753 40.7241 69.562 41.3178 69.5847C41.6425 69.5972 41.7181 69.4672 41.7134 69.1695C41.6985 68.2037 41.7197 67.2374 41.6974 66.2712C41.683 66.0762 41.6007 65.8924 41.4647 65.7518C40.9332 65.2246 40.9277 64.4953 41.4428 63.967C41.593 63.8032 41.6824 63.5927 41.6962 63.3709C41.7232 62.4653 41.7079 61.5582 41.7079 60.6515V60.1545L39.2483 60.1541Z" fill="black"/>
<path d="M46.0183 43.8496C45.3646 43.8496 44.7109 43.8555 44.0576 43.8476C43.5833 43.8422 43.4039 43.671 43.4008 43.2057C43.3924 42.1216 43.3924 41.0373 43.4008 39.9529C43.4043 39.4943 43.5966 39.3078 44.0588 39.3055C45.3808 39.2992 46.7027 39.2992 48.0244 39.3055C48.4944 39.3082 48.6722 39.4868 48.6754 39.9537C48.6832 41.0378 48.6832 42.1214 48.6754 43.2045C48.6722 43.6796 48.5054 43.8402 48.0229 43.8457C47.3551 43.8555 46.6865 43.8496 46.0183 43.8496ZM44.4693 42.8101C45.4766 42.8101 46.4252 42.8148 47.3739 42.8027C47.4616 42.8027 47.6222 42.6946 47.6234 42.6343C47.6406 41.8854 47.6347 41.1361 47.6347 40.3826H44.4693V42.8101Z" fill="black"/>
<path d="M46.0665 53.1304C46.7065 53.1304 47.3464 53.1238 47.9856 53.1324C48.5097 53.139 48.6734 53.3079 48.6758 53.8374C48.6805 54.8941 48.6805 55.951 48.6758 57.0079C48.6726 57.5053 48.503 57.6785 48.0005 57.6812C46.6905 57.6885 45.3807 57.6885 44.0709 57.6812C43.5763 57.6785 43.4016 57.4963 43.3988 57.0001C43.3931 55.9429 43.3931 54.8854 43.3988 53.8276C43.4016 53.3079 43.5739 53.1367 44.1015 53.13C44.7564 53.1242 45.4116 53.13 46.0665 53.1304ZM44.4689 56.6449C45.4621 56.6449 46.3982 56.6405 47.3347 56.6476C47.5697 56.6476 47.6453 56.545 47.6429 56.3245C47.6363 55.7146 47.6512 55.104 47.6308 54.4942C47.6273 54.3873 47.4957 54.1946 47.4201 54.193C46.4444 54.1727 45.468 54.1793 44.4689 54.1793V56.6449Z" fill="black"/>
<path d="M39.2458 43.8495C38.5921 43.8495 37.9388 43.8558 37.2851 43.8475C36.8116 43.8417 36.6358 43.6701 36.6358 43.2009C36.6292 42.1168 36.6292 41.0332 36.6358 39.9501C36.6385 39.4969 36.8316 39.3089 37.2973 39.3069C38.6193 39.3007 39.941 39.3007 41.2625 39.3069C41.727 39.3093 41.906 39.4922 41.9088 39.9606C41.9153 41.0448 41.9153 42.1284 41.9088 43.2115C41.9056 43.6815 41.7364 43.8421 41.2519 43.8471C40.5822 43.855 39.914 43.8495 39.2458 43.8495ZM40.874 40.3895H37.7148V42.8096C38.7018 42.8096 39.6532 42.8167 40.6033 42.7979C40.6954 42.7979 40.8595 42.6357 40.8622 42.5452C40.8838 41.8344 40.874 41.1227 40.874 40.3895Z" fill="black"/>
<path d="M39.2544 57.6843C38.6145 57.6843 37.9741 57.6902 37.3353 57.6843C36.81 57.678 36.6361 57.5037 36.6338 56.9863C36.6299 55.9296 36.6299 54.8729 36.6338 53.8162C36.6361 53.3227 36.8112 53.1378 37.3055 53.1347C38.6152 53.1263 39.925 53.1263 41.2347 53.1347C41.7364 53.1374 41.9056 53.3117 41.9084 53.8095C41.9139 54.8801 41.9139 55.9517 41.9084 57.0243C41.9056 57.4967 41.7333 57.6749 41.2645 57.6827C40.5939 57.6921 39.9254 57.6839 39.2544 57.6843ZM40.8708 56.6213C40.8708 55.8587 40.8783 55.1189 40.8583 54.3798C40.8564 54.3093 40.6825 54.1863 40.5869 54.184C39.7088 54.1688 38.8307 54.1688 37.9525 54.184C37.8609 54.184 37.6948 54.3148 37.6929 54.388C37.6737 55.1259 37.6811 55.8646 37.6811 56.6205L40.8708 56.6213Z" fill="black"/>
<path d="M46.0588 50.7655C45.3891 50.7655 44.7193 50.7718 44.05 50.7632C43.5855 50.7573 43.4033 50.5756 43.3998 50.1075C43.3928 49.037 43.3928 47.9656 43.3998 46.8935C43.403 46.3981 43.5745 46.232 44.0813 46.23C45.3911 46.2251 46.7005 46.2251 48.0097 46.23C48.5189 46.2324 48.6756 46.3867 48.6756 46.9029C48.6811 47.9735 48.6811 49.0448 48.6756 50.1169C48.6724 50.5897 48.5005 50.7573 48.0231 50.7632C47.3674 50.7718 46.7133 50.7659 46.0588 50.7655ZM44.4667 47.2633V49.6877H47.6392C47.6392 48.9541 47.6506 48.2581 47.6267 47.5633C47.6232 47.4603 47.4544 47.2785 47.3588 47.2766C46.4133 47.255 45.4663 47.2633 44.4667 47.2633Z" fill="black"/>
<path d="M39.2776 50.7658C38.6227 50.7658 37.9678 50.7705 37.313 50.7658C36.8132 50.7611 36.6358 50.588 36.633 50.0969C36.6275 49.0263 36.6275 47.9547 36.633 46.8821C36.6358 46.407 36.8046 46.2354 37.2804 46.2327C38.6051 46.2262 39.9297 46.2262 41.2543 46.2327C41.7404 46.2346 41.9033 46.3948 41.906 46.8727C41.9131 47.9432 41.9131 49.0148 41.906 50.0875C41.9033 50.5943 41.7396 50.7603 41.2402 50.7658C40.5869 50.7713 39.932 50.7658 39.2776 50.7658ZM37.7015 49.6887H40.874C40.874 48.9446 40.8818 48.2329 40.8642 47.5236C40.8618 47.4359 40.7248 47.2773 40.648 47.2761C39.6743 47.2588 38.6998 47.2647 37.7023 47.2647L37.7015 49.6887Z" fill="black"/>
<path d="M61.3108 54.2737C60.6571 54.2737 60.0038 54.2795 59.3501 54.2717C58.8264 54.2658 58.667 54.1002 58.665 53.5667C58.6611 52.5123 58.6611 51.4579 58.665 50.4032C58.6674 49.9089 58.8417 49.73 59.3356 49.7276C60.6427 49.7213 61.9497 49.7213 63.2566 49.7276C63.7747 49.73 63.9384 49.9031 63.9404 50.4326C63.9443 51.487 63.9443 52.5415 63.9404 53.5961C63.9381 54.0966 63.7732 54.2619 63.271 54.2705C62.617 54.2803 61.9633 54.2737 61.3108 54.2737ZM59.7496 50.7949V53.2318C60.7409 53.2318 61.6907 53.2377 62.6401 53.2217C62.7262 53.2217 62.8813 53.0803 62.8833 53.0015C62.9025 52.2758 62.8947 51.5489 62.8947 50.7949H59.7496Z" fill="black"/>
<path d="M61.3016 60.7457C60.6467 60.7457 59.9914 60.7524 59.3366 60.7438C58.8403 60.7367 58.6664 60.5605 58.6641 60.0654C58.6589 58.9948 58.6589 57.9231 58.6641 56.8502C58.6668 56.3802 58.8376 56.1996 59.3142 56.1957C60.6389 56.1861 61.9636 56.1861 63.2885 56.1957C63.7651 56.1992 63.9351 56.3798 63.9379 56.851C63.9439 57.938 63.9439 59.0246 63.9379 60.1108C63.9351 60.5507 63.755 60.734 63.3112 60.7422C62.6418 60.7543 61.9713 60.7453 61.3016 60.7457ZM59.711 59.7117C60.7293 59.7117 61.6952 59.7184 62.6587 59.6988C62.7394 59.6988 62.8811 59.5186 62.8847 59.4184C62.9054 58.794 62.9078 58.1678 62.8827 57.5438C62.8784 57.4393 62.7147 57.2552 62.6207 57.2528C61.7434 57.2305 60.8648 57.2332 59.9867 57.2485C59.8939 57.2485 59.7251 57.3762 59.7231 57.4479C59.7043 58.187 59.711 58.9264 59.711 59.7117Z" fill="black"/>
<path d="M54.5404 54.2737C53.8852 54.2737 53.2303 54.2799 52.5754 54.2737C52.0663 54.2674 51.9014 54.1025 51.8986 53.6027C51.8932 52.5322 51.8932 51.4603 51.8986 50.3872C51.9014 49.9172 52.0772 49.7331 52.5441 49.7307C53.869 49.7229 55.1939 49.7229 56.5187 49.7307C56.9887 49.7331 57.1701 49.9144 57.1728 50.3797C57.1799 51.4667 57.1799 52.5535 57.1728 53.64C57.1697 54.0853 56.993 54.2666 56.5501 54.2721C55.8803 54.2815 55.2102 54.2733 54.5404 54.2737ZM52.944 50.7937C52.944 51.5445 52.9362 52.2687 52.955 52.9917C52.9569 53.0736 53.1058 53.2197 53.19 53.2209C54.1511 53.2373 55.1127 53.2314 56.1063 53.2314V50.7937H52.944Z" fill="black"/>
<path d="M54.5191 60.7459C53.8791 60.7459 53.2391 60.7514 52.5999 60.7459C52.0692 60.7396 51.9004 60.5724 51.8981 60.0507C51.8934 58.994 51.8934 57.9373 51.8981 56.8805C51.9004 56.38 52.068 56.1998 52.5639 56.1963C53.8736 56.1872 55.1834 56.1872 56.4931 56.1963C57.0128 56.1994 57.1703 56.3749 57.1726 56.9131C57.1765 57.9549 57.1765 58.9969 57.1726 60.0389C57.1703 60.5677 57.0046 60.7392 56.4829 60.7439C55.8292 60.7518 55.174 60.7455 54.5191 60.7459ZM52.9434 59.6821H56.1049V57.2401C55.1129 57.2401 54.1517 57.2342 53.1906 57.2507C53.1071 57.2507 52.9556 57.3972 52.9556 57.4786C52.9356 58.2024 52.9434 58.9274 52.9434 59.6821Z" fill="black"/>
<path d="M61.3092 67.648C60.6543 67.648 59.9995 67.653 59.3446 67.648C58.8272 67.6429 58.6654 67.4889 58.6627 66.9896C58.6567 65.919 58.6567 64.8475 58.6627 63.7752C58.6651 63.3052 58.8413 63.1183 59.305 63.1156C60.6297 63.1083 61.9541 63.1083 63.2785 63.1156C63.7704 63.1179 63.9353 63.2954 63.9377 63.8022C63.9421 64.8589 63.9421 65.9155 63.9377 66.9719C63.9353 67.485 63.781 67.6421 63.2742 67.648C62.6197 67.655 61.9648 67.648 61.3092 67.648ZM62.8661 64.177H59.7327V66.5787H62.8661V64.177Z" fill="black"/>
<path d="M54.5341 67.6471C53.8644 67.6471 53.1946 67.6549 52.5252 67.6471C52.0705 67.6404 51.9017 67.474 51.8986 67.0247C51.8911 65.9237 51.8962 64.8224 51.8962 63.721C51.8962 63.316 52.1081 63.1159 52.5041 63.1151C53.858 63.1117 55.2121 63.1117 56.5665 63.1151C56.9644 63.1151 57.1732 63.3211 57.1735 63.723C57.1735 64.8392 57.1763 65.9555 57.1735 67.0713C57.1735 67.452 56.9695 67.6471 56.5888 67.6482C55.9049 67.6482 55.2199 67.6467 54.5341 67.6471ZM52.9674 66.5755H56.109V64.1742H52.9674V66.5755Z" fill="black"/>
<path d="M55.9419 43.837C55.258 43.837 54.5742 43.8417 53.8907 43.837C53.389 43.8327 53.2088 43.6635 53.2053 43.1739C53.1972 42.1187 53.1972 41.0635 53.2053 40.008C53.2084 39.5102 53.3843 39.3238 53.8711 39.3211C55.2683 39.3132 56.6653 39.3132 58.062 39.3211C58.5739 39.3238 58.7485 39.5114 58.7509 40.0343C58.7556 41.0751 58.7556 42.1155 58.7509 43.1555C58.7482 43.6494 58.5684 43.8319 58.0815 43.837C57.3687 43.8417 56.6551 43.837 55.9419 43.837ZM57.6848 40.395H54.273V42.7611H57.6848V40.395Z" fill="black"/>
<path d="M55.9571 36.3608C55.2588 36.3608 54.5605 36.3659 53.8621 36.3588C53.3847 36.3541 53.2096 36.1889 53.2057 35.7181C53.1971 34.6475 53.1971 33.5778 53.2057 32.5088C53.2092 32.036 53.3831 31.8637 53.8582 31.8613C55.2698 31.8548 56.6813 31.8548 58.0929 31.8613C58.5813 31.8641 58.7497 32.0439 58.7525 32.5491C58.7579 33.5894 58.7579 34.6295 58.7525 35.6695C58.7497 36.1908 58.5805 36.3557 58.0529 36.3596C57.3546 36.3639 56.6555 36.3608 55.9571 36.3608ZM57.6722 35.3221V32.8938C56.5865 32.8938 55.533 32.8875 54.4798 32.9063C54.3971 32.9063 54.2514 33.0841 54.2479 33.1832C54.2268 33.8075 54.2287 34.433 54.2479 35.0577C54.2506 35.1482 54.3819 35.3107 54.4555 35.3119C55.522 35.326 56.5901 35.3209 57.6722 35.3209V35.3221Z" fill="black"/>
<path d="M47.8084 32.1112C48.5361 32.1112 49.2642 32.1073 49.9919 32.1112C50.5183 32.1155 50.6664 32.2549 50.6734 32.7653C50.6817 33.4037 50.6758 34.0425 50.6734 34.6813C50.6734 35.0213 50.5458 35.2766 50.169 35.2802C49.7922 35.2837 49.6512 35.0377 49.6457 34.6958C49.6398 34.3096 49.6253 33.9223 49.6484 33.5373C49.6676 33.2153 49.536 33.1338 49.2345 33.1374C48.0595 33.1503 46.8876 33.1444 45.7142 33.1401C45.5528 33.1401 45.3436 33.1648 45.2418 33.0778C45.0926 32.9513 44.8991 32.6901 44.9441 32.5655C45.0115 32.3783 45.2618 32.1433 45.447 32.132C46.2304 32.0842 47.0204 32.1116 47.8076 32.1116L47.8084 32.1112Z" fill="black"/>
</svg>
