<svg width="102" height="102" viewBox="0 0 102 102" fill="none" xmlns="http://www.w3.org/2000/svg">
<ellipse cx="50.96" cy="50.97" rx="49.96" ry="49.97" fill="white"/>
<path d="M50.96 101.44C78.8284 101.44 101.42 78.8437 101.42 50.97C101.42 23.0963 78.8284 0.5 50.96 0.5C23.0916 0.5 0.5 23.0963 0.5 50.97C0.5 78.8437 23.0916 101.44 50.96 101.44Z" stroke="#2E3192" stroke-opacity="0.2" stroke-linejoin="round"/>
<circle opacity="0.6" cx="50.57" cy="50.57" r="44.57" fill="#C8DCFE"/>
<path d="M52.6331 32.7864C52.6331 32.3779 52.6365 31.9695 52.6331 31.5611C52.6259 30.8581 52.1992 30.4136 51.4979 30.4004C50.7967 30.3872 50.1027 30.3881 49.4052 30.4004C48.7078 30.4127 48.2735 30.8581 48.2692 31.5598C48.2641 32.3937 48.2582 33.2275 48.2692 34.0614C48.2764 34.5425 48.0992 34.7707 47.5926 34.8876C46.1553 35.2195 44.7319 35.6135 43.3103 36.0104C42.8386 36.1422 42.5096 36.1077 42.2546 35.6249C41.8921 34.9326 41.4752 34.2688 41.0735 33.5977C40.5763 32.766 40.136 32.6529 39.317 33.1264C38.7726 33.4413 38.215 33.735 37.6799 34.0656C36.9366 34.525 36.8461 34.9267 37.2821 35.6674C37.6948 36.3712 38.1138 37.0699 38.5189 37.7797C38.8011 38.274 38.7216 38.5115 38.3238 38.8911C37.2893 39.8759 36.2706 40.8752 35.2676 41.889C34.8515 42.3102 34.6301 42.3888 34.112 42.1015C33.3551 41.6791 32.6063 41.2413 31.8485 40.8193C31.2803 40.5031 30.8837 40.5375 30.5148 41.0709C30.0149 41.7993 29.5646 42.5605 29.1667 43.3493C29.0681 43.5427 29.182 43.9141 29.3138 44.1347C29.4455 44.3553 29.7048 44.5062 29.9351 44.6447C30.5773 45.0272 31.2327 45.3906 31.8846 45.7582C32.4609 46.0838 32.5344 46.2899 32.2718 46.9176C32.095 47.3426 31.8791 47.7506 31.7295 48.1833C31.3857 49.1761 31.0537 50.174 30.7554 51.1812C30.6568 51.5148 30.5131 51.6763 30.1634 51.6738C29.4149 51.6683 28.6661 51.6776 27.9177 51.6835C27.3146 51.6882 27.0417 51.9309 27.0213 52.5399C26.9958 53.3049 27.0039 54.0699 26.9992 54.8349C26.9992 55.2259 26.9363 55.5613 26.4255 55.5451C25.9482 55.5298 25.8968 55.2089 25.8981 54.8392C25.9002 54.0903 25.8862 53.3415 25.9027 52.5931C25.9346 51.1268 26.4871 50.5896 27.9321 50.5849C28.3405 50.5849 28.7498 50.5688 29.157 50.5892C29.525 50.6075 29.7197 50.4315 29.837 50.1068C30.2101 49.0868 30.5731 48.06 30.9802 47.0523C31.1171 46.7123 30.9573 46.5755 30.729 46.4416C30.1863 46.1237 29.6351 45.8207 29.0902 45.5066C28.086 44.9282 27.6644 43.7875 28.1684 42.7518C28.596 41.8821 29.0851 41.0442 29.6321 40.2443C30.1591 39.4674 31.4205 39.2876 32.3763 39.7865C32.9488 40.084 33.5098 40.4079 34.0619 40.7432C34.3169 40.8992 34.4869 40.906 34.7138 40.6731C35.4848 39.883 36.2766 39.1121 37.0739 38.3479C37.2813 38.1486 37.3212 37.9952 37.1589 37.7406C36.8252 37.2272 36.5371 36.6874 36.2196 36.1621C35.6293 35.1872 35.8273 33.641 37.0696 33.0562C37.668 32.7749 38.232 32.4187 38.8002 32.0762C39.8895 31.4221 41.4722 31.6707 42.0697 32.9717C42.2958 33.4634 42.6129 33.9135 42.8887 34.3827C43.0702 34.6916 43.2627 34.8149 43.6728 34.6827C44.6078 34.3818 45.5713 34.1536 46.5305 33.9292C46.9657 33.8272 47.1706 33.6274 47.1481 33.1616C47.1196 32.5666 47.1268 31.9716 47.1481 31.3766C47.1906 30.1076 47.9904 29.3175 49.2556 29.2988C50.0721 29.2865 50.8893 29.2856 51.7053 29.309C52.9251 29.3434 53.7028 30.1135 53.753 31.335C53.7789 31.9636 53.7734 32.5947 53.756 33.2237C53.7445 33.6457 53.9527 33.8238 54.3365 33.9173C55.3102 34.1553 56.2881 34.3848 57.2422 34.6882C57.6277 34.8106 57.8211 34.7027 57.9941 34.4162C58.3103 33.8918 58.6171 33.3622 58.9257 32.8335C59.5117 31.8293 60.683 31.4145 61.7392 31.9219C62.5946 32.3404 63.4248 32.8087 64.2254 33.3244C65.0376 33.8404 65.2454 35.103 64.7188 36.0844C64.4213 36.6369 64.1022 37.1817 63.7643 37.7121C63.5985 37.9731 63.6002 38.1371 63.8365 38.3624C64.6385 39.1214 65.4235 39.8987 66.2012 40.6829C66.3993 40.8822 66.5451 40.9404 66.8077 40.7742C67.3385 40.4381 67.9012 40.1525 68.444 39.8346C69.5158 39.2073 71.0297 39.5443 71.5711 40.6735C71.8491 41.2541 72.1993 41.8027 72.5486 42.3459C73.1861 43.3387 73.0748 44.9435 71.6718 45.5984C71.1648 45.8351 70.6943 46.1509 70.2047 46.4221C69.8839 46.598 69.8091 46.7914 69.9616 47.1624C70.3552 48.1199 70.6965 49.0996 71.042 50.0762C71.1644 50.4217 71.3429 50.6206 71.742 50.5951C72.15 50.5741 72.5588 50.5741 72.9668 50.5951C74.153 50.6376 74.949 51.4094 74.9949 52.5884C75.0251 53.37 75.0026 54.1537 75.0026 54.9365C75.0026 55.2846 74.8895 55.5349 74.4853 55.5485C74.0646 55.563 73.9061 55.336 73.9039 54.9493C73.9039 54.7278 73.892 54.5068 73.898 54.2858C73.9677 51.7299 73.8665 51.6168 71.2711 51.6853C71.1011 51.6899 70.9311 51.6806 70.7611 51.6853C70.4211 51.6963 70.2604 51.5318 70.1495 51.2042C69.682 49.8212 69.2034 48.4417 68.6879 47.0766C68.3785 46.2567 68.3968 46.1148 69.141 45.6945C69.7925 45.3264 70.4478 44.9643 71.0896 44.5793C71.8928 44.0965 71.9855 43.7012 71.5171 42.9077C71.1975 42.3659 70.8958 41.8121 70.5566 41.283C70.093 40.5605 69.6743 40.4682 68.9319 40.8881C68.2213 41.2898 67.5153 41.6999 66.803 42.0981C66.293 42.3833 66.047 42.3068 65.6411 41.8979C64.6236 40.8741 63.5943 39.8613 62.5445 38.8707C62.1994 38.5451 62.1276 38.2281 62.3546 37.8345C62.7966 37.0695 63.25 36.31 63.6933 35.5455C64.0155 34.9896 63.998 34.6266 63.4672 34.2628C62.7218 33.7583 61.9429 33.3051 61.1361 32.9062C60.9351 32.8051 60.57 32.9113 60.3362 33.0316C60.1271 33.1391 59.9661 33.3792 59.8347 33.5922C59.4153 34.2722 58.9992 34.9556 58.6218 35.6594C58.3868 36.0984 58.0693 36.1417 57.6443 36.0283C56.153 35.6288 54.6612 35.2305 53.1639 34.854C52.8286 34.769 52.6539 34.6092 52.6493 34.27C52.6446 33.777 52.6493 33.2836 52.6493 32.7902L52.6331 32.7864Z" fill="black"/>
<path d="M50.9986 61.8773C50.9986 64.0043 50.9986 66.1315 50.9986 68.2591C50.9986 69.0186 50.8893 69.1248 50.1486 69.1138C43.547 69.0147 37.7738 64.511 36.0917 58.15C33.7329 49.2225 39.5916 40.5708 48.7567 39.4471C57.0684 38.4271 64.6538 44.6618 65.2735 53.0233C65.3015 53.396 65.3053 53.7704 65.3228 54.144C65.3436 54.6004 65.1205 54.7925 64.6725 54.7815C64.2135 54.7683 63.7537 54.7789 63.2942 54.7789H51.7568C51.0917 54.7789 50.9977 54.8754 50.9977 55.5495C50.998 57.6577 50.9983 59.767 50.9986 61.8773ZM49.9042 60.876C49.9042 58.7666 49.9042 56.6574 49.9042 54.5486C49.9042 53.7589 49.9811 53.6841 50.7882 53.6841C54.8193 53.6841 58.8504 53.6727 62.8816 53.6897C64.3776 53.696 64.2709 53.6425 64.0822 52.3029C63.2241 46.2114 58.1789 41.2954 52.0547 40.5529C45.9857 39.8177 39.9804 43.3753 37.6872 49.1124C34.0292 58.2618 40.7854 67.1817 49.1048 67.9297C49.8192 67.9939 49.9042 67.925 49.9042 67.2025C49.9042 65.0942 49.9042 62.9854 49.9042 60.876Z" fill="black"/>
<path d="M52.9943 64.466C52.9943 62.171 52.9943 59.8748 52.9943 57.5776C52.9943 56.8801 53.0946 56.7798 53.7942 56.7798C58.4037 56.7781 63.0131 56.7781 67.6224 56.7798C68.3266 56.7798 68.4274 56.8916 68.4214 57.6298C68.3649 64.9921 62.678 71.2766 55.3229 72.0968C54.7997 72.1555 54.2723 72.1865 53.7462 72.1976C53.121 72.2107 52.9965 72.0824 52.9952 71.4581C52.9915 69.1271 52.9912 66.7964 52.9943 64.466ZM54.1083 64.4825V70.1988C54.1083 71.0747 54.1678 71.1257 55.0598 71.0165C58.1952 70.6405 61.1097 69.2103 63.3255 66.9604C65.5413 64.7105 66.9268 61.7744 67.2548 58.6337C67.3232 57.9907 67.2263 57.8797 66.5778 57.8797C62.6482 57.8797 58.7184 57.8797 54.7883 57.8797C54.1975 57.8797 54.1083 57.9686 54.1083 58.5619C54.1068 60.5356 54.1068 62.5091 54.1083 64.4825Z" fill="black"/>
</svg>
