<svg width="109" height="113" viewBox="0 0 109 113" fill="none" xmlns="http://www.w3.org/2000/svg">
<ellipse cx="57.96" cy="50.97" rx="49.96" ry="49.97" fill="white"/>
<path d="M57.96 101.44C85.8284 101.44 108.42 78.8437 108.42 50.97C108.42 23.0963 85.8284 0.5 57.96 0.5C30.0916 0.5 7.5 23.0963 7.5 50.97C7.5 78.8437 30.0916 101.44 57.96 101.44Z" stroke="#2E3192" stroke-opacity="0.2" stroke-linejoin="round"/>
<circle opacity="0.6" cx="57.57" cy="50.57" r="44.57" fill="#C8DCFE"/>
<path d="M62.8353 75.3331H61.9411C61.9292 75.1636 61.9079 74.9989 61.9079 74.8341C61.9079 73.4018 61.8741 71.9689 61.9281 70.5384C61.9423 70.1574 62.1372 69.7153 62.3903 69.4243C63.0113 68.7132 63.7283 68.0821 64.3766 67.39C64.5408 67.2122 64.6777 66.9319 64.6795 66.6972C64.702 64.414 64.6966 62.1301 64.6907 59.8469C64.6907 59.195 64.1983 58.6267 63.5998 58.5432C63.0664 58.4679 62.8395 58.6534 62.8371 59.195C62.8318 60.7435 62.8371 62.2919 62.8371 63.8398V64.5046H61.9061V63.8048C61.9061 57.6509 61.9061 51.4968 61.9061 45.3426C61.9061 44.6409 61.5731 44.1224 61.0131 43.9363C60.3867 43.7283 59.7254 43.899 59.3681 44.4525C59.2039 44.7067 59.131 45.0629 59.131 45.3734C59.1144 48.6054 59.1203 51.8374 59.1203 55.0688V55.7153H58.1906C58.1906 54.7399 58.1906 53.7781 58.1906 52.8163C58.1906 52.0999 58.1141 52.0276 57.3852 52.0252C57.1725 52.0252 56.9592 52.0199 56.7464 52.0252C55.9375 52.0501 55.4107 52.5763 55.406 53.3823C55.3989 54.5817 55.406 55.7817 55.406 56.9817V57.5713H54.4744C54.4744 56.5989 54.4744 55.6371 54.4744 54.6753C54.4744 53.9571 54.398 53.8848 53.6709 53.8818C53.4581 53.8818 53.2448 53.8765 53.0326 53.8818C52.2214 53.9067 51.6946 54.4312 51.6898 55.2365C51.6827 56.4531 51.6898 57.6691 51.6898 58.923H50.7589C50.7589 58.0869 50.7624 57.2602 50.7589 56.4341C50.7553 55.8605 50.5894 55.7094 50.03 55.7426C48.9248 55.8083 47.982 56.7648 47.9778 57.8759C47.966 60.9139 47.9678 63.9521 47.9832 66.9906C47.9926 67.2373 48.0699 67.4766 48.2066 67.6821C50.1029 70.5716 49.8066 69.6969 49.8303 73.163C49.8356 73.9737 49.8303 74.7855 49.8303 75.6406H48.9011C48.9011 74.6925 48.8169 73.7195 48.9189 72.7695C49.1067 71.0196 48.6706 69.5203 47.5518 68.1538C47.23 67.7615 47.0741 67.1292 47.0646 66.603C47.0172 63.9138 47.0404 61.2235 47.0439 58.5337C47.0469 56.3535 48.1497 55.1168 50.3032 54.8116C50.5479 54.7772 50.8726 54.5953 50.9746 54.3897C51.5026 53.3272 52.4045 52.9414 53.4972 52.9675C54.1663 52.9852 54.5935 52.8383 54.9266 52.1971C55.3728 51.3349 56.2522 51.0931 57.1559 51.1085C58.3067 51.1281 58.1971 50.8762 58.1924 50.014C58.1835 48.3998 58.1888 48.4033 56.6966 47.8C56.3156 47.646 56.0116 47.6815 55.7035 47.9885C54.4881 49.1885 54.6883 49.1482 53.4818 47.9512C52.9485 47.4178 52.4235 46.8744 51.8771 46.3541C51.5079 46.0021 51.4415 45.643 51.8676 45.3355C52.7897 44.6753 52.875 43.9417 52.3198 42.9651C52.0478 42.4839 51.835 42.2267 51.2531 42.2362C49.8309 42.2605 49.8309 42.2326 49.8309 40.8335C49.8309 40.04 49.8249 39.2466 49.8309 38.4531C49.838 37.7882 50.0181 37.5298 50.6404 37.6181C51.7206 37.7704 52.2475 37.3509 52.5497 36.3269C52.7198 35.7515 52.7405 35.3823 52.2919 34.9455C51.3438 34.0235 51.3657 34.0009 52.3085 33.0587C52.8969 32.4709 53.4937 31.8925 54.0709 31.291C54.4199 30.9266 54.782 30.8395 55.0889 31.2691C55.7479 32.1846 56.4809 32.283 57.4593 31.7313C57.9334 31.4629 58.2095 31.262 58.1977 30.6694C58.1698 29.2377 58.1977 29.2371 59.6472 29.2371C60.4406 29.2371 61.2341 29.2288 62.027 29.2371C62.6415 29.246 62.8987 29.438 62.8158 30.0365C62.6676 31.1032 63.0682 31.6406 64.0958 31.9547C64.7061 32.1414 65.0812 32.1147 65.5221 31.6632C66.411 30.7518 66.4318 30.7743 67.3266 31.6661C67.9423 32.2818 68.5515 32.9046 69.1761 33.5109C69.5275 33.8522 69.5672 34.2072 69.1701 34.4875C68.2131 35.163 68.1663 35.9239 68.7198 36.9094C68.9829 37.3775 69.2045 37.6063 69.7556 37.5992C71.1956 37.5808 71.1962 37.6045 71.1962 39.0445C71.1962 39.838 71.2039 40.6315 71.1926 41.4249C71.1844 42.0424 70.9929 42.2996 70.3992 42.2202C69.3384 42.078 68.7737 42.4507 68.4798 43.496C68.3209 44.0614 68.2658 44.4389 68.7221 44.8809C69.6815 45.8107 69.6596 45.8338 68.7269 46.7678C68.1254 47.3704 67.5162 47.9654 66.923 48.5758C66.5852 48.9236 66.2315 48.9793 65.9464 48.5758C65.2721 47.6276 64.5183 47.5642 63.5263 48.12C63.0641 48.3796 62.8152 48.5692 62.8229 49.1316C62.8507 51.7052 62.8454 54.2795 62.8264 56.8531C62.8229 57.3592 63.0042 57.5743 63.4996 57.6572C64.8537 57.8854 65.6045 58.7678 65.6163 60.1461C65.6341 62.2747 65.6578 64.4045 65.5944 66.5313C65.5796 67.0226 65.3141 67.5772 65.0018 67.9725C64.4762 68.635 63.8303 69.2057 63.211 69.7894C62.9366 70.0478 62.8235 70.3156 62.8282 70.6966C62.8478 72.2279 62.8353 73.7556 62.8353 75.3331ZM58.1906 45.7301C58.1959 44.5349 58.1633 44.5716 57.2833 43.7929C55.8569 42.5307 55.1749 40.9485 55.5251 39.0249C55.9369 36.7683 57.7106 35.1482 60.0555 34.8353C61.9719 34.5793 64.155 35.8374 65.0646 37.7224C66.0187 39.6993 65.7123 42.1876 64.0063 43.4925C62.9165 44.3263 62.6842 45.1998 62.8347 46.382C62.8363 46.4017 62.8363 46.4215 62.8347 46.4412C62.8347 47.2282 63.1844 47.4789 63.8854 47.0961C64.6889 46.6569 65.3444 46.7583 65.9743 47.3882C66.2635 47.6774 66.5947 47.6638 66.8916 47.3793C67.2128 47.0718 67.5227 46.7518 67.8362 46.4365C68.2866 45.9838 68.3002 45.7396 67.8765 45.2691C67.3882 44.7263 67.2306 44.1491 67.6063 43.4718C67.7562 43.2017 67.8755 42.9156 67.9618 42.619C68.2161 41.736 68.7879 41.3005 69.7041 41.3153C70.0875 41.3206 70.267 41.1304 70.2641 40.7506C70.2605 40.2279 70.2492 39.7052 70.2676 39.1832C70.2836 38.718 70.0898 38.5242 69.6199 38.5206C68.8246 38.5147 68.2569 38.1651 68.0199 37.358C67.9453 37.0774 67.8346 36.8076 67.6904 36.5556C67.2163 35.7746 67.3349 35.099 67.9701 34.4685C68.2872 34.1538 68.2421 33.8166 67.9358 33.5103C67.6294 33.2039 67.2987 32.8886 66.9935 32.5651C66.6155 32.1639 66.2635 32.1467 65.8593 32.5443C65.3414 33.054 64.7488 33.2051 64.0679 32.8318C63.7815 32.6741 63.4794 32.5468 63.1666 32.4519C62.3038 32.1959 61.8972 31.6223 61.9079 30.7334C61.9126 30.3097 61.6928 30.1532 61.2928 30.1621C60.8092 30.1728 60.3245 30.1852 59.8421 30.1592C59.3289 30.1313 59.1115 30.3227 59.1067 30.8566C59.1008 31.5986 58.7666 32.1455 58.0122 32.3849C57.6782 32.4826 57.3559 32.6165 57.051 32.7843C56.3156 33.2122 55.6839 33.0635 55.1103 32.4987C54.7435 32.1372 54.4063 32.1805 54.0649 32.5283C53.7686 32.8323 53.4724 33.1393 53.1606 33.4297C52.7595 33.8048 52.7304 34.1592 53.1322 34.5627C53.6655 35.102 53.7924 35.7129 53.4012 36.4063C53.2513 36.6766 53.132 36.9628 53.0457 37.2596C52.7909 38.1206 52.2161 38.5325 51.3331 38.5236C50.91 38.5189 50.7488 38.7316 50.7571 39.134C50.7672 39.6175 50.779 40.1023 50.7571 40.5846C50.7304 41.0931 50.9106 41.3218 51.4492 41.3242C52.2196 41.3242 52.7689 41.6892 53.0001 42.4685C53.0799 42.7676 53.1978 43.0551 53.3509 43.3242C53.822 44.0946 53.6685 44.7512 53.0629 45.3609C52.7458 45.6798 52.7784 46.0092 53.083 46.3198C53.4214 46.6652 53.7657 47.0048 54.1082 47.3461C54.4175 47.6543 54.7375 47.6803 55.0688 47.3811C55.1281 47.3289 55.1796 47.2726 55.2389 47.2229C55.7396 46.8081 56.254 46.6694 56.8916 46.9793C57.9583 47.499 58.1953 47.3278 58.1953 46.1355L58.1906 45.7301ZM60.5307 35.7153C60.2232 35.7408 59.9097 35.7366 59.6086 35.7959C57.9938 36.1135 56.6925 37.4415 56.3844 39.0652C56.0525 40.811 56.7654 42.574 58.2214 43.4386C58.4584 43.5796 58.926 43.579 59.1601 43.4386C60.0685 42.8851 60.9378 42.8306 61.8143 43.4386C62.1906 43.6999 62.5189 43.6614 62.8762 43.4149C64.4258 42.344 65.0872 40.4288 64.5295 38.5965C64.0116 36.8922 62.3968 35.7366 60.5325 35.7153H60.5307Z" fill="black"/>
<path d="M72.1484 34.7575V33.8811C73.365 33.8811 74.5692 33.7798 75.7484 33.9054C77.4077 34.0832 78.7114 33.5949 79.915 32.4535C80.5295 31.8704 80.8566 31.4284 80.5763 30.5501C80.2433 29.506 81.0255 28.194 82.1318 27.6749C83.2578 27.1481 84.632 27.4527 85.3816 28.3943C86.2391 29.4698 86.2415 30.8269 85.3887 31.9143C84.6355 32.8743 83.2726 33.1795 82.0921 32.6094C81.5896 32.3658 81.1849 32.3895 80.7819 32.7872C80.5484 33.0159 80.2427 33.1735 80.021 33.4112C78.9099 34.5964 77.5713 35.0011 75.9564 34.837C74.7505 34.7143 73.5233 34.8091 72.3055 34.8055C72.2517 34.7946 72.1991 34.7786 72.1484 34.7575ZM83.2951 32.0215C84.4086 32.0215 85.1321 31.2867 85.1292 30.1584C85.1262 29.0301 84.4027 28.309 83.2815 28.3095C82.1295 28.3095 81.4136 29.0367 81.4178 30.2017C81.4219 31.3075 82.1633 32.0233 83.2951 32.0215Z" fill="black"/>
<path d="M48.8746 45.0285V45.9577H48.2624C46.6583 45.9577 45.0535 45.9417 43.4494 45.9719C43.1531 45.9773 42.8189 46.11 42.5747 46.2854C41.9312 46.7458 41.3415 47.281 40.7027 47.7491C40.2879 48.0519 40.2358 48.4063 40.3572 48.8614C40.8141 50.5746 39.9033 52.033 38.1522 52.4093C36.743 52.7115 35.1999 51.5381 35.002 49.9435C34.8835 49.0018 35.2604 48.177 35.9922 47.5856C36.8064 46.9284 37.7611 46.6374 38.7442 47.1512C39.4292 47.5067 39.9543 47.4303 40.4432 46.8893C41.8879 45.2922 43.6692 44.7417 45.7931 45.0072C46.7969 45.1334 47.8298 45.0285 48.8746 45.0285ZM37.7463 51.5293C38.8722 51.5293 39.6052 50.8075 39.6094 49.6922C39.6141 48.5367 38.8894 47.8131 37.7303 47.8155C36.6168 47.8155 35.8962 48.5509 35.8974 49.6804C35.8986 50.8098 36.6239 51.5293 37.7463 51.5293Z" fill="black"/>
<path d="M72.1523 45.9575V45.0283C73.6433 45.0283 75.1153 45.0959 76.5731 45.007C77.7512 44.9353 78.7254 45.1925 79.555 46.0511C79.9289 46.4375 80.4101 46.7166 80.8101 47.0805C81.2101 47.4443 81.6054 47.4953 82.0729 47.2322C83.6113 46.3706 85.5402 47.3851 85.9491 49.0443C86.2454 50.2402 85.6267 51.5658 84.4676 52.1258C83.3085 52.6858 81.8602 52.3812 81.136 51.3726C80.5926 50.6194 80.3177 49.8011 80.6655 48.8666C80.8433 48.3925 80.71 48.0245 80.2886 47.7146C79.5272 47.154 78.8706 46.3427 78.0249 46.0357C77.2202 45.7436 76.23 45.9599 75.3209 45.9575C74.2774 45.9551 73.2362 45.9575 72.1523 45.9575ZM85.1301 49.6938C85.1331 48.5596 84.419 47.8212 83.3103 47.8177C82.1452 47.8135 81.4187 48.5288 81.4187 49.6826C81.4187 50.8026 82.144 51.5273 83.2682 51.5297C84.3923 51.532 85.1254 50.8085 85.1283 49.6962L85.1301 49.6938Z" fill="black"/>
<path d="M48.891 33.8812V34.7672C48.7393 34.782 48.5947 34.8081 48.446 34.8081C46.7435 34.811 45.0403 34.8288 43.3384 34.7938C42.9799 34.7745 42.6343 34.6532 42.3423 34.4442C41.6045 33.9156 40.8958 33.3408 40.2066 32.7482C39.7918 32.3927 39.4054 32.3565 38.942 32.6113C37.3876 33.4682 35.4712 32.4235 35.0723 30.7832C34.7873 29.611 35.3876 28.2943 36.5159 27.7295C37.6774 27.1464 39.1233 27.4332 39.8629 28.4264C40.4175 29.1701 40.7097 29.9909 40.3755 30.9254C40.1977 31.4244 40.2824 31.8244 40.7523 32.123C40.9683 32.254 41.1656 32.4134 41.339 32.5971C42.3506 33.723 43.6003 34.0359 45.0806 33.9055C46.3257 33.7941 47.5867 33.8812 48.891 33.8812ZM37.7331 32.0205C38.8655 32.0205 39.6021 31.3058 39.6086 30.1965C39.6152 29.0344 38.8975 28.3073 37.742 28.3073C36.6249 28.3073 35.8972 29.0386 35.8966 30.1604C35.8961 31.2821 36.6172 32.0193 37.7331 32.0205Z" fill="black"/>
<path d="M47.0182 39.4552V40.3838H46.3699C43.7406 40.3838 41.1112 40.3968 38.4819 40.3731C37.9486 40.3678 37.641 40.5142 37.4229 41.0297C36.9489 42.1479 35.6671 42.8573 34.6271 42.6511C33.2143 42.3714 32.2662 41.3408 32.1945 40.0051C32.1305 38.8348 33.0703 37.6176 34.3047 37.2715C35.4265 36.9568 36.7906 37.486 37.2902 38.5853C37.6215 39.3154 38.054 39.4866 38.8019 39.4742C41.3145 39.4279 43.8283 39.457 46.342 39.457L47.0182 39.4552ZM36.8256 39.9293C36.8256 38.7992 36.1074 38.0674 34.9933 38.0656C33.8354 38.0656 33.1124 38.7856 33.1142 39.9423C33.1142 41.057 33.846 41.7794 34.9761 41.7794C36.0926 41.7764 36.8215 41.0481 36.8226 39.9275L36.8256 39.9293Z" fill="black"/>
<path d="M74.0098 40.3837V39.4551H74.6563C77.2637 39.4551 79.8764 39.4391 82.4862 39.467C83.0652 39.4729 83.3905 39.3206 83.6281 38.7559C84.0939 37.6471 85.397 36.9781 86.4536 37.2027C87.8581 37.5043 88.8157 38.5846 88.8352 39.8907C88.8524 41.0706 87.9404 42.2255 86.7227 42.5657C85.5967 42.8797 84.2385 42.3535 83.7372 41.2519C83.4047 40.5212 82.971 40.3523 82.2243 40.3666C79.7123 40.4128 77.1985 40.3837 74.6853 40.3837H74.0098ZM86.0518 41.7746C87.1778 41.7746 87.912 41.0546 87.9167 39.9375C87.9215 38.7814 87.1973 38.0572 86.0388 38.0596C84.9247 38.0596 84.2018 38.7944 84.2047 39.9227C84.2077 41.051 84.9307 41.7751 86.0518 41.7746Z" fill="black"/>
</svg>
