<svg width="102" height="102" viewBox="0 0 102 102" fill="none" xmlns="http://www.w3.org/2000/svg">
<ellipse cx="50.96" cy="50.97" rx="49.96" ry="49.97" fill="white"/>
<path d="M50.96 101.44C78.8284 101.44 101.42 78.8437 101.42 50.97C101.42 23.0963 78.8284 0.5 50.96 0.5C23.0916 0.5 0.5 23.0963 0.5 50.97C0.5 78.8437 23.0916 101.44 50.96 101.44Z" stroke="#2E3192" stroke-opacity="0.2" stroke-linejoin="round"/>
<circle opacity="0.6" cx="50.57" cy="50.57" r="44.57" fill="#C8DCFE"/>
<path d="M39.7272 49.9745C39.7272 48.3745 39.7272 46.7745 39.7272 45.1745C39.7272 44.3425 39.7367 44.332 40.5057 44.1125C41.9427 43.7025 43.3752 43.2755 44.8187 42.891C45.3022 42.762 45.4687 42.5255 45.4562 42.03C45.4247 40.8395 45.4427 39.6475 45.4477 38.456C45.4477 37.813 45.5937 37.662 46.2212 37.661C49.2512 37.6573 52.2809 37.6573 55.3102 37.661C55.9102 37.661 56.0602 37.8175 56.0657 38.423C56.0717 39.648 56.0857 40.873 56.0582 42.099C56.0477 42.567 56.2442 42.7615 56.6672 42.8765C58.1252 43.2765 59.5762 43.698 61.0297 44.1125C61.7542 44.319 61.7862 44.3625 61.7867 45.1455C61.7867 48.3965 61.7867 51.6475 61.7867 54.8985C61.7867 55.5985 61.8202 55.633 62.5002 55.633C64.9669 55.633 67.4349 55.633 69.9042 55.633C70.6447 55.633 70.8122 55.7695 70.7542 56.4875C70.6702 57.5375 70.5237 58.5815 70.4097 59.629C70.3597 60.073 70.1037 60.239 69.6812 60.2265C69.3582 60.2165 69.0347 60.2215 68.7112 60.2265C68.0382 60.234 67.5612 60.5765 67.3082 61.209C66.9266 62.153 66.5372 63.0941 66.1402 64.0325C65.8402 64.7375 65.9487 65.348 66.4902 65.897L66.5257 65.9335C67.6662 67.1105 67.6637 66.7385 66.6522 68.1255C65.4187 69.8185 63.8922 71.215 62.1892 72.432C61.7592 72.739 61.4692 72.701 61.1512 72.3215C60.9882 72.127 60.7937 71.958 60.6117 71.779C60.0517 71.229 59.4312 71.1325 58.6982 71.447C57.7782 71.8415 56.8482 72.22 55.9222 72.594C55.2907 72.8485 54.9477 73.323 54.9412 73.994C54.9382 74.2665 54.9412 74.539 54.9412 74.811C54.9377 75.511 54.8592 75.6025 54.1952 75.727C51.9147 76.1522 49.5751 76.1505 47.2952 75.722C46.6532 75.6035 46.5772 75.507 46.5717 74.8395C46.5717 74.7205 46.5717 74.601 46.5717 74.482C46.5717 73.136 46.3812 72.891 45.1357 72.432C44.3857 72.155 43.6567 71.832 42.9317 71.5C42.0667 71.105 41.4917 71.195 40.8107 71.8665C39.6957 72.9665 40.0072 72.902 38.7762 72.0165C37.0197 70.752 35.5697 69.1825 34.3262 67.413C34.0617 67.036 34.1052 66.778 34.4232 66.495C34.6392 66.303 34.8357 66.089 35.0387 65.883C35.5722 65.34 35.6687 64.725 35.3637 64.012C34.9701 63.0913 34.5867 62.1663 34.2137 61.237C33.9482 60.5755 33.4832 60.2345 32.7792 60.227H32.5742C30.9802 60.2425 31.2157 60.268 30.9742 58.8545C30.8372 58.0545 30.7992 57.2315 30.7542 56.417C30.7197 55.7905 30.8887 55.6375 31.5292 55.6365C34.0312 55.6328 36.5332 55.6328 39.0352 55.6365C39.6787 55.6365 39.7257 55.5865 39.7262 54.9305C39.7276 53.2768 39.7279 51.6248 39.7272 49.9745ZM34.9437 56.45C34.0072 56.45 33.0712 56.458 32.1352 56.4465C31.7197 56.4415 31.5352 56.6255 31.5722 57.0325C31.6222 57.591 31.7087 58.148 31.7292 58.7075C31.7497 59.2575 31.9947 59.4245 32.5292 59.42C33.7572 59.4095 34.5242 60.003 34.9512 61.1475C35.2472 61.942 35.5657 62.7315 35.9242 63.4975C36.5022 64.7365 36.4012 65.5755 35.4412 66.5475C35.0812 66.912 35.0847 67.225 35.3837 67.612C36.4531 69.0037 37.6966 70.2526 39.0837 71.328C39.6717 71.782 39.7937 71.772 40.3337 71.2625C41.2117 70.4325 42.0837 70.3125 43.1757 70.818C43.9147 71.1605 44.6647 71.485 45.4297 71.7625C46.8672 72.283 47.3497 72.9045 47.3842 74.438C47.3927 74.808 47.5252 74.9935 47.9037 75.0455C49.7433 75.2972 51.608 75.3057 53.4497 75.071C53.9617 75.0075 54.1427 74.814 54.1372 74.2955C54.1237 73.0165 54.7192 72.259 55.9302 71.817C56.7267 71.5265 57.5122 71.1995 58.2802 70.8425C59.4522 70.298 60.2992 70.418 61.2457 71.3245C61.6817 71.742 61.8632 71.758 62.3387 71.397C63.7212 70.3436 64.9605 69.1146 66.0252 67.741C66.5027 67.127 66.4927 67.012 65.9677 66.4515C65.1467 65.575 65.0297 64.7015 65.5432 63.6055C65.8667 62.9135 66.1787 62.2135 66.4382 61.496C67.0207 59.886 67.4932 59.5265 69.2222 59.389C69.4077 59.374 69.6962 59.139 69.7272 58.9705C69.8457 58.3205 69.8832 57.655 69.9402 56.9945C69.9737 56.6065 69.7762 56.4445 69.3902 56.4445C67.5182 56.4498 65.6462 56.4498 63.7742 56.4445C63.3907 56.4445 63.2417 56.611 63.1992 56.9865C63.1337 57.6115 63.0335 58.2325 62.8992 58.8465C61.5182 64.903 55.7147 69.0965 49.5647 68.4875C43.5942 67.899 38.8422 63.078 38.3147 57.0525C38.2752 56.6 38.0992 56.4345 37.6492 56.445C36.7492 56.4655 35.8452 56.45 34.9437 56.45ZM50.7642 56.45H39.8372C39.1412 56.45 39.0722 56.515 39.1162 57.2195C39.1339 57.5766 39.1784 57.9319 39.2492 58.2825C40.1812 62.624 42.7232 65.6765 46.8992 67.1C51.1077 68.533 55.0742 67.8195 58.4917 64.85C60.8112 62.833 62.1372 60.27 62.3977 57.1875C62.4532 56.5275 62.3597 56.455 61.6907 56.4545L50.7642 56.45ZM46.2642 47.055C46.2642 49.6916 46.2642 52.3281 46.2642 54.9645C46.2642 55.5755 46.3222 55.6305 46.9412 55.6325C47.3322 55.6325 47.7242 55.618 48.1147 55.637C48.5477 55.6575 48.7282 55.48 48.7197 55.0405C48.7027 54.122 48.7092 53.2035 48.7197 52.285C48.7247 51.7115 48.8787 51.556 49.4492 51.55C50.3159 51.542 51.1834 51.542 52.0517 51.55C52.6487 51.555 52.7962 51.7075 52.8017 52.3175C52.8077 53.2015 52.8017 54.0865 52.8017 54.971C52.8017 55.576 52.8612 55.6305 53.4852 55.6325C53.8592 55.6325 54.2352 55.613 54.6072 55.638C55.0952 55.6705 55.2602 55.465 55.2572 54.983C55.2462 49.693 55.2462 44.403 55.2572 39.113C55.2572 38.619 55.0677 38.466 54.5927 38.4685C52.0427 38.483 49.4897 38.475 46.9382 38.476C46.3207 38.476 46.2632 38.5325 46.2632 39.1455C46.2626 41.7818 46.2626 44.4186 46.2632 47.056L46.2642 47.055ZM56.0687 49.636C56.0687 51.4215 56.0797 53.2075 56.0612 54.9925C56.0562 55.484 56.2447 55.648 56.7227 55.6425C57.9467 55.6215 59.1727 55.6275 60.3957 55.6395C60.8042 55.6435 60.9757 55.4835 60.9747 55.069C60.9674 51.838 60.9674 48.607 60.9747 45.376C60.9747 45.026 60.8342 44.826 60.5247 44.7385C59.2992 44.385 58.0792 44.026 56.8492 43.7C56.2762 43.55 56.0682 43.739 56.0677 44.332C56.0667 46.1003 56.0667 47.8686 56.0677 49.637L56.0687 49.636ZM45.4472 49.655C45.4472 47.9033 45.4472 46.152 45.4472 44.401C45.4472 43.696 45.2352 43.5335 44.5352 43.729C43.3747 44.053 42.2182 44.3905 41.0592 44.7195C40.7092 44.8195 40.5352 45.006 40.5372 45.4075C40.5512 48.6045 40.5512 51.8011 40.5372 54.9975C40.5372 55.4935 40.7307 55.6475 41.2037 55.64C42.3932 55.619 43.5837 55.634 44.7742 55.6325C45.3892 55.6325 45.4457 55.5755 45.4462 54.96C45.4482 53.1926 45.4482 51.4246 45.4462 49.656L45.4472 49.655ZM51.9832 54.0415C51.9832 53.651 51.9797 53.2605 51.9832 52.87C51.9872 52.539 51.8437 52.362 51.5002 52.3645C51.0076 52.3675 50.5151 52.3675 50.0227 52.3645C49.6857 52.3645 49.5297 52.5275 49.5307 52.861C49.5332 53.6255 49.5047 54.3915 49.5522 55.1525C49.5627 55.321 49.8217 55.59 49.9907 55.611C50.4966 55.672 51.0079 55.672 51.5137 55.611C51.6852 55.59 51.9257 55.3385 51.9637 55.161C52.0317 54.8 51.9817 54.4165 51.9822 54.0425L51.9832 54.0415Z" fill="black"/>
<path d="M35.6406 50.7136H34.8246V50.1556C34.8246 48.5401 34.8151 46.9246 34.8321 45.3091C34.8361 44.9501 34.7016 44.7371 34.3966 44.5871C33.7566 44.2716 33.1216 43.9471 32.4836 43.6276C32.1276 43.4491 31.8286 43.5136 31.4991 43.7541C30.1191 44.7616 28.4566 43.7801 28.3016 42.2341C28.2231 41.4486 28.8416 40.5866 29.6651 40.2731C30.4471 39.9756 31.4456 40.2261 31.8856 40.9271C32.1281 41.3131 32.2766 41.7931 32.3356 42.2476C32.3856 42.6191 32.5091 42.8386 32.8261 42.9951C33.6176 43.3861 34.4181 43.7626 35.1846 44.1986C35.3921 44.3166 35.6166 44.6226 35.6206 44.8486C35.6551 46.7826 35.6406 48.7201 35.6406 50.7136ZM30.3406 43.3766C31.1076 43.3766 31.5601 42.9111 31.5571 42.1311C31.5536 41.3906 31.0926 40.9311 30.3501 40.9281C29.5691 40.9246 29.1101 41.3781 29.1096 42.1476C29.1061 42.9276 29.5581 43.3786 30.3381 43.3766H30.3406Z" fill="black"/>
<path d="M66.6904 50.7091H65.8734V50.2416C65.8734 48.5241 65.8859 46.8071 65.8654 45.0916C65.8599 44.6096 65.9924 44.3041 66.4619 44.1006C67.1924 43.7826 67.8899 43.3891 68.6084 43.0421C68.9754 42.8646 69.1689 42.6396 69.1694 42.1861C69.1694 41.0751 70.1049 40.1431 71.1634 40.1226C72.1519 40.1036 73.1474 40.9986 73.1959 42.0431C73.2294 42.7741 72.9204 43.4016 72.2809 43.8156C71.5704 44.2756 70.8164 44.3336 70.1379 43.8206C69.6379 43.4446 69.2319 43.4921 68.7429 43.7706C68.2429 44.0556 67.7194 44.3056 67.1964 44.5486C66.8319 44.7181 66.6759 44.9546 66.6809 45.3771C66.7034 47.1391 66.6904 48.9046 66.6904 50.7091ZM72.4074 42.1731C72.4114 41.3921 71.9574 40.9296 71.1919 40.9281C70.4359 40.9281 69.9684 41.3731 69.9604 42.1056C69.9509 42.9001 70.3924 43.3696 71.1509 43.3766C71.9369 43.3836 72.4039 42.9366 72.4074 42.1731Z" fill="black"/>
<path d="M42.1788 41.7211H41.3618C41.3618 40.4286 41.3038 39.1551 41.3808 37.8891C41.4378 36.9511 41.1768 36.2711 40.4683 35.6306C39.9233 35.1376 39.4863 34.8776 38.7373 35.1401C38.0373 35.3856 37.0753 34.7901 36.7048 34.0256C36.3143 33.2191 36.5128 32.2256 37.1773 31.6626C37.8998 31.0501 38.8298 30.9951 39.6273 31.5176C40.3498 31.9901 40.6703 32.8841 40.3998 33.7501C40.2698 34.1666 40.2878 34.5186 40.6658 34.7846C41.9618 35.6941 42.3808 36.9246 42.2013 38.4846C42.0803 39.5361 42.1788 40.6156 42.1788 41.7211ZM39.7253 33.1406C39.7218 32.3786 39.2538 31.9331 38.4648 31.9406C37.7258 31.9476 37.2783 32.4086 37.2778 33.1631C37.2778 33.9416 37.7308 34.3916 38.5118 34.3891C39.2763 34.3866 39.7293 33.9206 39.7253 33.1406Z" fill="black"/>
<path d="M59.3366 41.7114C59.3366 40.6684 59.4276 39.6254 59.3156 38.6039C59.1386 36.9854 59.5246 35.6669 60.9111 34.7209C61.2496 34.4899 61.2296 34.1569 61.1336 33.8094C60.7806 32.5334 61.3941 31.4959 62.6786 31.1924C63.7176 30.9469 64.8046 31.7629 65.0171 32.9479C65.2296 34.1329 63.8671 35.4689 62.7146 35.1229C62.0211 34.9149 61.6196 35.1229 61.1101 35.5729C60.3571 36.2389 60.0601 36.9594 60.1326 37.9614C60.2191 39.1614 60.1501 40.3769 60.1471 41.5849C60.1396 41.6284 60.1275 41.671 60.1111 41.7119L59.3366 41.7114ZM64.2366 33.1529C64.2366 32.3864 63.7711 31.9369 62.9866 31.9419C62.2221 31.9469 61.7811 32.4109 61.7866 33.2034C61.7926 33.9424 62.2531 34.3889 63.0096 34.3894C63.7871 34.3899 64.2386 33.9339 64.2361 33.1529H64.2366Z" fill="black"/>
<path d="M51.1667 36.0049H50.3507V35.4549C50.3507 33.9049 50.3412 32.3584 50.3577 30.8104C50.3617 30.4424 50.2577 30.2184 49.9142 30.0484C49.1302 29.6574 48.6322 28.7794 48.7442 28.0709C48.8972 27.0999 49.5857 26.3999 50.5472 26.2409C51.3402 26.1099 52.2972 26.7199 52.6277 27.5669C52.9582 28.4139 52.6727 29.4779 51.8747 29.8749C51.2557 30.1834 51.1387 30.5824 51.1537 31.2039C51.1927 32.7839 51.1667 34.3654 51.1667 36.0049ZM51.9817 28.2549C51.9817 27.4839 51.5207 27.0344 50.7382 27.0389C49.9732 27.0429 49.5292 27.5064 49.5347 28.2954C49.5402 29.0364 49.9987 29.4849 50.7527 29.4864C51.5307 29.4884 51.9827 29.0354 51.9817 28.2559V28.2549Z" fill="black"/>
<path d="M35.6246 53.2224V53.9694H34.8496V53.2224H35.6246Z" fill="black"/>
<path d="M65.9141 53.1919H66.6506V53.9654H65.9141V53.1919Z" fill="black"/>
<path d="M48.7363 42.5366V41.7776H52.7708V42.5366H48.7363Z" fill="black"/>
<path d="M48.7441 45.0371H52.7596V45.7966H48.7441V45.0371Z" fill="black"/>
<path d="M48.7363 49.0629V48.3069H52.7773V49.0629H48.7363Z" fill="black"/>
<path d="M57.7266 46.6665H59.3036V47.4355H57.7266V46.6665Z" fill="black"/>
<path d="M57.7266 50.704V49.95H59.3036V50.703L57.7266 50.704Z" fill="black"/>
<path d="M43.7838 47.4384H42.2188V46.6799H43.7838V47.4384Z" fill="black"/>
<path d="M42.209 49.9395H43.774V50.7H42.209V49.9395Z" fill="black"/>
</svg>
