<svg width="102" height="103" viewBox="0 0 102 103" fill="none" xmlns="http://www.w3.org/2000/svg">
<ellipse cx="50.96" cy="51.5691" rx="49.96" ry="49.97" fill="white"/>
<path d="M50.96 102.039C78.8284 102.039 101.42 79.4428 101.42 51.5691C101.42 23.6954 78.8284 1.09912 50.96 1.09912C23.0916 1.09912 0.5 23.6954 0.5 51.5691C0.5 79.4428 23.0916 102.039 50.96 102.039Z" stroke="#2E3192" stroke-opacity="0.2" stroke-linejoin="round"/>
<circle opacity="0.6" cx="50.57" cy="51.1691" r="44.57" fill="#C8DCFE"/>
<path d="M44.0215 52.7393H45.039C45.0719 52.8003 45.1137 52.8764 45.1514 52.9483C45.7279 54.1095 46.4432 55.1964 47.2816 56.1851C47.5447 56.4962 47.8352 56.7771 48.223 56.9388C48.4608 57.0393 48.7197 57.0796 48.9767 57.056C49.0449 57.0493 49.1098 57.0234 49.1638 56.9813C49.4236 56.775 49.5965 56.4786 49.6482 56.1509C49.6796 55.9665 49.697 55.7801 49.7003 55.5931C49.7003 55.0162 49.6811 54.4386 49.6722 53.8617C49.6633 53.2573 49.7167 52.6612 49.9353 52.0912C50.1204 51.6175 50.4309 51.2032 50.8336 50.8928C51.5489 50.3165 52.2787 49.7513 52.9097 49.077C52.9593 49.0176 53.005 48.9551 53.0467 48.89L53.1022 48.9242C53.1091 48.9871 53.1091 49.0505 53.1022 49.1133C52.8796 50.0692 52.428 50.8859 51.6421 51.4971C51.538 51.5786 51.4324 51.6588 51.3283 51.741C50.8672 52.1028 50.6959 52.6003 50.6911 53.1628C50.6861 53.7082 50.6938 54.2541 50.7144 54.8004C50.7356 55.3732 50.7144 55.9426 50.5417 56.49C50.446 56.7613 50.3266 57.0236 50.1847 57.2739C50.0754 57.4734 49.9178 57.6423 49.7263 57.7652C49.5763 57.8638 49.429 57.9817 49.4756 58.1975C49.4877 58.2716 49.5165 58.3418 49.5598 58.4031C49.6253 58.48 49.6996 58.549 49.7812 58.6086C51.9484 60.3427 54.527 61.4874 57.2668 61.9318C58.8084 62.1878 60.378 62.2286 61.9309 62.0531C65.5852 61.642 68.7503 60.1677 71.4262 57.6302C73.1432 56.0036 74.4745 54.1104 75.3735 51.9178C76.019 50.3588 76.4122 48.7069 76.5383 47.0242C76.6374 45.7477 76.6037 44.4643 76.4376 43.1947C76.431 43.1089 76.3985 43.027 76.3444 42.96C76.2903 42.893 76.2173 42.8439 76.1347 42.8192C75.6987 42.6697 75.2871 42.4569 74.9131 42.1875C74.7164 42.0505 74.5074 41.9244 74.2457 41.9415C74.2033 41.9397 74.1611 41.9477 74.1223 41.9649C74.0835 41.9821 74.0493 42.0081 74.0223 42.0409C73.9223 42.1704 73.8168 42.2958 73.7277 42.4321C73.4317 42.8884 73.0041 43.131 72.4772 43.2084C72.3466 43.2262 72.2139 43.2221 72.0846 43.1961C71.4399 43.0741 70.8999 42.7911 70.5368 42.2115C70.1541 41.6019 69.9132 40.9142 69.8317 40.1991C69.7919 39.9458 69.7267 39.6972 69.6371 39.457C69.5982 39.3459 69.5367 39.2441 69.4563 39.1579C69.376 39.0718 69.2787 39.0034 69.1705 38.9568C69.002 38.8774 68.8231 38.8198 68.6498 38.7513C68.4408 38.667 68.2298 38.5862 68.0256 38.4916C67.683 38.3333 67.4719 38.0551 67.3322 37.7071C67.1924 37.359 67.1479 36.9828 67.1266 36.6108C67.1279 36.5445 67.112 36.479 67.0806 36.4207C67.0491 36.3624 67.0031 36.3131 66.9471 36.2778C66.8609 36.2272 66.7644 36.1965 66.6648 36.188C66.2462 36.1517 65.8426 36.188 65.4664 36.4114C65.2609 36.5347 65.043 36.6443 64.8326 36.7629C64.3146 37.0541 63.7891 37.3254 63.1882 37.4172C62.9063 37.4663 62.6171 37.4521 62.3414 37.3758C62.0656 37.2995 61.8103 37.1629 61.5937 36.976C61.4115 36.8218 61.2888 36.5841 61.1751 36.3655C61.0792 36.1609 61.0013 35.9484 60.9421 35.7303C60.8681 35.4932 60.7318 35.3493 60.4728 35.3117C60.1562 35.2621 59.8503 35.159 59.5683 35.0068C59.2699 34.8626 59.0313 34.6185 58.8941 34.3168C58.7776 34.0427 58.6886 33.7625 58.5967 33.4822C58.5602 33.363 58.5316 33.2414 58.5111 33.1184C58.3919 32.477 57.941 32.0474 57.2257 32.0091C56.8146 31.9871 56.4 31.9844 55.9876 31.9659C55.6365 31.9497 55.29 31.8804 54.9598 31.7603C54.7338 31.6841 54.5297 31.5541 54.3651 31.3815C54.2005 31.2089 54.0803 30.9989 54.0149 30.7696C53.9951 30.6867 53.964 30.6069 53.9224 30.5325C53.795 30.3406 53.5586 30.2906 53.2968 30.4146C52.8535 30.6257 52.4171 30.8511 51.9785 31.071C51.9025 31.1094 51.8285 31.1512 51.7504 31.193L50.9377 30.59C51.033 30.5318 51.1042 30.4866 51.1762 30.4448C53.1259 29.3031 55.2753 28.5433 57.5094 28.2063C58.6582 28.0239 59.8236 27.9681 60.9846 28.0398C64.6161 28.2885 67.8947 29.4965 70.7828 31.7206C74.0374 34.2298 76.0834 37.5344 77.0865 41.4996C77.4437 42.8758 77.6136 44.2939 77.5914 45.7155C77.5079 49.6786 76.2697 53.2526 73.8401 56.3838C71.3049 59.6515 67.9673 61.6892 63.9686 62.6684C62.5512 63.0226 61.0918 63.1803 59.6314 63.137C56.3288 63.0423 53.1181 62.0284 50.3601 60.2092C49.0537 59.3657 47.8721 58.343 46.8499 57.1711C45.7384 55.8907 44.8119 54.4607 44.0975 52.923C44.0756 52.8771 44.0578 52.827 44.0215 52.7393ZM59.937 29.0073C59.6629 29.0189 59.2717 29.0306 58.8825 29.0518C57.6512 29.1232 56.4325 29.338 55.251 29.6918C55.0845 29.7411 54.9207 29.8172 54.8906 29.985C54.8529 30.1906 54.831 30.4229 54.9831 30.6127C55.1352 30.8025 55.3209 30.9326 55.5764 30.9402C55.7477 30.9457 55.919 30.9662 56.0897 30.9744C56.4864 30.9929 56.8858 30.9861 57.2791 31.0299C57.6927 31.069 58.0922 31.2006 58.4481 31.415C59.0346 31.7802 59.3258 32.3469 59.4847 32.9957C59.5368 33.2075 59.5622 33.4267 59.6279 33.6336C59.7417 33.9927 59.9829 34.2325 60.3618 34.3099C60.5221 34.3428 60.6852 34.3586 60.8462 34.3887C61.2046 34.4572 61.4855 34.6347 61.639 34.9759C61.7411 35.2027 61.8281 35.4364 61.9199 35.668C61.9665 35.7838 62.0014 35.9043 62.0569 36.0153C62.0974 36.1091 62.1587 36.1923 62.2363 36.2587C62.3138 36.3251 62.4055 36.3729 62.5044 36.3984C62.8586 36.4785 63.2183 36.4998 63.5595 36.3449C63.8425 36.2161 64.1166 36.066 64.3941 35.9242C64.7408 35.7468 65.0793 35.5556 65.4342 35.3911C65.9547 35.1458 66.5505 35.1136 67.0944 35.3014C67.6939 35.4912 68.0071 35.892 68.1099 36.4881C68.1318 36.6176 68.1345 36.7512 68.1475 36.8828C68.1606 37.0143 68.1749 37.1301 68.1873 37.2542C68.2085 37.472 68.3442 37.6077 68.5299 37.6927C68.6857 37.7613 68.8459 37.8194 69.0095 37.8667C69.3724 37.9665 69.7109 38.1395 70.0044 38.3751C70.1239 38.4741 70.227 38.5914 70.31 38.7225C70.5976 39.189 70.7735 39.7157 70.8239 40.2614C70.8739 40.7753 71.0205 41.2584 71.3295 41.6757C71.458 41.841 71.6091 41.9875 71.7783 42.1108C71.9709 42.2567 72.2107 42.2122 72.4361 42.219C72.4944 42.2246 72.5532 42.2155 72.6072 42.1927C72.6611 42.1698 72.7085 42.1339 72.7451 42.0881C72.8911 41.9059 73.0398 41.7264 73.1795 41.54C73.5646 41.024 74.1779 40.8377 74.776 41.0652C74.9131 41.1179 75.046 41.1864 75.1796 41.2508C75.2358 41.2776 75.2858 41.3194 75.3434 41.3413C75.6209 41.4495 75.9751 41.3529 75.9223 40.9706C75.9099 40.8474 75.887 40.7254 75.8538 40.6061C74.8617 37.4138 73.0322 34.782 70.4525 32.6785C67.4288 30.2139 63.9446 29.0258 59.937 29.0073Z" fill="black"/>
<path d="M41.0908 59.6439C40.605 59.7125 40.1185 59.7734 39.6334 59.8426C38.506 60.0043 37.3796 60.1674 36.254 60.3319L32.8514 60.8272L29.8195 61.2671L27.3665 61.6234C27.1171 61.6604 26.9026 61.5549 26.806 61.3439C26.7779 61.2902 26.7612 61.2312 26.757 61.1707C26.7528 61.1102 26.7612 61.0495 26.7816 60.9925C26.802 60.9354 26.834 60.8831 26.8756 60.839C26.9172 60.7949 26.9674 60.7599 27.0232 60.7361C27.1759 60.6784 27.3352 60.6398 27.4974 60.621C29.2021 60.3702 30.9071 60.122 32.6123 59.8762C34.2786 59.6359 35.9459 59.3959 37.6141 59.1561C38.694 58.9992 39.7725 58.8279 40.8537 58.684C41.2497 58.6312 41.6471 58.7025 42.0315 58.8149C42.517 58.9635 42.9722 59.1974 43.3758 59.5055C46.0152 61.4473 48.6561 63.3866 51.2986 65.3234C52.0523 65.8771 52.8204 66.4142 53.5728 66.9679C54.5772 67.712 55.1528 68.713 55.307 69.9539C55.3234 70.0848 55.307 70.2184 55.3145 70.3513C55.3207 70.5432 55.4454 70.6802 55.6331 70.672C55.7718 70.6675 55.9088 70.6404 56.0388 70.5918C59.1495 69.3631 62.2589 68.1316 65.3669 66.8973C65.791 66.7294 66.2268 66.6006 66.6879 66.6493C68.3104 66.8206 69.3985 67.8963 69.4773 69.5202C69.5095 70.1903 69.2594 70.8042 68.8908 71.3647C68.5221 71.9252 68 72.2712 67.3875 72.5035C66.1921 72.9571 64.9959 73.4084 63.7992 73.8574L49.9043 79.097C49.8968 79.097 49.8892 79.1011 49.8817 79.1046C49.091 79.4417 48.366 79.2861 47.7069 78.7839C44.0955 76.0322 40.4869 73.2775 36.881 70.5199C36.6754 70.3637 36.4582 70.2259 36.2527 70.0711C35.8785 69.7895 35.4578 69.7381 35.009 69.797C33.8182 69.9532 32.6276 70.1083 31.4372 70.2622C30.1764 70.4267 28.9162 70.5918 27.6563 70.7576C27.5255 70.7748 27.3939 70.8015 27.2623 70.8063C27.1683 70.8167 27.0733 70.8001 26.9884 70.7585C26.9034 70.7169 26.8321 70.6519 26.7827 70.5713C26.7301 70.4927 26.7037 70.3994 26.7074 70.3048C26.7111 70.2103 26.7446 70.1193 26.8033 70.045C26.9054 69.897 27.0636 69.8539 27.2274 69.8313C27.683 69.7682 28.1394 69.7086 28.5978 69.649L31.3344 69.2934C32.2315 69.1769 33.1287 69.0611 34.0258 68.946C34.3191 68.9076 34.6171 68.8878 34.9063 68.8282C35.4133 68.724 35.8806 68.8282 36.3349 69.0454C36.8145 69.2701 37.2338 69.5771 37.6497 69.8943C41.1839 72.5935 44.7161 75.2952 48.2461 77.9994C48.6908 78.342 49.1485 78.3694 49.6295 78.1892C55.4454 76.0043 61.2592 73.8136 67.0709 71.6169C67.7828 71.3476 68.2878 70.8447 68.4413 70.0814C68.5033 69.7439 68.5033 69.3979 68.4413 69.0604C68.3132 68.3184 67.5231 67.6825 66.7509 67.6407C66.3373 67.6162 65.9233 67.6836 65.5388 67.8381C61.8603 69.3053 58.179 70.767 54.495 72.2232C54.366 72.2743 54.2448 72.3436 54.1353 72.4288C53.5819 72.8819 52.9072 73.162 52.1955 73.2339C51.5412 73.2969 50.9081 73.1654 50.3661 72.7899C48.2256 71.3181 46.0974 69.8285 43.9658 68.3444C43.7027 68.1615 43.6383 67.9333 43.7726 67.6825C43.8249 67.5812 43.9142 67.5039 44.022 67.4665C44.1297 67.4291 44.2477 67.4346 44.3515 67.4818C44.4496 67.5294 44.5432 67.5858 44.6311 67.6503C46.6812 69.0746 48.7299 70.5009 50.7772 71.9293C51.0174 72.1064 51.3021 72.2133 51.5994 72.2383C52.0448 72.2712 52.4902 72.2767 52.9088 72.0828C53.4481 71.8408 53.8848 71.4165 54.1422 70.8844C54.4018 70.3506 54.3553 69.7881 54.1655 69.2441C53.9318 68.5705 53.4556 68.0745 52.8979 67.6585C52.1791 67.1234 51.4418 66.6109 50.719 66.0826C48.0509 64.1271 45.3855 62.1682 42.7229 60.2058C42.2302 59.8447 41.7081 59.6391 41.0908 59.6439Z" fill="black"/>
<path d="M34.617 40.5238C34.6554 37.0794 36.726 32.8394 41.6388 31.4012C41.7758 31.3615 41.9129 31.3327 42.0458 31.2937C42.3672 31.1984 42.4528 30.8668 42.2212 30.6222C42.2102 30.6112 42.1986 30.6009 42.1883 30.5893C41.9142 30.2796 41.9478 30.0864 42.1822 29.8054C42.311 29.6506 42.4692 29.5197 42.6111 29.3752C42.7872 29.1963 42.7755 28.938 42.5782 28.7921C42.5227 28.7522 42.4553 28.7324 42.387 28.7359C42.1466 28.7546 41.9075 28.7875 41.671 28.8345C39.4312 29.3204 37.3762 30.4341 35.7462 32.0453C34.53 33.2321 33.5625 34.5874 32.9239 36.1647C32.7081 36.697 32.5539 37.2555 32.3758 37.8029C32.3196 37.9729 32.2819 38.1455 32.0983 38.2408C32.0166 38.2882 31.9219 38.3084 31.828 38.2985C31.734 38.2887 31.6456 38.2493 31.5755 38.1859C31.5024 38.1324 31.4478 38.0575 31.4191 37.9716C31.3904 37.8857 31.389 37.793 31.4152 37.7063C31.5316 37.3103 31.6406 36.9108 31.7776 36.5216C32.4356 34.6189 33.5176 32.8907 34.9418 31.4677C36.4245 29.9918 38.1793 28.9387 40.1609 28.2658C40.982 27.9918 41.8261 27.7923 42.683 27.6697C42.9571 27.6286 43.0791 27.4765 43.0407 27.2065C43.0248 27.1324 42.9871 27.0646 42.9324 27.0119C42.7091 26.7838 42.4754 26.5645 42.2514 26.337C42.1802 26.2653 42.1191 26.1841 42.0698 26.0959C42.0193 26.0074 41.9994 25.9048 42.0131 25.8039C42.0268 25.703 42.0734 25.6094 42.1456 25.5377C42.2178 25.4659 42.3117 25.4199 42.4127 25.4069C42.5137 25.3938 42.6162 25.4144 42.7043 25.4655C42.7991 25.5194 42.8864 25.5855 42.964 25.6621C43.6035 26.2893 44.243 26.9181 44.8825 27.5484L44.8996 27.5642C45.2422 27.9198 45.247 28.1596 44.8996 28.507C44.2713 29.136 43.6334 29.7561 42.9962 30.3762C42.8906 30.479 42.818 30.5818 42.8345 30.74C42.8536 30.9333 42.9797 31.071 43.177 31.0676C43.3744 31.0641 43.5813 31.0388 43.7834 31.0299C45.4127 30.9553 47.0336 31.3035 48.4886 32.0405C51.3438 33.463 53.0238 35.7899 53.6871 38.8814C54.3661 42.0449 53.102 45.501 50.8854 47.597C49.4121 49.0048 47.529 49.9071 45.5087 50.1733C42.9126 50.535 40.5754 49.8485 38.4767 48.3233C36.5527 46.9227 35.4105 44.9953 34.8589 42.7013C34.69 41.988 34.6088 41.2568 34.617 40.5238ZM43.7416 48.2924C43.7416 48.0972 43.7368 47.9019 43.7416 47.7073C43.7441 47.6064 43.7602 47.5064 43.7896 47.4099C43.8135 47.3092 43.8705 47.2193 43.9516 47.1549C44.0326 47.0904 44.133 47.0551 44.2365 47.0546C44.3401 47.054 44.4408 47.0883 44.5225 47.1518C44.6043 47.2154 44.6622 47.3046 44.6872 47.4051C44.7204 47.5163 44.7374 47.6317 44.7379 47.7477C44.7441 48.1458 44.7379 48.5432 44.7413 48.9413C44.7405 48.9857 44.7486 49.0297 44.7652 49.0709C44.7817 49.112 44.8064 49.1494 44.8378 49.1808C44.8691 49.2122 44.9064 49.237 44.9475 49.2536C44.9887 49.2703 45.0327 49.2785 45.0771 49.2777C45.1703 49.2845 45.264 49.2813 45.3566 49.2681C45.8301 49.1743 46.3111 49.1023 46.7736 48.9687C48.1988 48.5576 49.404 47.7799 50.4421 46.722C51.4508 45.7119 52.1868 44.4625 52.5812 43.0905C52.7183 42.6033 52.8347 42.1086 52.8471 41.5975C52.8553 41.2734 52.7573 41.1768 52.4401 41.1761C52.0728 41.1761 51.7062 41.1802 51.3397 41.1761C51.2237 41.1745 51.1085 41.1575 50.9971 41.1254C50.7785 41.061 50.6202 40.8609 50.6373 40.6636C50.638 40.5566 50.6754 40.4531 50.7432 40.3704C50.8111 40.2877 50.9053 40.2308 51.0101 40.2093C51.123 40.1792 51.2392 40.1633 51.3561 40.162C51.7227 40.1565 52.0893 40.162 52.4524 40.162C52.7546 40.162 52.8594 40.0606 52.8457 39.7509C52.8366 39.5327 52.8137 39.3153 52.7772 39.1C52.2119 35.7611 49.5568 33.1444 46.6948 32.342C46.1761 32.1967 45.6519 32.0762 45.11 32.0624C44.8695 32.0563 44.7413 32.1906 44.74 32.4324C44.74 32.8223 44.7434 33.2129 44.74 33.6027C44.736 33.7186 44.7183 33.8336 44.6872 33.9453C44.629 34.1625 44.4542 34.2537 44.2528 34.2838C44.0815 34.3085 43.8615 34.1427 43.7985 33.9453C43.763 33.8264 43.7448 33.7029 43.7444 33.5788C43.7375 33.1889 43.7444 32.7983 43.7403 32.4085C43.7403 32.1967 43.6032 32.0494 43.3936 32.0659C43.0982 32.0831 42.8042 32.1184 42.5131 32.1714C40.7508 32.514 39.2626 33.3588 38.0135 34.6429C37.0312 35.6339 36.3107 36.8535 35.9168 38.1921C35.7533 38.7133 35.6555 39.2528 35.6256 39.7982C35.6167 40.0325 35.7462 40.1593 35.9771 40.1607C36.3595 40.1607 36.7418 40.1565 37.1234 40.1641C37.2554 40.1685 37.3864 40.1892 37.5133 40.2257C37.7285 40.2854 37.8244 40.456 37.8497 40.6608C37.8717 40.8383 37.7127 41.0555 37.5119 41.1179C37.3931 41.1546 37.2697 41.1745 37.1454 41.1768C36.7637 41.1843 36.3814 41.1768 35.999 41.1802C35.7503 41.1802 35.6297 41.3008 35.6311 41.5502C35.6441 41.9715 35.7078 42.3898 35.8209 42.7959C36.1991 44.3163 36.9528 45.6202 38.0491 46.7343C39.1769 47.8806 40.5007 48.6748 42.0602 49.0701C42.4905 49.1791 42.9263 49.2757 43.3737 49.2757C43.6025 49.2757 43.7348 49.1462 43.7382 48.9221C43.7437 48.7138 43.7416 48.5035 43.7416 48.2924Z" fill="black"/>
<path d="M57.2051 47.1454C57.2238 46.6402 57.3426 46.1437 57.5545 45.6846C57.6442 45.5015 57.6707 45.2938 57.6299 45.094C57.597 44.9186 57.5497 44.7452 57.5038 44.5719C57.4428 44.3389 57.3668 44.1087 57.3154 43.873C57.1852 43.2687 57.4812 42.7959 58.0773 42.6205C58.3376 42.5345 58.6187 42.5345 58.879 42.6205C58.9893 42.6607 59.1075 42.6743 59.224 42.6602C59.3406 42.6462 59.4522 42.6049 59.5498 42.5396C59.8214 42.3689 60.1241 42.2536 60.4405 42.2005C60.9147 42.1169 61.3045 42.269 61.5875 42.6561C61.8554 43.0199 61.9856 43.4475 62.0994 43.8792C62.1412 44.0374 62.1809 44.1964 62.2117 44.3588C62.2864 44.7473 62.5379 44.9851 62.875 45.1502C63.2003 45.3038 63.55 45.3994 63.9082 45.4325C64.5746 45.5148 65.247 45.5366 65.9172 45.4976C66.1968 45.4763 66.4737 45.4283 66.7442 45.3544C67.5205 45.144 68.1495 45.4085 68.7093 45.9265C68.7562 45.9673 68.7982 46.0133 68.8347 46.0635C68.9848 46.2855 69.1938 46.3164 69.4459 46.3027C70.0338 46.2691 70.5217 46.4746 70.8231 47.0043C71.2055 47.6751 71.35 48.3877 71.0972 49.138C71.0248 49.3518 70.9135 49.5504 70.769 49.7238C70.6968 49.7999 70.6495 49.8962 70.6332 49.9998C70.6169 50.1034 70.6325 50.2096 70.6779 50.3041C70.8601 50.7502 70.9814 51.2127 70.9704 51.6916C70.953 52.1279 70.909 52.5626 70.8389 52.9935C70.7882 53.3402 70.7053 53.6787 70.6244 54.0213C70.4572 54.727 70.0235 55.0963 69.2205 55.1662C69.1193 55.1746 69.0177 55.1771 68.9163 55.1738C68.6497 55.1669 68.5052 55.3204 68.4085 55.5451C68.3119 55.7699 68.2249 55.9967 68.0886 56.1926C67.8145 56.59 67.3965 56.7408 66.9279 56.7127C66.6149 56.6881 66.3125 56.5887 66.046 56.4229C65.6805 56.2134 65.3418 55.9603 65.0374 55.6691C65.0045 55.6363 64.9689 55.6006 64.9353 55.5725C64.5085 55.1813 64.0097 55.0628 63.4409 55.1498C62.8359 55.243 62.3309 55.0244 61.9548 54.555C61.7986 54.3509 61.6792 54.1211 61.6019 53.876C61.5261 53.6417 61.4031 53.4255 61.2405 53.2406C61.0779 53.0557 60.8791 52.906 60.6564 52.801C60.2918 52.6166 59.9794 52.3823 59.7869 52.0144C59.6414 51.7284 59.5545 51.4162 59.5313 51.0962C59.5189 50.9489 59.5011 50.8009 59.4998 50.6529C59.4998 50.4336 59.3627 50.3179 59.1907 50.2274C59.1565 50.2096 59.1222 50.1973 59.0825 50.1822C58.7442 50.0475 58.4364 49.8462 58.1774 49.5902C57.9184 49.3342 57.7136 49.0287 57.5751 48.6919C57.3568 48.2038 57.2314 47.6794 57.2051 47.1454ZM58.2 47.1564C58.2107 47.3736 58.2335 47.59 58.2685 47.8046C58.4343 48.5583 58.866 49.0975 59.5977 49.3689C59.9588 49.5059 60.2144 49.7313 60.3329 50.0972C60.3902 50.2585 60.4342 50.4242 60.4645 50.5926C60.5049 50.8461 60.5248 51.1031 60.5481 51.3586C60.5621 51.475 60.6167 51.5828 60.7023 51.6629C60.8604 51.8241 61.046 51.9559 61.2504 52.0521C61.73 52.2905 62.1111 52.6892 62.3275 53.1792C62.3944 53.3199 62.4503 53.4656 62.4947 53.615C62.5624 53.8253 62.7038 54.0041 62.8928 54.1186C62.9935 54.1871 63.1593 54.1727 63.2957 54.1727C63.443 54.1727 63.5903 54.1412 63.7376 54.1323C63.8458 54.1242 63.9545 54.126 64.0624 54.1378C64.4204 54.1807 64.7625 54.31 65.0594 54.5146C65.343 54.7071 65.6075 54.9257 65.8816 55.1313C66.0803 55.2827 66.2769 55.4355 66.4777 55.5835C66.6213 55.6786 66.7892 55.7302 66.9614 55.7322C67.2012 55.7514 67.3246 55.6637 67.4411 55.4136C67.5178 55.2519 67.5781 55.0826 67.6555 54.9216C67.7762 54.6741 67.983 54.4792 68.2372 54.3735C68.5514 54.2339 68.8905 54.1589 69.2342 54.1528C69.4994 54.1446 69.633 54.035 69.6857 53.7726C69.7775 53.3142 69.8913 52.8571 69.9358 52.394C70.0098 51.6457 70.0441 50.892 69.5528 50.2384C69.5488 50.2318 69.5454 50.2249 69.5425 50.2178C69.3692 49.9266 69.4055 49.6464 69.611 49.3922C69.694 49.3006 69.7926 49.2245 69.9022 49.1674C70.0968 49.053 70.2291 48.9112 70.2147 48.6666C70.2044 48.4959 70.2215 48.324 70.203 48.1527C70.1877 47.982 70.1528 47.8137 70.0989 47.6511C70.0365 47.4716 69.918 47.3161 69.7118 47.2893C69.5597 47.2695 69.4027 47.2681 69.2616 47.364C69.093 47.4791 68.919 47.4517 68.7573 47.3455C68.642 47.2663 68.535 47.1757 68.438 47.0749C68.2407 46.8755 68.0591 46.6596 67.8556 46.4671C67.77 46.3775 67.6582 46.3173 67.5363 46.2951C67.3049 46.2715 67.0713 46.2817 66.8429 46.3253C66.2852 46.4486 65.7281 46.5534 65.1532 46.5137C64.9203 46.4973 64.6859 46.4911 64.453 46.4733C63.7752 46.4289 63.1099 46.2702 62.4851 46.0039C61.8129 45.7141 61.4265 45.2084 61.2593 44.5143C61.2388 44.4307 61.2271 44.3458 61.2038 44.2636C61.1298 44.0011 61.0668 43.736 60.9736 43.4797C60.9473 43.3851 60.888 43.303 60.8064 43.2484C60.7249 43.1937 60.6264 43.17 60.5289 43.1816C60.3151 43.1926 60.1404 43.2796 59.9636 43.381C59.6341 43.5701 59.2942 43.7134 58.8989 43.6256C58.8215 43.614 58.7429 43.6126 58.6652 43.6215C58.5839 43.6267 58.5076 43.6623 58.4513 43.7212C58.3951 43.7801 58.3631 43.858 58.3617 43.9395C58.3636 44.0632 58.379 44.1863 58.4076 44.3067C58.4651 44.5493 58.5323 44.7864 58.5994 45.0296C58.6751 45.312 58.638 45.6127 58.496 45.8683C58.2909 46.2658 58.1891 46.7085 58.2 47.1557V47.1564Z" fill="black"/>
<path d="M31.1554 41.1794C31.1475 41.0086 31.1489 40.8375 31.1595 40.6669C31.1627 40.5809 31.1891 40.4973 31.2357 40.425C31.2824 40.3527 31.3476 40.2942 31.4247 40.2558C31.6809 40.1311 31.9557 40.2202 32.0653 40.4833C32.109 40.5912 32.1349 40.7055 32.1421 40.8217C32.177 41.2952 32.201 41.7694 32.2332 42.2435C32.2483 42.4696 32.1962 42.6628 31.9872 42.7807C31.7207 42.9307 31.426 42.8328 31.3212 42.5443C31.2685 42.3818 31.235 42.2137 31.2212 42.0434C31.1883 41.757 31.1705 41.4692 31.1465 41.1822L31.1554 41.1794Z" fill="black"/>
<path d="M37.3841 50.8893C37.356 51.2771 36.9689 51.48 36.725 51.3409C36.6555 51.3064 36.5888 51.2665 36.5256 51.2216C36.1309 50.9044 35.7369 50.5872 35.3484 50.2624C35.2739 50.1946 35.2118 50.1144 35.1648 50.0253C35.0456 49.8198 35.1004 49.6683 35.2443 49.4895C35.3697 49.3326 35.6074 49.3018 35.7972 49.4032C35.8845 49.4538 35.9666 49.5128 36.0425 49.5792C36.4091 49.8807 36.7688 50.1911 37.1388 50.4857C37.2653 50.5874 37.3521 50.7302 37.3841 50.8893Z" fill="black"/>
<path d="M39.9168 52.0103L40.0805 52.0582L41.5386 52.4796C41.5914 52.4947 41.6448 52.507 41.6955 52.5269C41.936 52.6187 42.0737 52.8633 42.01 53.0805C41.9319 53.345 41.6976 53.5088 41.4379 53.4375C40.8678 53.2804 40.3009 53.1113 39.7373 52.9305C39.6375 52.8956 39.5529 52.8274 39.4976 52.7374C39.4423 52.6474 39.4198 52.5411 39.4337 52.4364C39.4557 52.322 39.5151 52.218 39.6025 52.1409C39.6899 52.0638 39.8005 52.0179 39.9168 52.0103Z" fill="black"/>
<path d="M33.4257 47.6504C33.2886 47.6209 33.1331 47.5818 33.0536 47.427C32.7741 46.8884 32.4918 46.3506 32.228 45.8045C32.1163 45.5715 32.2458 45.3207 32.4931 45.2159C32.6008 45.169 32.7225 45.1658 32.8324 45.2069C32.9424 45.2481 33.032 45.3304 33.0824 45.4365C33.2462 45.7641 33.3996 46.0964 33.562 46.4225C33.6607 46.6171 33.7861 46.798 33.8772 46.9953C34.0197 47.2961 33.7738 47.6552 33.4257 47.6504Z" fill="black"/>
<path d="M43.7418 38.4434C43.7418 37.883 43.7384 37.3218 43.7418 36.7606C43.7426 36.629 43.7634 36.4982 43.8035 36.3728C43.8658 36.1858 44.0775 36.0336 44.2481 36.0556C44.4414 36.0802 44.614 36.1631 44.6743 36.368C44.713 36.494 44.7342 36.6247 44.7374 36.7565C44.7422 37.6473 44.7374 38.5332 44.7374 39.4212C44.7374 39.7453 44.8408 39.8467 45.1711 39.8474C45.576 39.8474 45.9817 39.8474 46.3866 39.8474C46.5109 39.8483 46.6345 39.8663 46.7539 39.9008C46.8511 39.9305 46.9371 39.9889 47.0004 40.0684C47.0638 40.1479 47.1016 40.2448 47.1088 40.3462C47.1088 40.5271 46.9601 40.7313 46.76 40.7971C46.6644 40.8297 46.5643 40.8472 46.4633 40.8491C45.7782 40.8532 45.093 40.8532 44.4078 40.8491C43.9494 40.8491 43.7425 40.6367 43.739 40.1694C43.7363 39.5994 43.7418 39.0224 43.7418 38.4434Z" fill="black"/>
</svg>
