<svg width="102" height="102" viewBox="0 0 102 102" fill="none" xmlns="http://www.w3.org/2000/svg">
<ellipse cx="50.96" cy="50.97" rx="49.96" ry="49.97" fill="white"/>
<path d="M50.96 101.44C78.8284 101.44 101.42 78.8437 101.42 50.97C101.42 23.0963 78.8284 0.5 50.96 0.5C23.0916 0.5 0.5 23.0963 0.5 50.97C0.5 78.8437 23.0916 101.44 50.96 101.44Z" stroke="#2E3192" stroke-opacity="0.2" stroke-linejoin="round"/>
<circle opacity="0.6" cx="50.57" cy="50.57" r="44.57" fill="#C8DCFE"/>
<path d="M40.9897 38.1868C42.8559 38.3418 44.7216 38.4017 46.5227 39C46.7123 39.063 47.0326 38.893 47.2274 38.7458C47.804 38.3087 48.3093 37.7688 48.9138 37.3802C49.7167 36.8636 50.6395 36.7602 51.5834 36.9106C52.573 37.0666 53.5624 37.2232 54.5517 37.3802C54.8849 37.4319 55.2058 37.5456 55.1505 37.9537C55.0916 38.3872 54.7619 38.4286 54.3874 38.3671C53.399 38.2023 52.408 38.0524 51.4186 37.8954C50.3765 37.7305 49.4888 38.0018 48.7319 38.7623C46.3139 41.1932 43.7244 43.4196 40.8703 45.3317C39.961 45.9409 39.9564 46.4503 40.7918 47.1308C41.8603 47.9998 43.0651 48.0174 44.3093 47.6624C45.8391 47.2253 47.0755 46.2824 48.2623 45.2708C49.4491 44.2591 50.1667 44.2839 51.2667 45.3602C53.7002 47.7425 56.6152 48.7185 59.9885 48.2964C60.4417 48.2395 60.7765 48.3449 61.1283 48.6064C63.2725 50.2034 65.4358 51.7741 67.5711 53.3819C68.0082 53.7105 68.3322 53.7178 68.7755 53.4109C69.7122 52.7624 70.6742 52.1492 71.6471 51.5555C72.1333 51.2589 72.262 50.9453 72.0413 50.393C70.5099 46.5619 69.0059 42.721 67.4905 38.8843C67.2022 38.1537 67.0674 38.1093 66.3456 38.3521C65.2498 38.7241 64.1658 39.1622 63.0389 39.4133C61.5241 39.7523 60.0418 39.2201 58.5538 38.9824C58.4132 38.9602 58.1885 38.5939 58.234 38.4761C58.3027 38.2968 58.5827 38.071 58.7579 38.0834C59.4212 38.1304 60.0826 38.2451 60.7377 38.3717C61.9865 38.614 63.197 38.5334 64.3802 38.0447C64.9423 37.8127 65.5169 37.6112 66.0893 37.403C66.482 37.2604 66.682 37.0413 66.6577 36.5717C66.621 35.9331 66.8974 35.435 67.536 35.1834C69.0901 34.5732 70.636 33.9434 72.1969 33.3487C73.0235 33.0315 73.7205 33.3533 74.0522 34.1836C74.7807 36.008 75.4942 37.838 76.216 39.6649C76.3488 40.0003 76.4387 40.3413 76.0052 40.503C75.5717 40.6647 75.4234 40.3423 75.2938 40.0096C74.6507 38.3635 74.004 36.7189 73.3537 35.0759C72.9956 34.1655 72.9026 34.1201 72.0207 34.4662C70.7955 34.9485 69.5727 35.4329 68.3523 35.9196C67.6244 36.211 67.5587 36.3645 67.8357 37.0682C69.6754 41.7461 71.5185 46.4245 73.365 51.1034C73.6559 51.8397 73.8383 51.9151 74.5642 51.6278C75.8419 51.1231 77.1222 50.624 78.3979 50.114C79.0515 49.8557 79.1145 49.6955 78.8567 49.0404C78.2587 47.5248 77.6594 46.0093 77.0587 44.4937C77.0008 44.3475 76.8825 44.1915 76.9037 44.0556C76.9373 43.8205 77.0587 43.5978 77.1403 43.37C77.3604 43.4733 77.7087 43.525 77.781 43.6955C78.5503 45.5446 79.285 47.4077 80.0063 49.2755C80.2078 49.7963 79.859 50.5609 79.283 50.797C77.6296 51.4759 75.9763 52.1564 74.2868 52.7356C73.9251 52.8601 73.3718 52.6421 72.9869 52.4344C72.6583 52.2571 72.4443 52.2205 72.1411 52.4209C71.2229 53.028 70.296 53.6217 69.3666 54.2112C68.9677 54.4638 68.8391 54.7402 68.9992 55.2373C69.6915 57.3835 67.9876 59.4507 65.7354 59.1856C65.1232 59.1138 64.9036 59.2864 64.777 59.8687C64.4184 61.5251 63.1883 62.4179 61.4652 62.3203C61.0084 62.2944 60.7816 62.4437 60.717 62.9201C60.4494 64.8958 58.8255 66.0155 56.8891 65.5406C56.3724 65.4135 56.1198 65.5975 56.0423 66.0537C55.6672 68.2583 52.9888 69.2994 51.0435 67.8331C50.7609 67.6202 50.4566 67.4327 50.1946 67.1971C49.7859 66.8292 49.5033 66.9429 49.1613 67.3175C48.7417 67.7732 48.3062 68.2733 47.7725 68.5538C46.1155 69.4244 44.2359 68.5146 43.8458 66.6856C43.7244 66.1172 43.4878 65.9157 42.9019 65.9059C41.6102 65.8853 40.6079 65.0043 40.3516 63.6992C40.2483 63.1826 40.0338 62.9831 39.4919 62.9702C38.1403 62.9351 37.1694 62.1084 36.8755 60.7548C36.7608 60.2267 36.5567 60.019 35.9806 60.004C34.0173 59.9524 32.7706 57.989 33.5595 56.1761C33.8178 55.5814 33.6727 55.2724 33.1911 54.9696C31.9444 54.1838 30.7111 53.3731 29.452 52.61C29.267 52.4979 28.9188 52.5108 28.7116 52.61C28.2316 52.8343 27.7816 52.872 27.2929 52.6751C25.7987 52.0763 24.2962 51.4992 22.802 50.8968C21.9154 50.5351 21.6534 49.834 22.0032 48.9427C23.9087 44.1205 25.8109 39.2967 27.7098 34.4714C28.1934 33.2438 28.771 32.985 29.9981 33.4639C31.389 34.0064 32.7776 34.5542 34.164 35.1074C34.9716 35.4293 35.1705 35.7961 35.2443 36.6714C35.266 36.9297 35.5337 37.2588 35.7775 37.389C36.9023 37.9915 38.0963 38.3319 39.4009 38.1961C39.9254 38.1413 40.4601 38.1868 40.9897 38.1868ZM43.5213 48.8818C41.9073 48.8663 40.9241 48.5201 40.0545 47.8484C38.8729 46.936 38.953 45.4671 40.1527 44.5784C41.8577 43.3162 43.5141 41.991 45.1762 40.6735C45.3695 40.5185 45.4671 40.2483 45.6092 40.0307C45.3715 39.8861 45.1442 39.6355 44.8952 39.6128C43.0961 39.451 41.2935 39.2485 39.4903 39.2335C38.1382 39.2227 36.8853 39.0021 35.667 38.4342C34.7954 38.0271 34.6931 38.0953 34.3335 39.0077C32.8127 42.8648 31.2924 46.7211 29.7723 50.5764C29.4654 51.355 29.483 51.4165 30.179 51.8624C31.4856 52.7004 32.8 53.5271 34.0963 54.3806C34.4492 54.6126 34.7008 54.5832 34.9592 54.2696C35.2836 53.8753 35.6241 53.4946 35.9512 53.1003C36.7081 52.19 37.667 51.7937 38.831 52.0484C40.0302 52.3109 40.7329 53.0916 40.9494 54.298C41.0274 54.7299 41.2408 54.918 41.7048 54.935C43.1902 54.9903 44.1372 55.7901 44.4302 57.2326C44.5206 57.6765 44.7087 57.8614 45.169 57.8759C46.6193 57.9208 47.5834 58.7093 47.8846 60.1146C47.9931 60.6199 48.1905 60.8379 48.7423 60.8379C49.9993 60.8416 50.9402 61.5969 51.307 62.8013C51.6067 63.7881 51.3736 64.6757 50.7351 65.4476C50.407 65.8439 50.4157 66.125 50.8384 66.4138C51.2109 66.6721 51.5576 66.9651 51.9394 67.2043C52.9097 67.8114 54.1156 67.5236 54.7873 66.5466C55.3727 65.6941 55.1556 64.6003 54.2634 63.9085C53.8438 63.5835 53.4217 63.2621 53.0037 62.9346C52.7289 62.7196 52.5558 62.4484 52.8064 62.1291C53.057 61.8098 53.3628 61.9338 53.6372 62.1337C53.8438 62.2841 54.0428 62.4437 54.2458 62.5987C54.997 63.1671 55.7343 63.7597 56.5047 64.3037C57.1763 64.778 58.174 64.7739 58.7842 64.3373C59.539 63.7969 59.9353 63.0653 59.6765 62.1467C59.5633 61.7437 59.2756 61.336 58.9568 61.0555C58.2655 60.4458 57.506 59.9131 56.7692 59.3561C56.4618 59.1236 56.2949 58.8297 56.5532 58.5052C56.8033 58.1905 57.1216 58.3445 57.3913 58.5429C57.5494 58.6592 57.7013 58.7826 57.8594 58.9015C58.7501 59.5814 59.6259 60.281 60.5357 60.9346C61.5401 61.6579 62.7372 61.4275 63.4947 60.4132C64.1188 59.5783 63.8992 58.3791 62.9821 57.662C62.2546 57.0937 61.5189 56.5336 60.7873 55.9699C60.6783 55.8862 60.5135 55.8216 60.4732 55.7116C60.3828 55.4662 60.3549 55.198 60.3011 54.9392C60.5486 54.9242 60.8028 54.8673 61.0405 54.9087C61.1955 54.9355 61.3288 55.1024 61.4693 55.2094C62.6117 56.0779 63.7426 56.966 64.8984 57.8113C65.8398 58.5011 66.9093 58.3197 67.7272 57.3835C68.3802 56.6359 68.3167 55.4848 67.5675 54.7113C67.3758 54.5152 67.1684 54.335 66.9475 54.1724C65.212 52.8808 63.4456 51.6335 61.7442 50.3005C60.8565 49.6051 59.9875 49.0734 58.8147 49.3989C58.7369 49.4115 58.6578 49.4129 58.5796 49.4031C55.3814 49.3375 52.6607 48.1393 50.3646 45.9414C49.7823 45.3839 49.7554 45.418 49.0951 45.9083C48.1037 46.6441 47.1173 47.4155 46.0324 47.9879C45.1101 48.4746 44.0556 48.6989 43.5193 48.8818H43.5213ZM34.2601 36.4885C34.0813 36.3335 33.8984 36.0751 33.6504 35.9718C32.3639 35.4345 31.0619 34.9349 29.7646 34.4218C29.0252 34.1309 28.8785 34.194 28.5794 34.9514C26.7235 39.6475 24.8699 44.3427 23.0185 49.0368C22.7601 49.6903 22.8289 49.8541 23.4747 50.1109C24.7328 50.611 25.9934 51.1034 27.2526 51.601C28.0601 51.9198 28.2084 51.8593 28.5277 51.0492C30.3663 46.3923 32.2043 41.7351 34.0415 37.0775C34.0989 36.9318 34.1495 36.7835 34.2601 36.4885ZM47.0218 60.7238C46.999 59.8671 46.5273 59.3572 45.8722 59.011C45.2403 58.6767 44.4865 58.8446 43.9471 59.4336C43.1917 60.2577 42.4643 61.1092 41.7461 61.9653C41.0279 62.8214 41.1116 63.7674 41.945 64.5109C42.6482 65.1376 43.65 65.0793 44.3547 64.3043C45.1349 63.4497 45.8846 62.5646 46.6084 61.662C46.8151 61.4063 46.8854 61.0405 47.0218 60.7238ZM37.7218 60.1606C37.8158 60.9082 38.2694 61.6274 38.9235 61.8563C39.5998 62.0934 40.2571 62.0345 40.7644 61.4688C41.5367 60.6077 42.2944 59.7326 43.0378 58.8436C43.729 58.0169 43.6324 57.0632 42.8202 56.3424C42.1046 55.7069 41.122 55.7586 40.4131 56.532C39.6315 57.3856 38.8793 58.2655 38.1563 59.1717C37.9388 59.4435 37.8623 59.8279 37.7218 60.1606ZM46.5878 67.9922C46.9675 67.7856 47.4237 67.6481 47.7115 67.3505C48.501 66.5337 49.2305 65.6569 49.9642 64.7879C50.6829 63.9364 50.6017 62.9878 49.7761 62.2402C49.0781 61.6083 48.0711 61.6636 47.3685 62.4313C46.5893 63.2869 45.8463 64.1756 45.1091 65.0663C44.6653 65.6032 44.6317 66.2418 44.9313 66.8364C45.2449 67.4606 45.7565 67.8837 46.5873 67.9922H46.5878ZM40.0778 54.7764C39.9904 54.0443 39.5301 53.3251 38.8682 53.09C38.193 52.8508 37.5384 52.9092 37.031 53.478C36.2732 54.3274 35.528 55.1872 34.7954 56.0572C34.0679 56.9164 34.1439 57.8557 34.9798 58.6013C35.6897 59.2352 36.6802 59.182 37.388 58.4086C38.1685 57.555 38.9201 56.6752 39.6427 55.7689C39.8608 55.4951 39.9372 55.1102 40.0788 54.7764H40.0778Z" fill="black"/>
</svg>
