<svg width="102" height="102" viewBox="0 0 102 102" fill="none" xmlns="http://www.w3.org/2000/svg">
<ellipse cx="50.96" cy="50.97" rx="49.96" ry="49.97" fill="white"/>
<path d="M50.96 101.44C78.8284 101.44 101.42 78.8437 101.42 50.97C101.42 23.0963 78.8284 0.5 50.96 0.5C23.0916 0.5 0.5 23.0963 0.5 50.97C0.5 78.8437 23.0916 101.44 50.96 101.44Z" stroke="#2E3192" stroke-opacity="0.2" stroke-linejoin="round"/>
<circle opacity="0.6" cx="50.57" cy="50.57" r="44.57" fill="#C8DCFE"/>
<g clip-path="url(#clip0_1_25871)">
<path d="M74.9932 53.8473C74.9932 56.7928 74.9845 59.7384 75 62.6829C75 63.4301 74.7087 63.9829 74.1193 64.3896C72.9677 65.1793 71.6607 65.5998 70.3138 65.7913C68.5864 66.0361 66.8405 66.1387 65.1013 66.2976C64.9741 66.3085 64.81 66.3273 64.7226 66.2621C64.5692 66.1525 64.3575 65.9778 64.3585 65.8327C64.3595 65.6876 64.5605 65.4813 64.7217 65.3994C64.8829 65.3174 65.1004 65.3461 65.2936 65.3441C67.5678 65.3224 69.8283 65.1575 71.9937 64.3925C72.6501 64.1606 73.2493 63.742 73.8387 63.3571C74.1077 63.1833 74.2387 62.0738 74.0329 61.8448C73.9251 61.7254 73.6338 61.6356 73.5027 61.6977C70.9295 62.9218 68.1737 63.1113 65.4014 63.2169C65.2421 63.2228 65.0499 63.2376 64.9304 63.1597C64.7896 63.0669 64.6255 62.8734 64.6304 62.7293C64.6352 62.5852 64.8091 62.3739 64.9557 62.3167C65.1557 62.2377 65.4004 62.2703 65.6267 62.2643C67.8513 62.2051 70.0643 62.0324 72.1734 61.2486C72.756 61.0334 73.2842 60.6623 73.8047 60.3119C74.0843 60.1233 74.2475 59.1086 74.0513 58.8539C73.9542 58.7285 73.6571 58.621 73.5309 58.6812C70.8207 59.9802 67.9193 60.1539 64.9974 60.2181C64.6382 60.226 64.1497 60.3069 64.141 59.7601C64.1323 59.2132 64.6119 59.2823 64.978 59.2774C67.3794 59.2468 69.771 59.1076 72.0578 58.2844C72.6831 58.0593 73.2541 57.6575 73.8193 57.2874C74.0843 57.1136 74.2446 56.1167 74.0533 55.8748C73.9484 55.7416 73.6357 55.634 73.4969 55.6962C70.2012 57.1897 66.7191 57.2824 63.2039 57.1502C62.901 57.1383 62.633 57.0436 62.6359 56.6833C62.6359 56.2944 62.9146 56.2272 63.2428 56.2174C65.1013 56.1621 66.9696 56.1976 68.8136 55.9982C70.0992 55.859 71.3548 55.406 72.6142 55.0634C72.9327 54.9766 73.2318 54.7742 73.5076 54.5788C74.0707 54.1839 74.2718 53.5917 74.0814 52.9422C74.0038 52.6747 73.8154 52.5355 73.5221 52.6569C68.5864 54.7002 63.5409 54.563 58.4643 53.3706C57.6302 53.1731 56.834 52.7457 56.0659 52.3371C55.3697 51.9659 55.0784 51.3046 55.0784 50.4892C55.0929 48.7124 55.0978 46.9356 55.0784 45.1589C55.0677 44.2803 55.426 43.6476 56.1465 43.1965C57.3545 42.4433 58.6974 42.086 60.0695 41.8353C62.9431 41.3219 65.8771 41.2573 68.7699 41.6438C69.1311 41.6902 69.6652 41.5836 69.6535 42.2232C69.6467 42.5845 69.3506 42.6595 68.6553 42.5786C65.3023 42.1887 61.9649 42.2222 58.6848 43.1254C57.9831 43.3199 57.3098 43.608 56.6825 43.9822C55.7833 44.5182 55.8086 45.0681 56.6893 45.6386C57.7021 46.294 58.8489 46.602 60.0151 46.8044C63.9856 47.4953 67.9426 47.5091 71.8374 46.3434C72.5307 46.1351 73.1842 45.7195 73.7901 45.302C74.2378 44.992 74.2397 44.6505 73.8057 44.3366C73.2347 43.925 72.587 43.62 71.9607 43.2883C71.7665 43.1827 71.4995 43.1847 71.3276 43.0544C71.1897 42.9497 71.0499 42.6951 71.0858 42.5509C71.1217 42.4068 71.4024 42.1926 71.5257 42.2232C72.6628 42.5016 73.7969 42.8481 74.5893 43.7868C74.8359 44.0829 74.968 44.5636 74.9719 44.9624C75.0078 47.9237 74.9932 50.886 74.9932 53.8473ZM65.0887 53.3538C66.6006 53.2057 68.1164 53.0942 69.6225 52.8977C70.8477 52.7556 72.0384 52.394 73.1395 51.8297C73.8338 51.4635 74.2407 50.9561 74.1018 50.1003C74.0329 49.6748 73.8416 49.5327 73.4473 49.7054C73.0531 49.8782 72.6521 50.0746 72.2394 50.2118C69.9089 50.9907 67.4978 51.2266 65.0644 51.2058C62.1591 51.1812 59.279 50.964 56.5922 49.6689C56.265 49.512 56.097 49.7104 56.0436 50.0055C55.8901 50.8584 56.095 51.3223 56.8515 51.7566C57.233 51.9716 57.6327 52.1514 58.0458 52.2936C60.3219 53.0813 62.6951 53.2334 65.0887 53.3508V53.3538ZM65.0314 50.3194C66.3365 50.2207 67.6464 50.1664 68.9447 50.0065C70.4061 49.8259 71.8432 49.513 73.1716 48.8072C73.862 48.4429 74.2164 47.9247 74.0999 47.1044C74.0397 46.677 73.8435 46.5299 73.4454 46.6968C73.0133 46.8784 72.5899 47.0916 72.1452 47.2347C69.9516 47.9524 67.6843 48.1883 65.3956 48.1883C62.3757 48.1883 59.3752 47.9997 56.5786 46.6563C56.2397 46.4944 56.0931 46.7047 56.0397 46.9978C55.8921 47.8862 56.0999 48.3284 56.8913 48.7746C57.2313 48.9646 57.5867 49.1248 57.9536 49.2534C60.2442 50.0648 62.6242 50.2424 65.0314 50.3165V50.3194Z" fill="black"/>
<path d="M40.563 38.4958C39.8182 38.4958 39.0705 38.5393 38.3296 38.483C37.6499 38.4307 37.1187 38.6627 36.5866 39.0466C34.2445 40.7336 32.4374 42.9032 31.0139 45.4115C29.3884 48.2741 28.2775 51.3203 27.9629 54.6379C27.422 60.3365 30.5963 64.1684 34.5805 66.0735C36.9702 67.2156 39.5143 67.6084 42.1341 67.5877C42.3128 67.5877 42.5148 67.5304 42.6624 67.5986C42.8566 67.6864 43.0022 67.873 43.1683 68.0171C43.0216 68.18 42.877 68.3517 42.7216 68.5008C42.674 68.5452 42.5662 68.5304 42.4856 68.5324C38.9666 68.5995 35.6136 67.9401 32.6151 65.9876C28.294 63.1783 26.4588 59.0947 27.1375 53.9706C27.826 48.7726 30.036 44.2388 33.5774 40.4187C34.3892 39.5422 35.4097 38.864 36.3371 38.098C36.4749 37.9845 36.639 37.9006 36.773 37.7871C37.3479 37.2876 37.3974 36.8 37.0284 36.1317C36.1545 34.5405 35.2806 32.9493 34.4601 31.3275C34.1921 30.7974 34.059 30.1825 33.9454 29.5902C33.7619 28.6278 34.3338 27.9289 35.2922 28.0049C36.3205 28.0878 37.3809 28.1481 38.3549 28.455C40.7465 29.2092 43.0945 29.1085 45.4803 28.4807C46.4134 28.2349 47.3854 28.1184 48.3477 28.0168C49.2799 27.9181 49.8363 28.5281 49.5945 29.454C49.3258 30.5014 48.9684 31.5233 48.5264 32.5081C47.9982 33.6699 47.3466 34.7784 46.7281 35.8919C46.195 36.8553 46.3251 37.2738 47.1942 37.9648C48.4021 38.9242 49.612 39.8965 50.7103 40.9794C51.9726 42.2221 52.9281 43.7196 53.736 45.3068C53.8098 45.4519 53.9185 45.6089 53.9127 45.756C53.9069 45.903 53.8156 46.1459 53.7001 46.1942C53.5554 46.2554 53.333 46.1942 53.1738 46.1242C53.0767 46.0807 53.0291 45.9159 52.9679 45.8004C51.4201 42.849 49.2527 40.47 46.5173 38.6261C45.8376 38.1681 45.4851 37.5522 45.4754 36.7378C45.4706 36.3272 45.2812 36.1959 44.9016 36.1979C43.412 36.2067 41.9234 36.2038 40.4348 36.1979C40.2591 36.1979 40.0464 36.2166 39.9163 36.1307C39.8424 36.0801 39.78 36.0141 39.7333 35.9369C39.6865 35.8598 39.6566 35.7734 39.6454 35.6836C39.6454 35.5553 39.8085 35.3667 39.9435 35.3065C40.1115 35.2335 40.3241 35.2532 40.5173 35.2532C42.1846 35.2532 43.8519 35.2404 45.5191 35.2601C45.8541 35.2601 46.1017 35.1703 46.2377 34.8821C46.9999 33.3244 47.8069 31.7855 48.4885 30.1923C48.9634 29.0828 48.7109 28.8163 47.5253 29.0246C46.2678 29.2447 45.0229 29.5349 43.7703 29.7837C42.0856 30.1183 40.4348 29.9554 38.7753 29.53C37.6858 29.2506 36.5555 29.1263 35.4369 28.9762C34.9669 28.9131 34.7756 29.1144 34.8776 29.5853C35.0097 30.1894 35.1747 30.8083 35.4534 31.3532C36.1613 32.7351 36.9313 34.0904 37.6984 35.4437C37.9898 35.9511 38.2335 36.4506 38.184 37.0616C38.1509 37.4564 38.3947 37.5551 38.7394 37.5551C40.1804 37.5482 41.6214 37.5551 43.0624 37.5551H43.4994C43.8305 37.5551 44.1577 37.6104 44.15 38.0319C44.1422 38.4534 43.8082 38.4958 43.4819 38.4968L40.563 38.4958Z" fill="black"/>
<path d="M52.9074 72.0859C58.1771 72.0967 62.0156 68.5066 62.3613 63.9117C62.708 59.2911 59.4977 55.0969 55.0465 54.3861C53.1045 54.0752 51.243 54.3644 49.499 55.3209C49.4563 55.3446 49.4126 55.3663 49.3709 55.391C49.0931 55.5509 48.8077 55.6338 48.6212 55.2824C48.4348 54.931 48.6212 54.6991 48.929 54.5826C49.9098 54.2104 50.8711 53.7149 51.8887 53.5264C57.8344 52.4188 63.2149 56.9812 63.2906 63.1348C63.3508 68.021 59.6415 72.3336 54.8708 72.9229C49.0757 73.6386 44.0632 69.2766 43.9379 63.3392C43.8816 60.674 44.8177 58.3494 46.5957 56.385C46.7005 56.2685 46.8462 56.1402 46.9841 56.1195C47.122 56.0988 47.3618 56.1452 47.4502 56.2518C47.5385 56.3584 47.5385 56.5894 47.4958 56.7453C47.4531 56.9013 47.3171 57.0128 47.2103 57.1402C44.6983 60.0028 44.1098 63.2908 45.6139 66.7595C47.1152 70.1946 49.8826 71.9664 52.9074 72.0859Z" fill="black"/>
<path d="M53.4866 62.7084C53.8265 62.7084 54.1664 62.6847 54.5052 62.7084C55.8414 62.8199 56.7318 63.736 56.7775 65.0231C56.8231 66.2758 55.9443 67.2718 54.6286 67.4603C53.9372 67.559 53.9382 67.559 53.9362 68.2845C53.9362 68.5965 53.9848 68.9232 53.91 69.2164C53.8624 69.4039 53.6313 69.5441 53.4827 69.705C53.3293 69.5461 53.0827 69.4088 53.0438 69.2233C52.971 68.8768 52.9982 68.5027 53.0196 68.1375C53.0468 67.6913 52.8953 67.4958 52.4263 67.4544C51.1532 67.3419 50.3123 66.5028 50.2016 65.3124C50.1715 64.9896 50.2075 64.6856 50.5842 64.6362C50.961 64.5869 51.0697 64.8465 51.1125 65.186C51.23 66.0418 51.7796 66.5097 52.6399 66.5147C53.2225 66.5147 53.8051 66.5216 54.3878 66.5147C55.2267 66.5038 55.854 65.879 55.8501 65.0695C55.8462 64.2601 55.2102 63.6531 54.3664 63.6432C53.7838 63.6363 53.2011 63.6521 52.6185 63.6363C51.2649 63.6007 50.2881 62.6492 50.2346 61.3393C50.1812 60.0294 51.0969 59.0235 52.4564 58.9011C52.8623 58.8646 53.0332 58.682 53.0167 58.2743C53.0021 57.9131 53.0108 57.5508 53.0167 57.1885C53.0225 56.8924 53.1468 56.6555 53.4624 56.6486C53.8071 56.6417 53.9304 56.8845 53.9314 57.2073C53.9323 57.5301 53.9518 57.8667 53.9314 58.1944C53.8993 58.6682 54.0828 58.8735 54.5635 58.9031C55.7462 58.9772 56.5881 59.7915 56.7503 60.9681C56.7959 61.2959 56.8046 61.6305 56.3881 61.6976C55.9715 61.7647 55.8851 61.4725 55.8433 61.1221C55.8111 60.7747 55.6538 60.4516 55.4017 60.2148C55.1496 59.978 54.8203 59.8442 54.4771 59.8389C53.8304 59.8142 53.1817 59.8132 52.535 59.8389C52.3489 59.8394 52.1648 59.8781 51.9938 59.9529C51.8228 60.0277 51.6685 60.1369 51.5401 60.274C51.4118 60.4111 51.3122 60.5732 51.2472 60.7505C51.1822 60.9278 51.1532 61.1167 51.162 61.3057C51.1736 62.0875 51.7553 62.6689 52.5642 62.6956C52.872 62.7064 53.1798 62.6956 53.4866 62.6956V62.7084Z" fill="black"/>
</g>
<defs>
<clipPath id="clip0_1_25871">
<rect width="48" height="45" fill="white" transform="translate(27 28)"/>
</clipPath>
</defs>
</svg>
