<?xml version="1.0" encoding="utf-8"?>
<!-- Generator: Adobe Illustrator 27.9.0, SVG Export Plug-In . SVG Version: 6.00 Build 0)  -->
<svg version="1.2" baseProfile="tiny-ps" id="Layer_1" xmlns="http://www.w3.org/2000/svg" xmlns:xlink="http://www.w3.org/1999/xlink"
	  viewBox="0 0 1009.8 270.1" xml:space="preserve">
<title>BIMI Group</title>
<g>
	<polygon fill-rule="evenodd" fill="#2D3891" points="419.2,142.4 413.6,169.9 412,169.9 405.8,142.7 373.5,51 350.9,51 
		399.7,189.1 425,189.1 473.9,51 451.2,51 	"/>
	<rect x="509.3" y="50.2" fill="#2D3891" width="21.3" height="139"/>
	<polygon fill-rule="evenodd" fill="#2D3891" points="636,142.4 630.4,169.9 628.8,169.9 622.7,142.7 590.4,51 567.8,51 
		616.6,189.1 641.9,189.1 690.7,51 668,51 	"/>
	<path fill-rule="evenodd" fill="#2D3891" d="M758.8,51c-21.9,4.3-39.5,20-39.5,44.8v93.4h21.3V95.8C740.6,83,751,75,762,72
		c8.8-2.1,11.2-1.1,21.1,0.5V50.7C775,49.1,766.2,49.1,758.8,51L758.8,51z"/>
	<rect x="819.8" y="50.2" fill="#2D3891" width="21.3" height="139"/>
	<path fill-rule="evenodd" fill="#2D3891" d="M911.9,144.3v-72h28.3V51h-28.3V0h-21.1v144.3c0,30.9,24.3,49.1,56.5,44.8v-18.4
		C925.2,175,911.9,160.1,911.9,144.3z"/>
	<rect x="988.4" y="50.2" fill="#2D3891" width="21.3" height="139"/>
	<path fill-rule="evenodd" fill="#2D3891" d="M418.2,237.1c4.7,0,9.6,2.4,11.9,7.4l-4.7,2.3c-1.5-2.9-4.5-4.4-7.4-4.4
		c-3.6,0-7.1,1.7-7.1,5.1v12.1c0,3.4,3.6,5.1,7.1,5.1c2.9,0,5.8-1.5,7.4-4.4l4.7,2.2c-2.4,5-7.3,7.5-12,7.5
		c-6.2,0-12.4-3.5-12.4-10.4v-12.1C405.7,240.7,411.9,237.1,418.2,237.1L418.2,237.1z"/>
	<path fill-rule="evenodd" fill="#2D3891" d="M511.4,247.9l-1-5.1h-0.6l-1.1,5.2l-2.6,8.1h8L511.4,247.9L511.4,247.9L511.4,247.9z
		 M507.3,237.5h5.5l11.7,32.3H519l-3.2-8.4h-11.6c-1,3.1-1.9,5.2-2.9,8.4h-5.7L507.3,237.5L507.3,237.5z"/>
	<path fill-rule="evenodd" fill="#2D3891" d="M608.5,248.2c0-2.7-2-5.5-5.9-5.4h-7.3v11h7.3C606.5,253.8,608.5,250.9,608.5,248.2
		L608.5,248.2z M595.3,269.8h-5.2v-32.3h12.5c7.4,0,11.2,5.4,11.2,10.6s-3.7,10.5-11.1,10.5h-7.3V269.8L595.3,269.8z"/>
	<rect x="679.3" y="237.5" fill="#2D3891" width="5.2" height="32.3"/>
	<polygon fill-rule="evenodd" fill="#2D3891" points="775,237.4 775,242.7 765.2,242.7 765.2,269.8 759.9,269.8 759.9,242.7 
		750.1,242.7 750.1,237.4 	"/>
	<path fill-rule="evenodd" fill="#2D3891" d="M856.3,247.9l-1-5.1h-0.6l-1.1,5.2l-2.6,8.1h8L856.3,247.9L856.3,247.9L856.3,247.9z
		 M852.2,237.5h5.5l11.7,32.3h-5.5l-3.2-8.4h-11.6c-1,3.1-1.9,5.2-2.9,8.4h-5.7L852.2,237.5L852.2,237.5z"/>
	<polygon fill-rule="evenodd" fill="#2D3891" points="954.9,269.8 935,269.8 935,237.5 940.2,237.5 940.2,264.5 954.9,264.5 	"/>
</g>
<path fill-rule="evenodd" fill="#EF562C" d="M67.2,187c-6.1,13.1-9.5,27.7-9.5,43.1c0,14.2,2.9,27.7,8.1,39.9
	c10.4-24.6,30.9-42.4,55-54c-2.4-1.1-4.8-2.2-7.2-3.2C98.5,206.5,82.4,198.7,67.2,187L67.2,187z"/>
<path fill-rule="evenodd" fill="#EF562C" d="M241.6,50.5c0,0-70.6,37.8-120.8,77.1c13.5,10.5,25.5,21.2,34.2,31.3l0,0
	c7.9,8.2,14.5,17.7,19.4,28.2C205.4,163.4,232.9,124.1,241.6,50.5L241.6,50.5z"/>
<path fill-rule="evenodd" fill="#477FC1" d="M86.6,158.9c8.8-10.1,20.8-20.8,34.2-31.3C70.6,88.2,0,50.5,0,50.5
	C8.7,124.1,36.2,163.4,67.2,187C72,176.6,78.6,167,86.6,158.9L86.6,158.9L86.6,158.9z"/>
<path fill-rule="evenodd" fill="#477FC1" d="M120.8,216.1c24,11.5,44.4,29.2,54.9,53.6c0.1,0.1,0.2,0.1,0.3,0
	c5.1-12.2,7.9-25.5,7.9-39.6c0-15.4-3.4-30-9.5-43.1c-15.3,11.7-31.4,19.5-46.4,25.8C125.6,213.9,123.2,215,120.8,216.1L120.8,216.1
	z"/>
<path fill-rule="evenodd" fill="#2D3891" d="M155,158.9c-8.8-10.1-20.8-20.8-34.2-31.3c-13.5,10.6-25.5,21.2-34.2,31.3l0,0
	C78.6,167,72,176.6,67.2,187c15.3,11.7,31.4,19.5,46.4,25.8c2.4,1,4.8,2.1,7.2,3.2c2.4-1.1,4.8-2.2,7.2-3.2
	c15.1-6.3,31.1-14.2,46.4-25.8C169.6,176.6,163,167,155,158.9L155,158.9L155,158.9z"/>
</svg>
