<svg width="78" height="78" viewBox="0 0 78 78" fill="none" xmlns="http://www.w3.org/2000/svg">
<circle cx="38.97" cy="38.97" r="37.97" fill="white"/>
<circle cx="38.97" cy="38.97" r="38.47" stroke="#2E3192" stroke-opacity="0.2" stroke-linejoin="round"/>
<circle opacity="0.6" cx="38.89" cy="38.89" r="33.89" fill="#C8DCFE"/>
<g clip-path="url(#clip0_1807_5497)">
<path d="M39.3944 41.7711C39.3944 43.159 39.3944 44.5468 39.3944 45.9346C39.3944 46.5223 39.5742 46.6538 40.1146 46.4522C42.1369 45.6952 44.1564 44.9382 46.1797 44.1812C46.5327 44.0497 46.7182 43.85 46.6926 43.446C46.6642 42.9729 46.6832 42.4998 46.6926 42.0266C46.6926 41.7551 46.7721 41.4892 47.0929 41.4892C47.4138 41.4892 47.4895 41.7551 47.4914 42.0276C47.4961 42.706 47.4914 43.3845 47.4914 44.063C47.4914 44.3639 47.3731 44.5522 47.0712 44.6638C44.4858 45.6224 41.907 46.598 39.3187 47.5489C39.0984 47.6183 38.8616 47.6139 38.644 47.5366C36.0708 46.5904 33.5072 45.6167 30.936 44.6648C30.636 44.5541 30.5054 44.3809 30.5063 44.0734C30.5063 42.4799 30.5063 40.8864 30.5063 39.2939C30.5063 39.0223 30.583 38.7564 30.9095 38.763C31.236 38.7696 31.3032 39.0393 31.3041 39.3071C31.3088 40.664 31.3221 42.021 31.2984 43.376C31.2909 43.8065 31.4356 44.0384 31.8388 44.1879C33.8498 44.9278 35.8541 45.6886 37.8613 46.438C38.4168 46.6453 38.5985 46.5223 38.5995 45.945C38.5995 43.1366 38.5995 40.3281 38.608 37.5234C38.608 37.1771 38.4452 36.9992 38.1575 36.8904C36.0756 36.1082 33.9955 35.3281 31.9173 34.5503C31.5246 34.4046 31.323 34.5645 31.3079 34.9894C31.2965 35.3045 31.3391 35.6281 31.2748 35.9356C31.2426 36.0908 31.0306 36.2072 30.8962 36.3406C30.7685 36.2044 30.5385 36.0738 30.53 35.9299C30.4926 35.2217 30.4926 34.512 30.53 33.8037C30.5385 33.6514 30.7259 33.4337 30.8801 33.3751C33.4857 32.3809 36.0967 31.4009 38.713 30.4351C38.9045 30.373 39.1111 30.376 39.3007 30.4436C41.9022 31.404 44.4971 32.3834 47.0967 33.3486C47.3806 33.4546 47.4876 33.6419 47.4876 33.9163C47.4876 35.4461 47.4876 36.9762 47.4876 38.5066C47.4876 38.7725 47.4355 39.0526 47.109 39.0658C46.7513 39.081 46.6879 38.7895 46.687 38.5056C46.6813 37.3701 46.687 36.2346 46.687 35.0991C46.687 34.5219 46.5053 34.3961 45.9573 34.6005C43.9501 35.349 41.9448 36.106 39.9348 36.8488C39.5449 36.9935 39.3764 37.2168 39.385 37.655C39.4114 39.0261 39.3944 40.3991 39.3944 41.7711ZM38.979 36.3491C39.0869 36.3269 39.1937 36.2991 39.2988 36.2659C41.1717 35.5685 43.0454 34.8749 44.9097 34.1586C45.0857 34.0904 45.204 33.8747 45.3488 33.7261C45.2021 33.5993 45.0763 33.4186 44.9059 33.3533C43.07 32.6484 41.2294 31.9529 39.3812 31.282C39.1317 31.2015 38.8629 31.2035 38.6146 31.2876C36.7957 31.9494 34.9838 32.6297 33.1788 33.3287C32.9801 33.4054 32.8249 33.5956 32.6489 33.7328C32.8268 33.887 32.9791 34.1056 33.1864 34.1851C34.9901 34.8843 36.8043 35.559 38.6156 36.2394C38.732 36.282 38.855 36.3113 38.979 36.3491Z" fill="black"/>
<path d="M25.9448 30.3007C23.7947 30.2629 22.1027 28.9447 21.5841 27.0021C21.0778 25.1039 21.8793 23.0846 23.5335 22.0901C24.3692 21.5817 25.3481 21.3599 26.3213 21.4584C27.2946 21.557 28.209 21.9705 28.9258 22.6361C30.4352 24.0422 30.74 26.406 29.6044 28.2275C29.3583 28.6221 29.3981 28.8596 29.7227 29.1529C30.1542 29.5437 30.5554 29.9686 30.9633 30.383C31.1658 30.5903 31.3163 30.8741 31.0485 31.071C30.9198 31.1656 30.5498 31.0889 30.4002 30.9602C29.9283 30.543 29.4791 30.1008 29.0545 29.6355C28.816 29.3838 28.6069 29.362 28.3154 29.5551C27.614 30.0277 26.7905 30.2867 25.9448 30.3007ZM22.2238 25.8751C22.225 26.5969 22.4405 27.3022 22.8431 27.9014C23.2456 28.5005 23.8171 28.9667 24.485 29.2406C25.1529 29.5146 25.8871 29.584 26.5946 29.4402C27.302 29.2963 27.9507 28.9456 28.4585 28.4325C28.9663 27.9194 29.3103 27.2671 29.4468 26.5583C29.5833 25.8495 29.5062 25.1161 29.2253 24.4512C28.9443 23.7863 28.4722 23.2197 27.8688 22.8235C27.2654 22.4272 26.5579 22.2191 25.836 22.2254C25.3582 22.2242 24.8849 22.3182 24.4437 22.5017C24.0025 22.6853 23.6023 22.9548 23.2664 23.2946C22.9305 23.6344 22.6655 24.0376 22.487 24.4808C22.3085 24.924 22.22 25.3983 22.2266 25.8761L22.2238 25.8751Z" fill="black"/>
<path d="M47.6972 52.0331C47.7168 51.1949 47.9762 50.3799 48.4448 49.6845C48.6341 49.3941 48.6199 49.184 48.3672 48.9455C47.9205 48.5244 47.4937 48.0816 47.0603 47.6454C46.8578 47.4429 46.6874 47.1874 46.9155 46.9442C47.1682 46.6736 47.4341 46.8496 47.6499 47.0663C48.053 47.4656 48.4675 47.8545 48.8479 48.2746C49.1385 48.5973 49.3732 48.6408 49.7716 48.3958C52.498 46.72 55.9436 48.2567 56.4982 51.3727C56.9581 53.9616 55.1061 56.3338 52.4469 56.5619C49.9343 56.7776 47.7104 54.7053 47.6972 52.0331ZM52.1355 55.7727C53.0817 55.745 53.98 55.3505 54.6404 54.6725C55.3008 53.9945 55.6716 53.0862 55.6743 52.1397C55.677 51.1933 55.3114 50.2829 54.6549 49.6011C53.9983 48.9194 53.1023 48.5197 52.1564 48.4866C51.6681 48.4695 51.1814 48.5508 50.7252 48.7255C50.2689 48.9002 49.8525 49.1648 49.5005 49.5037C49.1486 49.8425 48.8684 50.2486 48.6765 50.6979C48.4846 51.1472 48.385 51.6304 48.3837 52.1189C48.3823 52.6074 48.4791 53.0912 48.6684 53.5416C48.8577 53.9919 49.1356 54.3996 49.4856 54.7405C49.8355 55.0813 50.2505 55.3483 50.7057 55.5257C51.161 55.703 51.6472 55.787 52.1355 55.7727Z" fill="black"/>
<path d="M52.1093 30.3008C51.2527 30.2921 50.4169 30.0358 49.7027 29.5627C49.3933 29.3583 49.1766 29.3791 48.9258 29.6469C48.5065 30.0964 48.0637 30.5232 47.6255 30.9546C47.4201 31.1562 47.1608 31.3085 46.9243 31.0644C46.6877 30.8203 46.8485 30.5667 47.0511 30.3623C47.4495 29.9592 47.8356 29.5409 48.2595 29.1653C48.605 28.8596 48.6381 28.6146 48.3835 28.202C46.7056 25.4579 48.2889 22.0107 51.444 21.4836C53.9991 21.0597 56.3546 22.938 56.5618 25.5724C56.7596 28.0903 54.672 30.3055 52.1093 30.3008ZM55.7716 25.8667C55.7777 25.3886 55.6883 24.9141 55.5088 24.4709C55.3292 24.0278 55.0631 23.6249 54.7259 23.2859C54.3888 22.9468 53.9874 22.6784 53.5453 22.4963C53.1031 22.3143 52.6291 22.2222 52.1509 22.2255C51.4288 22.2206 50.7214 22.4303 50.1186 22.828C49.5159 23.2258 49.0448 23.7935 48.7652 24.4593C48.4857 25.1251 48.4102 25.859 48.5483 26.5677C48.6865 27.2765 49.0321 27.9283 49.5413 28.4403C50.0505 28.9524 50.7003 29.3017 51.4084 29.4439C52.1164 29.5861 52.8507 29.5149 53.5182 29.2391C54.1857 28.9634 54.7562 28.4957 55.1574 27.8953C55.5586 27.2948 55.7724 26.5888 55.7716 25.8667Z" fill="black"/>
<path d="M25.687 47.693C26.7602 47.7157 27.5702 47.9542 28.2951 48.4358C28.6037 48.6412 28.8213 48.6251 29.0721 48.3516C29.4913 47.9031 29.9342 47.4763 30.3714 47.0448C30.5768 46.8414 30.8361 46.6909 31.0727 46.9341C31.3093 47.1773 31.1474 47.4319 30.9468 47.6362C30.5484 48.0403 30.1623 48.4585 29.7383 48.8332C29.3929 49.1389 29.3598 49.3849 29.6143 49.7975C31.2676 52.5047 29.7345 55.9651 26.6457 56.4903C24.9186 56.7836 23.4375 56.2452 22.3729 54.8552C21.2524 53.3913 21.1039 51.7619 21.9385 50.0965C22.7467 48.4803 24.1539 47.8056 25.687 47.693ZM25.8583 55.773C26.5805 55.7757 27.2872 55.5637 27.8887 55.1641C28.4902 54.7645 28.9595 54.1953 29.237 53.5286C29.5145 52.862 29.5877 52.1279 29.4473 51.4196C29.3069 50.7112 28.9593 50.0605 28.4485 49.5501C27.9377 49.0396 27.2868 48.6923 26.5783 48.5523C25.8698 48.4123 25.1357 48.4859 24.4691 48.7637C23.8025 49.0415 23.2334 49.511 22.8341 50.1127C22.4348 50.7144 22.2232 51.4211 22.2262 52.1432C22.2224 52.6211 22.3138 53.095 22.495 53.5372C22.6762 53.9794 22.9437 54.3812 23.2817 54.719C23.6198 55.0568 24.0217 55.324 24.464 55.505C24.9064 55.6859 25.3804 55.7771 25.8583 55.773Z" fill="black"/>
<path d="M53.0309 38.6095C53.6934 38.6095 54.3558 38.5802 55.0183 38.619C55.5122 38.6483 55.746 38.4723 55.9002 37.9964C56.1292 37.2836 56.6091 36.6782 57.2509 36.2927C57.8927 35.9072 58.6526 35.7678 59.3894 35.9004C59.9327 35.9914 60.4426 36.2236 60.8679 36.5736C61.2932 36.9236 61.6191 37.3793 61.8129 37.8949C62.0067 38.4105 62.0616 38.968 61.9721 39.5115C61.8826 40.055 61.6518 40.5654 61.3029 40.9916C60.954 41.4179 60.4992 41.745 59.9841 41.9402C59.4689 42.1353 58.9116 42.1917 58.3678 42.1037C57.824 42.0157 57.3128 41.7864 56.8856 41.4387C56.4584 41.091 56.13 40.6371 55.9334 40.1226C55.6589 39.3997 55.6589 39.3997 54.8971 39.3997C53.6196 39.3997 52.342 39.3997 51.0644 39.3997C50.9073 39.3997 50.7247 39.4375 50.5988 39.3722C50.4436 39.2908 50.3357 39.1205 50.207 38.988C50.3443 38.865 50.4758 38.6427 50.6206 38.6341C51.2963 38.5944 51.9758 38.6124 52.6533 38.6105L53.0309 38.6095ZM56.505 39.0145C56.5065 39.4825 56.6467 39.9395 56.908 40.3277C57.1693 40.7159 57.5399 41.018 57.9729 41.1956C58.4059 41.3732 58.8818 41.4184 59.3405 41.3255C59.7992 41.2326 60.22 41.0057 60.5498 40.6737C60.8795 40.3416 61.1033 39.9192 61.1929 39.4599C61.2825 39.0006 61.2339 38.525 61.0531 38.0934C60.8724 37.6617 60.5677 37.2934 60.1775 37.0349C59.7874 36.7764 59.3294 36.6395 58.8614 36.6413C58.5505 36.6413 58.2427 36.7028 57.9557 36.8223C57.6686 36.9418 57.4081 37.1169 57.1891 37.3375C56.97 37.5581 56.7968 37.8198 56.6794 38.1076C56.562 38.3955 56.5027 38.7037 56.505 39.0145Z" fill="black"/>
<path d="M24.9734 39.3987C24.2797 39.3987 23.5851 39.4195 22.8914 39.3911C22.4514 39.3722 22.2526 39.5473 22.1164 39.9589C21.4539 41.9555 19.2035 42.7522 17.4244 41.6413C16.1402 40.8398 15.6443 39.1678 16.2632 37.7276C16.5561 37.0576 17.0748 36.5115 17.7291 36.1847C18.3833 35.8579 19.1315 35.771 19.8432 35.9392C20.9883 36.2231 21.7747 36.9195 22.1201 38.0531C22.2488 38.4752 22.4656 38.6209 22.8999 38.6152C24.2551 38.5934 25.6122 38.6067 26.9692 38.6076C27.1112 38.6076 27.2777 38.567 27.3884 38.6275C27.5436 38.7127 27.6572 38.8745 27.7888 39.006C27.6544 39.1328 27.5276 39.358 27.3847 39.3694C26.8046 39.4157 26.2188 39.3968 25.6358 39.4006L24.9734 39.3987ZM21.4955 38.9786C21.4918 38.5108 21.3494 38.0547 21.0865 37.6678C20.8236 37.281 20.4518 36.9808 20.0183 36.8051C19.5847 36.6294 19.1088 36.5862 18.6507 36.6809C18.1926 36.7756 17.7728 37.004 17.4445 37.3372C17.1162 37.6704 16.894 38.0934 16.8061 38.5528C16.7181 39.0123 16.7684 39.4874 16.9504 39.9183C17.1325 40.3492 17.4383 40.7164 17.829 40.9735C18.2198 41.2307 18.678 41.3663 19.1458 41.3631C19.457 41.3621 19.765 41.2995 20.0519 41.1789C20.3389 41.0583 20.5991 40.8821 20.8175 40.6604C21.036 40.4387 21.2084 40.1759 21.3248 39.8873C21.4411 39.5986 21.4992 39.2898 21.4955 38.9786Z" fill="black"/>
<path d="M39.3929 53.0287C39.3929 53.7384 39.4109 54.4481 39.3863 55.1578C39.3721 55.5609 39.5405 55.7473 39.9134 55.8647C41.9367 56.5109 42.76 58.7687 41.6395 60.5732C40.8522 61.8412 39.1998 62.3446 37.7718 61.7503C37.0886 61.4668 36.5287 60.9491 36.1928 60.2901C35.8569 59.6311 35.7668 58.874 35.9387 58.1546C36.2226 57.0285 36.8917 56.2403 38.0103 55.8959C38.4693 55.7549 38.6226 55.5174 38.6122 55.0443C38.5838 53.7044 38.6017 52.3635 38.6027 51.0227C38.6027 50.8808 38.5639 50.7133 38.6254 50.6035C38.7125 50.4493 38.8752 50.3376 39.0039 50.207C39.1298 50.3423 39.3531 50.471 39.3636 50.6149C39.4071 51.2271 39.3882 51.845 39.391 52.4591C39.3938 52.6502 39.3929 52.8395 39.3929 53.0287ZM36.6371 58.8699C36.6358 59.3381 36.7735 59.7961 37.0326 60.186C37.2918 60.5759 37.6608 60.8801 38.093 61.0602C38.5252 61.2403 39.0011 61.2881 39.4605 61.1975C39.9199 61.107 40.342 60.8822 40.6736 60.5517C41.0051 60.2211 41.2311 59.7996 41.3229 59.3405C41.4147 58.8815 41.3683 58.4055 41.1894 57.9728C41.0105 57.5402 40.7073 57.1703 40.3181 56.9101C39.9289 56.6499 39.4712 56.5109 39.003 56.5109C38.3773 56.5129 37.7777 56.7619 37.3346 57.2037C36.8915 57.6455 36.6409 58.2443 36.6371 58.8699Z" fill="black"/>
<path d="M38.6042 24.9721C38.6042 24.2785 38.5815 23.5839 38.6118 22.8903C38.6317 22.4475 38.4509 22.2525 38.044 22.1163C36.0283 21.4426 35.24 19.1678 36.3822 17.385C37.1724 16.1549 38.8266 15.661 40.2281 16.2439C41.6136 16.8192 42.4123 18.3474 42.0726 19.797C41.7991 20.9638 41.1007 21.769 39.949 22.1229C39.5222 22.2535 39.3812 22.4721 39.3897 22.9026C39.4105 24.2586 39.3982 25.6155 39.3973 26.9715C39.3973 27.1125 39.4351 27.28 39.3745 27.3907C39.2875 27.5459 39.1257 27.6585 38.996 27.789C38.8692 27.6537 38.6449 27.526 38.6345 27.3831C38.591 26.7709 38.6099 26.153 38.6071 25.5389C38.6033 25.3506 38.6042 25.1613 38.6042 24.9721ZM39.0111 21.4918C39.4791 21.4905 39.9362 21.3504 40.3246 21.0893C40.713 20.8282 41.0152 20.4577 41.193 20.0249C41.3708 19.592 41.4162 19.1161 41.3235 18.6574C41.2307 18.1988 41.0041 17.7779 40.6721 17.4481C40.3401 17.1182 39.9177 16.8943 39.4584 16.8045C38.9991 16.7147 38.5235 16.7631 38.0917 16.9437C37.6599 17.1242 37.2914 17.4288 37.0328 17.8188C36.7741 18.2088 36.637 18.6667 36.6387 19.1347C36.6389 19.4454 36.7005 19.753 36.82 20.0399C36.9395 20.3267 37.1146 20.5872 37.335 20.8062C37.5555 21.0252 37.817 21.1985 38.1047 21.3162C38.3923 21.4338 38.7004 21.4935 39.0111 21.4918Z" fill="black"/>
</g>
<defs>
<clipPath id="clip0_1807_5497">
<rect width="46" height="46" fill="white" transform="translate(16 16)"/>
</clipPath>
</defs>
</svg>
