<svg width="384" height="258" viewBox="0 0 384 258" fill="none" xmlns="http://www.w3.org/2000/svg">
<path d="M72.1814 2.15918H338.422C341.437 2.15918 343.878 4.5471 343.878 7.49762V195.881H66.7383V7.49762C66.7383 4.5471 69.1787 2.15918 72.1942 2.15918H72.1814Z" fill="white" stroke="#2E3192" stroke-width="2.55428"/>
<path d="M204.982 8.5999C204.982 9.77363 204.014 10.7375 202.805 10.7375C201.595 10.7375 200.627 9.77363 200.627 8.5999C200.627 7.42617 201.595 6.46233 202.805 6.46233C204.014 6.46233 204.982 7.42617 204.982 8.5999Z" stroke="#2E3192" stroke-width="0.957854"/>
<path d="M209.826 8.60008C209.826 9.41254 209.155 10.0835 208.313 10.0835C207.47 10.0835 206.799 9.41254 206.799 8.60008C206.799 7.7876 207.47 7.11662 208.313 7.11662C209.155 7.11662 209.826 7.7876 209.826 8.60008Z" stroke="#2E3192" stroke-width="0.957854"/>
<path d="M46.7167 199.353V197.526H363.741V199.353C363.741 199.898 363.584 200.424 363.312 200.868L363.308 200.874C362.93 201.506 362.319 201.993 361.57 202.211C361.57 202.211 361.57 202.212 361.57 202.212L342.273 207.822L342.27 207.823C339.942 208.509 337.513 208.853 335.069 208.853H75.3885C72.9579 208.853 70.5284 208.509 68.2 207.823L68.1976 207.822L48.9001 202.211L48.8981 202.211C48.137 201.992 47.5277 201.505 47.1495 200.874L47.1496 200.874L47.146 200.868C46.8736 200.424 46.7167 199.898 46.7167 199.353Z" stroke="#2E3192" stroke-width="1.27714"/>
<path d="M364.38 196.887V199.353C364.38 200.019 364.188 200.661 363.856 201.202C363.396 201.969 362.655 202.56 361.749 202.825L342.451 208.435C340.063 209.139 337.572 209.492 335.069 209.492H75.3885C72.8981 209.492 70.4076 209.139 68.0194 208.435L48.7218 202.825C47.8023 202.56 47.0615 201.969 46.6018 201.202C46.2697 200.661 46.0781 200.019 46.0781 199.353V196.887H364.38Z" stroke="#2E3192" stroke-width="1.91571"/>
<path d="M364.38 196.887V199.353C364.38 200.019 364.188 200.661 363.856 201.202H46.6018C46.2697 200.661 46.0781 200.019 46.0781 199.353V196.887H364.38Z" stroke="#2E3192" stroke-width="1.91571"/>
<path d="M208.24 187.994C208.24 189.619 206.901 190.949 205.233 190.949C203.565 190.949 202.225 189.619 202.225 187.994C202.225 186.368 203.565 185.038 205.233 185.038C206.901 185.038 208.24 186.368 208.24 187.994Z" stroke="#2E3192" stroke-width="0.957854"/>
<path d="M338.273 14.147H72.168V181.666H338.273V14.147Z" fill="#DFF3FD"/>
<g filter="url(#filter0_d_11_5461)">
<path d="M42.474 205.746L49.8398 213.111L43.8909 219.06L36.5251 211.694L42.474 205.746Z" fill="#DFF3FD"/>
<path d="M54.9102 210.006L45.5797 200.675L42.2753 203.98C41.4878 204.767 41.4878 206.046 42.2753 206.834L48.7521 213.31C49.5395 214.098 50.8183 214.098 51.6057 213.31L54.9102 210.006Z" fill="#2E3192"/>
<path d="M74.5065 214.866C55.8446 214.866 40.7161 199.738 40.7161 181.076C40.7161 162.414 55.8446 147.286 74.5065 147.286C93.1684 147.286 108.297 162.414 108.297 181.076C108.297 199.738 93.1684 214.866 74.5065 214.866Z" fill="#2E3192"/>
<path d="M53.1251 202.458C64.9344 214.267 84.0798 214.267 95.8891 202.458C107.698 190.649 107.698 171.504 95.8891 159.694C84.0798 147.885 64.9344 147.885 53.1251 159.694C41.3167 171.504 41.3167 190.649 53.1251 202.458Z" fill="#DFF3FD"/>
<path d="M49.2923 206.292C52.6961 209.695 56.665 212.331 61.0894 214.125C65.3626 215.858 69.8772 216.737 74.5072 216.737C79.1381 216.737 83.6527 215.858 87.9249 214.125C92.3493 212.331 96.3192 209.695 99.722 206.292C103.126 202.888 105.761 198.919 107.556 194.495C109.289 190.221 110.168 185.707 110.168 181.076C110.168 176.445 109.289 171.93 107.557 167.658C105.762 163.234 103.127 159.264 99.723 155.861C96.3192 152.457 92.3502 149.822 87.9259 148.027C83.6527 146.295 79.1381 145.416 74.5081 145.416C69.8772 145.416 65.3626 146.295 61.0904 148.027C56.666 149.822 52.6961 152.457 49.2933 155.861C45.8895 159.265 43.2539 163.234 41.4595 167.658C39.7271 171.931 38.8483 176.446 38.8483 181.076C38.8483 185.707 39.7271 190.221 41.4595 194.494C43.2539 198.918 45.8895 202.888 49.2933 206.291L49.2923 206.292ZM97.0798 158.504C103.109 164.533 106.429 172.549 106.429 181.076C106.429 189.603 103.109 197.618 97.0798 203.648C91.0507 209.677 83.0348 212.997 74.5081 212.997C65.9814 212.997 57.9655 209.677 51.9364 203.648C45.9074 197.618 42.5872 189.603 42.5872 181.076C42.5872 172.549 45.9074 164.533 51.9364 158.504C57.9655 152.475 65.9814 149.155 74.5081 149.155C83.0348 149.155 91.0507 152.475 97.0798 158.504Z" fill="#DFF3FD"/>
<path d="M94.7237 195.203C94.3087 195.947 94.5763 196.886 95.32 197.3C96.0646 197.715 97.0035 197.448 97.4176 196.704C97.8326 195.959 97.566 195.021 96.8214 194.606C96.0777 194.192 95.1387 194.458 94.7237 195.203Z" fill="#EAEAF4"/>
<path d="M87.3584 167.034C95.9396 175.829 97.117 176.869 97.5405 190.116C97.5612 190.753 97.8682 191.342 98.4879 191.499C99.0982 191.654 99.7339 191.339 99.9724 190.756C103.802 181.419 102.085 169.996 95.594 162.247C94.8194 161.321 93.8945 160.397 92.702 160.199C91.2927 159.966 89.9528 160.808 88.7734 161.613C87.4185 162.537 85.2664 164.888 87.3594 167.033L87.3584 167.034Z" fill="white"/>
<path d="M45.6735 216.598L38.9869 209.912C38.2572 209.182 37.0728 209.182 36.3431 209.912L9.93067 236.324C7.35589 238.899 7.35589 243.08 9.93067 245.655C12.5055 248.23 16.687 248.23 19.2618 245.655L45.6742 219.243C46.4039 218.513 46.4039 217.329 45.6742 216.599L45.6735 216.598Z" fill="#2E3192"/>
</g>
<path d="M141.282 112.971V105.271L164.172 72.5106H175.582V104.431H181.742V112.971H175.582V122.911H165.782V112.971H141.282ZM166.412 83.0106L152.062 104.431H166.412V83.0106ZM185.881 96.7306C185.881 88.6573 187.328 82.334 190.221 77.7606C193.161 73.1873 198.015 70.9006 204.781 70.9006C211.548 70.9006 216.378 73.1873 219.271 77.7606C222.211 82.334 223.681 88.6573 223.681 96.7306C223.681 104.851 222.211 111.221 219.271 115.841C216.378 120.461 211.548 122.771 204.781 122.771C198.015 122.771 193.161 120.461 190.221 115.841C187.328 111.221 185.881 104.851 185.881 96.7306ZM214.021 96.7306C214.021 93.2773 213.788 90.384 213.321 88.0506C212.901 85.6706 212.015 83.734 210.661 82.2406C209.355 80.7473 207.395 80.0006 204.781 80.0006C202.168 80.0006 200.185 80.7473 198.831 82.2406C197.525 83.734 196.638 85.6706 196.171 88.0506C195.751 90.384 195.541 93.2773 195.541 96.7306C195.541 100.277 195.751 103.264 196.171 105.691C196.591 108.071 197.478 110.007 198.831 111.501C200.185 112.947 202.168 113.671 204.781 113.671C207.395 113.671 209.378 112.947 210.731 111.501C212.085 110.007 212.971 108.071 213.391 105.691C213.811 103.264 214.021 100.277 214.021 96.7306ZM228.615 112.971V105.271L251.505 72.5106H262.915V104.431H269.075V112.971H262.915V122.911H253.115V112.971H228.615ZM253.745 83.0106L239.395 104.431H253.745V83.0106Z" fill="#2E3192"/>
<path d="M375.237 92.9891H312.769C308.262 92.9891 305.433 88.3424 307.623 84.5786L338.857 31.1578C341.107 27.2885 346.899 27.2885 349.149 31.1578L380.383 84.5786C382.572 88.3424 379.744 92.9891 375.237 92.9891Z" fill="#DFF3FD"/>
<path d="M382.861 83.1716L351.63 29.7508C350.85 28.442 349.736 27.3568 348.398 26.6028C347.061 25.8488 345.547 25.4521 344.006 25.4521C342.465 25.4521 340.95 25.8488 339.613 26.6028C338.276 27.3568 337.161 28.442 336.381 29.7508L305.151 83.1716C304.4 84.4375 304.004 85.8773 304.004 87.3434C304.004 88.8096 304.4 90.2493 305.151 91.5152C305.921 92.8319 307.033 93.923 308.373 94.6765C309.713 95.4301 311.232 95.8189 312.775 95.8031H375.236C376.778 95.8176 378.296 95.4282 379.634 94.6748C380.973 93.9213 382.084 92.8309 382.854 91.5152C383.606 90.2499 384.003 88.8105 384.004 87.3444C384.005 85.8783 383.611 84.4381 382.861 83.1716ZM377.908 88.6977C377.635 89.1551 377.244 89.533 376.775 89.7926C376.306 90.0522 375.774 90.1842 375.236 90.175H312.775C312.237 90.1842 311.706 90.0522 311.236 89.7926C310.767 89.533 310.376 89.1551 310.104 88.6977C309.857 88.2864 309.727 87.8175 309.727 87.3399C309.727 86.8623 309.857 86.3934 310.104 85.9821L341.334 32.5613C341.612 32.1061 342.005 31.7293 342.474 31.4678C342.944 31.2063 343.474 31.0688 344.013 31.0688C344.552 31.0688 345.082 31.2063 345.552 31.4678C346.021 31.7293 346.414 32.1061 346.691 32.5613L377.922 85.9821C378.166 86.3946 378.294 86.8642 378.291 87.3418C378.289 87.8195 378.156 88.2877 377.908 88.6977ZM341.149 67.6628V53.5927C341.149 52.8463 341.45 52.1306 341.985 51.6028C342.521 51.0751 343.248 50.7786 344.006 50.7786C344.763 50.7786 345.49 51.0751 346.026 51.6028C346.562 52.1306 346.863 52.8463 346.863 53.5927V67.6628C346.863 68.4091 346.562 69.1249 346.026 69.6526C345.49 70.1804 344.763 70.4768 344.006 70.4768C343.248 70.4768 342.521 70.1804 341.985 69.6526C341.45 69.1249 341.149 68.4091 341.149 67.6628ZM348.291 80.3259C348.291 81.1608 348.04 81.9769 347.569 82.671C347.098 83.3652 346.429 83.9062 345.646 84.2257C344.863 84.5452 344.001 84.6287 343.17 84.4659C342.338 84.303 341.575 83.901 340.975 83.3107C340.376 82.7203 339.968 81.9682 339.803 81.1494C339.637 80.3306 339.722 79.4819 340.046 78.7106C340.371 77.9393 340.92 77.2801 341.625 76.8163C342.33 76.3525 343.158 76.1049 344.006 76.1049C345.142 76.1049 346.232 76.5496 347.036 77.3412C347.84 78.1328 348.291 79.2064 348.291 80.3259Z" fill="#2E3192"/>
<defs>
<filter id="filter0_d_11_5461" x="-0.00390625" y="137.262" width="118.172" height="120.325" filterUnits="userSpaceOnUse" color-interpolation-filters="sRGB">
<feFlood flood-opacity="0" result="BackgroundImageFix"/>
<feColorMatrix in="SourceAlpha" type="matrix" values="0 0 0 0 0 0 0 0 0 0 0 0 0 0 0 0 0 0 127 0" result="hardAlpha"/>
<feOffset dy="2"/>
<feGaussianBlur stdDeviation="4"/>
<feColorMatrix type="matrix" values="0 0 0 0 0 0 0 0 0 0 0 0 0 0 0 0 0 0 0.15 0"/>
<feBlend mode="normal" in2="BackgroundImageFix" result="effect1_dropShadow_11_5461"/>
<feBlend mode="normal" in="SourceGraphic" in2="effect1_dropShadow_11_5461" result="shape"/>
</filter>
</defs>
</svg>
