<svg xmlns="http://www.w3.org/2000/svg" width="76.939" height="76.939" viewBox="0 0 76.939 76.939">
  <g id="structure-ico" transform="translate(-3.33 -0.24)">
    <path id="Path_9889" data-name="Path 9889" d="M79.77,38.71A37.97,37.97,0,1,1,41.8.74,37.97,37.97,0,0,1,79.77,38.71Z" fill="#fff" stroke="#c0c0d4" stroke-width="1"/>
    <path id="Path_9892" data-name="Path 9892" d="M75.78,38.89A33.89,33.89,0,1,1,41.89,5,33.89,33.89,0,0,1,75.78,38.89Z" fill="#c8dcfe"/>
    <path id="Path_9893" data-name="Path 9893" d="M42.394,41.771v4.164c0,.588.18.719.72.518l6.065-2.271a.662.662,0,0,0,.513-.735c-.028-.473-.009-.946,0-1.419,0-.272.08-.537.4-.537s.4.266.4.538v2.035a.57.57,0,0,1-.42.6c-2.585.958-5.164,1.934-7.752,2.885a1.063,1.063,0,0,1-.675-.012c-2.573-.946-5.137-1.92-7.708-2.872a.563.563,0,0,1-.43-.591v-4.78c0-.272.077-.537.4-.531s.394.276.4.544c0,1.357.018,2.714-.006,4.069a.73.73,0,0,0,.54.812c2.011.74,4.015,1.5,6.022,2.25.556.207.737.084.738-.493q0-4.213.009-8.422a.61.61,0,0,0-.451-.633q-3.123-1.173-6.24-2.34c-.393-.146-.594.014-.609.439a5.624,5.624,0,0,1-.033.946c-.032.155-.244.271-.378.4-.128-.136-.358-.267-.366-.411a20.161,20.161,0,0,1,0-2.126.625.625,0,0,1,.35-.429q3.908-1.491,7.833-2.94a.913.913,0,0,1,.588.009c2.6.96,5.2,1.94,7.8,2.9a.542.542,0,0,1,.391.568V38.5c0,.266-.052.546-.379.559-.358.015-.421-.276-.422-.56-.006-1.136,0-2.271,0-3.407,0-.577-.182-.7-.73-.5-2.007.749-4.013,1.506-6.023,2.248a.735.735,0,0,0-.55.806C42.411,39.026,42.394,40.4,42.394,41.771Zm-.416-5.422a3.232,3.232,0,0,0,.32-.083c1.873-.7,3.747-1.391,5.611-2.107.176-.068.294-.284.439-.432-.147-.127-.273-.308-.443-.373-1.836-.7-3.677-1.4-5.525-2.071a1.221,1.221,0,0,0-.767.006q-2.728.993-5.436,2.041a2.4,2.4,0,0,0-.53.4c.178.154.33.373.537.452,1.8.7,3.618,1.374,5.429,2.054C41.731,36.282,41.854,36.311,41.978,36.349Z"/>
    <path id="Path_9894" data-name="Path 9894" d="M28.944,30.3A4.455,4.455,0,1,1,32.6,28.227a.61.61,0,0,0,.118.926c.432.391.833.816,1.241,1.23.2.207.353.491.085.688a.7.7,0,0,1-.648-.111,17.6,17.6,0,0,1-1.346-1.325.5.5,0,0,0-.739-.08,4.373,4.373,0,0,1-2.367.745Zm-3.721-4.426a3.644,3.644,0,1,0,3.612-3.65,3.6,3.6,0,0,0-3.609,3.651Z"/>
    <path id="Path_9895" data-name="Path 9895" d="M50.7,52.034a4.387,4.387,0,0,1,.748-2.349.5.5,0,0,0-.078-.739c-.447-.421-.873-.864-1.307-1.3-.2-.2-.373-.458-.145-.7.253-.271.519-.1.734.122.4.4.818.788,1.2,1.208a.609.609,0,0,0,.924.121,4.43,4.43,0,1,1,2.675,8.166A4.478,4.478,0,0,1,50.7,52.034Zm4.438,3.74a3.646,3.646,0,1,0-1.43-.247,3.646,3.646,0,0,0,1.43.247Z"/>
    <path id="Path_9896" data-name="Path 9896" d="M55.109,30.3a4.44,4.44,0,0,1-2.407-.738.517.517,0,0,0-.777.084c-.419.45-.862.876-1.3,1.308-.205.2-.465.354-.7.11s-.076-.5.127-.7c.4-.4.785-.821,1.209-1.2a.631.631,0,0,0,.124-.963,4.4,4.4,0,1,1,3.724,2.1Zm3.662-4.434a3.6,3.6,0,0,0-3.621-3.641,3.645,3.645,0,1,0,3.621,3.641Z"/>
    <path id="Path_9897" data-name="Path 9897" d="M28.687,47.694a4.652,4.652,0,0,1,2.608.743.513.513,0,0,0,.777-.084c.419-.449.862-.875,1.3-1.307.205-.2.465-.354.7-.111s.075.5-.126.7c-.4.4-.785.822-1.209,1.2a.632.632,0,0,0-.124.964,4.4,4.4,0,0,1-2.969,6.693A4.423,4.423,0,0,1,24.937,50.1a4.3,4.3,0,0,1,3.75-2.4Zm.171,8.08a3.645,3.645,0,1,0-3.632-3.63,3.6,3.6,0,0,0,3.632,3.63Z"/>
    <path id="Path_9898" data-name="Path 9898" d="M56.032,38.609c.662,0,1.325-.029,1.987.009A.752.752,0,0,0,58.9,38a3.09,3.09,0,0,1,3.489-2.1,3.143,3.143,0,1,1-3.456,4.222C58.66,39.4,58.66,39.4,57.9,39.4H54.065a1.092,1.092,0,0,1-.466-.027,1.833,1.833,0,0,1-.392-.384c.137-.123.269-.345.414-.354.676-.04,1.355-.022,2.033-.024Zm3.474.4a2.357,2.357,0,1,0,.174-.907,2.357,2.357,0,0,0-.174.907Z"/>
    <path id="Path_9899" data-name="Path 9899" d="M27.974,39.4c-.694,0-1.388.021-2.082-.007a.683.683,0,0,0-.775.568,3.14,3.14,0,1,1-2.273-4.02,2.976,2.976,0,0,1,2.277,2.114.684.684,0,0,0,.78.562c1.355-.022,2.712-.008,4.069-.007a.958.958,0,0,1,.419.02,2.038,2.038,0,0,1,.4.378c-.134.127-.261.352-.4.363-.58.046-1.166.027-1.749.031ZM24.5,38.98a2.357,2.357,0,1,0-.171.909,2.357,2.357,0,0,0,.171-.909Z"/>
    <path id="Path_9900" data-name="Path 9900" d="M42.394,53.03c0,.71.018,1.419-.007,2.129a.629.629,0,0,0,.527.707,3.144,3.144,0,1,1-3.975,2.29A2.953,2.953,0,0,1,41.011,55.9a.738.738,0,0,0,.6-.852c-.028-1.34-.01-2.681-.009-4.022a.94.94,0,0,1,.023-.419,2.167,2.167,0,0,1,.378-.4c.126.135.349.264.36.408.044.612.025,1.23.028,1.844C42.4,52.651,42.394,52.84,42.394,53.03Zm-2.756,5.841a2.373,2.373,0,1,0,.7-1.666,2.373,2.373,0,0,0-.7,1.666Z"/>
    <path id="Path_9901" data-name="Path 9901" d="M41.6,24.972c0-.694-.023-1.388.007-2.082a.683.683,0,0,0-.568-.774,3.132,3.132,0,0,1-1.662-4.731,3.164,3.164,0,0,1,3.846-1.141A3.125,3.125,0,0,1,45.072,19.8a2.988,2.988,0,0,1-2.124,2.326.68.68,0,0,0-.559.78c.021,1.356.009,2.713.008,4.069a.954.954,0,0,1-.023.419,2.116,2.116,0,0,1-.378.4c-.127-.135-.351-.263-.361-.406-.044-.612-.025-1.23-.028-1.844C41.6,25.351,41.6,25.162,41.6,24.972Zm.407-3.48a2.359,2.359,0,1,0-.906-.176,2.359,2.359,0,0,0,.906.176Z"/>
  </g>
</svg>
