<svg xmlns="http://www.w3.org/2000/svg" xmlns:xlink="http://www.w3.org/1999/xlink" width="77.94" height="77.94" viewBox="0 0 77.94 77.94">
  <defs>
    <clipPath id="clip-path">
      <rect id="Rectangle_6047" data-name="Rectangle 6047" width="41" height="38" transform="translate(22 20)" fill="#fff"/>
    </clipPath>
  </defs>
  <g id="tenor-ico" transform="translate(-4)">
    <circle id="Ellipse_152" data-name="Ellipse 152" cx="37.97" cy="37.97" r="37.97" transform="translate(5 1)" fill="#fff"/>
    <circle id="Ellipse_153" data-name="Ellipse 153" cx="38.47" cy="38.47" r="38.47" transform="translate(4.5 0.5)" fill="none" stroke="rgba(46,49,146,0.2)" stroke-linejoin="round" stroke-width="1"/>
    <circle id="Ellipse_156" data-name="Ellipse 156" cx="33.89" cy="33.89" r="33.89" transform="translate(9 5)" fill="#c8dcfe" opacity="0.6"/>
    <g id="Group_15249" data-name="Group 15249" opacity="0.8">
      <g id="Group_15248" data-name="Group 15248" clip-path="url(#clip-path)">
        <path id="Path_9889" data-name="Path 9889" d="M62.993,41.827c0,2.487-.007,4.975.006,7.461a1.629,1.629,0,0,1-.752,1.441A7.6,7.6,0,0,1,59,51.913c-1.476.207-2.967.293-4.452.428a.535.535,0,0,1-.323-.03c-.131-.092-.312-.24-.311-.363s.173-.3.31-.366a1.162,1.162,0,0,1,.488-.047,17.662,17.662,0,0,0,5.723-.8,7.722,7.722,0,0,0,1.576-.874,1.431,1.431,0,0,0,.166-1.277.508.508,0,0,0-.453-.124,17.384,17.384,0,0,1-6.92,1.283.748.748,0,0,1-.4-.048.543.543,0,0,1-.256-.363.5.5,0,0,1,.278-.348,1.753,1.753,0,0,1,.573-.044,17.332,17.332,0,0,0,5.592-.858,6.838,6.838,0,0,0,1.393-.791,1.345,1.345,0,0,0,.211-1.231.5.5,0,0,0-.445-.146,17.462,17.462,0,0,1-7.289,1.3c-.307.007-.724.075-.732-.387s.4-.4.715-.408a18.5,18.5,0,0,0,6.047-.839,7.529,7.529,0,0,0,1.5-.842,1.312,1.312,0,0,0,.2-1.193.53.53,0,0,0-.475-.151,19.218,19.218,0,0,1-8.792,1.228c-.259-.01-.488-.09-.485-.394,0-.328.238-.385.518-.393,1.587-.047,3.183-.017,4.758-.185a21.636,21.636,0,0,0,3.246-.789,2.566,2.566,0,0,0,.763-.409,1.184,1.184,0,0,0,.49-1.382.324.324,0,0,0-.478-.241c-4.216,1.725-8.526,1.61-12.862.6a8.91,8.91,0,0,1-2.049-.873,1.626,1.626,0,0,1-.843-1.56c.012-1.5.017-3,0-4.5a1.789,1.789,0,0,1,.912-1.657,9.446,9.446,0,0,1,3.351-1.149,24.375,24.375,0,0,1,7.432-.162c.308.039.765-.051.755.489-.006.305-.259.368-.853.3a22.374,22.374,0,0,0-8.517.462,7.015,7.015,0,0,0-1.71.724c-.768.453-.746.917.006,1.4a7.526,7.526,0,0,0,2.841.984,21.986,21.986,0,0,0,10.1-.389,6.235,6.235,0,0,0,1.668-.879c.382-.262.384-.55.013-.815A13.3,13.3,0,0,0,60.4,32.91c-.166-.089-.394-.087-.541-.2a.529.529,0,0,1-.207-.425c.031-.122.27-.3.376-.277a4.66,4.66,0,0,1,2.617,1.32,1.667,1.667,0,0,1,.327.993C63.006,36.825,62.993,39.326,62.993,41.827Zm-8.46-.417c1.291-.125,2.586-.219,3.873-.385a8.886,8.886,0,0,0,3-.9,1.292,1.292,0,0,0,.822-1.46c-.059-.359-.222-.479-.559-.333s-.679.312-1.032.428a18.86,18.86,0,0,1-6.129.839,16.751,16.751,0,0,1-7.237-1.3c-.279-.133-.423.035-.469.284a1.2,1.2,0,0,0,.69,1.479,6.2,6.2,0,0,0,1.02.453,21.564,21.564,0,0,0,6.016.893Zm-.049-2.562c1.115-.083,2.234-.129,3.343-.264a10.328,10.328,0,0,0,3.61-1.013,1.286,1.286,0,0,0,.793-1.438c-.052-.361-.219-.485-.559-.344-.369.153-.731.333-1.111.454a18.589,18.589,0,0,1-5.765.805,17.136,17.136,0,0,1-7.531-1.294c-.289-.137-.415.041-.46.288a1.214,1.214,0,0,0,.727,1.5,5.823,5.823,0,0,0,.907.4,19.869,19.869,0,0,0,6.046.9Z"/>
        <path id="Path_9890" data-name="Path 9890" d="M33.585,28.863c-.636,0-1.275.037-1.908-.011a2.165,2.165,0,0,0-1.489.476,16.6,16.6,0,0,0-4.76,5.375,19.227,19.227,0,0,0-2.606,7.791,9.333,9.333,0,0,0,5.653,9.657,14.588,14.588,0,0,0,6.452,1.279,1.179,1.179,0,0,1,.451.009,2.008,2.008,0,0,1,.432.353c-.125.138-.249.283-.381.409-.041.037-.133.025-.2.027A14.649,14.649,0,0,1,26.8,52.079a9.742,9.742,0,0,1-4.679-10.148,20.407,20.407,0,0,1,5.5-11.444,23.253,23.253,0,0,1,2.357-1.96c.118-.1.258-.167.372-.263a.969.969,0,0,0,.218-1.4c-.747-1.344-1.493-2.687-2.194-4.057a5.558,5.558,0,0,1-.44-1.467A1.038,1.038,0,0,1,29.083,20a12.048,12.048,0,0,1,2.616.38,10.8,10.8,0,0,0,6.086.022,16.537,16.537,0,0,1,2.449-.392A.9.9,0,0,1,41.3,21.228a15.9,15.9,0,0,1-.912,2.579c-.451.981-1.008,1.917-1.536,2.857-.455.813-.344,1.167.4,1.75a36.913,36.913,0,0,1,3,2.546,13.86,13.86,0,0,1,2.585,3.654.881.881,0,0,1,.151.379c0,.124-.083.329-.182.37a.652.652,0,0,1-.45-.059c-.083-.037-.124-.176-.176-.273a16.461,16.461,0,0,0-5.51-6.058,1.841,1.841,0,0,1-.89-1.595c0-.347-.166-.458-.49-.456-1.272.007-2.544,0-3.815,0a.877.877,0,0,1-.443-.057.537.537,0,0,1-.231-.378.462.462,0,0,1,.255-.318,1.285,1.285,0,0,1,.49-.045c1.424,0,2.848-.011,4.272.006a.6.6,0,0,0,.614-.319c.651-1.315,1.34-2.615,1.923-3.96.406-.937.19-1.162-.823-.986-1.074.186-2.137.431-3.207.641a9.593,9.593,0,0,1-4.266-.214,24.92,24.92,0,0,0-2.852-.468c-.4-.053-.565.117-.478.514a6.145,6.145,0,0,0,.492,1.493c.6,1.167,1.262,2.311,1.918,3.454a2.293,2.293,0,0,1,.415,1.366c-.028.333.18.417.474.417,1.231-.006,2.462,0,3.693,0h.373c.283,0,.562.047.556.4s-.292.392-.571.393Z"/>
        <path id="Path_9891" data-name="Path 9891" d="M44.13,57.228c4.5.009,7.78-3.022,8.075-6.9a7.558,7.558,0,0,0-6.248-8.044,7.3,7.3,0,0,0-4.739.789c-.036.02-.074.038-.109.059-.237.135-.481.205-.64-.092s0-.493.263-.591a15.309,15.309,0,0,1,2.528-.892,8.2,8.2,0,1,1-4.521,2.414.66.66,0,0,1,.332-.224.517.517,0,0,1,.4.112.527.527,0,0,1,.039.417.982.982,0,0,1-.244.333A7.171,7.171,0,0,0,37.9,52.73,7.042,7.042,0,0,0,44.13,57.228Z"/>
        <path id="Path_9892" data-name="Path 9892" d="M44.624,49.309c.29,0,.581-.02.87,0a2.011,2.011,0,0,1,.105,4.013c-.591.083-.59.083-.591.7a3.228,3.228,0,0,1-.022.787c-.041.158-.238.277-.365.413-.131-.134-.342-.25-.375-.407a3.488,3.488,0,0,1-.021-.917c.023-.377-.106-.542-.507-.577a1.958,1.958,0,0,1-1.9-1.809c-.026-.273.005-.529.327-.571s.415.177.451.464a1.209,1.209,0,0,0,1.3,1.122c.5,0,1,.006,1.493,0a1.213,1.213,0,1,0-.018-2.425c-.5-.006-1,.007-1.493-.006a2,2,0,0,1-2.036-1.94,1.961,1.961,0,0,1,1.9-2.059c.347-.031.493-.185.479-.529-.012-.305-.005-.611,0-.917.005-.25.111-.45.381-.456.295-.006.4.2.4.472s.017.557,0,.834c-.027.4.129.573.54.6a1.946,1.946,0,0,1,1.868,1.744c.039.277.046.559-.309.616s-.43-.19-.465-.486a1.193,1.193,0,0,0-1.167-1.084c-.552-.021-1.107-.022-1.659,0a1.174,1.174,0,0,0-.85.368,1.218,1.218,0,0,0,.875,2.045c.263.009.526,0,.788,0Z"/>
      </g>
    </g>
  </g>
</svg>
